<?xml version="1.0" standalone="no"?>
<!DOCTYPE svg PUBLIC "-//W3C//DTD SVG 1.1//EN" "http://www.w3.org/Graphics/SVG/1.1/DTD/svg11.dtd" >
<svg>
<metadata>
Created by FontForge 20071110 at Tue Apr 14 11:23:28 2009
 By Tillmann Vogt,,,
1.01  (c)1995  By Rick W. Mueller - Licensed to http://www.1001freefonts.com
</metadata>
<defs>
<font id="BodieMFHolly" horiz-adv-x="720" >
  <font-face 
    font-family="Bodie MF Holly"
    font-weight="400"
    font-stretch="normal"
    units-per-em="2048"
    panose-1="0 0 4 0 0 0 0 0 0 0"
    ascent="1638"
    descent="-410"
    x-height="1405"
    cap-height="1429"
    bbox="-10 -300 2897 1742"
    underline-thickness="20"
    underline-position="-143"
    unicode-range="U+0020-U+F000"
  />
<missing-glyph horiz-adv-x="1024" 
d="M128 0v1727h768v-1727h-768zM256 128h512v1471h-512v-1471z" />
    <glyph glyph-name=".notdef" horiz-adv-x="1024" 
d="M128 0v1727h768v-1727h-768zM256 128h512v1471h-512v-1471z" />
    <glyph glyph-name=".null" horiz-adv-x="0" 
 />
    <glyph glyph-name="nonmarkingreturn" horiz-adv-x="650" 
 />
    <glyph glyph-name="space" unicode=" " horiz-adv-x="650" 
 />
    <glyph glyph-name="exclam" unicode="!" horiz-adv-x="840" 
d="M839 1622q-40 -281 -167 -958q-272 -17 -464 -28l-9 9q-1 76 -11 478q-6 284 -6 473q371 22 657 26zM736 226q-10 -24 -14 -65q-7 -63 -8 -68q-14 15 -29 15q-16 0 -46.5 -24t-48.5 -24q-89 -26 -181 -26q-167 0 -268 82q-9 -4 -15 -4q-17 0 -22 35q-7 40 -18 49
q-18 44 -96 72q10 9 39.5 16.5t40.5 17.5q73 144 296 144q64 0 151 -12q128 -17 192 -139q0 -1 8 -37q5 -23 19 -32zM420 1555q-4.83334 -0.166626 -10.4445 -0.166626q-28.0555 0 -75.5555 4.16663q-7 -4 -35 -3q-22 0 -27 -13q-0.818176 -27.8182 -0.818176 -62.7769
q0 -93.2231 5.81818 -237.223q47.9231 -3.76929 74.6805 -3.76929q22.9349 0 30.3195 2.76929q-11 37 -44 97q-37 65 -48 96l6 6q25 -27 50 -75q43 -79 43 -80q11 0 12 3q1 24 12 114q9 70 9 112q0 21 -2 40zM737 1552q-41.4545 5.81824 -96.1323 5.81824
q-20.5042 0 -42.8677 -0.818237q-70 -2 -140 -5q-3 -8 -11 -24q0 -14 -14 -130q-5.78571 -50.1428 -5.78571 -88.301q0 -21.199 1.78571 -38.699q66 37 192 126q16 -4 16 -7q-72 -47 -208 -150q32 -13 88 -15q91 -5 91.5 -6t5.5 -2.5t3 -5.5q-18.125 -3.125 -49.1406 -3.125
q-18.6094 0 -41.8594 1.125q-31.5 2 -54.25 2t-36.75 -2q20 -42 46 -124q-16 10 -33.5 46t-34.5 47q-11 -37 -20 -115.5t-20 -114.5h-7q-0.5625 8.4375 -0.5625 18.2109q0 42.3516 10.5625 109.789q13.0667 81.2 13.0667 126.684q0 3.2489 -0.0666809 6.31555
q-63 -22 -118 -75q0 -43 -6 -211q-2.66666 -91.3333 -2.66666 -152.889q0 -30.7778 0.666656 -54.1111q24 0 182 -5q40.125 -1.125 75.6094 -1.125q59.1406 0 105.391 3.125q43 285 111 839zM336 1214q-54 7 -59 7q-12 -16 -3 -49q48 8 62 42zM687 162q-25 44 -88 56
q-16 3 -117 9q31 -18 102 -33t103 -32zM572 134q-32 -9 -37 -25q8 3 28 3q22 7 22 16q-2 5 -13 6zM625 326q-81 77 -224 77q-101 0 -182 -39l-33.5 -25t-13.5 -34q15 -13 32 -13q16 0 42 14q30 15 41 18q13 -8 13 -20q0 -5 -4.5 -17.5t-4.5 -19.5q0 -6 2 -12q-1 -31 33 -50
q46 -24 51 -31q-34 -12 -97 -52q7 -16 69 -25q12 1 9 19q8 27 44 27q15 -2 21 -20l10 -29q3.75 -0.75 8.125 -0.75q13.125 0 31.875 6.75q2 10 2 20q0 44 -40 95q-3 7 -21 10q-14 3 -12 17q65 11 108 112q8 1 29 -31l29.5 -15t32.5 -4q26 11 26 15q0 3 -2 7zM296 184
q-27 6 -93 41q-57 30 -98 31q-4 -2 -4 -7q36 -7 124 -64q20 -10.2564 38.1591 -10.2564q17.2512 0 32.8409 9.25641z" />
    <glyph glyph-name="quotedbl" unicode="&#x22;" horiz-adv-x="850" 
d="M761 1589l-50 -546l-212 -38l-61 667zM406 1727l-25 -667l-214 38l-79 546zM680 1541l-147 50l1 -514l131 6zM342 1132l-26 514l-144 -50l39 -458z" />
    <glyph glyph-name="dollar" unicode="$" horiz-adv-x="953" 
d="M941 613q0 -148 -175 -224q3 -11 30 -25q22 -11 20 -28q-12 2 -25 2q-66 0 -103 -51q7 -241 7 -233l-1 -48q-195 13 -350 37q0 49 19 137q20 94 22 136l-12 12q-16 -22 -53 -62q-45 56 -71 56q-19 0 -72 -34l-15 43q-10 19 -32.5 25t-25.5 46q-3 35 -35 32q44 15 50 78
l10 101q24 -5 103 -37q63 -26 106 -26q48 0 87 32q2 6 2 12q0 41 -110 77q-161 52 -206 79q-111 66 -111 178q0 131 119 201l221 104q25 14 25 318l329 35l-66 -307l6 -9q128 31 277 36q11 -105 11 -200q0 -52 -3 -104q-85 14 -143 14q-129 0 -191 -63q-3 -7 -3 -14
q0 -50 93 -99l173 -90q93 -61 93 -137zM625 1525l-207 -14q-5 -87 -12 -151q-16 -156 -35 -174q2 -16 16 -36l25 -32.5t5 -2.5q23 0 29 18q15 50 23 147q11 117 17 151l13 -6v-9q0.0799866 -2.95996 0.0799866 -6.14075q0 -36.5792 -10.58 -102.359
q-11.5 -71.5 -11.5 -106.5q0 -16 2 -33q26 11 57 42l49 51zM864 1232l-6 13q-29 -2 -133 -17q-98 -15 -133 -15q-12 0 -20 1l-65 -52q-39 -34 -39 -69l2 -15l148 -23q26 -17 58 -17q24 0 81 14q38.2353 9.94116 65.9446 9.94116q8.52594 0 16.0554 -0.941162q11 57 25 171z
M631 1028q-28 10 -75 16q-63 6 -77 9l-9 -9q24 -35 37 -49q22 -26 47 -39q9 20 34 40zM885 590q0 73 -169.5 172t-168.5 161q-24 31 -86 80q-9 -55 -17 -109q-14 -86 -27 -89q0 36 9.5 108.5t9.5 108.5q0 17 -6 31q-8 2 -16 2q-28 0 -63 -38q-49 -53 -53.5 -55.5t-11 -8
t-12.5 -5.5q-4 0 -6 3q54 68 94 98v13q-5 2 -78 12q-59 7 -55 19q15 4 33 4q23 0 62 -6q44 -6 62 -7l9 7q-4 25 -55 82q-85 -10 -177 -83q-100 -80 -100 -159q0 -85 110 -146l204 -87q110 -47 110 -99q0 -41 -57 -64q-44 -19 -92 -19q-54 0 -101 20q-6 -1 -15 2.5t-14 3.5
q-9 0 -9 -13q7 -22 13 -44q12 -27 34 -27q41 0 55 31q9 4 16 4q16 0 26 -45.5t38 -45.5q6 0 18.5 3.5t18.5 3.5q12 0 20 -15q0 -1 -23 -290l7 -15q56 -3 167 -4l32 1l9 9q-6 24 -3 62q5 56 5 63q0 70 -57 76q-9 -2 -25.5 -18.5t-27.5 -16.5q-5 0 -9 5l-4 61q-3 36 -18 56
q-2 11 -21.5 26.5t-19.5 24.5l1 6q90 30 133 93l25.5 -48.5t53.5 -23.5q21 0 63 12q12 -3 9 -38q3 -7 11 -7q43 0 91 58.5t48 103.5zM739 358q-1.35486 -0.0322571 -2.73358 -0.0322571q-41.3632 0 -104.266 29.0323q-65 30 -91 30l-19 -6q28 -3 84 -36q53 -30 86 -30
q24 0 47 13zM363 365q-27 2 -76.5 26t-79.5 24h-8q13 -5 65 -34q39 -22 67 -22q16 0 32 6z" />
    <glyph glyph-name="ampersand" unicode="&#x26;" horiz-adv-x="1185" 
d="M367 392q-8 -26 -31 -26q-21 0 -21 21q0 24 29 24q19 0 23 -19zM300 261q-38 1 -92 23q-76 30 -89 33q-3 -1 -3 -5q0 -16 62 -38q56 -20 79 -20t43 7zM650 245q-56 -25 -56 -62l1 -6q46 35 55 68zM639 294h-15q-1.36841 -0.0526428 -2.78662 -0.0526428
q-25.5291 0 -67.2134 17.0526q-47 20 -70 21q74 -48 114 -48q21 0 41 10zM770 706q0 62 -13 88q-120.142 -46.8322 -172.259 -46.9976h-0.741089h-3.9519q-161.048 0.99884 -161.048 165.998q0 29 7 61q-28 41 -87 120h-9q-21 -120 -28 -235q-11 -25 -10 -25l-9 1v25
q-0.0714722 2.92859 -0.0714417 6.10205q0 41.2551 12.0714 123.898q13 89 13 130q0 19 -23 19l-7 -1q-52 -28 -149 -93q-4 -19 -4 -40q0 -188 229 -254q-68 -72 -122 -161q-66.9658 -111.943 -66.9658 -189.088q0.649582 -57.9119 51.9658 -57.9119q16 0 62 23
q22 -7 15 -31q6 -23 33 -36q42 -21 45 -22q-1 -13 -12 -35q-7 -1 -18 1.5t-15 2.5q-8 0 -14 -4q-34 -8 -62 -82q-3 -3 -7 -3q-8 0 -16 9q-11 12 -14 14q-18 -1 -25 21t-22 23q-1 -70 64 -118q59 -43 131 -43q48 0 114 27q76 31 88 69l-20 60q-16 36 -46 36q-19 0 -38 -21
q-29 -30 -32 -32q3 16 3 34q0 48 -18 78q-3 5 -19 13.5t-16 13.5q0 8 4 13l15 -6q40 22 40 57q0 17 -9.5 49.5q-9.49237 32.4739 -9.49237 52.1305q0.496155 105.782 130.992 159.37q96 39 221 40zM1070 162q0 15 -22 70q-22 0 -31 -22q-16 -35 -16 -36q-43 50 -88 50
t-86 -60l-20 71q-18 48 -48 48q-11 0 -21 -13q42 -77 142 -220q39 17 188 98zM822 422q0 8 -4 11q-33 -22 -106 -57q-18 -5 -37 -9q-22 -6 -30 -20q13 -13 39 -13q19 0 44 7l9 -1q22 0 53.5 31t31.5 51zM1013 276q-91 48 -126 48q-20 0 -38 -8l16 1
q1.02124 0.0425415 2.07513 0.0425415q23.7121 0 63.9249 -21.5425q42 -22.4999 63 -22.5q10 0 19 3zM228 1141q-5 2 -65 13q-22 -11 -28 -71q39 16 51 23q28 15 42 35zM991 406q-17 55 -55 164h-9q-2 -24 -40.5 -58q-38.5 -34 -38.5 -56q0 -17 17 -34q7 -32 71 -44
q17 3 33 5q19 6 22 23zM279 1176q0 12 -27.5 46t-40.5 34q-19 0 -29 -41q-14 -17 -14 -27q0 -15 40 -19q49 -4 54 -7q17 7 17 14zM333 1339l-6 16q-27 -10 -87 -62q0 -26 23 -57l39 -49h9q3 12 22 152zM813 1128q-1 43 -27 500l-133 -44l-1 -213q-55 36 -147 36
q-79 0 -141 -31q-18.05 -60.8 -18.05 -140.553q0 -4.19739 0.0499878 -8.44739v-18q49 18 193 112q31.8578 7.9646 32.7857 10.1624q2.58795 -1.4043 3.21429 -5.16235q-37 -37 -113 -80q-97 -55 -120 -71l-3 -15q3 -1 131 -22q101 -17 101 -31q0 -6 -6 -7q-129 25 -207 25
h-10q26 -50 87 -127h10q54 78 147 105q64 18 182 18q22 0 39 7zM1165 313q0 -22 -30.5 -39t-30.5 -31q0 -8 8 -23q3 -12 21 -52q14 -32 13 -54q-177 -108 -329 -185q-37 103 -116 307q-185 -241 -388 -241q-145 0 -218 111q-62 94 -64 245q-14 13 -31 41q9 -8 20 -8
q27 0 42 51q44 145 184 276q-148 69 -163 82q-57 52 -57 190q0 200 156 337q149 130 349 130q27 0 54 -3l2 29l-26 166l321 85l1 -43q0.333374 -18.5 0.333313 -39.5555q0 -104.747 -8.33331 -274.444q-11 -224 -12 -313l-6 -7q-59 31 -130 31q-75 0 -152 -53
q-82.9912 -57.059 -82.9913 -132.147q0.495636 -121.853 114.991 -121.853h0.700928q101.632 0.166626 198.299 97l7 -4l-1 -197q-36 9 -74 9q-83 0 -151 -40q-81 -47 -81 -124q0 -48 62 -90q27 -6 54 -6q182 0 321 238q34 -63 79 -186q52 -141 75 -186q14 -1 31.5 14
t26.5 15zM571.786 1331.16q0.353699 0.837646 -3.78571 0.837646q2.24182 0 3.78571 -0.837646z" />
    <glyph glyph-name="quotesingle" unicode="'" horiz-adv-x="550" 
d="M442 1727l-27 -702l-224 40l-83 574zM375 1101l-28 541l-151 -53l41 -482z" />
    <glyph glyph-name="asterisk" unicode="*" horiz-adv-x="900" 
d="M839 1363l-3 -231l-244 -29l168 -246l-219 -73l-93 187l-88 -187l-219 73l160 242l-237 34l-3 231l286 -82l-24 251l223 58l-13 -309zM786 1277l-304 -57l-7 299l-84 -30l12 -273l-289 61l8 -89l262 -49l-145 -260l87 -21l121 231l128 -231l86 21l-154 265l271 44z" />
    <glyph glyph-name="comma" unicode="," 
d="M712 158l-1 -10q-39 -14 -54 -67q-26 -87 -26 -88q-99 -186 -244 -293l-219 166q22 23 81 62q56 36 78 66l-6 6q-30 -6 -62 -6q-137 0 -217 99q-25 32 -29 79q-3 43 -5 85q25 21 53 82q26 55 68 82q89 57 182 57q187 0 298 -142q24 -30 62 -142q41 -26 41 -36zM662 163
q-26 -9 -58 -9q-21 0 -61.5 5.5t-61.5 5.5q-22 0 -40 -5q58 -6 109 -27q79 0 112 30zM596 58q-18 20 -52 20q-25 0 -37 -20q-6 -5 -14 -31q-6 -21 -21 -21q-11 15 -33 72q-18 47 -44 66q-4 7 -25 7q-13 0 -13 7l2 8q100 20 166 124l6 1q12 0 19 -19.5t22 -18.5l7 -1
q6 0 6 14v6q-82 158 -275 158q-64 0 -128 -33q-72 -37 -86 -93q15 15 49 42q18 -51 40 -71q6 -2 12 -2q20 0 43 19l38 29q48 -82 109 -82q11 0 23 2q-1 -8 -52 -38q-47 -28 -47 -75q0 -8 1 -19q41 14 40 14q38 0 38 -40q0 -37 -39 -37q-27 0 -65 46t-70 46q-58 0 -78 -60
q58 -48 155 -48q54 0 102 16l6 -6q-10 -46 -59 -98l-85 -81l121 -111q179 142 218 308zM317 219q-21 -4 -45 -4q-15 0 -156 23q-1 -2 -1 -5q0 -12 53 -26q45 -11 65 -11q48 0 84 23zM111 102q0 21 -14 58q-16 42 -32 43q-4 -3 -5 -9q0 -79 51 -92z" />
    <glyph glyph-name="hyphen" unicode="-" horiz-adv-x="775" 
d="M720 899l-37 -315l-585 53l-40 280zM671 819l-550 49l14 -175l495 -51z" />
    <glyph glyph-name="hyphen" unicode="&#x2010;" horiz-adv-x="775" 
d="M720 899l-37 -315l-585 53l-40 280zM671 819l-550 49l14 -175l495 -51z" />
    <glyph glyph-name="period" unicode="." 
d="M688 203q-4 -10 -28 -22q-20 -11 -19 -29q0 -3 2 -11.5t2 -13.5q0 -18 -8 -18l-7 1q-48 48 -62 48q-24 0 -48.5 -31.5t-24.5 -59.5q0 -5 1 -10q-2 -2 -5 -2q-7 0 -15.5 9.5t-13.5 10.5q-102 -75 -206 -75q-79 0 -134 45q-58 48 -58 126q0 9 4 26t4 25q0 17 -40 46
q13 -5 25 -5q19 0 68 57q63 72 114 105q88 56 199 56q68 0 107 -31q21 -17 46 -60q20 -35 39 -39q18 -94 58 -148zM641 221q-25 19 -56 19q-22 0 -130 -46q24 0 70 14t71 14q22 0 43 -8zM558 332q0 24 -36 79q-44 26 -94 26q-111 0 -236 -123q-3 -9 -3 -18q0 -53 48 -53
q28 0 52 22q9 2 15 2q16 0 16 -12q0 -10 -7 -29t-7 -29q0 -26 20 -61t43 -45q3 1 55 35q4 6 4 12q0 4 -35 41q-6 6 -23.5 5.5t-22.5 5.5q25 14 37 13q88 35 103 142l3 1q5 0 13.5 -19.5t30.5 -19.5q10 0 21 7q3 9 3 18zM291 128q-35 68 -181 87q9 -17 50 -26q49 -12 60 -20
q13 -2 30 -22.5t30 -20.5zM242 68q0 19 -14 40.5t-33 21.5q-45 0 -49 -32q31 -43 74 -43q9 0 18 3q4 4 4 10z" />
    <glyph glyph-name="slash" unicode="/" horiz-adv-x="1225" 
d="M1275 1727l-928 -1873l-347 195l98 175q-2 15 -17 19t-29 7q95 49 124 105l695 1321zM1158 1650l-242 -6q-648 -1302 -648 -1305q0 -9 9 -9q17 0 26 14l17 27q7 -4 29 -35q16 -21 53 -21q31 0 67 19q6 -8 6 -18q0 -9 -6 -28.5t-4 -31.5l-7 -14q-37 -6 -61 -49
q-20 -37 -20 -76q0 -10 -12 -10l-6 1q-42 63 -105 63q-23 0 -51 -37q-24.6667 -32.5952 -48.5573 -32.5952q-3.22845 0 -6.44275 0.595238l-26 -55l230 -75zM423 277l-1 9q-38 -24 -119 -25q-85 -1 -120 -18q69 -15 126 -15q74 0 114 49zM307 79q0 -29 -29 -29t-29 29t29 29
t29 -29z" />
    <glyph glyph-name="zero" unicode="0" horiz-adv-x="1350" 
d="M1325 833q0 -147 -43 -299q2 -2 21 -11q12 -6 10 -16q-30 -11 -118 -135q-100 -140 -196 -208q-150 -108 -355 -108q-190 0 -326 100q-87 64 -170 190q-71 109 -92 115q-28 5 -55 11q0 7 6 11q72 5 72 65q0 22 -10 64.5t-10 64.5q0 319 166 539q183 243 492 243
q266 0 439 -181q169 -177 169 -445zM1186 467q-19 -6 -42 -6q-20 0 -58 6t-58 6q-38 0 -65 -19l21 2q3.69232 0.307678 7.81067 0.307678q22.6509 0 58.1893 -9.30768q46 -11 67 -11q42 0 69 31zM397 1012q-2 38 -13 291q-63 -33 -133 -134q82 -121 139 -170zM1252 812
q0 262 -158.5 420.5t-425.5 158.5q-153 0 -262 -70l22 -316l185 144l16 -13l-185 -151l163 5l12 -16l-189 -11l-2 -13q44 -51 121 -161l-7 -7q-25 13 -53 51q-33 45 -49 58h-10q0 -1 4 -211l-19 -9q-10 48 -12 132q-2 95 -6 131l-13 3q-57 -39 -160 -129h-29q25 36 80 76
q75 55 88 66v9q-36.5 4 -74.5 4t-77.5 -4q-17 8 -17 16t8 6l21 -1q39 3 118 4l12 12q-38 53 -124 146q-123 -193 -123 -426q0 -102 22 -102q4 0 8 2q42 -79 71 -79q26 0 48 24l36 42q37 -97 48 -106.5t110 -24.5q-6 -12 -37 -42q-26 -25 -31 -47q-4 -26 -28 -71q-9 3 -53 27
q-32 17 -55 17l-21 -4q49 -103 170 -172q116 -66 235 -66q286 0 474 245q5 7 5 23q0 11 -25 11q-30 0 -52 -38q-24 -43 -39 -49q-18 59 -36 81q-27 34 -81 34l-27 -7q-57 -55 -55 -127q-12 1 -39.5 18t-56.5 17q-45 0 -86 -40l-41 -42q-20 48 -59 115q-1 1 -28 14
q-19 8 -15 23q85 91 96 162q-19 53 -19 112q0 80 40 167q49 104 119 104q132 0 132 -200q0 -84 -44.5 -167q-40.5879 -75.7033 -44.1561 -75.7033q-0.343933 0 -0.343933 0.703308q0 -14 19 -32q31 -9 62 -9q69 0 101 54l50 108q25 -87 96 -97q49 16 71 57q8 2 11 -11
q2 -8 1 -18q9 -25 21 -24h10q63 126 63 289zM781 719q0 50 -21 92q-27 53 -72 53q-47 0 -78 -84q-25 -66 -25 -123q0 -47 22 -84q27 -44 71 -44q54 0 82 71q21 54 21 119zM786 405v9q-32 -11 -99 -14t-98 -14q77 -15 105 -15q60 0 92 34zM357 439l-22 -2
q-2.44446 -0.148163 -5.01508 -0.148163q-32.1331 0 -83.9849 23.1482q-59 26 -90 26q-20 0 -20 -3v-7q29 -2 82 -32q50 -30 84 -30q45 0 55 25zM879 510l-15 -22l-9 -1q-23 -1 -25 23l-1 5q0 10 19 19q26 -11 31 -24zM468 323q0 -40 -37 -40q-17 0 -34 26l-1 7
q-0.236847 3.07895 -0.236847 5.91483q0 33.0852 32.2368 33.0852q40 0 40 -32z" />
    <glyph glyph-name="one" unicode="1" horiz-adv-x="705" 
d="M653 293l-54 -42q-31 -27 -35 -60q-23 3 -34 -26t-32 -29q-136 -34 -408 -87q-2.77778 18.3333 -2.77778 57.6543q0 31.4568 1.77778 76.3457q0.449997 12.75 0.449997 24.645q0 67.405 -14.45 107.355q-24 48 -75 65q6 14 32 19q36 7 43 11q14 9 18 20q8 164 10.5 492.5
t11.5 492.5q151 33 492 93l-49 -1107q0 -1 1 -1q6 -6 20.5 -2.5t21.5 -2.5q6 -31 11 -62q11 -34 41 -40zM514 1430q-23 0 -71 -15l-73 -24q-2 -103 -7 -311q4 -5 9 -9q27 18 66 56q53 52 64 62q12.25 73.5 12.25 202.891q0 18.4844 -0.25 38.1094zM498 1142
q-64 -30 -102 -93q22 -6 50 -6q27 0 50 6q6.04999 22.55 6.04999 48.4275q0 21.1725 -4.04999 44.5725zM351 1386l-173 -47l-5 -96l150 -191h11zM297 1046l-124 177l5 -181zM303 1009q-24.7059 13.2353 -103.131 13.2353q-10.4567 0 -21.8685 -0.235291q-2 -45.5 -2 -76.75
t2 -48.25q34 18 125 112zM496 990q1 34 -1 36q-12.5217 0.391357 -24.0227 0.391357q-76.673 0 -107.977 -17.3914q2 -35 54.5 -109.5t53.5 -88.5q-5 -7 -15 -7q-29 43 -91 121q-10 -40 -10 -106q0.936493 -110.508 0.995972 -110.508l0.00402832 0.507935q5 -12 -15 -20
q-9.60001 36.8 -9.60001 94.08q0 14.32 0.600006 29.92q3.125 59.375 3.125 92.9688q0 20.1562 -1.125 31.0312q-4 45 -11 45q-4 0 -7 -1q-84 -71 -135 -101q6 -110 14 -324q10 -73 40 -102q7 -2 13 -2q19 0 55 36q13 -13 9 -31q25 -45 73 -47q-4 -29 -35 -50l-56 -32
q-13 -9 -40 -51q-21 -33 -44 -33q-4.65384 -10.1538 -4.65384 -27.8254q0 -24.0976 8.65384 -62.1746q30 3 79 21q55 21 79 25q1.36111 7.38889 1.36111 15.0802q0 31.8642 -23.3611 68.9198q-3 5 -18.5 7.5t-15.5 14.5q35 11 76 59q47 56 66 67q27 287 38 558zM576 284
q-11 -2 -22 -2q-22 0 -60.5 13t-57.5 13q-21 0 -40 -11q23 0 66 -14.5t64 -14.5q27 0 50 16zM292 374q-17.4 -5.39999 -39.84 -5.39999q-14.96 0 -32.16 2.39999q-60 10 -69 10q-28 0 -49 -13q12 -2 59 -11q38 -8 60 -8q43 0 71 25zM338.042 220.993
q0 -11.6597 -22.0417 -26.9931q-5.83334 -1.36111 -10.7971 -1.36111q-20.5641 0 -26.2029 23.3611q-1.33334 3 -1.33334 5.88889q0 5.77777 5.33334 11.1111q13 12 14 14q8.88889 2.22223 15.8518 2.22223q25.1898 0 25.1898 -28.2292z" />
    <glyph glyph-name="two" unicode="2" horiz-adv-x="1080" 
d="M1052 1198q0 -174 -151 -404l-256 -364l16 -7q118 18 356 40l5 -9q-16 -63 -16 -146q0 -67 11 -157q-8 -6 -21 -3q-20 4 -21 4q-11 0 -28 -72q-21 -87 -23 -93l-377 41q-224 24 -378 24q-88 0 -169 -7l-1 19q-0.316832 3.80198 -0.316832 7.7263
q0 45.6202 42.8168 107.774q46.5 67.5 46.5 97.5q0 33 -31 60q105 21 256.5 206t151.5 291q0 49 -36.5 84t-84.5 35q-100 0 -263 -102l-9 9q-9 188 -22 564q284 112 530 112q472 0 472 -338zM965 1154q0 169 -141 257q-119 75 -299 75q-128 0 -335 -43q-12 -6 -35 -22
q-2 -25 -23 -236q-13.0667 -133.467 -13.0667 -224.249q0 -6.48444 0.0666656 -12.7511v-23q183 72 272 72q15 0 31 -1q7 46 7 92q0 45 -7 92q-17 -10 -94 -80q-72 -65 -77 -65q-6 0 -8 5q45 50 139 145v10q-29 10 -79 10q-15.25 -0.25 -27.875 -0.25
q-37.875 0 -52.125 2.25l-15 13q7.625 -0.125 16.2031 -0.125q60.0469 0 166.797 6.125l3 5q-30 35 -93 100v9l15 6l49 -55q32 -34 60 -38q-0.307678 11.2307 -0.307678 24.142q0 71.0118 9.30768 192.858l15 -6v-176v-19l13 -12q56 50 177 136l6 -16q-90 -69 -170 -142v-13
q27 -2 166 -2q44 0 44 -16q-18 -3 -164 -6h-34l-9 -9q39 -36 111 -115l-6 -16q-40 38 -124 109l-6 -7q4 -17.3334 4 -49.7778q0 -16.2222 -1 -36.2222q-5 -85 -5 -86q65 -49 65 -135q0 -110 -81 -238l-150 -207v-18l9 -1q15 0 32 14q27 22 28 23q13 -9 18 -45q6 -44 10 -53
q13 -28 39 -44q41 -25 48 -31q-39 -18 -97 -95q-13 -3 -22.5 9.5l-17.5 23.5q-19 1 -37.5 -25t-33.5 -28q-11 60 -47 75q-38 0 -75 -31.5t-40 -70.5l65 1q130 0 698 -32l12 9q0 7 3 21t3 21l-6 20h-10q5 0 -59 22q-14 -8 -21.5 -36t-18.5 -36q-22 3 -43 41q-20 35 -46 35
q-21 0 -42 -27q-29 -40 -33 -43l-26 95q-19 53 -76 64l7 15q59 50 59 69l-1 9q-11 4 -21 4q-19 0 -56 -42q-7 -3 -17 -3q-33 0 -33 32q0 9 16 27q26 8 58 -7l285 368q169 236 169 416zM909 346l-7 22l-40 3q-4.67999 0.359985 -9.05762 0.359985q-32.1024 0 -47.9424 -19.36
q11 -46 58 -46l23 -1q10 0 23 41zM891 235q0 8 -18 8q-12 0 -29.5 -14.5t-17.5 -27.5l1 -7h5q15 -1 37 12.5t22 28.5zM713 353q1 11 -16 11q-13 0 -43 -9l9 -22q7 -3 14 -3q10 0 35 16zM793 249q-19 -5 -39 -5q-27 0 -78 15.5t-77 15.5q-19 0 -19 -7v-5q127 -30 151 -30
q19 0 62 16zM373 253q-114 64 -175 64q-29 0 -56 -9q152 -24 231 -55zM492 171q0 -36 -37 -36q-33 0 -33 36q0 9 16 29l14 1q3.33334 0.25 6.38889 0.25q33.6111 0 33.6111 -30.25z" />
    <glyph glyph-name="three" unicode="3" horiz-adv-x="1185" 
d="M1138 294l-1 -13q-71 -21 -95 -121q-7 -6 -18 -4q-17 4 -20 4q-182 -181 -490 -181q-238 0 -495 104q-5 11 -5 25q0 18 7.5 42t7.5 38q0 16 -7 34q9 24 9 51q0 53 -31 88q3 19 33 34q38 19 44 26q10 10 19 54q7 35 25 35q6 0 12 -3q9 -13 23 -13q8 0 22 5t22 5
q13 0 21 -21q36 -14 79 -14q50 0 90 18q52 24 52 68q0 107 -287 138q67 70 179 226q-38 13 -96 15q-50 2 -99 3l13 546l18 9q366 -9 949 -9l-394 -613l12 -22q162 -14 272 -115q116 -108 116 -267q0 -74 -21 -160q3 -5 18.5 -6.5t15.5 -5.5zM1049 491q0 144 -133 246
q-120 92.16 -260.275 92.16q-5.84479 0 -11.7248 -0.159973l-3 6q178 305 317 571l-7 6q-166.25 18.375 -260.531 18.375q-13.4688 0 -25.4688 -0.375l-98 -2q0 -23 -5 -79q-3.20001 -40 -3.20001 -66.5601q0 -6.64001 0.200012 -12.4399l2 -41q27 15 59 48l52 54l13 -3
q-17 -30 -52 -67l-60 -61v-15q75 11 128 26q5 0 15 2.5t15 2.5q12 0 16 -9q-26 -13 -68 -21q-70 -13 -71 -13l-16 -15q23 -19 75 -43t74 -41v-9q-37 6 -90 34q-70 37 -87 43l-9 -9q-1 -92 -19 -276l-16 7q10 120 10 188q0 47 -3 90q-9 -5 -142 -124l-9 7q12 23 41 51l48 47
v10l-10 1q-2.23077 0.0769043 -4.5799 0.0769043q-28.1894 0 -73.4201 -11.0769q-57 -14 -79 -16l-10 13q72 15 214 53q-82 57 -146 89v16q33 -8 77 -34q65 -40 72 -44h25q8 74 16 221l-10 12q-124.667 10.0834 -229.167 10.0834q-9.5 0 -18.8333 -0.083374h-36l-11 -6
l-55 -425l6 -16l48 1q54.3478 1.08698 97.448 1.08698q155.161 0 164.552 -14.087q-40 -42 -124 -122t-124 -122q101 -28 136 -43q72 -31 112 -85q15 -54 15 -65q0 -49 -41 -75q-24 -14 -85 -29q-55 -13 -68 -26l-2 -20q0 -36 43 -89.5t43 -89.5q0 -13 -7 -33q-19 -1 -37 39
t-61 40q-74 0 -107 -76q-8 27 -36 74q-27 10 -36 10q-10 0 -17 -6l-29 -152l9 -16q168 -53 377 -53q100 0 209 25q141 31 180 88q-7 126 -50 126q-21 -13 -28 -28q-98 -7 -139 -83q-25 48 -25 49q-18 25 -46 25q-24 0 -48 -24l-38 -41q-10 35 -19 70q-11 42 -32 63
q-3 4 -24 11q-16 6 -16 17q59 16 137 114h9q-1 -31 18 -83l19 -2q41 0 90 67h12v-28q-0.235291 -5.17648 -0.235291 -10.2422q0 -37.9931 13.2353 -69.7578q20 -47 58 -47q28 0 38 25q61 21 117 123q9 -5 9 -48.5t44 -50.5q53 11 91 62q7 75 7 96zM1044 275q-45 10 -137 22
l-20 -10q20 -2 66 -15q42 -13 67 -13t25 11.1111q0 2.22223 -1 4.88889zM679 278q-94 57 -156 57q-28 0 -49 -11q24 -4 109 -28q82 -23 83 -23q6 0 13 5zM273 419q0 17 -32 17h-33l-2 -7q0 -9 11 -21q17 -5 23 -3l32 9zM316 306q-38 35 -117 39q-113 6 -128 10
q-1 -33 159 -33q55 0 86 -16zM791 191q0 -31 -28 -31q-35 0 -35 34q0 17 24 28q39 -6 39 -31z" />
    <glyph glyph-name="four" unicode="4" horiz-adv-x="1045" 
d="M641 209q3 -24 -12 -27q-40 0 -43 16q-5 13 12 27q23 4 43 -16zM617 302q-31 32 -87 32q-19 0 -60.5 -5q-41.5 -5 -61.5 -5q-22 0 -39 4q28 -23 68 -23q19 0 58 7t59 7q36 0 63 -17zM905 240q-27 33 -99 63t-100 61q-3 -6 -3 -12q0 -15 40 -46zM973 802q0 5 -9 15l-136 3
q-42 1 -69 9q4 47 9 152q-43 66 -77 80q-10.2857 -77.143 -10.2857 -165.307q0 -14.6937 0.285706 -29.6935q2 -10 -8 -11t-13 9q1.92303 30.7692 1.92303 73.8164q0 68.8758 -4.92303 169.184q-32 -4 -99 -77q-4 -17 -7 -88q-2 -56 -18 -85
q-4.00012 -0.0499878 -8.18024 -0.0499878q-79.42 0 -223.82 18.05q27 45 96 125t96 123q-14 3 -40 15q-1 4 5 13q28 3 56 5q29 6 41 33q12 11 12 23q0 15 -22 38q-24 27 -27 38q3 0 9 5q40 -46 123 -133q4 1 10 7l3 257q2 9 10 11t12 -7q-2.45001 -27.65 -2.45001 -64.4875
q0 -68.4125 8.45001 -168.512q18 1 44.5 28.5t45.5 27.5q16 103 18 204q-2 8 -12 13q-86 7 -269 9q-75 -111 -232 -372q-155 -257 -231 -372q13 -51 25 -103q15 -59 37 -96q112 -1 341 -18q2 -9 11 -24q6 1 11 1q17 0 17 -21q0 -4 -1 -15.5t-1 -17.5q0 -29 20 -38
q12 -5 24 -5q19 0 42 16l39 27l6 -7q3 -13 20 -70q13 -43 13 -71q0 -13 -2 -25q-23 0 -28 9q-7 1 -14 1q-37 0 -83 -36q-70 -56 -74 -58q-3.40741 -106.482 -4.63785 -112.823q1.23044 -2.17694 4.63785 -2.17694q1 0 4 -2q6.82352 -0.235291 14.1453 -0.235291
q54.9135 0 137.855 13.2353q113 18 151 20q29 -3 35 25q2 6 3 50q0 12 -6 15q-5 2 -15 0q-16 -3 -17 -3q-13 4 -15 28q-2 20 -24 25q-30 7 -35 12q0 82 -28 155q4 6 9 6q4 0 17.5 -11.5t22.5 -9.5q4.43079 -0.369232 8.836 -0.369232q43.3179 0.907684 84.164 55.3692
q3 42 49 42q7 0 24 -1t26 -1q26 0 41 9q10 54 16 154q7 121 12 154zM493 1030q-27 -16 -112 -105v-12q8.5 -0.75 18.8125 -0.75q30.9375 0 78.1875 6.75q15.6956 57.8262 15.6956 95.8621q0 8.00751 -0.695648 15.1379zM613 1120q-4 10 -16 10q-21 0 -20 -1q-21 -7 -10 -42
q13 -2 26 12zM613 1154q-8 40 -40 46q-21 -32 4 -49q13 -1 36 3zM778 1098q6 34 -28 34q-11 0 -32.5 -4.5t-26.5 -4.5q10 -40 72 -96q13 8 12 33q0 31 3 38zM781 1231q-23 -7 -80 -64q-3 -6 -4 -10q0 -5 37 -8q13 -5 23 -5q25.2895 0 25.2895 57.8995
q0 13.0741 -1.28949 29.1005zM1013 897q0.695679 -29.9132 0.695679 -63.3652q0 -158.896 -15.6957 -397.635q-46 0 -137 -6q-10 -11 -8 -27q3 -14 5 -29q6 -8 13 -8q5 0 16 8q11 7.99997 17 8q4 -1 7 -2q-4 -19 -4 -38q0 -94 84 -154q-12 2 -59 18
q-38.2667 13.0667 -61.7244 13.0667q-1.67554 0 -3.27557 -0.0666656q-4.66669 -18.6667 -4.66669 -51.3334q0 -16.3333 1.16669 -36.1666q0.97998 -16.6599 0.97998 -30.9287q0 -36.6913 -6.47998 -57.5713q-41 -7 -498 -53q-0.333344 6.6667 -0.333344 14.5001
q0 39.1667 8.33334 107.5q8.33331 68.3336 8.33331 108.195q0 7.97208 -0.333313 14.8053q-4 2 -8 2q-5 0 -14.5 -5.5t-15.5 -5.5q-5 1 -9 2q-1 51 -26 142l61 28q36 18 36 50q-1 2 -19 13q-95 9 -288 22q-60 115 -93 241l443 790q335.127 -6.125 403.813 -6.125
q9.81183 0 14.1866 0.125q3 -5 10 -13q-6 -100 -25 -296q-19 -196 -25 -295q4 -9 13 -13q142.625 6.125 172.703 6.125q4.297 0 6.29706 -0.125z" />
    <glyph glyph-name="five" unicode="5" horiz-adv-x="1090" 
d="M1059 496q0 -136 -59 -243q3 -6 28 -6q7 0 10 -7q-17 -36 -47 -108q-9 -7 -19 -7q-9 0 -24.5 7.5t-24.5 6.5l-13 -1q-165 -147 -413 -147q-122 0 -268 49q-166 56 -229 138q4 22 37 91q30 66 30 74q0 21 -15 37q-21 20 -25 30l22 -2q50 0 73.5 57.5t29.5 57.5
q7 0 77 -26.5t116 -26.5q122.464 0 122.464 86.0796q0 5.29718 -0.463776 10.9204l-2 29q-98 140 -348 162l-6 9q30 243 96 728l707 46l5 -12l-52 -480l-480 -9l-4 -81q305 -22 450 -92q226 -110 226 -371zM848 1448q-125 4 -182 4q-93 0 -159 -9q-1 -18 -6.5 -58.5
t-5.5 -62.5q0 -25 6 -47q35 26 115 60q-4 -19 -34.5 -36t-36.5 -33q26 -9 72 -12q57 -4 74 -7l9 -9l-16 -9q-54 7 -164 15l-13 -9q27 -41 109 -115l167 3zM569 1123q-5 15 -64 81q-25 -4 -23 -41l3 -36q18 -7 44 -7q14 0 40 3zM1000 506q0 191 -171 297q-145 91 -348 91
q-77 0 -160 -12l-9 9q3 72 13 211q8 14 25 18q11 3 32 1q29 -2 31 -2q52 0 52 35v53l-7 1q-13 0 -36.5 -12t-36.5 -12l-8 1q8 13 34 29t34 30q-23 9 -59 12l-61 4q-1 1 -20 3q-13 2 -11 12q24 6 60 3q54 -5 60 -5l13 9q-120 125 -120 138l3 8q49 -46 142 -144h18q1 17 8 62
q5 39 5 62q0 17 -3 38q-24 3 -57 3q-155 0 -179 -12q-22 -206 -40 -639q363 -75 363 -244q0 -56 -51 -101q-45 -39 -104 -52q-3 -15 -20 -46q-16 -27 -16 -53q0 -16 29 -102q-13 0 -37.5 5t-36.5 5q-33 0 -52 -19l-35 -44l-42.5 73.5t-81.5 36.5q-17 0 -26 -18.5l-17 -34.5
q56 -74 186 -124q118 -45 222 -45q203 0 323 119l2 17q0 15 -8 38q-11 30 -12 38q68 21 113 96q22 5 22 -23q0 -23 9 -27q66 89 66 213zM957 199l-131 37q6 -19 54 -35q41 -14 69 -14zM361 401l-111 29l-6 -20q15 -33 53 -33q55 0 64 24zM354 248q-35 51 -107 78
q-19 7 -131 34q82 -31 238 -112zM771 154q-8 -26 -31 -26q-29 0 -29 25q0 14 22 25h3q19 1 35 -24zM773 214q0 -5 -5 -14q-16 4 -32 4q-44 0 -71 -25.5t-30 -24.5q-28 52 -79 52q-17 0 -40 -25.5t-30 -25.5q-13 0 -16 30q-9 75 -52 124v19q91 21 136 77q8 -63 55 -99h7
q1.28302 -0.07547 2.59735 -0.07547q33.5159 0 87.4026 49.0755q0 5 0 -47q0 -60 33.5 -73.5t33.5 -20.5zM691 227q0 6 -5 6l-24 -1q-2.25 -0.100006 -4.55499 -0.100006q-43.795 0 -107.445 36.1q-76 43 -109 49q115 -98 218 -98q32 0 32 8z" />
    <glyph glyph-name="six" unicode="6" horiz-adv-x="1175" 
d="M1155 552q0 -44 -14 -110q-15 -77 -35 -103q0 -14 11 -40.5t11 -40.5q0 -60 -74 -60q-17 0 -32 6q-205 -208 -478 -208q-247 0 -423 208l-22 -6q-16 115 -99 135q1 4 40 47q-31 120 -31 243q0 382 254 653q237 254 620 337q18 -76 34 -210q19 -153 30 -212l-11 -9
q-139 0 -262 -68q-145 -80 -157 -207l10 -25q108 55 238 55q172 0 281 -106.5t109 -278.5zM885 1235q-1 17 -58 279l-15 25q-255 -60 -400 -184q3 -41 3 -98v-116q1 -49 3 -85l13 -4l120 108l13 -2q-13 -25 -53 -60.5t-53 -57.5q14 -7 30 -7q7 0 14 3q151 164 383 199z
M385 1043l-6 289q-26 -16 -76 -71.5t-55 -78.5l117 -133zM480 1005q-12 7 -30 7l-29 -7l-1 -8q0 -33 28 -33q8 0 32 41zM437 923l-12 21q-7 -5 -7 -16v-30q0 -7 7 -7q12 0 12 32zM1071 266q-42 83 -165 83l-26 -3q30 -5 89 -18q16 -4 47 -35q28 -28 49 -27h6zM1093 569
q0 137 -110 223q-101 79 -240 79q-69 0 -167 -26q-110 -29 -151 -68q-1 -18 -22 -37q-10.0833 37.5833 -10.0833 100.375q0 5.70831 0.0833435 11.625q0 86 -3 113q-5 3 -14 3q-7 0 -24 -16t-27 -18l-2 7q0 14 23.5 31.5t22.5 32.5q-24 8 -62 6q-53 -4 -63 -3l-25 1
q-6 4 -8 10q0 5 3 8l140 9q-43 39 -113 122l-15 2q-152 -219 -152 -497q0 -114 28 -222q11 0 22.5 14.5t14.5 16.5q8 -28 38 -77q11 -4 22 -4q25 0 57 30q38 36 54 42l13 -9q-13 -35 -13 -61q0 -50 28.5 -61.5l57.5 -22.5l-11 -25l-19 2q-30 0 -51 -37l-30 -61h-8
q-6 0 -30.5 28t-46.5 28q-9 0 -14 -6q48 -86 155 -134q96 -43 203 -43q239 0 407 174l-6 21l-18 1q-3.58209 0.2388 -7.0929 0.2388q-55.2952 0 -92.9071 -59.2388q-5 1 -5 36q0 98 -54 130q63 36 124 128q13 -55 17 -63q15 -27 56 -27q40 0 66 28q4 -2 11.5 -14.5
t17.5 -10.5q33 51 33 164zM297 297q-22 4 -90 27q-56 20 -92 20q-15 0 -38 -5q4.57143 0.507935 9.5218 0.507935q34.0338 0 85.9782 -24.0079q59.5 -27.5 90.5 -27.5q17 0 34 9zM790 290q-111 -34 -121 -96q-1 -13 -8 -27q-43 61 -89 61q-26 0 -51 -18q-32 -24 -43 -28
l-20 90q-14 53 -53 71q7 16 44 3q82 20 90 75q-68 51 -68 126q0 60 42.5 104.5t101.5 44.5q53 0 103.5 -43.5t50.5 -95.5q0 -50 -30.5 -94t-30.5 -48q0 -12 17 -25l-1 -13q-1 -20 30.5 -45t35.5 -42zM434 253q-11 -28 -22 -28h-8q-1.18182 -0.0454559 -2.30991 -0.0454559
q-23.6901 0 -23.6901 20.0455q0 24 19 24q31 0 37 -16zM735 531q0 44 -34 80.5t-78 36.5q-41 0 -73.5 -33.5t-32.5 -74.5q0 -48 33.5 -79t82.5 -31q39 0 70.5 31t31.5 70zM684 401q-18 -9 -50 -8q-39 0 -52 -3q0 -44 34 -44q15 0 65 40zM719 299q-11 3 -22 3q-17 0 -49 -9.5
t-49 -9.5q-27 0 -64.5 14.5t-41.5 14.5q-7 -2 -7 -8q0 -16 37 -30q32 -12 51 -12q25 0 145 37z" />
    <glyph glyph-name="seven" unicode="7" horiz-adv-x="895" 
d="M958 1569q-21 -78 -70 -211q-54 -148 -72 -209l-105 -352q-56 -203 -72 -361q11 -12 41.5 -8t42.5 -7q-81 -67 -106 -112l-31 -248l-586 13l106 309q0 43 -25 93q3 14 15 14q4 0 16.5 -3t18.5 -3q24 0 52 48l211 502q1 12 -8.5 16t-22.5 2l-359 -16l29 500h17
q101 -7 210 -7q243 0 620 43q65 0 78 -3zM905 1526q-145 -16 -282 -47q-3 -247 -3 -248h12l177 144q6 5 12 0q7 -5 4 -13l-146 -127v-9q36 0 108 -6q4 0 9 6q24 73 106 269q0 2 5 16q1.125 3.375 1.125 6.32812q0 4.92188 -3.125 8.67188zM599 1459
q-2.4375 21.125 -26 21.125q-5.4375 0 -12 -1.125q-86 -13 -216 -19l-217 -8h-12l-63 -350q59.6129 -12.6451 174.701 -12.6451q12.3309 0 25.2987 0.145142q12.1818 0.136353 23.8017 0.136353q116.198 0 176.198 -13.6364q45 35 124 113q-2 4 -9 11
q-71.9333 11.2667 -140.111 11.2667q-10.4889 0 -20.8889 -0.266724q-29 -3 -29 11q18.1818 5.81824 50.1157 5.81824q11.9752 0 25.8843 -0.818237q15.3 -0.900024 28.26 -0.900024q30.24 0 47.74 4.90002q-7 25 -65 91q-13 14 -3 24q21 -13 56.5 -56t61.5 -59q2 3 9 11
q7.11108 34.6666 7.11108 93.037q0 7.29626 -0.111084 14.963q-0.200012 15.8 -0.200012 29.64q0 55.36 3.20001 79.36zM785 1191q-2 3 -11 9h-133q-18 0 -18 -18q35 -39 96 -124q-15 0 -74 62q-20 14 -28 7q-3.125 -34.375 -3.125 -79.6875q0 -27.1875 1.125 -58.3125
q5 -121 5 -138q-2 -9 -9 -11q-8 -2 -12 8q-7 249 -7 266q2 12 -9 31q-32 -13 -79 -52q-54 -45 -76 -57q-55 -137 -145 -420q-17.9649 -40.421 -17.9649 -76.7449q0 -28.378 10.9649 -54.2551q15 -34 96 -40q63 33 97 96q3 -36 24 -102q6 -2 12 -2q22 0 47 26l40 44
q23 133 91 344q80 248 102 340zM650 390q-28 -14 -61 -14t-90 17q-64 18 -90 21q11 -12 38 -24q34 -15 43 -22q26 -13 58 -13q58 0 102 35zM252 401q-9 -1 -17 -1q-21 0 -96 41q-2.25 -2.25 -2.25 -3.9375q0 -15.8308 49.25 -47.0625q7.94118 -0.529419 15.1349 -0.529419
q33.5709 0 50.8651 11.5294zM536 279q-12 6 -25 6q-21 0 -55 -19q-38 -20 -49 -22l-6 73q-5 41 -23 66q-12 23 -30 23q-22 0 -47 -32q-13 -8 -19.5 -45.5t-17.5 -37.5q-8 0 -21 11q-22 19 -60 4l-46 -154l368 -44zM403.273 498.446q0 -21.9008 -27.2727 -26.4463
q-35 6 -38 22q-0.529419 2.64706 -0.529419 5.04498q0 11.1903 11.5294 16.955q11 5 23 9q31.2727 -5.39185 31.2727 -26.5537z" />
    <glyph glyph-name="eight" unicode="8" horiz-adv-x="1120" 
d="M1111 474l-1 -11q-38 -23 -55.5 -67.5t-32.5 -86.5q-55 -132 -189 -212q-129 -77 -275 -77q-149 0 -269 60q-130 66 -199 189q-3 6 -29 97q-17 58 -61 75q6 9 29 18q16 6 17 29q10 128 90 234q76 102 196 160q-134 110 -134 294q0 155 107.5 257.5t262.5 102.5
q149 0 250 -92q104 -95 104 -242q0 -165 -106 -249l-26 -21q41 -22 119 -72q164.205 -122.67 164.205 -360.097q0 -8.37979 -0.20459 -16.9025q2 -3 29 -3q8 -2 9 -6zM626 1140q0 42 -25.5 67.5q-22.8158 22.8158 -57.2396 22.8158q-4.04987 0 -8.26038 -0.315796
q-33 -2 -53.5 -32.5t-20.5 -65.5q0 -78 77 -78q36 0 62 25t26 61zM325 1213q-1 3 -1 101q0 32 -8 32q-43 -31 -43 -72q0 -35 37 -63zM429 1107q-5 57 -34 57q-8 0 -19 -6q3 -27 46 -60zM289 1204q-7 13 -17 13q-12 -6 -12 -17l1 -2q12 -10 20 -9h2zM301 1158q-3 10 -17 10
l-21 -8q-2 -6 -2 -14q0 -19 13 -26q23 14 27 38zM997 561q0.31842 6.04974 0.31842 12.0916q0 145.759 -185.318 286.908q-34 18 -89 50q58 50 97 129.5t39 152.5q0 125 -89 202q-84 73 -211 73q-57 0 -126 -22q-89 -29 -89 -72q0 -67 3 -51q9 -16 6 -37q-4 -40 -4 -37
q0 -13 7 -28q35 20 86 73q55 56 85 75l6 -6q-55 -53 -151 -171q11 -4 20 -4q19 0 46 47.5t91 47.5q121 0 121 -121q0 -52 -38.5 -95t-90.5 -43q-24 0 -38 11q-11 -4 -21 -4q-28 0 -57 35q-39 47 -48 53l-13 -13q-0.125 -6.75 -0.125 -14.3281q0 -53.0469 6.125 -146.672
q4 -24 28 -46q36 -32 41 -38q-103 -23 -184 -100q-83 -81 -99 -182q6 -36 40 -99q11 -5 21 -5q31 0 63 40q25 -5 34 -41q12 -50 16 -56q5 -27 41 -29.5t39 -19.5q-70 0 -139 -115q-8 6 -18 22q-16 23 -49 46l-13 -9q59 -91 159.5 -146t209.5 -55q157 0 284 102q2 15 2 29
q0 79 -51 109l-60 26q22 22 60 71q3 29 31 77q14 1 26 -28.5t40 -29.5q22 0 47 35t45 35q10 0 21 -5zM332 1113q0 16 -8 16q-10 0 -48 -42v-5q-1 -60 53 -107q3 26 3 52v86zM1020 430q-28 -12.25 -75.1406 -12.25q-6.73438 0 -13.8594 0.25
q-11.1667 0.166656 -21.1111 0.166656q-49.7222 0 -68.8889 -4.16666q-30 -7 -51 -24q47 0 140 3q57 5 90 37zM929 321q0 8 -10 8q-18 0 -33 -30q-14 -25 -15 -46q11 2 34.5 30t23.5 38zM270 380l-75 40q-39.2609 19.1739 -74.3535 19.1739q-3.34216 0 -6.6465 -0.17392h-8
v-7q16 -4 78 -33q54 -25 70 -25zM724 466q0 -13 -10 -37q-11 -28 -13 -39q-3 -39 -16 -115q-54 40 -79 40q-59 0 -95 -71q-6 11 -31 76q-17 45 -46 66l53 48q31 30 34 60q-81 45 -81 147q0 59 39 96.5t98 37.5q58 0 95.5 -36t37.5 -94q0 -53 -35 -96.5t-86 -50.5
q-13 -11 -13 -19q0 -38 56 -38q26 0 91 31zM444 445q0 -24 -22 -22h-8q-22 0 -22 25q0 18 24 18q28 0 28 -21zM462 324q-3 -65 -50 -65q-31 0 -31 34q0 50 47 50q25 0 34 -19zM661 653q0 87 -82 87q-95 0 -95 -111q0 -34 22 -64q24 -33 57 -33q43 0 72 40q26 37 26 81z
M676 414v9q-30 -28 -94 -34q-81 -7 -102 -15q42 -9 77 -9q80 0 119 49z" />
    <glyph glyph-name="nine" unicode="9" horiz-adv-x="1100" 
d="M1102 968q0 -223 -140 -430q-19 -22 -42 -71l38.5 -8.5t19.5 -28.5q0 -28 -41 -47q-35 -17 -74 -17q-10 0 -18 2q-6 -6 -6 -12q0 -7 12.5 -17.5t12.5 -17.5t-4 -12q-12 2 -24 2q-55 0 -96 -58q-90 -128 -279 -297q-91 54 -222 146q-210 148 -218 154l7 22q88 46 139 105
l-10 65q130 26 174 86q-13 15 -46 25q-46 14 -51 17q-128 60 -183 156q-51 91 -51 236q0 227 134 398q145 185 365 185q239 0 420 -171q183 -174 183 -412zM573 962q0 71 -54 71l-15 -3q-107 -67 -107 -190q0 -85.0989 59.8498 -85.0989q2.04034 0 4.15024 0.098877
q112 49 112 207zM1053 956q0 212 -161.5 376.5t-372.5 164.5q-134 0 -215 -69l19 -317l311 202l9 -9q-84 -59 -241 -190q22 -6 90 -6q56 0 56 -8q0 -10 -7 -13q-17 3 -39 3q-141 0 -140 -1q-11 -2 -28 -15q0 -26 24 -53l41 -43l61 63q37 35 76 35q37 0 63 -32t26 -69
q0 -85 -46 -167q-54 -95 -132 -95q-44 0 -68 41q-20 33 -20 80q0 62 30 122q-13 5 -31 26.5t-31 26.5q-8.33334 -25 -8.33334 -56.9445q0 -6.38892 0.333344 -13.0555q3.35239 -73.7524 3.89514 -73.7524q0.104858 0 0.104858 2.75238q0 -55 -16 -55q-2 75 -20 223
q-15 1 -42 -21q-11 -3 -34.5 -21t-34.5 -18q-8 0 -13 2q12 24 51 47q45 27 58 42v16q-19 6 -155 9h-22l-9 10q20 12 111 12q13 0 56 -2l-68 94l9 10l96 -99l-10 297q-51 -30 -104 -90q-128 -147 -128 -356q0 -178 112.5 -286.5t294.5 -109.5l1 -7q0 -20 -18 -46
q-23 -34 -27 -43q9 1 23.5 11t20.5 10q8 0 12 -3q-22 -45 -22 -81q0 -28 13 -49l-7 -9q-78 -26 -95 -105q-7 -3 -14 -3q-18 0 -43.5 31.5t-44.5 31.5q-15 0 -40.5 -18t-43.5 -14q-28 -18 -28 -29q0 -5 3 -9q263.933 -170.09 308.086 -170.09q1.01501 0 1.91391 0.0898895
q179 149 179 190q0 5 -2 9q-10 4 -19 4q-20 0 -47 -21q-38 -30 -43 -33q6 44 6 79q0 67 -21 107l48 30q27 19 38 41q15 29 22 29q6 0 23.5 -31.5t59.5 -31.5q30 0 57 17t34 17t21 -3t22 -3q220 256 220 486zM767 343q-79.5 50.1607 -136.607 50.1607
q-3.23248 0 -6.39319 -0.160706l-21 -1q-22 -8 -22 -11v-7q28 0 78.5 -18t76.5 -18q17 0 31 5zM353 386q-97 44 -113 44q-19 0 -30 -7q16 -3 66 -22q38.5882 -15.0588 64.7751 -15.0588q1.63669 0 3.22491 0.0588379h9zM468 266q0 -31 -25 -31q-28 0 -32 27q5 12 25 28
q22 -2 31 -15z" />
    <glyph glyph-name="colon" unicode=":" 
d="M688 1031q-4 -10 -28 -22q-20 -11 -19 -29q0 -3 2 -11.5t2 -13.5q0 -18 -8 -18l-7 1q-48 48 -62 48q-24 0 -48.5 -31.5t-24.5 -59.5q0 -5 1 -10q-2 -2 -5 -2q-7 0 -15.5 9.5t-13.5 10.5q-102 -75 -206 -75q-79 0 -134 45q-58 48 -58 126q0 9 4 26t4 25q0 17 -40 46
q13 -5 25 -5q19 0 68 57q63 71 114 105q88 56 199 56q68 0 107 -31q21 -17 46 -60q20 -35 39 -39q18 -94 58 -148zM688 203q-4 -10 -28 -22q-20 -11 -19 -29q0 -3 2 -11.5t2 -13.5q0 -18 -8 -18l-7 1q-48 48 -62 48q-24 0 -48.5 -31.5t-24.5 -59.5q0 -5 1 -10q-2 -2 -5 -2
q-7 0 -15.5 9.5t-13.5 10.5q-102 -75 -206 -75q-79 0 -134 45q-58 48 -58 126q0 9 4 26t4 25q0 17 -40 46q13 -5 25 -5q19 0 68 57q63 72 114 105q88 56 199 56q68 0 107 -31q21 -17 46 -60q20 -35 39 -39q18 -94 58 -148zM651 1049q-28 21 -63 21q-32 0 -73 -18l-69 -32
q26 0 76.5 15.5t77.5 15.5q25 0 48 -9zM558 1160q0 24 -36 79q-44 26 -94 26q-111 0 -236 -123q-3 -9 -3 -18q0 -53 48 -53q28 0 52 22q9 2 15 2q16 0 16 -12q0 -10 -7 -29t-7 -30q0 -25 20 -60t43 -45q3 1 55 35q4 6 4 12q0 4 -35 41q-6 6 -23.5 5.5t-22.5 5.5q25 14 37 13
q88 35 103 142l3 1q5 0 13.5 -19.5t30.5 -19.5q10 0 21 7q3 9 3 18zM291 956q-35 68 -181 87q9 -17 50 -27q49 -11 60 -19q13 -2 30 -22.5t30 -20.5zM242 896q0 19 -14 40.5t-33 21.5q-45 0 -49 -32q31 -43 74 -43q9 0 18 3q4 4 4 10zM661 222q-31 23 -69 23q-35 0 -80 -20
l-76 -36q29 1 84.5 17.5t85.5 16.5q27 0 52 -9zM558 332q0 24 -36 79q-44 26 -94 26q-111 0 -236 -123q-3 -9 -3 -18q0 -53 48 -53q28 0 52 22q9 2 15 2q16 0 16 -12q0 -10 -7 -29t-7 -29q0 -26 20 -61t43 -45q3 1 55 35q4 6 4 12q0 4 -35 41q-6 6 -23.5 5.5t-22.5 5.5
q25 14 37 13q88 35 103 142l3 1q5 0 13.5 -19.5t30.5 -19.5q10 0 21 7q3 9 3 18zM291 128q-35 68 -181 87q9 -17 50 -26q49 -12 60 -20q13 -2 30 -22.5t30 -20.5zM242 68q0 19 -14 40.5t-33 21.5q-45 0 -49 -32q31 -43 74 -43q9 0 18 3q4 4 4 10z" />
    <glyph glyph-name="semicolon" unicode=";" 
d="M691 1031q-4 -10 -28 -22q-20 -11 -19 -29q0 -3 2 -11.5t2 -13.5q0 -18 -8 -18l-8 1q-47 48 -62 48q-23 0 -47.5 -31.5t-24.5 -59.5q0 -5 1 -10q-2 -2 -5 -2q-7 0 -15.5 9.5t-14.5 10.5q-101 -75 -205 -75q-80 0 -134 45q-58 48 -58 126q0 9 4 26t4 25q0 17 -40 46
q13 -5 25 -5q19 0 68 57q63 71 114 105q88 56 199 56q68 0 107 -31q21 -17 46 -60q20 -35 39 -39q18 -94 58 -148zM712 158l-1 -10q-39 -14 -54 -67q-26 -87 -26 -88q-99 -186 -244 -293l-219 166q22 23 81 62q56 36 78 66l-6 6q-30 -6 -62 -6q-137 0 -217 99q-25 32 -29 79
q-3 43 -5 85q25 21 53 82q26 55 68 82q89 57 182 57q187 0 298 -142q24 -30 62 -142q41 -26 41 -36zM653 1049q-28 21 -62 21q-32 0 -73 -18l-69 -32q26 0 76.5 15.5t77.5 15.5q25 0 48 -9zM560 1160q0 24 -36 79q-43 26 -93 26q-111 0 -236 -123q-3 -9 -3 -18q0 -53 48 -53
q28 0 52 22q8 2 15 2q15 0 15 -12q0 -10 -6.5 -29t-6.5 -30q0 -25 20 -60t43 -45q3 1 55 35q4 6 4 12q0 4 -35 41q-6 6 -23.5 5.5t-22.5 5.5q25 14 37 13q88 35 102 142l4 1q4 0 12.5 -19.5t31.5 -19.5q10 0 21 7q2 9 2 18zM294 956q-35 68 -182 87q9 -17 51 -27
q48 -11 60 -19q13 -2 30 -22.5t30 -20.5zM245 896q0 19 -14.5 40.5t-32.5 21.5q-45 0 -50 -32q32 -43 75 -43q9 0 18 3q4 4 4 10zM662 163q-26 -9 -58 -9q-21 0 -61.5 5.5t-61.5 5.5q-22 0 -40 -5q58 -6 109 -27q79 0 112 30zM596 58q-18 20 -52 20q-25 0 -37 -20
q-6 -5 -14 -31q-6 -21 -21 -21q-11 15 -33 72q-18 47 -44 66q-4 7 -25 7q-13 0 -13 7l2 8q100 20 166 124l6 1q12 0 19 -19.5t22 -18.5l7 -1q6 0 6 14v6q-82 158 -275 158q-64 0 -128 -33q-72 -37 -86 -93q15 15 49 42q18 -51 40 -71q6 -2 12 -2q20 0 43 19l38 29
q48 -82 109 -82q11 0 23 2q-1 -8 -52 -38q-47 -28 -47 -75q0 -8 1 -19q41 14 40 14q38 0 38 -40q0 -37 -39 -37q-27 0 -65 46t-70 46q-58 0 -78 -60q58 -48 155 -48q54 0 102 16l6 -6q-10 -46 -59 -98l-85 -81l121 -111q179 142 218 308zM317 219q-21 -4 -45 -4
q-15 0 -156 23q-1 -2 -1 -5q0 -12 53 -26q45 -11 65 -11q48 0 84 23zM111 102q0 21 -14 58q-16 42 -32 43q-4 -3 -5 -9q0 -79 51 -92z" />
    <glyph glyph-name="question" unicode="?" horiz-adv-x="1150" 
d="M492 170q0 -25 -25 -25t-25 25t25 25t25 -25zM381 221l-15 -1q-1.60004 -0.0500183 -3.26752 -0.0500031q-31.6825 0 -87.7325 18.05q-56.0499 18.05 -85.9274 18.05q-1.57256 0 -3.07262 -0.0499878h-7q-3 -2 -18.5 -3t-15.5 -6l1 -6q11 2 23 2q29 0 80 -20t77 -20
q29 0 55 18zM569 103q-7 34 -13 68q-7 40 -34 56q-4 7 -31 7q-12 0 -18 9q4 9 15 11q18 4 19 4l23 19q15 12 15 24q0 5 -3 10q-33 20 -148 29q-16 -23 -16 -47q0 -32 26 -44.5l51 -23.5l-6 -19q-22 -1 -44 -23q-32 -32 -38 -35q-9 0 -27 2t-27 2q-36 0 -51.5 -27
q-15.5 -27 -22.5 -27q-10 0 -32.5 39t-45.5 39q-29 0 -29 -22q0 -54 103 -86q77 -24 147 -24q117 0 187 59zM343 340q-51 -4 -89 -26l-1 -7q0 -9 13 -20q6 -2 13 -2q17 0 64 39v16zM730 216q-36.9681 42.8052 -86.5904 43.8258q0 -1.27161 -128.41 -11.8258q20 -8 94 -8
q43 0 121 -24zM299 1389q-35 15 -128 16v-89q47 20 128 73zM1048 1279q0 184 -200 289q-163 86 -366 86q-56 0 -112 -8v-19q-7 -61 -13 -181l1 -19q17 5 210 117q5 0 10 -3q-29 -34 -89 -67q-80 -44 -97 -56v-16q52 -4 136 -9q11 -2 23 -4.5t8 -15.5l-26 -1q-44 6 -130 9
l-27 -1q6 -17 42 -58.5t36 -50.5q0 -5 -3 -8q-28 38 -97 93q-6.125 -21.875 -6.125 -71.3126q0 -7.06238 0.125 -14.6874q0.0833435 -5.08435 0.0833435 -9.29858q0 -50.0347 -10.0833 -75.7014l-11 7q-0.125 7.12476 -0.125 15.1248q0 56 6.125 154.875l-10 9
q-47 -26 -152 -92q2 -64 10 -190l9 -5q99 36 185 36q62 0 109 -19q32 -13 69 -57q36.9999 -44 37 -76q0 -109 -110 -173q-92.4151 -52.8334 -210.504 -53h-1.49588q-72 0 -141 22l-6 -6q13 -73 50 -236l389 15q7.69238 133.846 7.69232 208.521q0 22.4023 -0.692322 39.4792
l13 15q202 94 306 181q162 136 162 298zM343 1646l-89 -4q-53 -5 -85 -23l2 -197q65 -3 137 -8q-9 16 -66 92q-54 70 -54 75t3 7q11 -11 130 -148h13zM777 193q-24 0 -56 -22l-16.5 -32.5q-8.5 -16.5 -23.5 -16.5q-7 0 -15 3q-88 -123 -300 -123q-116 0 -194 41
q-98.9881 52.0226 -99 159q0 37 16 66q-11.8091 30.8854 -12.8909 28.7636l0.890915 6.23639q11 -5 20 -5q13 0 35 20q26 23 38 27q136 48 219 48q98 0 178 -33q16 14 27 15q10 -3 10 -22q0 -10 13.5 -23t23.5 -13h0.707275q51.6125 0.166687 98.2927 49q-6 -33 -6 -61
q0 -74 43 -112zM1126 1296.73q-0.395264 -168.315 -177.998 -322.734q-136 -118 -332 -196l-5 -15l42 -304l-567 1q5.78572 161.357 5.78572 265.271q0 57.7295 -1.78572 97.7295l6 7q81 -35 171 -35q88 0 155 37q82 44 82 125q0 58 -58 90q-48 27 -110 27q-122 0 -246 -78
q2 216 39 657l6 9q164 31 315 31q238 0 427 -82q249.482 -108.047 248.998 -314.266zM76.1091 296.764q-0.1091 -0.213959 -0.109085 -0.763611z" />
    <glyph glyph-name="A" unicode="A" horiz-adv-x="1175" 
d="M407 139q2 6 2 12q0 17.9716 -17.5 32q-17.5676 14.0827 -37.803 13.9993q-34.842 -0.16597 -68.197 -38.4993q-33.5 -38.5 -43.5 -38.5q-1 0 -16 52q-3 32 -53 32q-30 0 -41 -34l-39 -123l280 -1zM401 262q-19 -6 -38 -6q-27 0 -77 17.5t-76 17.5q-23 0 -45 -10
q26 -2 84 -22q55 -19 85 -19q37 0 67 22zM784 159q-13.1273 26.2545 -34.847 26.2545q-9.71667 0 -21.153 -5.25455q-21 -3 -24 -27l-4 -37q0 -33 26 -22q64 16 64 42q0 10 -6 23zM654 333q0 10 1 20q-1 11 -13 11q-38 -6 -106 -34q66 -18 74 -18q28 0 44 21zM927 146
q-3 16 -44 13q-3 -3 -21 -14q-13 -7 -10 -17q43 2 75 18zM936 202q-2 0 -3 3.5t-3 2.5q-48 29 -129 39q-136 17 -137 17q38 -30 133 -35q105 -6 139 -27zM1036 190q10 13 10 33q0 21 -26 87q-21.5641 -24.5385 -21.5641 -61.7943q0 -12.8467 2.56409 -27.2057q11 -31 35 -31
zM652 593l-46 235l-62 -250zM1008 347q-20 204 -136 642q-54.889 25.0371 -80.1044 25.037q-0.969727 0 -1.89557 -0.0370483q-1 -12 14.5 -29t15.5 -25q0 -6 -3 -11q-15 5 -35 29.5t-36 28.5q-9.59998 -41.6 -9.59998 -108.8q0 -16.8 0.599976 -35.2
q1.77777 -54.5224 1.77777 -84.1481q0 -42.963 -2.77777 -61.8519q-11 0 -13 3l-11 281l-73 -56l119 -383q-44 -17 -127 -28l-131 -18q-11 -1 -16 6q41 174 107 523q-4 3 -35 9q-22 5 -20 20q23 -1 68 -9.5t69 -8.5q14 0 27 2q-10 24 -42 60q-39 43 -48 58q-4 8 4 22
q44 -30 86 -94q4 -2 9 0q7 38 7 99v103q2 8 13 15q10.0834 -38.5002 10.0833 -102.209q0 -5.79126 -0.083313 -11.7908q-2 -106 -2 -116q2 -1 4 -8t8 -5q27 21 81 84l-70 260l-258 -73l-291 -922q-5 -30 -5 -47.75t5 -23.25q8 -3 17 -3q45 0 101 76l40 -76q27 -43 65 -53
q18 17 29 60q12 47 25 63q22.6667 2.33337 52.8889 2.33331q60.4445 0 151.111 -9.33331q6 -5 6 -20t6 -20q13 14 20 14t14.5 -27t21.5 -31q29.2162 -14.2973 49.5449 -14.2973q12.374 0 21.4551 5.2973q26 6 50 53q12 16 16 16t5 -37t19 -41
q9.20007 -2.20001 18.2 -2.20001q36 0 68.8 35.2zM700 1024l-84 17l20 -75zM861 1033l-24 87q-55 -26 -75 -69q47.6428 -18.8928 83.8149 -18.8928q7.86353 0 15.1851 0.892822zM1159 136l-524 -144l6 226q-13 42 -61 59q-34 13 -55 10q-40 -83 -89 -285l-436 16
q32 91 91 276q1 3 1 5q0 9 -16 24.5q-16 15.5 -16 18.5q0 6 18 5q4 0 10 -6.5t12 -3.5q9 9 34 81l350 999l303 59l127 -447q37 -16 15 -47q54 -205 169 -610q22 -8 28 -42q8 -41 18 -52q2 -3 15 -17.5t13 -21.5q0 -9 -16 -13q-13 -11 -13 -28q0 -11 7 -31q8 -24 9 -31z" />
    <glyph glyph-name="B" unicode="B" horiz-adv-x="1075" 
d="M1035 251q0.294067 -3.47058 0.294067 -6.85468q0 -54.1453 -75.2941 -86.1453q-4 2 -8 2q-9 0 -24 -11.5t-21 -11.5q-10 0 -18 19q-164 -145 -443 -145q-191 0 -397 38q3 100 3 140q0 74 -52 96q24 20 47 55q0.363636 31.6364 0.363636 68.2479
q0 164.752 -7.36364 430.252q-6.75 243.375 -6.75 398.719q0 51.7812 0.75 93.7812q264 93 423 93q145 0 246 -80q107.036 -84.4504 107.036 -220.973q0 -2.505 -0.0360107 -5.02747q-1 -126 -99 -234q-5 -6 -102 -87q0 -8 3 -9q176 -43 237 -72q128 -61 162 -177
q11 -35 11 -75q0 -21 -27 -173q3 -14 23 -16.5t20 -11.5q0 -5 -3 -12zM467 1055q0 12 -18 15q-13 3 -37 0q-28 -3 -29 -3q-30 0 -34 -28v-52q0 -14 1.5 -28.5t13.5 -15.5q103 53 103 112zM301 1074q-42 0 -44 -4q0 -20 43 -73zM936 512q-29 135 -177 193q-26 10 -271 65
l181 151q97 99 98 207q0.0439453 2.57141 0.0439453 5.12061q0 113.44 -87.0439 182.879q-81 66 -203 66q-173 0 -368 -90v-217q33 0 88 14q-1 19 -24.5 51t-21.5 52q17 -6 32.5 -31.5t32.5 -31.5q11 33 16 89q8 80 9 91q12 15 13 15q4 -18 4 -39t-4.5 -62.5t-4.5 -61.5
q0 -14 1 -25q3 2 100 121l21 26q12 16 25 14q-15 -39 -64 -99q-54 -66 -69 -96q13 -7 40 -7q0 19 17.5 29t37.5 5q59 -3 77 -8q41 -10 60 -41q11 -18 10 -43q-2 -53 -79 -106q-66 -44 -127 -56v94l-30 38q-19 23 -37 27q-13 -51 -21 -132q-15 -134 -15 -135q-2 -3 -9 -9
q-2 18 -2 38q0 38 11 107q13 74 14 106l-1 27q-36 -29 -99 -117q-1 -163 -10 -480q9 -13 24 -66q12 -42 37 -58q13.2973 -3.89191 26.1738 -3.89191q26.8262 0 51.8262 16.8919q10 1 23.5 19t25.5 14q0 -20 1.5 -41t13.5 -34q18 -12 43 -12q34 0 76 22q-11 -19 -28 -59
q-2.63043 -17.4565 -2.63043 -32.2254q0 -46.992 26.6304 -66.7746q-24.75 6.75 -69.75 6.75q-15 0 -32.25 -0.75q-19 -7 -38 -15q-23 -10 -24 -31q63.2 -19.2 132.8 -19.2q17.4 0 35.2 1.2q7.71429 -0.571426 17.551 -0.571426q24.5918 0 62.449 3.57143q22 4 22 23
q0 8 -4 20q-4 35 -46 48q-50 15 -62 35q-7 34 0 41q7 5 22 -10q7 -2 15 -2q40 0 82 46l62 74q9 -12 9 -27q0 -10 -5.5 -29t-5.5 -28q0 -16 13 -28q12 -4 23 -4q46 0 114 78q16 -4 16 -23q0 -5 -2 -18t-2 -19q0 -21 15 -30q21 -4 46 4q21 7 42 15
q80.8265 81.7347 80.8265 231.924q0 15.1877 -0.826538 31.0755zM179 1059q-24 -2 -71 -8l2 -83q19 10 38 33q15 20 31 39q8 10 0 19zM946 214q-38 0 -117.5 -28.5t-122.5 -28.5q-18 0 -71 14.5t-64 14.5q61 -44 130 -44q56 0 126 25zM334 183q-131 32 -236 91
q108 -93 182 -93q46 0 54 2zM205 107q-9 33 -57 44q-34 -23 -31 -37q39.7826 -9.78261 65.104 -9.78261q13.5047 0 22.896 2.78261zM530 429q-95 -40 -180 -40l14 264q23 19 85 19q200.005 0 200.005 -117.825q-0.429626 -75.4575 -119.005 -125.175zM499 302q0 -26 -26 -26
t-26 26t26 26t26 -26zM602 557q0 61.0615 -99.5773 61.0615q-3.16119 0 -6.42273 -0.0615234q-33 -1 -78 -12l-12 -155h24q48 0 106 29q66 34 66 77z" />
    <glyph glyph-name="C" unicode="C" horiz-adv-x="1120" 
d="M1093 338q-18 -7 -37 -36t-34 -36l-2 -13q0 -14 8.5 -40t8.5 -39q0 -14 -7 -26q-196 -127 -434 -127q-364 0 -537 331l-50 -15q10 20 31 59q-41 111 -41 234q0 329 248 570t580 241q139 0 198 -19q-10 -186 -55 -495q-61 28 -132 28q-119 0 -233 -76q-128 -84 -128 -197
q0 -79 55.5 -133t135.5 -54q83 0 148 41l123 81l19 -95q16.15 -72.2 32.3 -72.2l1.70001 0.200012l30 6l44 24q-3 -18 -3 -37q0 -61 30 -105zM960 1354l-7 16q-51 5 -101 5q-199 0 -361 -79q-9 -86 -9 -135q0 -33 4 -60q20 6 69 42q45 32 61 32q5 0 9 -3q-19 -22 -55 -46
q-59 -40 -60 -40l3 -18q36 -3 99 -29q-17 -8 -42 -5q-40 5 -42 5h-12q5 -26 40 -71v-28l-65 86h-12q-17 -70 -23 -226h7q56 115 155 170q65 36 169 54q99 17 117 30q23 99 56 300zM467 1247q0 30 -19 30q-10 0 -71 -45q27 -71 74 -109q16 37 16 124zM911 454q0 24 -22 33
l-117 -50q-4 -21 -4 -46q0 -100 84 -100q33 0 50 22q-2 24 -31 40q-35 19 -41 32q20 5 50.5 28.5t30.5 40.5zM981 233q0 44 -17 44l-29 -26q-4 17 -28 37q-13 -14 -67 -32q-46 -16 -53 -41q-13 -46 -20 -46t-33 31.5t-43 31.5q-48 0 -94 -51q-5 6 -5 55q0 26 -26 48l-46 34
q82 45 103 123l-94 59q-91 69 -91 178q0 13 5.5 36.5t5.5 36.5q0 20 -17 34l-1 23q10 69 17 209v16h-19q-37 -26 -114 -68l-7 6q14 19 53 43t52 43q-14 10 -77 21q-56 10 -62 24l24 2q2.63159 0.210571 5.58447 0.210571q25.0997 0 73.4155 -15.2106q8 0 22.5 -3t21.5 -3
q11 0 18 9q-27 43 -93 118q-8 -4 -41 -29q-24 -17 -40 -17q-2 -2 4 -7q-232 -235 -232 -521q0 -101 34 -197q12 4 44 26q27 20 45 20q28 0 17 -31q11 -37 38 -37q51 0 86 59q13 -23 27.5 -46t48.5 -23q10 0 91 28q-12 -21 -12 -46q0 -28 30 -102q-5 -7 -28 -3q-32 6 -33 6
q-99 0 -131 -71l-10 9q0.290924 4.07272 0.290924 7.84926q0 48.1507 -47.2909 48.1507q-27 0 -54 -25q37 -82 173 -131q112 -41 223 -41q236 0 400 130q2 5 2 16zM741 437h-84l-1 -13q-1 -26 19 -36q65 3 66 49zM798 267l-2 10q-1.17645 -0.0392151 -2.38831 -0.0392151
q-29.6901 0 -80.6117 23.5392t-79.6886 23.5392q-1.17413 0 -2.3114 -0.0392151h-12l-3 -7q23 -4 75 -31q46 -25 76 -25zM387 345q-40 14 -96 14q-16 0 -80 -2q-24 -1 -44 -1t-36 1q35 -18 87 -18l85 4q12.75 0.5 24.375 0.5q34.875 0 59.625 -4.5v6zM559 387q0 -27 -27 -27
t-27 27t27 27t27 -27z" />
    <glyph glyph-name="D" unicode="D" horiz-adv-x="1250" 
d="M1251 784q0 -141 -48 -244q-2 -5 -123 -212q12 -14 34 -14q16 0 37 9q20 9 21 9q0 -8 -3.5 -32.5t-3.5 -30.5q0 -11 15 -33.5t15 -33.5q-81 0 -131 -63l-20 25q-11 13 -28 13q-6 0 -72 -34q-6 7 -4 23q4 26 4 24q0 10 -9 10q-44 0 -44 -42q0 -9 22 -55q-76 22 -90 22
q-50 0 -96 -52q-5 7 -14 7q-14 0 -26 -5q-202 -76 -403 -76q-109 0 -227 16l-5 243q-11 24 -52 69l34 4t19 22l14 1040q110 62 349 62q341 0 573 -163q262 -185 262 -508zM1210 784q0 286 -235 453q-202.885 144.231 -484.357 144.231q-11.2589 0 -22.6435 -0.230713l-51 -2
q-16 2 -40 -15q0 -19 -3.5 -59.5t-3.5 -60.5q0 -29 7 -55q31 17 81.5 65.5t79.5 66.5l3 -13l-149 -135v-15q47.6667 -11.2667 108.853 -11.2667q9.41333 0 19.1467 0.266724l11 -12q-18 -7 -57.5 -6.5t-57.5 -5.5q5 -7 70 -67q54 -52 54 -62q0 -4 -3 -7q-52 50 -167 136
q-9 -46 -11 -119q-4 -101 -5 -120q-1 -2 -3 -27q-1 -20 -7 -20q-3 0 -11 11q0 30 3 97q4 64 4 97q0 38 -4 69q-33 -13 -74 -52q-55 -53 -68 -62l-13 2q45 39 124 128q-27 8 -80 10q-57 3 -81 8l4 9q-2 0 123 0q29 0 53 6q-9 20 -37 49.5t-37 46.5l3 4q25 -26 81 -69l9 7
q7 34 7 83q0 35 -4 87l-22 1q-4.70587 0.235352 -9.827 0.235352q-38.4083 0 -100.173 -13.2354q-84 -18 -91 -43q5 -92 9 -432q3 -269 23 -430q1 -8 3 -8q8 0 19 12q8 -7 24 -51q11 -30 49 -30q33 0 85 45q0 -1 16 -67q10 -41 52 -41q31 0 48 34.5t42 34.5q41 0 41 -39
q0 -34.3061 -46.9084 -34.3061q-9.15286 0 -20.0916 1.30612q-3 -25 19 -42.5t48 -17.5q63 0 101 51l65 88q8 -29 17 -58q11 -36 41 -36q12 0 31 9.5t28 11.5q2 -12 -1 -31q-3 -24 -3 -31l1 -9l22 -20h9q1.08105 -0.0270233 2.1651 -0.0270233q39.0241 0 81.8349 35.027
l-6 31l80 55q5 4 37 40q23 27 41 28q129 136 129 372zM1139 236l-70 29q-48 19 -69 19q-1 0 -3 -2q0 -8 81 -48q15 -4 44 -8zM821 162q-64 55 -176 73l85 -45q54 -28 91 -28zM506 345q0 12 -12 12t-12 -12t12 -12t12 12zM677 126q0 9 -9 9h-3l-24 -20q2 -5 9 -5t15 5
q12 -2 12 11zM390 268q-22 3 -101 3q-26 0 -70 19t-71 19q-12 0 -15 -6q62 -54 159 -54q54 0 98 19zM610 155q0 23 -15 48q-17 29 -37 29q-16 0 -16.5 -16t-8.5 -17q-40 10 -77 10q-113 0 -153 -62q-22 -33 -26 -33q-7 0 -20.5 39t-33.5 41q-15 6 -31 7l-28 -16v-120
q87 -17 158 -17q144 0 275 45q13 40 13 62zM736 712q0 -107 -85.5 -193.5t-189.5 -86.5v15q0 91 -14 472q33 8 66 8q97 0 160 -59.5t63 -155.5zM704 706q0 64 -41.5 104t-106.5 40q-23 0 -44 -6q0 -182 27 -348q68 0 119 73q46 65 46 137z" />
    <glyph glyph-name="E" unicode="E" horiz-adv-x="975" 
d="M957 1527q-23 -339 -52 -527q1 -3 -2 -6q-350 16 -365 16l-9 -9q0 -19 -8 -64q-4 -25.3333 -4 -46.2222q0 -10.4445 1 -19.7778q3 -3 10 -9q70 15 213 33q6.125 -215.25 6.125 -259.766q0 -6.35938 -0.125 -9.23438q-5 -3 -13 -10q-212.444 7.11108 -255.012 7.11108
q-5.32098 0 -7.98764 -0.111084q-15.7209 -12.6977 -15.7209 -44.7723q0 -20.9719 6.72092 -50.2277q3 -1 9 -7q70 18 207.5 61.5t207.5 61.5q6 2 6.5 -3t2.5 -6q-16.4091 -157.182 -16.4091 -253.948q0 -15.2789 0.409119 -29.0516q10 -6 23 1q17 9 21 10q-23 -49 -23 -94
q0 -42 23 -71q-3 -15 -32 -23t-34 -26q-3 -27 -5 -53q-5 -31 -32 -27q-245 -20 -738 -51q-13.0667 38.2667 -13.0667 101.796q0 4.53778 0.0666656 9.20444q0.666664 28.6667 0.666664 50.6667q0 44 -2.66666 61.3333q-18 23 -52 3q-13 -6 -15 -3q2 25 37 42.5t35 39.5
q0 5 -1 11q0 203 7.5 575t7.5 571q314 26 871 47zM437 1407q4 8 4 14q0 18 -28 18q-29 0 -42 -13q0 3 -1 -56q-1 -36 16 -49q16 29 51 86zM873 1421q0.125 2.75 0.125 5.26562q0 17.6094 -6.125 23.7344q-22.3333 1 -51.2222 1q-57.7778 0 -141.778 -4
q-106.556 -5.44446 -165.321 -5.44446q-16.7901 0 -29.679 0.444458q-54 -71 -74 -155q52 -4 149 -10q-10 -14 -42 -13q-53 0 -49 1q-41 0 -52 -13l133 -129l-3 -4q-28 13 -77.5 60.5t-77.5 60.5l-9 -9q-7.11111 -164.444 -7.11111 -200.099q0 -4.45679 0.111115 -6.90125
q-2 -5 -9 -13q-6.23077 17.3077 -6.23077 47.5563q0 13.4437 1.23077 29.4437q1.77777 25.3334 1.77777 44.3457q0 23.7654 -2.77777 37.6543q-4 -2 -16 0q-25 -56 -84 -165l-3 3t-2 3q11 40 44 103q38 73 49 102q21 31 6 47q-8.42856 -0.142822 -18.0408 -0.142822
q-57.6735 0 -157.959 5.14282q-4 2 3 13q12.75 -0.75 28.375 -0.75q46.875 0 119.625 6.75q-14 25 -56 59q-46 38 -61 59q1 2 13 2l111 -93q7 -6 15 -3q9 2 9 13q-3 12 -2 57q1 37 -13 52q-19 4 -39 4q-19 0 -54.5 -5t-55.5 -5q-16 0 -30 3q-10 -3 -22 -16q9 -339 34 -1013
q-2 -11 9 -12q10 -1 13 9q14 37 22 37q4 0 19 -41.5t40 -41.5q6 0 12 2q32 4 84 50q10 -7 10 -24q-1 -27 -1 -29q14 -43 55 -43q12 0 39.5 5t40.5 5q28 0 44 -16q-18 -61 -112.5 -90.5t-107.5 -92.5q-10 -15 -18 -15t-24.5 30t-34.5 32q-9.89999 3.60001 -19.98 3.60001
q-23.52 0 -48.02 -19.6q-16.5682 -20.8636 -16.5682 -42.8569q0 -13.8476 6.56818 -28.1431q47 2 275 24q26 -5 29 31q9 40 43 34q29 -3 52 -50q30 -1 60 9q3 35 -50 75q-13 7 -26 7q-17 0 -46 -18t-46 -19q-7 7 -6 9q112 29 146 145q7 26 14 26q3 0 16.5 -25t29.5 -25
q7 0 15 5q27 10 45 41q14 28 29 55q16 -2 23 -24q9 -26 18 -31q6.125 28.875 6.125 77.6562q0 6.96875 -0.125 14.3438q0 67 3 93q-2 7 -13 16q-121 -36 -363 -114q2 0 -21 -5q-12 -3 -15 12q5 80 21 237q23.8889 2.77777 64.1358 2.77777q32.1975 0 74.8642 -1.77777
q27.6923 -1.23077 51.5977 -1.23077q53.787 0 88.4023 6.23077q-1 35 -3 70q-2 41 -14 63q-69 -7 -208 -20q-4 2 -9 9q5 79 16 238q0 9 13 18q184 7 365 28zM864 270q1.79999 3.60001 1.79999 6.48001q0 1.92001 -0.799988 3.51999q-2 3 -10 2q-30 -37 -89 -37q-14 0 -55 4
q-36 4 -55 2q-1 0 -11 -3t-10 -7q1 -3 3 -5q123 -20 126 -20q69 0 100 54zM783 149q-10 23 -34 23q-27 0 -56 -26q-2 -12 7 -16q6 -2 20 0q10 2 19 3q13 1 25 1q17 3 19 15zM542 131q-8 5 -18 2q-11 -4 -8 -14q2 -3 15 -3t11 15zM461 271q-27 -10 -57 -10q-32 0 -93 15.5
t-91 15.5q-21 0 -40 -5q22 -3 96 -27q62 -20 99 -20q50 0 86 31z" />
    <glyph glyph-name="F" unicode="F" horiz-adv-x="945" 
d="M956 976l-434 16q-3 -4 -9 -11q2.57141 -22.2857 2.57141 -62.5714q0 -6.71429 -0.0714111 -13.9286t-0.0714111 -13.9286q0 -40.2857 2.57141 -62.5714q3 -3 10 -9q75 23 229 64q8.52173 -94.9565 8.52173 -177.686q0 -53.1833 -3.52173 -101.314q-71 -10 -208 -48
q3 -56 28 -159q9 -1 20.5 11.5t17.5 14.5q0 -65 51 -91q5 -2 31 -2q-45 -49 -47 -104q14 -34 7 -42q-36 19 -49 12l-7 -105l-551 -54l-9 237q-5 13 -20 21q-25 14 -26 14q3 6 32 29q22 18 20 40l22 1084l852 87zM886 1456q-196 -7 -577 -36q0 -152 12 -220q4 -3 12 0
q63 65 121 140q4 3 9 -1q-14 -35 -61 -86q-50 -56 -65 -84q15.6154 -3.76929 37.6095 -3.76929q18.8521 0 42.3905 2.76929q78 10 83 10q4 -3 3 -6q-22 -10 -76.5 -16t-60 -9t-2.5 -24q7 -4 32 -30q21 -21 32 -21q12 0 19 20q136 -11 431 -50zM297 1207q-6 66 -10 201
q-2 5 -9 12l-171 -15v-244q-2 -13 9 -31q4.5 -0.142822 9.26021 -0.142822q61.8826 0 167.74 24.1428q7 10 -16 34q-39 33 -110 108l119 -95q4 0 11 6zM703 657q-3.61041 125.461 -4.77673 125.461q-0.125854 0 -0.223267 -1.46106q-2 5 -10 13l-202 -43q-3 -2 -11 6
q-1 3 -30 266q-36 42 -115 109q-10 -32 -10 -76q0 -22 3 -65t3 -64q0 -43 -10 -74q-8.33334 35.8333 -8.33334 102.569q0 13.3472 0.333344 27.9305q0.307678 13.4615 0.307678 25.8698q0 68.2455 -9.30768 104.63q-25 -11 -51 -44q-35 -43 -45 -53l-6 7q7 18 34.5 48
t33.5 45q-2 1 -4 5t-6 4q-49 -3 -142 -24q0 -34 20 -638q10 3 16 3q17 0 20 -22v-34q1 -31 22 -40q14 -6 29 -6q40 0 99 58q3 -36 6 -47q6 -25 25 -36q80 0 95 30q9 8 17 45q6 30 25 30q4 0 9 -1q6 21 2 54q-6 48 -6 57q0 21 7 38q59 20 183 49q14 4 21 15zM647 304
q-2 1 -3 4q-29 -15 -70 -19q-14 -1.5 -32.5 -1.5t-41.5 1.5q-60 4 -73 4v-9q7 -8 9 -7q39 -16 85 -16q80 0 126 43zM531 147q0 37 -36 59q-7 9 -18 9q-14 0 -39 -17t-30 -17q-9 0 -9 17q0 11 3 29q-13.5 22.7812 -47.6455 22.7812q-6.32324 0 -13.3545 -0.78125
q-48 -15 -82 -86l-24 36q-17 21 -38 17q-16 -3 -32 -5q-18 -5 -23 -19q-1 1 -2 -40q0 -24 17 -29q14.375 -0.125 30.5156 -0.125q112.984 0 312.484 6.125q13 -3 23 1t8 17zM303 312q-42.75 7.52084 -82.6797 7.52084q-60.9453 0 -115.32 -17.5208
q21.6 -3.60001 52.2 -3.60001q20.4 0 44.8 1.60001q88 5 101 5v7z" />
    <glyph glyph-name="G" unicode="G" horiz-adv-x="1165" 
d="M1140 1456q-42 -160 -140 -477q-106 63 -222 63q-144 0 -233 -109q-83 -102 -83 -249q0 -74 59.5 -132.5t132.5 -58.5q25 0 44 13l16 343l348 1l14 -504q3 -6 35 -6q16 0 14 -12q-50 -25 -50 -84q2.66663 -55.3333 2.66663 -88q0 -16.3333 -0.666626 -27l-2 -33
q-137 -102 -349 -102q-170 0 -291 57q-83 39 -243 165q-18 -27 -30 -27q-10 0 -22 38q-14 45 -31 57q-35 27 -44 32q-25 16 -49 18q49 20 62 43q-77 152 -77 329q0 345 250 577q244 226 593 226q146 0 286 -44zM325 1235q0 10 -2 35q-36 -21 -81 -77q42 -60 66 -82l11 7
q0 13 3 58q3 36 3 59zM284 1106l-56 67q-29 -12 -32 -42zM1034 190q0 8 -9 37q-22 2 -40 -19l-31 -34q-19 33 -53 33t-84 -39l-35 82q-13 25 -73 64q6 6 37 6q57 0 106 80l27 -41q18 -21 44 -21q40 0 65 40l26 -28l1 45q0.148132 9.48148 0.148132 19.8464
q0 129.561 -23.1481 397.154l-232 -34l15 -318l-9 -10q-28 -4 -55 -4q-122 0 -201 83t-79 207q0 152 112 259t264 107q91 0 165 -36q23 69 53 300l-6 16q-112 51 -250 51q-91 0 -225 -40q-156 -47 -197 -109q0.799988 -52.4 0.799988 -88.64q0 -54.36 -1.79999 -72.36
q34 8 76 38l70 52h18q-20 -23 -141 -109q37 -4 67 -10q72 -14 99 -34q-55 0 -182 25l-15 -9q30 -40 91 -114v-12q-19 1 -42.5 32t-41.5 36q-12.25 -75.25 -12.25 -201.797q0 -18.0781 0.25 -37.2031l-13 -12q-5.44446 35 -5.44446 83.9136q0 13.9753 0.444458 29.0864
q4 121 4 114q0 65 -12 65q-27 0 -216 -127q-34 -110 -34 -230q0 -222 64 -281q59 44 84 44l9 -1q-12 -60 -12 -49q0 -49 41 -49q19 0 37 20q26 28 30 31l-13 -25q1 0 23 -37q12 -21 34 -21q12 0 32 9.5t29 11.5q-10 -29 -10 -44q0 -21 18.5 -47t37.5 -30q26 36 32 46
q17 27 18 52q23 -34 51 -34q26 0 95 60l-1 -18q-0.166687 -2.83334 -0.166687 -5.71527q0 -31.7014 20.1667 -69.2847l39 -69q-50 -35 -62 -92q-35 37 -75 37q-48 0 -65 -56q-6 6 -23 57q-13 38 -43 38l-29 -11q-7 4 -7 11q0 5 9.5 12.5t9.5 11.5q0 15 -23 15q-12 0 -26 -6
l-32 -22q-19 -15 -19 -31l2 -9q148 -109 333 -109q75 0 210 43q159 51 159 105zM290 1087q-18 10 -50 15q-46 8 -52 10q-82 -82 -82 -142l96 52q57 33 88 65zM1056 300q-45 -23 -113 -23q-39 0 -128 12v-6q40 -28 98 -28q95 0 143 45zM666 208q-33 24 -82 24q-56 0 -95 -29
q6.75 -2.25 12.9375 -2.25q2.0625 0 4.0625 0.25zM387 262l-10 -1q-1.15555 -0.0222168 -2.3284 -0.0222168q-51.6049 0 -136.672 43.0222q-87 44 -136 45l-2 -5q17 -6 120 -57q78 -38 119 -38q26 0 48 13z" />
    <glyph glyph-name="H" unicode="H" horiz-adv-x="1435" 
d="M1396 275q-52.5625 -40.7812 -52.5625 -114.414q0 -7.61719 0.5625 -15.5859q-5 -4 -23 -3q-13 1 -14 -12q-1 -18 -2.5 -37t-17.5 -23q-150 -23 -451 -54q-5 11 -5 28q0 8 1.5 24.5t1.5 24.5q0 40 -29 50q6.61224 35.2653 6.61224 62.9738q0 47.7201 -19.6122 73.0262
q-2 7 -14 16.5t-10 14.5q3 2 8 2q6 0 19.5 -3.5t18.5 -3.5q15 0 13 23q0.125 5.75 0.125 12.2031q0 45.1719 -6.125 124.797q-4 3 -13 9q-86 -2 -250 -26q-4.54547 -8.63635 -4.54547 -24.9174q0 -19.5372 6.54547 -50.0826q9.03229 -25.2903 55.5921 -25.2903
q4.98853 0 10.4079 0.290314q19 12 62 27q-50 -59 -50 -132q0 -29 10 -56q-7 -2 -19 4t-18 6q-5 0 -10 -4q-17 -20 -20 -102q-175 -26 -520 -70q-2.77778 25 -2.77778 61.7284q0 29.3827 1.77778 66.2716q2.25 70.5 2.25 106.125q0 11.875 -0.25 19.875q-12 33 -40 59
q-4 -1 -22 7q6 8 37 8q28 1 31 23q16 334 46 1015q7 2 19 9q80 3 229.5 15.5t228.5 14.5q7 -4 6.5 -16t2.5 -15q6 -181 23 -533q3 -13 16 -16q64 -3 190 -3q10 3 15 16l-8 513q1 1 21 13q136 15 413 39q5 -3 12 -18q1 -167 9.5 -501.5t9.5 -502.5q1 -8 13 -22q18 7 21 6
q-0.231934 -3.88406 -0.231934 -7.69083q0 -61.8599 61.2319 -103.309zM544 1169q-5 45 -8 136q-2 27 -13 77q-18.6667 0.833374 -36.1111 0.833374q-87.2222 0 -143.889 -20.8334q0 -1 -5 -88q-0.818176 -14.4546 -0.818176 -27.4215q0 -34.5785 5.81818 -58.5785
q18 9 42.5 43.5t41.5 46.5q1 -14 -14 -32q-23 -30 -24 -30q-22 -37 -22 -46q0 -7 4 -13q-6 -1 88 -1q3.60001 -0.0666504 7.09778 -0.0666504q48.9689 0 77.9022 13.0667zM1334 271q-101 38 -113 38q-24 0 -44 -13q74 -10 108 -31q45 -8 49 6zM1248 384q-14 493 -44 994
q-43 -5 -266 -43q-12 0 -24 -16q1.79999 -100.2 1.79999 -264.12q0 -109.28 -0.799988 -246.88q-2 -4 -9 -11l-156 -8q-37.6 -1.59998 -70.4 -1.59998q-49.2 0 -87.6 3.59998l-9 9q-13 113 -32 329q-2 5 -9 12q-14.5 0.25 -32.4375 0.25q-53.8125 0 -138.562 -2.25
q-4 1 -9 1q-27 0 -27 -28q0 -9 5 -17q34 -54 93 -140q-5 0 -11 -6q-20 33 -70 93h-12q-3 -17 -7 -237q-10 -16 -19 0q3.125 32.5 3.125 78.2812q0 27.4688 -1.125 59.7188q-4 124 -4 143h-9q-22 -19 -51 -59q-35 -49 -49 -65h-13q13 28 53 80q38 49 51 81
q-27.3684 15.7894 -62.2161 15.7894q-31.3629 0 -68.7839 -12.7894q-7.11111 -122.667 -7.11111 -284.84q0 -20.2716 0.111115 -41.1605q2 -319 2 -324q7 -22 16 -46t30 -34q14 -7 27 -7q34 0 66 38q2 -2 13 -41q19 -43 66 -43q9 0 18 2q97 55 97 151q0 11 -1 23
q46.6667 5.33331 113.778 5.33331q33.5555 0 72.2222 -1.33331q92 -2.66669 142.667 -2.66669q25.3333 0 40.3333 0.666687q2 -4 9 -10q2 -54 21 -152q12 5 22 22q14 23 18 28q9 -7 12 -25q6 -29 6 -30q13 -37 45 -37q6 0 12 2q10 -1 29 15.5t25 16.5q7 0 11 -13
q12.22 -44.18 36.8104 -44.18q1.56958 0 3.18958 0.179993q47 26 68 117q10 1 21 -16q12 -20 23 -24q7 -6 17 -2q10 5 10 15zM319 1349q-5 16 -38 16q-12 -4 -62 -7q-39 -2 -55 -17q-1 -58 -4 -171q2 -7 12 -19q7.33333 -0.888916 15.9012 -0.888916
q29.9877 0 75.0988 10.8889q-6 23 -38 63.5t-37 63.5q25 -20 55 -59l51 -66q15 -11 21 3q-0.666656 10.6666 -0.666656 24.4445q0 27.5555 2.66666 67.5555t2.66666 67.1111q0 13.5555 -0.666656 23.8889zM1257 108q3.04761 11.4286 3.04761 26.6304
q0 24.7029 -8.04761 59.3696q-15 2 -47 -33q-18 8 -25 42q-7 39 -21 51q-35 17 -47 -19q-1 -5 -15 -35q-10 -21 -10 -36t10 -27q-9 -6 -19 -6q-14 0 -39 18t-37 18q-14 0 -27 -15q-16 -42 -6 -53q51.3793 -3.44827 101.57 -3.44827q95.3615 0 186.43 12.4483zM1059 261
q-37 -21 -86 -21q-50 0 -88 21v-10q31.0345 -34.9138 85.5455 -34.9138q15.7476 0 33.4545 2.91379l33.5 17t21.5 25zM929 106q-3 42 -25 56q-3.9032 -13.4839 -3.9032 -25.205q0 -21.3111 12.9032 -36.795q11 -2 16 6zM588 288q-8 -2 -15 -2q-20 0 -56.5 16.5t-57.5 16.5
q44 -38 96 -38q19 0 33 7zM504 125q2.45001 11.9 2.45001 26.1275q0 26.4225 -8.45001 60.8725q-15 4 -24.5 -10l-18.5 -28q-7 -2 -19 11q0.58139 10.2326 0.58139 19.7079q0 72.013 -33.5814 100.292q-16 -6 -16 -49q0 -7 10 -17t8 -18q-6 -5 -12 -5q-7 0 -20 12.5
t-17 14.5q-9 4 -19 4q-31 0 -59 -31q-6 -5 -11 -27q-4 -18 -17 -19q-11 27 -52 67q-33 16 -43 -2q-3 -20 -3 -127q1 -8 11 -13q222 10 341 30zM323 321q-20 -2 -73 -12q-46 -9 -73 -9q-41 0 -71 19q-1 -3 -1 -5.25t1 -3.75q30 -30 76 -30q32 0 141 41z" />
    <glyph glyph-name="I" unicode="I" horiz-adv-x="680" 
d="M491 146q-1.98462 31.0923 -26.7262 31.0923q-12.6584 0.676926 -31.2738 -6.0923q-12 -3 -24 -21.5t-26 -18.5q-6 44 -13 89q-10 53 -49 66q-60 -32 -64 -87q-5 -22 -13 -22q-7 0 -22.5 19.5t-24.5 21.5q-33 21 -55 -3q-6.36842 -30.6842 -6.36842 -82.1496
q0 -37.4294 3.36842 -85.8504q0 -2 4 -2t5 -3q70 7 323 39q18 3 20 25v40zM263 295l-63 24q-39 14 -65 14q-28 0 -51 -16q10 -7 30 -6h35q16 1 45 -12.5t42 -13.5q14 0 27 10zM560 313q-51 -69 -127 -69q-10 0 -19 1q-1 -7 13 -22q13 -3 25 -3
q0.898315 0.0169525 1.7966 0.0169525q52.1017 0.983047 104.203 58.983q11 30 2 34zM497 955q0 19 -9 36l-63 65q-40 41 -73 54q-10.0833 -31.1666 -10.0833 -88.382q0 -5.20142 0.0833435 -10.618q0.125 -8.74988 0.125 -16.8592q0 -56.7658 -6.125 -82.1408
q-9.60001 28 -9.60001 86.72q0 14.68 0.600006 31.28q0.210541 8.3158 0.210541 16.1774q0 66.8226 -15.2105 100.823q-17 -2 -37 -19q-25 -22 -29 -24q2 7 14.5 21.5q12.4999 14.5 11.5 25.5q-13 3 -28 3q-18 0 -51.5 -8t-50.5 -8q2 18 29 21q42 6 44.5 8t28.5 5
q18 3 15 21q-46 38 -136 119q-2 5 4 12l154 -127q6 -6 27 -6q16 22 16 57q0 12 -2 37.5t-2 38.5q0 15 2 28q-3 16 -18 18q-118.3 4.90002 -167.51 4.90002q-21.09 0 -29.49 -0.900024q0 -395 24 -920q26 -4 18 -31q-9 -33 2 -44q17 -4 36 10q29 20 30 21l9 -31q6 -27 38 -34
q28 -5 55 -9q8 -4 32 -33q19 -23 39 -20q27 4 40 33q1 2 16 53q3 -6 10 -18q4 -26 26 -26q6 0 10 7q4 204 5 623zM498 1181q-9 21 -28 21q-9 0 -36.5 -8.5t-41.5 -5.5q-2 -1 -28 -10q-18 -5 -18 -19q35 -55 139 -137q4 1 9 7q1 51 4 152zM492 1234
q6.25 37.0834 6.25 65.1389q0 39.2778 -12.25 60.8611q-104.887 7.11108 -128.394 7.11108q-2.93887 0 -4.60577 -0.111084q-4 0 -9 -6q-2.44998 -32.5499 -2.44998 -56.77q0 -44.98 8.44998 -61.23q26 11 51 46q30 41 47 53q2 -2 7 -6q-12 -21 -40 -49q-34 -33 -45 -48
q-17 -24 -17 -28q0 -7 6 -12q71 4 133 35zM637 216q-3 -11 -10 -11q-2 0 -18 8q-12 5.99997 -21 -2q-15.6957 -21.4782 -15.6957 -61.3818q0 -8.4008 0.695679 -17.6182q2.27271 -28.6364 2.27271 -48.1818q0 -23.4545 -3.27271 -33.8182q-99 -18 -254 -34l-257 -26
q-10.0833 47.6667 -10.0833 123.903q0 6.93056 0.0833282 14.0972l2 140q-6 13 -15 13q-5 0 -14.5 -4q-9.5 -4 -13.5 -4q-6 0 -10 5q0 22 23 53q26 35 30 52q0 357 8 1028q173 14 465 18q8.69568 -25.2174 8.69568 -78.7903q0 -8.03589 -0.195679 -16.7097
q-0.145142 -6.43555 -0.145142 -12.5386q0 -56.9615 12.6451 -84.9614q3 -8 -3 -18t-6 -15q7 -263 29 -790q1 -9 10.5 -11.5l17.5 -4.5q-3 -16 -3 -33q0 -49 45 -148zM224.06 1072.41q10.7658 16.42 19.9405 27.5891q-5.7858 -11.5715 -19.9405 -27.5891zM224.06 1072.41
q-16.2231 -24.7437 -36.0595 -61.4109l-7 7q7 17 31 41.5q6.64261 6.78101 12.0595 12.9109z" />
    <glyph glyph-name="J" unicode="J" horiz-adv-x="1175" 
d="M1141 326q-2.69495 0.152557 -5.33032 0.152557q-49.1951 0 -77.6697 -53.1526q-4 -8 -36 -102l-31 16q-117 -183 -354 -183q-32 0 -65 4q-146 17 -232 82l-170 163q-7 7 -11 7q-11 0 -29 -25q1 -8 -1.5 -15t-10.5 -4q-22 138 -118 153q31 16 84 59q-1 14 -14 48
q-12 31 -11 50l1 15l317 282q14 -95 54 -169q54 -102 132 -102q90 0 136 174q33 122 33 248q0 89 -51 375l375 83q25 -50 43 -296q15 -198 15 -316q0 -172 -22 -313q-2 -14 -17 -71q-11 -47 -11 -70q0 -26 42 -34l7 1q19 0 28 -7zM1025 1246q-6 116 -48 116q-17 0 -41 -18
q-4 -29 -4 -63q0 -51 10 -128l15 -15q39 40 68 108zM1043 1133q0 40 -21 60q-50 -57 -50 -83l3 -13q11 -4 22 -4q27 0 43 14q3 12 3 26zM1050 1057q0 25 -23 25l-21 -10v-3q0 -11 28 -40h3q13 0 13 28zM1064 804q0 86 -9 168q-24 34 -80 94h-18q-7 1 -10 -15q-1 -11 -3 -21
q9.09088 -111.818 9.09088 -221.157q0 -10.9339 -0.0908813 -21.843l-1 -58q-11 -2 -11 27q0 162 -19 283q-29 -17 -57 -61q-38 -59 -48 -69l-6 6q29 43 80 133q-8 6 -70 6l-29 7q15 12 63 13.5t67 17.5l1 7q1 33 -36 75q-46 50 -54 69q16 -7 39 -34t39 -35q6 19 6 41
q0 129 -37 129q-20 0 -72 -14q-55 -14 -65 -25q37 -172 37 -323q0 -143 -39 -283q-55 -200 -161 -202q-1.66528 -0.038147 -3.32666 -0.038147q-129.034 0 -234.673 230.038h-18q-38 -38 -114 -126q-92 -106 -93 -122l11 -20q15 -2 30 15q19 21 26 24l21.5 -55.5t51.5 -28.5
q31 0 53 18q23 -65 30.5 -72.5t72.5 -29.5q52 34 74 115l35.5 -53t51.5 -27q14 0 87 35q0 -27 15 -54q17 -32 43 -32q82 0 124 70l44 82q2 -60 46 -78q26 0 53 25l43 43q35 176 35 348zM1063 322q-17 6 -36 6q-24 0 -64.5 -11t-65.5 -11q-10 0 -20 1q24 -13 56 -13
q26 0 65 9q54 12 65 14v5zM666 296q-15 4 -31 4q-18 0 -63 -7q-25.3333 -4 -45.3333 -4q-10 0 -18.6667 1v-9q22 -16 50 -16q8 0 108 31zM943 220q0 8 -4 13l-7 1q-19 0 -36 -18q-23 -26 -29 -29l-34 69q-19 40 -58 40q-63 0 -82 -40.5l-37 -80.5q-6 2 -34 21q-20 13 -43 13
q-41 0 -80 -34l-20 77q-14 44 -54 44q-15 0 -40 -5q-28 -6 -41 -7q-49 -26 -53 -71q53 -73 155 -115q93 -38 192 -38q79 0 181 42q124 50 124 118zM351 315l-4 15q-93.7391 21.0435 -174.669 21.0435q-3.67863 0 -7.33081 -0.0434875l-31 -1q33 -19 98 -26q72 -8 100 -18z
M789 199q0 -35 -35 -35q-33 0 -33 33q0 32 37 32q31 0 31 -30z" />
    <glyph glyph-name="K" unicode="K" horiz-adv-x="1260" 
d="M1243.21 299.402q0 -11.0684 -15.7051 -16.9017q-17.5 -6.5 -19.5 -17.5q2 -16 -12.5 -41t-11.5 -43q-5 -4 -9 -4q-5 0 -13 7.5t-12 7.5q-2 0 -4 -1q-79 -44 -217 -138q-149 -101 -217 -141q-96 210 -161 328q-13 23 -33 23q-12 0 -16 -16q1 -23 11 -79
q7.36365 -40.0909 7.36365 -68.1322q0 -6.23141 -0.363647 -11.8678q-6 -1 -18 -9q-143 -20 -431 -53q-8 17 -10.5 61.5t-10.5 62.5h-10q7.2 24 7.2 46.08q0 33.12 -16.2 61.92l-31 35q2 2 35 18q23 11 27 28q2 73 2 157q0 95 -4 286t-4 287q0 173 10 308q80 19 231 43
q163 26 233 41q1 -1 12 -26q6 -118 44 -330q3 -2 6 0q18 51 45 156t44 156q175 -9 527 -24q5 -5 2 -12q-5 -9 -5 -10l-202.5 -378.5l-203.5 -378.5q2 -13 13 -20q115 -104 257 -217q13 -2 31.5 14t27.5 17l23 -56q17 -32 48 -32q44.2051 0 44.2051 -20.5983zM1115 1340
q-40 2.28577 -94.3674 2.28577q-40.7755 0 -89.6326 -1.28577q-162 -4 -184 -4q-9 -2 -26 -13q-59 -155 -185 -462q-1 2 -3 3.5t-3 3.5q-5 166 -25 489v32q-1.63635 14.7273 -14.6529 14.7273q-2.89255 0 -6.34711 -0.727295q-147 -28 -320 -77q42 -75 124 -164
q6.75 23.25 6.75 59.4375q0 12.0625 -0.75 25.5625q-2.66666 44 -2.66666 67.1111q0 11.5555 0.666656 17.8889q4 6 9 0l9 -9q0 -55 15 -157q33 24 122 155l17 24q11 17 21 17q5 0 11 -5l-131 -186q0 -3 -5 -13q-4 -7 0 -12q40 9 120 25q6 -3 13 -12q-11 -11 -35 -16l-40 -8
q-4 -2 -46 -12q-27 -6 -31 -26l137 -164q2 -8 14.5 -20.5t12.5 -19.5q0 -5 -3 -10q-38 28 -84 87q-52 67 -77 90h-9q-0.125 -1.5 -0.125 -5.76562q0 -29.8594 6.125 -195.234q-1 -1 -3.5 -8.5t-9.5 -4.5q-11 40 -14 102q-3 97 -4 103q-1 1 -4 9q-2 5 -9 3q-10 -14 -31 -40
q-4 -4 -17 -23q-10 -15 -19 -15q-5 0 -10 4q24 34 62 105q-74 -6 -158 -28l-9 -9q0 -214 21 -641q5 1 9 1q14 0 14 -21q0 -26 3 -30q14.2424 -33.4697 45.2197 -33.4697q12.5227 0 27.7803 5.4697q13 3 34 25t33 22q9 0 17 -6q-0.5 -5 -0.5 -9.95999q0 -44.64 40.5 -86.04
q20.0702 -11.8596 37.4355 -11.8596q20.7048 0 37.5645 16.8596q0.571442 11.1429 0.571442 31.4286q0 50.7143 -3.57144 158.571q-0.888885 26 -0.888885 49.7284q0 83.0494 10.8889 138.272q34 -62 139 -287q18 -22 21 -22q8 15 15 15q6 0 18.5 -17.5t22.5 -19.5
q18 -10 40 -10q47 0 102 44q9 -22 22 -68q12.7659 -34.0425 42.191 -34.0425q5.14941 0 10.809 1.04254q54 16 89 98q-40 53 -131 138q-107 99 -141 138v13l409 628q1 8 12 22t11 22q0 6 -5 12zM279 1126v12q-1 1 -72 96q-44 60 -86 88q-6 -1 -15 -20
q-0.941177 -15.7646 -0.941177 -35.5709q0 -64.3702 9.94118 -171.429q97 7 164 31zM1168 293l-73 -10q-31.3334 -4 -56 -4q-12.3334 0 -23 1v-6q21 -15 49 -15q34 0 103 34zM1082 218q-12 0 -29 -11q-5 -10 -2 -10q2 -1 11 3q20 16 20 18zM995 163q1 8 -4.5 19.5t-5.5 17.5
q-26 53 -82 53q-23 0 -42 -13q-53 -8 -58 -71q-60 18 -86 18q-23 0 -42 -9q18 -65 72 -157q58 21 248 142zM800 249q-74 10 -224 23q16 -3 82 -22q52 -16 83 -16q34 0 59 15zM527 296q0.568176 4.54544 0.568176 9.14255q0 35.8575 -34.5682 74.8575q-0.5 -10 -0.5 -19.0833
q0 -45.4167 12.5 -67.9167q4 -4 22 3zM434 119q0 31 -4 93q-6 31 -39 31q-9 0 -22 -3q-42 -8 -78.5 -47.5t-42.5 -82.5q18.125 -3.125 46.7969 -3.125q17.2031 0 38.2031 1.125q41.3333 2.66666 67.1111 2.66666q12.8889 0 21.8889 -0.666664q5 2 12 9zM323 256
q-139 30 -156 30q-36 0 -65 -12q15 3 31 3q27 0 75 -15t72 -15q22 0 43 9zM205 110l-4 59q-15 44 -48 44q-5 0 -10 -1q-4.34782 -10.8696 -4.34782 -32.1361q0 -27.6465 7.34782 -72.8639q50 0 59 3zM933 194q0 -46 -31 -49q-31 -4 -37 33q-3 34 18 38q5 1 10 1zM396 187
q2.86441 -10.1356 2.86441 -18.3778q0 -29.1646 -35.8644 -34.6222q-4.26828 -0.609756 -8.06067 -0.609756q-27.3052 0 -29.9393 31.6098q-2.71698 8.83018 -2.71698 15.9174q0 24.2147 31.717 28.0826q17 -2 42 -22zM911 187q-1.78381 13.0811 -9.22424 13.0811
q-5.07306 0 -12.7758 -6.08109q-4.84003 -8.36 -4.84003 -14.2032q0 -7.4368 7.84003 -10.7968q1 -0.375 2.04688 -0.375q7.32812 0 16.9531 18.375z" />
    <glyph glyph-name="L" unicode="L" horiz-adv-x="1025" 
d="M1011 299q-22 -3 -35 -32q-16 -36 -25 -42q4 -27 0 -29q-13 12 -28 10q-16 -3 -21 -19q0.166687 -9.83333 0.166687 -21.3056q0 -57.3611 -4.16669 -155.694q-4.36365 -5.81818 -16.6611 -5.81818q-4.61157 0 -10.3389 0.818182q-257 5 -769 21l-12 15
q1.65306 27 1.65306 50.7276q0 105.456 -32.6531 146.272q-18 14 -59 36q3 2 49 31q30 19 37 44q-12 338 -31 1019q264 43 531 74q2 -2 9 -31q-5 -304 -22 -908q2 -12 13 -11q9 3 18 5q95 39 288 108q6 3 6 -1q1 -7 4 -8q0 2 -1 -121
q-0.0666504 -4.93332 -0.0666504 -9.74222q0 -67.3244 13.0667 -110.258q11 -22 60 -23q37.3555 -0.911102 37.3555 -27.5561q0 -2.59952 -0.35553 -5.44394zM849 481q-63 -8 -175 -35q-122 -29 -175 -38q-2 1 -6 5q5 146 31 486q24 315 27 487q-2 3 -18 3
q-129 -21 -378 -83q0.111115 -9.33337 0.111115 -19.6914q0 -82.8643 -7.11111 -231.309q12 -27 15 -27q4 1 7 2q8.47058 -0.941162 18.1038 -0.941162q31.308 0 74.8962 9.94116q-24 37 -55 66q-29 22 -16 36q37 -35 102 -105q9 -1 22 7q0.666656 27 0.666656 62.7778
q0 71.5555 -2.66666 178.222q-3 10 5 16q4 5 10 0l9 -9q-1 -29.5 -1 -75.5t1 -108.5q3 -1 3.5 -6.5t5.5 -5.5q13 8 29 37t31 35q-6 -24 -31.5 -64.5t-30.5 -63.5q15 -7 35 -7q9 0 27 2t26 2q26 0 41 -12q-38.9231 -9.30768 -85.0059 -9.30768q-8.37869 0 -16.9941 0.307678
q-15 4 -24.5 -5t-6.5 -24l137 -166l-7 -7q-39 49 -126 131q-7 -53 -7 -139v-134q-10 -22 -19 0q-3.125 29.375 -3.125 73.5938q0 26.5312 1.125 58.4062q2.66666 62 2.66666 100.889q0 19.4445 -0.666656 33.1111v29q-3 17 -18 15l-87 -130q-26 -30 -29 -30t-6 1
q14 31 55 90.5t54 92.5q-23.0588 5.76471 -50.1869 5.76471q-38.7543 0 -85.8131 -11.7647q-2 -35 -13 -542q9 -13 20 -72q7 -45 40 -58q10.1818 -4.36365 26.7107 -4.36365q28.9256 0 77.2893 13.3636q18 -97 69 -109q39 20 74 67l56 83q15 -29 56 -75q11 -8 24 -8t34 11
q25 13 34 15q12 -9 9 -27q-4 -25 -2 -31q5 -41 44 -41q4 0 9 1q18 11 23 36q4 18 2 48q-3 44 -3 45q4 1 10 1q9 0 31 -6.5t33 -6.5q17 0 30 12q13.7619 46.9524 13.7619 103.079q0 13.2064 -0.761902 26.9206zM960 302l-93 -34q-56 -19 -99 -19q27 -15 60 -15q60 0 114 44
q13 4 18 24zM660 207q-26 2 -85 20q-53 16 -85 16q-16 0 -32 -3q1.15384 0.0384674 2.33951 0.0384674q29.6413 0 79.1605 -24.0385q51.5 -25 75.5 -25t45 16zM809 85q12 9 12 26q0 10 -6 32t-6 33q-8 30 -24 30q-9 0 -30.5 -12.5t-32.5 -12.5q-7 0 -12 4q-97 -27 -109 -84
q-18 -1 -26.5 24.5t-23.5 28.5q-8 5 -16 5q-11 0 -30.5 -14t-26.5 -16q-16 14 -13 40q-6 41 -53 41q-6 0 -12 -1q-28 -15 -57 -29q-30 -20 -36 -48q-66 68 -103 68q-15 0 -30 -6q-31 -1 -38 -33q-1 -3 -3 -58q10.3448 -43.1034 76.4269 -43.1034q10.5731 0 22.5731 1.10345
q191 7 577 24zM301 222q-44 28 -142 58q26 -19 80 -55q26.88 -7.84 43.0976 -7.84q12.7424 0 18.9024 4.84z" />
    <glyph glyph-name="M" unicode="M" horiz-adv-x="1799" 
d="M1783 287q1 -17 -15 -38q-22 -28 -25 -37q-2 -13 -11 -44q-9 -27 -9 -43t7 -31q-2 -1 -2 -2q1 -5 -3 -13l-595 -151q5 2 -13 2q2 39.5 2 98.25t-2 136.75q-13 26 -49 4q-5 -3 -15.5 -16.5t-15.5 -13.5t-9 8q-6 107 -53 127q-51 -64 -123 -174q-90 -137 -119 -176
q-2 -3 -10 -3q-25 96 -82 286q-3 5 -10 5t-10 -5q-1 -14 -15 -35q-12 -3 -23 9q-15 17 -18 19l-30 -174l-533 72q-2 14 -2 29q0 30 10 89t10 90q0 26 -5 49q7 13 15 43q24 305 96 991l484 90l236 -558l201 521l528 15q43 -339 124 -1099q26 -1 43 -35.5t41 -35.5zM1712 265
q-16 2 -82 16q-53 12 -85 12q-61 0 -97 -37q34 17 75 17q44 0 145 -33q19 3 44 25zM1603 138q0.307739 7.69231 0.307739 15.1243q0 40.8757 -9.30774 73.8757q-22.5333 -19.9333 -22.5333 -60.1467q0 -6.18666 0.533325 -12.8533q-6 -6 -12 -6q-8 0 -19 16.5t-18 20.5
q-13.2812 9.03125 -31.6426 9.03125q-16.2012 0 -36.3574 -7.03125q-16 -2 -29 -25.5t-23 -23.5q-5 0 -10 3q-15 58 -28 82q-23 45 -65 51q1 8 15 11q18 3 22 8q65 39 71 133q12 -13 9 -34q9.49023 -37.9608 42.0546 -37.9608q5.18066 0 10.9454 0.960785q58 20 80 55
q17 4 21 -13q5 -20 14 -20l-59 995l-381 37l-97 -233l113 -91q-6 82 -22 248q6 17 15 13q7 -80 29 -241q12 -13 11 -13q4 5 35 59q3 2 9.5 13.5t11.5 11.5t10 -7q-4 -17 -29 -57q-21 -35 -21 -57q24 6 210 92q1 -2 5 -2.5t5 -3.5q-37 -28 -102 -59q-106 -50 -109 -52v-13
q45 -42 128 -133l-7 -6q-45 44 -142 127q-1 -18 -1 -40.4445q0 -44.8889 4 -107.556q6.125 -93.625 6.125 -135.188q0 -5.9375 -0.125 -10.8125q-1 -3 -4 -3q-4 1 -5 3q-17 75 -22 239q1 12 -9 31q-15 -16 -75 -119q-2 -2 -8 -12.5t-12 -10.5q-4 1 -8 3q5 23 32.5 68
t33.5 71q-27 -4 -69 -22q-52 -23 -68 -28l-7 6q20 20 56 35l63 24l58 43l-124 118l-195 -415l-265 669l-413 -65l-47 -840q10 14 17 14t20.5 -36.5t34.5 -39.5q13 -6 27 -6q22 0 69 25q4 -5 4 -11q0 -5 -4.5 -16t-4.5 -18q0 -5 2 -10q25.38 -44.18 48.9928 -44.18
q1.5072 0 3.0072 0.179993q67 20 90 59q11 10 22 40q11 27 22 34l14 -52q10 -29 33 -37q11 29 23 113q12 73 32 109q20 -34 39 -92q28 -84 32 -94q3 -21 13 -21q15 0 27 31q8 -28 40 -77q15.5 -13.5 40.5 -13.5t59.5 13.5q-0.654541 -5.78183 -0.654541 -11.3018
q0 -45.08 43.6545 -72.6982q-10 -38 -34 -19q-24 -5 -47 -43q-14 -37 -14 -47q0 -14 11 -21l379 455l9 -9q0 -3 15 -270q8 -12 21 -12q8 0 25 6t23 6q-11.0819 -36.2295 -11.0819 -63.5571q0 -36.7872 20.0819 -57.4429q3 -17 -21 -34q-30 -21 -35 -30q-7 -30 -7 -66t7 -65
q17 0 12 -2q129 35 384 117zM1123 420q5 49 -9 50q-37 -49 -99 -150q29 7 58 47q33 44 50 53zM1192 234q-33 8 -102 35q16 -51 73 -51l18 5q11 2 11 11zM778 304q-1 3 -24 14q-26 5 -55 5q-37 0 -109.5 -10t-107.5 -10q-53 0 -95 15q49 -35 121 -35q34 0 105 14t108 14
q30 0 57 -7zM267 355q-42 23 -99 23q-61 0 -94 -27q25 11 57 11q22 0 65.5 -7t65.5 -7q0 2 3.5 2.5t1.5 4.5zM479 185q0 37 -31 33q-25 -3 -59 -49q-23 5 -23 41q1 46 -4 55q-12 32 -26 53q-23 0 -42 -32q-23 -40 -32 -46q-8 11 -22 34q-21 11 -62 4q-78 -54 -78 -94
q0 -11 4 -24q95 -26 345 -80zM1343 373q-12.4857 -10.3143 -28.5078 -10.3143q-13.4922 0 -29.4922 7.3143q-3 3 -3 11.5t3 22.5q10 9 30 9q34 0 34 -22q0 -8 -6 -18z" />
    <glyph glyph-name="N" unicode="N" horiz-adv-x="1470" 
d="M483 239q0 -33 -33 -33t-33 33t33 33t33 -33zM936 371q0 -36 -36 -36t-36 36t36 36t36 -36zM341 274q-31 47 -102 60l-128 12q19 -22 60 -27l70 -8q13 -3 43 -22q26 -17 44 -17q6 0 13 2zM738 274q-51 4 -154 4q-1 -8 -3 -7q37 -16 81 -16q47 0 76 19zM591 389
q0.262268 4.26233 0.262268 8.45587q0 59.7573 -53.2623 105.544q3 -91 16 -139q12 -2 20.5 7zM219 1095l-41 50q-25 28 -49 37q-0.692307 -22.3846 -0.692307 -40.7219q0 -61.1243 7.69231 -77.2781l47 8q28 5 36 23zM1235 289q-39 -39 -112 -48l-127 -10q116 -19 127 -19
q71 0 106 53q13 13 6 24zM244 1107q1.47058 7.35291 1.47058 23.2699q0 38.2007 -8.47058 125.73q-2 28 -25 28q-15 0 -44 -13q-36 -16 -42 -18q-8 -35 3 -53q28 -5 61 -43q38 -42 54 -50zM1332 1393q-148 -4 -444 -31q8 -193 10 -589q-2 -2 -6 -4l-396 599
q-141 -38 -239 -72q-0.307678 -12.9231 -0.307678 -25.6095q0 -69.7751 9.30768 -132.391q1 0 3.5 -7.5q2.50003 -7.5 9.5 -4.5q4 5 46 72q4 2 13 17q7 12 14 12q4 0 9 -5q-31 -46 -62 -108q9 -2 18 -2q23 0 63 14q46 16 65 19l7 -9q-29 -16 -87 -33q-62 -17 -86 -29
q20 -45 77 -90q0 -2 10 -14q6 -8 -1 -15q-25 29 -84 66q-0.666656 -14.5 -0.666656 -30.7222q0 -81.1111 16.6667 -205.278q-2 -20 -16 0q-4 82 -28 242q-14 -7 -52 -72q-7 -4 -16 -25q-7 -17 -16 -17q-5 0 -9 2l42 73q26 45 30 76q-31 -8 -96 -19q-4 -6 -10 -18
q2 -174 13 -521q9 -12 19 -58q9 -38 33 -53q16 -7 34 -7q47 0 96 47q4 -7 13 -55q4 -23 28 -43q36 -32 37 -32q-14 -23 -14 -50t14 -48q-3 -18 -11 -18q-6 0 -27 27q-13 4 -27 4q-44 0 -86 -44q-13 23 -51 58q-44 18 -55 -7q-0.941177 -10.353 -0.941177 -22.4775
q0 -39.4048 9.94118 -97.5225q85 -4 172 -4t173 4q2.28571 18.2857 2.28571 44.7347q0 19.8367 -1.28571 44.2653q-2.28571 36 -2.28571 60.5714q0 18.4286 1.28571 30.4286q-6 5 -16 18q-4 13 9 22q-2 66 -2 162t2 222q47 -57 111 -163q74 -123 106 -166q14 1 35 17.5
t30 17.5l10 -66q10 -36 36 -55q-11 -17 -27 -49q43 -77 139 -224q107 22 315 75q44 31 44 98q0 24 -6 47q-4 1 -8 1q-13 0 -27.5 -22q-14.5001 -21.9999 -26.5 -26q-30 1 -44 -32q-24 -53 -25 -54q-35 38 -36 40q-22 20 -46 22q-2.7345 0.145004 -5.53076 0.145004
q-42.1981 -0.625244 -98.4692 -53.145l-31 63q-21 36 -49 52q-6 4 -24.5 2t-21.5 7q82 23 137 115l11 -28q19 -44 84 -46q25 7 41 35l24 48q4 -17 26 -43q9 -3 18 -3q24 0 57.5 31t57.5 34q2 67 23 502q14 290 14 505zM1434 1466q-26 -362 -71 -1077q20 -10 19 -46
q-1 -43 5 -54q1 -11 14 -29t13 -30q0 -6 -2 -12q-27 -12 -38 -55q-11 -43 -33 -56l-3 -58q-3 -30 -34 -26q-70 -4 -226 -26q-150 -21 -224 -23q-13 17 -75 125q-44 77 -95 108q-5 1 -10 1q-22 0 -49 -29t-43 -32q0 -22 -4 -62q-3 -15 -20 -15q-7 0 -16 2q-164 -22 -490 -58
q-5.33333 34.6667 -5.33333 94.2222q0 29.7778 1.33333 65.7778q1.6 45.6 1.6 81.12q0 53.28 -3.6 83.88q-16 15 -46 41q15 2 32 6t20 22q5 149 22 901q86 25 240 57q243 51 244 51q85 -162 272 -480q5 39 5 84q0 50 -10 151.5t-10 154.5q0 26 2 50l610 96z" />
    <glyph glyph-name="O" unicode="O" horiz-adv-x="1290" 
d="M1262 709q0 -206 -78 -373q8 -10 8 -19q0 -11 -17 -27.5t-16 -31.5q-19 4 -38 -15l-28 -34q-199 -215 -481 -215q-103 0 -223 39q-141 45 -188 114q-9 6 -24 6l-22 -3l-22 -27q-4 68 -27 84q-35 53 -106 62q4 4 39 26q27 16 27 33q0 10 -30.5 127t-30.5 184
q0 295 185 523q197 243 485 243q258 0 430 -225q157 -206 157 -471zM1211 703q0 242 -145 428q-157 201 -392 201q-193 0 -327 -123q-0.473694 -13.579 -0.473694 -29.2521q0 -83.59 13.4737 -226.748q43 32 99 97q72 84 92 104l7 -7l-167 -188v-15q46 7 136 31v-13
q-52 -10 -146 -49q58 -42 115 -66q21 -9 21 -17l-2 -8q-28 7 -77.5 35.5t-77.5 35.5q-6.23077 -34.6154 -6.23077 -89.361q0 -24.3314 1.23077 -52.639q1.77777 -44 1.77777 -76.9383q0 -41.1729 -2.77777 -65.0617h-7q-9 93 -9 247q0 13 -9 19q-26 -17 -60 -58
q-39 -49 -55 -63l-6 6q37 41 99 133q-99 -8 -214 -62q-31 -61 -31 -230q0 -141 50 -212q7 11 25 31q7 -36 15.5 -72t55.5 -36q17 0 34 10t22 10q8 0 3 -21q3 -16 25.5 -32.5t39.5 -16.5q10 0 25.5 10t24.5 11l18 -9q-1 -2 -58 -40q-48 -32 -48 -73l7 -20l7 -2q7 0 10.5 22.5
t35.5 22.5q46 0 46 -37q0 -8 -14 -19.5t-14 -18.5q0 -26 103 -46q81 -16 130 -16q216 0 371 134q3 10 3 21q0 28 -21 51q-8 4 -16 4q-12 0 -32 -13.5t-33 -13.5l-6 1q-7 87 -59 130h9q1.20001 -0.0125122 2.39313 -0.0125122q94.2569 0 145.607 78.0125q-3 -10 -3 -21
q0 -52 41 -52q12 0 31.5 11t30.5 12q9 -4 9 -40q0 -23 16 -23l10 1q107 159 107 376zM335 1019q0 25 -3 76.5t-3 76.5l-13 13q-96 -77 -130 -161q45 -32 143 -80q6 32 6 75zM1060 278q-111 45 -154 45l-30 -3q28 -1 84 -24q47.6667 -20.1667 74.3264 -20.1667
q2.42358 0 4.67358 0.166656zM303 928q-41 28 -129 77q-46 -64 -66 -136l9 -7l184 57zM283 238q-13 -4 -27 -4q-28 0 -78 22.5t-76 23.5q4 -2 60 -41q40 -27 64 -27q29 0 57 26zM882 662q0 -95 -55 -174q-61 -87 -151 -87q-87 0 -138 62q-47 58 -47 148q0 106 57 182
q63 83 166 83q79 0 126 -70q42 -61 42 -144zM840 309q-5 -35 -26 -44q-46 0 -46 31t40 31q25 0 32 -18zM781 194q-37 -16 -44 -40l2 -17q0 -8 -7 -12q-5 3 -39 32q-26 21 -43 21q-51 0 -73 -59q-4 -3 -8 -22t-7 -19q-5 0 -11 14q-26 53 -48 71q-27 22 -79 22q-5 0 -5 3
t12 12l13 -1q3.72415 -0.275864 7.37216 -0.275864q49.2485 0 84.6278 50.2759q31.2432 45.946 31.2432 96.9584q0 4.5011 -0.243225 9.04163q8 -5 30 -36q17 -24 41 -24q50 0 83 66h11q-8 -22 -8 -46q0 -65 57 -121zM843 652q0 69 -34 117q-39 54 -105 54q-79 0 -132 -79
q-47 -71 -47 -154q0 -59 36 -106q40 -52 99 -52q78 0 133 73q50 67 50 147zM716 216l-6 11q-23 16 -55 16q-21 0 -50 -10q-37 -11 -37 -28q0 -4 6 -4l6 2q14 12 35 14q14 2 39 -1q30 -4 39 -4z" />
    <glyph glyph-name="P" unicode="P" horiz-adv-x="990" 
d="M1002 1024q0 -187 -147 -336q-87 -88 -308 -222q-7 -10 -5 -19l5 -39q9 -13 25 -13q15 0 41 13q15 24 34 18l-1 -14q-0.321411 -3.96429 -0.321411 -7.96301q0 -33.3227 22.3214 -69.037l50 -66q-9 -1 -26.5 0.5t-25.5 1.5q-28 0 -37.5 -20.5t-11.5 -20.5q-7 0 -13 4
q-6 15 -28 31q-5 -16 -5 -34t8 -57t7 -60l-1 -13q-100 -24 -256 -49q-226 -36 -258 -42q-3.6 26.4 -3.6 74.4q0 32 1.6 73.6q1.06667 25.0667 1.06667 47.2178q0 60.9156 -8.06667 99.7822l-24 28q-15 15 -33 13l-5 5l42 25q23 16 32 37l34 998q68 31 217 31q677 0 677 -418
zM263 1241l-3 104q-1 7 0 34q-74 -8 -98 -21l-4 -79q30 -23 86 -81h13q6 20 6 43zM250 1164l-91 89l-2 -102zM961 1033q0 356 -556 356q-90 0 -126 -10v-163q1 -12 3 -24q3 -15 15 -14q16 12 75 93q56 76 59 76l8 -1q-12 -29 -46 -75q-38 -50 -50 -73q8 -4 19 -4
q14 0 39.5 8t38.5 8q9 0 12 -10q-49 -10 -142 -46q10 -25 46 -55q41 -33 52 -51l-9 -5q-94 77 -106 77q-5 0 -9 -4l1 -150q0 -85 -4 -150l-9 6v101q0 53 -7 174l-108 -138v-84q-3 -108 -5 -216q-0.25 -15.875 -0.25 -31.1406q0 -106.859 12.25 -183.859q4 -27 41 -27
q32 0 56.5 16t35.5 17q-2 -6 -2 -18q0 -33 73 -83q-72 -43 -78 -109q-4 -10 -9 -10q-3 0 -26 19.5t-59 19.5q-20 0 -30 -16l1 -25q-0.399994 -8.60001 -0.399994 -18.84q0 -40.96 6.39999 -108.16q105 12 312 53v18q-22 19 -35 74t-36 74q38 34 51 97q3 16 11 111
q183 37 328 176q157 151 157 329zM263 1136q-12 9 -27 9q-25 0 -77 -11l-2 -152q40 53 106 154zM653 302q-22 47 -97 47q-35 0 -51 -19q12 -3 67 -3q23 0 42 -13.5t30 -13.5zM310 347q-20 -4 -42 -4q-27 0 -80.5 8t-81.5 8q-25 0 -48 -6q27 -2 87 -14q55 -12 87 -12
q45 0 78 20zM633 977q0 -75 -44.5 -139.5t-114.5 -92.5q-1 3 -31 362q14 13 39 13q67 0 109 -38.5t42 -104.5zM418 429q0 -26 -35 -26q-25 0 -27 26l-1 6q0 13 19 25h10q34 3 34 -31zM393 240l-1 -6l1 -4q0 -13 -19 -27l-6 -1q-32 0 -32 26q0 35 33 35q24 0 24 -23zM589 957
q0 101 -79 101l-27 -6q0 -2 31 -230l18 4q57 58 57 131z" />
    <glyph glyph-name="Q" unicode="Q" horiz-adv-x="1635" 
d="M1618 325l-345 -255q-30 42 -96 121l-217 -111q-113 -48 -242 -48q-302 0 -499 233l-20 -9l-13 15q-4 33 -27 63q-26 33 -57 33q-25 0 -54 -22l-48 -36l3 21q8 15 65 62q45 37 45 72t-22.5 121t-22.5 133q0 302 241 517q233 209 539 209q270 0 437 -180
q161 -174 161 -447q0 -112 -28 -230q27 -22 27 -29q0 -4 -2 -8q-17 -10 -17 -17q0 -16 86 -99q96 -94 106 -109zM1409 816q0 242 -166 406.5t-407 164.5q-104 0 -249 -47q-171 -55 -206 -127q33 -48 108 -139h9q4.89999 27.3 4.89999 63.91q0 15.6899 -0.899994 33.09
q-4 97 -4 98q0 9 9 16q6 0 9 -5q7.11108 -136.889 7.11108 -213.728q0 -9.60498 -0.111084 -18.2716l9 -5q72 82 106 129h15q-8 -17 -47 -64q-31 -39 -37 -69q14.5 -3 33.75 -3t43.25 3q44.3333 5.44446 66.2839 5.44446q6.27161 0 10.7161 -0.444458l26 -1l3 -7
q-33 -12 -104.5 -14t-105.5 -14q25 -61 87 -111q74 63 171 63q101 0 167 -70t66 -171q0 -150 -92 -213q-17 -55 -17 -72q0 -34 33 -42l59 -10q-2 8 -2 19q0 20 33 55q40 43 46 54q6 33 31 89q48 -52 96 -52q63 0 86 58q20 -35 28 -35q30 0 54 109q21 89 21 137zM1347 519
q-25 -10 -104 -15q-67 -5 -101 -29q62 4 184 26zM978 712q0 79 -48 135q-51 58 -128 58q-83 0 -132.5 -52t-49.5 -134q0 -100 77 -178q22 -22 53 -26q35 -4 49 -14q179 9 179 211zM880 470l-57 -10q4 -7 17 -7q39 0 40 17zM954 364q-104 34 -124 34l-25 -6q22 0 61 -17
t60 -17zM746 463q-191 86 -191 264q0 88 49 139q-1 28 -24 60l-42 51h-9q-4 -27 -4 -60q0 -30 5.5 -93t5.5 -95v-9l-16 -28q0 88 -22 261q-13 -8 -41 -44q-24 -31 -45 -34q36 40 86 130q-22 4 -49 4q-33 0 -100 -8.5q-59.9474 -7.60529 -93.4765 -7.60529
q-3.9446 0 -7.52354 0.105286l-16 12q98 22 235 22q23 0 18 18q-15 16 -59 83q-34 53 -70 72q-220 -171 -220 -480q0 -73 15 -146l15 -6q29 -111 81 -111q19 0 39 26l29 42q3 -4 3 -45q0 -21 17.5 -44.5t38.5 -23.5q34 0 91 89q10 -19 21.5 -38t36.5 -19q5 0 71 26
q16 -131 46 -131q40 0 71 44q26 36 35 80zM1491 294q-30 62 -104 169q-4 -34 -20 -34q-10 0 -32.5 14.5t-36.5 14.5q-6 0 -13 -4q-66 -9 -118 -77q-3 2 -23 36q-12 19 -39 19q-24 0 -47 -12q-18 -15 -37 -51l6 -18q-4 -5 -23 -5q-42 0 -59 -75q-9 -1 -31 19.5t-44 20.5
q-19 0 -59 -15q-32 65 -59 65q-40 0 -77 -56q-9 0 -25 6.5t-25 6.5q-45 0 -80 -53l-26 26q-16 17 -32 17q-18 0 -40 -23q-27 -28 -35 -32q-9 35 -17 70q-13 42 -43 54q-13.3704 -8.44446 -13.3704 -42.144q0 -14.1893 2.37036 -32.856q-4 -10 -16 -10q-7 0 -22 13l-13 -6
q30 -40 54 -40q11 0 24 6q21 -6 13 -49q60 -61 167 -97q99 -34 193 -34q221 0 426 173q37 -32 118 -89q93 48 206 125zM569 342q-65 51 -115 51q-17 0 -36 -7q25 -1 71.5 -23q44.4783 -21.0435 70.2004 -21.0435q1.16919 0 2.29962 0.0434875h7zM312 401q-17 -5 -35 -5
q-21 0 -61.5 10.5t-61.5 10.5q-29 0 -29 -10l1 -6q23 0 66.5 -12t66.5 -12q39 0 53 24zM1019 471q0 -10 -19 -21q-25 9 -25 25q0 11 21 19q24 -5 22 -19zM694 398q0 -11 -32 -25q-0.777771 -0.0370483 -1.52673 -0.0370483q-19.4733 0 -19.4733 25.037l3 25q8 6 19 6
q31 0 31 -31z" />
    <glyph glyph-name="R" unicode="R" horiz-adv-x="1350" 
d="M1316 370l2 -6q0 -11 -20.5 -18.5t-17.5 -21.5q18 -17 18 -22l-2 -13l-484 -284h-12q-39 78 -139 220l-16 -9l9 -44q-4 -4 -10 -4q-5 0 -15 6.5t-14 6.5q-11 0 -11 -16q4 -10 14 -52l-550 -152l2 242q0 78 -29 96l-41 10l41.5 15t30.5 25q5 315 31 1019q161 71 401 71
q260 0 488 -94q297 -123 297 -344q0 -230 -316 -414l3 -15l196 -152q14 -4 23.5 15.5t10.5 19.5q6 0 15 -14q18 -29 44 -42q47 -25 51 -29zM1219 1023q0 181 -274 290q-213 85 -426 85q-85 0 -196 -16q-143 -20 -180 -51l-1 -126q0 -99 10 -795q8 -25 38 -25q16 0 40 13
q28 13 40 15q20 -70 26 -78q15.64 -21.16 65.136 -21.16q4.30399 0 8.86398 0.160004l30 -12q-13 -22 -40 -15q-53 -32 -59 -69q-8 -44 -24 -44q-11 0 -42 31.5t-53 31.5q-14 0 -30 -15l7 -170l328 71q1 48 -24 83q-28 38 -72 38q-7 0 -9 9q107 66 114 136q35 -17 108 -40
q63 22 90 68q10 -16 10 -34t-32 -81q61 -58 175 -179q148 43 148 76l-13 19q-11 6 -26 6q-46 0 -57 -31.5t-25 -29.5q-1 1 -35 59q-21 36 -49 47q-7 8 -48 5l-17 10l13 9q96 16 118 127q10 -5 39 -35q23 -22 46 -22q69 0 94 54q2 -1 19 -40
q14.1666 -32.1111 47.0648 -32.1111q1.93518 0 3.93518 0.111115l8 1q-71 110 -266 268l241 163q131 109 131 246zM1165 284q-4 23 -39 21h-7l-38 -32q-22 -20 -22 -42l1 -6l58 21q34 14 47 38zM1063 321l-50 2q-70 -27 -197 -44q22 -10 46 -10q35 0 101 23q77 25 100 29z
M623 298q-1 2 -5 2q-14 0 -23 -11q-17 -9 -58.5 -14t-58.5 -17q21 -8 45 -8t59 13q41 16 41 35zM267 280q-9 2 -67 21q-34.6667 11.2667 -60.32 11.2667q-3.94667 0 -7.67999 -0.266663l-13 -1q34.5682 -34.5682 91.1343 -34.5682q7.25206 0 14.8657 0.568176zM1060 1098
l-217 -30q50 -53 117 -131q-38 17 -123 110q10 -90 10 -206q0 -27 -4 -50h-7q0.0454712 4.18182 0.0454712 8.54755q0 91.6797 -20.0455 264.452q-27 -4 -60 -32q-40 -35 -55 -42q12 32 88 90l-166 1v9q74 4 171 11l-144 161q48 -54 155 -148q5 20 5 44q0 21 -8 70
q-5.44446 34.2222 -5.44446 56.9506q0 6.49377 0.444458 12.0494l3 36h5q4 -61 28 -211l116 91q-8 -13 -53 -53q-36 -31 -40 -59q37.8 -5.40002 103.68 -5.40002q43.92 0 100.32 2.40002zM794 836q0 -96 -87 -168q-77 -63 -180 -81v335q72 28 135 28q132 0 132 -114z
M777 360q0 -28 -28 -28t-28 28t28 28t28 -28zM390 188q0 -30 -30 -30t-30 30t30 30t30 -30zM734 818q0 71 -74 71q-63 0 -92 -42q-0.181824 -5.72729 -0.181824 -11.9504q0 -62.2314 18.1818 -174.05h6q0.706909 -0.0172119 1.41663 -0.0172119q40.4541 0 90.0834 56.0172
q50.5 57 50.5 101z" />
    <glyph glyph-name="S" unicode="S" horiz-adv-x="1285" 
d="M493 424q0 -36 -29 -36q-30 0 -31 26q-1 31 23 32q37 1 37 -22zM853 373q0 -28 -23 -28q-35 0 -35 24q0 37 27 37q31 0 31 -33zM325 325q-13 6 -126 40q34.04 -42.32 94.3185 -42.32q5.24158 0 10.6815 0.320007zM685 262q-59 33 -128 56q17 -28 58 -40zM1050 217
q-7 16 -25 16l-4.20209 -0.0766754q-60.7979 -1.12839 -60.7979 -70.9233q36 9 52 17q29 14 38 38zM1150 301h-8q-21 -1 -61 7.5t-60 8.5q-21 0 -42 -9q96 -17 113 -17q32 0 58 10zM1199 398q0 96 -151 175l-281 130q-149.815 82.702 -150.964 188.668
q0 107.229 126.964 139.332q57.1487 14.45 166.643 14.45q19.3575 0 40.3575 -0.449951q-5 107 -14 322l-22 22q-61 9 -126 9q-153 0 -315 -49l1 -8q0 -24 -7 -70.5t-7 -69.5q0 -26 6 -49q10 6 70 68q54 56 61 56q9 0 13 -5q-12 -19 -68 -74q-46 -45 -60 -80l25 -1
q5.00122 -0.199951 9.19 -0.199951q43.11 0 117.81 16.2l12 -9q-56 -9 -167 -33q13 -29 47 -67q51 -56 55 -61l-7 -5q-25 11 -58.5 51.5t-55.5 52.5q-12 -63 -12 -221q0 -21 -16 -20q-6.23077 28.3846 -6.23077 75.4615q0 18.7691 1.23077 45.5385
q1.77777 38.6667 1.77777 66.6668q0 34.9999 -2.77777 53.3332q-79 -62 -146 -145l-22 -3q18 35 65 81q60 59 72 74v14.5776q-6.84 -0.577515 -57 -0.577637q-28 0 -42 15q40 0 117 17q-14 31 -51 71q-50 54 -59 67l-22 5q-137.943 -83.543 -139.886 -253.904
l-0.114288 -10.0963q0 -101 89 -180q25 -23 165 -108q88.8333 -53.9345 88.9987 -93.7002q0.138184 -84.2005 -92.9987 -113.3q-51 -16 -159 -16q-18 0 -18 -24q0 -31 34 -31h0.988373q51.2878 0.166687 80.0116 35h12q11.5916 0.724457 15.3102 -10.0981
l-0.307526 -42.5993q0.165314 -42.4246 40.9973 -57.3027q37 -7 74 -15q44 16 88 64.5t45 49.5q13 -58 30 -78.5t54 -20.5q19 0 53 5q-1 -6 -4.5 -20t-3.5 -21q0 -27 24 -36q40 -15 41 -16q5 -19 13 -58q-22 8 -46 8q-77 0 -133 -69q-10 24 -13 42q-15 26 -38 26
q-9 0 -23.5 -15.5t-21.5 -15.5q-10 0 -17 9l5 67q0 50 -25 69l-16 1q-1.91302 0.0434875 -3.82227 0.0434875q-42.0038 0 -82.1777 -21.0435q-45 -24 -63 -62q-4 -13 -16 -26q-16 47 -42 47q-38 0 -60 -36q-21 -3 -23 30q-3 39 -17 47l-18 -10q0 -62 15 -182
q170 -39 358 -39q224 0 391 77q-10 45 -19 91q-17 45 -66 45q-7 0 -10 6q101 30 153 139l22 -44q16 -25 40 -25q26 0 77 57q6 3 13 3q20 0 20 -44q0 -29 16 -37l18 3q13 22 13 51zM447 1316q0 25 -17 22l-64 -28q-37 -17 -54 -40q32 -47 112 -125h11q12 72 12 171zM1261 313
q-250 -314 -806 -314q-194 0 -381 41q-2.77778 25 -2.77778 58.0247q0 26.4197 1.77778 57.9753q6 106 6 115q0 135 -79 179q18 -4 33 -4q44 0 60 28l-1 15l8 100q106 -38 198 -38q136 0 136 60l-2 14l-166 83q-91 49 -134 105q-55 71 -55 178q0 246 262 375
q207.024 101.952 479 102q85 0 185 -8l10 -9q-4 -154 -27 -462q-44 4 -76 4q-76 0 -135 -23q-80 -31 -80 -95q0 -62 118 -122l241 -111q146 -75 192 -162q7 -15 12 -139q1 -16 3 -28zM356.31 451.902q1.41422 -4.11594 1.68976 -9.90195q-0.623779 13.0991 -1.04022 15.554z
" />
    <glyph glyph-name="T" unicode="T" horiz-adv-x="1100" 
d="M1142 1518l-95 -678l-251 -6q19 -164 66 -489l16 -10l35 16l19 23l-1 -25q-1 -14 9 -38q-5 -19 25.5 -47.5t30.5 -37.5q0 -14 -44 -17q-14 -7 -21 -41q-6 -30 -25 -31l-7 -5l15 -137l-606 4q22 147 40 220q-13 21 -45 41q-43 27 -50 33l21 -2
q3.91025 -0.320526 7.74243 -0.320526q55.9499 0 95.2576 68.3205l94 482l-471 -26l64 662zM1046 1463q-221 -15 -712 -56q-5 -93 -5 -131q0 -27 9 -56q58 49 175 179l11 -3l-158 -189q32 2 93 21t93 22q-28 -21 -82 -37q-69 -20 -86 -27q7 -20 69 -35q3 -3 24 -11
q18 -7 18 -11l-2 -9q-52 21 -160 44q-8 -39 -8 -108q0 -78 -3 -109l-16 10l1 93q0.200012 8.40002 0.200012 16.76q0 33.4399 -3.20001 66.24l-9 3q-53 -54 -164 -157l-11 9q16 23 75 77q51 47 65 78q-24 0 -62 -14q-45 -17 -62 -20l-9 12q23 14 74.5 27.5t74.5 27.5l4 10
q-40 13 -118 43q-2 3 -17 9t-15 10q0 6 4 10q54 -23 168 -54q12.5 58.3334 12.5 119.444q0 12.2222 -0.5 24.5555l-2 56l-218 -15q-7 -242 -7 -341q0 -82 6 -150q14.8 -0.200012 31.76 -0.200012q67.84 0 170.24 3.20001q145 6 201 6l15 -7l-36 -239q-21 -146 -21 -239
q0 -39 18 -83l11 -1q32 0 53 30.5t30 29.5q7 -39 15 -77q14 -42 49 -60q-86 -17 -109 -119q-4 -4 -9 -4q-14 0 -30 23t-33 23q-11 0 -26 -9l-7 -102l396 -25q4 23 4 31q0 23 -18 63.5t-18 62.5q0 8 2 16q-15 37 -62 56q5 13 39 35q30 20 30 39q0 109 -17 278l-28 277l9 9
l241 9l22 13q13 163 30 526zM933 241q-57 21 -139 42q26 -40 139 -42zM543 268q-43 -6.5 -86.25 -6.5t-86.75 6.5l7 -11q26 -20 65 -20q44 0 101 25v6zM703 357q2 -24 -20 -24q-38 0 -38 31q0 26 29 26q26 0 29 -33zM736 166q0 -27 -26 -27q-32 0 -32 38q0 19 24 19
q34 0 34 -30z" />
    <glyph glyph-name="U" unicode="U" horiz-adv-x="1275" 
d="M1241 879q0 -301 -83 -514q10 -37 37 -64q-12 -10 -37 -12q-33 -4 -40 -6q-83 -130 -221 -201q-134 -69 -292 -69q-330 0 -485 293q-19 16 -59 35q-45 20 -61 31q-3 28 38.5 49.5t41.5 43.5q0 45 -5.5 135.5t-5.5 135.5q0 160 36 683l390 73q-18 -209 -18 -316
q0 -148 26 -272q41 -191 130 -191q85 0 134 151q37 112 37 219q0 175 -67 356l443 54q25 -42 45 -295q16 -206 16 -319zM1193 868q0 110 -14 277q-22 253 -23 277l-11 9q-40 0 -350 -39q56 -180 56 -339q0 -138 -38 -252q-53 -161 -163 -161q-220 0 -220 488q0 59 3.5 148.5
t3.5 111.5q0 29 -7 48l-292 -104q-10 -177 -13 -398h89q11 5 31 33l-45 69l14 4l32 -35v23q4.26666 64.5333 4.26666 129.636q0 56.9645 -3.26666 114.364l19 4q4.89999 -31.5 4.89999 -73.78q0 -18.12 -0.899994 -38.22q-3 -115 -3 -112v-52h10q10 7 66 63q50 50 57 50
q6 0 11 -2q-14 -23 -66 -73q-44 -44 -58 -78q6 -12 19 -15q9 -2 26 0q20 4 25 4l2 -9l-58 -15q7 -14 51 -57q38 -38 37 -54l-105 107q-4 1 -10 2q-4.26666 -56 -4.26666 -113.422q0 -50.2444 3.26666 -101.578l-13 -15q-1 75 -17 223q-24 -9 -58.5 -51.5t-63.5 -49.5
q0 -19 -2 -71q-1 -45 -1 -71q0 -79 13 -131q7 -2 10.5 8t10.5 8q23 -69 68 -109l17 -2q24 0 53 27q44 43 45 43q8 -50 10 -54q11 -30 41 -30q17 0 36.5 26t36.5 27q15 -10 15 -28q0 -9 -4 -25t-5 -22l-33 -60q-21 -34 -54 -35q-10 -16 -16 -44q-9 -44 -10 -47
q-17 0 -42.5 37t-59.5 38l-24 -10q39 -96 156 -144q95 -39 216 -39q83 0 226 43q173 52 173 112q0 25 -39 25q-31 0 -69 -29q-7 12 -7 57q0 33 -26.5 54t-26.5 33l1 8l25 -3q83 0 161 102q11 -3 16.5 -36.5t34.5 -33.5q30 0 67 32q59 166 59 397zM1114 339q-94 52 -165 52
l-47 -6q92 0 212 -46zM194 914h-69l-4 -75q55 27 73 75zM399 393q-36 -16 -84 -16q-29 0 -85.5 7.5t-84.5 7.5q-36 0 -65 -8q1.85366 0.0487671 3.78584 0.0487671q37.6776 0 105.214 -18.5488q71 -19.5 106 -19.5q64 0 104 47zM852 471q0 -33 -33 -33t-33 33t33 33t33 -33z
M781 335q-30 -19 -57 -93q-46 33 -83 33t-56.5 -25.5t-23.5 -25.5q-5 0 -10 14q-16 44 -22 55q-14 31 -33 49q79 32 93 153l12 -39q9 -24 28 -24q23 0 48 23q34 31 42 35q4 -69 9 -89q12 -48 53 -66zM482 255q0 -31 -31 -31t-31 31t31 31t31 -31zM722 330q-16 2 -62 13
q-38 8 -61 8q-33 0 -57 -15q19 -1 64 -7q40 -5 63 -5q29 0 53 6z" />
    <glyph glyph-name="V" unicode="V" horiz-adv-x="1260" 
d="M588 246q4 -12 -16 -31q-23 -11 -37 19q0 26 13 31q12 -2 24.5 -4.5t15.5 -14.5zM480 348q-90 19 -116 19q-34 0 -61 -12q5.80002 0.399994 12.3201 0.399994q26.08 0 63.6799 -6.39999q51 -8 72 -8q15 0 29 2v5zM761 183q-10 20 -67 38q-31 -34 -46 -34q-17 0 -22 62
q-5 67 -22 78q-12 8 -31 4q-24 -6 -34 -4q-72.5698 -43.1744 -72.5698 -103.226q0 -5.32097 0.569763 -10.7744q-18 -3 -38 24q-23 32 -36 38q6 -47 46 -153zM799 270q-39 15 -109 59q14 -28 20 -37q14 -20 33 -25q33 -8 56 3zM842 252q-1 -1 -22 -25q-3 -17 3 -31
q21 51 21 46q0 5 -2 10zM1053 362q-54 31 -90 44q18 -24 44 -44q23 -18 46 0zM1254 1418l-365 28q-19 -55 -50 -163q34 -56 70 -100h9q8 41 8 116q0 84 3 114l12 15q6.23077 -32.5385 6.23077 -84.7277q0 -23.1953 -1.23077 -50.2723q-2.27271 -45 -2.27271 -77.3967
q0 -38.876 3.27271 -59.6033q48 18 142 115q21 10 26 2q-22 -27 -65 -64q-63 -53 -70 -60v-9q13.5 -3 31.5 -3t40.5 3q57 7 74 7q8 -12 9 -13q-13 -3 -166 -22q3 -23 32 -58q32 -38.0001 38 -57q-2 -2 -6 -5q-27 34 -87 96q-9 -57 -9 -173v-15q0 -85 -4 -131q-6 -3 -12 0
q-2.77777 25.5557 -2.77777 72.0993q0 37.2344 1.77777 87.9007q1.06665 27.7333 1.06665 51.9822q0 66.6844 -8.06665 107.018q-61 -34 -181 -146l-68 -199l-257 714l-344 -104l238 -803q29 -12 37 -64t43 -60l11.2959 -1.99817q27.0046 0.331512 81.7041 60.9982l14 -59
q11 -34 38 -47q40 -19 54 -19q15 0 24 10q19 16 31 51q15 44 22 54l20 -38q12 -22 29 -30q8 -3 16 -3q16 0 35 15q31 24 33 25q-9.33331 -40.0001 -9.33331 -69.778q0 -14.8888 2.33331 -27.222q9.91046 -45.1476 58.6984 -45.1476q10.2866 0.0580444 22.3016 2.14758
q19 35 16 56q-4 16 -24 26q-28 14.0001 -33 18q13 14 44 40q13 8 27 43q11 31 28 31q6 0 14 -3q101 263 318 903zM899 1108l-109 2l-49 -139zM917 1136l-84 117l-39 -119zM1313 1475l-282 -983q12 -12 13 -11q8 -7 11 -30.5t11 -31.5q24 -36 64 -57q-74 -27 -106 -139
q-3 -2 -6 -2q-7 0 -8 13q-2 17 -4 20q-16 21 -33 15q-21 -46 -49 -170l-578 -32q-29 84 -65 173q-8 61 -40 78q-29 1 -58 19q3 3 39 27q26 17 32 38l-254 1011l460 109l205 -563q49 179 137 534q155 -6 511 -18z" />
    <glyph glyph-name="W" unicode="W" horiz-adv-x="1695" 
d="M1719 1525l-142 -1044q5 -10 31 -9q23 2 23 -13q0 -5 -1 -9q-53 -28 -71 -86q-11 -34 -16 -113.5t-18 -115.5q-195 -40 -578 -126l-131 447q-5 4 -9 5q-4 0 -16 -43q-10 -39 -22 -121q4 -13 29 -17t25 -19q0 -5 -1 -11q-47 -10 -66 -30q-23 -60 -43 -207l-503 -49
q-14 105 -52 314q-13.6956 29.3478 -36.7486 29.3478q-12.2949 0 -27.2514 -8.34784q-7 0 -33 -19.5t-31 -19.5q-2 0 -2 3q0 7 13 31q10 26 44 61q42 45 52 59q-38 314 -137 1011l484 138l114 -547l161 449l232 -455l84 545q216 -8 644 -30zM1557 432q-23 -6 -55 -27
q-44 -28 -51 -32q-18 -10 -68 -16q-45 -5 -59 -17q14 -2 28 -2q102 0 176 65q29 26 29 29zM1652 1425q0 3 -6 20q-142 29 -480 57l-175 -716l-217 586h-9q-53 -226 -172 -674q-2 -3 -3 -3q-2 0 -3 3q-11 33 -80 319q-22 18 -60 18q-12 0 -38.5 -2.5t-40.5 -2.5q-15 0 -28 3
q-5 -2 -12 -9q16 -36 50 -70.5l67 -67.5q30 -16 22 -33q-28 12 -136 124h-10q-5.81818 -34.9091 -5.81818 -88.8595q0 -20.2314 0.818176 -43.1405q2.66666 -66 2.66666 -101.333q0 -17.6667 -0.666656 -27.6667q-11 -11 -13 -11q-12 81 -12 259q-3 6 -9 13
q-77 -61 -131 -139l90 -447q7 -3 14 -3q13 0 31 15q22 20 29 23q5 -31 36 -84q14.7826 -8.69565 28.431 -8.69565q17.7429 0 33.569 14.6956q32 24 51 -6q3.42343 -0.22522 6.81235 -0.22522q71.8453 0 128.188 101.225q13 -9 25.5 -38.5t27.5 -38.5
q10 -4.16666 19.537 -4.16666q24.7963 0 46.463 28.1667q14 39 35.5 119.5t36.5 119.5q27 -38 98 -217q1 -1 9 -12q4 -7 10 -4q49 21 68 81q13 3 22 -12q14 -24 15 -25q15 -10 34 -10q23 0 65 18q12 -7 9 -22q-5 -21 -3 -27q1 -19 40 -46q23.8644 -8.2034 42.1672 -8.2034
q30.782 0 45.8328 23.2034q19 19 32 57q20 53 23 60q14 -5 22 -35q5.42859 -25.7857 29.2755 -25.7857q11.2959 0 26.7245 5.78571q26 7 58 80q11 -2 18 -13q11 -17 13 -18q12 -12 19 2q11 59 164 944zM492 1063q-24 128 -89 417l-353 -87q18 -113 68 -335
q34.2857 -3.85718 61.9592 -3.85718q36.898 0 62.0408 6.85718q-20 31 -75 84q-58 56 -77 83l6 7q33 -22 93 -86t95 -88q4 32.6666 4 76q0 21.6666 -1 46q-5 106 -5 126q2 8 12 15q6 -90 25 -267q37 13 80 66q13 3 16 0q-21 -19 -47 -62q36.1 -9.02502 65.8825 -9.02502
q32.9175 0 58.1175 11.025zM1457 293q-7 9 -20 9q-26 -5 -37.5 -32t-20.5 -52q-12 1 -24 22q-13 25 -22 31q-34.2858 41.1429 -105.306 41.1429q-11.8368 0 -24.6938 -1.14285q-37 -11 -65 -67q-23 16 -75 34q-51 0 -75 -46q-3 -11 -3 -22q0 -27 44 -102q75 6 202 30
q142 26 201 33q11 21 16 59q6 51 9 63zM1132 325q-88 26 -110 26q-16 0 -30 -4q21 0 56.5 -14.5t53.5 -14.5q15 0 30 7zM284 1021q-24.2667 13.0667 -70.3111 13.0667q-3.28889 0 -6.68889 -0.0666504q-84 -1 -80 -1q-4 -4 -7 -2q10 -77 10 -78q8 -44 23 -68l71 64
q41 38 60 72zM740 266q-29 0 -86 18q-54 17.0526 -85.5623 17.0526q-1.75348 0 -3.43768 -0.0526428q106 -45 131 -45q23 0 44 10zM658 189q-3 10 -38 19q-22 3 -44 -21q-27 -28 -37 -31q-10 18 -15 64t-18 66q-15 40 -59 40q-20 0 -34 -13
q-54.7206 -30.5 -54.7206 -87.5556q0 -6.54736 0.720581 -13.4444q-8 -16 -16 -16q-7 0 -23.5 23t-30.5 23q-8 0 -16 -6q2 -67 37 -204q108 19 319 68q16 31 29 89zM335 309q-18 2 -68 18q-43 14 -69 14q-22 0 -42 -7q3.95454 0.409088 8.29028 0.409088
q27.4597 0 70.2097 -16.4091q49.5 -19 67.5 -19t33 10zM1234 424q-2 -16 -22 -25q-11 -4 -27 21q0 18 31 28q11 0 18 -24zM459 240q0.78125 -5.78125 0.78125 -10.6836q0 -26.4727 -22.7812 -27.3164q-0.939392 -0.030304 -1.85031 -0.030304q-29.1497 0 -29.1497 31.0303
q2 19 19 25q24 -5 34 -18z" />
    <glyph glyph-name="X" unicode="X" horiz-adv-x="1570" 
d="M500 238q4 -13 -4.5 -25t-20.5 -13q-20 -4 -31 31q-3 26 27 26q24 0 29 -19zM1301 322q3 -24 -15 -31q-33 0 -36 16q-3 28 24 34q27 -10 27 -19zM444 353q-32 -16 -74 -16q-18 0 -54.5 3.5t-53.5 3.5q-34 0 -60 -9q33 -3 93 -22q25 -7 50 -7q62 0 99 38v9zM754 303
q-11 -2 -25 -2q-16 0 -51 4t-52 4q-32 0 -55 -10q10.8 3.20001 24 3.20001q19.8 0 45 -7.20001q49 -14 63 -14q28 0 51 22zM832 352q-1 1 -15 45q-10 35 -21 35q-10 0 -21 -31q-8.69562 -18.6956 -8.69562 -32.0983q0 -17.4234 14.6956 -25.9017q16 -15 51 9zM1172 369
q-18 0 -58 6t-58 6q-36.9999 0 -60 -17q22 2 60 -4q44 -6 60 -6q33 0 56 15zM493 1173q-134 0 -186 -8q8 -36 62 -124q6 -4 15 -4l109 121q4 12 0 15zM1417 1432q-212 51 -407 81q-1 -5 -9 -3l-211 -428q-1 -3 -9 -2q-18 34 -62 99q-38.5712 1.14282 -68.8159 1.14282
q-75.6125 0 -99.1841 -7.14282v-9l195 -171q6 -3 9 -11q3 -10 -6 -13q-105 90 -198 160q-7 -31 -7 -66q0 -27 8 -97q5.81818 -45.0909 5.81818 -79.0743q0 -12.7438 -0.818176 -23.9257q-3 -7 -13 -12q-4 100 -26 294q-29 -18 -64 -61q-44 -55 -58 -68q-3 -3 -3 -22l62 -113
q36 -67 49 -117l-193 -312l-10 -20q-5 -12 4 -20q14 -3 27 12l20 24q10 -23 49 -58q17.6842 -6.73685 37.3185 -6.73685q26.9972 0 57.6815 12.7368q5 -7 5 -15q0 -9 -9 -29.5t-8 -32.5q-2 -5 -9 -13q-23 -1 -53 -30.5t-39 -53.5q-2 -3 -1 -26q1 -15 -11 -15l-8 2
q-28 53 -87 71q-7 2 -15 2q-21 0 -49 -29.5t-47 -29.5q-6 0 -13 2q-8 -16 -15 -56l334 -149l107 199q-1 27 -14 48q-27.9509 47.7869 -60.7794 47.7869q-3.58127 -0.0983582 -7.22061 -0.786896q22 22 62 71q11 27 42 71q4 -4 28 -35q17 -22 34 -22q5 0 11 1q14 1 56 53
q27 13 52 52l41 65q12 -20 77 -164q42 15 75 111q15 -1 29 -24q16 -26 30 -32q14 -13 27 -13q17 0 42.5 23t35.5 23q16 0 28 -37q18.1035 -21.5517 56.2723 -21.5517q6.10706 0 12.7277 0.551727q7 -1 23.5 8.5q16.5 9.49997 22.5 9.5q11 0 15 -18q-4 -15 -46 -38
q-32 -11 -47 -45q-2 -5 -19 -63q-30 16 -96 34q-34 -5 -84 -73q-14 29 -29 57q-19 34 -48 36q6 -22 114 -279q5 -3 9 0q112 87 324 271q-7 5 -20 18q-3 110 -108 165q3 4 24 16q15 8 11 25q-77 102 -220 260v15zM1423 359q-14 25 -25 4q0 -4 -3.5 -14.5t-2.5 -14.5
q0 -6 9 -6q1 2 14 14q9 9 8 17zM642 1330q-50 95 -158 277q-102 -70 -295 -225q12 -47 96 -186q20.6667 -4 50.6667 -4q15 0 32.3333 1q42.6667 2.66663 65.7778 2.66663q11.5555 0 18.2222 -0.666626q1 2 8 4t5 8q-29 27 -77 82q2 1 6 6q20 -9 58 -45.5t62 -45.5q2 22 2 47
q0 39 -8 115q-7.99997 76 -9 115q4 2 10 9q18 -42 19.5 -135t16.5 -133q70 51 97 108zM700 1219q-11 27 -43 75q-57 -24 -86 -92q29.647 -4.76477 59.5743 -4.76477q26.6021 0 53.4257 3.76477q8 -3 13.5 4t2.5 14zM1494 487q-66 18 -88 18t-38 -9
q4.33337 0.666656 9.36108 0.666656q25.1389 0 67.6389 -16.6667q43 -7 49 7zM1563 480q-27 -16 -61 -56l38 -90q-181 -141 -552 -401q-30 66 -71 190q-45 136 -67 191q-8 3 -14 3q-12 0 -57 -45q-11.9189 -22.1351 -11.9189 -49.1022q0 -20.5464 6.91895 -43.8978
q-18 -3 -38 21.5t-39 25.5q-19 -5 -27 -29l-165 -318l-505 283l115 163q0 16 -17 22q-12 5 -25 9q106 41 208 178q156.46 209.933 169.752 223.747q-1.17938 0.56427 -4.75214 28.253l-383 592q1 10 12 18l19 13q144 102 441 291q0.599976 0.0999756 1.18994 0.0999756
q5.31006 0 9.81006 -8.09998q5 -9 7 -10l212 -516q8 -10 16 -11l140 407q115 -7 311 -31q244 -30 309 -35q3 -4 -2 -12.5t-5 -12.5q-119 -207 -407 -672l257 -242q13.3611 -4.69446 31.4166 -4.69446q31.9445 0 78.5834 14.6945q19 -32 69 -87z" />
    <glyph glyph-name="Y" unicode="Y" horiz-adv-x="1265" 
d="M1349 1583l-282 -1214q1 -11 10 -9q19 5 15 5q3 2 16 22q10 14 19 14q3 0 5 -1q11 -35 25 -106q-6 -2 -13 -2q-10 0 -32 8t-35 8q-12 0 -22 -5q-21 -92 -76 -268q-138 9 -339 36l-336 43q27 57 76 175q0 25 -30.5 50.5t-31.5 42.5q78 0 114 29q82 158 113 263
q-150 154 -539 484q-1 2 -3 7.5t-3 7.5l377 366q3 -3 11 -4l315 -441q12 -5 20 13q8 84 9 206q0 103 1 205q0 2 27 13l553 101q11 -5 19 -22q11 -22 17 -27zM1297 1521q5.14282 18.4286 5.14282 29.5103q0 14.7755 -9.14282 16.4897l-474 -126q-20 -52 -22 -136
q23 -13 67.5 -54.5t68.5 -54.5q-4 134 -19 226q-2 8 4 13q7 4 12 -4q8 -36 17 -112.5t17 -113.5h9q40 64 134 182l4 -12q-31 -57 -122 -189q-4 -20 -3 -21q60 4 133 21q8 -13 9 -12q-13 -5 -71 -17q-43 -9 -62 -26l145 -149q-6 -7 -10 -9q-49 48 -148 136q-5 -4 -9 -9
q1 -18 37 -301q-5 -4 -9 -4q-5 0 -11 8q-26 145 -35 281l-6 18.5t-13 6.5q-37 -43 -100 -133q-7 -3 -13 -14.5t-12 -11.5q-3 0 -6 2q11 34 51 85q42 55 55 85q-13 4 -28 4q-19 0 -52 -8q-40 -10 -53 -11l-9 9q23 15 65 21q35 5 71 9q8 2 19 13q-18 29 -57 65q-61 57 -64 59
q-13 4 -15 0q-18 -87 -60 -256q-112 146 -345 428q-56 -48 -127 -132q-92 -109 -119 -137q-3.57143 -5 -3.57143 -12.0408q0 -2.81628 0.571426 -5.95923l442 -488q-21 -62 -54 -190q17 -2 16 -28q-1 -34 2 -39q7 -16 13 -32q10 -19 28 -18q17 0 36.5 20.5t25.5 22.5
q2 -37 6 -54q7 -30 28 -42q36 16 61 60l38 76q4 -8 12 -22q23.0944 -49.0755 79.5229 -49.0755q2.21289 0 4.47705 0.07547q25 1 51 23l42 41q7 -5 10 -29q2 -20 18 -20zM937 316q-112 19 -126 19q-40 0 -70 -16q1 -5 10 -9q20.7692 6.23077 56.8757 6.23077
q16.0474 0 35.1243 -1.23077q29.7778 -1.77777 51.6543 -1.77777q27.3457 0 42.3457 2.77777zM946 223q-17 34 -50 34q-29 0 -47 -31q-14 -15 -10 -42l8 -44q11 -3 71 -3q8 10 28 86zM813 146l-53 90q-34 56 -79 56q-16 0 -33 -6q-28 -5 -51 -40q-28 -45 -38 -53
q0 4 -5.5 8.5t-3.5 9.5q-18.375 42.875 -48.2344 42.875q-4.26562 0 -8.76562 -0.875q-40 -23 -52 -62q-2 -7 -14.5 -16t-10.5 -19q130 -7 393 -16q4 3 4 6zM584 311q-27 9 -60 22q-59.4595 16.8919 -91.9832 16.8919q-15.6114 0 -25.0168 -3.89191q28 -1 79.5 -19t77.5 -18
q10 0 20 2zM714 217q0 -20 -20 -27q-31 0 -36 12q-0.799988 3.8 -0.799988 7.32001q0 14.08 12.8 23.68q4.63635 0.409088 8.82642 0.409088q26.5372 0 35.1736 -16.4091z" />
    <glyph glyph-name="Z" unicode="Z" horiz-adv-x="1415" 
d="M518 425q3 -26 -27 -31q-26 0 -31 26q-2 25 25 33q30 0 33 -28zM431 323q-66.1927 82.9879 -196.805 82.9879q-1.59282 0.0120544 -3.19522 0.0120544q-70 0 -85 -21l58 2q16 0.666687 30.4444 0.666687q28.8889 0 51.5556 -2.66669q48 -5 77 -21q22 -15 68 -41z
M1173 319q-36 -10 -82 -66l-41 41q-27 21 -54 19q-0.611084 0.0246887 -1.22083 0.0246887q-32.3162 0.327148 -60.7792 -34.0247q-42 -53 -47 -56q-4 8 -4 19q0 9 4.5 28t4.5 28q0 8 -2 15q-10 30 -22 28q-8 -18 -5 -50q4 -38 2 -49q-11 0 -36 16.5t-41 14.5
q-33 -3 -69 -52l-9 12q-20 34 -49 37q-4.4906 0.469604 -8.84161 0.469604q-45.0641 0.303986 -75.1584 -43.4696q-10 -1 -12 16q-2 10 -1 24q-6 41 -29 41q-10 0 -38 -13.5t-42 -13.5t-23 9q-34.9119 -11.5517 -34.9119 -42.0819q-0.0766296 -9.11348 2.91187 -19.9181
q-15 -16 -22 -9q-22 33 -30 42q-18 21 -40 29q-15 7 -28 7q-25 0 -53 -32q-34 -38 -50 -46q-2 -10 -16 -30.5t-14 -31.5q0 -6 3 -12q328 7 981 43q34 78 42 131zM825 360q-31 -11 -96 -25q-21 -1 -56 4q-42 6 -54 6q-20 0 -35 -7q19 -1 72 -12q47 -9 73 -9q41 0 72 18
q7 5 15.5 10.5q8.5 5.50003 8.5 14.5zM1162 346q-44 3 -126 22q-33.5 7 -53.5 7t-26.5 -7q14 -2 129 -34q21 -2 42 -5q26 0 35 17zM589 1159q-10 17 -16 16q-26 -19 -77 -62q-12 -9 -18 0q14 21 41 42q45 36 48 39v9q-24 5.81824 -58.5785 5.81824
q-12.9669 0 -27.4215 -0.818237q-86 -4 -87 -4q-12 -27 -15 -73q-5 -75 -5 -76q5 -6 11 -10l97 -10q29.5 -3 53.75 -3t43.25 3q6 83 10 124zM1382 1489q-130 0 -367 -18q-276 -21 -364 -24q-8 -2 -22 -12q-2 -56 -15 -164q10 -27 15 -27q3 0 6 2q60 43 180 136q18 7 22 2
q-25 -26 -89 -74q-65 -48 -91 -74q6 -17 37 -17l47 2h44q28 1 39 -12q-16.6154 -6.23071 -47.1304 -6.23071q-13.5621 0 -29.8696 1.23071q-13.2499 1 -24.7498 1q-34.5001 0 -53.2502 -9q17 -31 54 -73q59 -67 59.5 -68.5q0.500061 -1.5 6.5 -15.5q-4 -3 -8 -7
q-33 26 -76 81q-49 64 -72 86q-11 1 -20 0q-1 -15 -12 -133q-0.30188 -3.24524 -0.30188 -6.25708q0 -36.8938 45.3019 -38.7429q62 -4 73 -17q-264 -317 -402 -563q2 -2 7 -5q35 0 75 55q24 20 33 0q1 -41 1 -82q5 -47 32 -70q50 17 87 82l60 107q2 -27 15 -77
q7 -41 39 -41q5 0 11 3q36 18 36 42q12 17 18 17q5 0 9.5 -31t19.5 -35q2.625 -0.28125 5.33789 -0.28125q26.2246 0 60.6621 26.2812q52 40 62 45q7 -8 7 -19q0 -9 -7.5 -28.5t-7.5 -29.5q0 -5 1 -10q44 24 80 115q5 7 9 7t9 -23t13 -28q43 -13 57 -3q12 3 28 23.5t27 20.5
q6 0 12 -4q0 -6 -3 -38q-2 -24 1 -38q3 -21 15 -35q24 -8.88889 41.4814 -8.88889q21.8518 0 33.5186 13.8889q10 12 6 31q-5 27 -4 35q48 38 65 161q-72 0 -265 -17q-141.667 -12.5 -231.944 -12.5q-18.0555 0 -34.0555 0.5q-6 2 -4 5l646 872v22zM608 1422q-1 7 -9 16
q-14.7695 0.307739 -29.2551 0.307739q-79.6683 0 -150.745 -9.30774l-9 -9q0 -7 -10 -94q-4 -38.6666 -4 -68q0 -14.6666 1 -27q6 -2 164 -6q5 -2 10 -2q22 0 22 21q0 6 -4 12q-42 50 -117 155q4 0 9 5q28 -31 59 -71l26 -31.5q13 -16.5 30 -17.5zM1448 1522
q1.89478 -2.84216 1.89478 -6.28259q0 -7.45435 -8.89478 -17.7174l-553 -842q10 -6 12 -5q155 31 468 76q-9 -49 -34.5 -145t-34.5 -146q0 -10 11 -10q9 1 15.5 6t21.5 25q12 17 22 17q7 0 14 -5l-25 -179q-3 -1 -8 -1q-12 0 -33 16.5t-34 16.5q-5 0 -9 -1
q-19 -38 -39 -114q-20 -80 -36 -114q-2 -3 -43 -7q-386 1 -1156 10q13 49 68 126q60 84 76 124q-24.8837 30.1369 -60.0875 30.1369q-7.23814 0.0568542 -14.9125 -1.13693q29 16 84 55q71 58 84 108q7 -1 9 -24q1 -11 9 -13q49 53 186 229q112 144 194 221q0 26 -18 16
q-111 -8 -326 -8q-8 22 0 44l97 519q172 5 437 5t623 -5z" />
    <glyph glyph-name="underscore" unicode="_" horiz-adv-x="1024" 
d="M1024 -164h-1024v111h1024v-111z" />
    <glyph glyph-name="a" unicode="a" horiz-adv-x="1175" 
d="M407 139q2 6 2 12q0 17.9717 -17.5 32q-17.5674 14.083 -37.8027 13.999q-34.8428 -0.166016 -68.1973 -38.499q-33.5 -38.5 -43.5 -38.5q-1 0 -16 52q-3 32 -53 32q-30 0 -41 -34l-39 -123l280 -1zM401 262q-19 -6 -38 -6q-27 0 -77 17.5t-76 17.5q-23 0 -45 -10
q26 -2 84 -22q55 -19 85 -19q37 0 67 22zM784 159q-13.127 26.2549 -34.8467 26.2549q-9.7168 0 -21.1533 -5.25488q-21 -3 -24 -27l-4 -37q0 -33 26 -22q64 16 64 42q0 10 -6 23zM654 333q0 10 1 20q-1 11 -13 11q-38 -6 -106 -34q66 -18 74 -18q28 0 44 21zM927 146
q-3 16 -44 13q-3 -3 -21 -14q-13 -7 -10 -17q43 2 75 18zM936 202q-2 0 -3 3.5t-3 2.5q-48 29 -129 39q-136 17 -137 17q38 -30 133 -35q105 -6 139 -27zM1036 190q10 13 10 33q0 21 -26 87q-21.5645 -24.5381 -21.5645 -61.7939q0 -12.8467 2.56445 -27.2061q11 -31 35 -31
zM652 593l-46 235l-62 -250zM1008 347q-20 204 -136 642q-54.8887 25.0371 -80.1045 25.0371q-0.969727 0 -1.89551 -0.0371094q-1 -12 14.5 -29t15.5 -25q0 -6 -3 -11q-15 5 -35 29.5t-36 28.5q-9.59961 -41.5996 -9.59961 -108.8q0 -16.7998 0.599609 -35.2002
q1.77734 -54.5225 1.77734 -84.1484q0 -42.9629 -2.77734 -61.8516q-11 0 -13 3l-11 281l-73 -56l119 -383q-44 -17 -127 -28l-131 -18q-11 -1 -16 6q41 174 107 523q-4 3 -35 9q-22 5 -20 20q23 -1 68 -9.5t69 -8.5q14 0 27 2q-10 24 -42 60q-39 43 -48 58q-4 8 4 22
q44 -30 86 -94q4 -2 9 0q7 38 7 99v103q2 8 13 15q10.083 -38.5 10.083 -102.209q0 -5.79102 -0.0830078 -11.791q-2 -106 -2 -116q2 -1 4 -8t8 -5q27 21 81 84l-70 260l-258 -73l-291 -922q-5 -30 -5 -47.75t5 -23.25q8 -3 17 -3q45 0 101 76l40 -76q27 -43 65 -53
q18 17 29 60q12 47 25 63q22.667 2.33301 52.8887 2.33301q60.4443 0 151.111 -9.33301q6 -5 6 -20t6 -20q13 14 20 14t14.5 -27t21.5 -31q29.2158 -14.2969 49.5449 -14.2969q12.374 0 21.4551 5.29688q26 6 50 53q12 16 16 16t5 -37t19 -41
q9.2002 -2.2002 18.2002 -2.2002q36 0 68.7998 35.2002zM700 1024l-84 17l20 -75zM861 1033l-24 87q-55 -26 -75 -69q47.6426 -18.8926 83.8145 -18.8926q7.86426 0 15.1855 0.892578zM1159 136l-524 -144l6 226q-13 42 -61 59q-34 13 -55 10q-40 -83 -89 -285l-436 16
q32 91 91 276q1 3 1 5q0 9 -16 24.5t-16 18.5q0 6 18 5q4 0 10 -6.5t12 -3.5q9 9 34 81l350 999l303 59l127 -447q37 -16 15 -47q54 -205 169 -610q22 -8 28 -42q8 -41 18 -52q2 -3 15 -17.5t13 -21.5q0 -9 -16 -13q-13 -11 -13 -28q0 -11 7 -31q8 -24 9 -31z" />
    <glyph glyph-name="b" unicode="b" horiz-adv-x="1075" 
d="M1035 251q0.293945 -3.4707 0.293945 -6.85449q0 -54.1455 -75.2939 -86.1455q-4 2 -8 2q-9 0 -24 -11.5t-21 -11.5q-10 0 -18 19q-164 -145 -443 -145q-191 0 -397 38q3 100 3 140q0 74 -52 96q24 20 47 55q0.363281 31.6367 0.363281 68.248
q0 164.752 -7.36328 430.252q-6.75 243.375 -6.75 398.719q0 51.7812 0.75 93.7812q264 93 423 93q145 0 246 -80q107.036 -84.4502 107.036 -220.973q0 -2.50488 -0.0361328 -5.02734q-1 -126 -99 -234q-5 -6 -102 -87q0 -8 3 -9q176 -43 237 -72q128 -61 162 -177
q11 -35 11 -75q0 -21 -27 -173q3 -14 23 -16.5t20 -11.5q0 -5 -3 -12zM467 1055q0 12 -18 15q-13 3 -37 0q-28 -3 -29 -3q-30 0 -34 -28v-52q0 -14 1.5 -28.5t13.5 -15.5q103 53 103 112zM301 1074q-42 0 -44 -4q0 -20 43 -73zM936 512q-29 135 -177 193q-26 10 -271 65
l181 151q97 99 98 207q0.0439453 2.57129 0.0439453 5.12109q0 113.439 -87.0439 182.879q-81 66 -203 66q-173 0 -368 -90v-217q33 0 88 14q-1 19 -24.5 51t-21.5 52q17 -6 32.5 -31.5t32.5 -31.5q11 33 16 89q8 80 9 91q12 15 13 15q4 -18 4 -39t-4.5 -62.5t-4.5 -61.5
q0 -14 1 -25q3 2 100 121l21 26q12 16 25 14q-15 -39 -64 -99q-54 -66 -69 -96q13 -7 40 -7q0 19 17.5 29t37.5 5q59 -3 77 -8q41 -10 60 -41q11 -18 10 -43q-2 -53 -79 -106q-66 -44 -127 -56v94l-30 38q-19 23 -37 27q-13 -51 -21 -132q-15 -134 -15 -135q-2 -3 -9 -9
q-2 18 -2 38q0 38 11 107q13 74 14 106l-1 27q-36 -29 -99 -117q-1 -163 -10 -480q9 -13 24 -66q12 -42 37 -58q13.2969 -3.8916 26.1738 -3.8916q26.8262 0 51.8262 16.8916q10 1 23.5 19t25.5 14q0 -20 1.5 -41t13.5 -34q18 -12 43 -12q34 0 76 22q-11 -19 -28 -59
q-2.63086 -17.4561 -2.63086 -32.2256q0 -46.9922 26.6309 -66.7744q-24.75 6.75 -69.75 6.75q-15 0 -32.25 -0.75q-19 -7 -38 -15q-23 -10 -24 -31q63.2002 -19.2002 132.8 -19.2002q17.4004 0 35.2002 1.2002q7.71387 -0.571289 17.5508 -0.571289
q24.5918 0 62.4492 3.57129q22 4 22 23q0 8 -4 20q-4 35 -46 48q-50 15 -62 35q-7 34 0 41q7 5 22 -10q7 -2 15 -2q40 0 82 46l62 74q9 -12 9 -27q0 -10 -5.5 -29t-5.5 -28q0 -16 13 -28q12 -4 23 -4q46 0 114 78q16 -4 16 -23q0 -5 -2 -18t-2 -19q0 -21 15 -30q21 -4 46 4
q21 7 42 15q80.8262 81.7344 80.8262 231.925q0 15.1875 -0.826172 31.0752zM179 1059q-24 -2 -71 -8l2 -83q19 10 38 33q15 20 31 39q8 10 0 19zM946 214q-38 0 -117.5 -28.5t-122.5 -28.5q-18 0 -71 14.5t-64 14.5q61 -44 130 -44q56 0 126 25zM334 183q-131 32 -236 91
q108 -93 182 -93q46 0 54 2zM205 107q-9 33 -57 44q-34 -23 -31 -37q39.7822 -9.78223 65.1035 -9.78223q13.5049 0 22.8965 2.78223zM530 429q-95 -40 -180 -40l14 264q23 19 85 19q200.005 0 200.005 -117.824q-0.429688 -75.458 -119.005 -125.176zM499 302
q0 -26 -26 -26t-26 26t26 26t26 -26zM602 557q0 61.0615 -99.5771 61.0615q-3.16113 0 -6.42285 -0.0615234q-33 -1 -78 -12l-12 -155h24q48 0 106 29q66 34 66 77z" />
    <glyph glyph-name="c" unicode="c" horiz-adv-x="1120" 
d="M1093 338q-18 -7 -37 -36t-34 -36l-2 -13q0 -14 8.5 -40t8.5 -39q0 -14 -7 -26q-196 -127 -434 -127q-364 0 -537 331l-50 -15q10 20 31 59q-41 111 -41 234q0 329 248 570t580 241q139 0 198 -19q-10 -186 -55 -495q-61 28 -132 28q-119 0 -233 -76q-128 -84 -128 -197
q0 -79 55.5 -133t135.5 -54q83 0 148 41l123 81l19 -95q16.1504 -72.2002 32.2998 -72.2002l1.7002 0.200195l30 6l44 24q-3 -18 -3 -37q0 -61 30 -105zM960 1354l-7 16q-51 5 -101 5q-199 0 -361 -79q-9 -86 -9 -135q0 -33 4 -60q20 6 69 42q45 32 61 32q5 0 9 -3
q-19 -22 -55 -46q-59 -40 -60 -40l3 -18q36 -3 99 -29q-17 -8 -42 -5q-40 5 -42 5h-12q5 -26 40 -71v-28l-65 86h-12q-17 -70 -23 -226h7q56 115 155 170q65 36 169 54q99 17 117 30q23 99 56 300zM467 1247q0 30 -19 30q-10 0 -71 -45q27 -71 74 -109q16 37 16 124z
M911 454q0 24 -22 33l-117 -50q-4 -21 -4 -46q0 -100 84 -100q33 0 50 22q-2 24 -31 40q-35 19 -41 32q20 5 50.5 28.5t30.5 40.5zM981 233q0 44 -17 44l-29 -26q-4 17 -28 37q-13 -14 -67 -32q-46 -16 -53 -41q-13 -46 -20 -46t-33 31.5t-43 31.5q-48 0 -94 -51q-5 6 -5 55
q0 26 -26 48l-46 34q82 45 103 123l-94 59q-91 69 -91 178q0 13 5.5 36.5t5.5 36.5q0 20 -17 34l-1 23q10 69 17 209v16h-19q-37 -26 -114 -68l-7 6q14 19 53 43t52 43q-14 10 -77 21q-56 10 -62 24l24 2q2.63184 0.210938 5.58398 0.210938q25.1006 0 73.416 -15.2109
q8 0 22.5 -3t21.5 -3q11 0 18 9q-27 43 -93 118q-8 -4 -41 -29q-24 -17 -40 -17q-2 -2 4 -7q-232 -235 -232 -521q0 -101 34 -197q12 4 44 26q27 20 45 20q28 0 17 -31q11 -37 38 -37q51 0 86 59q13 -23 27.5 -46t48.5 -23q10 0 91 28q-12 -21 -12 -46q0 -28 30 -102
q-5 -7 -28 -3q-32 6 -33 6q-99 0 -131 -71l-10 9q0.291016 4.07227 0.291016 7.84961q0 48.1504 -47.291 48.1504q-27 0 -54 -25q37 -82 173 -131q112 -41 223 -41q236 0 400 130q2 5 2 16zM741 437h-84l-1 -13q-1 -26 19 -36q65 3 66 49zM798 267l-2 10
q-1.17676 -0.0390625 -2.38867 -0.0390625q-29.6895 0 -80.6113 23.5391t-79.6885 23.5391q-1.17383 0 -2.31152 -0.0390625h-12l-3 -7q23 -4 75 -31q46 -25 76 -25zM387 345q-40 14 -96 14q-16 0 -80 -2q-24 -1 -44 -1t-36 1q35 -18 87 -18l85 4q12.75 0.5 24.375 0.5
q34.875 0 59.625 -4.5v6zM559 387q0 -27 -27 -27t-27 27t27 27t27 -27z" />
    <glyph glyph-name="d" unicode="d" horiz-adv-x="1250" 
d="M1251 784q0 -141 -48 -244q-2 -5 -123 -212q12 -14 34 -14q16 0 37 9q20 9 21 9q0 -8 -3.5 -32.5t-3.5 -30.5q0 -11 15 -33.5t15 -33.5q-81 0 -131 -63l-20 25q-11 13 -28 13q-6 0 -72 -34q-6 7 -4 23q4 26 4 24q0 10 -9 10q-44 0 -44 -42q0 -9 22 -55q-76 22 -90 22
q-50 0 -96 -52q-5 7 -14 7q-14 0 -26 -5q-202 -76 -403 -76q-109 0 -227 16l-5 243q-11 24 -52 69l34 4t19 22l14 1040q110 62 349 62q341 0 573 -163q262 -185 262 -508zM1210 784q0 286 -235 453q-202.885 144.23 -484.356 144.23q-11.2588 0 -22.6436 -0.230469l-51 -2
q-16 2 -40 -15q0 -19 -3.5 -59.5t-3.5 -60.5q0 -29 7 -55q31 17 81.5 65.5t79.5 66.5l3 -13l-149 -135v-15q47.667 -11.2666 108.854 -11.2666q9.41309 0 19.1465 0.266602l11 -12q-18 -7 -57.5 -6.5t-57.5 -5.5q5 -7 70 -67q54 -52 54 -62q0 -4 -3 -7q-52 50 -167 136
q-9 -46 -11 -119q-4 -101 -5 -120q-1 -2 -3 -27q-1 -20 -7 -20q-3 0 -11 11q0 30 3 97q4 64 4 97q0 38 -4 69q-33 -13 -74 -52q-55 -53 -68 -62l-13 2q45 39 124 128q-27 8 -80 10q-57 3 -81 8l4 9q-2 0 123 0q29 0 53 6q-9 20 -37 49.5t-37 46.5l3 4q25 -26 81 -69l9 7
q7 34 7 83q0 35 -4 87l-22 1q-4.70605 0.235352 -9.82715 0.235352q-38.4082 0 -100.173 -13.2354q-84 -18 -91 -43q5 -92 9 -432q3 -269 23 -430q1 -8 3 -8q8 0 19 12q8 -7 24 -51q11 -30 49 -30q33 0 85 45q0 -1 16 -67q10 -41 52 -41q31 0 48 34.5t42 34.5q41 0 41 -39
q0 -34.3057 -46.9082 -34.3057q-9.15332 0 -20.0918 1.30566q-3 -25 19 -42.5t48 -17.5q63 0 101 51l65 88q8 -29 17 -58q11 -36 41 -36q12 0 31 9.5t28 11.5q2 -12 -1 -31q-3 -24 -3 -31l1 -9l22 -20h9q1.08105 -0.0273438 2.16504 -0.0273438q39.0244 0 81.835 35.0273
l-6 31l80 55q5 4 37 40q23 27 41 28q129 136 129 372zM1139 236l-70 29q-48 19 -69 19q-1 0 -3 -2q0 -8 81 -48q15 -4 44 -8zM821 162q-64 55 -176 73l85 -45q54 -28 91 -28zM506 345q0 12 -12 12t-12 -12t12 -12t12 12zM677 126q0 9 -9 9h-3l-24 -20q2 -5 9 -5t15 5
q12 -2 12 11zM390 268q-22 3 -101 3q-26 0 -70 19t-71 19q-12 0 -15 -6q62 -54 159 -54q54 0 98 19zM610 155q0 23 -15 48q-17 29 -37 29q-16 0 -16.5 -16t-8.5 -17q-40 10 -77 10q-113 0 -153 -62q-22 -33 -26 -33q-7 0 -20.5 39t-33.5 41q-15 6 -31 7l-28 -16v-120
q87 -17 158 -17q144 0 275 45q13 40 13 62zM736 712q0 -107 -85.5 -193.5t-189.5 -86.5v15q0 91 -14 472q33 8 66 8q97 0 160 -59.5t63 -155.5zM704 706q0 64 -41.5 104t-106.5 40q-23 0 -44 -6q0 -182 27 -348q68 0 119 73q46 65 46 137z" />
    <glyph glyph-name="e" unicode="e" horiz-adv-x="975" 
d="M957 1527q-23 -339 -52 -527q1 -3 -2 -6q-350 16 -365 16l-9 -9q0 -19 -8 -64q-4 -25.333 -4 -46.2227q0 -10.4443 1 -19.7773q3 -3 10 -9q70 15 213 33q6.125 -215.25 6.125 -259.766q0 -6.35938 -0.125 -9.23438q-5 -3 -13 -10q-212.444 7.11133 -255.013 7.11133
q-5.32031 0 -7.9873 -0.111328q-15.7207 -12.6973 -15.7207 -44.7725q0 -20.9717 6.7207 -50.2275q3 -1 9 -7q70 18 207.5 61.5t207.5 61.5q6 2 6.5 -3t2.5 -6q-16.4092 -157.182 -16.4092 -253.948q0 -15.2793 0.40918 -29.0518q10 -6 23 1q17 9 21 10q-23 -49 -23 -94
q0 -42 23 -71q-3 -15 -32 -23t-34 -26q-3 -27 -5 -53q-5 -31 -32 -27q-245 -20 -738 -51q-13.0664 38.2666 -13.0664 101.796q0 4.53711 0.0664062 9.2041q0.666992 28.667 0.666992 50.667q0 44 -2.66699 61.333q-18 23 -52 3q-13 -6 -15 -3q2 25 37 42.5t35 39.5
q0 5 -1 11q0 203 7.5 575t7.5 571q314 26 871 47zM437 1407q4 8 4 14q0 18 -28 18q-29 0 -42 -13q0 3 -1 -56q-1 -36 16 -49q16 29 51 86zM873 1421q0.125 2.75 0.125 5.26562q0 17.6094 -6.125 23.7344q-22.333 1 -51.2227 1q-57.7773 0 -141.777 -4
q-106.556 -5.44434 -165.321 -5.44434q-16.79 0 -29.6787 0.444336q-54 -71 -74 -155q52 -4 149 -10q-10 -14 -42 -13q-53 0 -49 1q-41 0 -52 -13l133 -129l-3 -4q-28 13 -77.5 60.5t-77.5 60.5l-9 -9q-7.11133 -164.444 -7.11133 -200.099q0 -4.45703 0.111328 -6.90137
q-2 -5 -9 -13q-6.23047 17.3076 -6.23047 47.5566q0 13.4434 1.23047 29.4434q1.77734 25.333 1.77734 44.3457q0 23.7656 -2.77734 37.6543q-4 -2 -16 0q-25 -56 -84 -165l-3 3t-2 3q11 40 44 103q38 73 49 102q21 31 6 47q-8.42871 -0.142578 -18.041 -0.142578
q-57.6729 0 -157.959 5.14258q-4 2 3 13q12.75 -0.75 28.375 -0.75q46.875 0 119.625 6.75q-14 25 -56 59q-46 38 -61 59q1 2 13 2l111 -93q7 -6 15 -3q9 2 9 13q-3 12 -2 57q1 37 -13 52q-19 4 -39 4q-19 0 -54.5 -5t-55.5 -5q-16 0 -30 3q-10 -3 -22 -16q9 -339 34 -1013
q-2 -11 9 -12q10 -1 13 9q14 37 22 37q4 0 19 -41.5t40 -41.5q6 0 12 2q32 4 84 50q10 -7 10 -24q-1 -27 -1 -29q14 -43 55 -43q12 0 39.5 5t40.5 5q28 0 44 -16q-18 -61 -112.5 -90.5t-107.5 -92.5q-10 -15 -18 -15t-24.5 30t-34.5 32q-9.90039 3.59961 -19.9805 3.59961
q-23.5195 0 -48.0195 -19.5996q-16.5684 -20.8633 -16.5684 -42.8564q0 -13.8477 6.56836 -28.1436q47 2 275 24q26 -5 29 31q9 40 43 34q29 -3 52 -50q30 -1 60 9q3 35 -50 75q-13 7 -26 7q-17 0 -46 -18t-46 -19q-7 7 -6 9q112 29 146 145q7 26 14 26q3 0 16.5 -25
t29.5 -25q7 0 15 5q27 10 45 41q14 28 29 55q16 -2 23 -24q9 -26 18 -31q6.125 28.875 6.125 77.6562q0 6.96875 -0.125 14.3438q0 67 3 93q-2 7 -13 16q-121 -36 -363 -114q2 0 -21 -5q-12 -3 -15 12q5 80 21 237q23.8887 2.77734 64.1357 2.77734
q32.1973 0 74.8643 -1.77734q27.6924 -1.23047 51.5977 -1.23047q53.7871 0 88.4023 6.23047q-1 35 -3 70q-2 41 -14 63q-69 -7 -208 -20q-4 2 -9 9q5 79 16 238q0 9 13 18q184 7 365 28zM864 270q1.7998 3.59961 1.7998 6.48047q0 1.91992 -0.799805 3.51953q-2 3 -10 2
q-30 -37 -89 -37q-14 0 -55 4q-36 4 -55 2q-1 0 -11 -3t-10 -7q1 -3 3 -5q123 -20 126 -20q69 0 100 54zM783 149q-10 23 -34 23q-27 0 -56 -26q-2 -12 7 -16q6 -2 20 0q10 2 19 3q13 1 25 1q17 3 19 15zM542 131q-8 5 -18 2q-11 -4 -8 -14q2 -3 15 -3t11 15zM461 271
q-27 -10 -57 -10q-32 0 -93 15.5t-91 15.5q-21 0 -40 -5q22 -3 96 -27q62 -20 99 -20q50 0 86 31z" />
    <glyph glyph-name="f" unicode="f" horiz-adv-x="945" 
d="M956 976l-434 16q-3 -4 -9 -11q2.57129 -22.2861 2.57129 -62.5713q0 -6.71484 -0.0712891 -13.9287t-0.0712891 -13.9287q0 -40.2852 2.57129 -62.5713q3 -3 10 -9q75 23 229 64q8.52148 -94.957 8.52148 -177.687q0 -53.1826 -3.52148 -101.313q-71 -10 -208 -48
q3 -56 28 -159q9 -1 20.5 11.5t17.5 14.5q0 -65 51 -91q5 -2 31 -2q-45 -49 -47 -104q14 -34 7 -42q-36 19 -49 12l-7 -105l-551 -54l-9 237q-5 13 -20 21q-25 14 -26 14q3 6 32 29q22 18 20 40l22 1084l852 87zM886 1456q-196 -7 -577 -36q0 -152 12 -220q4 -3 12 0
q63 65 121 140q4 3 9 -1q-14 -35 -61 -86q-50 -56 -65 -84q15.6152 -3.76953 37.6094 -3.76953q18.8525 0 42.3906 2.76953q78 10 83 10q4 -3 3 -6q-22 -10 -76.5 -16t-60 -9t-2.5 -24q7 -4 32 -30q21 -21 32 -21q12 0 19 20q136 -11 431 -50zM297 1207q-6 66 -10 201
q-2 5 -9 12l-171 -15v-244q-2 -13 9 -31q4.5 -0.142578 9.25977 -0.142578q61.8828 0 167.74 24.1426q7 10 -16 34q-39 33 -110 108l119 -95q4 0 11 6zM703 657q-3.61035 125.461 -4.77637 125.461q-0.125977 0 -0.223633 -1.46094q-2 5 -10 13l-202 -43q-3 -2 -11 6
q-1 3 -30 266q-36 42 -115 109q-10 -32 -10 -76q0 -22 3 -65t3 -64q0 -43 -10 -74q-8.33301 35.833 -8.33301 102.569q0 13.3477 0.333008 27.9307q0.307617 13.4619 0.307617 25.8701q0 68.2451 -9.30762 104.63q-25 -11 -51 -44q-35 -43 -45 -53l-6 7q7 18 34.5 48
t33.5 45q-2 1 -4 5t-6 4q-49 -3 -142 -24q0 -34 20 -638q10 3 16 3q17 0 20 -22v-34q1 -31 22 -40q14 -6 29 -6q40 0 99 58q3 -36 6 -47q6 -25 25 -36q80 0 95 30q9 8 17 45q6 30 25 30q4 0 9 -1q6 21 2 54q-6 48 -6 57q0 21 7 38q59 20 183 49q14 4 21 15zM647 304
q-2 1 -3 4q-29 -15 -70 -19q-14 -1.5 -32.5 -1.5t-41.5 1.5q-60 4 -73 4v-9q7 -8 9 -7q39 -16 85 -16q80 0 126 43zM531 147q0 37 -36 59q-7 9 -18 9q-14 0 -39 -17t-30 -17q-9 0 -9 17q0 11 3 29q-13.5 22.7812 -47.6455 22.7812q-6.32324 0 -13.3545 -0.78125
q-48 -15 -82 -86l-24 36q-17 21 -38 17q-16 -3 -32 -5q-18 -5 -23 -19q-1 1 -2 -40q0 -24 17 -29q14.375 -0.125 30.5156 -0.125q112.984 0 312.484 6.125q13 -3 23 1t8 17zM303 312q-42.75 7.52051 -82.6797 7.52051q-60.9453 0 -115.32 -17.5205
q21.5996 -3.59961 52.2002 -3.59961q20.3994 0 44.7998 1.59961q88 5 101 5v7z" />
    <glyph glyph-name="g" unicode="g" horiz-adv-x="1165" 
d="M1140 1456q-42 -160 -140 -477q-106 63 -222 63q-144 0 -233 -109q-83 -102 -83 -249q0 -74 59.5 -132.5t132.5 -58.5q25 0 44 13l16 343l348 1l14 -504q3 -6 35 -6q16 0 14 -12q-50 -25 -50 -84q2.66699 -55.333 2.66699 -88q0 -16.333 -0.666992 -27l-2 -33
q-137 -102 -349 -102q-170 0 -291 57q-83 39 -243 165q-18 -27 -30 -27q-10 0 -22 38q-14 45 -31 57q-35 27 -44 32q-25 16 -49 18q49 20 62 43q-77 152 -77 329q0 345 250 577q244 226 593 226q146 0 286 -44zM325 1235q0 10 -2 35q-36 -21 -81 -77q42 -60 66 -82l11 7
q0 13 3 58q3 36 3 59zM284 1106l-56 67q-29 -12 -32 -42zM1034 190q0 8 -9 37q-22 2 -40 -19l-31 -34q-19 33 -53 33t-84 -39l-35 82q-13 25 -73 64q6 6 37 6q57 0 106 80l27 -41q18 -21 44 -21q40 0 65 40l26 -28l1 45q0.148438 9.48145 0.148438 19.8467
q0 129.561 -23.1484 397.153l-232 -34l15 -318l-9 -10q-28 -4 -55 -4q-122 0 -201 83t-79 207q0 152 112 259t264 107q91 0 165 -36q23 69 53 300l-6 16q-112 51 -250 51q-91 0 -225 -40q-156 -47 -197 -109q0.799805 -52.4004 0.799805 -88.6396
q0 -54.3604 -1.7998 -72.3604q34 8 76 38l70 52h18q-20 -23 -141 -109q37 -4 67 -10q72 -14 99 -34q-55 0 -182 25l-15 -9q30 -40 91 -114v-12q-19 1 -42.5 32t-41.5 36q-12.25 -75.25 -12.25 -201.797q0 -18.0781 0.25 -37.2031l-13 -12q-5.44434 35 -5.44434 83.9141
q0 13.9746 0.444336 29.0859q4 121 4 114q0 65 -12 65q-27 0 -216 -127q-34 -110 -34 -230q0 -222 64 -281q59 44 84 44l9 -1q-12 -60 -12 -49q0 -49 41 -49q19 0 37 20q26 28 30 31l-13 -25q1 0 23 -37q12 -21 34 -21q12 0 32 9.5t29 11.5q-10 -29 -10 -44q0 -21 18.5 -47
t37.5 -30q26 36 32 46q17 27 18 52q23 -34 51 -34q26 0 95 60l-1 -18q-0.166992 -2.83301 -0.166992 -5.71484q0 -31.7021 20.167 -69.2852l39 -69q-50 -35 -62 -92q-35 37 -75 37q-48 0 -65 -56q-6 6 -23 57q-13 38 -43 38l-29 -11q-7 4 -7 11q0 5 9.5 12.5t9.5 11.5
q0 15 -23 15q-12 0 -26 -6l-32 -22q-19 -15 -19 -31l2 -9q148 -109 333 -109q75 0 210 43q159 51 159 105zM290 1087q-18 10 -50 15q-46 8 -52 10q-82 -82 -82 -142l96 52q57 33 88 65zM1056 300q-45 -23 -113 -23q-39 0 -128 12v-6q40 -28 98 -28q95 0 143 45zM666 208
q-33 24 -82 24q-56 0 -95 -29q6.75 -2.25 12.9375 -2.25q2.0625 0 4.0625 0.25zM387 262l-10 -1q-1.15527 -0.0224609 -2.32812 -0.0224609q-51.6055 0 -136.672 43.0225q-87 44 -136 45l-2 -5q17 -6 120 -57q78 -38 119 -38q26 0 48 13z" />
    <glyph glyph-name="h" unicode="h" horiz-adv-x="1435" 
d="M1396 275q-52.5625 -40.7812 -52.5625 -114.414q0 -7.61719 0.5625 -15.5859q-5 -4 -23 -3q-13 1 -14 -12q-1 -18 -2.5 -37t-17.5 -23q-150 -23 -451 -54q-5 11 -5 28q0 8 1.5 24.5t1.5 24.5q0 40 -29 50q6.6123 35.2656 6.6123 62.9736q0 47.7207 -19.6123 73.0264
q-2 7 -14 16.5t-10 14.5q3 2 8 2q6 0 19.5 -3.5t18.5 -3.5q15 0 13 23q0.125 5.75 0.125 12.2031q0 45.1719 -6.125 124.797q-4 3 -13 9q-86 -2 -250 -26q-4.5459 -8.63672 -4.5459 -24.917q0 -19.5371 6.5459 -50.083q9.03223 -25.29 55.5918 -25.29
q4.98926 0 10.4082 0.290039q19 12 62 27q-50 -59 -50 -132q0 -29 10 -56q-7 -2 -19 4t-18 6q-5 0 -10 -4q-17 -20 -20 -102q-175 -26 -520 -70q-2.77734 25 -2.77734 61.7285q0 29.3828 1.77734 66.2715q2.25 70.5 2.25 106.125q0 11.875 -0.25 19.875q-12 33 -40 59
q-4 -1 -22 7q6 8 37 8q28 1 31 23q16 334 46 1015q7 2 19 9q80 3 229.5 15.5t228.5 14.5q7 -4 6.5 -16t2.5 -15q6 -181 23 -533q3 -13 16 -16q64 -3 190 -3q10 3 15 16l-8 513q1 1 21 13q136 15 413 39q5 -3 12 -18q1 -167 9.5 -501.5t9.5 -502.5q1 -8 13 -22q18 7 21 6
q-0.232422 -3.88379 -0.232422 -7.69043q0 -61.8604 61.2324 -103.31zM544 1169q-5 45 -8 136q-2 27 -13 77q-18.667 0.833008 -36.1113 0.833008q-87.2217 0 -143.889 -20.833q0 -1 -5 -88q-0.818359 -14.4551 -0.818359 -27.4219q0 -34.5781 5.81836 -58.5781
q18 9 42.5 43.5t41.5 46.5q1 -14 -14 -32q-23 -30 -24 -30q-22 -37 -22 -46q0 -7 4 -13q-6 -1 88 -1q3.59961 -0.0664062 7.09766 -0.0664062q48.9688 0 77.9023 13.0664zM1334 271q-101 38 -113 38q-24 0 -44 -13q74 -10 108 -31q45 -8 49 6zM1248 384q-14 493 -44 994
q-43 -5 -266 -43q-12 0 -24 -16q1.7998 -100.2 1.7998 -264.12q0 -109.28 -0.799805 -246.88q-2 -4 -9 -11l-156 -8q-37.5996 -1.59961 -70.4004 -1.59961q-49.1992 0 -87.5996 3.59961l-9 9q-13 113 -32 329q-2 5 -9 12q-14.5 0.25 -32.4375 0.25
q-53.8125 0 -138.562 -2.25q-4 1 -9 1q-27 0 -27 -28q0 -9 5 -17q34 -54 93 -140q-5 0 -11 -6q-20 33 -70 93h-12q-3 -17 -7 -237q-10 -16 -19 0q3.125 32.5 3.125 78.2812q0 27.4688 -1.125 59.7188q-4 124 -4 143h-9q-22 -19 -51 -59q-35 -49 -49 -65h-13q13 28 53 80
q38 49 51 81q-27.3682 15.7891 -62.2158 15.7891q-31.3633 0 -68.7842 -12.7891q-7.11133 -122.667 -7.11133 -284.84q0 -20.2715 0.111328 -41.1602q2 -319 2 -324q7 -22 16 -46t30 -34q14 -7 27 -7q34 0 66 38q2 -2 13 -41q19 -43 66 -43q9 0 18 2q97 55 97 151
q0 11 -1 23q46.667 5.33301 113.777 5.33301q33.5557 0 72.2227 -1.33301q92 -2.66699 142.667 -2.66699q25.333 0 40.333 0.666992q2 -4 9 -10q2 -54 21 -152q12 5 22 22q14 23 18 28q9 -7 12 -25q6 -29 6 -30q13 -37 45 -37q6 0 12 2q10 -1 29 15.5t25 16.5q7 0 11 -13
q12.2197 -44.1797 36.8105 -44.1797q1.56934 0 3.18945 0.179688q47 26 68 117q10 1 21 -16q12 -20 23 -24q7 -6 17 -2q10 5 10 15zM319 1349q-5 16 -38 16q-12 -4 -62 -7q-39 -2 -55 -17q-1 -58 -4 -171q2 -7 12 -19q7.33301 -0.888672 15.9014 -0.888672
q29.9873 0 75.0986 10.8887q-6 23 -38 63.5t-37 63.5q25 -20 55 -59l51 -66q15 -11 21 3q-0.666992 10.667 -0.666992 24.4443q0 27.5557 2.66699 67.5557t2.66699 67.1113q0 13.5557 -0.666992 23.8887zM1257 108q3.04785 11.4287 3.04785 26.6309
q0 24.7021 -8.04785 59.3691q-15 2 -47 -33q-18 8 -25 42q-7 39 -21 51q-35 17 -47 -19q-1 -5 -15 -35q-10 -21 -10 -36t10 -27q-9 -6 -19 -6q-14 0 -39 18t-37 18q-14 0 -27 -15q-16 -42 -6 -53q51.3789 -3.44824 101.569 -3.44824q95.3613 0 186.431 12.4482zM1059 261
q-37 -21 -86 -21q-50 0 -88 21v-10q31.0342 -34.9141 85.5459 -34.9141q15.7471 0 33.4541 2.91406l33.5 17t21.5 25zM929 106q-3 42 -25 56q-3.90332 -13.4834 -3.90332 -25.2051q0 -21.3115 12.9033 -36.7949q11 -2 16 6zM588 288q-8 -2 -15 -2q-20 0 -56.5 16.5
t-57.5 16.5q44 -38 96 -38q19 0 33 7zM504 125q2.4502 11.9004 2.4502 26.1279q0 26.4219 -8.4502 60.8721q-15 4 -24.5 -10l-18.5 -28q-7 -2 -19 11q0.581055 10.2324 0.581055 19.708q0 72.0127 -33.5811 100.292q-16 -6 -16 -49q0 -7 10 -17t8 -18q-6 -5 -12 -5
q-7 0 -20 12.5t-17 14.5q-9 4 -19 4q-31 0 -59 -31q-6 -5 -11 -27q-4 -18 -17 -19q-11 27 -52 67q-33 16 -43 -2q-3 -20 -3 -127q1 -8 11 -13q222 10 341 30zM323 321q-20 -2 -73 -12q-46 -9 -73 -9q-41 0 -71 19q-1 -3 -1 -5.25t1 -3.75q30 -30 76 -30q32 0 141 41z" />
    <glyph glyph-name="i" unicode="i" horiz-adv-x="680" 
d="M491 146q-1.98438 30.4312 -26.7266 31.0928q-12.6582 0.338379 -31.2734 -6.09277q-12 -3 -24 -21.5t-26 -18.5q-6 44 -13 89q-10 53 -49 66q-60 -32 -64 -87q-5 -22 -13 -22q-7 0 -22.5 19.5t-24.5 21.5q-33 21 -55 -3q-6.36816 -30.6846 -6.36816 -82.1494
q0 -37.4297 3.36816 -85.8506q0 -2 4 -2t5 -3q70 7 323 39q18 3 20 25v40zM263 295l-63 24q-39 14 -65 14q-28 0 -51 -16q10 -7 30 -6h35q16 1 45 -12.5t42 -13.5q14 0 27 10zM560 313q-51 -69 -127 -69q-10 0 -19 1q-1 -7 13 -22q13 -3 25 -3l1.79688 0.0166016
q52.1016 0.491699 104.203 58.9834q11 30 2 34zM497 955q0 19 -9 36l-63 65q-40 41 -73 54q-10.083 -31.167 -10.083 -88.3818q0 -5.20117 0.0830078 -10.6182q0.125 -8.75 0.125 -16.8594q0 -56.7656 -6.125 -82.1406q-9.59961 28 -9.59961 86.7197
q0 14.6807 0.599609 31.2803q0.210938 8.31543 0.210938 16.1777q0 66.8223 -15.2109 100.822q-17 -2 -37 -19q-25 -22 -29 -24q2 7 14.5 21.5t11.5 25.5q-13 3 -28 3q-18 0 -51.5 -8t-50.5 -8q2 18 29 21q42 6 44.5 8t28.5 5q18 3 15 21q-46 38 -136 119q-2 5 4 12
l154 -127q6 -6 27 -6q16 22 16 57q0 12 -2 37.5t-2 38.5q0 15 2 28q-3 16 -18 18q-118.3 4.90039 -167.51 4.90039q-21.0898 0 -29.4902 -0.900391q0 -395 24 -920q26 -4 18 -31q-9 -33 2 -44q17 -4 36 10q29 20 30 21l9 -31q6 -27 38 -34q28 -5 55 -9q8 -4 32 -33
q19 -23 39 -20q27 4 40 33q1 2 16 53q3 -6 10 -18q4 -26 26 -26q6 0 10 7q4 204 5 623zM498 1181q-9 21 -28 21q-9 0 -36.5 -8.5t-41.5 -5.5q-2 -1 -28 -10q-18 -5 -18 -19q35 -55 139 -137q4 1 9 7q1 51 4 152zM492 1234q6.25 37.083 6.25 65.1387
q0 39.2783 -12.25 60.8613q-104.887 7.11133 -128.395 7.11133q-2.93848 0 -4.60547 -0.111328q-4 0 -9 -6q-2.4502 -32.5498 -2.4502 -56.7695q0 -44.9805 8.4502 -61.2305q26 11 51 46q30 41 47 53q2 -2 7 -6q-12 -21 -40 -49q-34 -33 -45 -48q-17 -24 -17 -28q0 -7 6 -12
q71 4 133 35zM637 216q-3 -11 -10 -11q-2 0 -18 8q-12 6 -21 -2q-15.6953 -21.4785 -15.6953 -61.3818q0 -8.40039 0.695312 -17.6182q2.27246 -28.6367 2.27246 -48.1816q0 -23.4551 -3.27246 -33.8184q-99 -18 -254 -34l-257 -26q-10.083 47.667 -10.083 123.902
q0 6.93066 0.0830078 14.0977l2 140q-6 13 -15 13q-5 0 -14.5 -4t-13.5 -4q-6 0 -10 5q0 22 23 53q26 35 30 52q0 357 8 1028q173 14 465 18q8.69531 -25.2178 8.69531 -78.79q0 -8.03613 -0.195312 -16.71q-0.145508 -6.43555 -0.145508 -12.5391
q0 -56.9609 12.6455 -84.9609q3 -8 -3 -18t-6 -15q7 -263 29 -790q1 -9 10.5 -11.5l17.5 -4.5q-3 -16 -3 -33q0 -49 45 -148zM224.06 1072.41q10.7656 16.4199 19.9404 27.5889q-5.78613 -11.5713 -19.9404 -27.5889zM224.06 1072.41q-16.2236 -24.7441 -36.0596 -61.4111
l-7 7q7 17 31 41.5q6.64258 6.78125 12.0596 12.9111z" />
    <glyph glyph-name="j" unicode="j" horiz-adv-x="1175" 
d="M1141 326q-2.69531 0.152344 -5.33008 0.152344q-49.1953 0 -77.6699 -53.1523q-4 -8 -36 -102l-31 16q-117 -183 -354 -183q-32 0 -65 4q-146 17 -232 82l-170 163q-7 7 -11 7q-11 0 -29 -25q1 -8 -1.5 -15t-10.5 -4q-22 138 -118 153q31 16 84 59q-1 14 -14 48
q-12 31 -11 50l1 15l317 282q14 -95 54 -169q54 -102 132 -102q90 0 136 174q33 122 33 248q0 89 -51 375l375 83q25 -50 43 -296q15 -198 15 -316q0 -172 -22 -313q-2 -14 -17 -71q-11 -47 -11 -70q0 -26 42 -34l7 1q19 0 28 -7zM1025 1246q-6 116 -48 116q-17 0 -41 -18
q-4 -29 -4 -63q0 -51 10 -128l15 -15q39 40 68 108zM1043 1133q0 40 -21 60q-50 -57 -50 -83l3 -13q11 -4 22 -4q27 0 43 14q3 12 3 26zM1050 1057q0 25 -23 25l-21 -10v-3q0 -11 28 -40h3q13 0 13 28zM1064 804q0 86 -9 168q-24 34 -80 94h-18q-7 1 -10 -15q-1 -11 -3 -21
q9.09082 -111.818 9.09082 -221.157q0 -10.9336 -0.0908203 -21.8428l-1 -58q-11 -2 -11 27q0 162 -19 283q-29 -17 -57 -61q-38 -59 -48 -69l-6 6q29 43 80 133q-8 6 -70 6l-29 7q15 12 63 13.5t67 17.5l1 7q1 33 -36 75q-46 50 -54 69q16 -7 39 -34t39 -35q6 19 6 41
q0 129 -37 129q-20 0 -72 -14q-55 -14 -65 -25q37 -172 37 -323q0 -143 -39 -283q-55 -200 -161 -202q-1.66504 -0.0380859 -3.32617 -0.0380859q-129.034 0 -234.674 230.038h-18q-38 -38 -114 -126q-92 -106 -93 -122l11 -20q15 -2 30 15q19 21 26 24l21.5 -55.5
t51.5 -28.5q31 0 53 18q23 -65 30.5 -72.5t72.5 -29.5q52 34 74 115l35.5 -53t51.5 -27q14 0 87 35q0 -27 15 -54q17 -32 43 -32q82 0 124 70l44 82q2 -60 46 -78q26 0 53 25l43 43q35 176 35 348zM1063 322q-17 6 -36 6q-24 0 -64.5 -11t-65.5 -11q-10 0 -20 1
q24 -13 56 -13q26 0 65 9q54 12 65 14v5zM666 296q-15 4 -31 4q-18 0 -63 -7q-25.333 -4 -45.333 -4q-10 0 -18.667 1v-9q22 -16 50 -16q8 0 108 31zM943 220q0 8 -4 13l-7 1q-19 0 -36 -18q-23 -26 -29 -29l-34 69q-19 40 -58 40q-63 0 -82 -40.5l-37 -80.5q-6 2 -34 21
q-20 13 -43 13q-41 0 -80 -34l-20 77q-14 44 -54 44q-15 0 -40 -5q-28 -6 -41 -7q-49 -26 -53 -71q53 -73 155 -115q93 -38 192 -38q79 0 181 42q124 50 124 118zM351 315l-4 15q-93.7393 21.0439 -174.669 21.0439q-3.67871 0 -7.33105 -0.0439453l-31 -1q33 -19 98 -26
q72 -8 100 -18zM789 199q0 -35 -35 -35q-33 0 -33 33q0 32 37 32q31 0 31 -30z" />
    <glyph glyph-name="k" unicode="k" horiz-adv-x="1260" 
d="M1243.21 299.401q0 -11.0684 -15.7051 -16.9014q-17.5 -6.5 -19.5 -17.5q2 -16 -12.5 -41t-11.5 -43q-5 -4 -9 -4q-5 0 -13 7.5t-12 7.5q-2 0 -4 -1q-79 -44 -217 -138q-149 -101 -217 -141q-96 210 -161 328q-13 23 -33 23q-12 0 -16 -16q1 -23 11 -79
q7.36328 -40.0908 7.36328 -68.1318q0 -6.23145 -0.363281 -11.8682q-6 -1 -18 -9q-143 -20 -431 -53q-8 17 -10.5 61.5t-10.5 62.5h-10q7.2002 24 7.2002 46.0801q0 33.1201 -16.2002 61.9199l-31 35q2 2 35 18q23 11 27 28q2 73 2 157q0 95 -4 286t-4 287q0 173 10 308
q80 19 231 43q163 26 233 41q1 -1 12 -26q6 -118 44 -330q3 -2 6 0q18 51 45 156t44 156q175 -9 527 -24q5 -5 2 -12q-5 -9 -5 -10l-202.5 -378.5l-203.5 -378.5q2 -13 13 -20q115 -104 257 -217q13 -2 31.5 14t27.5 17l23 -56q17 -32 48 -32q44.2051 0 44.2051 -20.5986z
M1115 1340q-40 2.28613 -94.3672 2.28613q-40.7754 0 -89.6328 -1.28613q-162 -4 -184 -4q-9 -2 -26 -13q-59 -155 -185 -462q-1 2 -3 3.5t-3 3.5q-5 166 -25 489v32q-1.63672 14.7275 -14.6533 14.7275q-2.89258 0 -6.34668 -0.727539q-147 -28 -320 -77q42 -75 124 -164
q6.75 23.25 6.75 59.4375q0 12.0625 -0.75 25.5625q-2.66699 44 -2.66699 67.1113q0 11.5557 0.666992 17.8887q4 6 9 0l9 -9q0 -55 15 -157q33 24 122 155l17 24q11 17 21 17q5 0 11 -5l-131 -186q0 -3 -5 -13q-4 -7 0 -12q40 9 120 25q6 -3 13 -12q-11 -11 -35 -16l-40 -8
q-4 -2 -46 -12q-27 -6 -31 -26l137 -164q2 -8 14.5 -20.5t12.5 -19.5q0 -5 -3 -10q-38 28 -84 87q-52 67 -77 90h-9q-0.125 -1.5 -0.125 -5.76562q0 -29.8594 6.125 -195.234q-1 -1 -3.5 -8.5t-9.5 -4.5q-11 40 -14 102q-3 97 -4 103q-1 1 -4 9q-2 5 -9 3q-10 -14 -31 -40
q-4 -4 -17 -23q-10 -15 -19 -15q-5 0 -10 4q24 34 62 105q-74 -6 -158 -28l-9 -9q0 -214 21 -641q5 1 9 1q14 0 14 -21q0 -26 3 -30q14.2422 -33.4697 45.2197 -33.4697q12.5225 0 27.7803 5.46973q13 3 34 25t33 22q9 0 17 -6q-0.5 -5 -0.5 -9.95996
q0 -44.6396 40.5 -86.04q20.0703 -11.8594 37.4355 -11.8594q20.7051 0 37.5645 16.8594q0.571289 11.1426 0.571289 31.4287q0 50.7139 -3.57129 158.571q-0.888672 26 -0.888672 49.7285q0 83.0488 10.8887 138.271q34 -62 139 -287q18 -22 21 -22q8 15 15 15
q6 0 18.5 -17.5t22.5 -19.5q18 -10 40 -10q47 0 102 44q9 -22 22 -68q12.7656 -34.043 42.1914 -34.043q5.14941 0 10.8086 1.04297q54 16 89 98q-40 53 -131 138q-107 99 -141 138v13l409 628q1 8 12 22t11 22q0 6 -5 12zM279 1126v12q-1 1 -72 96q-44 60 -86 88
q-6 -1 -15 -20q-0.941406 -15.7646 -0.941406 -35.5713q0 -64.3701 9.94141 -171.429q97 7 164 31zM1168 293l-73 -10q-31.333 -4 -56 -4q-12.333 0 -23 1v-6q21 -15 49 -15q34 0 103 34zM1082 218q-12 0 -29 -11q-5 -10 -2 -10q2 -1 11 3q20 16 20 18zM995 163
q1 8 -4.5 19.5t-5.5 17.5q-26 53 -82 53q-23 0 -42 -13q-53 -8 -58 -71q-60 18 -86 18q-23 0 -42 -9q18 -65 72 -157q58 21 248 142zM800 249q-74 10 -224 23q16 -3 82 -22q52 -16 83 -16q34 0 59 15zM527 296q0.568359 4.5459 0.568359 9.14258q0 35.8574 -34.5684 74.8574
q-0.5 -10 -0.5 -19.083q0 -45.417 12.5 -67.917q4 -4 22 3zM434 119q0 31 -4 93q-6 31 -39 31q-9 0 -22 -3q-42 -8 -78.5 -47.5t-42.5 -82.5q18.125 -3.125 46.7969 -3.125q17.2031 0 38.2031 1.125q41.333 2.66699 67.1113 2.66699q12.8887 0 21.8887 -0.666992q5 2 12 9z
M323 256q-139 30 -156 30q-36 0 -65 -12q15 3 31 3q27 0 75 -15t72 -15q22 0 43 9zM205 110l-4 59q-15 44 -48 44q-5 0 -10 -1q-4.34766 -10.8691 -4.34766 -32.1357q0 -27.6465 7.34766 -72.8643q50 0 59 3zM933 194q0 -46 -31 -49q-31 -4 -37 33q-3 34 18 38q5 1 10 1z
M396 187q2.86426 -10.1357 2.86426 -18.3779q0 -29.1641 -35.8643 -34.6221q-4.26855 -0.609375 -8.06055 -0.609375q-27.3057 0 -29.9395 31.6094q-2.7168 8.83008 -2.7168 15.917q0 24.2148 31.7168 28.083q17 -2 42 -22zM911 187q-1.78418 13.0811 -9.22461 13.0811
q-5.07227 0 -12.7754 -6.08105q-4.83984 -8.36035 -4.83984 -14.2031q0 -7.43652 7.83984 -10.7969q1 -0.375 2.04688 -0.375q7.32812 0 16.9531 18.375z" />
    <glyph glyph-name="l" unicode="l" horiz-adv-x="1025" 
d="M1011 299q-22 -3 -35 -32q-16 -36 -25 -42q4 -27 0 -29q-13 12 -28 10q-16 -3 -21 -19q0.166992 -9.83301 0.166992 -21.3057q0 -57.3613 -4.16699 -155.694q-4.36328 -5.81836 -16.6611 -5.81836q-4.61133 0 -10.3389 0.818359q-257 5 -769 21l-12 15
q1.65332 27 1.65332 50.7275q0 105.456 -32.6533 146.272q-18 14 -59 36q3 2 49 31q30 19 37 44q-12 338 -31 1019q264 43 531 74q2 -2 9 -31q-5 -304 -22 -908q2 -12 13 -11q9 3 18 5q95 39 288 108q6 3 6 -1q1 -7 4 -8q0 2 -1 -121
q-0.0664062 -4.93359 -0.0664062 -9.74219q0 -67.3242 13.0664 -110.258q11 -22 60 -23q37.3555 -0.911133 37.3555 -27.5557q0 -2.59961 -0.355469 -5.44434zM849 481q-63 -8 -175 -35q-122 -29 -175 -38q-2 1 -6 5q5 146 31 486q24 315 27 487q-2 3 -18 3
q-129 -21 -378 -83q0.111328 -9.33301 0.111328 -19.6914q0 -82.8643 -7.11133 -231.309q12 -27 15 -27q4 1 7 2q8.4707 -0.941406 18.1035 -0.941406q31.3086 0 74.8965 9.94141q-24 37 -55 66q-29 22 -16 36q37 -35 102 -105q9 -1 22 7q0.666992 27 0.666992 62.7773
q0 71.5557 -2.66699 178.223q-3 10 5 16q4 5 10 0l9 -9q-1 -29.5 -1 -75.5t1 -108.5q3 -1 3.5 -6.5t5.5 -5.5q13 8 29 37t31 35q-6 -24 -31.5 -64.5t-30.5 -63.5q15 -7 35 -7q9 0 27 2t26 2q26 0 41 -12q-38.9229 -9.30762 -85.0059 -9.30762q-8.37891 0 -16.9941 0.307617
q-15 4 -24.5 -5t-6.5 -24l137 -166l-7 -7q-39 49 -126 131q-7 -53 -7 -139v-134q-10 -22 -19 0q-3.125 29.375 -3.125 73.5938q0 26.5312 1.125 58.4062q2.66699 62 2.66699 100.889q0 19.4443 -0.666992 33.1113v29q-3 17 -18 15l-87 -130q-26 -30 -29 -30t-6 1
q14 31 55 90.5t54 92.5q-23.0586 5.76465 -50.1865 5.76465q-38.7549 0 -85.8135 -11.7646q-2 -35 -13 -542q9 -13 20 -72q7 -45 40 -58q10.1816 -4.36328 26.7109 -4.36328q28.9258 0 77.2891 13.3633q18 -97 69 -109q39 20 74 67l56 83q15 -29 56 -75q11 -8 24 -8t34 11
q25 13 34 15q12 -9 9 -27q-4 -25 -2 -31q5 -41 44 -41q4 0 9 1q18 11 23 36q4 18 2 48q-3 44 -3 45q4 1 10 1q9 0 31 -6.5t33 -6.5q17 0 30 12q13.7617 46.9521 13.7617 103.079q0 13.207 -0.761719 26.9209zM960 302l-93 -34q-56 -19 -99 -19q27 -15 60 -15q60 0 114 44
q13 4 18 24zM660 207q-26 2 -85 20q-53 16 -85 16q-16 0 -32 -3q1.1543 0.0380859 2.33984 0.0380859q29.6406 0 79.1602 -24.0381q51.5 -25 75.5 -25t45 16zM809 85q12 9 12 26q0 10 -6 32t-6 33q-8 30 -24 30q-9 0 -30.5 -12.5t-32.5 -12.5q-7 0 -12 4q-97 -27 -109 -84
q-18 -1 -26.5 24.5t-23.5 28.5q-8 5 -16 5q-11 0 -30.5 -14t-26.5 -16q-16 14 -13 40q-6 41 -53 41q-6 0 -12 -1q-28 -15 -57 -29q-30 -20 -36 -48q-66 68 -103 68q-15 0 -30 -6q-31 -1 -38 -33q-1 -3 -3 -58q10.3447 -43.1035 76.4268 -43.1035q10.5732 0 22.5732 1.10352
q191 7 577 24zM301 222q-44 28 -142 58q26 -19 80 -55q26.8799 -7.83984 43.0977 -7.83984q12.7422 0 18.9023 4.83984z" />
    <glyph glyph-name="m" unicode="m" horiz-adv-x="1799" 
d="M1783 287q1 -17 -15 -38q-22 -28 -25 -37q-2 -13 -11 -44q-9 -27 -9 -43t7 -31q-2 -1 -2 -2q1 -5 -3 -13l-595 -151q5 2 -13 2q2 39.5 2 98.25t-2 136.75q-13 26 -49 4q-5 -3 -15.5 -16.5t-15.5 -13.5t-9 8q-6 107 -53 127q-51 -64 -123 -174q-90 -137 -119 -176
q-2 -3 -10 -3q-25 96 -82 286q-3 5 -10 5t-10 -5q-1 -14 -15 -35q-12 -3 -23 9q-15 17 -18 19l-30 -174l-533 72q-2 14 -2 29q0 30 10 89t10 90q0 26 -5 49q7 13 15 43q24 305 96 991l484 90l236 -558l201 521l528 15q43 -339 124 -1099q26 -1 43 -35.5t41 -35.5zM1712 265
q-16 2 -82 16q-53 12 -85 12q-61 0 -97 -37q34 17 75 17q44 0 145 -33q19 3 44 25zM1603 138q0.307617 7.69238 0.307617 15.124q0 40.876 -9.30762 73.876q-22.5332 -19.9336 -22.5332 -60.1465q0 -6.18652 0.533203 -12.8535q-6 -6 -12 -6q-8 0 -19 16.5t-18 20.5
q-13.2812 9.03125 -31.6426 9.03125q-16.2012 0 -36.3574 -7.03125q-16 -2 -29 -25.5t-23 -23.5q-5 0 -10 3q-15 58 -28 82q-23 45 -65 51q1 8 15 11q18 3 22 8q65 39 71 133q12 -13 9 -34q9.49023 -37.9609 42.0547 -37.9609q5.18066 0 10.9453 0.960938q58 20 80 55
q17 4 21 -13q5 -20 14 -20l-59 995l-381 37l-97 -233l113 -91q-6 82 -22 248q6 17 15 13q7 -80 29 -241q12 -13 11 -13q4 5 35 59q3 2 9.5 13.5t11.5 11.5t10 -7q-4 -17 -29 -57q-21 -35 -21 -57q24 6 210 92q1 -2 5 -2.5t5 -3.5q-37 -28 -102 -59q-106 -50 -109 -52v-13
q45 -42 128 -133l-7 -6q-45 44 -142 127q-1 -18 -1 -40.4443q0 -44.8887 4 -107.556q6.125 -93.625 6.125 -135.188q0 -5.9375 -0.125 -10.8125q-1 -3 -4 -3q-4 1 -5 3q-17 75 -22 239q1 12 -9 31q-15 -16 -75 -119q-2 -2 -8 -12.5t-12 -10.5q-4 1 -8 3q5 23 32.5 68
t33.5 71q-27 -4 -69 -22q-52 -23 -68 -28l-7 6q20 20 56 35l63 24l58 43l-124 118l-195 -415l-265 669l-413 -65l-47 -840q10 14 17 14t20.5 -36.5t34.5 -39.5q13 -6 27 -6q22 0 69 25q4 -5 4 -11q0 -5 -4.5 -16t-4.5 -18q0 -5 2 -10q25.3799 -44.1797 48.9932 -44.1797
q1.50684 0 3.00684 0.179688q67 20 90 59q11 10 22 40q11 27 22 34l14 -52q10 -29 33 -37q11 29 23 113q12 73 32 109q20 -34 39 -92q28 -84 32 -94q3 -21 13 -21q15 0 27 31q8 -28 40 -77q15.5 -13.5 40.5 -13.5t59.5 13.5q-0.654297 -5.78223 -0.654297 -11.3018
q0 -45.0801 43.6543 -72.6982q-10 -38 -34 -19q-24 -5 -47 -43q-14 -37 -14 -47q0 -14 11 -21l379 455l9 -9q0 -3 15 -270q8 -12 21 -12q8 0 25 6t23 6q-11.082 -36.2295 -11.082 -63.5566q0 -36.7881 20.082 -57.4434q3 -17 -21 -34q-30 -21 -35 -30q-7 -30 -7 -66t7 -65
q17 0 12 -2q129 35 384 117zM1123 420q5 49 -9 50q-37 -49 -99 -150q29 7 58 47q33 44 50 53zM1192 234q-33 8 -102 35q16 -51 73 -51l18 5q11 2 11 11zM778 304q-1 3 -24 14q-26 5 -55 5q-37 0 -109.5 -10t-107.5 -10q-53 0 -95 15q49 -35 121 -35q34 0 105 14t108 14
q30 0 57 -7zM267 355q-42 23 -99 23q-61 0 -94 -27q25 11 57 11q22 0 65.5 -7t65.5 -7q0 2 3.5 2.5t1.5 4.5zM479 185q0 37 -31 33q-25 -3 -59 -49q-23 5 -23 41q1 46 -4 55q-12 32 -26 53q-23 0 -42 -32q-23 -40 -32 -46q-8 11 -22 34q-21 11 -62 4q-78 -54 -78 -94
q0 -11 4 -24q95 -26 345 -80zM1343 373q-12.4854 -10.3145 -28.5078 -10.3145q-13.4922 0 -29.4922 7.31445q-3 3 -3 11.5t3 22.5q10 9 30 9q34 0 34 -22q0 -8 -6 -18z" />
    <glyph glyph-name="n" unicode="n" horiz-adv-x="1470" 
d="M483 239q0 -33 -33 -33t-33 33t33 33t33 -33zM936 371q0 -36 -36 -36t-36 36t36 36t36 -36zM341 274q-31 47 -102 60l-128 12q19 -22 60 -27l70 -8q13 -3 43 -22q26 -17 44 -17q6 0 13 2zM738 274q-51 4 -154 4q-1 -8 -3 -7q37 -16 81 -16q47 0 76 19zM591 389
q0.262695 4.2627 0.262695 8.45605q0 59.7568 -53.2627 105.544q3 -91 16 -139q12 -2 20.5 7zM219 1095l-41 50q-25 28 -49 37q-0.692383 -22.3848 -0.692383 -40.7217q0 -61.124 7.69238 -77.2783l47 8q28 5 36 23zM1235 289q-39 -39 -112 -48l-127 -10q116 -19 127 -19
q71 0 106 53q13 13 6 24zM244 1107q1.4707 7.35254 1.4707 23.2695q0 38.2012 -8.4707 125.73q-2 28 -25 28q-15 0 -44 -13q-36 -16 -42 -18q-8 -35 3 -53q28 -5 61 -43q38 -42 54 -50zM1332 1393q-148 -4 -444 -31q8 -193 10 -589q-2 -2 -6 -4l-396 599q-141 -38 -239 -72
q-0.307617 -12.9229 -0.307617 -25.6094q0 -69.7754 9.30762 -132.391q1 0 3.5 -7.5t9.5 -4.5q4 5 46 72q4 2 13 17q7 12 14 12q4 0 9 -5q-31 -46 -62 -108q9 -2 18 -2q23 0 63 14q46 16 65 19l7 -9q-29 -16 -87 -33q-62 -17 -86 -29q20 -45 77 -90q0 -2 10 -14q6 -8 -1 -15
q-25 29 -84 66q-0.666992 -14.5 -0.666992 -30.7227q0 -81.1104 16.667 -205.277q-2 -20 -16 0q-4 82 -28 242q-14 -7 -52 -72q-7 -4 -16 -25q-7 -17 -16 -17q-5 0 -9 2l42 73q26 45 30 76q-31 -8 -96 -19q-4 -6 -10 -18q2 -174 13 -521q9 -12 19 -58q9 -38 33 -53
q16 -7 34 -7q47 0 96 47q4 -7 13 -55q4 -23 28 -43q36 -32 37 -32q-14 -23 -14 -50t14 -48q-3 -18 -11 -18q-6 0 -27 27q-13 4 -27 4q-44 0 -86 -44q-13 23 -51 58q-44 18 -55 -7q-0.941406 -10.3525 -0.941406 -22.4775q0 -39.4053 9.94141 -97.5225q85 -4 172 -4t173 4
q2.28613 18.2861 2.28613 44.7344q0 19.8369 -1.28613 44.2656q-2.28613 36 -2.28613 60.5713q0 18.4287 1.28613 30.4287q-6 5 -16 18q-4 13 9 22q-2 66 -2 162t2 222q47 -57 111 -163q74 -123 106 -166q14 1 35 17.5t30 17.5l10 -66q10 -36 36 -55q-11 -17 -27 -49
q43 -77 139 -224q107 22 315 75q44 31 44 98q0 24 -6 47q-4 1 -8 1q-13 0 -27.5 -22t-26.5 -26q-30 1 -44 -32q-24 -53 -25 -54q-35 38 -36 40q-22 20 -46 22q-2.73438 0.165527 -5.53125 0.144531q-42.1973 -0.3125 -98.4688 -53.1445l-31 63q-21 36 -49 52q-6 4 -24.5 2
t-21.5 7q82 23 137 115l11 -28q19 -44 84 -46q25 7 41 35l24 48q4 -17 26 -43q9 -3 18 -3q24 0 57.5 31t57.5 34q2 67 23 502q14 290 14 505zM1434 1466q-26 -362 -71 -1077q20 -10 19 -46q-1 -43 5 -54q1 -11 14 -29t13 -30q0 -6 -2 -12q-27 -12 -38 -55t-33 -56l-3 -58
q-3 -30 -34 -26q-70 -4 -226 -26q-150 -21 -224 -23q-13 17 -75 125q-44 77 -95 108q-5 1 -10 1q-22 0 -49 -29t-43 -32q0 -22 -4 -62q-3 -15 -20 -15q-7 0 -16 2q-164 -22 -490 -58q-5.33301 34.667 -5.33301 94.2227q0 29.7773 1.33301 65.7773
q1.59961 45.5996 1.59961 81.1201q0 53.2803 -3.59961 83.8799q-16 15 -46 41q15 2 32 6t20 22q5 149 22 901q86 25 240 57q243 51 244 51q85 -162 272 -480q5 39 5 84q0 50 -10 151.5t-10 154.5q0 26 2 50l610 96z" />
    <glyph glyph-name="o" unicode="o" horiz-adv-x="1290" 
d="M1262 709q0 -206 -78 -373q8 -10 8 -19q0 -11 -17 -27.5t-16 -31.5q-19 4 -38 -15l-28 -34q-199 -215 -481 -215q-103 0 -223 39q-141 45 -188 114q-9 6 -24 6l-22 -3l-22 -27q-4 68 -27 84q-35 53 -106 62q4 4 39 26q27 16 27 33q0 10 -30.5 127t-30.5 184
q0 295 185 523q197 243 485 243q258 0 430 -225q157 -206 157 -471zM1211 703q0 242 -145 428q-157 201 -392 201q-193 0 -327 -123q-0.473633 -13.5791 -0.473633 -29.252q0 -83.5898 13.4736 -226.748q43 32 99 97q72 84 92 104l7 -7l-167 -188v-15q46 7 136 31v-13
q-52 -10 -146 -49q58 -42 115 -66q21 -9 21 -17l-2 -8q-28 7 -77.5 35.5t-77.5 35.5q-6.23047 -34.6152 -6.23047 -89.3613q0 -24.3311 1.23047 -52.6387q1.77734 -44 1.77734 -76.9385q0 -41.1729 -2.77734 -65.0615h-7q-9 93 -9 247q0 13 -9 19q-26 -17 -60 -58
q-39 -49 -55 -63l-6 6q37 41 99 133q-99 -8 -214 -62q-31 -61 -31 -230q0 -141 50 -212q7 11 25 31q7 -36 15.5 -72t55.5 -36q17 0 34 10t22 10q8 0 3 -21q3 -16 25.5 -32.5t39.5 -16.5q10 0 25.5 10t24.5 11l18 -9q-1 -2 -58 -40q-48 -32 -48 -73l7 -20l7 -2q7 0 10.5 22.5
t35.5 22.5q46 0 46 -37q0 -8 -14 -19.5t-14 -18.5q0 -26 103 -46q81 -16 130 -16q216 0 371 134q3 10 3 21q0 28 -21 51q-8 4 -16 4q-12 0 -32 -13.5t-33 -13.5l-6 1q-7 87 -59 130h9q1.2002 -0.0126953 2.39355 -0.0126953q94.2568 0 145.606 78.0127q-3 -10 -3 -21
q0 -52 41 -52q12 0 31.5 11t30.5 12q9 -4 9 -40q0 -23 16 -23l10 1q107 159 107 376zM335 1019q0 25 -3 76.5t-3 76.5l-13 13q-96 -77 -130 -161q45 -32 143 -80q6 32 6 75zM1060 278q-111 45 -154 45l-30 -3q28 -1 84 -24q47.667 -20.167 74.3262 -20.167
q2.42383 0 4.67383 0.166992zM303 928q-41 28 -129 77q-46 -64 -66 -136l9 -7l184 57zM283 238q-13 -4 -27 -4q-28 0 -78 22.5t-76 23.5q4 -2 60 -41q40 -27 64 -27q29 0 57 26zM882 662q0 -95 -55 -174q-61 -87 -151 -87q-87 0 -138 62q-47 58 -47 148q0 106 57 182
q63 83 166 83q79 0 126 -70q42 -61 42 -144zM840 309q-5 -35 -26 -44q-46 0 -46 31t40 31q25 0 32 -18zM781 194q-37 -16 -44 -40l2 -17q0 -8 -7 -12q-5 3 -39 32q-26 21 -43 21q-51 0 -73 -59q-4 -3 -8 -22t-7 -19q-5 0 -11 14q-26 53 -48 71q-27 22 -79 22q-5 0 -5 3
t12 12l13 -1q3.72461 -0.275391 7.37207 -0.275391q49.249 0 84.6279 50.2754q31.2432 45.9463 31.2432 96.958q0 4.50098 -0.243164 9.04199q8 -5 30 -36q17 -24 41 -24q50 0 83 66h11q-8 -22 -8 -46q0 -65 57 -121zM843 652q0 69 -34 117q-39 54 -105 54q-79 0 -132 -79
q-47 -71 -47 -154q0 -59 36 -106q40 -52 99 -52q78 0 133 73q50 67 50 147zM716 216l-6 11q-23 16 -55 16q-21 0 -50 -10q-37 -11 -37 -28q0 -4 6 -4l6 2q14 12 35 14q14 2 39 -1q30 -4 39 -4z" />
    <glyph glyph-name="p" unicode="p" horiz-adv-x="990" 
d="M1002 1024q0 -187 -147 -336q-87 -88 -308 -222q-7 -10 -5 -19l5 -39q9 -13 25 -13q15 0 41 13q15 24 34 18l-1 -14q-0.321289 -3.96387 -0.321289 -7.96289q0 -33.3232 22.3213 -69.0371l50 -66q-9 -1 -26.5 0.5t-25.5 1.5q-28 0 -37.5 -20.5t-11.5 -20.5q-7 0 -13 4
q-6 15 -28 31q-5 -16 -5 -34t8 -57t7 -60l-1 -13q-100 -24 -256 -49q-226 -36 -258 -42q-3.59961 26.4004 -3.59961 74.4004q0 32 1.59961 73.5996q1.06641 25.0664 1.06641 47.2178q0 60.916 -8.06641 99.7822l-24 28q-15 15 -33 13l-5 5l42 25q23 16 32 37l34 998
q68 31 217 31q677 0 677 -418zM263 1241l-3 104q-1 7 0 34q-74 -8 -98 -21l-4 -79q30 -23 86 -81h13q6 20 6 43zM250 1164l-91 89l-2 -102zM961 1033q0 356 -556 356q-90 0 -126 -10v-163q1 -12 3 -24q3 -15 15 -14q16 12 75 93q56 76 59 76l8 -1q-12 -29 -46 -75
q-38 -50 -50 -73q8 -4 19 -4q14 0 39.5 8t38.5 8q9 0 12 -10q-49 -10 -142 -46q10 -25 46 -55q41 -33 52 -51l-9 -5q-94 77 -106 77q-5 0 -9 -4l1 -150q0 -85 -4 -150l-9 6v101q0 53 -7 174l-108 -138v-84q-3 -108 -5 -216q-0.25 -15.875 -0.25 -31.1406
q0 -106.859 12.25 -183.859q4 -27 41 -27q32 0 56.5 16t35.5 17q-2 -6 -2 -18q0 -33 73 -83q-72 -43 -78 -109q-4 -10 -9 -10q-3 0 -26 19.5t-59 19.5q-20 0 -30 -16l1 -25q-0.400391 -8.59961 -0.400391 -18.8398q0 -40.96 6.40039 -108.16q105 12 312 53v18q-22 19 -35 74
t-36 74q38 34 51 97q3 16 11 111q183 37 328 176q157 151 157 329zM263 1136q-12 9 -27 9q-25 0 -77 -11l-2 -152q40 53 106 154zM653 302q-22 47 -97 47q-35 0 -51 -19q12 -3 67 -3q23 0 42 -13.5t30 -13.5zM310 347q-20 -4 -42 -4q-27 0 -80.5 8t-81.5 8q-25 0 -48 -6
q27 -2 87 -14q55 -12 87 -12q45 0 78 20zM633 977q0 -75 -44.5 -139.5t-114.5 -92.5q-1 3 -31 362q14 13 39 13q67 0 109 -38.5t42 -104.5zM418 429q0 -26 -35 -26q-25 0 -27 26l-1 6q0 13 19 25h10q34 3 34 -31zM393 240l-1 -6l1 -4q0 -13 -19 -27l-6 -1q-32 0 -32 26
q0 35 33 35q24 0 24 -23zM589 957q0 101 -79 101l-27 -6q0 -2 31 -230l18 4q57 58 57 131z" />
    <glyph glyph-name="q" unicode="q" horiz-adv-x="1635" 
d="M1618 325l-345 -255q-30 42 -96 121l-217 -111q-113 -48 -242 -48q-302 0 -499 233l-20 -9l-13 15q-4 33 -27 63q-26 33 -57 33q-25 0 -54 -22l-48 -36l3 21q8 15 65 62q45 37 45 72t-22.5 121t-22.5 133q0 302 241 517q233 209 539 209q270 0 437 -180
q161 -174 161 -447q0 -112 -28 -230q27 -22 27 -29q0 -4 -2 -8q-17 -10 -17 -17q0 -16 86 -99q96 -94 106 -109zM1409 816q0 242 -166 406.5t-407 164.5q-104 0 -249 -47q-171 -55 -206 -127q33 -48 108 -139h9q4.90039 27.2998 4.90039 63.9102
q0 15.6895 -0.900391 33.0898q-4 97 -4 98q0 9 9 16q6 0 9 -5q7.11133 -136.889 7.11133 -213.729q0 -9.60449 -0.111328 -18.2715l9 -5q72 82 106 129h15q-8 -17 -47 -64q-31 -39 -37 -69q14.5 -3 33.75 -3t43.25 3q44.333 5.44434 66.2842 5.44434
q6.27148 0 10.7158 -0.444336l26 -1l3 -7q-33 -12 -104.5 -14t-105.5 -14q25 -61 87 -111q74 63 171 63q101 0 167 -70t66 -171q0 -150 -92 -213q-17 -55 -17 -72q0 -34 33 -42l59 -10q-2 8 -2 19q0 20 33 55q40 43 46 54q6 33 31 89q48 -52 96 -52q63 0 86 58
q20 -35 28 -35q30 0 54 109q21 89 21 137zM1347 519q-25 -10 -104 -15q-67 -5 -101 -29q62 4 184 26zM978 712q0 79 -48 135q-51 58 -128 58q-83 0 -132.5 -52t-49.5 -134q0 -100 77 -178q22 -22 53 -26q35 -4 49 -14q179 9 179 211zM880 470l-57 -10q4 -7 17 -7q39 0 40 17
zM954 364q-104 34 -124 34l-25 -6q22 0 61 -17t60 -17zM746 463q-191 86 -191 264q0 88 49 139q-1 28 -24 60l-42 51h-9q-4 -27 -4 -60q0 -30 5.5 -93t5.5 -95v-9l-16 -28q0 88 -22 261q-13 -8 -41 -44q-24 -31 -45 -34q36 40 86 130q-22 4 -49 4q-33 0 -100 -8.5
q-59.9473 -7.60547 -93.4766 -7.60547q-3.94434 0 -7.52344 0.105469l-16 12q98 22 235 22q23 0 18 18q-15 16 -59 83q-34 53 -70 72q-220 -171 -220 -480q0 -73 15 -146l15 -6q29 -111 81 -111q19 0 39 26l29 42q3 -4 3 -45q0 -21 17.5 -44.5t38.5 -23.5q34 0 91 89
q10 -19 21.5 -38t36.5 -19q5 0 71 26q16 -131 46 -131q40 0 71 44q26 36 35 80zM1491 294q-30 62 -104 169q-4 -34 -20 -34q-10 0 -32.5 14.5t-36.5 14.5q-6 0 -13 -4q-66 -9 -118 -77q-3 2 -23 36q-12 19 -39 19q-24 0 -47 -12q-18 -15 -37 -51l6 -18q-4 -5 -23 -5
q-42 0 -59 -75q-9 -1 -31 19.5t-44 20.5q-19 0 -59 -15q-32 65 -59 65q-40 0 -77 -56q-9 0 -25 6.5t-25 6.5q-45 0 -80 -53l-26 26q-16 17 -32 17q-18 0 -40 -23q-27 -28 -35 -32q-9 35 -17 70q-13 42 -43 54q-13.3701 -8.44434 -13.3701 -42.1445
q0 -14.1885 2.37012 -32.8555q-4 -10 -16 -10q-7 0 -22 13l-13 -6q30 -40 54 -40q11 0 24 6q21 -6 13 -49q60 -61 167 -97q99 -34 193 -34q221 0 426 173q37 -32 118 -89q93 48 206 125zM569 342q-65 51 -115 51q-17 0 -36 -7q25 -1 71.5 -23
q44.4785 -21.0439 70.2002 -21.0439q1.16895 0 2.2998 0.0439453h7zM312 401q-17 -5 -35 -5q-21 0 -61.5 10.5t-61.5 10.5q-29 0 -29 -10l1 -6q23 0 66.5 -12t66.5 -12q39 0 53 24zM1019 471q0 -10 -19 -21q-25 9 -25 25q0 11 21 19q24 -5 22 -19zM694 398q0 -11 -32 -25
q-0.777344 -0.0371094 -1.52637 -0.0371094q-19.4736 0 -19.4736 25.0371l3 25q8 6 19 6q31 0 31 -31z" />
    <glyph glyph-name="r" unicode="r" horiz-adv-x="1350" 
d="M1316 370l2 -6q0 -11 -20.5 -18.5t-17.5 -21.5q18 -17 18 -22l-2 -13l-484 -284h-12q-39 78 -139 220l-16 -9l9 -44q-4 -4 -10 -4q-5 0 -15 6.5t-14 6.5q-11 0 -11 -16q4 -10 14 -52l-550 -152l2 242q0 78 -29 96l-41 10l41.5 15t30.5 25q5 315 31 1019q161 71 401 71
q260 0 488 -94q297 -123 297 -344q0 -230 -316 -414l3 -15l196 -152q14 -4 23.5 15.5t10.5 19.5q6 0 15 -14q18 -29 44 -42q47 -25 51 -29zM1219 1023q0 181 -274 290q-213 85 -426 85q-85 0 -196 -16q-143 -20 -180 -51l-1 -126q0 -99 10 -795q8 -25 38 -25q16 0 40 13
q28 13 40 15q20 -70 26 -78q15.6396 -21.1602 65.1357 -21.1602q4.30469 0 8.86426 0.160156l30 -12q-13 -22 -40 -15q-53 -32 -59 -69q-8 -44 -24 -44q-11 0 -42 31.5t-53 31.5q-14 0 -30 -15l7 -170l328 71q1 48 -24 83q-28 38 -72 38q-7 0 -9 9q107 66 114 136
q35 -17 108 -40q63 22 90 68q10 -16 10 -34t-32 -81q61 -58 175 -179q148 43 148 76l-13 19q-11 6 -26 6q-46 0 -57 -31.5t-25 -29.5q-1 1 -35 59q-21 36 -49 47q-7 8 -48 5l-17 10l13 9q96 16 118 127q10 -5 39 -35q23 -22 46 -22q69 0 94 54q2 -1 19 -40
q14.167 -32.1113 47.0645 -32.1113q1.93555 0 3.93555 0.111328l8 1q-71 110 -266 268l241 163q131 109 131 246zM1165 284q-4 23 -39 21h-7l-38 -32q-22 -20 -22 -42l1 -6l58 21q34 14 47 38zM1063 321l-50 2q-70 -27 -197 -44q22 -10 46 -10q35 0 101 23q77 25 100 29z
M623 298q-1 2 -5 2q-14 0 -23 -11q-17 -9 -58.5 -14t-58.5 -17q21 -8 45 -8t59 13q41 16 41 35zM267 280q-9 2 -67 21q-34.667 11.2666 -60.3203 11.2666q-3.94629 0 -7.67969 -0.266602l-13 -1q34.5684 -34.5684 91.1348 -34.5684q7.25195 0 14.8652 0.568359zM1060 1098
l-217 -30q50 -53 117 -131q-38 17 -123 110q10 -90 10 -206q0 -27 -4 -50h-7q0.0458984 4.18164 0.0458984 8.54785q0 91.6797 -20.0459 264.452q-27 -4 -60 -32q-40 -35 -55 -42q12 32 88 90l-166 1v9q74 4 171 11l-144 161q48 -54 155 -148q5 20 5 44q0 21 -8 70
q-5.44434 34.2227 -5.44434 56.9502q0 6.49414 0.444336 12.0498l3 36h5q4 -61 28 -211l116 91q-8 -13 -53 -53q-36 -31 -40 -59q37.7998 -5.40039 103.68 -5.40039q43.9199 0 100.32 2.40039zM794 836q0 -96 -87 -168q-77 -63 -180 -81v335q72 28 135 28q132 0 132 -114z
M777 360q0 -28 -28 -28t-28 28t28 28t28 -28zM390 188q0 -30 -30 -30t-30 30t30 30t30 -30zM734 818q0 71 -74 71q-63 0 -92 -42q-0.181641 -5.72754 -0.181641 -11.9502q0 -62.2314 18.1816 -174.05h6q0.707031 -0.0175781 1.41699 -0.0175781q40.4541 0 90.083 56.0176
q50.5 57 50.5 101z" />
    <glyph glyph-name="s" unicode="s" horiz-adv-x="1285" 
d="M493 424q0 -36 -29 -36q-30 0 -31 26q-1 31 23 32q37 1 37 -22zM853 373q0 -28 -23 -28q-35 0 -35 24q0 37 27 37q31 0 31 -33zM325 325q-13 6 -126 40q34.04 -42.3203 94.3184 -42.3203q5.24121 0 10.6816 0.320312zM685 262q-59 33 -128 56q17 -28 58 -40zM1050 217
q-7 16 -25 16l-4.20215 -0.0771484q-60.7979 -1.12793 -60.7979 -70.9229q36 9 52 17q29 14 38 38zM1150 301h-8q-21 -1 -61 7.5t-60 8.5q-21 0 -42 -9q96 -17 113 -17q32 0 58 10zM1199 398q0 96 -151 175l-281 130q-149.815 82.7021 -150.964 188.668
q0 107.229 126.964 139.332q57.1484 14.4502 166.643 14.4502q19.3574 0 40.3574 -0.450195q-5 107 -14 322l-22 22q-61 9 -126 9q-153 0 -315 -49l1 -8q0 -24 -7 -70.5t-7 -69.5q0 -26 6 -49q10 6 70 68q54 56 61 56q9 0 13 -5q-12 -19 -68 -74q-46 -45 -60 -80l25 -1
q5.00098 -0.200195 9.19043 -0.200195q43.1094 0 117.81 16.2002l12 -9q-56 -9 -167 -33q13 -29 47 -67q51 -56 55 -61l-7 -5q-25 11 -58.5 51.5t-55.5 52.5q-12 -63 -12 -221q0 -21 -16 -20q-6.23047 28.3848 -6.23047 75.4619q0 18.7686 1.23047 45.5381
q1.77734 38.667 1.77734 66.667q0 35 -2.77734 53.333q-79 -62 -146 -145l-22 -3q18 35 65 81q60 59 72 74v14.5781q-6.83984 -0.578125 -57 -0.578125q-28 0 -42 15q40 0 117 17q-14 31 -51 71q-50 54 -59 67l-22 5q-137.943 -83.543 -139.886 -253.903l-0.114258 -10.0967
q0 -101 89 -180q25 -23 165 -108q88.833 -53.9346 88.999 -93.7002q0.137695 -84.2002 -92.999 -113.3q-51 -16 -159 -16q-18 0 -18 -24q0 -31 34 -31h0.988281q51.2881 0.166992 80.0117 35h12q11.5918 0.724609 15.3105 -10.0977l-0.307617 -42.5996
q0.165039 -42.4248 40.9971 -57.3027q37 -7 74 -15q44 16 88 64.5t45 49.5q13 -58 30 -78.5t54 -20.5q19 0 53 5q-1 -6 -4.5 -20t-3.5 -21q0 -27 24 -36q40 -15 41 -16q5 -19 13 -58q-22 8 -46 8q-77 0 -133 -69q-10 24 -13 42q-15 26 -38 26q-9 0 -23.5 -15.5t-21.5 -15.5
q-10 0 -17 9l5 67q0 50 -25 69l-16 1q-1.91309 0.0439453 -3.82227 0.0439453q-42.0039 0 -82.1777 -21.0439q-45 -24 -63 -62q-4 -13 -16 -26q-16 47 -42 47q-38 0 -60 -36q-21 -3 -23 30q-3 39 -17 47l-18 -10q0 -62 15 -182q170 -39 358 -39q224 0 391 77q-10 45 -19 91
q-17 45 -66 45q-7 0 -10 6q101 30 153 139l22 -44q16 -25 40 -25q26 0 77 57q6 3 13 3q20 0 20 -44q0 -29 16 -37l18 3q13 22 13 51zM447 1316q0 25 -17 22l-64 -28q-37 -17 -54 -40q32 -47 112 -125h11q12 72 12 171zM1261 313q-250 -314 -806 -314q-194 0 -381 41
q-2.77734 25 -2.77734 58.0244q0 26.4199 1.77734 57.9756q6 106 6 115q0 135 -79 179q18 -4 33 -4q44 0 60 28l-1 15l8 100q106 -38 198 -38q136 0 136 60l-2 14l-166 83q-91 49 -134 105q-55 71 -55 178q0 246 262 375q207.023 101.951 479 102q85 0 185 -8l10 -9
q-4 -154 -27 -462q-44 4 -76 4q-76 0 -135 -23q-80 -31 -80 -95q0 -62 118 -122l241 -111q146 -75 192 -162q7 -15 12 -139q1 -16 3 -28zM356.311 451.902q1.41406 -4.11621 1.68945 -9.90234q-0.624023 13.0986 -1.04004 15.5537z" />
    <glyph glyph-name="t" unicode="t" horiz-adv-x="1100" 
d="M1142 1518l-95 -678l-251 -6q19 -164 66 -489l16 -10l35 16l19 23l-1 -25q-1 -14 9 -38q-5 -19 25.5 -47.5t30.5 -37.5q0 -14 -44 -17q-14 -7 -21 -41q-6 -30 -25 -31l-7 -5l15 -137l-606 4q22 147 40 220q-13 21 -45 41q-43 27 -50 33l21 -2
q3.91016 -0.320312 7.74219 -0.320312q55.9502 0 95.2578 68.3203l94 482l-471 -26l64 662zM1046 1463q-221 -15 -712 -56q-5 -93 -5 -131q0 -27 9 -56q58 49 175 179l11 -3l-158 -189q32 2 93 21t93 22q-28 -21 -82 -37q-69 -20 -86 -27q7 -20 69 -35q3 -3 24 -11
q18 -7 18 -11l-2 -9q-52 21 -160 44q-8 -39 -8 -108q0 -78 -3 -109l-16 10l1 93q0.200195 8.40039 0.200195 16.7598q0 33.4404 -3.2002 66.2402l-9 3q-53 -54 -164 -157l-11 9q16 23 75 77q51 47 65 78q-24 0 -62 -14q-45 -17 -62 -20l-9 12q23 14 74.5 27.5t74.5 27.5
l4 10q-40 13 -118 43q-2 3 -17 9t-15 10q0 6 4 10q54 -23 168 -54q12.5 58.333 12.5 119.444q0 12.2227 -0.5 24.5557l-2 56l-218 -15q-7 -242 -7 -341q0 -82 6 -150q14.7998 -0.200195 31.7598 -0.200195q67.8398 0 170.24 3.2002q145 6 201 6l15 -7l-36 -239
q-21 -146 -21 -239q0 -39 18 -83l11 -1q32 0 53 30.5t30 29.5q7 -39 15 -77q14 -42 49 -60q-86 -17 -109 -119q-4 -4 -9 -4q-14 0 -30 23t-33 23q-11 0 -26 -9l-7 -102l396 -25q4 23 4 31q0 23 -18 63.5t-18 62.5q0 8 2 16q-15 37 -62 56q5 13 39 35q30 20 30 39
q0 109 -17 278l-28 277l9 9l241 9l22 13q13 163 30 526zM933 241q-57 21 -139 42q26 -40 139 -42zM543 268q-43 -6.5 -86.25 -6.5t-86.75 6.5l7 -11q26 -20 65 -20q44 0 101 25v6zM703 357q2 -24 -20 -24q-38 0 -38 31q0 26 29 26q26 0 29 -33zM736 166q0 -27 -26 -27
q-32 0 -32 38q0 19 24 19q34 0 34 -30z" />
    <glyph glyph-name="u" unicode="u" horiz-adv-x="1275" 
d="M1244 879q0 -301 -83 -514q10 -37 37 -64q-12 -10 -37 -12q-33 -4 -40 -6q-83 -130 -221 -201q-134 -69 -292 -69q-330 0 -485 293q-19 16 -59 35q-45 20 -61 31q-3 28 38.5 49.5t41.5 43.5q0 45 -5.5 135.5t-5.5 135.5q0 160 36 683l390 73q-18 -209 -18 -316
q0 -148 26 -272q41 -191 130 -191q85 0 134 151q37 112 37 219q0 175 -67 356l443 54q25 -42 45 -295q16 -206 16 -319zM1196 868q0 110 -14 277q-22 253 -23 277l-11 9q-40 0 -350 -39q56 -180 56 -339q0 -138 -38 -252q-53 -161 -163 -161q-220 0 -220 488q0 59 3.5 148.5
t3.5 111.5q0 29 -7 48l-292 -104q-10 -177 -13 -398h89q11 5 31 33l-45 69l14 4l32 -35v23q4.2666 64.5332 4.2666 129.636q0 56.9639 -3.2666 114.364l19 4q4.90039 -31.5 4.90039 -73.7803q0 -18.1201 -0.900391 -38.2197q-3 -115 -3 -112v-52h10q10 7 66 63q50 50 57 50
q6 0 11 -2q-14 -23 -66 -73q-44 -44 -58 -78q6 -12 19 -15q9 -2 26 0q20 4 25 4l2 -9l-58 -15q7 -14 51 -57q38 -38 37 -54l-105 107q-4 1 -10 2q-4.2666 -56 -4.2666 -113.422q0 -50.2451 3.2666 -101.578l-13 -15q-1 75 -17 223q-24 -9 -58.5 -51.5t-63.5 -49.5
q0 -19 -2 -71q-1 -45 -1 -71q0 -79 13 -131q7 -2 10.5 8t10.5 8q23 -69 68 -109l17 -2q24 0 53 27q44 43 45 43q8 -50 10 -54q11 -30 41 -30q17 0 36.5 26t36.5 27q15 -10 15 -28q0 -9 -4 -25t-5 -22l-33 -60q-21 -34 -54 -35q-10 -16 -16 -44q-9 -44 -10 -47
q-17 0 -42.5 37t-59.5 38l-24 -10q39 -96 156 -144q95 -39 216 -39q83 0 226 43q173 52 173 112q0 25 -39 25q-31 0 -69 -29q-7 12 -7 57q0 33 -26.5 54t-26.5 33l1 8l25 -3q83 0 161 102q11 -3 16.5 -36.5t34.5 -33.5q30 0 67 32q59 166 59 397zM1117 339q-94 52 -165 52
l-47 -6q92 0 212 -46zM197 914h-69l-4 -75q55 27 73 75zM402 393q-36 -16 -84 -16q-29 0 -85.5 7.5t-84.5 7.5q-36 0 -65 -8q1.85352 0.0488281 3.78613 0.0488281q37.6777 0 105.214 -18.5488q71 -19.5 106 -19.5q64 0 104 47zM855 471q0 -33 -33 -33t-33 33t33 33t33 -33z
M784 335q-30 -19 -57 -93q-46 33 -83 33t-56.5 -25.5t-23.5 -25.5q-5 0 -10 14q-16 44 -22 55q-14 31 -33 49q79 32 93 153l12 -39q9 -24 28 -24q23 0 48 23q34 31 42 35q4 -69 9 -89q12 -48 53 -66zM485 255q0 -31 -31 -31t-31 31t31 31t31 -31zM725 330q-16 2 -62 13
q-38 8 -61 8q-33 0 -57 -15q19 -1 64 -7q40 -5 63 -5q29 0 53 6z" />
    <glyph glyph-name="v" unicode="v" horiz-adv-x="1260" 
d="M588 246q4 -12 -16 -31q-23 -11 -37 19q0 26 13 31q12 -2 24.5 -4.5t15.5 -14.5zM480 348q-90 19 -116 19q-34 0 -61 -12q5.7998 0.400391 12.3203 0.400391q26.0801 0 63.6797 -6.40039q51 -8 72 -8q15 0 29 2v5zM761 183q-10 20 -67 38q-31 -34 -46 -34q-17 0 -22 62
q-5 67 -22 78q-12 8 -31 4q-24 -6 -34 -4q-72.5693 -43.1748 -72.5693 -103.226q0 -5.32129 0.569336 -10.7744q-18 -3 -38 24q-23 32 -36 38q6 -47 46 -153zM799 270q-39 15 -109 59q14 -28 20 -37q14 -20 33 -25q33 -8 56 3zM842 252q-1 -1 -22 -25q-3 -17 3 -31
q21 51 21 46q0 5 -2 10zM1053 362q-54 31 -90 44q18 -24 44 -44q23 -18 46 0zM1254 1418l-365 28q-19 -55 -50 -163q34 -56 70 -100h9q8 41 8 116q0 84 3 114l12 15q6.23047 -32.5381 6.23047 -84.7275q0 -23.1953 -1.23047 -50.2725q-2.27246 -45 -2.27246 -77.3965
q0 -38.876 3.27246 -59.6035q48 18 142 115q21 10 26 2q-22 -27 -65 -64q-63 -53 -70 -60v-9q13.5 -3 31.5 -3t40.5 3q57 7 74 7q8 -12 9 -13q-13 -3 -166 -22q3 -23 32 -58q32 -38 38 -57q-2 -2 -6 -5q-27 34 -87 96q-9 -57 -9 -173v-15q0 -85 -4 -131q-6 -3 -12 0
q-2.77734 25.5557 -2.77734 72.0996q0 37.2344 1.77734 87.9004q1.06641 27.7334 1.06641 51.9824q0 66.6846 -8.06641 107.018q-61 -34 -181 -146l-68 -199l-257 714l-344 -104l238 -803q29 -12 37 -64t43 -60l11.2959 -1.99805q27.0049 0.165527 81.7041 60.998l14 -59
q11 -34 38 -47q40 -19 54 -19q15 0 24 10q19 16 31 51q15 44 22 54l20 -38q12 -22 29 -30q8 -3 16 -3q16 0 35 15q31 24 33 25q-9.33301 -40 -9.33301 -69.7783q0 -14.8887 2.33301 -27.2217q9.91016 -45.2852 58.6982 -45.1475q10.2871 0.0288086 22.3018 2.14746
q19 35 16 56q-4 16 -24 26q-28 14 -33 18q13 14 44 40q13 8 27 43q11 31 28 31q6 0 14 -3q101 263 318 903zM899 1108l-109 2l-49 -139zM917 1136l-84 117l-39 -119zM1313 1475l-282 -983q12 -12 13 -11q8 -7 11 -30.5t11 -31.5q24 -36 64 -57q-74 -27 -106 -139
q-3 -2 -6 -2q-7 0 -8 13q-2 17 -4 20q-16 21 -33 15q-21 -46 -49 -170l-578 -32q-29 84 -65 173q-8 61 -40 78q-29 1 -58 19q3 3 39 27q26 17 32 38l-254 1011l460 109l205 -563q49 179 137 534q155 -6 511 -18z" />
    <glyph glyph-name="w" unicode="w" horiz-adv-x="1695" 
d="M1719 1525l-142 -1044q5 -10 31 -9q23 2 23 -13q0 -5 -1 -9q-53 -28 -71 -86q-11 -34 -16 -113.5t-18 -115.5q-195 -40 -578 -126l-131 447q-5 4 -9 5q-4 0 -16 -43q-10 -39 -22 -121q4 -13 29 -17t25 -19q0 -5 -1 -11q-47 -10 -66 -30q-23 -60 -43 -207l-503 -49
q-14 105 -52 314q-13.6953 29.3477 -36.749 29.3477q-12.2949 0 -27.251 -8.34766q-7 0 -33 -19.5t-31 -19.5q-2 0 -2 3q0 7 13 31q10 26 44 61q42 45 52 59q-38 314 -137 1011l484 138l114 -547l161 449l232 -455l84 545q216 -8 644 -30zM1557 432q-23 -6 -55 -27
q-44 -28 -51 -32q-18 -10 -68 -16q-45 -5 -59 -17q14 -2 28 -2q102 0 176 65q29 26 29 29zM1652 1425q0 3 -6 20q-142 29 -480 57l-175 -716l-217 586h-9q-53 -226 -172 -674q-2 -3 -3 -3q-2 0 -3 3q-11 33 -80 319q-22 18 -60 18q-12 0 -38.5 -2.5t-40.5 -2.5q-15 0 -28 3
q-5 -2 -12 -9q16 -36 50 -70.5l67 -67.5q30 -16 22 -33q-28 12 -136 124h-10q-5.81836 -34.9092 -5.81836 -88.8594q0 -20.2314 0.818359 -43.1406q2.66699 -66 2.66699 -101.333q0 -17.667 -0.666992 -27.667q-11 -11 -13 -11q-12 81 -12 259q-3 6 -9 13q-77 -61 -131 -139
l90 -447q7 -3 14 -3q13 0 31 15q22 20 29 23q5 -31 36 -84q14.7822 -8.69531 28.4307 -8.69531q17.7432 0 33.5693 14.6953q32 24 51 -6q3.42383 -0.225586 6.8125 -0.225586q71.8447 0 128.188 101.226q13 -9 25.5 -38.5t27.5 -38.5q10 -4.16699 19.5371 -4.16699
q24.7959 0 46.4629 28.167q14 39 35.5 119.5t36.5 119.5q27 -38 98 -217q1 -1 9 -12q4 -7 10 -4q49 21 68 81q13 3 22 -12q14 -24 15 -25q15 -10 34 -10q23 0 65 18q12 -7 9 -22q-5 -21 -3 -27q1 -19 40 -46q23.8643 -8.20312 42.167 -8.20312q30.7822 0 45.833 23.2031
q19 19 32 57q20 53 23 60q14 -5 22 -35q5.42871 -25.7861 29.2754 -25.7861q11.2959 0 26.7246 5.78613q26 7 58 80q11 -2 18 -13q11 -17 13 -18q12 -12 19 2q11 59 164 944zM492 1063q-24 128 -89 417l-353 -87q18 -113 68 -335q34.2861 -3.85742 61.959 -3.85742
q36.8984 0 62.041 6.85742q-20 31 -75 84q-58 56 -77 83l6 7q33 -22 93 -86t95 -88q4 32.667 4 76q0 21.667 -1 46q-5 106 -5 126q2 8 12 15q6 -90 25 -267q37 13 80 66q13 3 16 0q-21 -19 -47 -62q36.0996 -9.02539 65.8828 -9.02539q32.917 0 58.1172 11.0254zM1457 293
q-7 9 -20 9q-26 -5 -37.5 -32t-20.5 -52q-12 1 -24 22q-13 25 -22 31q-34.2861 41.1426 -105.307 41.1426q-11.8359 0 -24.6934 -1.14258q-37 -11 -65 -67q-23 16 -75 34q-51 0 -75 -46q-3 -11 -3 -22q0 -27 44 -102q75 6 202 30q142 26 201 33q11 21 16 59q6 51 9 63z
M1132 325q-88 26 -110 26q-16 0 -30 -4q21 0 56.5 -14.5t53.5 -14.5q15 0 30 7zM284 1021q-24.2666 13.0664 -70.3115 13.0664q-3.28809 0 -6.68848 -0.0664062q-84 -1 -80 -1q-4 -4 -7 -2q10 -77 10 -78q8 -44 23 -68l71 64q41 38 60 72zM740 266q-29 0 -86 18
q-54 17.0527 -85.5625 17.0527q-1.75293 0 -3.4375 -0.0527344q106 -45 131 -45q23 0 44 10zM658 189q-3 10 -38 19q-22 3 -44 -21q-27 -28 -37 -31q-10 18 -15 64t-18 66q-15 40 -59 40q-20 0 -34 -13q-54.7207 -30.5 -54.7207 -87.5557q0 -6.54688 0.720703 -13.4443
q-8 -16 -16 -16q-7 0 -23.5 23t-30.5 23q-8 0 -16 -6q2 -67 37 -204q108 19 319 68q16 31 29 89zM335 309q-18 2 -68 18q-43 14 -69 14q-22 0 -42 -7q3.9541 0.40918 8.29004 0.40918q27.46 0 70.21 -16.4092q49.5 -19 67.5 -19t33 10zM1234 424q-2 -16 -22 -25
q-11 -4 -27 21q0 18 31 28q11 0 18 -24zM459 240q0.78125 -5.78125 0.78125 -10.6836q0 -26.4727 -22.7812 -27.3164q-0.939453 -0.0302734 -1.85059 -0.0302734q-29.1494 0 -29.1494 31.0303q2 19 19 25q24 -5 34 -18z" />
    <glyph glyph-name="x" unicode="x" horiz-adv-x="1570" 
d="M500 238q4 -13 -4.5 -25t-20.5 -13q-20 -4 -31 31q-3 26 27 26q24 0 29 -19zM1301 322q3 -24 -15 -31q-33 0 -36 16q-3 28 24 34q27 -10 27 -19zM444 353q-32 -16 -74 -16q-18 0 -54.5 3.5t-53.5 3.5q-34 0 -60 -9q33 -3 93 -22q25 -7 50 -7q62 0 99 38v9zM754 303
q-11 -2 -25 -2q-16 0 -51 4t-52 4q-32 0 -55 -10q10.7998 3.2002 24 3.2002q19.7998 0 45 -7.2002q49 -14 63 -14q28 0 51 22zM832 352q-1 1 -15 45q-10 35 -21 35q-10 0 -21 -31q-8.69531 -18.6953 -8.69531 -32.0986q0 -17.4229 14.6953 -25.9014q16 -15 51 9zM1172 369
q-18 0 -58 6t-58 6q-37 0 -60 -17q22 2 60 -4q44 -6 60 -6q33 0 56 15zM493 1173q-134 0 -186 -8q8 -36 62 -124q6 -4 15 -4l109 121q4 12 0 15zM1417 1432q-212 51 -407 81q-1 -5 -9 -3l-211 -428q-1 -3 -9 -2q-18 34 -62 99q-38.5713 1.14258 -68.8164 1.14258
q-75.6123 0 -99.1836 -7.14258v-9l195 -171q6 -3 9 -11q3 -10 -6 -13q-105 90 -198 160q-7 -31 -7 -66q0 -27 8 -97q5.81836 -45.0908 5.81836 -79.0742q0 -12.7441 -0.818359 -23.9258q-3 -7 -13 -12q-4 100 -26 294q-29 -18 -64 -61q-44 -55 -58 -68q-3 -3 -3 -22l62 -113
q36 -67 49 -117l-193 -312l-10 -20q-5 -12 4 -20q14 -3 27 12l20 24q10 -23 49 -58q17.6846 -6.7373 37.3184 -6.7373q26.9971 0 57.6816 12.7373q5 -7 5 -15q0 -9 -9 -29.5t-8 -32.5q-2 -5 -9 -13q-23 -1 -53 -30.5t-39 -53.5q-2 -3 -1 -26q1 -15 -11 -15l-8 2
q-28 53 -87 71q-7 2 -15 2q-21 0 -49 -29.5t-47 -29.5q-6 0 -13 2q-8 -16 -15 -56l334 -149l107 199q-1 27 -14 48q-27.9512 48.2378 -60.7793 47.7871q-3.58105 -0.0493164 -7.2207 -0.787109q22 22 62 71q11 27 42 71q4 -4 28 -35q17 -22 34 -22q5 0 11 1q14 1 56 53
q27 13 52 52l41 65q12 -20 77 -164q42 15 75 111q15 -1 29 -24q16 -26 30 -32q14 -13 27 -13q17 0 42.5 23t35.5 23q16 0 28 -37q18.1035 -21.5518 56.2725 -21.5518q6.10645 0 12.7275 0.551758q7 -1 23.5 8.5t22.5 9.5q11 0 15 -18q-4 -15 -46 -38q-32 -11 -47 -45
q-2 -5 -19 -63q-30 16 -96 34q-34 -5 -84 -73q-14 29 -29 57q-19 34 -48 36q6 -22 114 -279q5 -3 9 0q112 87 324 271q-7 5 -20 18q-3 110 -108 165q3 4 24 16q15 8 11 25q-77 102 -220 260v15zM1423 359q-14 25 -25 4q0 -4 -3.5 -14.5t-2.5 -14.5q0 -6 9 -6q1 2 14 14
q9 9 8 17zM642 1330q-50 95 -158 277q-102 -70 -295 -225q12 -47 96 -186q20.667 -4 50.667 -4q15 0 32.333 1q42.667 2.66699 65.7773 2.66699q11.5557 0 18.2227 -0.666992q1 2 8 4t5 8q-29 27 -77 82q2 1 6 6q20 -9 58 -45.5t62 -45.5q2 22 2 47q0 39 -8 115t-9 115
q4 2 10 9q18 -42 19.5 -135t16.5 -133q70 51 97 108zM700 1219q-11 27 -43 75q-57 -24 -86 -92q29.6475 -4.76465 59.5742 -4.76465q26.6025 0 53.4258 3.76465q8 -3 13.5 4t2.5 14zM1494 487q-66 18 -88 18t-38 -9q4.33301 0.666992 9.36133 0.666992
q25.1387 0 67.6387 -16.667q43 -7 49 7zM1563 480q-27 -16 -61 -56l38 -90q-181 -141 -552 -401q-30 66 -71 190q-45 136 -67 191q-8 3 -14 3q-12 0 -57 -45q-11.9189 -22.1348 -11.9189 -49.1025q0 -20.5459 6.91895 -43.8975q-18 -3 -38 21.5t-39 25.5q-19 -5 -27 -29
l-165 -318l-505 283l115 163q0 16 -17 22q-12 5 -25 9q106 41 208 178q156.46 209.934 169.752 223.747q-1.17969 0.564453 -4.75195 28.2529l-383 592q1 10 12 18l19 13q144 102 441 291q0.599609 0.0996094 1.18945 0.0996094q5.31055 0 9.81055 -8.09961q5 -9 7 -10
l212 -516q8 -10 16 -11l140 407q115 -7 311 -31q244 -30 309 -35q3 -4 -2 -12.5t-5 -12.5q-119 -207 -407 -672l257 -242q13.3613 -4.69434 31.417 -4.69434q31.9443 0 78.583 14.6943q19 -32 69 -87z" />
    <glyph glyph-name="y" unicode="y" horiz-adv-x="1265" 
d="M1349 1583l-282 -1214q1 -11 10 -9q19 5 15 5q3 2 16 22q10 14 19 14q3 0 5 -1q11 -35 25 -106q-6 -2 -13 -2q-10 0 -32 8t-35 8q-12 0 -22 -5q-21 -92 -76 -268q-138 9 -339 36l-336 43q27 57 76 175q0 25 -30.5 50.5t-31.5 42.5q78 0 114 29q82 158 113 263
q-150 154 -539 484q-1 2 -3 7.5t-3 7.5l377 366q3 -3 11 -4l315 -441q12 -5 20 13q8 84 9 206q0 103 1 205q0 2 27 13l553 101q11 -5 19 -22q11 -22 17 -27zM1297 1521q5.14258 18.4287 5.14258 29.5098q0 14.7764 -9.14258 16.4902l-474 -126q-20 -52 -22 -136
q23 -13 67.5 -54.5t68.5 -54.5q-4 134 -19 226q-2 8 4 13q7 4 12 -4q8 -36 17 -112.5t17 -113.5h9q40 64 134 182l4 -12q-31 -57 -122 -189q-4 -20 -3 -21q60 4 133 21q8 -13 9 -12q-13 -5 -71 -17q-43 -9 -62 -26l145 -149q-6 -7 -10 -9q-49 48 -148 136q-5 -4 -9 -9
q1 -18 37 -301q-5 -4 -9 -4q-5 0 -11 8q-26 145 -35 281l-6 18.5t-13 6.5q-37 -43 -100 -133q-7 -3 -13 -14.5t-12 -11.5q-3 0 -6 2q11 34 51 85q42 55 55 85q-13 4 -28 4q-19 0 -52 -8q-40 -10 -53 -11l-9 9q23 15 65 21q35 5 71 9q8 2 19 13q-18 29 -57 65q-61 57 -64 59
q-13 4 -15 0q-18 -87 -60 -256q-112 146 -345 428q-56 -48 -127 -132q-92 -109 -119 -137q-3.57129 -5 -3.57129 -12.041q0 -2.81641 0.571289 -5.95898l442 -488q-21 -62 -54 -190q17 -2 16 -28q-1 -34 2 -39q7 -16 13 -32q10 -19 28 -18q17 0 36.5 20.5t25.5 22.5
q2 -37 6 -54q7 -30 28 -42q36 16 61 60l38 76q4 -8 12 -22q23.0947 -49.0752 79.5234 -49.0752q2.21289 0 4.47656 0.0751953q25 1 51 23l42 41q7 -5 10 -29q2 -20 18 -20zM937 316q-112 19 -126 19q-40 0 -70 -16q1 -5 10 -9q20.7695 6.23047 56.876 6.23047
q16.0469 0 35.124 -1.23047q29.7773 -1.77734 51.6543 -1.77734q27.3457 0 42.3457 2.77734zM946 223q-17 34 -50 34q-29 0 -47 -31q-14 -15 -10 -42l8 -44q11 -3 71 -3q8 10 28 86zM813 146l-53 90q-34 56 -79 56q-16 0 -33 -6q-28 -5 -51 -40q-28 -45 -38 -53
q0 4 -5.5 8.5t-3.5 9.5q-18.375 42.875 -48.2344 42.875q-4.26562 0 -8.76562 -0.875q-40 -23 -52 -62q-2 -7 -14.5 -16t-10.5 -19q130 -7 393 -16q4 3 4 6zM584 311q-27 9 -60 22q-59.459 16.8916 -91.9834 16.8916q-15.6113 0 -25.0166 -3.8916q28 -1 79.5 -19t77.5 -18
q10 0 20 2zM714 217q0 -20 -20 -27q-31 0 -36 12q-0.799805 3.7998 -0.799805 7.32031q0 14.0801 12.7998 23.6797q4.63672 0.40918 8.82617 0.40918q26.5371 0 35.1738 -16.4092z" />
    <glyph glyph-name="z" unicode="z" horiz-adv-x="1415" 
d="M518 425q3 -26 -27 -31q-26 0 -31 26q-2 25 25 33q30 0 33 -28zM431 323q-66.1924 82.4941 -196.805 82.9883l-3.19531 0.0117188q-70 0 -85 -21l58 2q16 0.666992 30.4443 0.666992q28.8887 0 51.5557 -2.66699q48 -5 77 -21q22 -15 68 -41zM1173 319q-36 -10 -82 -66
l-41 41q-27 21 -54 19q-0.611328 0.0214844 -1.2207 0.0244141q-32.3164 0.163574 -60.7793 -34.0244q-42 -53 -47 -56q-4 8 -4 19q0 9 4.5 28t4.5 28q0 8 -2 15q-10 30 -22 28q-8 -18 -5 -50q4 -38 2 -49q-11 0 -36 16.5t-41 14.5q-33 -3 -69 -52l-9 12q-20 34 -49 37
q-4.49023 0.455078 -8.8418 0.469727q-45.0635 0.151855 -75.1582 -43.4697q-10 -1 -12 16q-2 10 -1 24q-6 41 -29 41q-10 0 -38 -13.5t-42 -13.5t-23 9q-34.7837 -11.5518 -34.9121 -42.082q-0.0380859 -9.11328 2.91211 -19.918q-15 -16 -22 -9q-22 33 -30 42
q-18 21 -40 29q-15 7 -28 7q-25 0 -53 -32q-34 -38 -50 -46q-2 -10 -16 -30.5t-14 -31.5q0 -6 3 -12q328 7 981 43q34 78 42 131zM825 360q-31 -11 -96 -25q-21 -1 -56 4q-42 6 -54 6q-20 0 -35 -7q19 -1 72 -12q47 -9 73 -9q41 0 72 18q7 5 15.5 10.5t8.5 14.5zM1162 346
q-44 3 -126 22q-33.5 7 -53.5 7t-26.5 -7q14 -2 129 -34q21 -2 42 -5q26 0 35 17zM589 1159q-10 17 -16 16q-26 -19 -77 -62q-12 -9 -18 0q14 21 41 42q45 36 48 39v9q-24 5.81836 -58.5781 5.81836q-12.9678 0 -27.4219 -0.818359q-86 -4 -87 -4q-12 -27 -15 -73
q-5 -75 -5 -76q5 -6 11 -10l97 -10q29.5 -3 53.75 -3t43.25 3q6 83 10 124zM1382 1489q-130 0 -367 -18q-276 -21 -364 -24q-8 -2 -22 -12q-2 -56 -15 -164q10 -27 15 -27q3 0 6 2q60 43 180 136q18 7 22 2q-25 -26 -89 -74q-65 -48 -91 -74q6 -17 37 -17l47 2h44
q28 1 39 -12q-16.6152 -6.23047 -47.1309 -6.23047q-13.5615 0 -29.8691 1.23047q-13.25 1 -24.75 1q-34.5 0 -53.25 -9q17 -31 54 -73q59 -67 59.5 -68.5t6.5 -15.5q-4 -3 -8 -7q-33 26 -76 81q-49 64 -72 86q-11 1 -20 0q-1 -15 -12 -133
q-0.301758 -3.24512 -0.301758 -6.25684q0 -36.8936 45.3018 -38.7432q62 -4 73 -17q-264 -317 -402 -563q2 -2 7 -5q35 0 75 55q24 20 33 0q1 -41 1 -82q5 -47 32 -70q50 17 87 82l60 107q2 -27 15 -77q7 -41 39 -41q5 0 11 3q36 18 36 42q12 17 18 17q5 0 9.5 -31
t19.5 -35q2.625 -0.28125 5.33789 -0.28125q26.2246 0 60.6621 26.2812q52 40 62 45q7 -8 7 -19q0 -9 -7.5 -28.5t-7.5 -29.5q0 -5 1 -10q44 24 80 115q5 7 9 7t9 -23t13 -28q43 -13 57 -3q12 3 28 23.5t27 20.5q6 0 12 -4q0 -6 -3 -38q-2 -24 1 -38q3 -21 15 -35
q24 -8.88867 41.4814 -8.88867q21.8516 0 33.5186 13.8887q10 12 6 31q-5 27 -4 35q48 38 65 161q-72 0 -265 -17q-141.667 -12.5 -231.944 -12.5q-18.0557 0 -34.0557 0.5q-6 2 -4 5l646 872v22zM608 1422q-1 7 -9 16q-14.7695 0.307617 -29.2549 0.307617
q-79.6689 0 -150.745 -9.30762l-9 -9q0 -7 -10 -94q-4 -38.667 -4 -68q0 -14.667 1 -27q6 -2 164 -6q5 -2 10 -2q22 0 22 21q0 6 -4 12q-42 50 -117 155q4 0 9 5q28 -31 59 -71l26 -31.5q13 -16.5 30 -17.5zM1448 1522q1.89453 -2.8418 1.89453 -6.28223
q0 -7.45508 -8.89453 -17.7178l-553 -842q10 -6 12 -5q155 31 468 76q-9 -49 -34.5 -145t-34.5 -146q0 -10 11 -10q9 1 15.5 6t21.5 25q12 17 22 17q7 0 14 -5l-25 -179q-3 -1 -8 -1q-12 0 -33 16.5t-34 16.5q-5 0 -9 -1q-19 -38 -39 -114q-20 -80 -36 -114q-2 -3 -43 -7
q-386 1 -1156 10q13 49 68 126q60 84 76 124q-24.8838 29.9985 -60.0879 30.1367q-7.2373 0.0283203 -14.9121 -1.13672q29 16 84 55q71 58 84 108q7 -1 9 -24q1 -11 9 -13q49 53 186 229q112 144 194 221q0 26 -18 16q-111 -8 -326 -8q-8 22 0 44l97 519q172 5 437 5
t623 -5z" />
    <glyph glyph-name="cent" unicode="&#xa2;" horiz-adv-x="995" 
d="M574 588q4 -14 -3.5 -27t-20.5 -13q-31 -6 -35 24q7 28 36 28q15 0 23 -12zM379 508q-108 32 -127 32q-22 0 -41 -7q3 0.222229 6.20988 0.222229q25.679 0 64.7901 -14.2222q44 -15.9999 66 -16q16 0 31 5zM822 494q-10.4 -2.13333 -25.3511 -2.13333
q-41.1155 0 -116.649 16.1333q-30.4054 6.08112 -51.4427 6.08112q-30.8546 0 -41.5573 -13.0811q27 0 82.5 -16t82.5 -16q40 0 70 25zM939 600q-9 57 -52 186h-12q-174 -127 -295 -127q-42 0 -83 13q-50 15 -86 59t-40 96q-3 8 -3 17q0 14 7.5 41
q7.58521 27.0286 7.49728 38.5028q-0.330627 30.5948 -40.9973 42.4972q-13 -37 -13 -116t-11 -113q-2 -1 -13 6q1 88 4 251q-1.87094 0.129028 -3.76685 0.129028q-27.4912 0 -60.2332 -27.129q-50 -43 -57 -47l-7 7q5 7 37 38q25 24 25 39l-115 5q-33 4 -31 16
q18 5.78577 46.7448 5.78577q15.9694 0 35.2552 -1.78577q33.8182 -3.27271 56.3306 -3.27271q18.7603 0 29.6694 2.27271q-8 18 -80 87q-9 16 -4 22q22 -10 61 -46.5t61 -46.5q13 23 13 73q-0.25 15.4999 -0.25 28.1249q0 37.8752 2.25 49.8751
q0.941162 17.647 0.941162 31.6401q0 45.4775 -9.94116 52.3599q-86 -39 -154 -114q-72 -79 -94 -165q-11 -45 -11 -91q0.114285 -4.85712 0.114285 -9.6604q3.88572 -163.311 139.886 -264.34q11 -11 21 -11t38 39q18 -6 14.5 -33t7.5 -35q27 -4 55 15l47 38q16 -5 16 -20
q-1 -22 2 -27q-2 -39 39 -53q62 -21 67 -25q9 -6 0 -13q-22 -3 -24 -24q1 -19 1.5 -38t29 -18t32.5 -19q2 -5 2 -9q0 -17 -24 -29q-27 -14 -31 -20q0 -3 16 -208q45.2766 -16.6808 90.5532 -16.6808q30.7234 0 61.4468 7.68085q4 71 13 213q1 6 1 11q0 15 -10 15
q-14 0 -35 -20q-4 22 -15 62q-14 46 -90 81q43 19 75 56q16 31 55 83q1 -1 4 -18q27.2424 -47.2828 49.1901 -47.2828q1.41602 0.0404053 2.80994 0.282837q28 1 66 53q21 2 30 -29q11 -38 25 -46q3.86212 -0.275879 7.74799 -0.275879q52.4589 0 109.252 50.2759zM429 984
q-24.5 12.5 -41.5 12.5t-26.5 -12.5q21 -29 43 -31q12 9 25 31zM867 1390q-13 0 -93 -5q-24 -1.59998 -43.68 -1.59998q-29.52 0 -49.32 3.59998l28 236q-3 0 -3.5 4t-3.5 5q-41 -2 -154 -31q-6 -39 -8.5 -120.5t-7.5 -120.5q-65 -16 -186 -68q0.166656 -5 0.166656 -10.5
q0 -27.5 -4.16666 -67.5q-6 -52 -6 -73q0 -31 7 -57q6 2 93 75q3 1 12 9t15 8q5 0 10 -6q-14 -18 -73 -68q-47 -40 -64 -74q26 -13 128 -19q127 74 352 80l33 149q17 87 18 152zM1014 569q-10 -17 -39 -29l-47 -21q-5 -21 -53 -38q-104 -57 -113 -123q-40 29 -43 29
q-10 0 -15 -14q1 -88 2 -266q-4 -9 -11 -12l-283 -5l-3 254q-1 59 -5 102q-11 0 -19.5 -15t-16.5 -15q-5 1 -8 2q-18 27 -56 33q-26 -3 -46 -33l-31 -46q-26 114 -102 148q-4 1 -21 0q-12 -1 -12 6q0 3 2 7q47 13 77 40q-8 17 -34 40q-29 25 -36 35q-103 114 -103 265
q0 45 10 91q32 144 171 257q122 99 279 141q4 8 12 22q2 75 13 224q4 7 13 11l281 19q7 -20 0 -37q-18 -69 -40 -208q16 -3 35 -3q22 0 66.5 5.5t67.5 5.5q19 0 35 -2q9 -17 0 -34q-29 -115 -96 -340q-149 -15 -227 -44q-121 -45 -170 -145
q-7.69232 -27.3077 -7.69232 -49.142q0 -34.9349 19.6923 -55.858q42 -57 137 -57q31 0 70 7q163 56 230 127h9q20 -60 108 -279z" />
    <glyph glyph-name="bullet" unicode="&#x2022;" horiz-adv-x="1150" 
d="M1055 864q0 -199 -140.5 -339.5t-339.5 -140.5t-339.5 140.5t-140.5 339.5q0 198 140.5 339t339.5 141t339.5 -141t140.5 -339z" />
    <glyph glyph-name="nonbreakingspace" unicode="&#xa0;" horiz-adv-x="650" 
 />
    <glyph glyph-name="endash" unicode="&#x2013;" horiz-adv-x="1400" 
d="M1341 899l-36 -315l-1207 53l-40 280zM1292 819l-1171 49l14 -175l1117 -51z" />
    <glyph glyph-name="emdash" unicode="&#x2014;" horiz-adv-x="1800" 
d="M1743 899l-36 -315l-1609 53l-40 280zM1694 819l-1573 49l14 -175l1519 -51z" />
    <glyph glyph-name="quotedblleft" unicode="&#x201c;" horiz-adv-x="1415" 
d="M1389 1197q-24 -19 -50 -77q-25 -52 -65 -78q-84 -54 -172 -54q-179 0 -284 134q-23 30 -59 135q-39 25 -39 35l1 10q37 13 52 63q24 83 25 84q93 177 231 278l208 -158q-20 -21 -77 -59q-53 -34 -74 -62l6 -6q29 6 59 6q130 0 206 -95q23 -30 28 -75zM695 1197
q-25 -19 -51 -77q-25 -52 -65 -78q-84 -54 -172 -54q-178 0 -284 134q-23 30 -58 135q-39 25 -39 35l1 10q36 13 51 63q25 83 25 84q93 177 232 278l207 -158q-20 -21 -77 -59q-52 -34 -74 -62l6 -6q29 6 59 6q131 0 206 -95q24 -30 28 -75q2 -40 5 -81zM1339 1258
q0 75 -47 87q0 -20 13 -55q15 -40 30 -41q4 3 4 9zM1288 1220q0 12 -50 25q-43 11 -63 11q-46 0 -80 -22q20 3 43 3q14 0 148 -21q2 2 2 4zM1306 1153q-14 -14 -47 -40q-17 48 -38 68q-6 1 -12 1q-18 0 -40 -17l-36 -28q-46 78 -104 78q-11 0 -22 -2q1 8 48 35.5t47 71.5
q0 8 -1 18q-40 -13 -39 -13q-35 0 -35 39q0 34 36 34q26 0 62.5 -43.5t65.5 -43.5q56 0 75 57q-56 45 -147 45q-51 0 -97 -15l-6 6q10 43 56 93l81 77l-115 106q-171 -136 -207 -293q17 -19 49 -19q24 0 35 19q6 5 14 30q6 19 20 19q10 -14 31 -69q17 -44 42 -62q3 -6 24 -6
q12 0 12 -7l-2 -8q-95 -18 -158 -118h-6q-11 0 -18 18.5t-20 17.5l-7 1q-6 0 -6 -14v-5q78 -151 262 -151q60 0 121 32q68 35 82 88zM978 1290q-55 6 -103 26q-76 0 -107 -29q24 9 55 9q20 0 58.5 -5.5t58.5 -5.5q21 0 38 5zM645 1258q0 75 -48 87q0 -20 13 -55
q15 -40 30 -41q4 3 5 9zM593 1220q0 12 -50 25q-43 11 -62 11q-46 0 -80 -22q20 3 42 3q15 0 149 -21q1 2 1 4zM611 1153q-14 -14 -46 -40q-18 48 -38 68q-6 1 -12 1q-19 0 -41 -17l-36 -28q-45 78 -104 78q-10 0 -22 -2q2 8 50 36q45 27 45 71q0 8 -1 18q-39 -13 -38 -13
q-36 0 -36 39q0 34 37 34q25 0 61.5 -43.5t66.5 -43.5q55 0 74 57q-55 45 -147 45q-51 0 -97 -15l-6 6q10 43 57 93l80 77l-115 106q-170 -136 -207 -293q18 -19 49 -19q24 0 36 19q5 5 13 30q6 19 20 19q10 -14 31 -69q18 -44 42 -62q3 -6 24 -6q12 0 12 -7l-2 -8
q-95 -18 -158 -118h-6q-11 0 -17.5 18.5t-20.5 17.5l-7 1q-6 0 -5 -14v-5q77 -151 261 -151q61 0 121 32q68 35 82 88zM283 1290q-55 6 -103 26q-76 0 -107 -29q25 9 55 9q20 0 59 -5.5t58 -5.5q21 0 38 5z" />
    <glyph glyph-name="quotedblright" unicode="&#x201d;" horiz-adv-x="1415" 
d="M1389 1423l-1 -10q-36 -13 -51 -63q-25 -83 -25 -84q-93 -177 -232 -278l-207 158q20 21 77 59q52 34 74 62l-6 6q-29 -6 -59 -6q-131 0 -206 95q-24 30 -28 75q-2 40 -5 81q25 19 51 77q25 52 65 78q84 54 172 54q178 0 284 -134q23 -30 58 -135q39 -25 39 -35z
M695 1423l-1 -10q-37 -13 -52 -63q-24 -83 -25 -84q-93 -177 -231 -278l-208 158q20 21 77 59q53 34 74 62l-6 6q-29 -6 -59 -6q-130 0 -206 95q-23 30 -28 75l-4 81q24 19 50 77q25 52 65 78q84 54 172 54q179 0 284 -134q23 -30 59 -135q39 -25 39 -35zM1342 1428
q-25 -9 -55 -9q-20 0 -59 5.5t-58 5.5q-21 0 -38 -5q55 -6 103 -26q76 0 107 29zM1279 1328q-18 19 -49 19q-24 0 -36 -19q-5 -5 -13 -29q-6 -20 -20 -20q-10 14 -31 69q-18 44 -42 62q-3 6 -24 6q-12 0 -12 7l2 8q95 18 158 118h6q11 0 17.5 -18.5t20.5 -17.5l7 -1
q6 0 5 14v5q-77 151 -261 151q-61 0 -121 -32q-68 -35 -82 -88q14 15 46 40q18 -48 38 -68q6 -1 12 -1q19 0 41 17l36 28q45 -78 104 -78q10 0 22 2q-2 -8 -48.5 -35.5t-46.5 -71.5q0 -8 1 -18q39 13 38 13q36 0 36 -39q0 -34 -37 -34q-25 0 -61.5 43.5t-66.5 43.5
q-55 0 -74 -57q55 -45 147 -45q51 0 97 15l6 -6q-10 -43 -57 -93l-80 -77l115 -105q170 135 207 292zM1014 1482q-20 -4 -42 -4q-15 0 -149 21q-1 -2 -1 -4q0 -12 50 -25q43 -11 62 -11q46 0 80 23zM818 1370q0 20 -13 55q-15 40 -30 41q-4 -3 -5 -9q0 -75 48 -87zM647 1428
q-24 -9 -55 -9q-20 0 -58.5 5.5t-58.5 5.5q-21 0 -38 -5q55 -6 103 -26q76 0 107 29zM584 1328q-17 19 -49 19q-24 0 -35 -19q-6 -5 -14 -29q-6 -20 -20 -20q-10 14 -31 69q-17 44 -42 62q-3 6 -24 6q-12 0 -12 7l2 8q95 18 158 118h6q11 0 18 -18.5t20 -17.5l7 -1q6 0 6 14
v5q-78 151 -262 151q-60 0 -121 -32q-68 -35 -82 -88q14 15 47 40q17 -48 38 -68q6 -1 12 -1q18 0 40 17l36 28q46 -78 104 -78q11 0 22 2q-1 -8 -48 -35.5t-47 -71.5q0 -8 1 -18q40 13 39 13q35 0 35 -39q0 -34 -36 -34q-26 0 -62.5 43.5t-65.5 43.5q-56 0 -75 -57
q56 -45 147 -45q51 0 97 15l6 -6q-10 -43 -56 -93l-81 -77l115 -105q171 135 207 292zM320 1482q-20 -4 -43 -4q-14 0 -148 21q-2 -2 -2 -4q0 -12 50 -25q43 -11 63 -11q46 0 80 23zM123 1370q0 20 -13 55q-15 40 -30 41q-4 -3 -4 -9q0 -75 47 -87z" />
    <glyph glyph-name="quoteleft" unicode="&#x2018;" 
d="M695 1197q-25 -19 -51 -77q-25 -52 -65 -78q-84 -54 -172 -54q-178 0 -284 134q-23 30 -58 135q-40 25 -40 35l2 10q36 13 51 63q24 83 25 84q93 177 232 278l207 -158q-20 -21 -77 -59q-52 -34 -74 -62l6 -6q29 6 59 6q131 0 206 -95q24 -30 28 -75q2 -40 5 -81z
M645 1258q0 75 -48 87q0 -20 13 -55q15 -40 30 -41q4 3 5 9zM593 1220q0 12 -50 25q-43 11 -62 11q-46 0 -81 -22q21 3 43 3q15 0 149 -21q1 2 1 4zM611 1153q-14 -14 -46 -40q-18 48 -38 68q-7 1 -13 1q-18 0 -40 -17l-36 -28q-45 78 -104 78q-10 0 -22 -2q2 8 50 36
q45 27 45 71q0 8 -1 18q-40 -13 -39 -13q-35 0 -35 39q0 34 36 34q26 0 62.5 -43.5t66.5 -43.5q55 0 74 57q-56 45 -147 45q-51 0 -97 -15l-6 6q10 43 56 93l81 77l-115 106q-171 -136 -207 -293q17 -19 49 -19q24 0 35 19q6 5 14 30q6 19 20 19q10 -14 31 -69
q17 -44 42 -62q3 -6 24 -6q12 0 12 -7l-2 -8q-95 -18 -158 -118h-6q-11 0 -18 18.5t-20 17.5l-7 1q-6 0 -6 -14l1 -5q77 -151 261 -151q60 0 121 32q68 35 82 88zM283 1290q-55 6 -103 26q-76 0 -107 -29q24 9 55 9q20 0 58.5 -5.5t58.5 -5.5q21 0 38 5z" />
    <glyph glyph-name="quoteright" unicode="&#x2019;" 
d="M695 1423l-2 -10q-36 -13 -51 -63q-24 -83 -25 -84q-93 -177 -232 -278l-207 158q20 21 77 59q52 34 74 62l-6 6q-29 -6 -59 -6q-131 0 -206 95q-24 30 -28 75q-2 40 -5 81q25 19 51 77q25 52 65 78q84 54 172 54q178 0 284 -134q23 -30 58 -135q40 -25 40 -35zM647 1428
q-24 -9 -55 -9q-20 0 -58.5 5.5t-58.5 5.5q-21 0 -38 -5q55 -6 103 -26q76 0 107 29zM584 1328q-17 19 -49 19q-24 0 -35 -19q-6 -5 -14 -29q-6 -20 -20 -20q-10 14 -31 69q-17 44 -42 62q-3 6 -24 6q-12 0 -12 7l2 8q95 18 158 118h6q11 0 18 -18.5t20 -17.5l7 -1q6 0 6 14
l-1 5q-77 151 -261 151q-60 0 -121 -32q-68 -35 -82 -88q14 15 46 40q18 -48 38 -68q7 -1 13 -1q18 0 40 17l36 28q45 -78 104 -78q10 0 22 2q-2 -8 -48.5 -35.5t-46.5 -71.5q0 -8 1 -18q40 13 39 13q35 0 35 -39q0 -34 -36 -34q-26 0 -62.5 43.5t-66.5 43.5q-55 0 -74 -57
q56 -45 147 -45q51 0 97 15l6 -6q-10 -43 -56 -93l-81 -77l115 -105q171 135 207 292zM320 1482q-21 -4 -43 -4q-15 0 -149 21q-1 -2 -1 -4q0 -12 50 -25q43 -11 62 -11q46 0 81 23zM123 1370q0 20 -13 55q-15 40 -30 41q-4 -3 -5 -9q0 -75 48 -87z" />
    <glyph glyph-name="daggerdbl" unicode="&#x2021;" horiz-adv-x="2975" 
d="M2897 0h-756v514l-378 -514h-562l-364 512v-512h-759v1728h963l441 -520l441 520h974v-1728zM2845 52v1623h-897l-466 -548l-465 548h-887v-1623h655v624l443 -624h509l457 621v-621h651zM2831 981q0 -18 -36.5 -43.5t-58.5 -25.5q-7 0 -48.5 11t-68.5 11q-95 0 -95 -20
q0 -10 101.5 -46t101.5 -82q0 -73 -111 -121q-90 -40 -173 -40q-153 0 -153 82q0 13 50 39q47 24 63 24q37 0 37 -32q0 -51 106 -52q1.84839 -0.0302734 3.64087 -0.0302734q57.3591 0 57.3591 31.0303q0 24 -96.5 55t-96.5 77q0 21 24 53q86 111 338 111q55 0 55 -32z
M2436 1004q-32 -28 -103 -68q-27 0 -81 -9q-25 -40 -66 -231q-14 -63 -92 -63q-95 0 -95 20q0 39 37 126l68 152q-7 3 -18 3q-13 0 -38.5 -5.5t-33.5 -5.5q-14 0 -14 10q0 11 27 38.5t42 27.5q5 0 62 11l67 163q48 82 153 82q27 0 37 -12q-35 -46 -62 -112l-42 -115
q22.3142 -3.45715 45.0237 -3.45715q49.5479 0 100.976 16.4572q11 2 14 -3q0.888916 -1.33337 0.888916 -3.35803q0 -2.53088 -1.38892 -6.14197q-2.5 -6.5 -7.5 -12.5zM1906 901q-3 -24 -22 -86q-18 -56 -18 -85q0 -31 16.5 -55t16.5 -23q0 -14 -59 -14q-89 0 -94 2
q-34 10 -34 69q0 28 19.5 89.5t19.5 75.5q-23 0 -109 -94q-76 -82 -111 -133q-5 -7 -49 -6q-76 1 -76 37q0 4 46.5 125t46.5 125q0 13 -15 13q-7 0 -26 -5t-25 -5q-11 0 -11 10q9 19 60 45.5t75 26.5q94 0 94 -53q0 -21 -24 -71.5t-24 -74.5q8 5 94 84q70 65 97 65l70 -16
q43 -10 43 -35q0 -5 -1 -11zM1360 930q0 -107 -143 -206q-139 -96 -274 -96q-119 0 -121 83q0 67 102 155q88 77 164 103q90 31 99 31q3 0 4 -5t-2 -7q-197 -141 -197 -267q0 -31 49 -31q39 0 107 62t68 106q0 42 -46 42q-8 0 -20 -1t-16 -1q-13 0 -13 7q42 53 136 83
q103 0 103 -58zM1178.01 1464.3q0 -32.0607 -90.0109 -101.3q-86 -65 -104 -65q-17 0 -17 9q0 5 7 20.5t7 24.5q0 35 -96 35q9 0 -185 -21q-53 -150 -139 -373q176 28 400 56q3 -4 20 -9q14 -4 14 -12q0 -2 -1 -5q-32 -33 -180 -115q-15 -4 -18 8q-3 18 -3 19q-7 1 -21 1
q-48 0 -137 -10.5t-102 -17.5l-108 -326q-75 -222 -136 -325q-11 -19 -45 -19q-19 0 -18 12q23 267 146 641q-75 -15 -206 -54q-20 0 -20 28q42 32 115 55l124 37l106 376q-4.05884 0.529419 -9.25433 0.529419q-24.2457 0 -73.2457 -11.5294q-59.5 -14 -78.5 -24
q-3 -11 15 -23.5t18 -21.5q0 -16 -40 -29q-31 -10 -53 -10q-55 0 -55 39q0 71 235 139q382 111 630 111q98.4979 0.320312 98.0109 -38.7002z" />
    <glyph glyph-name="periodcentered" unicode="&#xb7;" horiz-adv-x="1200" 
d="M1080 864q0 -199 -140.5 -339.5t-339.5 -140.5t-339.5 140.5t-140.5 339.5q0 198 140.5 339t339.5 141t339.5 -141t140.5 -339zM993 864q0 162 -115 277t-278 115t-277.5 -115t-114.5 -277q0 -163 114.5 -278t277.5 -115t278 115t115 278z" />
    <glyph glyph-name="periodcentered" unicode="&#x2219;" horiz-adv-x="1200" 
d="M1080 864q0 -199 -140.5 -339.5t-339.5 -140.5t-339.5 140.5t-140.5 339.5q0 198 140.5 339t339.5 141t339.5 -141t140.5 -339zM993 864q0 162 -115 277t-278 115t-277.5 -115t-114.5 -277q0 -163 114.5 -278t277.5 -115t278 115t115 278z" />
    <glyph glyph-name="HT" horiz-adv-x="650" 
 />
    <glyph glyph-name="apple" unicode="&#xf000;" horiz-adv-x="1375" 
d="M1129 1742q-386 -501 -459 -501q-44 0 -44 96q0 67 22 101q45 71 225 155q200 93 256 149zM1306 969q0 -150 -80 -150q-42 0 -114 124t-144 124q-69 0 -168.5 -57.5t-147.5 -57.5q-64 0 -138.5 56t-125.5 56q-124 0 -124 -148q0 -111 56 -197q80 -122 95 -165l24 -174
q20 -132 67 -132q56 0 106.5 72t90.5 72q37 0 86 -45t73 -45q49 0 112 92.5t74 92.5q29 0 80 -27q56 -29 56 -54q0 -17 -15 -40q-25 -37 -98 -120q-65 -72 -93 -124q-36 -66 -75 -84q-17 -8 -33 -8q-31 0 -93.5 55.5t-115.5 55.5q-22 0 -104.5 -74.5
q-74.5 -67.2758 -138.807 -67.2758q-6.90543 -2.38419e-07 -13.6933 0.775758q-64 7 -95 103q-20 59 -34 194q-13 129 -26 162q-12 29 -114 204q-66 112 -66 229q0 337 298 337q50 0 142 -37.5t142 -37.5q54 0 153.5 52t187.5 52q129 0 220 -79q94 -83 94 -210z" />
    </font>
</defs>
</svg>
