<?xml version="1.0" standalone="no"?>
<!DOCTYPE svg PUBLIC "-//W3C//DTD SVG 1.1//EN" "http://www.w3.org/Graphics/SVG/1.1/DTD/svg11.dtd" >
<svg>
<metadata>
Created by FontForge 20071110 at Tue Jul 15 00:04:56 2008
 By Tillmann Vogt,,,
LinuxLibertine by Philipp H. Poll, Free Font under Terms of the GPL (General Public License - http://www.gnu.org/copyleft/gpl.html) and OFL (Open Font Licence). Created with FontForge 1.0 (http://fontforge.sf.net) Sept 2003, 2004, 2005, 2006, 2007
</metadata>
<defs>
<font id="LinLibertineO" horiz-adv-x="759" >
  <font-face 
    font-family="Linux Libertine O"
    font-weight="400"
    font-stretch="normal"
    units-per-em="1000"
    panose-1="2 0 5 3 0 0 0 0 0 0"
    ascent="800"
    descent="-200"
    x-height="431"
    cap-height="646"
    bbox="-1082 -312 6171 894"
    underline-thickness="39"
    underline-position="-136"
    stemh="27"
    stemv="75"
    unicode-range="U+0020-U+FFFD"
  />
<missing-glyph horiz-adv-x="500" 
d="M50 605v-510l170 255zM80 50h340l-170 255zM280 350l170 -255v510zM250 395l170 255h-340zM0 0v700h500v-700h-500z" />
    <glyph glyph-name="ellipsis" unicode="&#x2e;&#x2e;&#x2e;" horiz-adv-x="749" 
d="M57 41c0 29 24 53 53 53s53 -24 53 -53s-24 -53 -53 -53s-53 24 -53 53zM320 41c0 29 24 53 54 53c29 0 53 -24 53 -53s-24 -53 -53 -53c-30 0 -54 24 -54 53zM586 41c0 29 24 53 53 53s53 -24 53 -53s-24 -53 -53 -53s-53 24 -53 53z" />
    <glyph glyph-name="exclamdbl" unicode="&#x21;&#x21;" horiz-adv-x="411" 
d="M297 660c27 0 56 -23 56 -73c0 -65 -16 -107 -26 -193c-13 -107 -15 -167 -16 -181c-1 -12 -4 -20 -14 -20c-12 0 -14 7 -14 13c-2 20 -8 110 -15 188c-10 89 -26 123 -26 193c0 55 32 73 55 73zM243 43c0 30 24 54 53 54c30 0 54 -24 54 -54c0 -29 -24 -53 -54 -53
c-29 0 -53 24 -53 53zM113 658c27 0 56 -23 56 -73c0 -65 -16 -107 -26 -193c-13 -108 -14 -168 -16 -182c-1 -11 -4 -20 -14 -20c-11 0 -13 7 -14 13c-2 21 -7 111 -15 189c-9 88 -25 123 -25 193c0 54 32 73 54 73zM60 41c0 29 23 53 53 53c29 0 53 -24 53 -53
s-24 -53 -53 -53c-30 0 -53 24 -53 53z" />
    <glyph glyph-name="question_question" unicode="&#x3f;&#x3f;" horiz-adv-x="781" 
d="M473 572c0 -15 2 -21 6 -26s6 -11 6 -24c0 -23 -20 -35 -39 -35c-16 0 -41 8 -41 43c0 38 21 66 51 90c29 25 71 39 124 39c102 0 165 -60 165 -151c0 -79 -59 -123 -106 -157c-23 -17 -43 -33 -52 -50c-13 -25 -18 -49 -18 -73v-44c0 -7 -6 -10 -13 -10
c-8 0 -13 3 -13 10v46c0 43 2 102 67 161c40 37 60 66 60 113c0 65 -43 125 -100 125s-97 -27 -97 -57zM503 41c0 29 24 53 53 53s53 -24 53 -53s-24 -53 -53 -53s-53 24 -53 53zM97 572c0 -15 2 -21 6 -26s6 -11 6 -24c0 -23 -20 -35 -39 -35c-16 0 -41 8 -41 43
c0 38 21 66 51 90c29 25 71 39 124 39c102 0 165 -60 165 -151c0 -79 -59 -123 -106 -157c-23 -17 -43 -33 -52 -50c-13 -25 -18 -49 -18 -73v-44c0 -7 -5 -10 -13 -10s-13 3 -13 10v46c0 43 2 102 67 161c40 37 60 66 60 113c0 65 -43 125 -100 125s-97 -27 -97 -57z
M127 41c0 29 24 53 53 53s53 -24 53 -53s-24 -53 -53 -53s-53 24 -53 53z" />
    <glyph glyph-name="question_exclam" unicode="&#x3f;&#x21;" horiz-adv-x="594" 
d="M480 660c27 0 56 -23 56 -73c0 -65 -15 -108 -26 -193c-12 -108 -14 -168 -15 -182c-1 -11 -5 -20 -15 -20c-11 0 -13 7 -14 13c-2 21 -7 111 -15 189c-9 88 -25 123 -25 193c0 54 32 73 54 73zM427 43c0 29 24 53 53 53s53 -24 53 -53s-24 -53 -53 -53s-53 24 -53 53z
M97 572c0 -15 2 -21 6 -26s6 -11 6 -24c0 -23 -20 -35 -39 -35c-16 0 -41 8 -41 43c0 38 21 66 51 90c29 25 71 39 124 39c102 0 165 -60 165 -151c0 -79 -59 -123 -106 -157c-23 -17 -43 -33 -52 -50c-13 -25 -18 -49 -18 -73v-44c0 -7 -5 -10 -13 -10s-13 3 -13 10v46
c0 43 2 102 67 161c40 37 60 66 60 113c0 65 -43 125 -100 125s-97 -27 -97 -57zM127 41c0 29 24 53 53 53s53 -24 53 -53s-24 -53 -53 -53s-53 24 -53 53z" />
    <glyph glyph-name="exclam_question" unicode="&#x21;&#x3f;" horiz-adv-x="587" 
d="M113 658c27 0 56 -23 56 -73c0 -65 -16 -107 -26 -193c-13 -108 -14 -168 -16 -182c-1 -11 -4 -20 -14 -20c-11 0 -13 7 -14 13c-2 21 -7 111 -15 189c-9 88 -25 123 -25 193c0 54 32 73 54 73zM60 41c0 29 23 53 53 53c29 0 53 -24 53 -53s-24 -53 -53 -53
c-30 0 -53 24 -53 53zM278 570c0 -15 3 -21 7 -26s6 -11 6 -24c0 -23 -20 -35 -40 -35c-15 0 -40 8 -40 43c0 38 21 66 50 90c30 25 72 39 124 39c102 0 165 -60 165 -151c0 -79 -58 -123 -105 -157c-24 -17 -44 -33 -52 -50c-14 -25 -18 -49 -18 -73v-44
c0 -7 -6 -10 -14 -10c-7 0 -12 3 -12 10v46c0 43 2 102 67 161c40 37 60 66 60 113c0 65 -43 125 -101 125c-57 0 -97 -27 -97 -57zM309 39c0 29 24 53 53 53s53 -24 53 -53s-24 -53 -53 -53s-53 24 -53 53z" />
    <glyph glyph-name="centigrade" unicode="&#xb0;C" horiz-adv-x="799" 
d="M542 -16c-186 0 -298 145 -298 290c0 193 127 306 286 306c138 0 168 -37 199 -38c3 -56 10 -102 21 -150l-29 -4c-26 93 -80 158 -188 158c-79 0 -202 -46 -202 -258c0 -137 83 -262 211 -262c84 0 132 27 198 110l23 -15c-60 -88 -124 -137 -221 -137zM210 557
c0 32 -22 73 -66 73c-43 0 -67 -38 -67 -73s25 -71 67 -71c41 0 66 36 66 71zM44 558c0 55 44 100 100 100c55 0 99 -45 99 -100s-44 -100 -99 -100c-56 0 -100 45 -100 100z" />
    <glyph glyph-name="fahrenheit" unicode="&#xb0;F" horiz-adv-x="802" 
d="M476 504v-196h132c36 0 44 17 51 45l7 29c0 5 3 9 7 9h22c2 0 3 -2 3 -5c-3 -23 -8 -61 -8 -95s4 -64 8 -96l-2 -3h-23c-6 0 -8 4 -8 7l-6 31c-6 29 -17 44 -51 44h-132v-202c0 -31 15 -44 55 -44h26c5 0 8 -3 8 -8v-19l-2 -2l-125 2c-36 0 -129 -2 -129 -2l-2 2v19
c0 5 3 8 7 8h27c41 0 55 16 55 44v432c0 29 -9 44 -52 44h-30c-7 0 -8 5 -8 7v20l4 2l125 -2l74 1l248 1c5 -54 14 -115 21 -156l-29 -4c-22 68 -40 120 -115 120h-122c-24 0 -36 -9 -36 -33zM210 557c0 32 -22 73 -66 73c-43 0 -67 -38 -67 -73s25 -71 67 -71
c41 0 66 36 66 71zM44 558c0 55 44 100 100 100c55 0 99 -45 99 -100s-44 -100 -99 -100c-56 0 -100 45 -100 100z" />
    <glyph glyph-name="f_b" unicode="fb" horiz-adv-x="770" 
d="M436 56c20 -24 45 -38 76 -38c20 0 72 5 105 58c24 38 39 86 39 150c0 26 -3 80 -34 125c-22 30 -46 49 -80 49c-21 0 -41 -3 -58 -11c-19 -9 -35 -19 -48 -33v-300zM361 578c0 5 0 9 -1 13c-12 4 -22 13 -28 27c-13 32 -32 48 -62 48c-33 0 -103 -23 -103 -177v-59h110
c5 0 8 -2 8 -6v-20c0 -9 -14 -13 -23 -13h-95v-319c0 -29 10 -44 43 -44h18c4 0 8 -3 8 -8v-19l-2 -2s-67 2 -106 2c-36 0 -104 -2 -104 -2l-2 2v19c0 5 3 8 8 8h19c34 0 43 15 43 44v319h-69c-4 0 -5 1 -5 5v14c0 8 5 20 23 20h51v42c0 156 113 228 197 228
c35 0 61 -8 83 -23c14 5 25 13 42 21h22v-311c12 13 24 24 37 31c29 18 58 26 89 26c35 0 69 -11 99 -39c49 -44 72 -99 72 -166c0 -78 -24 -139 -72 -186c-14 -13 -30 -26 -48 -36c-25 -16 -57 -27 -96 -27c-42 0 -78 12 -107 37c-10 -10 -21 -27 -32 -38l-20 5
c2 23 3 39 3 78v506z" />
    <glyph glyph-name="f_f_b" unicode="ffb" horiz-adv-x="1031" 
d="M697 696v-309c12 13 25 24 37 31c29 18 58 26 89 26c35 0 69 -11 99 -39c50 -44 73 -99 73 -166c0 -78 -25 -139 -73 -186c-14 -13 -29 -26 -47 -36c-26 -16 -58 -27 -97 -27c-42 0 -78 12 -107 37c-9 -10 -21 -27 -31 -38l-21 5c3 23 3 39 3 78v505v12h-4
c-28 0 -37 22 -47 43c-10 20 -36 34 -60 34c-23 0 -57 -9 -71 -82c-6 -34 -7 -79 -7 -99v-55h110c5 0 8 -2 8 -6v-20c0 -9 -14 -13 -24 -13h-94v-319c0 -29 10 -44 43 -44h25c5 0 9 -3 9 -8v-19l-2 -2s-75 2 -114 2c-36 0 -104 -2 -104 -2l-2 2v19c0 5 3 8 8 8h19
c34 0 43 15 43 44v319h-191v-319c0 -29 10 -44 43 -44h19c4 0 8 -3 8 -8v-19l-2 -2s-68 2 -107 2c-36 0 -104 -2 -104 -2l-2 2v19c0 5 3 8 8 8h19c34 0 43 15 43 44v319h-69c-4 0 -5 1 -5 5v14c0 8 5 20 23 20h51c0 122 26 194 95 235c21 12 44 19 71 19
c80 0 123 -34 136 -59c34 54 95 76 132 76c36 0 67 -9 90 -22c2 0 4 0 6 1c18 3 33 8 53 16h22zM697 56c20 -24 45 -38 76 -38c20 0 72 5 105 58c24 38 39 86 39 150c0 26 -2 80 -34 125c-22 30 -46 49 -80 49c-21 0 -40 -3 -58 -11c-19 -9 -35 -19 -48 -33v-300zM368 567
l-3 -2c-50 0 -39 57 -74 79c-16 10 -24 12 -35 12c-15 0 -57 -13 -78 -93c-6 -19 -11 -54 -11 -122v-11h191v42c0 20 1 59 10 95z" />
    <glyph glyph-name="f_f_h" unicode="ffh" horiz-adv-x="1052" 
d="M896 72v202c0 81 -21 119 -67 119c-29 0 -72 -17 -131 -73v-248c0 -29 10 -44 43 -44h19c4 0 8 -3 8 -8v-19l-2 -2s-68 2 -107 2c-36 0 -96 -2 -96 -2l-1 2v19c0 5 2 8 7 8h11c34 0 43 15 43 44v506v11h-6c-28 0 -37 22 -47 43c-10 20 -36 36 -60 36
c-22 0 -56 -11 -70 -84c-6 -34 -7 -79 -7 -99v-55h110c5 0 8 -2 8 -6v-20c0 -9 -14 -13 -24 -13h-94v-319c0 -29 10 -44 43 -44h19c5 0 8 -3 8 -8v-19l-2 -2s-68 2 -107 2c-36 0 -104 -2 -104 -2l-2 2v19c0 5 3 8 8 8h19c34 0 43 15 43 44v319h-191v-319
c0 -29 10 -44 43 -44h19c4 0 8 -3 8 -8v-19l-2 -2s-68 2 -107 2c-36 0 -104 -2 -104 -2l-2 2v19c0 5 3 8 8 8h19c34 0 43 15 43 44v319h-69c-4 0 -5 1 -5 5v14c0 8 5 20 23 20h51c0 122 26 194 95 235c21 12 44 19 71 19c80 0 123 -34 136 -59c34 54 95 78 131 78
c37 0 68 -10 90 -23c3 0 6 1 8 1c18 4 33 8 53 17h22v-341c67 67 136 83 175 83c72 0 97 -55 97 -158v-210c0 -29 10 -44 43 -44h19c5 0 9 -3 9 -8v-19l-2 -2s-69 2 -108 2c-35 0 -103 -2 -103 -2l-2 2v19c0 5 3 8 7 8h20c33 0 43 15 43 44zM368 567l-3 -2
c-50 0 -39 57 -74 79c-16 10 -24 12 -35 12c-15 0 -57 -13 -78 -93c-6 -19 -11 -54 -11 -122v-11h191v42c0 20 1 59 10 95z" />
    <glyph glyph-name="f_f_j" unicode="ffj" horiz-adv-x="794" 
d="M368 567l-3 -2c-50 0 -39 57 -74 79c-16 10 -24 12 -35 12c-15 0 -57 -13 -78 -93c-6 -19 -11 -54 -11 -122v-11h191v42c0 20 1 59 10 95zM643 29v310c0 40 -3 52 -29 52h-181v-319c0 -29 10 -44 43 -44h32c4 0 8 -3 8 -8v-19l-2 -2s-81 2 -120 2c-36 0 -104 -2 -104 -2
l-2 2v19c0 5 3 8 8 8h19c34 0 43 15 43 44v319h-191v-319c0 -29 10 -44 43 -44h19c4 0 8 -3 8 -8v-19l-2 -2s-68 2 -107 2c-36 0 -104 -2 -104 -2l-2 2v19c0 5 3 8 8 8h19c34 0 43 15 43 44v319h-69c-4 0 -5 1 -5 5v14c0 8 5 20 23 20h51c0 122 26 194 95 235
c21 12 44 19 71 19c80 0 123 -34 136 -59c27 35 85 75 151 75c37 0 64 -10 89 -27c37 -24 71 -63 71 -100c0 -21 -20 -39 -40 -39c-32 0 -48 24 -60 79c-8 42 -39 54 -72 54s-100 -24 -100 -178v-59h189c35 0 67 14 80 14h15v-384c0 -131 -9 -186 -65 -242
c-26 -26 -55 -38 -80 -38c-29 0 -90 15 -90 49c0 31 26 35 29 35c23 0 33 -24 38 -40c4 -10 9 -15 19 -15c45 0 75 79 75 220z" />
    <glyph glyph-name="f_f_k" unicode="ffk" horiz-adv-x="1018" 
d="M368 567l-3 -2c-50 0 -39 57 -74 79c-16 10 -24 12 -35 12c-15 0 -57 -13 -78 -93c-6 -19 -11 -54 -11 -122v-11h191v42c0 20 1 59 10 95zM697 211v-139c0 -29 11 -44 43 -44h19c5 0 9 -3 9 -8v-19l-2 -2s-69 2 -108 2c-35 0 -103 -2 -103 -2l-2 2v19c0 5 3 8 8 8h19
c33 0 43 15 43 44v506v11c-26 2 -35 23 -45 43s-32 34 -56 34c-22 0 -68 -9 -82 -82c-6 -34 -7 -79 -7 -99v-55h110c5 0 8 -2 8 -6v-20c0 -9 -14 -13 -24 -13h-94v-319c0 -29 10 -44 43 -44h19c4 0 8 -3 8 -8v-19l-2 -2s-68 2 -107 2c-36 0 -104 -2 -104 -2l-2 2v19
c0 5 3 8 8 8h19c34 0 43 15 43 44v319h-191v-319c0 -29 10 -44 43 -44h19c4 0 8 -3 8 -8v-19l-2 -2s-68 2 -107 2c-36 0 -104 -2 -104 -2l-2 2v19c0 5 3 8 8 8h19c34 0 43 15 43 44v319h-69c-4 0 -5 1 -5 5v14c0 8 5 20 23 20h51c0 122 26 194 95 235c21 12 44 19 71 19
c80 0 123 -34 136 -59c27 56 89 76 146 76c32 0 62 -8 82 -20c19 4 33 8 53 17h22v-462c44 22 77 53 131 111c15 16 20 29 20 39c0 8 -5 16 -29 16h-4c-5 0 -8 4 -8 8v19l3 2s47 -2 83 -2c39 0 93 2 93 2l4 -2v-19c0 -5 -7 -8 -11 -8h-7c-27 0 -72 -22 -96 -48l-76 -84
c-3 -3 -5 -7 -5 -11s3 -9 5 -13l118 -173c19 -27 49 -45 75 -45h3c6 0 12 -3 12 -8v-18l-2 -3s-50 2 -89 2c-36 0 -62 -2 -62 -2l-3 4v17c0 12 -3 24 -23 53l-73 103c-14 19 -26 36 -49 36c-3 0 -6 0 -10 -1z" />
    <glyph glyph-name="f_f_t" unicode="fft" horiz-adv-x="844" 
d="M564 391h-131v-319c0 -29 10 -44 43 -44h32c4 0 8 -3 8 -8v-19l-2 -2s-81 2 -120 2c-36 0 -104 -2 -104 -2l-2 2v19c0 5 3 8 8 8h19c34 0 43 15 43 44v319h-191v-319c0 -29 10 -44 43 -44h19c4 0 8 -3 8 -8v-19l-2 -2s-68 2 -107 2c-36 0 -104 -2 -104 -2l-2 2v19
c0 5 3 8 8 8h19c34 0 43 15 43 44v319h-69c-4 0 -5 1 -5 5v14c0 8 5 20 23 20h51c0 122 26 194 95 235c21 12 44 19 71 19c80 0 123 -34 136 -59c34 54 89 76 126 76c74 0 120 -36 120 -77c0 -20 -15 -35 -35 -35c-27 0 -37 22 -47 43c-10 20 -30 34 -54 34
c-22 0 -50 -9 -64 -82c-6 -34 -7 -79 -7 -99v-55h131c78 0 87 36 87 115v19l57 20v-154h112v-39h-112v-255c0 -62 7 -91 34 -91c29 0 56 15 71 27l16 -14c-26 -40 -68 -69 -118 -69c-46 0 -77 28 -77 100v302h-70zM368 567l-3 -2c-50 0 -39 57 -74 79c-16 10 -24 12 -35 12
c-15 0 -57 -13 -78 -93c-6 -19 -11 -54 -11 -122v-11h191v42c0 20 1 59 10 95z" />
    <glyph glyph-name="f_h" unicode="fh" horiz-adv-x="790" 
d="M436 357c66 67 136 83 175 83c72 0 97 -55 97 -158v-210c0 -29 10 -44 43 -44h19c4 0 8 -3 8 -8v-19l-2 -2s-68 2 -107 2c-36 0 -104 -2 -104 -2l-2 2v19c0 5 3 8 8 8h19c34 0 43 15 43 44v202c0 81 -20 119 -67 119c-28 0 -71 -17 -130 -73v-248c0 -29 10 -44 43 -44h19
c4 0 8 -3 8 -8v-19l-2 -2s-68 2 -108 2c-35 0 -103 -2 -103 -2l-2 2v19c0 5 3 8 8 8h19c34 0 43 15 43 44v506c0 5 0 9 -1 13c-12 4 -22 13 -28 27c-13 32 -32 48 -62 48c-33 0 -103 -23 -103 -177v-59h110c5 0 8 -2 8 -6v-20c0 -9 -14 -13 -23 -13h-95v-319
c0 -29 10 -44 43 -44h18c4 0 8 -3 8 -8v-19l-2 -2s-67 2 -106 2c-36 0 -104 -2 -104 -2l-2 2v19c0 5 3 8 8 8h19c34 0 43 15 43 44v319h-69c-4 0 -5 1 -5 5v14c0 8 5 20 23 20h51v42c0 156 113 228 197 228c35 0 61 -8 83 -23c14 5 25 13 42 21h22v-341z" />
    <glyph glyph-name="f_j" unicode="fj" horiz-adv-x="529" 
d="M377 37v302c0 40 -3 52 -29 52h-181v-319c0 -29 10 -44 43 -44h33c4 0 8 -3 8 -8v-19l-2 -2s-82 2 -121 2c-36 0 -104 -2 -104 -2l-2 2v19c0 5 3 8 8 8h19c34 0 43 15 43 44v319h-69c-4 0 -5 1 -5 5v14c0 8 5 20 23 20h51v17c0 197 104 253 188 253c38 0 64 -10 89 -27
c37 -24 70 -63 70 -100c0 -21 -20 -39 -40 -39c-31 0 -48 24 -59 79c-9 42 -40 54 -72 54c-33 0 -101 -24 -101 -178v-59h189c35 0 67 14 81 14h15v-377c0 -130 -10 -186 -65 -241c-27 -27 -56 -39 -80 -39c-30 0 -90 15 -90 49c0 32 25 35 29 35c23 0 33 -24 38 -40
c3 -10 8 -15 19 -15c44 0 74 80 74 221z" />
    <glyph glyph-name="f_k" unicode="fk" horiz-adv-x="761" 
d="M436 210v-138c0 -29 10 -44 43 -44h19c4 0 8 -3 8 -8v-19l-2 -2s-68 2 -108 2c-35 0 -103 -2 -103 -2l-2 2v19c0 5 3 8 8 8h19c34 0 43 15 43 44v506c0 5 0 9 -1 13c-12 4 -22 13 -28 27c-13 32 -32 48 -62 48c-33 0 -103 -23 -103 -177v-59h110c5 0 8 -2 8 -6v-20
c0 -9 -14 -13 -23 -13h-95v-319c0 -29 10 -44 43 -44h18c4 0 8 -3 8 -8v-19l-2 -2s-67 2 -106 2c-36 0 -104 -2 -104 -2l-2 2v19c0 5 3 8 8 8h19c34 0 43 15 43 44v319h-69c-4 0 -5 1 -5 5v14c0 8 5 20 23 20h51v42c0 156 113 228 197 228c35 0 61 -8 83 -23
c14 5 25 13 42 21h22v-463c45 22 78 52 134 112c15 16 20 29 20 39c0 8 -6 16 -29 16h-4c-5 0 -9 4 -9 8v19l3 2s48 -2 83 -2c39 0 94 2 94 2l3 -2v-19c0 -5 -6 -8 -10 -8h-8c-26 0 -71 -22 -95 -48l-77 -84c-2 -3 -4 -6 -4 -10c0 -5 2 -10 5 -14l118 -173
c18 -27 49 -45 74 -45h3c7 0 13 -3 13 -8v-18l-2 -3s-50 2 -89 2c-36 0 -62 -2 -62 -2l-3 4v17c0 12 -3 24 -23 53l-73 103c-14 19 -26 36 -49 36c-4 0 -9 -1 -13 -2z" />
    <glyph glyph-name="f_t" unicode="ft" horiz-adv-x="575" 
d="M92 72v319h-69c-4 0 -5 1 -5 5v14c0 8 5 20 23 20h51v39c0 156 81 229 165 229c38 0 64 -10 89 -27c20 -15 29 -32 29 -48c0 -21 -15 -36 -34 -36c-20 0 -33 11 -41 28c-13 33 -32 49 -62 49c-33 0 -71 -24 -71 -178v-56h128c78 0 87 36 87 115v19l57 20v-154h112v-39
h-112v-255c0 -62 7 -91 34 -91c28 0 56 15 71 27l16 -14c-26 -40 -68 -69 -118 -69c-46 0 -77 28 -77 100v302h-198v-319c0 -29 10 -44 43 -44h33c4 0 8 -3 8 -8v-19l-2 -2s-82 2 -121 2c-36 0 -104 -2 -104 -2l-2 2v19c0 5 3 8 8 8h19c34 0 43 15 43 44z" />
    <glyph glyph-name="c_k" unicode="ck" horiz-adv-x="838" 
d="M527 205v-133c0 -29 11 -44 43 -44h2c5 0 9 -3 9 -8v-19l-2 -2s-52 2 -91 2c-35 0 -103 -2 -103 -2l-2 2v19c0 5 3 8 8 8h19c33 0 43 15 43 44v506c0 47 -10 68 -30 68c0 0 -15 -2 -25 -3c-3 0 -7 -1 -8 -1c-3 0 -5 3 -5 5l-2 25c16 0 53 6 70 9c18 4 32 8 52 17h22v-462
c44 22 77 53 132 111c15 16 20 29 20 39c0 8 -6 16 -30 16h-3c-5 0 -9 4 -9 8v19l3 2s48 -2 83 -2c39 0 93 2 93 2l4 -2v-19c0 -5 -6 -8 -10 -8h-8c-27 0 -71 -22 -95 -48l-77 -84c-3 -3 -4 -6 -4 -10c0 -5 2 -10 5 -14l118 -173c18 -27 49 -45 74 -45h3c7 0 13 -3 13 -8
v-18l-2 -3s-50 2 -89 2c-36 0 -62 -2 -62 -2l-3 4v17c0 12 -3 24 -23 53l-74 103c-13 19 -25 36 -48 36c-4 0 -7 0 -11 -1v-6zM374 94c-44 -76 -92 -103 -151 -103c-120 0 -186 92 -186 221c0 142 80 232 187 232c96 0 147 -49 147 -102c0 -30 -18 -44 -38 -44
c-22 0 -42 11 -45 35c-3 34 -10 77 -69 77c-66 0 -105 -68 -105 -176c0 -117 53 -199 131 -199c43 0 80 28 111 73z" />
    <glyph glyph-name="c_h" unicode="ch" horiz-adv-x="874" 
d="M717 72v204c0 81 -21 119 -67 119c-29 0 -72 -17 -131 -73v-250c0 -29 10 -44 43 -44h19c4 0 8 -3 8 -8v-19l-2 -2s-68 2 -107 2c-36 0 -76 -2 -76 -2l-2 2v19c0 5 3 8 8 8h2c26 0 32 15 32 44v506c0 47 -9 68 -29 68l-33 -4c-3 0 -5 2 -5 5l-2 25c16 0 52 6 69 9
c18 4 33 8 53 17h22v-339c67 67 136 83 175 83c73 0 98 -55 98 -158v-212c0 -29 10 -44 42 -44h20c4 0 8 -3 8 -8v-19l-2 -2s-68 2 -108 2c-35 0 -103 -2 -103 -2l-2 2v19c0 5 3 8 8 8h19c34 0 43 15 43 44zM374 94c-44 -76 -92 -103 -151 -103c-120 0 -186 92 -186 221
c0 142 80 232 187 232c96 0 147 -49 147 -102c0 -30 -18 -44 -38 -44c-22 0 -42 11 -45 35c-3 34 -10 77 -69 77c-66 0 -105 -68 -105 -176c0 -117 53 -199 131 -199c43 0 80 28 111 73z" />
    <glyph glyph-name="Haskell logo" unicode="hlogo" horiz-adv-x="874"
d="M 0,340.15625 113.38672,170.07812 0,0 85.039062,0 198.42578,170.07812 85.039062,340.15625 0,340.15625 z M 113.38672,340.15625 226.77344,170.07812 113.38672,0 l 85.03906,0 226.76953,340.15625 -85.03906,0 -70.86328,-106.29688 -70.86719,106.29688 -85.03906,0 z" />
    <glyph glyph-name="t_t" unicode="tt" horiz-adv-x="582" 
d="M302 391h-138v-255c0 -62 6 -91 33 -91c29 0 56 15 72 27l15 -14c-26 -40 -68 -69 -117 -69c-47 0 -78 28 -78 100v302h-69v39c77 0 86 36 86 115v19l58 20v-154h138c78 0 87 36 87 115v19l57 20v-154h111c5 0 7 -2 7 -6v-20c0 -9 -13 -13 -23 -13h-95v-255
c0 -62 7 -91 33 -91c29 0 57 15 72 27l15 -14c-25 -40 -67 -69 -117 -69c-47 0 -77 28 -77 100v302h-70z" />
    <glyph glyph-name="T_h" unicode="Th" horiz-adv-x="1009" 
d="M125 606c-55 0 -68 -12 -88 -92l-30 5c12 53 18 105 22 154l27 -4c0 -6 0 -23 21 -23h391c88 0 117 12 170 52h22v-341c67 67 125 83 164 83c72 0 108 -55 108 -158v-210c0 -29 10 -44 43 -44h19c5 0 8 -3 8 -8v-19l-2 -2s-68 2 -107 2c-36 0 -103 -2 -103 -2l-2 2v19
c0 5 3 8 7 8h19c34 0 43 15 43 44v202c0 81 -31 119 -77 119c-29 0 -61 -17 -120 -73v-248c0 -29 10 -44 43 -44h19c4 0 8 -3 8 -8v-19l-2 -2s-68 2 -107 2c-36 0 -104 -2 -104 -2l-2 2v19c0 5 3 8 8 8h19c34 0 43 15 43 44v467c0 55 -9 67 -79 67h-120
c-36 0 -48 -8 -48 -42v-492c0 -31 15 -44 55 -44h26c4 0 8 -3 8 -8v-19l-2 -2s-87 2 -126 2c-36 0 -129 -2 -129 -2l-2 2v19c0 5 3 8 8 8h27c41 0 54 16 54 44v495c0 31 -12 39 -48 39h-84z" />
    <glyph glyph-name="germandbls.ss03" unicode="ss" horiz-adv-x="689" 
d="M369 140l27 1c3 -25 15 -72 36 -96c10 -11 27 -29 64 -29c33 0 78 31 78 77c0 43 -20 71 -99 105c-73 32 -106 54 -106 129c0 63 55 115 133 115c50 0 82 -9 114 -25c6 -32 9 -66 10 -102l-26 -1c-21 82 -76 98 -97 98c-38 0 -72 -21 -72 -70c0 -40 14 -59 68 -79
c81 -30 142 -67 142 -147c0 -95 -98 -128 -142 -128c-35 0 -55 4 -81 11c-6 1 -12 2 -19 2c-5 0 -13 -1 -23 -3c0 42 -3 93 -7 142zM48 140l27 1c3 -25 13 -73 36 -96c10 -11 32 -29 69 -29c35 0 77 30 77 77c0 43 -14 71 -93 105c-73 32 -106 54 -106 129
c0 63 59 115 133 115c50 0 77 -9 108 -25c6 -32 10 -66 11 -102l-27 -1c-20 82 -71 98 -92 98c-38 0 -72 -16 -72 -70c0 -40 14 -59 69 -79c81 -30 137 -67 137 -147c0 -95 -96 -128 -143 -128c-35 0 -59 4 -85 11c-7 1 -12 2 -19 2c-5 0 -14 -1 -23 -3c0 42 -3 93 -7 142z
" />
    <glyph glyph-name="f_i.sc" unicode="&#xe056;&#xe059;" horiz-adv-x="714" 
d="M614 402v-337c0 -22 11 -37 42 -37h21c3 0 6 -2 6 -6v-21l-1 -2s-68 2 -99 2c-27 0 -112 -2 -112 -2l-1 2v21c0 4 2 6 6 6h21c31 0 42 18 42 37v337c0 22 -12 32 -42 32h-21c-3 0 -7 1 -7 4v22l2 2s79 -2 110 -2c28 0 101 2 101 2l1 -2v-21c0 -3 -2 -5 -6 -5h-21
c-31 0 -42 -12 -42 -32zM173 410v-148h94c27 0 34 11 39 31l5 21c1 4 2 6 6 6h17c2 0 2 -1 2 -3c-2 -23 -5 -51 -5 -75c0 -25 3 -45 5 -68l-2 -3h-17c-5 0 -6 3 -7 6l-4 22c-5 20 -14 31 -39 31h-94v-171c0 -22 12 -31 43 -31h20c4 0 7 -3 7 -6v-21l-1 -2s-80 2 -111 2
c-27 0 -100 -2 -100 -2l-2 2v21c0 3 3 6 7 6h20c32 0 43 11 43 31v343c0 21 -7 32 -40 32h-24c-5 0 -6 4 -6 5v22l3 1l97 -2l70 1h200c1 -42 7 -81 13 -119l-25 -2c-8 36 -32 93 -81 93h-104c-19 0 -29 -6 -29 -23z" />
    <glyph glyph-name="f_l.sc" unicode="&#xe056;&#xe05c;" horiz-adv-x="863" 
d="M725 29c60 0 81 45 96 96l26 -3c-13 -49 -20 -90 -21 -122h-183l-73 1c-9 0 -20 -1 -99 -2l-2 2v21c0 4 3 6 7 6h23c33 0 40 7 40 32v342c0 22 -12 32 -42 32h-21c-3 0 -7 2 -7 6v20l2 2s68 -2 98 -2c28 0 113 2 113 2l1 -2v-20c0 -4 -2 -6 -6 -6h-21
c-31 0 -42 -12 -42 -32v-348c0 -19 11 -25 28 -25h83zM173 410v-148h94c27 0 34 11 39 31l5 21c1 4 2 6 6 6h17c2 0 2 -1 2 -3c-2 -23 -5 -51 -5 -75c0 -25 3 -45 5 -68l-2 -3h-17c-5 0 -6 3 -7 6l-4 22c-5 20 -14 31 -39 31h-94v-171c0 -22 12 -31 43 -31h20c4 0 7 -3 7 -6
v-21l-1 -2s-80 2 -111 2c-27 0 -100 -2 -100 -2l-2 2v21c0 3 3 6 7 6h20c32 0 43 11 43 31v343c0 21 -7 32 -40 32h-24c-5 0 -6 4 -6 5v22l3 1l97 -2l70 1h200c1 -42 7 -81 13 -119l-25 -2c-8 36 -32 93 -81 93h-104c-19 0 -29 -6 -29 -23z" />
    <glyph glyph-name="f_f" unicode="ff" horiz-adv-x="568" 
d="M640 624c0 -20 -15 -35 -35 -35c-27 0 -37 19 -47 40c-9 20 -30 34 -54 34c-22 0 -50 -9 -64 -82c-6 -34 -7 -79 -7 -99v-52h110c5 0 8 -2 8 -6v-20c0 -9 -14 -13 -24 -13h-94v-319c0 -29 10 -44 43 -44h32c4 0 8 -3 8 -8v-19l-2 -2s-81 2 -120 2c-36 0 -104 -2 -104 -2
l-2 2v19c0 5 3 8 8 8h19c34 0 43 15 43 44v319h-191v-319c0 -29 10 -44 43 -44h19c4 0 8 -3 8 -8v-19l-2 -2s-68 2 -107 2c-36 0 -104 -2 -104 -2l-2 2v19c0 5 3 8 8 8h19c34 0 43 15 43 44v319h-69c-4 0 -5 1 -5 5v14c0 8 5 20 23 20h51c0 122 26 191 95 232
c21 12 44 19 71 19c80 0 123 -34 136 -58c34 53 89 75 126 75c74 0 120 -33 120 -74zM368 564l-3 -2c-50 0 -39 57 -74 79c-16 10 -24 12 -35 12c-15 0 -57 -13 -78 -93c-6 -19 -11 -54 -11 -122v-8h191v39c0 20 1 59 10 95z" />
    <glyph glyph-name="f_i" unicode="fi" horiz-adv-x="542" 
d="M348 391h-181v-319c0 -29 10 -44 43 -44h33c4 0 8 -3 8 -8v-19l-2 -2s-82 2 -121 2c-36 0 -104 -2 -104 -2l-2 2v19c0 5 3 8 8 8h19c34 0 43 15 43 44v319h-69c-4 0 -5 1 -5 5v14c0 8 5 20 23 20h51v14c0 198 104 254 188 254c38 0 64 -11 89 -27c37 -25 70 -64 70 -101
c0 -20 -20 -38 -40 -38c-31 0 -48 24 -59 78c-9 43 -40 55 -72 55c-33 0 -101 -25 -101 -179v-56h189c35 0 67 12 81 12h15v-370c0 -29 10 -44 43 -44h19c4 0 8 -3 8 -8v-19l-2 -2s-68 2 -107 2c-36 0 -104 -2 -104 -2l-2 2v19c0 5 3 8 8 8h19c34 0 43 15 43 44v249
c0 57 -3 70 -29 70z" />
    <glyph glyph-name="f_l" unicode="fl" horiz-adv-x="526" 
d="M361 72v504c0 4 0 8 -1 12c-12 4 -22 14 -28 27c-13 33 -32 49 -62 49c-33 0 -103 -24 -103 -178v-56h110c5 0 8 -2 8 -6v-20c0 -9 -14 -13 -23 -13h-95v-319c0 -29 10 -44 43 -44h18c4 0 8 -3 8 -8v-19l-2 -2s-67 2 -106 2c-36 0 -104 -2 -104 -2l-2 2v19c0 5 3 8 8 8
h19c34 0 43 15 43 44v319h-69c-4 0 -5 1 -5 5v14c0 8 5 20 23 20h51v39c0 156 113 229 197 229c35 0 61 -8 83 -23c14 5 25 15 42 23h22v-626c0 -29 10 -44 43 -44h23c4 0 8 -3 8 -8v-19l-2 -2s-72 2 -112 2c-35 0 -93 -2 -93 -2l-2 2v19c0 5 3 8 8 8h9c34 0 43 15 43 44z
" />
    <glyph glyph-name="f_f_i" unicode="ffi" horiz-adv-x="808" 
d="M368 565l-3 -2c-50 0 -39 56 -74 79c-16 9 -24 11 -35 11c-15 0 -57 -12 -78 -92c-6 -19 -11 -52 -11 -120v-11h191v39c0 21 1 60 10 96zM92 72v319h-69c-4 0 -5 1 -5 5v14c0 8 5 20 23 20h51c0 122 26 192 95 232c21 13 44 19 71 19c80 0 123 -33 136 -58
c27 35 85 75 151 75c37 0 64 -11 89 -27c37 -25 71 -64 71 -101c0 -20 -20 -38 -40 -38c-32 0 -48 24 -60 78c-8 43 -39 55 -72 55s-100 -25 -100 -179v-56h189c35 0 67 14 80 14h15v-372c0 -29 11 -44 43 -44h19c5 0 9 -3 9 -8v-19l-2 -2s-69 2 -108 2
c-35 0 -103 -2 -103 -2l-2 2v19c0 5 3 8 8 8h19c33 0 43 15 43 44v267c0 40 -3 52 -29 52h-181v-319c0 -29 10 -44 43 -44h32c4 0 8 -3 8 -8v-19l-2 -2s-81 2 -120 2c-36 0 -104 -2 -104 -2l-2 2v19c0 5 3 8 8 8h19c34 0 43 15 43 44v319h-191v-319c0 -29 10 -44 43 -44h19
c4 0 8 -3 8 -8v-19l-2 -2s-68 2 -107 2c-36 0 -104 -2 -104 -2l-2 2v19c0 5 3 8 8 8h19c34 0 43 15 43 44z" />
    <glyph glyph-name="f_f_l" unicode="ffl" horiz-adv-x="784" 
d="M367 562h-2c-25 0 -35 15 -41 29c-11 26 -27 55 -67 55c-31 0 -63 -26 -79 -86c-6 -19 -11 -54 -11 -122v-8h191v39c0 20 1 57 9 93zM433 391v-319c0 -29 10 -44 43 -44h19c4 0 8 -3 8 -8v-19l-2 -2s-68 2 -107 2c-36 0 -104 -2 -104 -2l-2 2v19c0 5 3 8 8 8h19
c34 0 43 15 43 44v319h-191v-319c0 -29 10 -44 43 -44h19c4 0 8 -3 8 -8v-19l-2 -2s-68 2 -107 2c-36 0 -104 -2 -104 -2l-2 2v19c0 5 3 8 8 8h19c34 0 43 15 43 44v319h-69c-4 0 -5 1 -5 5v14c0 8 5 20 23 20h51c0 82 12 129 26 156c22 46 69 95 140 95
c79 0 119 -34 132 -53c17 31 62 70 118 70s100 -26 109 -36c20 6 49 28 59 36h22v-626c0 -29 10 -44 43 -44h19c4 0 8 -3 8 -8v-19l-2 -2s-68 2 -107 2c-36 0 -104 -2 -104 -2l-2 2v19c0 5 3 8 8 8h19c34 0 43 15 43 44v521c-6 -5 -14 -7 -22 -7c-21 0 -35 10 -41 28
c-4 12 -18 50 -55 50c-26 0 -55 -27 -65 -83c-6 -34 -7 -79 -7 -99v-52h110c5 0 8 -2 8 -6v-20c0 -9 -14 -13 -24 -13h-94z" />
    <glyph glyph-name=".notdef" horiz-adv-x="500" 
d="M50 605v-510l170 255zM80 50h340l-170 255zM280 350l170 -255v510zM250 395l170 255h-340zM0 0v700h500v-700h-500z" />
    <glyph glyph-name="space" unicode=" " horiz-adv-x="250" d=""
 />
    <glyph glyph-name="exclam" unicode="!" horiz-adv-x="227" 
d="M113 658c27 0 56 -23 56 -73c0 -65 -16 -107 -26 -193c-13 -108 -14 -168 -16 -182c-1 -11 -4 -20 -14 -20c-11 0 -13 7 -14 13c-2 21 -7 111 -15 189c-9 88 -25 123 -25 193c0 54 32 73 54 73zM60 41c0 29 23 53 53 53c29 0 53 -24 53 -53s-24 -53 -53 -53
c-30 0 -53 24 -53 53z" />
    <glyph glyph-name="quotedbl" unicode="&#x22;" horiz-adv-x="336" 
d="M215 427c0 0 -26 159 -26 168c0 22 21 50 51 50c26 0 35 -17 35 -33s-33 -181 -33 -181zM89 426c0 0 -27 159 -27 168c0 22 21 50 52 50c26 0 34 -17 34 -33s-32 -181 -32 -181z" />
    <glyph glyph-name="numbersign" unicode="#" horiz-adv-x="438" 
d="M266 231l17 110h-110l-18 -110h111zM316 341l-18 -110h90l-7 -48h-89l-28 -170h-33l26 170h-109l-28 -170h-33l27 170h-90l7 48h91l17 110h-90l8 49h90l27 170h34l-28 -170h111l26 170h33l-27 -170h91l-8 -49h-90z" />
    <glyph glyph-name="dollar" unicode="$" horiz-adv-x="438" 
d="M91 10c-16 0 -13 -11 -34 -11c0 37 -8 91 -16 147l26 3c16 -61 61 -120 130 -128v243c-60 27 -152 72 -152 170c0 87 86 130 152 137v56h34v-55c47 -2 79 -8 116 -8c3 -45 12 -94 20 -143l-26 -4l-5 18c-20 66 -50 101 -105 106v-214c57 -22 168 -70 168 -171
c0 -33 -8 -159 -168 -168v-69h-34v69c-55 3 -87 22 -106 22zM231 251v-229c40 6 96 32 96 105c0 80 -55 108 -96 124zM197 342v199c-47 -8 -88 -44 -88 -103c0 -47 49 -78 88 -96z" />
    <glyph glyph-name="percent" unicode="%" horiz-adv-x="637" 
d="M432 77c0 -52 26 -67 45 -67c55 0 91 92 91 147c0 52 -31 61 -45 61c-49 0 -91 -84 -91 -141zM380 91c0 76 58 159 132 159c40 0 86 -19 86 -91c0 -68 -44 -178 -127 -178c-61 0 -91 58 -91 110zM364 515c42 0 109 10 150 54l38 -7l-413 -576l-37 9l360 502
c-39 -16 -78 -19 -108 -19c-23 0 -61 10 -80 21c2 -8 3 -17 3 -25c0 -65 -44 -177 -128 -177c-62 0 -90 57 -90 109c0 76 59 159 131 159c28 0 57 -13 67 -25c54 -25 89 -25 107 -25zM110 392c0 -52 27 -66 45 -66c55 0 91 89 91 147c0 49 -27 60 -45 60
c-49 0 -91 -83 -91 -141z" />
    <glyph glyph-name="ampersand" unicode="&#x26;" horiz-adv-x="705" 
d="M250 338c-103 -57 -127 -111 -127 -182c0 -98 56 -135 119 -135c71 0 105 40 154 107c-57 75 -135 189 -146 210zM421 94c-46 -63 -101 -106 -186 -106c-107 0 -191 46 -191 168c0 79 52 145 184 219c-37 64 -50 104 -50 142c0 59 53 127 153 127c70 0 127 -42 127 -105
c0 -55 -65 -120 -148 -168l4 -8c18 -31 76 -114 122 -176c71 105 102 168 102 193c0 11 -6 16 -16 16h-28c-5 0 -5 4 -5 7v17l1 2s53 -2 87 -2s87 2 87 2l2 -2v-16c0 -6 -5 -8 -9 -8h-28c-32 0 -48 -28 -84 -94c0 0 -45 -88 -85 -149l34 -46c31 -44 61 -65 77 -65
c33 0 56 17 76 56l16 -8c-23 -70 -63 -102 -98 -102c-31 0 -68 4 -115 69zM288 411c64 42 103 92 103 128c0 45 -24 71 -65 71c-26 0 -76 -25 -76 -91c0 -23 12 -59 38 -108z" />
    <glyph glyph-name="quotesingle" unicode="'" horiz-adv-x="190" 
d="M79 426c0 0 -26 159 -26 168c0 22 21 50 51 50c26 0 35 -17 35 -33s-33 -181 -33 -181z" />
    <glyph glyph-name="parenleft" unicode="(" horiz-adv-x="295" 
d="M44 252c0 186 93 353 212 455l18 -18c-32 -36 -152 -174 -152 -437s119 -401 152 -439l-18 -17c-208 180 -212 411 -212 456z" />
    <glyph glyph-name="parenright" unicode=")" horiz-adv-x="295" 
d="M252 252c0 -187 -93 -354 -212 -455l-18 17c32 37 152 175 152 438s-119 401 -152 439l18 17c208 -180 212 -411 212 -456z" />
    <glyph glyph-name="asterisk" unicode="*" horiz-adv-x="433" 
d="M198 567c-13 3 -27 4 -42 4c-49 0 -81 7 -81 37c0 14 9 30 33 30c34 0 52 -33 96 -51c-4 39 -23 66 -23 92c0 21 12 39 30 39s33 -11 33 -35c0 -27 -17 -67 -19 -97c46 20 62 52 95 52c27 0 34 -20 34 -30c0 -30 -35 -37 -69 -37c-19 0 -37 -1 -55 -4
c34 -37 83 -47 83 -87c0 -18 -15 -29 -29 -29c-39 0 -46 65 -71 104c-25 -45 -32 -104 -70 -104c-17 0 -29 13 -29 28c0 43 51 51 84 88z" />
    <glyph glyph-name="plus" unicode="+" horiz-adv-x="527" 
d="M289 256h172v-49h-172v-173h-50v173h-173v49h173v174h50v-174z" />
    <glyph glyph-name="comma" unicode="," horiz-adv-x="219" 
d="M104 95c40 0 66 -39 66 -99c0 -70 -50 -103 -110 -114l-5 25c52 13 76 43 76 64c0 23 -17 27 -36 29c-18 3 -44 11 -44 44c0 28 22 51 53 51z" />
    <glyph glyph-name="hyphen" unicode="-" horiz-adv-x="333" 
d="M274 236h-226c-9 0 -15 8 -15 17c0 16 13 37 25 37h229c10 0 14 -9 14 -18c0 -11 -14 -36 -27 -36z" />
    <glyph glyph-name="period" unicode="." horiz-adv-x="219" 
d="M57 41c0 29 24 53 53 53s53 -24 53 -53s-24 -53 -53 -53s-53 24 -53 53z" />
    <glyph glyph-name="slash" unicode="/" horiz-adv-x="291" 
d="M282 682l-237 -703h-41l237 703h41z" />
    <glyph glyph-name="zero" unicode="0" horiz-adv-x="438" 
d="M219 543c-43 0 -106 -42 -106 -275c0 -82 15 -247 103 -247c17 0 65 11 86 89c13 48 20 108 20 195c0 127 -32 198 -61 223c-11 10 -26 15 -42 15zM215 -12c-107 0 -179 137 -179 290c0 187 89 300 183 300c43 0 86 -27 115 -66c42 -56 64 -131 64 -225
c0 -222 -110 -299 -183 -299z" />
    <glyph glyph-name="one" unicode="1" horiz-adv-x="438" 
d="M188 477c-19 0 -63 -18 -85 -28l-12 31c88 41 122 62 172 98h19v-503c0 -36 5 -46 38 -46h52c3 0 8 -2 8 -8v-22l-137 2l-139 -2v22c1 3 2 8 8 8h60c38 0 38 17 38 46v344c0 34 0 58 -22 58z" />
    <glyph glyph-name="two" unicode="2" horiz-adv-x="438" 
d="M58 443c0 57 55 135 160 135c77 0 167 -29 167 -144c0 -76 -39 -114 -93 -166l-95 -92c-5 -5 -72 -71 -72 -118h170c34 0 52 17 66 72l25 -4l-20 -126h-309c0 56 9 99 102 194l70 69c56 57 79 106 79 167c0 91 -62 117 -96 117c-69 0 -88 -36 -88 -60c0 -8 2 -16 4 -23
s4 -14 4 -22c0 -26 -20 -36 -36 -36c-22 0 -38 17 -38 37z" />
    <glyph glyph-name="three" unicode="3" horiz-adv-x="438" 
d="M216 547c-25 0 -98 -14 -98 -75c0 -18 -7 -49 -34 -49c-26 0 -28 29 -28 32c0 31 41 123 180 123c97 0 126 -61 126 -101c0 -25 -8 -75 -98 -132c56 -9 130 -50 130 -154c0 -132 -100 -203 -213 -203c-57 0 -137 25 -137 63c0 15 15 32 35 32c19 0 28 -10 37 -23
c11 -17 29 -41 77 -41c33 0 127 33 127 159c0 107 -75 124 -129 124c-9 0 -20 -2 -31 -4l-4 30c77 13 141 88 141 134c0 57 -40 85 -81 85z" />
    <glyph glyph-name="four" unicode="4" horiz-adv-x="438" 
d="M258 355c0 7 1 15 10 20c11 8 29 17 44 17c13 0 14 -11 14 -31v-161h81l-6 -47h-75v-83c0 -28 4 -42 33 -42h27c6 0 7 -5 7 -7v-22s-64 2 -106 2c-38 0 -97 -2 -97 -2v22c0 2 1 7 7 7h27c31 0 34 13 34 42v83h-196c-4 0 -6 2 -9 6l-8 11l-12 21c-1 0 -1 1 -1 2s1 2 2 3
c65 72 180 295 216 377c1 4 3 5 7 5c1 0 23 -9 35 -11c-45 -121 -119 -251 -192 -367h158v155z" />
    <glyph glyph-name="five" unicode="5" horiz-adv-x="438" 
d="M309 169c0 103 -56 154 -118 154c-46 0 -81 -7 -120 -23l32 273c33 -3 67 -4 102 -4c50 0 102 3 156 9l6 -3l-15 -65c-39 -4 -71 -5 -99 -5c-45 0 -79 4 -114 8l-19 -158c21 8 57 15 96 15c106 0 165 -92 165 -184c0 -112 -78 -198 -191 -198c-57 0 -140 32 -140 71
c0 19 16 32 34 32c20 0 33 -15 45 -31c15 -18 31 -38 63 -38c64 0 117 60 117 147z" />
    <glyph glyph-name="six" unicode="6" horiz-adv-x="438" 
d="M116 262c-1 -10 -1 -25 -1 -35c0 -168 75 -210 125 -210c46 0 95 43 95 147c0 47 -24 143 -120 143c-21 0 -59 -2 -99 -45zM378 552c-65 -6 -121 -23 -169 -70c-46 -45 -79 -112 -90 -192c23 28 78 49 116 49c148 0 167 -122 167 -168c0 -68 -34 -183 -172 -183
c-73 0 -184 43 -184 242c0 92 31 182 100 251c64 65 131 92 229 97z" />
    <glyph glyph-name="seven" unicode="7" horiz-adv-x="438" 
d="M150 508c-44 0 -59 -18 -78 -69l-26 4c12 41 22 79 25 135h21c4 -6 7 -11 30 -11h190c36 0 57 1 73 6l15 -7c-106 -258 -162 -414 -216 -575l-65 -3l-3 6c64 144 140 330 214 514h-180z" />
    <glyph glyph-name="eight" unicode="8" horiz-adv-x="438" 
d="M222 554c-57 0 -94 -45 -94 -89c0 -29 12 -64 72 -103l29 -18c26 19 87 65 87 116c0 44 -32 94 -94 94zM375 459c0 -61 -69 -109 -111 -137l58 -38c49 -32 74 -76 74 -131c0 -72 -59 -165 -183 -165c-100 0 -169 53 -169 150c0 37 16 80 55 114c24 21 45 39 69 57l-17 10
c-58 36 -87 75 -87 128c0 73 66 131 163 131c93 0 148 -51 148 -119zM215 16c43 0 118 23 118 118c0 45 -28 90 -87 126l-44 27c-81 -54 -99 -121 -99 -149c0 -85 69 -122 112 -122z" />
    <glyph glyph-name="nine" unicode="9" horiz-adv-x="438" 
d="M319 304c0 10 1 25 1 35c0 168 -75 210 -126 210c-46 0 -94 -43 -94 -147c0 -48 24 -143 119 -143c21 0 59 2 100 45zM56 14c66 6 121 23 170 70c45 45 78 112 90 192c-23 -28 -79 -49 -116 -49c-148 0 -168 122 -168 168c0 68 34 183 172 183c74 0 185 -43 185 -242
c0 -92 -32 -182 -100 -251c-64 -65 -132 -92 -230 -97z" />
    <glyph glyph-name="colon" unicode=":" horiz-adv-x="219" 
d="M64 353c0 29 24 53 54 53c29 0 53 -24 53 -53s-24 -53 -53 -53c-30 0 -54 24 -54 53zM64 90c0 30 24 54 54 54c29 0 53 -24 53 -54c0 -29 -24 -53 -53 -53c-30 0 -54 24 -54 53z" />
    <glyph glyph-name="semicolon" unicode=";" horiz-adv-x="219" 
d="M55 353c0 29 24 53 53 53s53 -24 53 -53s-24 -53 -53 -53s-53 24 -53 53zM105 95c40 0 66 -39 66 -99c0 -70 -50 -103 -110 -114l-5 25c52 13 76 43 76 64c0 23 -17 27 -36 29c-18 3 -44 11 -44 44c0 28 22 51 53 51z" />
    <glyph glyph-name="less" unicode="&#x3c;" horiz-adv-x="487" 
d="M122 239l317 -116v-50l-390 142v48l390 141v-50z" />
    <glyph glyph-name="equal" unicode="=" horiz-adv-x="527" 
d="M461 318v-49h-395v49h395zM461 193v-49h-395v49h395z" />
    <glyph glyph-name="greater" unicode="&#x3e;" horiz-adv-x="487" 
d="M366 236l-317 116v50l390 -142v-48l-390 -141v50z" />
    <glyph glyph-name="question" unicode="?" horiz-adv-x="405" 
d="M97 572c0 -15 2 -21 6 -26s6 -11 6 -24c0 -23 -20 -35 -39 -35c-16 0 -41 8 -41 43c0 38 21 66 51 90c29 25 71 39 124 39c102 0 165 -60 165 -151c0 -79 -59 -123 -106 -157c-23 -17 -43 -33 -52 -50c-13 -25 -18 -49 -18 -73v-44c0 -7 -5 -10 -13 -10s-13 3 -13 10v46
c0 43 2 102 67 161c40 37 60 66 60 113c0 65 -43 125 -100 125s-97 -27 -97 -57zM127 41c0 29 24 53 53 53s53 -24 53 -53s-24 -53 -53 -53s-53 24 -53 53z" />
    <glyph glyph-name="at" unicode="@" horiz-adv-x="895" 
d="M569 316c0 38 -29 63 -65 63c-17 0 -60 -9 -90 -40c-51 -51 -68 -115 -68 -177c0 -48 15 -92 78 -92c35 0 84 57 115 130c13 31 30 82 30 116zM583 74c0 -10 9 -12 11 -12c102 0 166 47 166 213c0 206 -176 306 -301 306c-152 0 -320 -103 -320 -340
c0 -150 76 -366 334 -366c85 0 147 23 201 66l13 -18c-60 -46 -120 -81 -233 -81c-239 0 -395 168 -395 381c0 215 185 388 410 388c215 0 370 -142 370 -329c0 -114 -70 -255 -288 -255c-29 0 -36 25 -36 41c0 15 7 38 15 63l-2 1c-44 -74 -98 -103 -133 -103
c-100 0 -122 84 -122 124c0 143 127 257 233 257c33 0 67 -17 77 -43l5 24l53 13l15 -5l-60 -258c-6 -27 -13 -58 -13 -67z" />
    <glyph glyph-name="A" unicode="A" horiz-adv-x="695" 
d="M259 283h179l-99 267l-104 -249c-1 -4 -2 -6 -2 -9c0 -6 7 -9 26 -9zM140 72c-3 -7 -4 -13 -4 -19c0 -16 16 -25 46 -25h29c4 0 8 -3 8 -8v-19l-2 -2s-99 2 -123 2c-26 0 -90 -2 -90 -2l-2 2v19c0 5 3 8 8 8h12c41 0 59 19 73 53l234 547c9 23 17 30 27 30
c18 0 26 -10 34 -30l205 -542c14 -39 34 -58 74 -58h11c5 0 10 -3 10 -8v-19l-3 -2s-77 2 -116 2c-35 0 -133 -2 -133 -2l-1 2v19c0 5 2 8 7 8h28c31 0 47 11 47 27c0 5 -1 11 -3 17l-64 172h-211c-24 0 -32 -6 -36 -17z" />
    <glyph glyph-name="B" unicode="B" horiz-adv-x="592" 
d="M187 575v-202h79c83 0 149 33 149 118c0 102 -80 120 -136 120c-87 0 -92 -3 -92 -36zM187 338v-266c0 -33 7 -39 88 -39c152 0 187 91 187 152c0 90 -64 153 -181 153h-94zM17 20c0 5 2 8 7 8h30c40 0 52 11 52 46v500c0 34 -10 44 -52 44h-30c-5 0 -7 3 -7 7v20l2 1
l127 -1s91 1 126 1c186 0 220 -86 220 -153c0 -55 -42 -109 -93 -134c106 -24 152 -92 152 -185c0 -86 -58 -175 -257 -175c-72 0 -148 2 -148 2l-127 -2l-2 2v19z" />
    <glyph glyph-name="C" unicode="C" horiz-adv-x="644" 
d="M355 -12c-215 0 -318 166 -318 327c0 197 153 343 319 343c123 0 162 -42 219 -45c3 -55 12 -103 22 -155l-30 -4c-26 86 -84 167 -222 167c-79 0 -221 -84 -221 -287c0 -146 75 -305 230 -305c93 0 161 33 232 111l23 -15c-68 -89 -157 -137 -254 -137z" />
    <glyph glyph-name="D" unicode="D" horiz-adv-x="697" 
d="M17 19c0 5 3 9 7 9h30c38 0 52 14 52 46v498c0 36 -10 46 -52 46h-28c-5 0 -9 3 -9 8v18l2 2l126 -1s130 1 164 1c192 0 345 -152 345 -338c0 -246 -186 -309 -327 -309c-103 0 -182 2 -182 2l-126 -2l-2 2v18zM187 72c0 -32 11 -39 109 -39c141 0 266 49 266 251
c0 154 -75 329 -291 329c-49 0 -84 -4 -84 -39v-502z" />
    <glyph glyph-name="E" unicode="E" horiz-adv-x="569" 
d="M353 606h-135c-24 0 -36 -8 -36 -32v-213h137c35 0 44 16 50 44l7 30c0 4 3 8 7 8h22c3 0 4 -2 4 -4c-4 -25 -8 -62 -8 -95c0 -34 5 -79 8 -96l-3 -3h-23c-5 0 -8 4 -8 7l-6 31c-5 29 -16 44 -50 44h-137v-255c0 -27 14 -33 36 -33h166c76 0 105 59 125 131l31 -5
c-12 -52 -22 -109 -27 -165h-294l-77 1l-128 -2l-2 2v20c0 3 2 7 8 7h30c40 0 52 16 52 44v501c0 31 -14 45 -52 45h-30c-7 0 -8 4 -8 7v20l2 1l128 -1l78 1h256c4 -53 13 -114 21 -155l-29 -5c-22 69 -40 120 -115 120z" />
    <glyph glyph-name="F" unicode="F" horiz-adv-x="487" 
d="M182 574v-213h136c35 0 44 16 50 44l7 30c0 4 3 8 7 8h22c3 0 4 -2 4 -4c-4 -23 -8 -62 -8 -95c0 -34 3 -65 8 -96l-3 -3h-23c-5 0 -7 4 -8 7l-6 31c-5 29 -16 44 -50 44h-136v-255c0 -31 15 -44 55 -44h26c5 0 8 -3 8 -8v-19l-1 -2l-126 2c-36 0 -129 -2 -129 -2l-2 2
v19c0 5 3 8 8 8h26c41 0 55 16 55 44v502c0 29 -9 44 -52 44h-30c-7 0 -8 5 -8 7v20l4 1l125 -1l74 1h251c5 -53 13 -114 21 -155l-29 -5c-22 69 -40 120 -115 120h-125c-24 0 -36 -8 -36 -32z" />
    <glyph glyph-name="G" unicode="G" horiz-adv-x="693" 
d="M375 658c122 0 158 -45 218 -45c7 -72 13 -112 22 -154l-30 -6c-26 86 -79 168 -224 168c-135 0 -242 -119 -242 -294c0 -132 96 -303 274 -303c54 0 113 18 147 50v153c0 31 -15 44 -55 44h-26c-4 0 -8 3 -8 8v26l2 2s87 -2 126 -2c35 0 93 2 93 2l2 -2v-26
c0 -5 -3 -8 -8 -8h-1c-35 0 -44 -16 -44 -44v-116c0 -11 5 -19 16 -28c-68 -58 -149 -95 -267 -95c-201 0 -338 146 -338 319c0 220 171 351 343 351z" />
    <glyph glyph-name="H" unicode="H" horiz-adv-x="700" 
d="M514 72v252h-327v-252c0 -31 15 -44 55 -44h26c4 0 8 -3 8 -8v-19l-2 -2s-86 2 -126 2c-35 0 -128 -2 -128 -2l-2 2v19c0 5 3 8 7 8h27c41 0 54 16 54 44v502c0 30 -15 44 -54 44h-27c-4 0 -8 3 -8 8v19l2 1s87 -1 126 -1c36 0 129 1 129 1l2 -1v-19c0 -5 -3 -8 -8 -8
h-26c-41 0 -55 -16 -55 -44v-211h327v211c0 30 -15 44 -55 44h-26c-5 0 -9 3 -9 8v19l2 1s87 -1 126 -1c36 0 129 1 129 1l2 -1v-19c0 -5 -3 -8 -8 -8h-26c-41 0 -55 -16 -55 -44v-502c0 -31 15 -44 55 -44h26c5 0 9 -3 9 -8v-19l-2 -2s-87 2 -126 2c-36 0 -129 -2 -129 -2
l-2 2v19c0 5 3 8 8 8h26c41 0 55 16 55 44z" />
    <glyph glyph-name="I" unicode="I" horiz-adv-x="293" 
d="M187 574v-503c0 -30 15 -43 55 -43h26c4 0 8 -3 8 -8v-19l-2 -2s-86 2 -126 2c-35 0 -128 -2 -128 -2l-2 2v19c0 5 3 8 7 8h27c41 0 54 15 54 43v503c0 30 -15 44 -54 44h-27c-4 0 -8 3 -8 8v19l2 1s87 -1 126 -1c36 0 129 1 129 1l2 -1v-19c0 -5 -3 -8 -8 -8h-26
c-41 0 -55 -16 -55 -44z" />
    <glyph glyph-name="J" unicode="J" horiz-adv-x="315" 
d="M61 -167c49 0 82 52 82 232v494c0 30 -22 59 -61 59h-37c-4 0 -8 3 -8 8v19l2 1s104 -1 143 -1c35 0 119 1 119 1l2 -1v-19c0 -5 -3 -8 -8 -8h-17c-41 0 -54 -16 -54 -44v-487c0 -117 -17 -182 -74 -242c-26 -26 -59 -43 -88 -43c-34 0 -105 13 -105 66c0 25 17 30 32 30
c28 0 35 -27 38 -39s6 -26 34 -26z" />
    <glyph glyph-name="K" unicode="K" horiz-adv-x="637" 
d="M187 309v-238c0 -30 15 -43 55 -43h26c4 0 8 -3 8 -8v-19l-2 -2s-86 2 -126 2c-35 0 -128 -2 -128 -2l-2 2v19c0 5 3 8 7 8h27c41 0 54 15 54 43v503c0 30 -15 44 -54 44h-27c-4 0 -8 3 -8 8v19l2 1s87 -1 126 -1c36 0 129 1 129 1l2 -1v-19c0 -5 -3 -8 -8 -8h-26
c-41 0 -55 -16 -55 -44v-227c38 2 59 17 80 39l168 176c18 20 23 28 23 38c0 6 -3 18 -27 18h-21c-4 0 -8 3 -8 8v19l2 1s76 -1 116 -1c35 0 96 1 96 1l5 -1v-19c0 -5 -5 -8 -11 -8c-40 -5 -79 -11 -125 -60l-140 -151c-33 -35 -37 -42 -37 -49c0 -8 3 -15 12 -25l219 -260
c25 -31 49 -45 78 -45h7c4 0 9 -3 9 -8v-19l-3 -2s-75 2 -114 2c-36 0 -60 -2 -60 -2l-2 2v6c0 18 0 41 -20 66l-163 198c-21 27 -48 38 -84 38z" />
    <glyph glyph-name="L" unicode="L" horiz-adv-x="526" 
d="M349 39c76 0 106 59 126 131l30 -5c-11 -52 -22 -109 -26 -165h-255l-78 1c-12 0 -127 -2 -127 -2l-2 2v19c0 5 4 8 8 8h30c42 0 51 9 51 44v502c0 30 -15 44 -54 44h-27c-4 0 -8 3 -8 8v19l2 1s87 -1 126 -1c36 0 129 1 129 1l2 -1v-19c0 -5 -3 -8 -8 -8h-26
c-41 0 -55 -16 -55 -44v-485c0 -31 18 -50 47 -50h115z" />
    <glyph glyph-name="M" unicode="M" horiz-adv-x="839" 
d="M665 87l-30 447l-225 -529c-4 -8 -8 -11 -14 -11s-12 4 -15 11l-209 519l-42 -438c0 -29 4 -58 34 -58h26c5 0 10 -3 10 -8v-18l-2 -3s-52 2 -92 2c-35 0 -90 -2 -90 -2l-1 2v19c0 5 3 8 9 8h27c32 0 40 31 42 58l46 488c0 29 -6 44 -38 44h-29c-7 0 -10 3 -10 7v18l3 3
h147l205 -509c3 -9 5 -13 8 -13c2 0 5 4 9 14l217 508h129l2 -3v-18c0 -6 -8 -7 -11 -7h-27c-30 0 -38 -18 -38 -44l33 -487c2 -32 10 -59 43 -59h27c7 0 11 -3 11 -8v-19l-2 -2s-73 2 -112 2c-36 0 -107 -2 -107 -2l-3 2v19c0 5 5 8 9 8h27c29 0 33 33 33 59z" />
    <glyph glyph-name="N" unicode="N" horiz-adv-x="695" 
d="M603 557v-536c0 -19 -7 -29 -21 -29c-16 1 -29 7 -40 22l-349 441c-17 22 -28 33 -34 33c-8 0 -10 -15 -10 -49v-351c0 -30 15 -60 55 -60h26c4 0 8 -3 8 -8v-19l-2 -2s-71 2 -111 2c-35 0 -107 -2 -107 -2l-7 2v18c0 5 8 9 13 9h26c41 0 54 33 54 60v462
c-6 26 -35 68 -68 68c-8 0 -17 1 -17 8v16l2 4h131l349 -441c29 -37 42 -65 50 -65c7 0 7 19 7 38v379c0 27 -13 61 -54 61h-26c-5 0 -14 3 -14 8v19l5 1s74 -1 110 -1c39 0 111 1 111 1l2 -1v-19c0 -5 -4 -8 -8 -8h-27c-39 0 -54 -31 -54 -61z" />
    <glyph glyph-name="O" unicode="O" horiz-adv-x="698" 
d="M334 624c-96 0 -206 -87 -206 -297c0 -192 120 -305 240 -305c114 0 202 109 202 288c0 208 -95 314 -236 314zM662 329c0 -200 -123 -341 -314 -341c-172 0 -311 125 -311 322c0 196 131 348 310 348c180 0 315 -131 315 -329z" />
    <glyph glyph-name="P" unicode="P" horiz-adv-x="521" 
d="M187 574v-254c11 -3 46 -5 71 -5c97 0 154 45 154 153c0 127 -74 152 -143 152c-72 0 -82 -17 -82 -46zM106 71v503c0 32 -27 44 -44 44h-39c-4 0 -6 2 -6 6v21l2 1s81 -1 127 -1c30 0 104 9 130 9c185 0 221 -109 221 -168c0 -85 -52 -204 -234 -204c-35 0 -54 3 -76 10
v-221c0 -30 15 -43 54 -43h27c4 0 8 -3 8 -8v-19l-2 -2s-87 2 -126 2c-36 0 -129 -2 -129 -2l-2 2v19c0 5 3 8 8 8h26c41 0 55 15 55 43z" />
    <glyph glyph-name="Q" unicode="Q" horiz-adv-x="712" 
d="M334 624c-96 0 -206 -87 -206 -297c0 -192 120 -305 240 -305c114 0 202 109 202 288c0 208 -95 314 -236 314zM662 329c0 -200 -123 -341 -314 -341h-17c-10 -6 -17 -17 -20 -22c33 -3 78 -18 119 -47c43 -31 102 -63 142 -63c29 0 65 10 86 37l18 -12
c-39 -56 -81 -82 -145 -82c-56 0 -101 22 -151 58c-52 39 -92 66 -134 66c-15 0 -54 -12 -74 -58l-39 19c8 13 40 57 108 75c11 3 22 7 26 12c5 6 15 16 23 22c-144 25 -253 143 -253 317c0 196 131 348 310 348c180 0 315 -131 315 -329z" />
    <glyph glyph-name="R" unicode="R" horiz-adv-x="574" 
d="M416 478c0 118 -82 148 -142 148c-36 0 -64 -3 -87 -8v-296h50c75 0 123 17 147 51c19 28 32 63 32 105zM497 479c0 -105 -94 -162 -137 -176l106 -205c22 -43 49 -77 94 -77l3 -21c-10 -4 -27 -6 -42 -6c-60 0 -104 38 -130 85l-103 192c-4 7 -34 13 -101 13v-212
c0 -30 15 -44 54 -44h27c4 0 8 -3 8 -8v-19l-2 -2s-87 2 -126 2c-36 0 -129 -2 -129 -2l-2 2v19c0 5 3 8 8 8h26c41 0 55 16 55 44v502c0 29 -4 46 -30 46c-3 0 -5 0 -7 -1l-30 -3c-5 0 -8 3 -8 7v19c21 5 115 12 232 12c63 0 133 -5 181 -50c36 -34 53 -75 53 -125z" />
    <glyph glyph-name="S" unicode="S" horiz-adv-x="475" 
d="M382 631c4 -53 12 -103 21 -152l-30 -5c-19 66 -47 150 -146 150c-66 0 -110 -51 -110 -112c0 -83 99 -121 141 -136c84 -30 177 -71 177 -192c0 -102 -83 -196 -198 -196c-98 0 -114 17 -138 17c-20 0 -29 -5 -46 -5c-2 51 -9 99 -19 175l30 3c20 -91 67 -154 156 -154
c76 0 134 44 134 125c0 91 -50 118 -111 142c-72 27 -195 77 -195 194c0 106 101 173 188 173c93 0 91 -19 146 -27z" />
    <glyph glyph-name="T" unicode="T" horiz-adv-x="577" 
d="M77 646h423c21 0 22 17 22 23l26 4c4 -49 11 -101 22 -154l-29 -5c-20 80 -34 92 -89 92h-66c-36 0 -48 -8 -48 -42v-492c0 -31 16 -44 55 -44h26c5 0 9 -3 9 -8v-19l-2 -2s-88 2 -127 2c-35 0 -128 -2 -128 -2l-2 2v19c0 5 3 8 8 8h26c41 0 55 16 55 44v495
c0 31 -12 39 -49 39h-84c-55 0 -68 -12 -88 -92l-30 5c12 53 18 105 22 154l27 -4c0 -6 0 -23 21 -23z" />
    <glyph glyph-name="U" unicode="U" horiz-adv-x="661" 
d="M321 -12c-90 0 -232 42 -232 246v340c0 31 -15 44 -54 44h-27c-4 0 -8 3 -8 8v19l2 1s87 -1 126 -1c36 0 129 1 129 1l2 -1v-19c0 -5 -3 -8 -8 -8h-26c-41 0 -55 -16 -55 -44v-307c0 -65 0 -135 53 -188c30 -29 71 -50 119 -50c169 0 184 134 184 246v299
c0 31 -15 44 -54 44h-27c-4 0 -8 3 -8 8v19l2 1s71 -1 110 -1c36 0 110 1 110 1l2 -1v-19c0 -5 -3 -8 -8 -8h-26c-41 0 -55 -16 -55 -44v-281c0 -178 -46 -305 -251 -305z" />
    <glyph glyph-name="V" unicode="V" horiz-adv-x="617" 
d="M488 574c5 12 7 20 7 27c0 15 -21 17 -55 17h-18c-4 0 -8 3 -8 8v19l2 1s73 -1 112 -1c35 0 87 1 87 1l2 -1v-19c0 -5 -3 -8 -8 -8c-41 0 -60 -9 -73 -44l-210 -563c-6 -15 -14 -23 -25 -23c-10 0 -18 8 -23 23l-197 561c-14 40 -40 46 -73 46c-4 0 -8 3 -8 8v19l2 1
s78 -1 117 -1c35 0 124 1 124 1l2 -1v-19c0 -5 -3 -8 -8 -8h-27c-36 0 -48 -10 -48 -26c0 -6 2 -12 4 -20l125 -356l31 -87l31 84z" />
    <glyph glyph-name="W" unicode="W" horiz-adv-x="915" 
d="M323 12c-4 -14 -14 -24 -28 -24c-15 0 -27 8 -33 24l-182 550c-9 25 -27 56 -55 56h-13c-7 0 -12 3 -12 7v19l2 2s52 -1 90 -1c51 0 121 1 121 1l2 -2v-18c0 -5 -3 -8 -9 -8h-22c-19 0 -28 -7 -28 -20c0 -7 2 -15 6 -26l152 -461l106 331c4 12 7 25 7 38c0 9 -1 18 -5 28
l-21 64c-8 27 -26 46 -65 46h-3c-7 0 -12 3 -12 7v19l2 2s56 -1 96 -1c49 0 128 1 128 1l3 -2v-19c0 -5 -5 -7 -9 -7h-29c-20 0 -28 -14 -28 -31c0 -10 2 -21 6 -33l147 -445l153 460c2 8 4 16 4 23c0 15 -9 26 -34 26h-27c-5 0 -8 4 -8 7v19l2 2s60 -1 102 -1
c32 0 85 1 85 1l1 -1v-19c0 -8 -11 -8 -11 -8h-11c-29 0 -49 -11 -62 -50l-184 -557c-5 -15 -16 -23 -30 -23c-13 0 -26 7 -32 24l-117 355c-5 14 -10 28 -14 28c-5 0 -10 -13 -14 -25z" />
    <glyph glyph-name="X" unicode="X" horiz-adv-x="655" 
d="M13 625v20l5 1c25 0 90 -1 101 -1c5 0 89 1 119 1c0 0 4 -1 5 -1v-20c0 -5 -2 -7 -5 -7h-32c-17 0 -23 -4 -23 -11c0 -8 8 -21 18 -35l119 -176c5 -7 9 -11 12 -11s7 4 13 12l129 175c10 14 15 27 15 34c0 9 -7 12 -21 12h-30c-4 0 -7 2 -7 7v20l2 1c21 0 88 -1 99 -1
c5 0 80 1 97 1l3 -1v-20c0 -3 -1 -7 -9 -7c-61 0 -83 -30 -110 -66l-131 -177c-9 -12 -13 -21 -13 -30c0 -10 6 -20 16 -33l154 -210c27 -39 62 -74 106 -74c5 0 7 -4 7 -7v-20l-2 -2c-27 1 -93 2 -105 2c-6 0 -125 -2 -125 -2l-3 2v20c0 4 2 7 6 7h20c24 0 33 3 33 11
c0 7 -9 19 -20 34l-132 188c-6 8 -10 11 -14 11c-3 0 -9 -6 -15 -14l-132 -181c-9 -13 -14 -23 -14 -31c0 -11 10 -18 29 -18h19c5 -1 6 -4 6 -7v-20l-3 -2s-97 2 -112 2c-5 0 -84 -2 -84 -2l-1 2v20c0 5 5 7 11 7c59 0 93 46 115 76l137 187c6 8 10 17 10 23
c0 10 -5 19 -14 30l-144 205c-65 93 -105 59 -105 76z" />
    <glyph glyph-name="Y" unicode="Y" horiz-adv-x="574" 
d="M254 72v209l-170 293c-11 20 -20 31 -33 39c-5 3 -14 5 -29 5h-12c-3 0 -10 1 -10 7v20l1 1s93 -1 106 -1c6 0 115 1 115 1l1 -1v-19c0 -4 -2 -8 -6 -8h-29c-19 0 -25 -4 -25 -13c0 -6 4 -15 12 -29l140 -235l127 235c8 14 11 23 11 28c0 11 -5 14 -25 14h-30
c-4 0 -5 4 -5 7v20l1 1s79 -1 92 -1c9 0 87 1 87 1l2 -1v-20c0 -5 -4 -7 -10 -7h-21c-30 0 -43 -12 -61 -44l-149 -281v-221c0 -31 16 -44 55 -44h27c4 0 8 -3 8 -8v-19l-2 -2s-87 2 -126 2c-36 0 -129 -2 -129 -2l-2 2v19c0 5 3 8 8 8h26c41 0 55 16 55 44z" />
    <glyph glyph-name="Z" unicode="Z" horiz-adv-x="604" 
d="M551 0h-491c-14 0 -19 5 -19 15c0 7 2 15 8 23l389 541c5 7 8 14 8 19c0 6 -3 8 -10 8h-246c-75 0 -92 -51 -114 -120l-30 5c8 41 18 113 22 167c37 -3 34 -12 81 -12h336c31 3 51 4 63 4c19 0 22 -3 22 -10c0 -11 -3 -21 -23 -49l-375 -519c-5 -9 -8 -15 -8 -20
c0 -9 8 -13 25 -13h233c76 0 105 59 125 131l31 -5c-12 -52 -22 -109 -27 -165z" />
    <glyph glyph-name="bracketleft" unicode="[" horiz-adv-x="334" 
d="M303 689v-43h-147v-802h147v-44h-215v889h215z" />
    <glyph glyph-name="backslash" unicode="\" horiz-adv-x="287" 
d="M55 698l230 -746h-44l-230 746h44z" />
    <glyph glyph-name="bracketright" unicode="]" horiz-adv-x="334" 
d="M32 -200v44h146v802h-146v43h215v-889h-215z" />
    <glyph glyph-name="asciicircum" unicode="^" horiz-adv-x="518" 
d="M259 593l-103 -246h-44l126 303h42l126 -303h-44z" />
    <glyph glyph-name="underscore" unicode="_" horiz-adv-x="486" 
d="M482 -110v-44h-477v44h477z" />
    <glyph glyph-name="grave" unicode="`" horiz-adv-x="392" 
d="M178 698l70 -125c5 -10 6 -17 6 -24c0 -5 -6 -11 -14 -11c-7 0 -13 5 -29 20l-115 109l3 10c7 7 30 24 65 24c4 0 11 -1 14 -3z" />
    <glyph glyph-name="a" unicode="a" horiz-adv-x="451" 
d="M291 245l-79 -20c-88 -27 -101 -73 -101 -118c0 -31 15 -78 78 -78c30 0 76 29 102 51v165zM355 -12c-38 0 -59 34 -63 58l-23 -16c-46 -32 -63 -42 -109 -42c-70 0 -121 40 -121 115c0 76 65 128 160 152l92 23c0 113 -52 134 -86 134c-38 0 -82 -17 -82 -48
c0 -11 2 -17 3 -20c2 -4 3 -11 3 -18c0 -13 -10 -33 -39 -33c-24 0 -40 16 -40 40c0 58 94 109 158 109c73 0 157 -30 157 -172v-147c0 -61 1 -87 24 -87c22 0 28 28 29 50l25 -5c-6 -73 -37 -93 -88 -93z" />
    <glyph glyph-name="b" unicode="b" horiz-adv-x="478" 
d="M149 55c20 -24 41 -32 72 -32c95 0 143 88 143 202c0 102 -52 175 -113 175c-11 0 -63 -2 -102 -43v-302zM74 573c0 57 -10 73 -30 73l-32 -4c-3 0 -5 2 -5 5l-2 25c16 0 52 6 69 9c18 4 33 8 53 17h22v-310c34 37 74 55 122 55c87 0 170 -83 170 -205
c0 -159 -112 -249 -214 -249c-43 0 -75 12 -104 37c-9 -12 -22 -27 -31 -37l-21 5c3 24 3 40 3 79v500z" />
    <glyph glyph-name="c" unicode="c" horiz-adv-x="403" 
d="M384 91c-44 -76 -92 -103 -152 -103c-120 0 -195 91 -195 220c0 142 89 234 197 234c96 0 147 -49 147 -102c0 -29 -18 -44 -39 -44s-41 11 -44 36c-4 33 -10 76 -69 76c-66 0 -115 -70 -115 -178c0 -117 63 -198 140 -198c43 0 81 28 112 73z" />
    <glyph glyph-name="d" unicode="d" horiz-adv-x="494" 
d="M334 89v259c-24 38 -51 59 -98 59c-20 0 -61 -3 -93 -50c-14 -21 -31 -64 -31 -136c0 -131 68 -191 122 -191c33 0 60 20 100 59zM409 698v-578c0 -30 2 -46 4 -53c3 -9 14 -15 22 -15c12 0 34 0 49 3l4 -28c-58 -10 -110 -21 -131 -39h-24l3 69
c-38 -39 -77 -69 -128 -69c-108 0 -174 92 -174 215c0 74 20 136 63 179c40 38 84 60 150 60c20 0 64 -9 87 -22v153c0 57 -9 73 -29 73l-33 -4c-2 0 -5 2 -5 5l-2 25c16 0 52 6 69 9c19 4 33 8 53 17h22z" />
    <glyph glyph-name="e" unicode="e" horiz-adv-x="428" 
d="M114 277h184c10 0 14 5 14 14c0 93 -47 117 -83 117c-23 0 -98 -9 -115 -131zM378 93l20 -16c-38 -52 -97 -89 -169 -89c-137 0 -195 102 -195 211c0 152 100 243 195 243c132 0 163 -103 163 -187c0 -11 -7 -17 -18 -17h-263c-1 -6 -1 -12 -1 -20
c0 -102 71 -181 143 -181c55 0 90 18 125 56z" />
    <glyph glyph-name="f" unicode="f" horiz-adv-x="304" 
d="M92 72v319h-69c-4 0 -5 1 -5 5v14c0 8 5 20 23 20h51v39c0 156 81 229 165 229c38 0 64 -10 89 -27c20 -15 29 -32 29 -48c0 -21 -15 -36 -34 -36c-20 0 -33 11 -41 28c-13 33 -32 49 -62 49c-33 0 -71 -24 -71 -178v-56h110c5 0 8 -2 8 -6v-20c0 -9 -14 -13 -23 -13h-95
v-319c0 -29 10 -44 43 -44h33c4 0 8 -3 8 -8v-19l-2 -2s-82 2 -121 2c-36 0 -104 -2 -104 -2l-2 2v19c0 5 3 8 8 8h19c34 0 43 15 43 44z" />
    <glyph glyph-name="g" unicode="g" horiz-adv-x="484" 
d="M316 283c0 83 -39 131 -99 131c-52 0 -87 -36 -87 -114c0 -52 20 -134 100 -134c35 0 86 17 86 117zM129 -7c-31 -29 -38 -60 -38 -94c0 -75 90 -97 124 -97c86 0 195 30 195 102c0 26 -14 43 -53 62c-28 14 -69 25 -117 25c-8 0 -19 -1 -33 -2s-29 -1 -40 -1
c-16 0 -24 2 -38 5zM433 388c-16 0 -26 9 -30 17c-6 9 -10 12 -17 12c-12 0 -31 -14 -38 -24c28 -30 41 -59 41 -106c0 -98 -80 -151 -164 -151c-37 0 -67 7 -90 21c-11 -17 -17 -38 -17 -58c0 -43 33 -54 61 -54c5 0 17 1 31 2c23 3 48 5 65 5c35 0 101 -7 141 -41
c27 -25 42 -49 42 -81c0 -108 -142 -165 -271 -165c-73 0 -154 27 -154 114c0 43 27 89 78 121c-25 13 -43 38 -43 74c0 34 15 77 42 101c-27 27 -50 61 -50 116c0 92 81 151 166 151c56 0 91 -23 102 -31c25 34 70 51 95 51c26 0 44 -17 44 -38c0 -22 -14 -36 -34 -36z" />
    <glyph glyph-name="h" unicode="h" horiz-adv-x="518" 
d="M163 698v-339c67 67 126 83 165 83c72 0 108 -55 108 -158v-212c0 -29 10 -44 43 -44h19c4 0 8 -3 8 -8v-19l-2 -2s-68 2 -108 2c-35 0 -103 -2 -103 -2l-2 2v19c0 5 3 8 8 8h19c34 0 43 15 43 44v223c0 81 -22 100 -78 100c-29 0 -72 -26 -120 -73v-250
c0 -29 10 -44 43 -44h19c4 0 8 -3 8 -8v-19l-2 -2s-68 2 -107 2c-36 0 -103 -2 -103 -2l-2 2v19c0 5 2 8 7 8h19c34 0 43 15 43 44v501c0 57 -9 73 -29 73l-33 -4c-3 0 -5 2 -5 5l-2 25c16 0 52 6 69 9c18 4 33 8 53 17h22z" />
    <glyph glyph-name="i" unicode="i" horiz-adv-x="264" 
d="M78 571c0 26 21 48 47 48c27 0 48 -22 48 -48c0 -27 -21 -48 -48 -48c-26 0 -47 21 -47 48zM173 72c0 -29 11 -44 43 -44h19c5 0 9 -3 9 -8v-19l-2 -2s-69 2 -108 2c-35 0 -103 -2 -103 -2l-2 2v19c0 5 3 8 8 8h19c33 0 43 15 43 44v249c0 53 -9 61 -23 61
c-13 0 -25 -1 -42 -5l-5 28c64 11 75 15 104 29c11 4 18 8 25 8h15v-370z" />
    <glyph glyph-name="j" unicode="j" horiz-adv-x="277" 
d="M104 571c0 26 21 48 48 48c26 0 48 -22 48 -48c0 -27 -22 -48 -48 -48c-27 0 -48 21 -48 48zM51 -194c44 0 74 79 74 220v295c0 53 -9 61 -22 61c-14 0 -25 -1 -42 -5l-5 28c73 12 95 24 108 31c7 3 11 6 21 6h15v-385c0 -131 -10 -186 -65 -242c-27 -26 -56 -38 -80 -38
c-41 0 -94 21 -94 51c0 25 15 38 32 38c24 0 37 -23 42 -44c3 -10 8 -16 16 -16z" />
    <glyph glyph-name="k" unicode="k" horiz-adv-x="479" 
d="M163 212v-140c0 -29 10 -44 43 -44h2c4 0 8 -3 8 -8v-19l-2 -2s-51 2 -90 2c-36 0 -103 -2 -103 -2l-2 2v19c0 5 2 8 7 8h19c34 0 43 15 43 44v501c0 57 -9 73 -29 73l-33 -4c-3 0 -5 2 -5 5l-2 25c16 0 52 6 69 9c18 4 33 8 53 17h22v-461c26 6 77 51 131 110
c16 16 20 29 20 39c0 8 -5 16 -29 16h-4c-5 0 -8 4 -8 8v19l3 2s48 -2 83 -2c39 0 93 2 93 2l4 -2v-19c0 -5 -6 -8 -11 -8h-7c-27 0 -71 -22 -96 -48l-76 -84c-3 -3 -4 -6 -4 -10c0 -5 2 -10 5 -14l117 -173c18 -27 50 -45 75 -45h7c7 0 9 -3 9 -8v-19l-2 -2s-51 2 -90 2
c-35 0 -62 -2 -62 -2l-3 2v19c0 13 -3 24 -23 53l-73 103c-20 29 -34 36 -59 36z" />
    <glyph glyph-name="l" unicode="l" horiz-adv-x="260" 
d="M95 72v501c0 57 -10 73 -30 73l-32 -4c-3 0 -6 2 -6 5l-2 25c16 0 53 6 70 9c18 4 32 8 52 17h22v-626c0 -29 11 -44 43 -44h24c4 0 8 -3 8 -8v-19l-2 -2s-73 2 -112 2c-35 0 -108 -2 -108 -2l-1 2v19c0 5 2 8 7 8h24c33 0 43 15 43 44z" />
    <glyph glyph-name="m" unicode="m" horiz-adv-x="760" 
d="M603 72v230c0 67 -26 92 -64 92c-39 0 -70 -20 -118 -73c2 -12 2 -26 2 -40v-209c0 -29 10 -44 43 -44h17c5 0 9 -3 9 -8v-19l-2 -2s-67 2 -106 2c-36 0 -105 -2 -105 -2l-2 2v19c0 5 3 8 8 8h20c34 0 43 15 43 44v228c0 67 -27 94 -65 94c-35 0 -68 -25 -115 -74v-248
c0 -29 10 -44 43 -44h19c4 0 8 -3 8 -8v-19l-2 -2s-68 2 -107 2c-36 0 -104 -2 -104 -2l-2 2v19c0 5 3 8 8 8h19c34 0 43 15 43 44v249c0 57 -9 61 -22 61s-25 -1 -42 -5l-5 28c63 11 77 15 104 29c10 5 18 8 25 8h15l-3 -87h3c47 50 89 87 151 87c56 0 91 -41 97 -86
c58 60 105 86 159 86c88 0 103 -73 103 -162v-208c0 -29 10 -44 43 -44h19c4 0 8 -3 8 -8v-19l-2 -2s-68 2 -107 2c-36 0 -104 -2 -104 -2l-2 2v19c0 5 3 8 8 8h19c33 0 43 15 43 44z" />
    <glyph glyph-name="n" unicode="n" horiz-adv-x="520" 
d="M364 72v219c0 70 -12 103 -65 103c-44 0 -82 -17 -133 -77v-245c0 -29 10 -44 43 -44h14c5 0 8 -3 8 -8v-19l-2 -2s-63 2 -102 2c-36 0 -104 -2 -104 -2l-2 2v19c0 5 3 8 8 8h19c34 0 43 15 43 44v249c0 54 -8 61 -22 61c-13 0 -25 -1 -42 -5l-5 28c42 7 72 12 103 29
c11 5 19 8 26 8h15l-3 -89h3c64 75 112 89 163 89c90 0 109 -69 109 -158v-212c0 -29 11 -44 43 -44h19c5 0 9 -3 9 -8v-19l-2 -2s-69 2 -108 2c-35 0 -98 -2 -98 -2l-2 2v19c0 5 3 8 8 8h14c33 0 43 15 43 44z" />
    <glyph glyph-name="o" unicode="o" horiz-adv-x="479" 
d="M34 205c0 137 74 237 207 237c148 0 205 -124 205 -228c0 -100 -65 -226 -207 -226c-134 0 -205 115 -205 217zM230 409c-80 0 -117 -94 -117 -181c0 -77 44 -205 143 -205c45 0 111 27 111 159c0 147 -55 227 -137 227z" />
    <glyph glyph-name="p" unicode="p" horiz-adv-x="479" 
d="M149 314v-249c35 -41 68 -43 84 -43c107 0 131 100 131 186c0 121 -49 188 -110 188c-34 0 -83 -29 -105 -82zM75 -158v495c0 38 -9 45 -23 45c-13 0 -25 -1 -42 -5l-5 28c64 11 76 15 104 29c11 5 18 8 25 8h15l-3 -80h3c46 70 100 80 132 80c97 0 161 -101 161 -207
c0 -81 -25 -143 -70 -189c-39 -39 -80 -58 -133 -58c-36 0 -64 8 -90 22v-168c0 -29 11 -44 43 -44h19c5 0 9 -3 9 -8v-19l-2 -2s-69 2 -108 2c-35 0 -103 -2 -103 -2l-2 2v19c0 5 3 8 8 8h19c33 0 43 15 43 44z" />
    <glyph glyph-name="q" unicode="q" horiz-adv-x="493" 
d="M338 336c-27 45 -61 72 -103 72c-80 0 -123 -77 -123 -181c0 -151 88 -195 146 -195c19 0 54 2 80 22v282zM338 -158v179c-15 -13 -47 -33 -104 -33c-144 0 -198 126 -198 219c0 132 81 235 203 235c49 0 92 -14 125 -43l15 24c7 12 14 19 21 19c11 0 13 -11 13 -25v-575
c0 -29 10 -44 43 -44h19c4 0 8 -3 8 -8v-19l-2 -2s-68 2 -107 2c-36 0 -114 -2 -114 -2l-2 2v19c0 5 3 8 8 8h29c34 0 43 15 43 44z" />
    <glyph glyph-name="r" unicode="r" horiz-adv-x="347" 
d="M89 72v249c0 50 -7 61 -22 61c-13 0 -25 -1 -42 -5l-5 28c63 11 74 14 104 29c10 5 18 8 25 8h15l-3 -90h3c26 39 70 90 117 90c41 0 56 -20 56 -46s-17 -42 -43 -42c-20 0 -31 8 -41 18c-6 6 -13 9 -20 9c-11 0 -33 -18 -57 -52c-7 -9 -12 -22 -12 -35v-222
c0 -29 10 -44 43 -44h29c5 0 9 -3 9 -8v-19l-2 -2s-79 2 -118 2c-36 0 -104 -2 -104 -2l-1 2v19c0 5 2 8 7 8h19c34 0 43 15 43 44z" />
    <glyph glyph-name="s" unicode="s" horiz-adv-x="371" 
d="M43 140l27 1c3 -25 14 -73 36 -96c10 -11 37 -29 74 -29c35 0 87 28 87 77c0 43 -24 72 -103 106c-73 32 -111 53 -111 128c0 67 59 115 138 115c50 0 87 -9 118 -25c6 -32 9 -66 11 -102l-27 -1c-21 82 -81 98 -102 98c-38 0 -77 -15 -77 -70c0 -40 19 -60 74 -80
c81 -30 146 -66 146 -146c0 -99 -105 -128 -152 -128c-35 0 -64 4 -90 11c-7 1 -12 2 -19 2c-5 0 -13 -1 -23 -3c0 42 -3 93 -7 142z" />
    <glyph glyph-name="t" unicode="t" horiz-adv-x="302" 
d="M164 391v-256c0 -62 6 -92 33 -92c26 0 46 8 72 28l18 -17c-39 -44 -79 -66 -125 -66s-73 28 -73 99v304h-65c-3 0 -4 1 -4 4v31c0 3 1 4 3 4c67 0 83 39 83 115v19l58 20v-154h110c5 0 8 -2 8 -6v-20c0 -9 -14 -13 -24 -13h-94z" />
    <glyph glyph-name="u" unicode="u" horiz-adv-x="517" 
d="M429 116c0 -50 5 -66 25 -66c12 0 34 2 51 5l4 -28c-61 -11 -110 -21 -133 -39h-22l3 74h-3c-55 -60 -100 -74 -141 -74c-99 0 -125 67 -125 136v228c0 33 -7 50 -44 50c-4 0 -11 -1 -17 -1l-3 1v26l3 3s68 -2 100 -2c14 0 37 2 37 2l-1 -80v-213c0 -89 46 -105 76 -105
c23 0 44 9 65 24c24 18 40 32 50 45v247c0 36 -5 53 -42 53c-6 0 -17 -1 -20 -1l-2 2v25l2 3s71 -2 99 -2c23 0 39 2 39 2l-1 -79v-236z" />
    <glyph glyph-name="v" unicode="v" horiz-adv-x="497" 
d="M330 402h-5c-5 0 -8 4 -8 7v20l4 2s57 -2 94 -2c26 0 68 2 68 2l2 -2v-18c0 -5 -5 -9 -11 -9c-29 0 -52 -13 -68 -52l-138 -339c-7 -17 -14 -23 -24 -23c-13 0 -19 6 -25 21l-136 345c-14 36 -35 48 -64 48c-5 0 -10 2 -10 7v20l3 2s53 -2 87 -2c39 0 100 2 100 2l4 -2
v-19c0 -7 -6 -8 -9 -8h-17c-20 -1 -29 -7 -29 -17c0 -7 4 -15 10 -29l86 -218l17 -46l17 43l89 219c5 11 8 20 8 27c0 15 -11 21 -45 21z" />
    <glyph glyph-name="w" unicode="w" horiz-adv-x="744" 
d="M202 410c0 -5 -4 -8 -9 -8h-15c-22 0 -29 -6 -29 -16c0 -7 4 -16 9 -30l105 -264l87 217l-18 45c-13 34 -34 48 -64 48c-5 0 -10 2 -10 7v20l2 2s56 -2 91 -2l100 2l3 -2v-19c0 -5 -5 -8 -10 -8h-18c-20 0 -29 -4 -29 -14c0 -8 4 -18 10 -32l104 -264l104 259
c3 6 5 14 5 22c0 17 -11 29 -45 29h-15c-5 0 -9 4 -9 7v20l3 2s66 -2 103 -2c34 0 74 2 74 2l1 -2v-19c0 -6 -6 -8 -12 -8c-25 0 -51 -11 -69 -55l-136 -338c-6 -15 -14 -21 -23 -21c-10 0 -18 6 -24 20l-100 250l-100 -248c-7 -16 -15 -22 -24 -22c-10 0 -18 6 -24 20
l-137 346c-15 39 -33 48 -63 48c-5 0 -12 2 -12 7v20l2 2s47 -2 91 -2c46 0 99 2 99 2l2 -3v-18z" />
    <glyph glyph-name="x" unicode="x" horiz-adv-x="497" 
d="M197 402c-20 0 -24 -5 -24 -12c0 -5 4 -14 15 -32l61 -90c3 -6 6 -9 10 -9c3 0 5 2 9 7l65 91c11 14 17 25 17 33s-7 12 -21 12h-16c-3 0 -6 2 -6 7v19l3 3s47 -2 78 -2c32 0 81 2 81 2l1 -2v-19c0 -7 -6 -8 -12 -8c-37 0 -52 -12 -89 -59l-84 -107c-2 -3 -3 -5 -3 -7
s1 -5 3 -8l90 -127c46 -65 59 -66 91 -66c10 0 14 -2 14 -8v-19l-1 -2s-54 2 -88 2c-41 0 -104 -2 -104 -2l-2 2v19c0 5 2 8 7 8h12c16 0 23 3 23 11c0 9 -11 24 -27 45l-58 80c-4 5 -6 7 -9 7c-2 0 -5 -3 -9 -9l-63 -91c-15 -20 -18 -25 -18 -32s6 -11 21 -11h14
c5 0 7 -3 7 -8v-19l-2 -2s-52 2 -84 2c-29 0 -75 -2 -75 -2l-2 2v17c0 6 4 10 13 10c24 0 47 5 89 59l84 108c1 2 2 4 2 7s-1 5 -3 8l-87 127c-28 41 -46 65 -81 65c-7 0 -14 3 -14 7v19l2 3l79 -2l111 2l3 -3v-18c0 -5 -4 -8 -8 -8h-15z" />
    <glyph glyph-name="y" unicode="y" horiz-adv-x="509" 
d="M208 410c0 -5 -6 -8 -11 -8c-30 0 -43 -6 -43 -22c0 -6 2 -14 6 -23l110 -258l111 254c5 9 7 17 7 23c0 21 -20 26 -42 26h-4c-5 0 -10 4 -10 7v19l2 3s59 -2 94 -2c28 0 69 2 69 2l3 -2v-19c0 -5 -4 -8 -11 -8c-38 0 -57 -39 -71 -68c-53 -112 -97 -215 -177 -408
c-30 -72 -66 -156 -137 -156c-19 0 -58 11 -58 47c0 30 22 39 38 39c15 0 25 -6 31 -14c10 -10 17 -17 27 -17c15 0 50 86 75 147c6 12 8 22 8 31c0 10 -9 37 -17 57l-126 293c-16 38 -27 49 -61 49c-6 0 -10 3 -10 7v20l2 2s44 -2 74 -2c47 0 119 2 119 2l2 -3v-18z" />
    <glyph glyph-name="z" unicode="z" horiz-adv-x="411" 
d="M106 430h196c29 0 64 5 67 5c7 0 13 -2 13 -6s-5 -16 -22 -42l-236 -348h129c59 0 75 22 99 75l13 29l27 -7c-17 -58 -28 -105 -33 -136h-303c-15 0 -23 5 -23 12c0 5 1 8 9 20l243 359h-135c-30 0 -64 -17 -84 -90l-26 3c8 49 14 93 15 138h25c2 -6 11 -12 26 -12z" />
    <glyph glyph-name="braceleft" unicode="{" horiz-adv-x="273" 
d="M179 567v-181c0 -91 -19 -118 -68 -139c58 -25 68 -67 68 -152v-164c0 -42 6 -73 17 -93c19 -34 38 -38 48 -41v-14c-54 1 -94 13 -111 36c-18 24 -27 66 -27 127v175c0 61 -13 110 -67 123v5c56 16 67 71 67 121v189c0 54 9 93 28 116s58 35 110 36v-14
c-20 -6 -36 -19 -49 -41c-10 -18 -16 -48 -16 -89z" />
    <glyph glyph-name="bar" unicode="|" horiz-adv-x="205" 
d="M125 -233h-44v931h44v-931z" />
    <glyph glyph-name="braceright" unicode="}" horiz-adv-x="273" 
d="M94 -73v181c0 91 19 119 68 140c-58 24 -68 66 -68 151v164c0 42 -6 73 -17 93c-19 34 -38 38 -48 41v14c54 -1 95 -13 112 -36c17 -24 26 -66 26 -127v-174c0 -62 13 -111 67 -124v-5c-56 -16 -67 -71 -67 -120v-190c0 -54 -9 -93 -27 -116c-19 -23 -59 -35 -111 -36v14
c20 6 37 19 50 41c10 18 15 48 15 89z" />
    <glyph glyph-name="asciitilde" unicode="~" horiz-adv-x="449" 
d="M26 209c13 65 67 128 128 128c23 0 48 -16 74 -32c25 -16 51 -33 73 -33c28 0 77 17 99 67l17 -6c-31 -107 -96 -120 -120 -120c-26 0 -51 16 -75 33c-25 17 -49 32 -74 32c-35 0 -86 -28 -109 -72z" />
    <glyph glyph-name="exclamdown" unicode="&#xa1;" horiz-adv-x="227" 
d="M114 -228c-27 0 -55 23 -55 73c0 65 15 107 25 193c13 108 15 168 16 181c1 12 4 20 14 20c12 0 14 -7 14 -12c2 -21 8 -111 16 -189c9 -89 25 -123 25 -193c0 -54 -32 -73 -55 -73zM168 389c0 -30 -24 -54 -53 -54c-30 0 -53 24 -53 54c0 29 23 53 53 53
c29 0 53 -24 53 -53z" />
    <glyph glyph-name="cent" unicode="&#xa2;" horiz-adv-x="438" 
d="M219 584h34v-71c90 -4 138 -51 138 -102c0 -30 -18 -44 -39 -44s-41 10 -44 35c-3 31 -9 69 -55 76v-375h11c43 0 81 28 112 73l18 -14c-42 -72 -86 -100 -141 -103v-71h-34v72c-107 11 -173 99 -173 219c0 131 77 219 173 232v73zM219 112v364c-56 -12 -95 -78 -95 -175
c0 -93 40 -163 95 -189z" />
    <glyph glyph-name="sterling" unicode="&#xa3;" horiz-adv-x="438" 
d="M72 282c-5 0 -6 1 -6 6v13c0 8 6 20 23 20h43v19c0 80 23 132 75 183c33 34 76 52 126 52c22 0 76 -12 76 -46c0 -24 -16 -39 -39 -39c-14 0 -23 9 -34 18c-12 11 -26 22 -47 22c-44 0 -81 -60 -81 -142v-67h118c5 0 7 -2 7 -6v-21c0 -8 -13 -12 -23 -12h-102
c-1 -113 -37 -166 -69 -196h5c108 0 104 -46 167 -46c28 0 73 9 98 43l17 -10c-23 -49 -70 -85 -132 -85c-85 0 -86 58 -169 58c-33 0 -40 -15 -40 -25c0 -22 -17 -33 -38 -33c-18 0 -30 11 -30 26c0 18 22 35 48 49c56 41 67 117 67 203v16h-60z" />
    <glyph glyph-name="currency" unicode="&#xa4;" horiz-adv-x="438" 
d="M101 289c0 -73 46 -134 117 -134c70 0 116 62 116 133c0 75 -52 133 -114 133c-70 0 -119 -61 -119 -132zM218 113c-40 0 -76 12 -108 36l-43 -53l-41 40l54 43c-26 31 -39 68 -39 109c0 43 13 80 39 110l-52 41l37 40l46 -51c33 24 68 35 107 35c41 0 77 -12 109 -37
l46 55l39 -41l-55 -44c25 -30 38 -66 38 -108c0 -40 -13 -76 -37 -107l52 -44l-36 -38l-46 51c-33 -25 -69 -37 -110 -37z" />
    <glyph glyph-name="yen" unicode="&#xa5;" horiz-adv-x="438" 
d="M47 229c-5 0 -5 1 -5 6v14c0 8 5 20 22 20h111l-107 220c-20 42 -38 58 -63 58c-3 0 -9 2 -9 8v18l1 2c10 -2 76 -3 89 -3c6 0 71 1 85 3l2 -2v-17c0 -4 -2 -9 -6 -9h-14c-16 0 -22 -5 -22 -14c0 -7 4 -17 10 -30l103 -213l91 213c6 14 10 24 10 32s-6 13 -25 13h-12
c-5 0 -6 4 -6 7v18l2 2c8 -1 62 -3 75 -3c9 0 48 1 67 3l1 -2v-17c0 -4 0 -8 -9 -8c-34 0 -48 -14 -67 -57l-98 -222h120c4 0 7 -2 7 -6v-21c0 -9 -13 -13 -23 -13h-116v-63h132c4 0 7 -2 7 -6v-20c0 -9 -13 -13 -23 -13h-116v-55c0 -31 15 -44 54 -44h27c5 0 9 -3 9 -8v-19
l-2 -2s-87 2 -126 2c-36 0 -129 -2 -129 -2l-2 2v19c0 5 3 8 8 8h26c41 0 55 16 55 44v55h-134c-5 0 -5 1 -5 6v13c0 8 5 20 22 20h117v63h-134z" />
    <glyph glyph-name="brokenbar" unicode="&#xa6;" horiz-adv-x="205" 
d="M129 674v-362h-48v362h48zM129 161v-362h-48v362h48z" />
    <glyph glyph-name="section" unicode="&#xa7;" horiz-adv-x="466" 
d="M340 98c22 19 34 43 34 73c0 120 -173 192 -247 226c-23 -19 -34 -43 -34 -73c0 -67 67 -138 133 -169c30 -14 68 -32 114 -57zM244 658c73 0 143 -54 143 -125c0 -21 -18 -38 -37 -38c-37 0 -41 30 -41 39c0 14 3 22 7 27c2 4 4 8 4 13s-15 53 -72 53s-98 -51 -98 -103
c0 -47 29 -65 75 -87c79 -37 193 -95 193 -218c0 -58 -21 -104 -61 -136c28 -24 34 -57 34 -96c0 -65 -76 -156 -168 -156c-73 0 -142 53 -142 126c0 22 19 38 36 38c35 0 42 -31 42 -40c0 -22 -13 -28 -13 -40c0 -6 17 -54 75 -54c45 0 96 37 96 104c0 36 -21 69 -54 85
c-159 79 -214 134 -214 226c0 57 19 102 59 134c-22 27 -25 62 -25 94c0 66 66 154 161 154z" />
    <glyph glyph-name="dieresis" unicode="&#xa8;" horiz-adv-x="375" 
d="M215 575c0 25 21 45 46 45s45 -20 45 -45s-20 -46 -45 -46s-46 21 -46 46zM55 575c0 25 20 45 45 45s46 -20 46 -45s-21 -46 -46 -46s-45 21 -45 46z" />
    <glyph glyph-name="copyright" unicode="&#xa9;" horiz-adv-x="633" 
d="M437 217c-20 -31 -60 -64 -115 -64c-96 0 -154 74 -154 154c0 73 57 149 151 149c70 0 69 -14 103 -14l12 -78l-27 -4c-8 44 -14 75 -87 75c-37 0 -96 -25 -96 -130c0 -67 33 -125 101 -125c51 0 80 35 91 51zM317 23c-157 0 -283 128 -283 283c0 156 127 282 283 282
s282 -126 282 -282s-126 -283 -282 -283zM317 557c-140 0 -252 -112 -252 -251c0 -138 112 -251 252 -251c138 0 251 112 251 251s-112 251 -251 251z" />
    <glyph glyph-name="ordfeminine" unicode="&#xaa;" horiz-adv-x="297" 
d="M188 502c-85 -22 -109 -40 -109 -71c0 -21 11 -41 45 -41c21 0 38 10 64 33v79zM231 358c-25 0 -39 21 -42 39c-34 -30 -52 -39 -85 -39c-42 0 -77 27 -77 70c0 42 40 70 103 86l58 15c0 75 -31 83 -54 83c-33 0 -54 -11 -54 -27c0 -7 1 -11 2 -13s2 -7 2 -12
c0 -8 -7 -21 -26 -21c-15 0 -26 10 -26 25c0 40 62 73 104 73c49 0 106 -20 106 -114v-75c0 -41 5 -57 14 -57c4 0 9 2 12 5l10 -16c-9 -10 -28 -22 -47 -22z" />
    <glyph glyph-name="guillemotleft" unicode="&#xab;" horiz-adv-x="536" 
d="M468 429v-51c-44 -66 -92 -121 -143 -163c49 -37 96 -91 143 -163v-51c-80 93 -153 158 -218 195v38c70 50 143 115 218 195zM288 429v-51c-45 -66 -93 -121 -144 -163c48 -37 96 -91 144 -163v-51c-81 93 -154 158 -220 195v38c71 50 144 115 220 195z" />
    <glyph glyph-name="logicalnot" unicode="&#xac;" horiz-adv-x="560" 
d="M483 133v224h-459v44h513v-268h-54z" />
    <glyph glyph-name="uni00AD" unicode="&#xad;" horiz-adv-x="333" 
d="M274 236h-226c-9 0 -15 8 -15 17c0 16 13 37 25 37h229c10 0 14 -9 14 -18c0 -11 -14 -36 -27 -36z" />
    <glyph glyph-name="registered" unicode="&#xae;" horiz-adv-x="633" 
d="M417 372c0 -52 -57 -76 -57 -76l48 -82c13 -22 25 -31 40 -31v-13c-10 -3 -18 -4 -23 -4c-29 0 -50 12 -62 38l-48 79c-4 3 -22 4 -27 4v-95c0 -5 0 -8 7 -8h12c8 0 11 -1 11 -6v-11s-42 2 -56 2l-55 -2v12c0 4 3 5 10 5h12c6 0 8 1 8 8v223c0 6 -1 11 -4 11l-16 -1
c-7 1 -10 3 -10 6v11c21 3 42 5 115 5c75 0 95 -45 95 -75zM367 372c0 34 -17 58 -51 58c-11 0 -23 -1 -28 -3v-119c31 0 79 2 79 64zM317 23c-157 0 -283 128 -283 283c0 156 127 282 283 282s282 -126 282 -282s-126 -283 -282 -283zM317 557c-140 0 -252 -112 -252 -251
c0 -138 112 -251 252 -251c138 0 251 112 251 251s-112 251 -251 251z" />
    <glyph glyph-name="macron" unicode="&#xaf;" horiz-adv-x="397" 
d="M315 529h-244c-9 0 -12 8 -12 15c0 12 10 29 22 29h244c10 0 14 -8 14 -14c0 -12 -11 -30 -24 -30z" />
    <glyph glyph-name="degree" unicode="&#xb0;" horiz-adv-x="267" 
d="M200 524c0 33 -21 73 -66 73c-43 0 -67 -37 -67 -73c0 -35 25 -70 67 -70c41 0 66 36 66 70zM34 525c0 56 45 100 100 100s99 -44 99 -100c0 -55 -44 -99 -99 -99s-100 44 -100 99z" />
    <glyph glyph-name="plusminus" unicode="&#xb1;" horiz-adv-x="527" 
d="M289 341h172v-49h-172v-173h-50v173h-173v49h173v174h50v-174zM461 67v-49h-395v49h395z" />
    <glyph glyph-name="two.superior" unicode="&#xb2;" horiz-adv-x="307" 
d="M73 587c-12 0 -26 11 -26 24c0 26 28 77 107 77c50 0 108 -19 108 -83c0 -46 -34 -79 -89 -119c-42 -30 -66 -59 -66 -90h81c31 0 47 39 58 67l24 -5c-9 -30 -16 -65 -19 -94h-206c0 48 44 90 91 127c45 36 67 59 67 113c0 47 -35 60 -53 60c-43 0 -54 -16 -54 -29
c0 -9 5 -16 5 -24c0 -16 -18 -24 -28 -24z" />
    <glyph glyph-name="three.superior" unicode="&#xb3;" horiz-adv-x="307" 
d="M188 624c0 31 -21 40 -40 40c-20 0 -54 -10 -55 -35c-1 -12 -3 -29 -26 -29c-19 0 -23 15 -23 18c0 17 29 70 116 70c52 0 85 -22 85 -59c0 -29 -22 -52 -51 -68c33 -3 80 -30 80 -88c0 -69 -66 -115 -146 -115c-37 0 -89 16 -89 37c0 10 13 20 24 20c14 0 20 -7 26 -14
c8 -10 18 -18 50 -18c19 0 76 13 76 82c0 57 -54 64 -78 64c-7 0 -12 -1 -20 -2l-2 24c44 6 73 32 73 73z" />
    <glyph glyph-name="acute" unicode="&#xb4;" horiz-adv-x="341" 
d="M175 703c3 1 10 2 14 2c28 0 41 -11 49 -18c3 -2 5 -4 7 -5l2 -11l-115 -109c-15 -15 -22 -20 -28 -20c-8 0 -15 6 -15 13c0 5 0 12 6 22z" />
    <glyph glyph-name="uni00B5" unicode="&#xb5;" horiz-adv-x="485" 
d="M101 -234c-16 0 -54 24 -54 65c0 51 16 98 16 161c0 33 -9 84 -9 142v188c0 28 -10 111 -10 111l82 9s3 -67 3 -99v-196c0 -65 16 -114 69 -114c54 0 104 33 126 66v334l75 9v-318c0 -63 0 -89 26 -89c13 0 23 17 34 44l24 -11c-19 -50 -39 -80 -91 -80
c-38 0 -68 33 -68 72c-40 -44 -84 -72 -145 -72c-22 0 -46 12 -57 25c-6 0 -12 -4 -12 -9c0 -65 32 -135 32 -178c0 -41 -18 -60 -41 -60z" />
    <glyph glyph-name="paragraph" unicode="&#xb6;" horiz-adv-x="602" 
d="M498 -144c0 -56 8 -61 40 -62h29c4 0 6 -3 6 -7v-21h-329v21c0 5 2 7 6 7h29c33 1 39 11 39 63v370c-14 -7 -45 -12 -77 -12c-83 0 -214 46 -214 224c0 123 71 207 203 207c75 0 136 -5 163 -5c35 0 69 3 69 3l111 2v-21c0 -4 -2 -7 -6 -7h-29c-36 0 -40 -16 -40 -62
v-700zM407 -207c29 0 32 20 32 62v701c0 58 -13 59 -29 60c-32 0 -33 -32 -33 -63v-696c0 -29 4 -64 30 -64z" />
    <glyph glyph-name="periodcentered" unicode="&#xb7;" horiz-adv-x="250" 
d="M125 204c-33 0 -54 26 -54 54s25 54 54 54c27 0 54 -24 54 -54c0 -29 -23 -54 -54 -54z" />
    <glyph glyph-name="cedilla" unicode="&#xb8;" horiz-adv-x="541" 
d="M293 -80c-19 0 -28 -1 -44 -6l-7 6l40 87h33l-23 -58c7 2 16 3 25 3c40 0 71 -24 71 -62c0 -43 -45 -71 -106 -71c-32 0 -50 6 -75 17l11 22c27 -10 37 -14 57 -14c30 0 60 14 60 41c0 21 -19 35 -42 35z" />
    <glyph glyph-name="one.superior" unicode="&#xb9;" horiz-adv-x="307" 
d="M127 621c-13 0 -43 -9 -57 -16l-9 27c46 17 72 29 116 56h16v-261c0 -22 12 -37 25 -37h28c3 0 6 -1 6 -5v-21s-52 1 -86 1c-38 0 -98 -1 -98 -1v21c0 2 4 5 8 5h35c16 0 31 15 31 37v152c0 32 -2 42 -15 42z" />
    <glyph glyph-name="ordmasculine" unicode="&#xba;" horiz-adv-x="349" 
d="M39 429c0 85 52 137 138 137c98 0 134 -64 134 -131c0 -68 -45 -132 -139 -132c-74 0 -133 54 -133 126zM171 541c-50 0 -74 -48 -74 -102c0 -49 26 -108 86 -108c27 0 71 16 71 88c0 80 -33 122 -83 122z" />
    <glyph glyph-name="guillemotright" unicode="&#xbb;" horiz-adv-x="536" 
d="M48 1v51c44 66 92 121 143 163c-48 37 -96 91 -143 163v51c80 -93 153 -158 219 -195v-38c-71 -50 -144 -114 -219 -195zM229 1v51c44 66 92 121 144 163c-49 37 -97 91 -144 163v51c80 -93 153 -158 219 -195v-38c-71 -50 -144 -114 -219 -195z" />
    <glyph glyph-name="onequarter" unicode="&#xbc;" horiz-adv-x="660" 
d="M532 601l42 -8l-459 -655l-41 8zM574 157v-105h55l-3 -34h-52v-50c0 -19 4 -25 23 -25h15c4 0 5 -3 5 -5v-20s-42 1 -69 1c-24 0 -62 -1 -62 -1v21c0 1 1 4 5 4h15c18 0 22 3 22 24v51h-144l-4 11l154 219l30 -10c-45 -70 -104 -152 -126 -186h90v76c0 7 5 15 7 18
c8 9 19 21 27 21c5 0 12 -1 12 -10zM124 572c-13 0 -43 -10 -58 -16l-9 27c47 17 73 28 116 56h16v-262c0 -22 12 -37 26 -37h28c3 0 6 -1 6 -5v-20s-53 1 -86 1c-38 0 -98 -1 -98 -1v21c0 2 3 4 7 4h36c16 0 30 15 30 37v152c0 33 -2 43 -14 43z" />
    <glyph glyph-name="onehalf" unicode="&#xbd;" horiz-adv-x="660" 
d="M532 601l42 -8l-459 -655l-41 8zM432 144c-13 0 -27 11 -27 24c0 26 29 77 108 77c49 0 107 -19 107 -82c0 -47 -33 -80 -89 -120c-42 -30 -66 -59 -66 -90h81c32 0 48 39 58 68l24 -6c-8 -30 -15 -65 -19 -94h-206c0 48 44 90 91 127c46 36 68 59 68 113
c0 47 -36 60 -54 60c-43 0 -53 -16 -53 -29c0 -8 4 -16 4 -24c0 -16 -18 -24 -27 -24zM126 572c-13 0 -43 -10 -57 -16l-9 27c46 17 72 28 116 56h16v-262c0 -22 12 -37 25 -37h28c3 0 6 -1 6 -5v-20s-52 1 -86 1c-38 0 -98 -1 -98 -1v21c0 2 4 4 8 4h35c16 0 31 15 31 37
v152c0 33 -2 43 -15 43z" />
    <glyph glyph-name="threequarters" unicode="&#xbe;" horiz-adv-x="660" 
d="M532 601l42 -8l-459 -655l-41 8zM187 573c0 31 -21 40 -41 40s-54 -10 -55 -35c-1 -12 -3 -29 -26 -29c-19 0 -23 15 -23 18c0 17 29 70 116 70c52 0 85 -22 85 -58c0 -30 -22 -53 -51 -69c33 -3 80 -30 80 -88c0 -69 -66 -114 -146 -114c-37 0 -89 15 -89 36
c0 10 13 20 24 20c14 0 20 -7 26 -14c8 -10 18 -18 50 -18c19 0 76 13 76 83c0 56 -54 63 -78 63c-7 0 -12 0 -20 -2l-2 24c44 6 74 32 74 73zM578 160v-106h55l-3 -34h-52v-50c0 -18 4 -25 23 -25h15c4 0 5 -2 5 -4v-20s-42 1 -69 1c-24 0 -62 -1 -62 -1v20c0 2 1 4 5 4h15
c18 0 22 3 22 25v50h-144l-4 12l154 218l30 -10l-127 -186h91v77c0 7 5 15 7 17c8 9 19 21 26 21c6 0 13 -1 13 -9z" />
    <glyph glyph-name="questiondown" unicode="&#xbf;" horiz-adv-x="405" 
d="M309 -142c0 15 -2 20 -6 26c-4 5 -7 11 -7 24c0 23 20 35 40 35c16 0 40 -8 40 -43c0 -39 -20 -66 -50 -90c-30 -25 -71 -39 -124 -39c-102 0 -165 60 -165 150c0 79 59 123 106 158c23 17 43 33 52 49c13 25 18 50 18 74v44c0 6 5 10 13 10c7 0 12 -4 12 -10v-46
c0 -43 -1 -102 -66 -161c-40 -37 -61 -66 -61 -114c0 -64 43 -125 101 -125c57 0 97 28 97 58zM279 389c0 -30 -24 -54 -53 -54c-30 0 -54 24 -54 54c0 29 24 53 54 53c29 0 53 -24 53 -53z" />
    <glyph glyph-name="Agrave" unicode="&#xc0;" horiz-adv-x="695" 
d="M284 819l121 -85c11 -7 15 -14 15 -21c0 -9 -5 -14 -14 -14s-22 3 -43 11l-155 63zM259 283h179l-99 267l-104 -249c-1 -4 -2 -6 -2 -9c0 -6 7 -9 26 -9zM140 72c-3 -7 -4 -13 -4 -19c0 -16 16 -25 46 -25h29c4 0 8 -3 8 -8v-19l-2 -2s-99 2 -123 2c-26 0 -90 -2 -90 -2
l-2 2v19c0 5 3 8 8 8h12c41 0 59 19 73 53l234 547c9 23 17 30 27 30c18 0 26 -10 34 -30l205 -542c14 -39 34 -58 74 -58h11c5 0 10 -3 10 -8v-19l-3 -2s-77 2 -116 2c-35 0 -133 -2 -133 -2l-1 2v19c0 5 2 8 7 8h28c31 0 47 11 47 27c0 5 -1 11 -3 17l-64 172h-211
c-24 0 -32 -6 -36 -17z" />
    <glyph glyph-name="Aacute" unicode="&#xc1;" horiz-adv-x="695" 
d="M417 821l62 -52l-144 -59c-22 -8 -35 -11 -43 -11c-9 0 -15 5 -15 14c0 7 3 13 15 21zM259 283h179l-99 267l-104 -249c-1 -4 -2 -6 -2 -9c0 -6 7 -9 26 -9zM140 72c-3 -7 -4 -13 -4 -19c0 -16 16 -25 46 -25h29c4 0 8 -3 8 -8v-19l-2 -2s-99 2 -123 2
c-26 0 -90 -2 -90 -2l-2 2v19c0 5 3 8 8 8h12c41 0 59 19 73 53l234 547c9 23 17 30 27 30c18 0 26 -10 34 -30l205 -542c14 -39 34 -58 74 -58h11c5 0 10 -3 10 -8v-19l-3 -2s-77 2 -116 2c-35 0 -133 -2 -133 -2l-1 2v19c0 5 2 8 7 8h28c31 0 47 11 47 27c0 5 -1 11 -3 17
l-64 172h-211c-24 0 -32 -6 -36 -17z" />
    <glyph glyph-name="Acircumflex" unicode="&#xc2;" horiz-adv-x="695" 
d="M379 805c30 -37 65 -67 101 -95l-16 -20c-39 17 -73 37 -106 61c-37 -26 -69 -44 -107 -61l-14 20c37 29 69 61 99 95h43zM259 283h179l-99 267l-104 -249c-1 -4 -2 -6 -2 -9c0 -6 7 -9 26 -9zM140 72c-3 -7 -4 -13 -4 -19c0 -16 16 -25 46 -25h29c4 0 8 -3 8 -8v-19
l-2 -2s-99 2 -123 2c-26 0 -90 -2 -90 -2l-2 2v19c0 5 3 8 8 8h12c41 0 59 19 73 53l234 547c9 23 17 30 27 30c18 0 26 -10 34 -30l205 -542c14 -39 34 -58 74 -58h11c5 0 10 -3 10 -8v-19l-3 -2s-77 2 -116 2c-35 0 -133 -2 -133 -2l-1 2v19c0 5 2 8 7 8h28
c31 0 47 11 47 27c0 5 -1 11 -3 17l-64 172h-211c-24 0 -32 -6 -36 -17z" />
    <glyph glyph-name="Atilde" unicode="&#xc3;" horiz-adv-x="695" 
d="M422 744c22 0 36 11 50 53l24 -6c-12 -61 -40 -91 -87 -91c-22 0 -43 13 -63 26c-19 12 -37 23 -55 23c-26 0 -39 -15 -49 -48l-23 5c13 59 36 88 79 88c31 0 53 -14 72 -27c17 -12 33 -23 52 -23zM259 283h179l-99 267l-104 -249c-1 -4 -2 -6 -2 -9c0 -6 7 -9 26 -9z
M140 72c-3 -7 -4 -13 -4 -19c0 -16 16 -25 46 -25h29c4 0 8 -3 8 -8v-19l-2 -2s-99 2 -123 2c-26 0 -90 -2 -90 -2l-2 2v19c0 5 3 8 8 8h12c41 0 59 19 73 53l234 547c9 23 17 30 27 30c18 0 26 -10 34 -30l205 -542c14 -39 34 -58 74 -58h11c5 0 10 -3 10 -8v-19l-3 -2
s-77 2 -116 2c-35 0 -133 -2 -133 -2l-1 2v19c0 5 2 8 7 8h28c31 0 47 11 47 27c0 5 -1 11 -3 17l-64 172h-211c-24 0 -32 -6 -36 -17z" />
    <glyph glyph-name="Adieresis" unicode="&#xc4;" horiz-adv-x="695" 
d="M420 686c0 24 21 45 46 45s45 -21 45 -45c0 -25 -20 -46 -45 -46s-46 21 -46 46zM198 685c0 25 21 45 46 45s45 -20 45 -45s-20 -45 -45 -45s-46 20 -46 45zM259 283h179l-99 267l-104 -249c-1 -4 -2 -6 -2 -9c0 -6 7 -9 26 -9zM140 72c-3 -7 -4 -13 -4 -19
c0 -16 16 -25 46 -25h29c4 0 8 -3 8 -8v-19l-2 -2s-99 2 -123 2c-26 0 -90 -2 -90 -2l-2 2v19c0 5 3 8 8 8h12c41 0 59 19 73 53l234 547c9 23 17 30 27 30c18 0 26 -10 34 -30l205 -542c14 -39 34 -58 74 -58h11c5 0 10 -3 10 -8v-19l-3 -2s-77 2 -116 2
c-35 0 -133 -2 -133 -2l-1 2v19c0 5 2 8 7 8h28c31 0 47 11 47 27c0 5 -1 11 -3 17l-64 172h-211c-24 0 -32 -6 -36 -17z" />
    <glyph glyph-name="Aring" unicode="&#xc5;" horiz-adv-x="695" 
d="M259 283h179l-99 267l-104 -249c-1 -4 -2 -6 -2 -9c0 -6 7 -9 26 -9zM273 714c0 45 38 83 85 83c46 0 86 -37 86 -83c0 -36 -24 -67 -57 -78l3 -8l205 -542c14 -39 34 -58 74 -58h11c5 0 10 -3 10 -8v-19l-3 -2s-77 2 -116 2c-35 0 -133 -2 -133 -2l-1 2v19c0 5 2 8 7 8
h28c31 0 47 11 47 27c0 5 -1 11 -3 17l-64 172h-211c-24 0 -32 -6 -36 -17l-65 -155c-3 -7 -4 -13 -4 -19c0 -16 16 -25 46 -25h29c4 0 8 -3 8 -8v-19l-2 -2s-99 2 -123 2c-26 0 -90 -2 -90 -2l-2 2v19c0 5 3 8 8 8h12c41 0 59 19 73 53l234 547c1 3 2 5 3 7
c-34 11 -59 42 -59 79zM358 770c-30 0 -53 -27 -53 -56c0 -28 22 -56 53 -56c32 0 54 28 54 56c0 31 -24 56 -54 56z" />
    <glyph glyph-name="AE" unicode="&#xc6;" horiz-adv-x="865" 
d="M271 305h158v270c0 12 0 17 -2 23zM471 3c-36 -2 -129 -4 -129 -4l-2 2v18c0 5 3 9 8 9h26c41 0 55 16 55 44v194h-179l-105 -198c-10 -17 -13 -24 -13 -29c0 -9 8 -11 32 -11h29c4 0 6 -4 6 -6v-21l-1 -2s-65 2 -104 2c-35 0 -90 -2 -90 -2l-2 2v19c0 5 4 8 10 8h23
c28 0 41 7 60 42l266 507c3 6 4 10 4 14c0 16 -17 27 -32 27h-31c-6 0 -8 3 -8 7v20l2 1h176l77 1l222 1c5 -53 14 -114 21 -155l-29 -5c-22 69 -39 120 -115 120h-100c-24 0 -36 -8 -36 -32v-213h102c35 0 44 16 51 44l6 30c1 4 4 8 8 8h22c2 0 3 -2 3 -4
c-3 -25 -8 -62 -8 -95c0 -34 6 -79 8 -96l-2 -3h-23c-6 0 -8 3 -9 7l-5 31c-6 28 -17 44 -51 44h-102v-255c0 -27 14 -33 36 -33h131c76 0 106 59 126 131l30 -5c-11 -52 -22 -109 -26 -165h-260z" />
    <glyph glyph-name="Ccedilla" unicode="&#xc7;" horiz-adv-x="644" 
d="M358 -84c-19 0 -28 -1 -45 -7l-6 7l33 72c-205 8 -303 170 -303 327c0 197 153 343 319 343c123 0 162 -42 219 -45c3 -55 12 -103 22 -155l-30 -4c-26 86 -84 167 -222 167c-79 0 -221 -84 -221 -287c0 -146 75 -305 230 -305c93 0 161 33 232 111l23 -15
c-63 -83 -146 -131 -234 -137l-19 -44c8 2 17 3 26 3c40 0 71 -23 71 -62c0 -42 -45 -71 -106 -71c-33 0 -50 6 -75 18l11 22c27 -10 37 -14 57 -14c30 0 60 14 60 41c0 21 -19 35 -42 35z" />
    <glyph glyph-name="Egrave" unicode="&#xc8;" horiz-adv-x="569" 
d="M245 818l121 -85c10 -7 15 -14 15 -21c0 -9 -6 -14 -15 -14s-22 3 -43 11l-155 63zM353 606h-135c-24 0 -36 -8 -36 -32v-213h137c35 0 44 16 50 44l7 30c0 4 3 8 7 8h22c3 0 4 -2 4 -4c-4 -25 -8 -62 -8 -95c0 -34 5 -79 8 -96l-3 -3h-23c-5 0 -8 4 -8 7l-6 31
c-5 29 -16 44 -50 44h-137v-255c0 -27 14 -33 36 -33h166c76 0 105 59 125 131l31 -5c-12 -52 -22 -109 -27 -165h-294l-77 1l-128 -2l-2 2v20c0 3 2 7 8 7h30c40 0 52 16 52 44v501c0 31 -14 45 -52 45h-30c-7 0 -8 4 -8 7v20l2 1l128 -1l78 1h256c4 -53 13 -114 21 -155
l-29 -5c-22 69 -40 120 -115 120z" />
    <glyph glyph-name="Eacute" unicode="&#xc9;" horiz-adv-x="569" 
d="M350 821l63 -52l-144 -59c-22 -8 -35 -11 -43 -11c-10 0 -15 5 -15 14c0 7 2 13 15 21zM353 606h-135c-24 0 -36 -8 -36 -32v-213h137c35 0 44 16 50 44l7 30c0 4 3 8 7 8h22c3 0 4 -2 4 -4c-4 -25 -8 -62 -8 -95c0 -34 5 -79 8 -96l-3 -3h-23c-5 0 -8 4 -8 7l-6 31
c-5 29 -16 44 -50 44h-137v-255c0 -27 14 -33 36 -33h166c76 0 105 59 125 131l31 -5c-12 -52 -22 -109 -27 -165h-294l-77 1l-128 -2l-2 2v20c0 3 2 7 8 7h30c40 0 52 16 52 44v501c0 31 -14 45 -52 45h-30c-7 0 -8 4 -8 7v20l2 1l128 -1l78 1h256c4 -53 13 -114 21 -155
l-29 -5c-22 69 -40 120 -115 120z" />
    <glyph glyph-name="Ecircumflex" unicode="&#xca;" horiz-adv-x="569" 
d="M317 805c30 -36 65 -67 101 -94l-16 -21c-39 18 -73 37 -106 62c-37 -27 -69 -45 -107 -62l-14 21c37 28 69 60 99 94h43zM353 606h-135c-24 0 -36 -8 -36 -32v-213h137c35 0 44 16 50 44l7 30c0 4 3 8 7 8h22c3 0 4 -2 4 -4c-4 -25 -8 -62 -8 -95c0 -34 5 -79 8 -96
l-3 -3h-23c-5 0 -8 4 -8 7l-6 31c-5 29 -16 44 -50 44h-137v-255c0 -27 14 -33 36 -33h166c76 0 105 59 125 131l31 -5c-12 -52 -22 -109 -27 -165h-294l-77 1l-128 -2l-2 2v20c0 3 2 7 8 7h30c40 0 52 16 52 44v501c0 31 -14 45 -52 45h-30c-7 0 -8 4 -8 7v20l2 1l128 -1
l78 1h256c4 -53 13 -114 21 -155l-29 -5c-22 69 -40 120 -115 120z" />
    <glyph glyph-name="Edieresis" unicode="&#xcb;" horiz-adv-x="569" 
d="M337 750c0 25 21 46 46 46s45 -21 45 -46c0 -24 -20 -45 -45 -45s-46 21 -46 45zM148 750c0 25 20 45 45 45s46 -20 46 -45s-21 -45 -46 -45s-45 20 -45 45zM353 606h-135c-24 0 -36 -8 -36 -32v-213h137c35 0 44 16 50 44l7 30c0 4 3 8 7 8h22c3 0 4 -2 4 -4
c-4 -25 -8 -62 -8 -95c0 -34 5 -79 8 -96l-3 -3h-23c-5 0 -8 4 -8 7l-6 31c-5 29 -16 44 -50 44h-137v-255c0 -27 14 -33 36 -33h166c76 0 105 59 125 131l31 -5c-12 -52 -22 -109 -27 -165h-294l-77 1l-128 -2l-2 2v20c0 3 2 7 8 7h30c40 0 52 16 52 44v501
c0 31 -14 45 -52 45h-30c-7 0 -8 4 -8 7v20l2 1l128 -1l78 1h256c4 -53 13 -114 21 -155l-29 -5c-22 69 -40 120 -115 120z" />
    <glyph glyph-name="Igrave" unicode="&#xcc;" horiz-adv-x="293" 
d="M99 818l121 -85c11 -7 15 -14 15 -21c0 -9 -5 -14 -14 -14s-22 3 -43 11l-155 63zM187 574v-503c0 -30 15 -43 55 -43h26c4 0 8 -3 8 -8v-19l-2 -2s-86 2 -126 2c-35 0 -128 -2 -128 -2l-2 2v19c0 5 3 8 7 8h27c41 0 54 15 54 43v503c0 30 -15 44 -54 44h-27
c-4 0 -8 3 -8 8v19l2 1s87 -1 126 -1c36 0 129 1 129 1l2 -1v-19c0 -5 -3 -8 -8 -8h-26c-41 0 -55 -16 -55 -44z" />
    <glyph glyph-name="Iacute" unicode="&#xcd;" horiz-adv-x="293" 
d="M210 820l62 -52l-144 -59c-21 -8 -34 -11 -43 -11s-14 5 -14 14c0 7 2 13 15 21zM187 574v-503c0 -30 15 -43 55 -43h26c4 0 8 -3 8 -8v-19l-2 -2s-86 2 -126 2c-35 0 -128 -2 -128 -2l-2 2v19c0 5 3 8 7 8h27c41 0 54 15 54 43v503c0 30 -15 44 -54 44h-27
c-4 0 -8 3 -8 8v19l2 1s87 -1 126 -1c36 0 129 1 129 1l2 -1v-19c0 -5 -3 -8 -8 -8h-26c-41 0 -55 -16 -55 -44z" />
    <glyph glyph-name="Icircumflex" unicode="&#xce;" horiz-adv-x="293" 
d="M167 805c30 -36 65 -67 101 -94l-16 -21c-39 18 -73 37 -106 62c-37 -27 -69 -45 -107 -62l-14 21c37 28 69 60 100 94h42zM187 574v-503c0 -30 15 -43 55 -43h26c4 0 8 -3 8 -8v-19l-2 -2s-86 2 -126 2c-35 0 -128 -2 -128 -2l-2 2v19c0 5 3 8 7 8h27c41 0 54 15 54 43
v503c0 30 -15 44 -54 44h-27c-4 0 -8 3 -8 8v19l2 1s87 -1 126 -1c36 0 129 1 129 1l2 -1v-19c0 -5 -3 -8 -8 -8h-26c-41 0 -55 -16 -55 -44z" />
    <glyph glyph-name="Idieresis" unicode="&#xcf;" horiz-adv-x="293" 
d="M196 749c0 25 20 45 45 45s46 -20 46 -45s-21 -45 -46 -45s-45 20 -45 45zM6 749c0 24 21 45 46 45s45 -21 45 -45c0 -25 -20 -46 -45 -46s-46 21 -46 46zM187 574v-503c0 -30 15 -43 55 -43h26c4 0 8 -3 8 -8v-19l-2 -2s-86 2 -126 2c-35 0 -128 -2 -128 -2l-2 2v19
c0 5 3 8 7 8h27c41 0 54 15 54 43v503c0 30 -15 44 -54 44h-27c-4 0 -8 3 -8 8v19l2 1s87 -1 126 -1c36 0 129 1 129 1l2 -1v-19c0 -5 -3 -8 -8 -8h-26c-41 0 -55 -16 -55 -44z" />
    <glyph glyph-name="Eth" unicode="&#xd0;" horiz-adv-x="697" 
d="M17 19c0 5 3 9 7 9h30c38 0 52 14 52 46v213h-89v39h89v246c0 36 -10 46 -52 46h-28c-5 0 -9 3 -9 8v18l2 2l126 -1s130 1 164 1c192 0 345 -152 345 -338c0 -246 -186 -309 -327 -309c-103 0 -182 2 -182 2l-126 -2l-2 2v18zM187 72c0 -32 11 -39 109 -39
c141 0 266 49 266 251c0 154 -75 329 -291 329c-49 0 -84 -4 -84 -39v-248h101v-39h-101v-215z" />
    <glyph glyph-name="Ntilde" unicode="&#xd1;" horiz-adv-x="695" 
d="M417 742c21 0 35 10 49 52l24 -6c-12 -60 -40 -90 -87 -90c-22 0 -43 13 -63 26c-19 11 -37 22 -55 22c-26 0 -39 -15 -49 -48l-23 5c14 59 36 89 79 89c31 0 53 -14 72 -28c17 -11 33 -22 53 -22zM603 557v-536c0 -19 -7 -29 -21 -29c-16 1 -29 7 -40 22l-349 441
c-17 22 -28 33 -34 33c-8 0 -10 -15 -10 -49v-351c0 -30 15 -60 55 -60h26c4 0 8 -3 8 -8v-19l-2 -2s-71 2 -111 2c-35 0 -107 -2 -107 -2l-7 2v18c0 5 8 9 13 9h26c41 0 54 33 54 60v462c-6 26 -35 68 -68 68c-8 0 -17 1 -17 8v16l2 4h131l349 -441c29 -37 42 -65 50 -65
c7 0 7 19 7 38v379c0 27 -13 61 -54 61h-26c-5 0 -14 3 -14 8v19l5 1s74 -1 110 -1c39 0 111 1 111 1l2 -1v-19c0 -5 -4 -8 -8 -8h-27c-39 0 -54 -31 -54 -61z" />
    <glyph glyph-name="Ograve" unicode="&#xd2;" horiz-adv-x="698" 
d="M303 819l121 -84c11 -8 15 -14 15 -21c0 -10 -5 -15 -14 -15s-22 3 -43 12l-155 62zM334 624c-96 0 -206 -87 -206 -297c0 -192 120 -305 240 -305c114 0 202 109 202 288c0 208 -95 314 -236 314zM662 329c0 -200 -123 -341 -314 -341c-172 0 -311 125 -311 322
c0 196 131 348 310 348c180 0 315 -131 315 -329z" />
    <glyph glyph-name="Oacute" unicode="&#xd3;" horiz-adv-x="698" 
d="M387 821l62 -52l-144 -59c-21 -8 -34 -11 -43 -11s-14 5 -14 14c0 7 2 13 15 21zM334 624c-96 0 -206 -87 -206 -297c0 -192 120 -305 240 -305c114 0 202 109 202 288c0 208 -95 314 -236 314zM662 329c0 -200 -123 -341 -314 -341c-172 0 -311 125 -311 322
c0 196 131 348 310 348c180 0 315 -131 315 -329z" />
    <glyph glyph-name="Ocircumflex" unicode="&#xd4;" horiz-adv-x="698" 
d="M368 805c29 -36 64 -67 100 -94l-15 -21c-39 18 -74 37 -107 62c-36 -27 -69 -45 -107 -62l-14 21c37 28 69 60 100 94h43zM334 624c-96 0 -206 -87 -206 -297c0 -192 120 -305 240 -305c114 0 202 109 202 288c0 208 -95 314 -236 314zM662 329
c0 -200 -123 -341 -314 -341c-172 0 -311 125 -311 322c0 196 131 348 310 348c180 0 315 -131 315 -329z" />
    <glyph glyph-name="Otilde" unicode="&#xd5;" horiz-adv-x="698" 
d="M410 742c22 0 36 10 50 52l24 -6c-12 -60 -41 -90 -87 -90c-22 0 -43 13 -64 26c-18 11 -37 22 -54 22c-26 0 -39 -15 -49 -48l-23 5c13 59 36 89 79 89c30 0 52 -14 72 -28c17 -11 33 -22 52 -22zM334 624c-96 0 -206 -87 -206 -297c0 -192 120 -305 240 -305
c114 0 202 109 202 288c0 208 -95 314 -236 314zM662 329c0 -200 -123 -341 -314 -341c-172 0 -311 125 -311 322c0 196 131 348 310 348c180 0 315 -131 315 -329z" />
    <glyph glyph-name="Odieresis" unicode="&#xd6;" horiz-adv-x="698" 
d="M109 688c0 25 21 45 46 45s45 -20 45 -45s-20 -45 -45 -45s-46 20 -46 45zM494 685c0 25 20 45 45 45s45 -20 45 -45s-20 -45 -45 -45s-45 20 -45 45zM334 624c-96 0 -206 -87 -206 -297c0 -192 120 -305 240 -305c114 0 202 109 202 288c0 208 -95 314 -236 314z
M662 329c0 -200 -123 -341 -314 -341c-172 0 -311 125 -311 322c0 196 131 348 310 348c180 0 315 -131 315 -329z" />
    <glyph glyph-name="multiply" unicode="&#xd7;" horiz-adv-x="527" 
d="M298 230l123 -122l-35 -35l-122 122l-122 -122l-36 35l123 122l-123 123l36 35l122 -123l122 123l35 -35z" />
    <glyph glyph-name="Oslash" unicode="&#xd8;" horiz-adv-x="698" 
d="M81 -40l-29 26l74 91c-55 56 -89 136 -89 233c0 196 131 348 310 348c76 0 145 -24 198 -66l63 78l29 -24l-64 -79c56 -57 89 -139 89 -238c0 -200 -123 -341 -314 -341c-73 0 -140 22 -193 63zM334 624c-96 0 -206 -87 -206 -297c0 -75 19 -139 48 -187l329 404
c-41 53 -100 80 -171 80zM527 511l-327 -404c45 -55 106 -85 168 -85c114 0 202 109 202 288c0 83 -15 150 -43 201z" />
    <glyph glyph-name="Ugrave" unicode="&#xd9;" horiz-adv-x="661" 
d="M275 819l121 -85c11 -7 16 -14 16 -21c0 -9 -6 -14 -15 -14s-22 3 -43 11l-155 63zM321 -12c-90 0 -232 42 -232 246v340c0 31 -15 44 -54 44h-27c-4 0 -8 3 -8 8v19l2 1s87 -1 126 -1c36 0 129 1 129 1l2 -1v-19c0 -5 -3 -8 -8 -8h-26c-41 0 -55 -16 -55 -44v-307
c0 -65 0 -135 53 -188c30 -29 71 -50 119 -50c169 0 184 134 184 246v299c0 31 -15 44 -54 44h-27c-4 0 -8 3 -8 8v19l2 1s71 -1 110 -1c36 0 110 1 110 1l2 -1v-19c0 -5 -3 -8 -8 -8h-26c-41 0 -55 -16 -55 -44v-281c0 -178 -46 -305 -251 -305z" />
    <glyph glyph-name="Uacute" unicode="&#xda;" horiz-adv-x="661" 
d="M405 820l62 -52l-144 -59c-21 -8 -34 -11 -43 -11s-14 5 -14 14c0 7 2 13 15 21zM321 -12c-90 0 -232 42 -232 246v340c0 31 -15 44 -54 44h-27c-4 0 -8 3 -8 8v19l2 1s87 -1 126 -1c36 0 129 1 129 1l2 -1v-19c0 -5 -3 -8 -8 -8h-26c-41 0 -55 -16 -55 -44v-307
c0 -65 0 -135 53 -188c30 -29 71 -50 119 -50c169 0 184 134 184 246v299c0 31 -15 44 -54 44h-27c-4 0 -8 3 -8 8v19l2 1s71 -1 110 -1c36 0 110 1 110 1l2 -1v-19c0 -5 -3 -8 -8 -8h-26c-41 0 -55 -16 -55 -44v-281c0 -178 -46 -305 -251 -305z" />
    <glyph glyph-name="Ucircumflex" unicode="&#xdb;" horiz-adv-x="661" 
d="M371 805c29 -36 64 -67 100 -94l-15 -21c-39 18 -74 37 -107 62c-37 -27 -69 -45 -107 -62l-14 21c37 28 69 60 100 94h43zM321 -12c-90 0 -232 42 -232 246v340c0 31 -15 44 -54 44h-27c-4 0 -8 3 -8 8v19l2 1s87 -1 126 -1c36 0 129 1 129 1l2 -1v-19c0 -5 -3 -8 -8 -8
h-26c-41 0 -55 -16 -55 -44v-307c0 -65 0 -135 53 -188c30 -29 71 -50 119 -50c169 0 184 134 184 246v299c0 31 -15 44 -54 44h-27c-4 0 -8 3 -8 8v19l2 1s71 -1 110 -1c36 0 110 1 110 1l2 -1v-19c0 -5 -3 -8 -8 -8h-26c-41 0 -55 -16 -55 -44v-281
c0 -178 -46 -305 -251 -305z" />
    <glyph glyph-name="Udieresis" unicode="&#xdc;" horiz-adv-x="661" 
d="M232 687c0 25 20 45 45 45s44 -20 44 -45s-19 -45 -44 -45s-45 20 -45 45zM376 687c0 24 20 45 44 45c25 0 46 -21 46 -45c0 -25 -21 -46 -46 -46c-24 0 -44 21 -44 46zM320 -12c-89 0 -231 42 -231 246v338c0 40 -36 46 -70 46c-5 0 -9 3 -9 8v19l2 1s76 -1 115 -1
c36 0 56 1 92 1c5 0 6 -4 6 -10v-10c0 -5 -3 -8 -8 -8c-40 -6 -48 -21 -48 -49v-302c0 -65 1 -135 54 -188c29 -29 71 -50 119 -50c168 0 184 134 184 246v294c0 31 -13 42 -48 49c-4 1 -8 3 -8 8v11c0 6 6 9 9 9c27 0 31 -1 70 -1c35 0 100 1 100 1l2 -1v-19
c0 -7 -8 -8 -25 -8c-41 0 -54 -18 -54 -46v-279c0 -178 -46 -305 -252 -305z" />
    <glyph glyph-name="Yacute" unicode="&#xdd;" horiz-adv-x="574" 
d="M359 821l63 -52l-144 -59c-22 -8 -35 -11 -43 -11c-9 0 -15 5 -15 14c0 7 3 13 15 21zM254 72v209l-170 293c-11 20 -20 31 -33 39c-5 3 -14 5 -29 5h-12c-3 0 -10 1 -10 7v20l1 1s93 -1 106 -1c6 0 115 1 115 1l1 -1v-19c0 -4 -2 -8 -6 -8h-29c-19 0 -25 -4 -25 -13
c0 -6 4 -15 12 -29l140 -235l127 235c8 14 11 23 11 28c0 11 -5 14 -25 14h-30c-4 0 -5 4 -5 7v20l1 1s79 -1 92 -1c9 0 87 1 87 1l2 -1v-20c0 -5 -4 -7 -10 -7h-21c-30 0 -43 -12 -61 -44l-149 -281v-221c0 -31 16 -44 55 -44h27c4 0 8 -3 8 -8v-19l-2 -2s-87 2 -126 2
c-36 0 -129 -2 -129 -2l-2 2v19c0 5 3 8 8 8h26c41 0 55 16 55 44z" />
    <glyph glyph-name="Thorn" unicode="&#xde;" horiz-adv-x="523" 
d="M179 479v-292c9 -3 33 -5 71 -5c72 0 158 32 158 161c0 120 -81 150 -140 150c-19 0 -68 -8 -89 -14zM98 575c0 30 -15 43 -55 43h-26c-4 0 -8 3 -8 8v19l2 1s87 -1 126 -1c35 0 129 1 129 1l2 -1v-19c0 -5 -3 -8 -8 -8h-27c-41 0 -54 -15 -54 -43v-56c36 2 71 2 90 2
c185 0 220 -107 220 -178c0 -75 -56 -191 -234 -191c-35 0 -61 2 -76 7v-87c0 -31 15 -44 54 -44h27c4 0 8 -3 8 -8v-19l-2 -2s-87 2 -126 2c-36 0 -129 -2 -129 -2l-2 2v19c0 5 3 8 8 8h26c41 0 55 16 55 44v503z" />
    <glyph glyph-name="germandbls" unicode="&#xdf;" horiz-adv-x="535" 
d="M92 477c0 165 121 221 200 221c104 0 148 -63 148 -111c0 -77 -54 -123 -124 -176v-2c79 -52 178 -120 178 -236c0 -105 -62 -185 -154 -185c-84 0 -104 52 -104 96c0 16 15 35 31 35c20 0 28 -10 28 -30c0 -17 -8 -26 -8 -38c0 -30 30 -31 53 -31c30 0 66 45 66 136
c0 93 -66 176 -150 240v13c67 52 105 92 105 165c0 54 -25 92 -78 92c-104 0 -116 -116 -116 -224v-356c0 -35 16 -58 43 -58c5 0 9 -3 9 -8v-19l-2 -2s-50 2 -90 2c-35 0 -103 -2 -103 -2l-2 2v19c0 5 3 8 8 8h19c34 0 43 15 43 44v308c0 12 -1 16 -15 16h-44
c-5 0 -6 1 -6 5v9c0 8 6 20 23 20c31 0 42 20 42 47z" />
    <glyph glyph-name="agrave" unicode="&#xe0;" horiz-adv-x="451" 
d="M196 670l70 -125c5 -10 6 -17 6 -24c0 -5 -7 -11 -15 -11c-6 0 -13 5 -28 20l-115 109l2 10c8 7 31 24 65 24c5 0 11 -1 15 -3zM291 245l-79 -20c-88 -27 -101 -73 -101 -118c0 -31 15 -78 78 -78c30 0 76 29 102 51v165zM355 -12c-38 0 -59 34 -63 58l-23 -16
c-46 -32 -63 -42 -109 -42c-70 0 -121 40 -121 115c0 76 65 128 160 152l92 23c0 113 -52 134 -86 134c-38 0 -82 -17 -82 -48c0 -11 2 -17 3 -20c2 -4 3 -11 3 -18c0 -13 -10 -33 -39 -33c-24 0 -40 16 -40 40c0 58 94 109 158 109c73 0 157 -30 157 -172v-147
c0 -61 1 -87 24 -87c22 0 28 28 29 50l25 -5c-6 -73 -37 -93 -88 -93z" />
    <glyph glyph-name="aacute" unicode="&#xe1;" horiz-adv-x="451" 
d="M243 670c4 2 10 3 15 3c28 0 40 -11 49 -19c2 -2 4 -3 6 -5l2 -10l-114 -109c-16 -15 -23 -20 -29 -20c-8 0 -15 6 -15 12s0 13 7 23zM291 245l-79 -20c-88 -27 -101 -73 -101 -118c0 -31 15 -78 78 -78c30 0 76 29 102 51v165zM355 -12c-38 0 -59 34 -63 58l-23 -16
c-46 -32 -63 -42 -109 -42c-70 0 -121 40 -121 115c0 76 65 128 160 152l92 23c0 113 -52 134 -86 134c-38 0 -82 -17 -82 -48c0 -11 2 -17 3 -20c2 -4 3 -11 3 -18c0 -13 -10 -33 -39 -33c-24 0 -40 16 -40 40c0 58 94 109 158 109c73 0 157 -30 157 -172v-147
c0 -61 1 -87 24 -87c22 0 28 28 29 50l25 -5c-6 -73 -37 -93 -88 -93z" />
    <glyph glyph-name="acircumflex" unicode="&#xe2;" horiz-adv-x="451" 
d="M240 646c29 -47 66 -89 101 -129l-20 -15c-39 29 -73 54 -107 90c-37 -38 -69 -63 -106 -90l-20 15c35 39 73 83 102 129h50zM291 245l-79 -20c-88 -27 -101 -73 -101 -118c0 -31 15 -78 78 -78c30 0 76 29 102 51v165zM355 -12c-38 0 -59 34 -63 58l-23 -16
c-46 -32 -63 -42 -109 -42c-70 0 -121 40 -121 115c0 76 65 128 160 152l92 23c0 113 -52 134 -86 134c-38 0 -82 -17 -82 -48c0 -11 2 -17 3 -20c2 -4 3 -11 3 -18c0 -13 -10 -33 -39 -33c-24 0 -40 16 -40 40c0 58 94 109 158 109c73 0 157 -30 157 -172v-147
c0 -61 1 -87 24 -87c22 0 28 28 29 50l25 -5c-6 -73 -37 -93 -88 -93z" />
    <glyph glyph-name="atilde" unicode="&#xe3;" horiz-adv-x="451" 
d="M283 569c22 0 36 11 50 53l24 -6c-12 -60 -41 -91 -87 -91c-22 0 -43 13 -63 26c-19 12 -38 23 -55 23c-26 0 -39 -15 -49 -48l-23 5c13 59 36 89 79 89c30 0 52 -15 72 -28c17 -12 33 -23 52 -23zM291 245l-79 -20c-88 -27 -101 -73 -101 -118c0 -31 15 -78 78 -78
c30 0 76 29 102 51v165zM355 -12c-38 0 -59 34 -63 58l-23 -16c-46 -32 -63 -42 -109 -42c-70 0 -121 40 -121 115c0 76 65 128 160 152l92 23c0 113 -52 134 -86 134c-38 0 -82 -17 -82 -48c0 -11 2 -17 3 -20c2 -4 3 -11 3 -18c0 -13 -10 -33 -39 -33c-24 0 -40 16 -40 40
c0 58 94 109 158 109c73 0 157 -30 157 -172v-147c0 -61 1 -87 24 -87c22 0 28 28 29 50l25 -5c-6 -73 -37 -93 -88 -93z" />
    <glyph glyph-name="adieresis" unicode="&#xe4;" horiz-adv-x="451" 
d="M249 572c0 25 20 46 45 46s45 -21 45 -46s-20 -45 -45 -45s-45 20 -45 45zM88 572c0 25 20 46 45 46s46 -21 46 -46s-21 -45 -46 -45s-45 20 -45 45zM291 245l-79 -20c-88 -27 -101 -73 -101 -118c0 -31 15 -78 78 -78c30 0 76 29 102 51v165zM355 -12
c-38 0 -59 34 -63 58l-23 -16c-46 -32 -63 -42 -109 -42c-70 0 -121 40 -121 115c0 76 65 128 160 152l92 23c0 113 -52 134 -86 134c-38 0 -82 -17 -82 -48c0 -11 2 -17 3 -20c2 -4 3 -11 3 -18c0 -13 -10 -33 -39 -33c-24 0 -40 16 -40 40c0 58 94 109 158 109
c73 0 157 -30 157 -172v-147c0 -61 1 -87 24 -87c22 0 28 28 29 50l25 -5c-6 -73 -37 -93 -88 -93z" />
    <glyph glyph-name="aring" unicode="&#xe5;" horiz-adv-x="451" 
d="M210 639c-31 0 -54 -27 -54 -56s23 -57 54 -57s54 28 54 57c0 30 -24 56 -54 56zM125 583c0 45 38 83 84 83s86 -37 86 -83c0 -45 -38 -83 -86 -83c-45 0 -84 36 -84 83zM291 245l-79 -20c-88 -27 -101 -73 -101 -118c0 -31 15 -78 78 -78c30 0 76 29 102 51v165z
M355 -12c-38 0 -59 34 -63 58l-23 -16c-46 -32 -63 -42 -109 -42c-70 0 -121 40 -121 115c0 76 65 128 160 152l92 23c0 113 -52 134 -86 134c-38 0 -82 -17 -82 -48c0 -11 2 -17 3 -20c2 -4 3 -11 3 -18c0 -13 -10 -33 -39 -33c-24 0 -40 16 -40 40c0 58 94 109 158 109
c73 0 157 -30 157 -172v-147c0 -61 1 -87 24 -87c22 0 28 28 29 50l25 -5c-6 -73 -37 -93 -88 -93z" />
    <glyph glyph-name="ae" unicode="&#xe6;" horiz-adv-x="687" 
d="M265 387c-15 15 -37 25 -58 25c-39 0 -84 -15 -84 -46c0 -10 1 -17 3 -20c2 -4 3 -11 3 -18c0 -16 -14 -33 -39 -33c-31 0 -40 25 -40 45c0 58 78 102 160 102c24 0 101 -3 138 -70c33 45 85 70 142 70c114 0 158 -66 158 -100c0 -81 -58 -112 -277 -124
c0 -106 62 -181 137 -181c54 0 86 20 116 55l17 -10c-29 -54 -81 -94 -147 -94c-91 0 -134 44 -154 69c-29 -41 -85 -69 -140 -69c-105 0 -161 48 -161 116c0 94 89 134 259 146c-1 79 -11 115 -33 137zM298 215c-125 -10 -187 -55 -187 -106c0 -45 27 -79 91 -79
c36 0 70 19 87 69c6 18 9 66 9 116zM372 253c140 8 200 25 200 86c0 32 -35 69 -83 69c-68 0 -109 -70 -117 -155z" />
    <glyph glyph-name="ccedilla" unicode="&#xe7;" horiz-adv-x="403" 
d="M210 -77c-19 0 -29 -2 -45 -7l-6 6l31 70c-95 19 -153 103 -153 216c0 142 89 234 197 234c96 0 147 -49 147 -102c0 -29 -18 -44 -39 -44s-41 11 -44 36c-4 33 -10 76 -69 76c-66 0 -115 -70 -115 -178c0 -117 63 -198 140 -198c43 0 81 28 112 73l18 -14
c-44 -76 -92 -103 -152 -103h-9l-15 -37c8 2 17 3 26 3c40 0 71 -23 71 -62c0 -42 -46 -71 -107 -71c-32 0 -49 6 -74 17l10 22c27 -9 38 -13 57 -13c31 0 60 14 60 41c0 21 -18 35 -41 35z" />
    <glyph glyph-name="egrave" unicode="&#xe8;" horiz-adv-x="428" 
d="M209 670l70 -125c6 -10 7 -17 7 -24c0 -5 -7 -11 -15 -11c-6 0 -13 5 -29 20l-115 109l3 10c8 7 31 24 65 24c5 0 11 -1 14 -3zM114 277h184c10 0 14 5 14 14c0 93 -47 117 -83 117c-23 0 -98 -9 -115 -131zM378 93l20 -16c-38 -52 -97 -89 -169 -89
c-137 0 -195 102 -195 211c0 152 100 243 195 243c132 0 163 -103 163 -187c0 -11 -7 -17 -18 -17h-263c-1 -6 -1 -12 -1 -20c0 -102 71 -181 143 -181c55 0 90 18 125 56z" />
    <glyph glyph-name="eacute" unicode="&#xe9;" horiz-adv-x="428" 
d="M270 670c3 2 9 3 14 3c28 0 41 -11 49 -19c2 -2 4 -3 6 -5l3 -10l-115 -109c-16 -15 -22 -20 -29 -20c-8 0 -14 6 -14 12s0 13 6 23zM114 277h184c10 0 14 5 14 14c0 93 -47 117 -83 117c-23 0 -98 -9 -115 -131zM378 93l20 -16c-38 -52 -97 -89 -169 -89
c-137 0 -195 102 -195 211c0 152 100 243 195 243c132 0 163 -103 163 -187c0 -11 -7 -17 -18 -17h-263c-1 -6 -1 -12 -1 -20c0 -102 71 -181 143 -181c55 0 90 18 125 56z" />
    <glyph glyph-name="ecircumflex" unicode="&#xea;" horiz-adv-x="428" 
d="M258 646c29 -47 66 -89 101 -129l-20 -15c-39 29 -73 54 -107 90c-37 -38 -69 -63 -106 -90l-20 15c35 39 73 83 102 129h50zM114 277h184c10 0 14 5 14 14c0 93 -47 117 -83 117c-23 0 -98 -9 -115 -131zM378 93l20 -16c-38 -52 -97 -89 -169 -89
c-137 0 -195 102 -195 211c0 152 100 243 195 243c132 0 163 -103 163 -187c0 -11 -7 -17 -18 -17h-263c-1 -6 -1 -12 -1 -20c0 -102 71 -181 143 -181c55 0 90 18 125 56z" />
    <glyph glyph-name="edieresis" unicode="&#xeb;" horiz-adv-x="428" 
d="M264 572c0 25 21 46 46 46c24 0 45 -21 45 -46s-21 -45 -45 -45c-25 0 -46 20 -46 45zM104 572c0 25 20 46 45 46s45 -21 45 -46s-20 -45 -45 -45s-45 20 -45 45zM114 277h184c10 0 14 5 14 14c0 93 -47 117 -83 117c-23 0 -98 -9 -115 -131zM378 93l20 -16
c-38 -52 -97 -89 -169 -89c-137 0 -195 102 -195 211c0 152 100 243 195 243c132 0 163 -103 163 -187c0 -11 -7 -17 -18 -17h-263c-1 -6 -1 -12 -1 -20c0 -102 71 -181 143 -181c55 0 90 18 125 56z" />
    <glyph glyph-name="igrave" unicode="&#xec;" horiz-adv-x="264" 
d="M99 670l69 -125c6 -10 7 -17 7 -24c0 -5 -7 -11 -15 -11c-6 0 -13 5 -29 20l-114 109l2 10c8 7 31 24 65 24c5 0 11 -1 15 -3zM173 72c0 -29 11 -44 43 -44h19c5 0 9 -3 9 -8v-19l-2 -2s-69 2 -108 2c-35 0 -103 -2 -103 -2l-2 2v19c0 5 3 8 8 8h19c33 0 43 15 43 44v249
c0 53 -9 61 -23 61c-13 0 -25 -1 -42 -5l-5 28c64 11 75 15 104 29c11 4 18 8 25 8h15v-370z" />
    <glyph glyph-name="iacute" unicode="&#xed;" horiz-adv-x="264" 
d="M163 670c3 2 9 3 14 3c28 0 41 -11 49 -19c3 -2 4 -3 6 -5l3 -10l-115 -109c-16 -15 -22 -20 -29 -20c-8 0 -14 6 -14 12s0 13 6 23zM173 72c0 -29 11 -44 43 -44h19c5 0 9 -3 9 -8v-19l-2 -2s-69 2 -108 2c-35 0 -103 -2 -103 -2l-2 2v19c0 5 3 8 8 8h19
c33 0 43 15 43 44v249c0 53 -9 61 -23 61c-13 0 -25 -1 -42 -5l-5 28c64 11 75 15 104 29c11 4 18 8 25 8h15v-370z" />
    <glyph glyph-name="icircumflex" unicode="&#xee;" horiz-adv-x="264" 
d="M150 646c29 -47 65 -89 101 -129l-21 -15c-39 29 -72 54 -106 90c-37 -38 -69 -63 -106 -90l-20 15c35 39 73 83 102 129h50zM173 72c0 -29 11 -44 43 -44h19c5 0 9 -3 9 -8v-19l-2 -2s-69 2 -108 2c-35 0 -103 -2 -103 -2l-2 2v19c0 5 3 8 8 8h19c33 0 43 15 43 44v249
c0 53 -9 61 -23 61c-13 0 -25 -1 -42 -5l-5 28c64 11 75 15 104 29c11 4 18 8 25 8h15v-370z" />
    <glyph glyph-name="idieresis" unicode="&#xef;" horiz-adv-x="264" 
d="M161 572c0 25 21 46 46 46c24 0 45 -21 45 -46s-21 -45 -45 -45c-25 0 -46 20 -46 45zM0 572c0 25 21 46 46 46s45 -21 45 -46s-20 -45 -45 -45s-46 20 -46 45zM173 72c0 -29 11 -44 43 -44h19c5 0 9 -3 9 -8v-19l-2 -2s-69 2 -108 2c-35 0 -103 -2 -103 -2l-2 2v19
c0 5 3 8 8 8h19c33 0 43 15 43 44v249c0 53 -9 61 -23 61c-13 0 -25 -1 -42 -5l-5 28c64 11 75 15 104 29c11 4 18 8 25 8h15v-370z" />
    <glyph glyph-name="eth" unicode="&#xf0;" horiz-adv-x="478" 
d="M240 27c47 0 118 34 118 196c0 46 -6 93 -18 136c-23 29 -59 48 -102 48c-101 0 -126 -106 -126 -182c0 -114 57 -198 128 -198zM34 208c0 173 124 234 206 234c26 0 52 -4 77 -14c-22 53 -53 104 -90 150l-109 -73l-22 32l105 70l-16 17c-21 22 -44 41 -68 58l16 21
c35 -19 71 -42 106 -70l106 71l22 -32l-97 -66l18 -17c86 -87 151 -206 151 -352c0 -169 -104 -249 -216 -249c-124 0 -189 116 -189 220z" />
    <glyph glyph-name="ntilde" unicode="&#xf1;" horiz-adv-x="520" 
d="M346 569c22 0 36 11 50 53l24 -6c-12 -60 -41 -91 -87 -91c-22 0 -43 13 -63 26c-19 12 -38 23 -55 23c-26 0 -39 -15 -49 -48l-23 5c13 59 36 89 79 89c30 0 52 -15 72 -28c17 -12 33 -23 52 -23zM364 72v219c0 70 -12 103 -65 103c-44 0 -82 -17 -133 -77v-245
c0 -29 10 -44 43 -44h14c5 0 8 -3 8 -8v-19l-2 -2s-63 2 -102 2c-36 0 -104 -2 -104 -2l-2 2v19c0 5 3 8 8 8h19c34 0 43 15 43 44v249c0 54 -8 61 -22 61c-13 0 -25 -1 -42 -5l-5 28c42 7 72 12 103 29c11 5 19 8 26 8h15l-3 -89h3c64 75 112 89 163 89
c90 0 109 -69 109 -158v-212c0 -29 11 -44 43 -44h19c5 0 9 -3 9 -8v-19l-2 -2s-69 2 -108 2c-35 0 -98 -2 -98 -2l-2 2v19c0 5 3 8 8 8h14c33 0 43 15 43 44z" />
    <glyph glyph-name="ograve" unicode="&#xf2;" horiz-adv-x="479" 
d="M224 670l69 -125c6 -10 7 -17 7 -24c0 -5 -7 -11 -15 -11c-6 0 -13 5 -29 20l-114 109l2 10c8 7 31 24 65 24c5 0 11 -1 15 -3zM34 205c0 137 74 237 207 237c148 0 205 -124 205 -228c0 -100 -65 -226 -207 -226c-134 0 -205 115 -205 217zM230 409
c-80 0 -117 -94 -117 -181c0 -77 44 -205 143 -205c45 0 111 27 111 159c0 147 -55 227 -137 227z" />
    <glyph glyph-name="oacute" unicode="&#xf3;" horiz-adv-x="479" 
d="M270 670c3 2 10 3 15 3c27 0 40 -11 48 -19c3 -2 5 -3 7 -5l2 -10l-114 -109c-16 -15 -23 -20 -29 -20c-8 0 -15 6 -15 12s0 13 6 23zM34 205c0 137 74 237 207 237c148 0 205 -124 205 -228c0 -100 -65 -226 -207 -226c-134 0 -205 115 -205 217zM230 409
c-80 0 -117 -94 -117 -181c0 -77 44 -205 143 -205c45 0 111 27 111 159c0 147 -55 227 -137 227z" />
    <glyph glyph-name="ocircumflex" unicode="&#xf4;" horiz-adv-x="479" 
d="M268 646c28 -47 65 -89 101 -129l-21 -15c-39 29 -73 54 -106 90c-37 -38 -70 -63 -107 -90l-20 15c35 39 73 83 103 129h50zM34 205c0 137 74 237 207 237c148 0 205 -124 205 -228c0 -100 -65 -226 -207 -226c-134 0 -205 115 -205 217zM230 409
c-80 0 -117 -94 -117 -181c0 -77 44 -205 143 -205c45 0 111 27 111 159c0 147 -55 227 -137 227z" />
    <glyph glyph-name="otilde" unicode="&#xf5;" horiz-adv-x="479" 
d="M304 569c22 0 36 11 50 53l24 -6c-12 -60 -41 -91 -87 -91c-22 0 -43 13 -63 26c-19 12 -38 23 -55 23c-26 0 -39 -15 -49 -48l-23 5c13 59 36 89 79 89c30 0 52 -15 72 -28c17 -12 33 -23 52 -23zM34 205c0 137 74 237 207 237c148 0 205 -124 205 -228
c0 -100 -65 -226 -207 -226c-134 0 -205 115 -205 217zM230 409c-80 0 -117 -94 -117 -181c0 -77 44 -205 143 -205c45 0 111 27 111 159c0 147 -55 227 -137 227z" />
    <glyph glyph-name="odieresis" unicode="&#xf6;" horiz-adv-x="479" 
d="M277 572c0 25 20 46 45 46s46 -21 46 -46s-21 -45 -46 -45s-45 20 -45 45zM116 572c0 25 21 46 46 46s45 -21 45 -46s-20 -45 -45 -45s-46 20 -46 45zM34 205c0 137 74 237 207 237c148 0 205 -124 205 -228c0 -100 -65 -226 -207 -226c-134 0 -205 115 -205 217z
M230 409c-80 0 -117 -94 -117 -181c0 -77 44 -205 143 -205c45 0 111 27 111 159c0 147 -55 227 -137 227z" />
    <glyph glyph-name="divide" unicode="&#xf7;" horiz-adv-x="527" 
d="M221 364c0 25 20 45 44 45c25 0 45 -20 45 -45c0 -24 -20 -44 -45 -44c-24 0 -44 20 -44 44zM221 96c0 24 20 45 44 45c25 0 45 -21 45 -45c0 -25 -20 -45 -45 -45c-24 0 -44 20 -44 45zM461 257v-49h-395v49h395z" />
    <glyph glyph-name="oslash" unicode="&#xf8;" horiz-adv-x="479" 
d="M414 454l31 -23l-49 -60c35 -44 50 -103 50 -157c0 -100 -65 -226 -207 -226c-50 0 -91 16 -123 41l-48 -57l-30 26l49 59c-35 42 -53 97 -53 148c0 137 74 237 207 237c54 0 96 -17 127 -43zM230 409c-80 0 -117 -94 -117 -181c0 -32 8 -73 24 -110l192 233
c-24 38 -58 58 -99 58zM347 312l-189 -231c23 -34 55 -58 98 -58c45 0 111 27 111 159c0 52 -7 95 -20 130z" />
    <glyph glyph-name="ugrave" unicode="&#xf9;" horiz-adv-x="517" 
d="M219 670l70 -125c5 -10 6 -17 6 -24c0 -5 -7 -11 -15 -11c-6 0 -13 5 -29 20l-114 109l2 10c8 7 31 24 65 24c5 0 11 -1 15 -3zM429 116c0 -50 5 -66 25 -66c12 0 34 2 51 5l4 -28c-61 -11 -110 -21 -133 -39h-22l3 74h-3c-55 -60 -100 -74 -141 -74
c-99 0 -125 67 -125 136v228c0 33 -7 50 -44 50c-4 0 -11 -1 -17 -1l-3 1v26l3 3s68 -2 100 -2c14 0 37 2 37 2l-1 -80v-213c0 -89 46 -105 76 -105c23 0 44 9 65 24c24 18 40 32 50 45v247c0 36 -5 53 -42 53c-6 0 -17 -1 -20 -1l-2 2v25l2 3s71 -2 99 -2c23 0 39 2 39 2
l-1 -79v-236z" />
    <glyph glyph-name="uacute" unicode="&#xfa;" horiz-adv-x="517" 
d="M297 670c3 2 10 3 15 3c27 0 40 -11 48 -19c3 -2 5 -3 7 -5l2 -10l-115 -109c-15 -15 -22 -20 -28 -20c-8 0 -15 6 -15 12s0 13 6 23zM429 116c0 -50 5 -66 25 -66c12 0 34 2 51 5l4 -28c-61 -11 -110 -21 -133 -39h-22l3 74h-3c-55 -60 -100 -74 -141 -74
c-99 0 -125 67 -125 136v228c0 33 -7 50 -44 50c-4 0 -11 -1 -17 -1l-3 1v26l3 3s68 -2 100 -2c14 0 37 2 37 2l-1 -80v-213c0 -89 46 -105 76 -105c23 0 44 9 65 24c24 18 40 32 50 45v247c0 36 -5 53 -42 53c-6 0 -17 -1 -20 -1l-2 2v25l2 3s71 -2 99 -2c23 0 39 2 39 2
l-1 -79v-236z" />
    <glyph glyph-name="ucircumflex" unicode="&#xfb;" horiz-adv-x="517" 
d="M272 646c29 -47 66 -89 102 -129l-21 -15c-39 29 -73 54 -106 90c-38 -38 -70 -63 -107 -90l-20 15c35 39 73 83 103 129h49zM429 116c0 -50 5 -66 25 -66c12 0 34 2 51 5l4 -28c-61 -11 -110 -21 -133 -39h-22l3 74h-3c-55 -60 -100 -74 -141 -74
c-99 0 -125 67 -125 136v228c0 33 -7 50 -44 50c-4 0 -11 -1 -17 -1l-3 1v26l3 3s68 -2 100 -2c14 0 37 2 37 2l-1 -80v-213c0 -89 46 -105 76 -105c23 0 44 9 65 24c24 18 40 32 50 45v247c0 36 -5 53 -42 53c-6 0 -17 -1 -20 -1l-2 2v25l2 3s71 -2 99 -2c23 0 39 2 39 2
l-1 -79v-236z" />
    <glyph glyph-name="udieresis" unicode="&#xfc;" horiz-adv-x="517" 
d="M289 572c0 25 20 46 45 46s45 -21 45 -46s-20 -45 -45 -45s-45 20 -45 45zM128 572c0 25 20 46 45 46s46 -21 46 -46s-21 -45 -46 -45s-45 20 -45 45zM429 116c0 -50 5 -66 25 -66c12 0 34 2 51 5l4 -28c-61 -11 -110 -21 -133 -39h-22l3 74h-3
c-55 -60 -100 -74 -141 -74c-99 0 -125 67 -125 136v228c0 33 -7 50 -44 50c-4 0 -11 -1 -17 -1l-3 1v26l3 3s68 -2 100 -2c14 0 37 2 37 2l-1 -80v-213c0 -89 46 -105 76 -105c23 0 44 9 65 24c24 18 40 32 50 45v247c0 36 -5 53 -42 53c-6 0 -17 -1 -20 -1l-2 2v25l2 3
s71 -2 99 -2c23 0 39 2 39 2l-1 -79v-236z" />
    <glyph glyph-name="yacute" unicode="&#xfd;" horiz-adv-x="509" 
d="M314 670c4 2 10 3 15 3c28 0 41 -11 49 -19c2 -2 4 -3 6 -5l3 -10l-115 -109c-16 -15 -22 -20 -29 -20c-8 0 -14 6 -14 12s0 13 6 23zM208 410c0 -5 -6 -8 -11 -8c-30 0 -43 -6 -43 -22c0 -6 2 -14 6 -23l110 -258l111 254c5 9 7 17 7 23c0 21 -20 26 -42 26h-4
c-5 0 -10 4 -10 7v19l2 3s59 -2 94 -2c28 0 69 2 69 2l3 -2v-19c0 -5 -4 -8 -11 -8c-38 0 -57 -39 -71 -68c-53 -112 -97 -215 -177 -408c-30 -72 -66 -156 -137 -156c-19 0 -58 11 -58 47c0 30 22 39 38 39c15 0 25 -6 31 -14c10 -10 17 -17 27 -17c15 0 50 86 75 147
c6 12 8 22 8 31c0 10 -9 37 -17 57l-126 293c-16 38 -27 49 -61 49c-6 0 -10 3 -10 7v20l2 2s44 -2 74 -2c47 0 119 2 119 2l2 -3v-18z" />
    <glyph glyph-name="thorn" unicode="&#xfe;" horiz-adv-x="496" 
d="M161 314v-249c34 -41 70 -43 87 -43c106 0 133 99 133 186c0 60 -11 121 -54 164c-15 15 -33 24 -58 24c-35 0 -86 -29 -108 -82zM160 362c8 13 19 25 30 35c10 11 45 45 105 45c97 0 164 -102 164 -207c0 -81 -25 -144 -70 -189c-39 -39 -83 -58 -136 -58
c-36 0 -66 8 -92 22v-168c0 -29 10 -44 43 -44h19c5 0 8 -3 8 -8v-19l-2 -2s-68 2 -107 2c-36 0 -103 -2 -103 -2l-2 2v19c0 5 3 8 7 8h19c34 0 43 15 43 44v731c0 57 -9 73 -29 73c-4 0 -26 -4 -33 -4c-3 0 -5 2 -5 5l-2 25c16 0 76 6 122 26h22v-303z" />
    <glyph glyph-name="ydieresis" unicode="&#xff;" horiz-adv-x="509" 
d="M306 572c0 25 20 46 45 46s45 -21 45 -46s-20 -45 -45 -45s-45 20 -45 45zM145 572c0 25 21 46 45 46c25 0 46 -21 46 -46s-21 -45 -46 -45c-24 0 -45 20 -45 45zM208 410c0 -5 -6 -8 -11 -8c-30 0 -43 -6 -43 -22c0 -6 2 -14 6 -23l110 -258l111 254c5 9 7 17 7 23
c0 21 -20 26 -42 26h-4c-5 0 -10 4 -10 7v19l2 3s59 -2 94 -2c28 0 69 2 69 2l3 -2v-19c0 -5 -4 -8 -11 -8c-38 0 -57 -39 -71 -68c-53 -112 -97 -215 -177 -408c-30 -72 -66 -156 -137 -156c-19 0 -58 11 -58 47c0 30 22 39 38 39c15 0 25 -6 31 -14c10 -10 17 -17 27 -17
c15 0 50 86 75 147c6 12 8 22 8 31c0 10 -9 37 -17 57l-126 293c-16 38 -27 49 -61 49c-6 0 -10 3 -10 7v20l2 2s44 -2 74 -2c47 0 119 2 119 2l2 -3v-18z" />
    <glyph glyph-name="Amacron" unicode="&#x100;" horiz-adv-x="695" 
d="M473 727h-245c-9 0 -12 7 -12 14c0 12 10 30 22 30h244c10 0 14 -8 14 -15c0 -12 -11 -29 -23 -29zM259 283h179l-99 267l-104 -249c-1 -4 -2 -6 -2 -9c0 -6 7 -9 26 -9zM140 72c-3 -7 -4 -13 -4 -19c0 -16 16 -25 46 -25h29c4 0 8 -3 8 -8v-19l-2 -2s-99 2 -123 2
c-26 0 -90 -2 -90 -2l-2 2v19c0 5 3 8 8 8h12c41 0 59 19 73 53l234 547c9 23 17 30 27 30c18 0 26 -10 34 -30l205 -542c14 -39 34 -58 74 -58h11c5 0 10 -3 10 -8v-19l-3 -2s-77 2 -116 2c-35 0 -133 -2 -133 -2l-1 2v19c0 5 2 8 7 8h28c31 0 47 11 47 27c0 5 -1 11 -3 17
l-64 172h-211c-24 0 -32 -6 -36 -17z" />
    <glyph glyph-name="amacron" unicode="&#x101;" horiz-adv-x="451" 
d="M333 539h-245c-9 0 -12 7 -12 14c0 12 10 30 22 30h244c10 0 14 -8 14 -15c0 -12 -11 -29 -23 -29zM291 245l-79 -20c-88 -27 -101 -73 -101 -118c0 -31 15 -78 78 -78c30 0 76 29 102 51v165zM355 -12c-38 0 -59 34 -63 58l-23 -16c-46 -32 -63 -42 -109 -42
c-70 0 -121 40 -121 115c0 76 65 128 160 152l92 23c0 113 -52 134 -86 134c-38 0 -82 -17 -82 -48c0 -11 2 -17 3 -20c2 -4 3 -11 3 -18c0 -13 -10 -33 -39 -33c-24 0 -40 16 -40 40c0 58 94 109 158 109c73 0 157 -30 157 -172v-147c0 -61 1 -87 24 -87c22 0 28 28 29 50
l25 -5c-6 -73 -37 -93 -88 -93z" />
    <glyph glyph-name="Abreve" unicode="&#x102;" horiz-adv-x="695" 
d="M493 805c-6 -72 -69 -114 -135 -114c-73 0 -130 44 -136 114h28c8 -39 55 -61 108 -61c49 0 101 22 108 61h27zM259 283h179l-99 267l-104 -249c-1 -4 -2 -6 -2 -9c0 -6 7 -9 26 -9zM140 72c-3 -7 -4 -13 -4 -19c0 -16 16 -25 46 -25h29c4 0 8 -3 8 -8v-19l-2 -2
s-99 2 -123 2c-26 0 -90 -2 -90 -2l-2 2v19c0 5 3 8 8 8h12c41 0 59 19 73 53l234 547c9 23 17 30 27 30c18 0 26 -10 34 -30l205 -542c14 -39 34 -58 74 -58h11c5 0 10 -3 10 -8v-19l-3 -2s-77 2 -116 2c-35 0 -133 -2 -133 -2l-1 2v19c0 5 2 8 7 8h28c31 0 47 11 47 27
c0 5 -1 11 -3 17l-64 172h-211c-24 0 -32 -6 -36 -17z" />
    <glyph glyph-name="abreve" unicode="&#x103;" horiz-adv-x="451" 
d="M98 649c2 -51 48 -92 109 -92c45 0 105 30 107 92l27 -14c-10 -100 -85 -135 -134 -135c-78 0 -129 58 -136 135zM291 245l-79 -20c-88 -27 -101 -73 -101 -118c0 -31 15 -78 78 -78c30 0 76 29 102 51v165zM355 -12c-38 0 -59 34 -63 58l-23 -16
c-46 -32 -63 -42 -109 -42c-70 0 -121 40 -121 115c0 76 65 128 160 152l92 23c0 113 -52 134 -86 134c-38 0 -82 -17 -82 -48c0 -11 2 -17 3 -20c2 -4 3 -11 3 -18c0 -13 -10 -33 -39 -33c-24 0 -40 16 -40 40c0 58 94 109 158 109c73 0 157 -30 157 -172v-147
c0 -61 1 -87 24 -87c22 0 28 28 29 50l25 -5c-6 -73 -37 -93 -88 -93z" />
    <glyph glyph-name="Aogonek" unicode="&#x104;" horiz-adv-x="695" 
d="M584 -225c-53 0 -93 31 -93 85c0 49 41 108 103 141h-23c-35 0 -133 -2 -133 -2l-1 2v19c0 5 2 8 7 8h28c31 0 47 11 47 27c0 5 -1 11 -3 17l-64 172h-211c-24 0 -32 -6 -36 -17l-65 -155c-3 -7 -4 -13 -4 -19c0 -16 16 -25 46 -25h29c4 0 8 -3 8 -8v-19l-2 -2
s-99 2 -123 2c-26 0 -90 -2 -90 -2l-2 2v19c0 5 3 8 8 8h12c41 0 59 19 73 53l234 547c9 23 17 30 27 30c18 0 26 -10 34 -30l205 -542c14 -39 34 -58 74 -58h11c5 0 10 -3 10 -8v-19l-3 -2h-1c-80 0 -135 -75 -135 -126c0 -32 22 -59 58 -59c30 0 51 15 70 36l15 -8
c-24 -47 -74 -67 -110 -67zM259 283h179l-99 267l-104 -249c-1 -4 -2 -6 -2 -9c0 -6 7 -9 26 -9z" />
    <glyph glyph-name="aogonek" unicode="&#x105;" horiz-adv-x="452" 
d="M296 247l-89 -26c-82 -23 -96 -71 -96 -114c0 -28 13 -78 89 -78c25 0 58 20 96 51v167zM456 -172c-24 -32 -60 -41 -94 -41c-44 0 -91 21 -91 88c0 45 34 85 75 118c-32 5 -46 31 -50 53l-35 -23c-40 -27 -59 -35 -95 -35c-78 0 -127 47 -127 115c0 80 60 123 163 152
l94 27c0 26 -3 77 -33 107c-16 15 -35 23 -56 23c-39 0 -84 -17 -84 -48c0 -11 2 -17 3 -20c2 -4 3 -11 3 -18c0 -13 -10 -33 -39 -33c-24 0 -40 16 -40 40c0 58 94 109 160 109c31 0 107 -6 141 -77c12 -24 17 -56 17 -95v-147c0 -53 1 -70 8 -78c4 -4 10 -7 18 -7
c14 0 23 5 40 23l16 -17c-67 -56 -120 -111 -120 -160c0 -32 19 -63 55 -63c24 0 40 6 54 22z" />
    <glyph glyph-name="Cacute" unicode="&#x106;" horiz-adv-x="644" 
d="M392 819l62 -52l-144 -58c-21 -9 -35 -12 -43 -12c-9 0 -15 5 -15 15c0 7 3 12 16 21zM355 -12c-215 0 -318 166 -318 327c0 197 153 343 319 343c123 0 162 -42 219 -45c3 -55 12 -103 22 -155l-30 -4c-26 86 -84 167 -222 167c-79 0 -221 -84 -221 -287
c0 -146 75 -305 230 -305c93 0 161 33 232 111l23 -15c-68 -89 -157 -137 -254 -137z" />
    <glyph glyph-name="cacute" unicode="&#x107;" horiz-adv-x="403" 
d="M254 670c3 2 10 3 15 3c27 0 40 -11 48 -19c3 -2 5 -3 7 -5l2 -10l-115 -109c-15 -15 -22 -20 -28 -20c-8 0 -15 6 -15 12s0 13 6 23zM384 91c-44 -76 -92 -103 -152 -103c-120 0 -195 91 -195 220c0 142 89 234 197 234c96 0 147 -49 147 -102c0 -29 -18 -44 -39 -44
s-41 11 -44 36c-4 33 -10 76 -69 76c-66 0 -115 -70 -115 -178c0 -117 63 -198 140 -198c43 0 81 28 112 73z" />
    <glyph glyph-name="Ccircumflex" unicode="&#x108;" horiz-adv-x="644" 
d="M378 807c30 -37 64 -67 101 -95l-16 -20c-39 17 -73 37 -107 61c-36 -26 -68 -45 -106 -61l-15 20c37 29 69 61 100 95h43zM355 -12c-215 0 -318 166 -318 327c0 197 153 343 319 343c123 0 162 -42 219 -45c3 -55 12 -103 22 -155l-30 -4c-26 86 -84 167 -222 167
c-79 0 -221 -84 -221 -287c0 -146 75 -305 230 -305c93 0 161 33 232 111l23 -15c-68 -89 -157 -137 -254 -137z" />
    <glyph glyph-name="ccircumflex" unicode="&#x109;" horiz-adv-x="403" 
d="M249 646c28 -47 65 -89 101 -129l-21 -15c-39 29 -73 54 -106 90c-37 -38 -70 -63 -107 -90l-20 15c35 39 73 83 103 129h50zM384 91c-44 -76 -92 -103 -152 -103c-120 0 -195 91 -195 220c0 142 89 234 197 234c96 0 147 -49 147 -102c0 -29 -18 -44 -39 -44
s-41 11 -44 36c-4 33 -10 76 -69 76c-66 0 -115 -70 -115 -178c0 -117 63 -198 140 -198c43 0 81 28 112 73z" />
    <glyph glyph-name="Cdotaccent" unicode="&#x10a;" horiz-adv-x="644" 
d="M309 750c0 26 22 47 48 47s48 -21 48 -47c0 -27 -22 -48 -48 -48s-48 21 -48 48zM355 -12c-215 0 -318 166 -318 327c0 197 153 343 319 343c123 0 162 -42 219 -45c3 -55 12 -103 22 -155l-30 -4c-26 86 -84 167 -222 167c-79 0 -221 -84 -221 -287
c0 -146 75 -305 230 -305c93 0 161 33 232 111l23 -15c-68 -89 -157 -137 -254 -137z" />
    <glyph glyph-name="cdotaccent" unicode="&#x10b;" horiz-adv-x="403" 
d="M181 571c0 26 21 48 48 48c26 0 47 -22 47 -48c0 -27 -21 -48 -47 -48c-27 0 -48 21 -48 48zM384 91c-44 -76 -92 -103 -152 -103c-120 0 -195 91 -195 220c0 142 89 234 197 234c96 0 147 -49 147 -102c0 -29 -18 -44 -39 -44s-41 11 -44 36c-4 33 -10 76 -69 76
c-66 0 -115 -70 -115 -178c0 -117 63 -198 140 -198c43 0 81 28 112 73z" />
    <glyph glyph-name="Ccaron" unicode="&#x10c;" horiz-adv-x="644" 
d="M333 698c-30 36 -65 67 -101 94l16 20c39 -17 73 -36 106 -61c37 27 69 45 107 61l14 -20c-37 -28 -69 -61 -100 -94h-42zM355 -12c-215 0 -318 166 -318 327c0 197 153 343 319 343c123 0 162 -42 219 -45c3 -55 12 -103 22 -155l-30 -4c-26 86 -84 167 -222 167
c-79 0 -221 -84 -221 -287c0 -146 75 -305 230 -305c93 0 161 33 232 111l23 -15c-68 -89 -157 -137 -254 -137z" />
    <glyph glyph-name="ccaron" unicode="&#x10d;" horiz-adv-x="403" 
d="M202 502c-29 47 -66 93 -101 130l21 14c39 -29 71 -55 105 -91c37 38 71 64 108 91l19 -14c-35 -39 -73 -84 -102 -130h-50zM384 91c-44 -76 -92 -103 -152 -103c-120 0 -195 91 -195 220c0 142 89 234 197 234c96 0 147 -49 147 -102c0 -29 -18 -44 -39 -44
s-41 11 -44 36c-4 33 -10 76 -69 76c-66 0 -115 -70 -115 -178c0 -117 63 -198 140 -198c43 0 81 28 112 73z" />
    <glyph glyph-name="Dcaron" unicode="&#x10e;" horiz-adv-x="697" 
d="M291 698c-30 36 -64 67 -101 94l16 20c39 -17 73 -36 106 -61c37 27 69 45 107 61l15 -20c-38 -28 -70 -61 -100 -94h-43zM17 19c0 5 3 9 7 9h30c38 0 52 14 52 46v498c0 36 -10 46 -52 46h-28c-5 0 -9 3 -9 8v18l2 2l126 -1s130 1 164 1c192 0 345 -152 345 -338
c0 -246 -186 -309 -327 -309c-103 0 -182 2 -182 2l-126 -2l-2 2v18zM187 72c0 -32 11 -39 109 -39c141 0 266 49 266 251c0 154 -75 329 -291 329c-49 0 -84 -4 -84 -39v-502z" />
    <glyph glyph-name="dcaron" unicode="&#x10f;" horiz-adv-x="528" 
d="M503 698c38 0 60 -37 60 -73c0 -26 -15 -101 -106 -106l-4 17c42 9 60 46 60 69c0 10 -4 18 -11 18c-41 0 -46 25 -46 41s11 34 47 34zM334 89v259c-24 38 -51 59 -98 59c-20 0 -61 -3 -93 -50c-14 -21 -31 -64 -31 -136c0 -131 68 -191 122 -191c33 0 60 20 100 59z
M409 698v-578c0 -30 2 -46 4 -53c3 -9 14 -15 22 -15c12 0 34 0 49 3l4 -28c-58 -10 -110 -21 -131 -39h-24l3 69c-38 -39 -77 -69 -128 -69c-108 0 -174 92 -174 215c0 74 20 136 63 179c40 38 84 60 150 60c20 0 64 -9 87 -22v153c0 57 -9 73 -29 73l-33 -4
c-2 0 -5 2 -5 5l-2 25c16 0 52 6 69 9c19 4 33 8 53 17h22z" />
    <glyph glyph-name="Dcroat" unicode="&#x110;" horiz-adv-x="697" 
d="M17 19c0 5 3 9 7 9h30c38 0 52 14 52 46v213h-89v40h89v245c0 36 -10 46 -52 46h-28c-5 0 -9 3 -9 8v18l2 2l126 -1s130 1 164 1c192 0 345 -152 345 -338c0 -246 -186 -309 -327 -309c-103 0 -182 2 -182 2l-126 -2l-2 2v18zM187 72c0 -32 11 -39 109 -39
c141 0 266 49 266 251c0 154 -75 329 -291 329c-49 0 -84 -4 -84 -39v-247h157v-40h-157v-215z" />
    <glyph glyph-name="dcroat" unicode="&#x111;" horiz-adv-x="494" 
d="M486 572l1 -39h-78v-413c0 -30 2 -46 4 -53c3 -9 14 -15 22 -15c12 0 34 0 49 3l4 -28c-58 -10 -110 -21 -131 -39h-24l3 69c-38 -39 -77 -69 -128 -69c-108 0 -174 92 -174 215c0 74 20 136 63 179c40 38 84 60 150 60c20 0 64 -9 87 -22v113h-144v39h144v1
c0 57 -9 73 -29 73l-33 -4c-2 0 -5 2 -5 5l-2 25c16 0 52 6 69 9c19 4 33 8 53 17h22v-126h77zM334 89v259c-24 38 -51 59 -98 59c-20 0 -61 -3 -93 -50c-14 -21 -31 -64 -31 -136c0 -131 68 -191 122 -191c33 0 60 20 100 59z" />
    <glyph glyph-name="Emacron" unicode="&#x112;" horiz-adv-x="569" 
d="M385 733h-244c-9 0 -13 8 -13 15c0 11 11 29 22 29h245c10 0 14 -8 14 -15c0 -12 -11 -29 -24 -29zM353 606h-135c-24 0 -36 -8 -36 -32v-213h137c35 0 44 16 50 44l7 30c0 4 3 8 7 8h22c3 0 4 -2 4 -4c-4 -25 -8 -62 -8 -95c0 -34 5 -79 8 -96l-3 -3h-23c-5 0 -8 4 -8 7
l-6 31c-5 29 -16 44 -50 44h-137v-255c0 -27 14 -33 36 -33h166c76 0 105 59 125 131l31 -5c-12 -52 -22 -109 -27 -165h-294l-77 1l-128 -2l-2 2v20c0 3 2 7 8 7h30c40 0 52 16 52 44v501c0 31 -14 45 -52 45h-30c-7 0 -8 4 -8 7v20l2 1l128 -1l78 1h256
c4 -53 13 -114 21 -155l-29 -5c-22 69 -40 120 -115 120z" />
    <glyph glyph-name="emacron" unicode="&#x113;" horiz-adv-x="428" 
d="M348 539h-245c-9 0 -12 7 -12 14c0 12 10 30 22 30h244c10 0 14 -8 14 -15c0 -12 -11 -29 -23 -29zM114 277h184c10 0 14 5 14 14c0 93 -47 117 -83 117c-23 0 -98 -9 -115 -131zM378 93l20 -16c-38 -52 -97 -89 -169 -89c-137 0 -195 102 -195 211
c0 152 100 243 195 243c132 0 163 -103 163 -187c0 -11 -7 -17 -18 -17h-263c-1 -6 -1 -12 -1 -20c0 -102 71 -181 143 -181c55 0 90 18 125 56z" />
    <glyph glyph-name="Ebreve" unicode="&#x114;" horiz-adv-x="569" 
d="M415 804c-6 -72 -69 -114 -134 -114c-74 0 -131 44 -136 114h27c9 -39 56 -61 109 -61c49 0 100 22 107 61h27zM353 606h-135c-24 0 -36 -8 -36 -32v-213h137c35 0 44 16 50 44l7 30c0 4 3 8 7 8h22c3 0 4 -2 4 -4c-4 -25 -8 -62 -8 -95c0 -34 5 -79 8 -96l-3 -3h-23
c-5 0 -8 4 -8 7l-6 31c-5 29 -16 44 -50 44h-137v-255c0 -27 14 -33 36 -33h166c76 0 105 59 125 131l31 -5c-12 -52 -22 -109 -27 -165h-294l-77 1l-128 -2l-2 2v20c0 3 2 7 8 7h30c40 0 52 16 52 44v501c0 31 -14 45 -52 45h-30c-7 0 -8 4 -8 7v20l2 1l128 -1l78 1h256
c4 -53 13 -114 21 -155l-29 -5c-22 69 -40 120 -115 120z" />
    <glyph glyph-name="ebreve" unicode="&#x115;" horiz-adv-x="428" 
d="M120 649c2 -51 48 -91 109 -91c45 0 105 29 107 91l27 -13c-10 -101 -85 -136 -134 -136c-78 0 -129 58 -136 136zM114 277h184c10 0 14 5 14 14c0 93 -47 117 -83 117c-23 0 -98 -9 -115 -131zM378 93l20 -16c-38 -52 -97 -89 -169 -89c-137 0 -195 102 -195 211
c0 152 100 243 195 243c132 0 163 -103 163 -187c0 -11 -7 -17 -18 -17h-263c-1 -6 -1 -12 -1 -20c0 -102 71 -181 143 -181c55 0 90 18 125 56z" />
    <glyph glyph-name="Edotaccent" unicode="&#x116;" horiz-adv-x="569" 
d="M232 740c0 26 22 48 48 48c27 0 48 -22 48 -48c0 -27 -21 -48 -48 -48c-26 0 -48 21 -48 48zM353 606h-135c-24 0 -36 -8 -36 -32v-213h137c35 0 44 16 50 44l7 30c0 4 3 8 7 8h22c3 0 4 -2 4 -4c-4 -25 -8 -62 -8 -95c0 -34 5 -79 8 -96l-3 -3h-23c-5 0 -8 4 -8 7l-6 31
c-5 29 -16 44 -50 44h-137v-255c0 -27 14 -33 36 -33h166c76 0 105 59 125 131l31 -5c-12 -52 -22 -109 -27 -165h-294l-77 1l-128 -2l-2 2v20c0 3 2 7 8 7h30c40 0 52 16 52 44v501c0 31 -14 45 -52 45h-30c-7 0 -8 4 -8 7v20l2 1l128 -1l78 1h256c4 -53 13 -114 21 -155
l-29 -5c-22 69 -40 120 -115 120z" />
    <glyph glyph-name="edotaccent" unicode="&#x117;" horiz-adv-x="428" 
d="M182 571c0 26 22 48 48 48s48 -22 48 -48c0 -27 -22 -48 -48 -48s-48 21 -48 48zM114 277h184c10 0 14 5 14 14c0 93 -47 117 -83 117c-23 0 -98 -9 -115 -131zM378 93l20 -16c-38 -52 -97 -89 -169 -89c-137 0 -195 102 -195 211c0 152 100 243 195 243
c132 0 163 -103 163 -187c0 -11 -7 -17 -18 -17h-263c-1 -6 -1 -12 -1 -20c0 -102 71 -181 143 -181c55 0 90 18 125 56z" />
    <glyph glyph-name="Eogonek" unicode="&#x118;" horiz-adv-x="569" 
d="M404 -224c-53 0 -93 31 -93 85c0 48 40 106 100 139h-192l-77 1l-128 -2l-2 2v20c0 3 2 7 8 7h30c40 0 52 16 52 44v501c0 31 -14 45 -52 45h-30c-7 0 -8 4 -8 7v20l2 1l128 -1l78 1h256c4 -53 13 -114 21 -155l-29 -5c-22 69 -40 120 -115 120h-135
c-24 0 -36 -8 -36 -32v-213h137c35 0 44 16 50 44l7 30c0 4 3 8 7 8h22c3 0 4 -2 4 -4c-4 -25 -8 -62 -8 -95c0 -34 5 -79 8 -96l-3 -3h-23c-5 0 -8 4 -8 7l-6 31c-5 29 -16 44 -50 44h-137v-255c0 -27 14 -33 36 -33h166c76 0 105 59 125 131l31 -5
c-12 -52 -22 -109 -27 -165h-7c-80 0 -135 -75 -135 -126c0 -32 22 -59 58 -59c30 0 50 15 70 36l15 -8c-24 -47 -74 -67 -110 -67z" />
    <glyph glyph-name="eogonek" unicode="&#x119;" horiz-adv-x="428" 
d="M114 277h184c10 0 14 5 14 14c0 93 -47 117 -83 117c-23 0 -98 -9 -115 -131zM378 93l20 -16c-14 -19 -30 -36 -49 -50c-45 -41 -96 -88 -96 -153c0 -25 24 -52 60 -52c30 0 46 14 68 36l15 -7c-29 -45 -65 -67 -106 -67c-54 0 -96 29 -96 84c0 44 31 87 69 123
c-11 -2 -22 -3 -34 -3c-137 0 -195 102 -195 211c0 152 100 243 195 243c132 0 163 -103 163 -187c0 -11 -7 -17 -18 -17h-263c-1 -6 -1 -12 -1 -20c0 -102 71 -181 143 -181c55 0 90 18 125 56z" />
    <glyph glyph-name="Ecaron" unicode="&#x11a;" horiz-adv-x="569" 
d="M268 698c-30 36 -65 67 -101 94l16 20c39 -17 73 -36 106 -61c37 27 69 45 107 61l14 -20c-37 -28 -69 -61 -99 -94h-43zM353 606h-135c-24 0 -36 -8 -36 -32v-213h137c35 0 44 16 50 44l7 30c0 4 3 8 7 8h22c3 0 4 -2 4 -4c-4 -25 -8 -62 -8 -95c0 -34 5 -79 8 -96
l-3 -3h-23c-5 0 -8 4 -8 7l-6 31c-5 29 -16 44 -50 44h-137v-255c0 -27 14 -33 36 -33h166c76 0 105 59 125 131l31 -5c-12 -52 -22 -109 -27 -165h-294l-77 1l-128 -2l-2 2v20c0 3 2 7 8 7h30c40 0 52 16 52 44v501c0 31 -14 45 -52 45h-30c-7 0 -8 4 -8 7v20l2 1l128 -1
l78 1h256c4 -53 13 -114 21 -155l-29 -5c-22 69 -40 120 -115 120z" />
    <glyph glyph-name="ecaron" unicode="&#x11b;" horiz-adv-x="428" 
d="M199 502c-29 47 -66 92 -101 130l21 13c39 -29 71 -54 105 -90c37 38 71 63 108 90l19 -13c-35 -40 -73 -84 -102 -130h-50zM114 277h184c10 0 14 5 14 14c0 93 -47 117 -83 117c-23 0 -98 -9 -115 -131zM378 93l20 -16c-38 -52 -97 -89 -169 -89
c-137 0 -195 102 -195 211c0 152 100 243 195 243c132 0 163 -103 163 -187c0 -11 -7 -17 -18 -17h-263c-1 -6 -1 -12 -1 -20c0 -102 71 -181 143 -181c55 0 90 18 125 56z" />
    <glyph glyph-name="Gcircumflex" unicode="&#x11c;" horiz-adv-x="693" 
d="M385 805c30 -36 64 -67 100 -94l-15 -21c-39 18 -74 37 -107 62c-36 -27 -69 -45 -107 -62l-14 21c37 28 69 60 100 94h43zM375 658c122 0 158 -45 218 -45c7 -72 13 -112 22 -154l-30 -6c-26 86 -79 168 -224 168c-135 0 -242 -119 -242 -294c0 -132 96 -303 274 -303
c54 0 113 18 147 50v153c0 31 -15 44 -55 44h-26c-4 0 -8 3 -8 8v26l2 2s87 -2 126 -2c35 0 93 2 93 2l2 -2v-26c0 -5 -3 -8 -8 -8h-1c-35 0 -44 -16 -44 -44v-116c0 -11 5 -19 16 -28c-68 -58 -149 -95 -267 -95c-201 0 -338 146 -338 319c0 220 171 351 343 351z" />
    <glyph glyph-name="gcircumflex" unicode="&#x11d;" horiz-adv-x="484" 
d="M255 645c29 -47 65 -89 101 -129l-21 -14c-39 29 -72 54 -106 90c-37 -38 -69 -63 -106 -90l-20 14c35 40 73 83 102 129h50zM316 283c0 83 -39 131 -99 131c-52 0 -87 -36 -87 -114c0 -52 20 -134 100 -134c35 0 86 17 86 117zM129 -7c-31 -29 -38 -60 -38 -94
c0 -75 90 -97 124 -97c86 0 195 30 195 102c0 26 -14 43 -53 62c-28 14 -69 25 -117 25c-8 0 -19 -1 -33 -2s-29 -1 -40 -1c-16 0 -24 2 -38 5zM433 388c-16 0 -26 9 -30 17c-6 9 -10 12 -17 12c-12 0 -31 -14 -38 -24c28 -30 41 -59 41 -106c0 -98 -80 -151 -164 -151
c-37 0 -67 7 -90 21c-11 -17 -17 -38 -17 -58c0 -43 33 -54 61 -54c5 0 17 1 31 2c23 3 48 5 65 5c35 0 101 -7 141 -41c27 -25 42 -49 42 -81c0 -108 -142 -165 -271 -165c-73 0 -154 27 -154 114c0 43 27 89 78 121c-25 13 -43 38 -43 74c0 34 15 77 42 101
c-27 27 -50 61 -50 116c0 92 81 151 166 151c56 0 91 -23 102 -31c25 34 70 51 95 51c26 0 44 -17 44 -38c0 -22 -14 -36 -34 -36z" />
    <glyph glyph-name="Gbreve" unicode="&#x11e;" horiz-adv-x="693" 
d="M506 806c-6 -71 -68 -113 -134 -113c-74 0 -131 43 -136 113h28c8 -39 55 -61 108 -61c49 0 101 22 107 61h27zM375 658c122 0 158 -45 218 -45c7 -72 13 -112 22 -154l-30 -6c-26 86 -79 168 -224 168c-135 0 -242 -119 -242 -294c0 -132 96 -303 274 -303
c54 0 113 18 147 50v153c0 31 -15 44 -55 44h-26c-4 0 -8 3 -8 8v26l2 2s87 -2 126 -2c35 0 93 2 93 2l2 -2v-26c0 -5 -3 -8 -8 -8h-1c-35 0 -44 -16 -44 -44v-116c0 -11 5 -19 16 -28c-68 -58 -149 -95 -267 -95c-201 0 -338 146 -338 319c0 220 171 351 343 351z" />
    <glyph glyph-name="gbreve" unicode="&#x11f;" horiz-adv-x="484" 
d="M112 646c2 -52 49 -92 109 -92c46 0 106 29 108 92l26 -14c-9 -101 -84 -135 -134 -135c-77 0 -128 57 -136 135zM316 283c0 83 -39 131 -99 131c-52 0 -87 -36 -87 -114c0 -52 20 -134 100 -134c35 0 86 17 86 117zM129 -7c-31 -29 -38 -60 -38 -94
c0 -75 90 -97 124 -97c86 0 195 30 195 102c0 26 -14 43 -53 62c-28 14 -69 25 -117 25c-8 0 -19 -1 -33 -2s-29 -1 -40 -1c-16 0 -24 2 -38 5zM433 388c-16 0 -26 9 -30 17c-6 9 -10 12 -17 12c-12 0 -31 -14 -38 -24c28 -30 41 -59 41 -106c0 -98 -80 -151 -164 -151
c-37 0 -67 7 -90 21c-11 -17 -17 -38 -17 -58c0 -43 33 -54 61 -54c5 0 17 1 31 2c23 3 48 5 65 5c35 0 101 -7 141 -41c27 -25 42 -49 42 -81c0 -108 -142 -165 -271 -165c-73 0 -154 27 -154 114c0 43 27 89 78 121c-25 13 -43 38 -43 74c0 34 15 77 42 101
c-27 27 -50 61 -50 116c0 92 81 151 166 151c56 0 91 -23 102 -31c25 34 70 51 95 51c26 0 44 -17 44 -38c0 -22 -14 -36 -34 -36z" />
    <glyph glyph-name="Gdotaccent" unicode="&#x120;" horiz-adv-x="693" 
d="M327 753c0 27 22 48 48 48s48 -21 48 -48c0 -26 -22 -47 -48 -47s-48 21 -48 47zM375 658c122 0 158 -45 218 -45c7 -72 13 -112 22 -154l-30 -6c-26 86 -79 168 -224 168c-135 0 -242 -119 -242 -294c0 -132 96 -303 274 -303c54 0 113 18 147 50v153
c0 31 -15 44 -55 44h-26c-4 0 -8 3 -8 8v26l2 2s87 -2 126 -2c35 0 93 2 93 2l2 -2v-26c0 -5 -3 -8 -8 -8h-1c-35 0 -44 -16 -44 -44v-116c0 -11 5 -19 16 -28c-68 -58 -149 -95 -267 -95c-201 0 -338 146 -338 319c0 220 171 351 343 351z" />
    <glyph glyph-name="gdotaccent" unicode="&#x121;" horiz-adv-x="484" 
d="M177 571c0 26 22 48 48 48s48 -22 48 -48c0 -27 -22 -48 -48 -48s-48 21 -48 48zM316 283c0 83 -39 131 -99 131c-52 0 -87 -36 -87 -114c0 -52 20 -134 100 -134c35 0 86 17 86 117zM129 -7c-31 -29 -38 -60 -38 -94c0 -75 90 -97 124 -97c86 0 195 30 195 102
c0 26 -14 43 -53 62c-28 14 -69 25 -117 25c-8 0 -19 -1 -33 -2s-29 -1 -40 -1c-16 0 -24 2 -38 5zM433 388c-16 0 -26 9 -30 17c-6 9 -10 12 -17 12c-12 0 -31 -14 -38 -24c28 -30 41 -59 41 -106c0 -98 -80 -151 -164 -151c-37 0 -67 7 -90 21c-11 -17 -17 -38 -17 -58
c0 -43 33 -54 61 -54c5 0 17 1 31 2c23 3 48 5 65 5c35 0 101 -7 141 -41c27 -25 42 -49 42 -81c0 -108 -142 -165 -271 -165c-73 0 -154 27 -154 114c0 43 27 89 78 121c-25 13 -43 38 -43 74c0 34 15 77 42 101c-27 27 -50 61 -50 116c0 92 81 151 166 151
c56 0 91 -23 102 -31c25 34 70 51 95 51c26 0 44 -17 44 -38c0 -22 -14 -36 -34 -36z" />
    <glyph glyph-name="Gcommaaccent" unicode="&#x122;" horiz-adv-x="693" 
d="M375 -52c38 0 62 -37 62 -73c0 -26 -18 -102 -108 -105l-4 16c76 15 79 74 79 79c0 4 0 7 -1 10c-12 -6 -22 -9 -29 -9c-41 0 -51 25 -51 42c0 16 16 40 52 40zM375 658c122 0 158 -45 218 -45c7 -72 13 -112 22 -154l-30 -6c-26 86 -79 168 -224 168
c-135 0 -242 -119 -242 -294c0 -132 96 -303 274 -303c54 0 113 18 147 50v153c0 31 -15 44 -55 44h-26c-4 0 -8 3 -8 8v26l2 2s87 -2 126 -2c35 0 93 2 93 2l2 -2v-26c0 -5 -3 -8 -8 -8h-1c-35 0 -44 -16 -44 -44v-116c0 -11 5 -19 16 -28c-68 -58 -149 -95 -267 -95
c-201 0 -338 146 -338 319c0 220 171 351 343 351z" />
    <glyph glyph-name="gcommaaccent" unicode="&#x123;" horiz-adv-x="484" 
d="M228 512c-39 0 -62 37 -62 72c0 26 17 102 107 106l4 -17c-77 -15 -79 -75 -79 -79s1 -7 2 -10c11 6 21 9 29 9c41 0 50 -25 50 -41s-15 -40 -51 -40zM316 283c0 83 -39 131 -99 131c-52 0 -87 -36 -87 -114c0 -52 20 -134 100 -134c35 0 86 17 86 117zM129 -7
c-31 -29 -38 -60 -38 -94c0 -75 90 -97 124 -97c86 0 195 30 195 102c0 26 -14 43 -53 62c-28 14 -69 25 -117 25c-8 0 -19 -1 -33 -2s-29 -1 -40 -1c-16 0 -24 2 -38 5zM433 388c-16 0 -26 9 -30 17c-6 9 -10 12 -17 12c-12 0 -31 -14 -38 -24c28 -30 41 -59 41 -106
c0 -98 -80 -151 -164 -151c-37 0 -67 7 -90 21c-11 -17 -17 -38 -17 -58c0 -43 33 -54 61 -54c5 0 17 1 31 2c23 3 48 5 65 5c35 0 101 -7 141 -41c27 -25 42 -49 42 -81c0 -108 -142 -165 -271 -165c-73 0 -154 27 -154 114c0 43 27 89 78 121c-25 13 -43 38 -43 74
c0 34 15 77 42 101c-27 27 -50 61 -50 116c0 92 81 151 166 151c56 0 91 -23 102 -31c25 34 70 51 95 51c26 0 44 -17 44 -38c0 -22 -14 -36 -34 -36z" />
    <glyph glyph-name="Hcircumflex" unicode="&#x124;" horiz-adv-x="700" 
d="M514 72v252h-327v-252c0 -31 15 -44 55 -44h26c4 0 8 -3 8 -8v-19l-2 -2s-86 2 -126 2c-35 0 -128 -2 -128 -2l-2 2v19c0 5 3 8 7 8h27c41 0 54 16 54 44v502c0 30 -15 44 -54 44h-27c-4 0 -8 3 -8 8v19l2 1s87 -1 126 -1c36 0 129 1 129 1l2 -1v-19c0 -5 -3 -8 -8 -8
h-26c-41 0 -55 -16 -55 -44v-211h327v211c0 30 -15 44 -55 44h-26c-5 0 -9 3 -9 8v19l2 1s87 -1 126 -1c36 0 129 1 129 1l2 -1v-19c0 -5 -3 -8 -8 -8h-26c-41 0 -55 -16 -55 -44v-502c0 -31 15 -44 55 -44h26c5 0 9 -3 9 -8v-19l-2 -2s-87 2 -126 2c-36 0 -129 -2 -129 -2
l-2 2v19c0 5 3 8 8 8h26c41 0 55 16 55 44zM368 803c30 -36 65 -67 101 -94l-16 -21c-39 18 -73 37 -106 62c-37 -27 -69 -45 -107 -62l-14 21c37 28 68 61 99 94h43z" />
    <glyph glyph-name="hcircumflex" unicode="&#x125;" horiz-adv-x="518" 
d="M286 832c30 -37 65 -67 101 -94l-16 -21c-39 17 -73 37 -106 62c-37 -27 -69 -45 -107 -62l-14 21c37 28 68 60 99 94h43zM163 698v-339c67 67 126 83 165 83c72 0 108 -55 108 -158v-212c0 -29 10 -44 43 -44h19c4 0 8 -3 8 -8v-19l-2 -2s-68 2 -108 2
c-35 0 -103 -2 -103 -2l-2 2v19c0 5 3 8 8 8h19c34 0 43 15 43 44v223c0 81 -22 100 -78 100c-29 0 -72 -26 -120 -73v-250c0 -29 10 -44 43 -44h19c4 0 8 -3 8 -8v-19l-2 -2s-68 2 -107 2c-36 0 -103 -2 -103 -2l-2 2v19c0 5 2 8 7 8h19c34 0 43 15 43 44v501
c0 57 -9 73 -29 73l-33 -4c-3 0 -5 2 -5 5l-2 25c16 0 52 6 69 9c18 4 33 8 53 17h22z" />
    <glyph glyph-name="Hbar" unicode="&#x126;" horiz-adv-x="700" 
d="M514 72v252h-327v-252c0 -31 15 -44 55 -44h26c4 0 8 -3 8 -8v-19l-2 -2s-86 2 -126 2c-35 0 -128 -2 -128 -2l-2 2v19c0 5 3 8 7 8h27c41 0 54 16 54 44v438h-65v39h65v25c0 30 -15 44 -54 44h-27c-4 0 -8 3 -8 8v19l2 1s87 -1 126 -1c36 0 129 1 129 1l2 -1v-19
c0 -5 -3 -8 -8 -8h-26c-41 0 -55 -16 -55 -44v-25h327v25c0 30 -15 44 -55 44h-26c-5 0 -9 3 -9 8v19l2 1s87 -1 126 -1c36 0 129 1 129 1l2 -1v-19c0 -5 -3 -8 -8 -8h-26c-41 0 -55 -16 -55 -44v-25h62v-39h-62v-438c0 -31 15 -44 55 -44h26c5 0 9 -3 9 -8v-19l-2 -2
s-87 2 -126 2c-36 0 -129 -2 -129 -2l-2 2v19c0 5 3 8 8 8h26c41 0 55 16 55 44zM514 510h-327v-147h327v147z" />
    <glyph glyph-name="hbar" unicode="&#x127;" horiz-adv-x="518" 
d="M88 530h-62v39h62v4c0 57 -9 73 -29 73l-33 -4c-3 0 -5 2 -5 5l-2 25c16 0 52 6 69 9c18 4 33 8 53 17h22v-129h178v-39h-178v-171c67 67 126 83 165 83c72 0 108 -55 108 -158v-212c0 -29 10 -44 43 -44h19c4 0 8 -3 8 -8v-19l-2 -2s-68 2 -108 2c-35 0 -103 -2 -103 -2
l-2 2v19c0 5 3 8 8 8h19c34 0 43 15 43 44v223c0 81 -22 100 -78 100c-29 0 -72 -26 -120 -73v-250c0 -29 10 -44 43 -44h19c4 0 8 -3 8 -8v-19l-2 -2s-68 2 -107 2c-36 0 -103 -2 -103 -2l-2 2v19c0 5 2 8 7 8h19c34 0 43 15 43 44v458z" />
    <glyph glyph-name="Itilde" unicode="&#x128;" horiz-adv-x="293" 
d="M213 740c22 0 36 11 50 53l24 -6c-12 -60 -40 -91 -87 -91c-22 0 -43 13 -63 26c-19 12 -37 23 -55 23c-26 0 -39 -15 -49 -48l-23 5c13 59 36 89 79 89c31 0 53 -15 72 -28c17 -12 33 -23 52 -23zM187 574v-503c0 -30 15 -43 55 -43h26c4 0 8 -3 8 -8v-19l-2 -2
s-86 2 -126 2c-35 0 -128 -2 -128 -2l-2 2v19c0 5 3 8 7 8h27c41 0 54 15 54 43v503c0 30 -15 44 -54 44h-27c-4 0 -8 3 -8 8v19l2 1s87 -1 126 -1c36 0 129 1 129 1l2 -1v-19c0 -5 -3 -8 -8 -8h-26c-41 0 -55 -16 -55 -44z" />
    <glyph glyph-name="itilde" unicode="&#x129;" horiz-adv-x="264" 
d="M184 569c19 0 32 11 45 53l21 -6c-11 -60 -36 -91 -78 -91c-20 0 -39 13 -57 26c-17 12 -34 23 -50 23c-23 0 -35 -15 -43 -48l-22 5c13 59 33 89 72 89c27 0 47 -15 65 -28c15 -12 30 -23 47 -23zM173 72c0 -29 11 -44 43 -44h19c5 0 9 -3 9 -8v-19l-2 -2s-69 2 -108 2
c-35 0 -103 -2 -103 -2l-2 2v19c0 5 3 8 8 8h19c33 0 43 15 43 44v249c0 53 -9 61 -23 61c-13 0 -25 -1 -42 -5l-5 28c64 11 75 15 104 29c11 4 18 8 25 8h15v-370z" />
    <glyph glyph-name="Imacron" unicode="&#x12a;" horiz-adv-x="293" 
d="M266 733h-245c-9 0 -12 8 -12 15c0 11 10 29 22 29h244c10 0 14 -8 14 -15c0 -12 -11 -29 -23 -29zM187 574v-503c0 -30 15 -43 55 -43h26c4 0 8 -3 8 -8v-19l-2 -2s-86 2 -126 2c-35 0 -128 -2 -128 -2l-2 2v19c0 5 3 8 7 8h27c41 0 54 15 54 43v503c0 30 -15 44 -54 44
h-27c-4 0 -8 3 -8 8v19l2 1s87 -1 126 -1c36 0 129 1 129 1l2 -1v-19c0 -5 -3 -8 -8 -8h-26c-41 0 -55 -16 -55 -44z" />
    <glyph glyph-name="imacron" unicode="&#x12b;" horiz-adv-x="264" 
d="M230 539h-221c-7 0 -11 7 -11 14c0 12 10 30 20 30h220c9 0 13 -8 13 -15c0 -12 -10 -29 -21 -29zM173 72c0 -29 11 -44 43 -44h19c5 0 9 -3 9 -8v-19l-2 -2s-69 2 -108 2c-35 0 -103 -2 -103 -2l-2 2v19c0 5 3 8 8 8h19c33 0 43 15 43 44v249c0 53 -9 61 -23 61
c-13 0 -25 -1 -42 -5l-5 28c64 11 75 15 104 29c11 4 18 8 25 8h15v-370z" />
    <glyph glyph-name="Ibreve" unicode="&#x12c;" horiz-adv-x="293" 
d="M283 805c-6 -71 -69 -113 -134 -113c-74 0 -131 43 -136 113h28c8 -39 55 -61 108 -61c49 0 101 22 107 61h27zM187 574v-503c0 -30 15 -43 55 -43h26c4 0 8 -3 8 -8v-19l-2 -2s-86 2 -126 2c-35 0 -128 -2 -128 -2l-2 2v19c0 5 3 8 7 8h27c41 0 54 15 54 43v503
c0 30 -15 44 -54 44h-27c-4 0 -8 3 -8 8v19l2 1s87 -1 126 -1c36 0 129 1 129 1l2 -1v-19c0 -5 -3 -8 -8 -8h-26c-41 0 -55 -16 -55 -44z" />
    <glyph glyph-name="ibreve" unicode="&#x12d;" horiz-adv-x="264" 
d="M28 651c2 -51 43 -91 98 -91c41 0 95 29 97 91l24 -13c-9 -101 -76 -136 -121 -136c-70 0 -116 58 -122 136zM173 72c0 -29 11 -44 43 -44h19c5 0 9 -3 9 -8v-19l-2 -2s-69 2 -108 2c-35 0 -103 -2 -103 -2l-2 2v19c0 5 3 8 8 8h19c33 0 43 15 43 44v249
c0 53 -9 61 -23 61c-13 0 -25 -1 -42 -5l-5 28c64 11 75 15 104 29c11 4 18 8 25 8h15v-370z" />
    <glyph glyph-name="Iogonek" unicode="&#x12e;" horiz-adv-x="293" 
d="M172 -225c-53 0 -93 31 -93 85c0 49 41 108 103 141h-34c-35 0 -128 -2 -128 -2l-2 2v19c0 5 3 8 7 8h27c41 0 54 15 54 43v503c0 30 -15 44 -54 44h-27c-4 0 -8 3 -8 8v19l2 1s87 -1 126 -1c36 0 129 1 129 1l2 -1v-19c0 -5 -3 -8 -8 -8h-26c-41 0 -55 -16 -55 -44v-503
c0 -30 15 -43 55 -43h26c4 0 8 -3 8 -8v-19l-2 -2c-80 0 -135 -75 -135 -126c0 -32 22 -59 58 -59c30 0 51 15 70 36l15 -8c-24 -47 -74 -67 -110 -67z" />
    <glyph glyph-name="iogonek" unicode="&#x12f;" horiz-adv-x="264" 
d="M139 -225c-54 0 -93 31 -93 85c0 49 41 108 103 141h-15c-35 0 -103 -2 -103 -2l-2 2v19c0 5 3 8 8 8h19c33 0 43 15 43 44v249c0 53 -9 61 -23 61c-13 0 -25 -1 -42 -5l-5 28c64 11 75 15 104 29c11 4 18 8 25 8h15v-370c0 -29 11 -44 43 -44h19c5 0 9 -3 9 -8v-19
l-2 -2h-2c-80 0 -134 -75 -134 -126c0 -32 22 -59 58 -59c29 0 50 15 69 36l16 -8c-24 -47 -75 -67 -110 -67zM78 571c0 26 21 48 47 48c27 0 48 -22 48 -48c0 -27 -21 -48 -48 -48c-26 0 -47 21 -47 48z" />
    <glyph glyph-name="Idotaccent" unicode="&#x130;" horiz-adv-x="293" 
d="M99 750c0 27 21 48 47 48c27 0 48 -21 48 -48c0 -26 -21 -47 -48 -47c-26 0 -47 21 -47 47zM187 574v-503c0 -30 15 -43 55 -43h26c4 0 8 -3 8 -8v-19l-2 -2s-86 2 -126 2c-35 0 -128 -2 -128 -2l-2 2v19c0 5 3 8 7 8h27c41 0 54 15 54 43v503c0 30 -15 44 -54 44h-27
c-4 0 -8 3 -8 8v19l2 1s87 -1 126 -1c36 0 129 1 129 1l2 -1v-19c0 -5 -3 -8 -8 -8h-26c-41 0 -55 -16 -55 -44z" />
    <glyph glyph-name="dotlessi" unicode="&#x131;" horiz-adv-x="264" 
d="M173 72c0 -29 11 -44 43 -44h19c5 0 9 -3 9 -8v-19l-2 -2s-69 2 -108 2c-35 0 -103 -2 -103 -2l-2 2v19c0 5 3 8 8 8h19c33 0 43 15 43 44v249c0 53 -9 61 -23 61c-13 0 -25 -1 -42 -5l-5 28c64 11 75 15 104 29c11 4 18 8 25 8h15v-370z" />
    <glyph glyph-name="IJ" unicode="&#x132;" horiz-adv-x="588" 
d="M334 -167c49 0 82 52 82 232v494c0 30 -22 59 -62 59h-36c-4 0 -8 3 -8 8v19l2 1s104 -1 143 -1c35 0 119 1 119 1l2 -1v-19c0 -5 -3 -8 -8 -8h-17c-41 0 -54 -16 -54 -44v-487c0 -117 -17 -182 -74 -242c-26 -26 -59 -43 -89 -43c-33 0 -104 13 -104 66
c0 25 17 30 32 30c28 0 35 -27 38 -39s6 -26 34 -26zM187 574v-503c0 -30 15 -43 55 -43h26c4 0 8 -3 8 -8v-19l-2 -2s-86 2 -126 2c-35 0 -128 -2 -128 -2l-2 2v19c0 5 3 8 7 8h27c41 0 54 15 54 43v503c0 30 -15 44 -54 44h-27c-4 0 -8 3 -8 8v19l2 1s87 -1 126 -1
c36 0 129 1 129 1l2 -1v-19c0 -5 -3 -8 -8 -8h-26c-41 0 -55 -16 -55 -44z" />
    <glyph glyph-name="ij" unicode="&#x133;" horiz-adv-x="515" 
d="M363 571c0 26 21 48 48 48c26 0 47 -22 47 -48c0 -27 -21 -48 -47 -48c-27 0 -48 21 -48 48zM310 -194c44 0 74 79 74 220v295c0 53 -9 61 -23 61c-13 0 -25 -1 -41 -5l-6 28c74 12 96 24 108 31c8 3 12 6 21 6h15v-385c0 -131 -9 -186 -64 -242c-27 -26 -56 -38 -81 -38
c-41 0 -93 21 -93 51c0 25 15 38 32 38c23 0 37 -23 42 -44c2 -10 8 -16 16 -16zM78 571c0 26 21 48 47 48c27 0 48 -22 48 -48c0 -27 -21 -48 -48 -48c-26 0 -47 21 -47 48zM173 72c0 -29 11 -44 43 -44h19c5 0 9 -3 9 -8v-19l-2 -2s-69 2 -108 2c-35 0 -103 -2 -103 -2
l-2 2v19c0 5 3 8 8 8h19c33 0 43 15 43 44v249c0 53 -9 61 -23 61c-13 0 -25 -1 -42 -5l-5 28c64 11 75 15 104 29c11 4 18 8 25 8h15v-370z" />
    <glyph glyph-name="Jcircumflex" unicode="&#x134;" horiz-adv-x="315" 
d="M199 805c30 -36 64 -67 100 -94l-15 -21c-39 18 -74 37 -107 62c-36 -27 -69 -45 -107 -62l-14 21c37 28 69 60 100 94h43zM61 -167c49 0 82 52 82 232v494c0 30 -22 59 -61 59h-37c-4 0 -8 3 -8 8v19l2 1s104 -1 143 -1c35 0 119 1 119 1l2 -1v-19c0 -5 -3 -8 -8 -8h-17
c-41 0 -54 -16 -54 -44v-487c0 -117 -17 -182 -74 -242c-26 -26 -59 -43 -88 -43c-34 0 -105 13 -105 66c0 25 17 30 32 30c28 0 35 -27 38 -39s6 -26 34 -26z" />
    <glyph glyph-name="jcircumflex" unicode="&#x135;" horiz-adv-x="277" 
d="M176 644c29 -47 65 -89 101 -129l-21 -15c-39 29 -72 54 -106 90c-37 -38 -69 -63 -107 -90l-20 15c36 39 74 83 103 129h50zM51 -194c44 0 74 79 74 220v295c0 53 -9 61 -22 61c-14 0 -25 -1 -42 -5l-5 28c73 12 95 24 108 31c7 3 11 6 21 6h15v-385
c0 -131 -10 -186 -65 -242c-27 -26 -56 -38 -80 -38c-41 0 -94 21 -94 51c0 25 15 38 32 38c24 0 37 -23 42 -44c3 -10 8 -16 16 -16z" />
    <glyph glyph-name="Kcommaaccent" unicode="&#x136;" horiz-adv-x="637" 
d="M355 -29c39 0 62 -37 62 -73c0 -26 -17 -102 -107 -106l-4 17c76 15 79 74 79 79c0 4 0 7 -1 10c-12 -6 -22 -9 -30 -9c-40 0 -50 25 -50 42c0 16 16 40 51 40zM187 309v-238c0 -30 15 -43 55 -43h26c4 0 8 -3 8 -8v-19l-2 -2s-86 2 -126 2c-35 0 -128 -2 -128 -2l-2 2
v19c0 5 3 8 7 8h27c41 0 54 15 54 43v503c0 30 -15 44 -54 44h-27c-4 0 -8 3 -8 8v19l2 1s87 -1 126 -1c36 0 129 1 129 1l2 -1v-19c0 -5 -3 -8 -8 -8h-26c-41 0 -55 -16 -55 -44v-227c38 2 59 17 80 39l168 176c18 20 23 28 23 38c0 6 -3 18 -27 18h-21c-4 0 -8 3 -8 8v19
l2 1s76 -1 116 -1c35 0 96 1 96 1l5 -1v-19c0 -5 -5 -8 -11 -8c-40 -5 -79 -11 -125 -60l-140 -151c-33 -35 -37 -42 -37 -49c0 -8 3 -15 12 -25l219 -260c25 -31 49 -45 78 -45h7c4 0 9 -3 9 -8v-19l-3 -2s-75 2 -114 2c-36 0 -60 -2 -60 -2l-2 2v6c0 18 0 41 -20 66
l-163 198c-21 27 -48 38 -84 38z" />
    <glyph glyph-name="kcommaaccent" unicode="&#x137;" horiz-adv-x="479" 
d="M266 -27c38 0 62 -37 62 -73c0 -25 -17 -101 -108 -105l-4 17c76 15 79 73 79 79c0 4 0 6 -1 9c-12 -5 -22 -8 -29 -8c-41 0 -51 25 -51 41s16 40 52 40zM163 212v-140c0 -29 10 -44 43 -44h2c4 0 8 -3 8 -8v-19l-2 -2s-51 2 -90 2c-36 0 -103 -2 -103 -2l-2 2v19
c0 5 2 8 7 8h19c34 0 43 15 43 44v501c0 57 -9 73 -29 73l-33 -4c-3 0 -5 2 -5 5l-2 25c16 0 52 6 69 9c18 4 33 8 53 17h22v-461c26 6 77 51 131 110c16 16 20 29 20 39c0 8 -5 16 -29 16h-4c-5 0 -8 4 -8 8v19l3 2s48 -2 83 -2c39 0 93 2 93 2l4 -2v-19c0 -5 -6 -8 -11 -8
h-7c-27 0 -71 -22 -96 -48l-76 -84c-3 -3 -4 -6 -4 -10c0 -5 2 -10 5 -14l117 -173c18 -27 50 -45 75 -45h7c7 0 9 -3 9 -8v-19l-2 -2s-51 2 -90 2c-35 0 -62 -2 -62 -2l-3 2v19c0 13 -3 24 -23 53l-73 103c-20 29 -34 36 -59 36z" />
    <glyph glyph-name="kgreenlandic" unicode="&#x138;" horiz-adv-x="482" 
d="M91 321c0 54 -8 61 -22 61c-13 0 -25 -1 -42 -5l-5 28c42 7 72 12 103 29c11 5 19 8 26 8h15v-205c26 6 77 51 131 110c15 16 20 29 20 39c0 8 -5 16 -29 16h-4c-5 0 -8 4 -8 8v19l3 2s48 -2 83 -2c39 0 93 2 93 2l4 -2v-19c0 -5 -6 -8 -11 -8h-7c-27 0 -71 -22 -96 -48
l-76 -84c-3 -3 -4 -6 -4 -10c0 -5 2 -10 5 -14l117 -173c18 -27 50 -45 75 -45h7c7 0 9 -3 9 -8v-19l-2 -2s-51 2 -90 2c-35 0 -62 -2 -62 -2l-3 2v19c0 13 -3 24 -23 53l-73 103c-20 29 -34 36 -59 36v-140c0 -29 10 -44 43 -44h2c4 0 8 -3 8 -8v-19l-2 -2s-51 2 -90 2
c-36 0 -104 -2 -104 -2l-2 2v19c0 5 3 8 8 8h19c34 0 43 15 43 44v249z" />
    <glyph glyph-name="Lacute" unicode="&#x139;" horiz-adv-x="526" 
d="M192 819l62 -52l-144 -58c-21 -9 -34 -12 -43 -12s-14 5 -14 15c0 7 2 12 15 21zM349 39c76 0 106 59 126 131l30 -5c-11 -52 -22 -109 -26 -165h-255l-78 1c-12 0 -127 -2 -127 -2l-2 2v19c0 5 4 8 8 8h30c42 0 51 9 51 44v502c0 30 -15 44 -54 44h-27c-4 0 -8 3 -8 8
v19l2 1s87 -1 126 -1c36 0 129 1 129 1l2 -1v-19c0 -5 -3 -8 -8 -8h-26c-41 0 -55 -16 -55 -44v-485c0 -31 18 -50 47 -50h115z" />
    <glyph glyph-name="lacute" unicode="&#x13a;" horiz-adv-x="260" 
d="M95 72v501c0 57 -10 73 -30 73l-32 -4c-3 0 -6 2 -6 5l-2 25c16 0 53 6 70 9c18 4 32 8 52 17h22v-626c0 -29 11 -44 43 -44h24c4 0 8 -3 8 -8v-19l-2 -2s-73 2 -112 2c-35 0 -108 -2 -108 -2l-1 2v19c0 5 2 8 7 8h24c33 0 43 15 43 44zM203 848l63 -53l-144 -58
c-22 -8 -35 -11 -43 -11c-10 0 -15 4 -15 14c0 7 2 12 15 21z" />
    <glyph glyph-name="Lcommaaccent" unicode="&#x13b;" horiz-adv-x="526" 
d="M267 -34c39 0 62 -37 62 -73c0 -26 -17 -101 -107 -105l-4 16c76 15 79 74 79 79c0 4 -1 7 -2 10c-11 -6 -21 -9 -29 -9c-40 0 -50 25 -50 42c0 16 15 40 51 40zM349 39c76 0 106 59 126 131l30 -5c-11 -52 -22 -109 -26 -165h-255l-78 1c-12 0 -127 -2 -127 -2l-2 2v19
c0 5 4 8 8 8h30c42 0 51 9 51 44v502c0 30 -15 44 -54 44h-27c-4 0 -8 3 -8 8v19l2 1s87 -1 126 -1c36 0 129 1 129 1l2 -1v-19c0 -5 -3 -8 -8 -8h-26c-41 0 -55 -16 -55 -44v-485c0 -31 18 -50 47 -50h115z" />
    <glyph glyph-name="lcommaaccent" unicode="&#x13c;" horiz-adv-x="260" 
d="M95 72v501c0 57 -10 73 -30 73l-32 -4c-3 0 -6 2 -6 5l-2 25c16 0 53 6 70 9c18 4 32 8 52 17h22v-626c0 -29 11 -44 43 -44h24c4 0 8 -3 8 -8v-19l-2 -2s-73 2 -112 2c-35 0 -108 -2 -108 -2l-1 2v19c0 5 2 8 7 8h24c33 0 43 15 43 44zM130 -41c39 0 62 -37 62 -72
c0 -26 -17 -102 -107 -106l-4 17c76 15 79 74 79 79c0 4 0 7 -1 10c-12 -6 -22 -9 -30 -9c-40 0 -50 25 -50 41c0 17 16 40 51 40z" />
    <glyph glyph-name="Lcaron" unicode="&#x13d;" horiz-adv-x="526" 
d="M400 698c38 0 60 -37 60 -73c0 -26 -15 -101 -106 -106l-4 17c42 9 60 46 60 69c0 10 -4 18 -11 18c-41 0 -46 25 -46 41s11 34 47 34zM349 39c76 0 106 59 126 131l30 -5c-11 -52 -22 -109 -26 -165h-255l-78 1c-12 0 -127 -2 -127 -2l-2 2v19c0 5 4 8 8 8h30
c42 0 51 9 51 44v502c0 30 -15 44 -54 44h-27c-4 0 -8 3 -8 8v19l2 1s87 -1 126 -1c36 0 129 1 129 1l2 -1v-19c0 -5 -3 -8 -8 -8h-26c-41 0 -55 -16 -55 -44v-485c0 -31 18 -50 47 -50h115z" />
    <glyph glyph-name="lcaron" unicode="&#x13e;" horiz-adv-x="290" 
d="M265 698c38 0 60 -37 60 -73c0 -26 -15 -101 -106 -106l-4 17c42 9 60 46 60 69c0 10 -4 18 -11 18c-41 0 -46 25 -46 41s11 34 47 34zM95 72v501c0 57 -10 73 -30 73l-32 -4c-3 0 -6 2 -6 5l-2 25c16 0 53 6 70 9c18 4 32 8 52 17h22v-626c0 -29 11 -44 43 -44h24
c4 0 8 -3 8 -8v-19l-2 -2s-73 2 -112 2c-35 0 -108 -2 -108 -2l-1 2v19c0 5 2 8 7 8h24c33 0 43 15 43 44z" />
    <glyph glyph-name="Ldot" unicode="&#x13f;" horiz-adv-x="526" 
d="M342 282c-33 0 -55 26 -55 53c0 29 25 55 55 55c26 0 54 -24 54 -55c0 -28 -24 -53 -54 -53zM349 39c76 0 106 59 126 131l30 -5c-11 -52 -22 -109 -26 -165h-255l-78 1c-12 0 -127 -2 -127 -2l-2 2v19c0 5 4 8 8 8h30c42 0 51 9 51 44v502c0 30 -15 44 -54 44h-27
c-4 0 -8 3 -8 8v19l2 1s87 -1 126 -1c36 0 129 1 129 1l2 -1v-19c0 -5 -3 -8 -8 -8h-26c-41 0 -55 -16 -55 -44v-485c0 -31 18 -50 47 -50h115z" />
    <glyph glyph-name="ldot" unicode="&#x140;" horiz-adv-x="260" 
d="M213 360c0 25 21 49 48 49c23 0 47 -22 47 -49c0 -25 -20 -47 -47 -47c-30 0 -48 23 -48 47zM95 72v501c0 57 -10 73 -30 73l-32 -4c-3 0 -6 2 -6 5l-2 25c16 0 53 6 70 9c18 4 32 8 52 17h22v-626c0 -29 11 -44 43 -44h24c4 0 8 -3 8 -8v-19l-2 -2s-73 2 -112 2
c-35 0 -108 -2 -108 -2l-1 2v19c0 5 2 8 7 8h24c33 0 43 15 43 44z" />
    <glyph glyph-name="Lslash" unicode="&#x141;" horiz-adv-x="526" 
d="M310 449l18 -30l-141 -81v-249c0 -31 18 -50 47 -50h115c76 0 106 59 126 131l30 -5c-11 -52 -22 -109 -26 -165h-255l-78 1c-12 0 -127 -2 -127 -2l-2 2v19c0 5 4 8 8 8h30c42 0 51 9 51 44v220l-83 -48l-18 31l101 58v241c0 30 -15 44 -54 44h-27c-4 0 -8 3 -8 8v19
l2 1s87 -1 126 -1c36 0 129 1 129 1l2 -1v-19c0 -5 -3 -8 -8 -8h-26c-41 0 -55 -16 -55 -44v-195z" />
    <glyph glyph-name="lslash" unicode="&#x142;" horiz-adv-x="260" 
d="M243 438l17 -30l-91 -53v-283c0 -29 11 -44 43 -44h24c4 0 8 -3 8 -8v-19l-2 -2s-73 2 -112 2c-35 0 -108 -2 -108 -2l-1 2v19c0 5 2 8 7 8h24c33 0 43 15 43 44v239l-72 -41l-17 29l89 52v222c0 57 -10 73 -30 73l-32 -4c-3 0 -6 2 -6 5l-2 25c16 0 53 6 70 9
c18 4 32 8 52 17h22v-303z" />
    <glyph glyph-name="Nacute" unicode="&#x143;" horiz-adv-x="695" 
d="M382 820l63 -52l-144 -58c-22 -9 -35 -12 -43 -12c-9 0 -15 5 -15 15c0 7 3 12 15 21zM603 557v-536c0 -19 -7 -29 -21 -29c-16 1 -29 7 -40 22l-349 441c-17 22 -28 33 -34 33c-8 0 -10 -15 -10 -49v-351c0 -30 15 -60 55 -60h26c4 0 8 -3 8 -8v-19l-2 -2s-71 2 -111 2
c-35 0 -107 -2 -107 -2l-7 2v18c0 5 8 9 13 9h26c41 0 54 33 54 60v462c-6 26 -35 68 -68 68c-8 0 -17 1 -17 8v16l2 4h131l349 -441c29 -37 42 -65 50 -65c7 0 7 19 7 38v379c0 27 -13 61 -54 61h-26c-5 0 -14 3 -14 8v19l5 1s74 -1 110 -1c39 0 111 1 111 1l2 -1v-19
c0 -5 -4 -8 -8 -8h-27c-39 0 -54 -31 -54 -61z" />
    <glyph glyph-name="nacute" unicode="&#x144;" horiz-adv-x="520" 
d="M314 670c3 2 10 3 15 3c27 0 40 -11 48 -19c3 -2 5 -3 7 -5l2 -10l-115 -109c-15 -15 -22 -20 -28 -20c-8 0 -15 6 -15 12s0 13 6 23zM364 72v219c0 70 -12 103 -65 103c-44 0 -82 -17 -133 -77v-245c0 -29 10 -44 43 -44h14c5 0 8 -3 8 -8v-19l-2 -2s-63 2 -102 2
c-36 0 -104 -2 -104 -2l-2 2v19c0 5 3 8 8 8h19c34 0 43 15 43 44v249c0 54 -8 61 -22 61c-13 0 -25 -1 -42 -5l-5 28c42 7 72 12 103 29c11 5 19 8 26 8h15l-3 -89h3c64 75 112 89 163 89c90 0 109 -69 109 -158v-212c0 -29 11 -44 43 -44h19c5 0 9 -3 9 -8v-19l-2 -2
s-69 2 -108 2c-35 0 -98 -2 -98 -2l-2 2v19c0 5 3 8 8 8h14c33 0 43 15 43 44z" />
    <glyph glyph-name="Ncommaaccent" unicode="&#x145;" horiz-adv-x="695" 
d="M358 -28c38 0 62 -37 62 -73c0 -26 -17 -102 -108 -106l-3 17c76 15 79 74 79 79c0 4 -1 7 -2 10c-11 -6 -21 -9 -29 -9c-41 0 -50 25 -50 42c0 16 15 40 51 40zM603 557v-536c0 -19 -7 -29 -21 -29c-16 1 -29 7 -40 22l-349 441c-17 22 -28 33 -34 33
c-8 0 -10 -15 -10 -49v-351c0 -30 15 -60 55 -60h26c4 0 8 -3 8 -8v-19l-2 -2s-71 2 -111 2c-35 0 -107 -2 -107 -2l-7 2v18c0 5 8 9 13 9h26c41 0 54 33 54 60v462c-6 26 -35 68 -68 68c-8 0 -17 1 -17 8v16l2 4h131l349 -441c29 -37 42 -65 50 -65c7 0 7 19 7 38v379
c0 27 -13 61 -54 61h-26c-5 0 -14 3 -14 8v19l5 1s74 -1 110 -1c39 0 111 1 111 1l2 -1v-19c0 -5 -4 -8 -8 -8h-27c-39 0 -54 -31 -54 -61z" />
    <glyph glyph-name="ncommaaccent" unicode="&#x146;" horiz-adv-x="520" 
d="M261 -32c38 0 62 -37 62 -72c0 -26 -17 -102 -108 -106l-4 17c77 15 80 73 80 79c0 4 -1 7 -2 10c-12 -6 -21 -9 -29 -9c-41 0 -51 25 -51 41s16 40 52 40zM364 72v219c0 70 -12 103 -65 103c-44 0 -82 -17 -133 -77v-245c0 -29 10 -44 43 -44h14c5 0 8 -3 8 -8v-19
l-2 -2s-63 2 -102 2c-36 0 -104 -2 -104 -2l-2 2v19c0 5 3 8 8 8h19c34 0 43 15 43 44v249c0 54 -8 61 -22 61c-13 0 -25 -1 -42 -5l-5 28c42 7 72 12 103 29c11 5 19 8 26 8h15l-3 -89h3c64 75 112 89 163 89c90 0 109 -69 109 -158v-212c0 -29 11 -44 43 -44h19
c5 0 9 -3 9 -8v-19l-2 -2s-69 2 -108 2c-35 0 -98 -2 -98 -2l-2 2v19c0 5 3 8 8 8h14c33 0 43 15 43 44z" />
    <glyph glyph-name="Ncaron" unicode="&#x147;" horiz-adv-x="695" 
d="M331 698c-30 36 -64 67 -101 94l16 20c39 -17 73 -36 107 -61c36 27 68 45 106 61l15 -20c-37 -28 -70 -61 -100 -94h-43zM603 557v-536c0 -19 -7 -29 -21 -29c-16 1 -29 7 -40 22l-349 441c-17 22 -28 33 -34 33c-8 0 -10 -15 -10 -49v-351c0 -30 15 -60 55 -60h26
c4 0 8 -3 8 -8v-19l-2 -2s-71 2 -111 2c-35 0 -107 -2 -107 -2l-7 2v18c0 5 8 9 13 9h26c41 0 54 33 54 60v462c-6 26 -35 68 -68 68c-8 0 -17 1 -17 8v16l2 4h131l349 -441c29 -37 42 -65 50 -65c7 0 7 19 7 38v379c0 27 -13 61 -54 61h-26c-5 0 -14 3 -14 8v19l5 1
s74 -1 110 -1c39 0 111 1 111 1l2 -1v-19c0 -5 -4 -8 -8 -8h-27c-39 0 -54 -31 -54 -61z" />
    <glyph glyph-name="ncaron" unicode="&#x148;" horiz-adv-x="520" 
d="M246 503c-29 47 -66 93 -101 130l21 13c39 -28 71 -54 105 -90c37 38 71 64 108 90l19 -13c-35 -39 -73 -84 -102 -130h-50zM364 72v219c0 70 -12 103 -65 103c-44 0 -82 -17 -133 -77v-245c0 -29 10 -44 43 -44h14c5 0 8 -3 8 -8v-19l-2 -2s-63 2 -102 2
c-36 0 -104 -2 -104 -2l-2 2v19c0 5 3 8 8 8h19c34 0 43 15 43 44v249c0 54 -8 61 -22 61c-13 0 -25 -1 -42 -5l-5 28c42 7 72 12 103 29c11 5 19 8 26 8h15l-3 -89h3c64 75 112 89 163 89c90 0 109 -69 109 -158v-212c0 -29 11 -44 43 -44h19c5 0 9 -3 9 -8v-19l-2 -2
s-69 2 -108 2c-35 0 -98 -2 -98 -2l-2 2v19c0 5 3 8 8 8h14c33 0 43 15 43 44z" />
    <glyph glyph-name="napostrophe" unicode="&#x149;" horiz-adv-x="533" 
d="M72 698c38 0 60 -37 60 -73c0 -26 -15 -101 -106 -106l-5 17c42 9 61 46 61 69c0 10 -4 18 -11 18c-41 0 -46 25 -46 41s11 34 47 34zM376 72v219c0 70 -12 103 -64 103c-44 0 -82 -17 -133 -77v-245c0 -29 10 -44 43 -44h14c4 0 8 -3 8 -8v-19l-2 -2s-63 2 -102 2
c-36 0 -104 -2 -104 -2l-2 2v19c0 5 3 8 8 8h19c34 0 43 15 43 44v249c0 54 -9 61 -22 61c-14 0 -25 -1 -42 -5l-5 28c42 7 72 12 103 29c10 5 18 8 26 8h15l-3 -89h3c64 75 112 89 163 89c90 0 109 -69 109 -158v-212c0 -29 10 -44 43 -44h19c5 0 8 -3 8 -8v-19l-1 -2
s-69 2 -108 2c-36 0 -99 -2 -99 -2l-1 2v19c0 5 2 8 7 8h14c34 0 43 15 43 44z" />
    <glyph glyph-name="Eng" unicode="&#x14a;" horiz-adv-x="695" 
d="M521 39l-328 416c-17 22 -28 33 -34 33c-8 0 -10 -15 -10 -49v-351c0 -30 15 -61 55 -61h26c4 0 8 -3 8 -8v-19l-2 -1s-71 2 -111 2c-35 0 -107 -2 -107 -2l-7 1v19c0 5 8 8 13 8h26c41 0 54 34 54 61v462c-6 26 -35 68 -68 68h-5c-5 0 -12 3 -12 8v16l2 5h131l349 -442
c29 -37 44 -65 52 -65c4 0 6 4 6 15l-1 23v379c0 27 -13 61 -54 61h-26c-5 0 -14 3 -14 8v19l8 2s71 -3 107 -3c39 0 111 3 111 3l2 -2v-19c0 -5 -4 -8 -8 -8h-27c-39 0 -54 -31 -54 -61v-470v-1c0 -116 -17 -181 -74 -241c-26 -26 -59 -43 -89 -43c-33 0 -104 13 -104 66
c0 25 17 30 32 30c28 0 35 -27 38 -39s6 -26 34 -26c47 0 79 47 81 206z" />
    <glyph glyph-name="eng" unicode="&#x14b;" horiz-adv-x="520" 
d="M364 276c0 65 -15 118 -76 118c-27 0 -56 -7 -75 -20c-15 -12 -38 -37 -47 -57v-245c0 -29 10 -44 43 -44h19c4 0 8 -3 8 -8v-19l-2 -2s-68 2 -107 2c-36 0 -104 -2 -104 -2l-2 2v19c0 5 3 8 8 8h19c34 0 43 15 43 44v248c0 38 0 61 -22 61c-10 0 -31 -3 -47 -6v30
c19 2 77 10 122 37h22l-3 -89h3c15 23 63 89 158 89c69 0 114 -43 114 -158v-199c0 -130 -9 -210 -64 -265c-27 -27 -56 -39 -81 -39c-29 0 -89 15 -89 49c0 32 25 35 28 35c23 0 34 -24 39 -40c3 -10 8 -14 19 -14c44 0 74 103 74 244v221z" />
    <glyph glyph-name="Omacron" unicode="&#x14c;" horiz-adv-x="698" 
d="M469 733h-245c-9 0 -12 8 -12 15c0 11 10 29 22 29h245c9 0 13 -8 13 -15c0 -12 -11 -29 -23 -29zM334 624c-96 0 -206 -87 -206 -297c0 -192 120 -305 240 -305c114 0 202 109 202 288c0 208 -95 314 -236 314zM662 329c0 -200 -123 -341 -314 -341
c-172 0 -311 125 -311 322c0 196 131 348 310 348c180 0 315 -131 315 -329z" />
    <glyph glyph-name="omacron" unicode="&#x14d;" horiz-adv-x="479" 
d="M360 539h-245c-9 0 -12 7 -12 14c0 12 10 30 22 30h245c9 0 13 -8 13 -15c0 -12 -10 -29 -23 -29zM34 205c0 137 74 237 207 237c148 0 205 -124 205 -228c0 -100 -65 -226 -207 -226c-134 0 -205 115 -205 217zM230 409c-80 0 -117 -94 -117 -181
c0 -77 44 -205 143 -205c45 0 111 27 111 159c0 147 -55 227 -137 227z" />
    <glyph glyph-name="Obreve" unicode="&#x14e;" horiz-adv-x="698" 
d="M488 805c-6 -71 -69 -113 -134 -113c-74 0 -131 43 -136 113h28c8 -39 55 -61 108 -61c49 0 101 22 107 61h27zM334 624c-96 0 -206 -87 -206 -297c0 -192 120 -305 240 -305c114 0 202 109 202 288c0 208 -95 314 -236 314zM662 329c0 -200 -123 -341 -314 -341
c-172 0 -311 125 -311 322c0 196 131 348 310 348c180 0 315 -131 315 -329z" />
    <glyph glyph-name="obreve" unicode="&#x14f;" horiz-adv-x="479" 
d="M131 646c2 -51 48 -91 109 -91c46 0 105 29 108 91l26 -13c-10 -101 -84 -135 -134 -135c-78 0 -129 57 -136 135zM34 205c0 137 74 237 207 237c148 0 205 -124 205 -228c0 -100 -65 -226 -207 -226c-134 0 -205 115 -205 217zM230 409c-80 0 -117 -94 -117 -181
c0 -77 44 -205 143 -205c45 0 111 27 111 159c0 147 -55 227 -137 227z" />
    <glyph glyph-name="Ohungarumlaut" unicode="&#x150;" horiz-adv-x="698" 
d="M489 820c9 -7 14 -17 14 -28c0 -9 -3 -16 -8 -20l-99 -84c-1 -1 -4 -2 -6 -2c-6 0 -15 5 -15 14c0 1 0 3 1 4l63 115c5 8 12 11 22 11c8 0 18 -1 28 -10zM357 826c9 -7 15 -17 15 -29c0 -7 -3 -14 -8 -19l-94 -85c-2 -2 -5 -3 -8 -3c-2 0 -5 2 -8 4c-4 2 -5 6 -5 10
c0 2 0 4 1 4l57 115c4 9 11 12 26 12c10 0 18 -4 24 -9zM334 624c-96 0 -206 -87 -206 -297c0 -192 120 -305 240 -305c114 0 202 109 202 288c0 208 -95 314 -236 314zM662 329c0 -200 -123 -341 -314 -341c-172 0 -311 125 -311 322c0 196 131 348 310 348
c180 0 315 -131 315 -329z" />
    <glyph glyph-name="ohungarumlaut" unicode="&#x151;" horiz-adv-x="479" 
d="M383 639c9 -7 13 -18 13 -28c0 -6 0 -13 -6 -19l-115 -110c-1 -2 -4 -3 -5 -3c-5 0 -15 6 -15 14c0 1 0 3 1 4l78 139c5 9 13 11 24 11c9 0 17 -2 25 -8zM248 646c10 -6 17 -17 17 -29c0 -5 -1 -11 -6 -16l-102 -121c-2 -2 -5 -3 -7 -3c-6 0 -14 5 -14 13v3l64 146
c6 13 22 14 27 14c7 0 14 -2 21 -7zM34 205c0 137 74 237 207 237c148 0 205 -124 205 -228c0 -100 -65 -226 -207 -226c-134 0 -205 115 -205 217zM230 409c-80 0 -117 -94 -117 -181c0 -77 44 -205 143 -205c45 0 111 27 111 159c0 147 -55 227 -137 227z" />
    <glyph glyph-name="OE" unicode="&#x152;" horiz-adv-x="849" 
d="M336 32h13c40 0 51 12 51 40v502c0 31 -13 37 -51 37h-35c-97 0 -181 -70 -181 -284c0 -207 100 -295 203 -295zM338 0c-188 0 -296 138 -296 318s99 328 285 328l114 -1l78 1h257l14 -140l-27 -3c-7 43 -41 103 -93 103h-153c-24 0 -36 -8 -36 -32v-208h105
c36 0 44 16 51 44l7 30c0 4 3 8 7 8h22c2 0 3 -2 3 -4c-2 -32 -8 -62 -8 -95c0 -35 5 -64 8 -96l-2 -3h-23c-5 0 -8 3 -8 7l-6 31c-6 28 -17 44 -51 44h-105v-260c0 -27 14 -33 36 -33h157c65 0 94 53 109 126l27 -5l-26 -160h-266l-78 1z" />
    <glyph glyph-name="oe" unicode="&#x153;" horiz-adv-x="775" 
d="M412 349c34 50 90 93 159 93c117 0 168 -87 168 -204h-288c-1 -9 -1 -10 -1 -20c0 -134 78 -183 133 -183c38 0 99 19 130 52l16 -12c-21 -30 -62 -87 -157 -87c-92 0 -138 44 -166 91c-36 -54 -97 -91 -167 -91c-122 0 -205 95 -205 218c0 156 98 236 209 236
c97 0 141 -46 169 -93zM114 242c0 -111 46 -222 139 -222c34 0 66 17 91 58c16 26 26 66 26 122c0 77 -16 116 -30 140c-27 45 -59 69 -98 69c-44 0 -77 -15 -98 -50c-23 -41 -30 -79 -30 -117zM664 277c-1 41 -19 131 -95 131c-86 0 -113 -115 -115 -131h210z" />
    <glyph glyph-name="Racute" unicode="&#x154;" horiz-adv-x="574" 
d="M312 820l62 -52l-144 -58c-22 -9 -35 -12 -43 -12c-9 0 -15 5 -15 15c0 7 3 12 16 21zM416 478c0 118 -82 148 -142 148c-36 0 -64 -3 -87 -8v-296h50c75 0 123 17 147 51c19 28 32 63 32 105zM497 479c0 -105 -94 -162 -137 -176l106 -205c22 -43 49 -77 94 -77l3 -21
c-10 -4 -27 -6 -42 -6c-60 0 -104 38 -130 85l-103 192c-4 7 -34 13 -101 13v-212c0 -30 15 -44 54 -44h27c4 0 8 -3 8 -8v-19l-2 -2s-87 2 -126 2c-36 0 -129 -2 -129 -2l-2 2v19c0 5 3 8 8 8h26c41 0 55 16 55 44v502c0 29 -4 46 -30 46c-3 0 -5 0 -7 -1l-30 -3
c-5 0 -8 3 -8 7v19c21 5 115 12 232 12c63 0 133 -5 181 -50c36 -34 53 -75 53 -125z" />
    <glyph glyph-name="racute" unicode="&#x155;" horiz-adv-x="347" 
d="M240 670c4 2 10 3 15 3c28 0 40 -11 49 -19c2 -2 4 -3 6 -5l2 -10l-114 -109c-16 -15 -23 -20 -29 -20c-8 0 -15 6 -15 12s0 13 7 23zM89 72v249c0 50 -7 61 -22 61c-13 0 -25 -1 -42 -5l-5 28c63 11 74 14 104 29c10 5 18 8 25 8h15l-3 -90h3c26 39 70 90 117 90
c41 0 56 -20 56 -46s-17 -42 -43 -42c-20 0 -31 8 -41 18c-6 6 -13 9 -20 9c-11 0 -33 -18 -57 -52c-7 -9 -12 -22 -12 -35v-222c0 -29 10 -44 43 -44h29c5 0 9 -3 9 -8v-19l-2 -2s-79 2 -118 2c-36 0 -104 -2 -104 -2l-1 2v19c0 5 2 8 7 8h19c34 0 43 15 43 44z" />
    <glyph glyph-name="Rcommaaccent" unicode="&#x156;" horiz-adv-x="574" 
d="M290 -34c38 0 62 -37 62 -72c0 -26 -18 -102 -108 -106l-4 17c76 15 79 73 79 79c0 4 0 7 -1 10c-12 -6 -22 -9 -29 -9c-41 0 -51 25 -51 41s16 40 52 40zM416 478c0 118 -82 148 -142 148c-36 0 -64 -3 -87 -8v-296h50c75 0 123 17 147 51c19 28 32 63 32 105zM497 479
c0 -105 -94 -162 -137 -176l106 -205c22 -43 49 -77 94 -77l3 -21c-10 -4 -27 -6 -42 -6c-60 0 -104 38 -130 85l-103 192c-4 7 -34 13 -101 13v-212c0 -30 15 -44 54 -44h27c4 0 8 -3 8 -8v-19l-2 -2s-87 2 -126 2c-36 0 -129 -2 -129 -2l-2 2v19c0 5 3 8 8 8h26
c41 0 55 16 55 44v502c0 29 -4 46 -30 46c-3 0 -5 0 -7 -1l-30 -3c-5 0 -8 3 -8 7v19c21 5 115 12 232 12c63 0 133 -5 181 -50c36 -34 53 -75 53 -125z" />
    <glyph glyph-name="rcommaaccent" unicode="&#x157;" horiz-adv-x="347" 
d="M127 -32c39 0 62 -37 62 -72c0 -26 -17 -102 -107 -106l-4 17c76 15 79 73 79 79c0 4 -1 7 -2 10c-11 -6 -21 -9 -29 -9c-41 0 -50 25 -50 41s15 40 51 40zM89 72v249c0 50 -7 61 -22 61c-13 0 -25 -1 -42 -5l-5 28c63 11 74 14 104 29c10 5 18 8 25 8h15l-3 -90h3
c26 39 70 90 117 90c41 0 56 -20 56 -46s-17 -42 -43 -42c-20 0 -31 8 -41 18c-6 6 -13 9 -20 9c-11 0 -33 -18 -57 -52c-7 -9 -12 -22 -12 -35v-222c0 -29 10 -44 43 -44h29c5 0 9 -3 9 -8v-19l-2 -2s-79 2 -118 2c-36 0 -104 -2 -104 -2l-1 2v19c0 5 2 8 7 8h19
c34 0 43 15 43 44z" />
    <glyph glyph-name="Rcaron" unicode="&#x158;" horiz-adv-x="574" 
d="M244 698c-30 36 -64 67 -100 94l15 20c39 -17 73 -36 107 -61c36 27 68 45 107 61l14 -20c-37 -28 -70 -61 -100 -94h-43zM416 478c0 118 -82 148 -142 148c-36 0 -64 -3 -87 -8v-296h50c75 0 123 17 147 51c19 28 32 63 32 105zM497 479c0 -105 -94 -162 -137 -176
l106 -205c22 -43 49 -77 94 -77l3 -21c-10 -4 -27 -6 -42 -6c-60 0 -104 38 -130 85l-103 192c-4 7 -34 13 -101 13v-212c0 -30 15 -44 54 -44h27c4 0 8 -3 8 -8v-19l-2 -2s-87 2 -126 2c-36 0 -129 -2 -129 -2l-2 2v19c0 5 3 8 8 8h26c41 0 55 16 55 44v502
c0 29 -4 46 -30 46c-3 0 -5 0 -7 -1l-30 -3c-5 0 -8 3 -8 7v19c21 5 115 12 232 12c63 0 133 -5 181 -50c36 -34 53 -75 53 -125z" />
    <glyph glyph-name="rcaron" unicode="&#x159;" horiz-adv-x="347" 
d="M175 503c-29 47 -66 93 -101 130l21 13c39 -28 71 -54 105 -90c37 38 71 64 108 90l19 -13c-35 -39 -73 -84 -102 -130h-50zM89 72v249c0 50 -7 61 -22 61c-13 0 -25 -1 -42 -5l-5 28c63 11 74 14 104 29c10 5 18 8 25 8h15l-3 -90h3c26 39 70 90 117 90
c41 0 56 -20 56 -46s-17 -42 -43 -42c-20 0 -31 8 -41 18c-6 6 -13 9 -20 9c-11 0 -33 -18 -57 -52c-7 -9 -12 -22 -12 -35v-222c0 -29 10 -44 43 -44h29c5 0 9 -3 9 -8v-19l-2 -2s-79 2 -118 2c-36 0 -104 -2 -104 -2l-1 2v19c0 5 2 8 7 8h19c34 0 43 15 43 44z" />
    <glyph glyph-name="Sacute" unicode="&#x15a;" horiz-adv-x="475" 
d="M282 820l63 -52l-144 -58c-22 -9 -35 -12 -43 -12c-10 0 -15 5 -15 15c0 7 3 12 15 21zM382 631c4 -53 12 -103 21 -152l-30 -5c-19 66 -47 150 -146 150c-66 0 -110 -51 -110 -112c0 -83 99 -121 141 -136c84 -30 177 -71 177 -192c0 -102 -83 -196 -198 -196
c-98 0 -114 17 -138 17c-20 0 -29 -5 -46 -5c-2 51 -9 99 -19 175l30 3c20 -91 67 -154 156 -154c76 0 134 44 134 125c0 91 -50 118 -111 142c-72 27 -195 77 -195 194c0 106 101 173 188 173c93 0 91 -19 146 -27z" />
    <glyph glyph-name="sacute" unicode="&#x15b;" horiz-adv-x="371" 
d="M43 140l27 1c3 -25 14 -73 36 -96c10 -11 37 -29 74 -29c35 0 87 28 87 77c0 43 -24 72 -103 106c-73 32 -111 53 -111 128c0 67 59 115 138 115c50 0 87 -9 118 -25c6 -32 9 -66 11 -102l-27 -1c-21 82 -81 98 -102 98c-38 0 -77 -15 -77 -70c0 -40 19 -60 74 -80
c81 -30 146 -66 146 -146c0 -99 -105 -128 -152 -128c-35 0 -64 4 -90 11c-7 1 -12 2 -19 2c-5 0 -13 -1 -23 -3c0 42 -3 93 -7 142zM227 670c3 2 10 3 15 3c28 0 40 -11 49 -19c2 -2 4 -3 6 -5l2 -10l-114 -109c-16 -15 -23 -20 -29 -20c-8 0 -15 6 -15 12s0 13 6 23z" />
    <glyph glyph-name="Scircumflex" unicode="&#x15c;" horiz-adv-x="475" 
d="M250 812c30 -36 64 -66 101 -94l-16 -20c-39 17 -73 36 -106 61c-37 -27 -69 -45 -107 -61l-15 20c38 29 69 61 100 94h43zM382 631c4 -53 12 -103 21 -152l-30 -5c-19 66 -47 150 -146 150c-66 0 -110 -51 -110 -112c0 -83 99 -121 141 -136c84 -30 177 -71 177 -192
c0 -102 -83 -196 -198 -196c-98 0 -114 17 -138 17c-20 0 -29 -5 -46 -5c-2 51 -9 99 -19 175l30 3c20 -91 67 -154 156 -154c76 0 134 44 134 125c0 91 -50 118 -111 142c-72 27 -195 77 -195 194c0 106 101 173 188 173c93 0 91 -19 146 -27z" />
    <glyph glyph-name="scircumflex" unicode="&#x15d;" horiz-adv-x="371" 
d="M43 140l27 1c3 -25 14 -73 36 -96c10 -11 37 -29 74 -29c35 0 87 28 87 77c0 43 -24 72 -103 106c-73 32 -111 53 -111 128c0 67 59 115 138 115c50 0 87 -9 118 -25c6 -32 9 -66 11 -102l-27 -1c-21 82 -81 98 -102 98c-38 0 -77 -15 -77 -70c0 -40 19 -60 74 -80
c81 -30 146 -66 146 -146c0 -99 -105 -128 -152 -128c-35 0 -64 4 -90 11c-7 1 -12 2 -19 2c-5 0 -13 -1 -23 -3c0 42 -3 93 -7 142zM220 646c29 -47 66 -89 101 -129l-20 -14c-39 29 -73 54 -107 90c-37 -38 -69 -63 -106 -90l-20 14c35 40 73 83 102 129h50z" />
    <glyph glyph-name="Scedilla" unicode="&#x15e;" horiz-adv-x="475" 
d="M233 -92c-19 0 -29 -2 -45 -7l-6 6l36 81c-82 2 -97 17 -119 17c-20 0 -29 -5 -46 -5c-2 51 -9 99 -19 175l30 3c20 -91 67 -154 156 -154c76 0 134 44 134 125c0 91 -50 118 -111 142c-72 27 -195 77 -195 194c0 106 101 173 188 173c93 0 91 -19 146 -27
c4 -53 12 -103 21 -152l-30 -5c-19 66 -47 150 -146 150c-66 0 -110 -51 -110 -112c0 -83 99 -121 141 -136c84 -30 177 -71 177 -192c0 -97 -76 -188 -182 -196l-22 -52c8 2 17 3 26 3c40 0 71 -23 71 -62c0 -43 -46 -71 -107 -71c-32 0 -49 6 -75 17l11 22
c27 -10 38 -13 57 -13c31 0 60 14 60 41c0 21 -18 35 -41 35z" />
    <glyph glyph-name="scedilla" unicode="&#x15f;" horiz-adv-x="371" 
d="M43 140l27 1c3 -25 14 -73 36 -96c10 -11 37 -29 74 -29c35 0 87 28 87 77c0 43 -24 72 -103 106c-73 32 -111 53 -111 128c0 67 59 115 138 115c50 0 87 -9 118 -25c6 -32 9 -66 11 -102l-27 -1c-21 82 -81 98 -102 98c-38 0 -77 -15 -77 -70c0 -40 19 -60 74 -80
c81 -30 146 -66 146 -146c0 -86 -78 -119 -130 -126l-20 -51c7 2 16 3 25 3c41 0 71 -24 71 -62c0 -43 -45 -71 -106 -71c-32 0 -49 6 -75 17l11 22c27 -10 37 -14 57 -14c30 0 60 15 60 41c0 21 -19 36 -41 36c-19 0 -29 -2 -45 -7l-7 6l36 78c-30 1 -55 5 -78 11
c-7 1 -12 2 -19 2c-5 0 -13 -1 -23 -3c0 42 -3 93 -7 142z" />
    <glyph glyph-name="Scaron" unicode="&#x160;" horiz-adv-x="475" 
d="M215 698c-29 36 -64 67 -100 94l15 20c39 -17 74 -36 107 -61c36 27 69 45 107 61l14 -20c-37 -28 -69 -61 -100 -94h-43zM382 631c4 -53 12 -103 21 -152l-30 -5c-19 66 -47 150 -146 150c-66 0 -110 -51 -110 -112c0 -83 99 -121 141 -136c84 -30 177 -71 177 -192
c0 -102 -83 -196 -198 -196c-98 0 -114 17 -138 17c-20 0 -29 -5 -46 -5c-2 51 -9 99 -19 175l30 3c20 -91 67 -154 156 -154c76 0 134 44 134 125c0 91 -50 118 -111 142c-72 27 -195 77 -195 194c0 106 101 173 188 173c93 0 91 -19 146 -27z" />
    <glyph glyph-name="scaron" unicode="&#x161;" horiz-adv-x="371" 
d="M43 140l27 1c3 -25 14 -73 36 -96c10 -11 37 -29 74 -29c35 0 87 28 87 77c0 43 -24 72 -103 106c-73 32 -111 53 -111 128c0 67 59 115 138 115c50 0 87 -9 118 -25c6 -32 9 -66 11 -102l-27 -1c-21 82 -81 98 -102 98c-38 0 -77 -15 -77 -70c0 -40 19 -60 74 -80
c81 -30 146 -66 146 -146c0 -99 -105 -128 -152 -128c-35 0 -64 4 -90 11c-7 1 -12 2 -19 2c-5 0 -13 -1 -23 -3c0 42 -3 93 -7 142zM169 502c-29 47 -66 93 -101 130l20 14c39 -29 72 -55 106 -91c37 38 71 64 108 91l19 -14c-35 -39 -73 -84 -102 -130h-50z" />
    <glyph glyph-name="Tcommaaccent" unicode="&#x162;" horiz-adv-x="577" 
d="M306 -76c-19 0 -29 -1 -45 -7l-6 7l35 77c-40 0 -119 -2 -119 -2l-2 2v19c0 5 3 8 8 8h26c41 0 55 16 55 44v495c0 31 -12 39 -49 39h-84c-55 0 -68 -12 -88 -92l-30 5c12 53 18 105 22 154l27 -4c0 -6 0 -23 21 -23h423c21 0 22 17 22 23l26 4c4 -49 11 -101 22 -154
l-29 -5c-20 80 -34 92 -89 92h-66c-36 0 -48 -8 -48 -42v-492c0 -31 16 -44 55 -44h26c5 0 9 -3 9 -8v-19l-2 -2s-59 1 -102 2l-20 -48c8 2 17 3 26 3c40 0 71 -24 71 -62c0 -43 -46 -71 -107 -71c-32 0 -49 6 -74 17l10 22c27 -10 38 -14 58 -14c30 0 60 14 60 41
c0 21 -19 35 -42 35z" />
    <glyph glyph-name="tcommaaccent" unicode="&#x163;" horiz-adv-x="302" 
d="M159 -90c-19 0 -29 -1 -45 -7l-6 7l36 79c-35 7 -55 36 -55 98v304h-65c-3 0 -4 1 -4 4v31c0 3 1 4 3 4c67 0 83 39 83 115v19l58 20v-154h110c5 0 8 -2 8 -6v-20c0 -9 -14 -13 -24 -13h-94v-256c0 -62 6 -92 33 -92c26 0 46 8 72 28l18 -17c-34 -39 -70 -61 -109 -65
l-21 -51c8 2 17 3 26 3c40 0 71 -23 71 -62c0 -42 -46 -70 -107 -70c-32 0 -49 5 -74 17l10 22c27 -10 38 -14 58 -14c30 0 60 14 60 41c0 21 -19 35 -42 35z" />
    <glyph glyph-name="Tcaron" unicode="&#x164;" horiz-adv-x="577" 
d="M280 698c-30 36 -64 67 -100 94l15 20c39 -17 74 -36 107 -61c36 27 69 45 107 61l14 -20c-37 -28 -69 -61 -100 -94h-43zM77 646h423c21 0 22 17 22 23l26 4c4 -49 11 -101 22 -154l-29 -5c-20 80 -34 92 -89 92h-66c-36 0 -48 -8 -48 -42v-492c0 -31 16 -44 55 -44h26
c5 0 9 -3 9 -8v-19l-2 -2s-88 2 -127 2c-35 0 -128 -2 -128 -2l-2 2v19c0 5 3 8 8 8h26c41 0 55 16 55 44v495c0 31 -12 39 -49 39h-84c-55 0 -68 -12 -88 -92l-30 5c12 53 18 105 22 154l27 -4c0 -6 0 -23 21 -23z" />
    <glyph glyph-name="tcaron" unicode="&#x165;" horiz-adv-x="313" 
d="M265 698c38 0 60 -37 60 -73c0 -26 -15 -101 -106 -106l-4 17c42 9 60 46 60 69c0 10 -4 18 -11 18c-41 0 -46 25 -46 41s11 34 47 34zM164 391v-256c0 -62 6 -92 33 -92c26 0 46 8 72 28l18 -17c-39 -44 -79 -66 -125 -66s-73 28 -73 99v304h-65c-3 0 -4 1 -4 4v31
c0 3 1 4 3 4c67 0 83 39 83 115v19l58 20v-154h110c5 0 8 -2 8 -6v-20c0 -9 -14 -13 -24 -13h-94z" />
    <glyph glyph-name="Tbar" unicode="&#x166;" horiz-adv-x="577" 
d="M128 329v39h130v199c0 31 -12 39 -49 39h-84c-55 0 -68 -12 -88 -92l-30 5c12 53 18 105 22 154l27 -4c0 -6 0 -23 21 -23h423c21 0 22 17 22 23l26 4c4 -49 11 -101 22 -154l-29 -5c-20 80 -34 92 -89 92h-66c-36 0 -48 -8 -48 -42v-196h137v-39h-137v-257
c0 -31 16 -44 55 -44h26c5 0 9 -3 9 -8v-19l-2 -2s-88 2 -127 2c-35 0 -128 -2 -128 -2l-2 2v19c0 5 3 8 8 8h26c41 0 55 16 55 44v257h-130z" />
    <glyph glyph-name="tbar" unicode="&#x167;" horiz-adv-x="302" 
d="M273 284v-39h-109v-110c0 -62 6 -92 33 -92c26 0 46 8 72 28l18 -17c-39 -44 -79 -66 -125 -66s-73 28 -73 99v158h-69v39h69v107h-65c-3 0 -4 1 -4 4v31c0 3 1 4 3 4c67 0 83 39 83 115v19l58 20v-154h110c5 0 8 -2 8 -6v-20c0 -9 -14 -13 -24 -13h-94v-107h109z" />
    <glyph glyph-name="Utilde" unicode="&#x168;" horiz-adv-x="661" 
d="M413 742c22 0 36 10 50 52l24 -6c-12 -60 -41 -90 -87 -90c-22 0 -43 13 -64 26c-18 11 -37 22 -54 22c-26 0 -39 -15 -49 -48l-24 5c14 59 37 89 80 89c30 0 52 -14 72 -28c16 -11 33 -22 52 -22zM321 -12c-90 0 -232 42 -232 246v340c0 31 -15 44 -54 44h-27
c-4 0 -8 3 -8 8v19l2 1s87 -1 126 -1c36 0 129 1 129 1l2 -1v-19c0 -5 -3 -8 -8 -8h-26c-41 0 -55 -16 -55 -44v-307c0 -65 0 -135 53 -188c30 -29 71 -50 119 -50c169 0 184 134 184 246v299c0 31 -15 44 -54 44h-27c-4 0 -8 3 -8 8v19l2 1s71 -1 110 -1c36 0 110 1 110 1
l2 -1v-19c0 -5 -3 -8 -8 -8h-26c-41 0 -55 -16 -55 -44v-281c0 -178 -46 -305 -251 -305z" />
    <glyph glyph-name="utilde" unicode="&#x169;" horiz-adv-x="517" 
d="M324 569c21 0 35 11 50 53l23 -6c-12 -60 -40 -91 -86 -91c-22 0 -43 13 -64 26c-18 12 -37 23 -55 23c-25 0 -39 -15 -48 -48l-24 5c14 59 36 89 79 89c31 0 53 -15 72 -28c17 -12 34 -23 53 -23zM429 116c0 -50 5 -66 25 -66c12 0 34 2 51 5l4 -28
c-61 -11 -110 -21 -133 -39h-22l3 74h-3c-55 -60 -100 -74 -141 -74c-99 0 -125 67 -125 136v228c0 33 -7 50 -44 50c-4 0 -11 -1 -17 -1l-3 1v26l3 3s68 -2 100 -2c14 0 37 2 37 2l-1 -80v-213c0 -89 46 -105 76 -105c23 0 44 9 65 24c24 18 40 32 50 45v247
c0 36 -5 53 -42 53c-6 0 -17 -1 -20 -1l-2 2v25l2 3s71 -2 99 -2c23 0 39 2 39 2l-1 -79v-236z" />
    <glyph glyph-name="Umacron" unicode="&#x16a;" horiz-adv-x="661" 
d="M463 732h-245c-9 0 -12 8 -12 15c0 12 10 29 22 29h245c9 0 13 -7 13 -14c0 -12 -10 -30 -23 -30zM321 -12c-90 0 -232 42 -232 246v340c0 31 -15 44 -54 44h-27c-4 0 -8 3 -8 8v19l2 1s87 -1 126 -1c36 0 129 1 129 1l2 -1v-19c0 -5 -3 -8 -8 -8h-26
c-41 0 -55 -16 -55 -44v-307c0 -65 0 -135 53 -188c30 -29 71 -50 119 -50c169 0 184 134 184 246v299c0 31 -15 44 -54 44h-27c-4 0 -8 3 -8 8v19l2 1s71 -1 110 -1c36 0 110 1 110 1l2 -1v-19c0 -5 -3 -8 -8 -8h-26c-41 0 -55 -16 -55 -44v-281c0 -178 -46 -305 -251 -305
z" />
    <glyph glyph-name="umacron" unicode="&#x16b;" horiz-adv-x="517" 
d="M376 539h-245c-8 0 -12 7 -12 14c0 12 10 30 22 30h245c10 0 13 -8 13 -15c0 -12 -10 -29 -23 -29zM429 116c0 -50 5 -66 25 -66c12 0 34 2 51 5l4 -28c-61 -11 -110 -21 -133 -39h-22l3 74h-3c-55 -60 -100 -74 -141 -74c-99 0 -125 67 -125 136v228c0 33 -7 50 -44 50
c-4 0 -11 -1 -17 -1l-3 1v26l3 3s68 -2 100 -2c14 0 37 2 37 2l-1 -80v-213c0 -89 46 -105 76 -105c23 0 44 9 65 24c24 18 40 32 50 45v247c0 36 -5 53 -42 53c-6 0 -17 -1 -20 -1l-2 2v25l2 3s71 -2 99 -2c23 0 39 2 39 2l-1 -79v-236z" />
    <glyph glyph-name="Ubreve" unicode="&#x16c;" horiz-adv-x="661" 
d="M482 805c-5 -72 -68 -114 -134 -114c-74 0 -131 44 -136 114h28c8 -39 55 -61 108 -61c49 0 101 22 108 61h26zM321 -12c-90 0 -232 42 -232 246v340c0 31 -15 44 -54 44h-27c-4 0 -8 3 -8 8v19l2 1s87 -1 126 -1c36 0 129 1 129 1l2 -1v-19c0 -5 -3 -8 -8 -8h-26
c-41 0 -55 -16 -55 -44v-307c0 -65 0 -135 53 -188c30 -29 71 -50 119 -50c169 0 184 134 184 246v299c0 31 -15 44 -54 44h-27c-4 0 -8 3 -8 8v19l2 1s71 -1 110 -1c36 0 110 1 110 1l2 -1v-19c0 -5 -3 -8 -8 -8h-26c-41 0 -55 -16 -55 -44v-281c0 -178 -46 -305 -251 -305
z" />
    <glyph glyph-name="ubreve" unicode="&#x16d;" horiz-adv-x="517" 
d="M141 647c2 -51 48 -91 109 -91c46 0 105 29 108 91l26 -13c-9 -101 -84 -135 -134 -135c-78 0 -128 57 -136 135zM429 116c0 -50 5 -66 25 -66c12 0 34 2 51 5l4 -28c-61 -11 -110 -21 -133 -39h-22l3 74h-3c-55 -60 -100 -74 -141 -74c-99 0 -125 67 -125 136v228
c0 33 -7 50 -44 50c-4 0 -11 -1 -17 -1l-3 1v26l3 3s68 -2 100 -2c14 0 37 2 37 2l-1 -80v-213c0 -89 46 -105 76 -105c23 0 44 9 65 24c24 18 40 32 50 45v247c0 36 -5 53 -42 53c-6 0 -17 -1 -20 -1l-2 2v25l2 3s71 -2 99 -2c23 0 39 2 39 2l-1 -79v-236z" />
    <glyph glyph-name="Uring" unicode="&#x16e;" horiz-adv-x="661" 
d="M346 779c-31 0 -54 -27 -54 -56c0 -28 23 -56 54 -56s54 28 54 56c0 31 -24 56 -54 56zM261 723c0 46 38 83 85 83c46 0 86 -36 86 -83c0 -45 -38 -83 -86 -83c-46 0 -85 37 -85 83zM321 -12c-90 0 -232 42 -232 246v340c0 31 -15 44 -54 44h-27c-4 0 -8 3 -8 8v19l2 1
s87 -1 126 -1c36 0 129 1 129 1l2 -1v-19c0 -5 -3 -8 -8 -8h-26c-41 0 -55 -16 -55 -44v-307c0 -65 0 -135 53 -188c30 -29 71 -50 119 -50c169 0 184 134 184 246v299c0 31 -15 44 -54 44h-27c-4 0 -8 3 -8 8v19l2 1s71 -1 110 -1c36 0 110 1 110 1l2 -1v-19
c0 -5 -3 -8 -8 -8h-26c-41 0 -55 -16 -55 -44v-281c0 -178 -46 -305 -251 -305z" />
    <glyph glyph-name="uring" unicode="&#x16f;" horiz-adv-x="517" 
d="M242 639c-31 0 -54 -27 -54 -56s22 -57 54 -57c31 0 53 28 53 57c0 30 -24 56 -53 56zM156 583c0 45 38 83 85 83c46 0 86 -37 86 -83c0 -45 -38 -83 -86 -83c-46 0 -85 36 -85 83zM429 116c0 -50 5 -66 25 -66c12 0 34 2 51 5l4 -28c-61 -11 -110 -21 -133 -39h-22l3 74
h-3c-55 -60 -100 -74 -141 -74c-99 0 -125 67 -125 136v228c0 33 -7 50 -44 50c-4 0 -11 -1 -17 -1l-3 1v26l3 3s68 -2 100 -2c14 0 37 2 37 2l-1 -80v-213c0 -89 46 -105 76 -105c23 0 44 9 65 24c24 18 40 32 50 45v247c0 36 -5 53 -42 53c-6 0 -17 -1 -20 -1l-2 2v25l2 3
s71 -2 99 -2c23 0 39 2 39 2l-1 -79v-236z" />
    <glyph glyph-name="Uhungarumlaut" unicode="&#x170;" horiz-adv-x="661" 
d="M500 820c9 -7 14 -17 14 -28c0 -9 -3 -16 -8 -20l-98 -84c-2 -1 -5 -2 -7 -2c-5 0 -14 5 -14 14c0 1 0 3 1 4l62 115c5 8 12 11 23 11c7 0 17 -1 27 -10zM368 826c9 -7 15 -17 15 -29c0 -7 -3 -14 -8 -19l-94 -85c-2 -2 -5 -3 -8 -3c-2 0 -5 2 -7 4c-4 2 -6 6 -6 10
c0 2 0 4 1 4l57 115c4 9 12 12 27 12c9 0 17 -4 23 -9zM321 -12c-90 0 -232 42 -232 246v340c0 31 -15 44 -54 44h-27c-4 0 -8 3 -8 8v19l2 1s87 -1 126 -1c36 0 129 1 129 1l2 -1v-19c0 -5 -3 -8 -8 -8h-26c-41 0 -55 -16 -55 -44v-307c0 -65 0 -135 53 -188
c30 -29 71 -50 119 -50c169 0 184 134 184 246v299c0 31 -15 44 -54 44h-27c-4 0 -8 3 -8 8v19l2 1s71 -1 110 -1c36 0 110 1 110 1l2 -1v-19c0 -5 -3 -8 -8 -8h-26c-41 0 -55 -16 -55 -44v-281c0 -178 -46 -305 -251 -305z" />
    <glyph glyph-name="uhungarumlaut" unicode="&#x171;" horiz-adv-x="517" 
d="M409 639c9 -7 14 -18 14 -28c0 -6 -1 -13 -7 -19l-114 -110c-2 -2 -4 -3 -6 -3c-5 0 -14 6 -14 14c0 1 0 3 1 4l78 139c5 9 12 11 24 11c9 0 17 -2 24 -8zM274 646c11 -6 17 -17 17 -29c0 -5 -1 -11 -5 -16l-102 -121c-2 -2 -5 -3 -8 -3c-6 0 -14 5 -14 13c0 1 0 2 1 3
l64 146c5 13 22 14 26 14c8 0 14 -2 21 -7zM429 116c0 -50 5 -66 25 -66c12 0 34 2 51 5l4 -28c-61 -11 -110 -21 -133 -39h-22l3 74h-3c-55 -60 -100 -74 -141 -74c-99 0 -125 67 -125 136v228c0 33 -7 50 -44 50c-4 0 -11 -1 -17 -1l-3 1v26l3 3s68 -2 100 -2
c14 0 37 2 37 2l-1 -80v-213c0 -89 46 -105 76 -105c23 0 44 9 65 24c24 18 40 32 50 45v247c0 36 -5 53 -42 53c-6 0 -17 -1 -20 -1l-2 2v25l2 3s71 -2 99 -2c23 0 39 2 39 2l-1 -79v-236z" />
    <glyph glyph-name="Uogonek" unicode="&#x172;" horiz-adv-x="661" 
d="M539 -138c-29 -45 -66 -67 -107 -67c-54 0 -96 29 -96 84c0 41 28 82 63 116c-23 -5 -49 -7 -78 -7c-90 0 -232 42 -232 246v340c0 31 -15 44 -54 44h-27c-4 0 -8 3 -8 8v19l2 1s87 -1 126 -1c36 0 129 1 129 1l2 -1v-19c0 -5 -3 -8 -8 -8h-26c-41 0 -55 -16 -55 -44
v-307c0 -65 0 -135 53 -188c30 -29 71 -50 119 -50c169 0 184 134 184 246v299c0 31 -15 44 -54 44h-27c-4 0 -8 3 -8 8v19l2 1s71 -1 110 -1c36 0 110 1 110 1l2 -1v-19c0 -5 -3 -8 -8 -8h-26c-41 0 -55 -16 -55 -44v-281c0 -114 -18 -207 -86 -259
c-43 -40 -90 -86 -90 -149c0 -25 23 -52 60 -52c29 0 45 14 67 37z" />
    <glyph glyph-name="uogonek" unicode="&#x173;" horiz-adv-x="517" 
d="M368 -208c-54 0 -93 30 -93 85c0 42 31 92 80 126l2 59h-3c-55 -60 -100 -74 -141 -74c-99 0 -125 67 -125 136v228c0 33 -7 50 -44 50c-4 0 -11 -1 -17 -1l-3 1v26l3 3s68 -2 100 -2c14 0 37 2 37 2l-1 -80v-213c0 -89 46 -105 76 -105c23 0 44 9 65 24
c24 18 40 32 50 45v247c0 36 -5 53 -42 53c-6 0 -17 -1 -20 -1l-2 2v25l2 3s71 -2 99 -2c23 0 39 2 39 2l-1 -79v-236c0 -50 5 -66 25 -66c12 0 34 2 51 5l4 -28c-30 -5 -58 -11 -80 -17c-58 -19 -94 -78 -94 -120c0 -33 22 -58 59 -58c29 0 49 14 69 34l15 -7
c-24 -47 -74 -67 -110 -67z" />
    <glyph glyph-name="Wcircumflex" unicode="&#x174;" horiz-adv-x="915" 
d="M479 805c29 -36 64 -67 100 -94l-16 -21c-39 18 -73 37 -106 62c-37 -27 -69 -45 -107 -62l-14 21c37 28 69 60 100 94h43zM323 12c-4 -14 -14 -24 -28 -24c-15 0 -27 8 -33 24l-182 550c-9 25 -27 56 -55 56h-13c-7 0 -12 3 -12 7v19l2 2s52 -1 90 -1c51 0 121 1 121 1
l2 -2v-18c0 -5 -3 -8 -9 -8h-22c-19 0 -28 -7 -28 -20c0 -7 2 -15 6 -26l152 -461l106 331c4 12 7 25 7 38c0 9 -1 18 -5 28l-21 64c-8 27 -26 46 -65 46h-3c-7 0 -12 3 -12 7v19l2 2s56 -1 96 -1c49 0 128 1 128 1l3 -2v-19c0 -5 -5 -7 -9 -7h-29c-20 0 -28 -14 -28 -31
c0 -10 2 -21 6 -33l147 -445l153 460c2 8 4 16 4 23c0 15 -9 26 -34 26h-27c-5 0 -8 4 -8 7v19l2 2s60 -1 102 -1c32 0 85 1 85 1l1 -1v-19c0 -8 -11 -8 -11 -8h-11c-29 0 -49 -11 -62 -50l-184 -557c-5 -15 -16 -23 -30 -23c-13 0 -26 7 -32 24l-117 355
c-5 14 -10 28 -14 28c-5 0 -10 -13 -14 -25z" />
    <glyph glyph-name="wcircumflex" unicode="&#x175;" horiz-adv-x="744" 
d="M392 645c29 -47 66 -89 101 -129l-20 -15c-39 29 -73 54 -107 90c-37 -38 -69 -63 -106 -90l-20 15c35 39 73 83 102 129h50zM202 410c0 -5 -4 -8 -9 -8h-15c-22 0 -29 -6 -29 -16c0 -7 4 -16 9 -30l105 -264l87 217l-18 45c-13 34 -34 48 -64 48c-5 0 -10 2 -10 7v20
l2 2s56 -2 91 -2l100 2l3 -2v-19c0 -5 -5 -8 -10 -8h-18c-20 0 -29 -4 -29 -14c0 -8 4 -18 10 -32l104 -264l104 259c3 6 5 14 5 22c0 17 -11 29 -45 29h-15c-5 0 -9 4 -9 7v20l3 2s66 -2 103 -2c34 0 74 2 74 2l1 -2v-19c0 -6 -6 -8 -12 -8c-25 0 -51 -11 -69 -55
l-136 -338c-6 -15 -14 -21 -23 -21c-10 0 -18 6 -24 20l-100 250l-100 -248c-7 -16 -15 -22 -24 -22c-10 0 -18 6 -24 20l-137 346c-15 39 -33 48 -63 48c-5 0 -12 2 -12 7v20l2 2s47 -2 91 -2c46 0 99 2 99 2l2 -3v-18z" />
    <glyph glyph-name="Ycircumflex" unicode="&#x176;" horiz-adv-x="574" 
d="M314 805c30 -36 65 -67 101 -94l-16 -21c-39 18 -73 37 -106 62c-37 -27 -69 -45 -107 -62l-14 21c37 28 69 60 99 94h43zM254 72v209l-170 293c-11 20 -20 31 -33 39c-5 3 -14 5 -29 5h-12c-3 0 -10 1 -10 7v20l1 1s93 -1 106 -1c6 0 115 1 115 1l1 -1v-19
c0 -4 -2 -8 -6 -8h-29c-19 0 -25 -4 -25 -13c0 -6 4 -15 12 -29l140 -235l127 235c8 14 11 23 11 28c0 11 -5 14 -25 14h-30c-4 0 -5 4 -5 7v20l1 1s79 -1 92 -1c9 0 87 1 87 1l2 -1v-20c0 -5 -4 -7 -10 -7h-21c-30 0 -43 -12 -61 -44l-149 -281v-221c0 -31 16 -44 55 -44
h27c4 0 8 -3 8 -8v-19l-2 -2s-87 2 -126 2c-36 0 -129 -2 -129 -2l-2 2v19c0 5 3 8 8 8h26c41 0 55 16 55 44z" />
    <glyph glyph-name="ycircumflex" unicode="&#x177;" horiz-adv-x="509" 
d="M300 646c29 -47 65 -89 101 -129l-21 -15c-39 29 -72 54 -106 90c-37 -38 -69 -63 -107 -90l-20 15c36 39 74 83 103 129h50zM208 410c0 -5 -6 -8 -11 -8c-30 0 -43 -6 -43 -22c0 -6 2 -14 6 -23l110 -258l111 254c5 9 7 17 7 23c0 21 -20 26 -42 26h-4c-5 0 -10 4 -10 7
v19l2 3s59 -2 94 -2c28 0 69 2 69 2l3 -2v-19c0 -5 -4 -8 -11 -8c-38 0 -57 -39 -71 -68c-53 -112 -97 -215 -177 -408c-30 -72 -66 -156 -137 -156c-19 0 -58 11 -58 47c0 30 22 39 38 39c15 0 25 -6 31 -14c10 -10 17 -17 27 -17c15 0 50 86 75 147c6 12 8 22 8 31
c0 10 -9 37 -17 57l-126 293c-16 38 -27 49 -61 49c-6 0 -10 3 -10 7v20l2 2s44 -2 74 -2c47 0 119 2 119 2l2 -3v-18z" />
    <glyph glyph-name="Ydieresis" unicode="&#x178;" horiz-adv-x="574" 
d="M341 750c0 25 20 46 45 46s46 -21 46 -46c0 -24 -21 -45 -46 -45s-45 21 -45 45zM180 750c0 25 21 46 46 46c24 0 45 -21 45 -46c0 -24 -21 -45 -45 -45c-25 0 -46 21 -46 45zM254 72v209l-170 293c-11 20 -20 31 -33 39c-5 3 -14 5 -29 5h-12c-3 0 -10 1 -10 7v20l1 1
s93 -1 106 -1c6 0 115 1 115 1l1 -1v-19c0 -4 -2 -8 -6 -8h-29c-19 0 -25 -4 -25 -13c0 -6 4 -15 12 -29l140 -235l127 235c8 14 11 23 11 28c0 11 -5 14 -25 14h-30c-4 0 -5 4 -5 7v20l1 1s79 -1 92 -1c9 0 87 1 87 1l2 -1v-20c0 -5 -4 -7 -10 -7h-21
c-30 0 -43 -12 -61 -44l-149 -281v-221c0 -31 16 -44 55 -44h27c4 0 8 -3 8 -8v-19l-2 -2s-87 2 -126 2c-36 0 -129 -2 -129 -2l-2 2v19c0 5 3 8 8 8h26c41 0 55 16 55 44z" />
    <glyph glyph-name="Zacute" unicode="&#x179;" horiz-adv-x="604" 
d="M551 0h-491c-14 0 -19 5 -19 15c0 7 2 15 8 23l389 541c5 7 8 14 8 19c0 6 -3 8 -10 8h-246c-75 0 -92 -51 -114 -120l-30 5c8 41 18 113 22 167c37 -3 34 -12 81 -12h336c31 3 51 4 63 4c19 0 22 -3 22 -10c0 -11 -3 -21 -23 -49l-375 -519c-5 -9 -8 -15 -8 -20
c0 -9 8 -13 25 -13h233c76 0 105 59 125 131l31 -5c-12 -52 -22 -109 -27 -165zM348 820l63 -52l-144 -58c-22 -9 -35 -12 -43 -12c-10 0 -15 5 -15 15c0 7 2 12 15 21z" />
    <glyph glyph-name="zacute" unicode="&#x17a;" horiz-adv-x="411" 
d="M255 670c4 2 10 3 15 3c28 0 41 -11 49 -19c2 -2 4 -3 6 -5l3 -10l-115 -109c-16 -15 -23 -20 -29 -20c-8 0 -15 6 -15 12s0 13 7 23zM106 430h196c29 0 64 5 67 5c7 0 13 -2 13 -6s-5 -16 -22 -42l-236 -348h129c59 0 75 22 99 75l13 29l27 -7
c-17 -58 -28 -105 -33 -136h-303c-15 0 -23 5 -23 12c0 5 1 8 9 20l243 359h-135c-30 0 -64 -17 -84 -90l-26 3c8 49 14 93 15 138h25c2 -6 11 -12 26 -12z" />
    <glyph glyph-name="Zdotaccent" unicode="&#x17b;" horiz-adv-x="604" 
d="M262 750c0 26 21 48 48 48c26 0 47 -22 47 -48s-21 -48 -47 -48c-27 0 -48 22 -48 48zM551 0h-491c-14 0 -19 5 -19 15c0 7 2 15 8 23l389 541c5 7 8 14 8 19c0 6 -3 8 -10 8h-246c-75 0 -92 -51 -114 -120l-30 5c8 41 18 113 22 167c37 -3 34 -12 81 -12h336
c31 3 51 4 63 4c19 0 22 -3 22 -10c0 -11 -3 -21 -23 -49l-375 -519c-5 -9 -8 -15 -8 -20c0 -9 8 -13 25 -13h233c76 0 105 59 125 131l31 -5c-12 -52 -22 -109 -27 -165z" />
    <glyph glyph-name="zdotaccent" unicode="&#x17c;" horiz-adv-x="411" 
d="M167 571c0 26 21 48 48 48c26 0 48 -22 48 -48c0 -27 -22 -48 -48 -48c-27 0 -48 21 -48 48zM106 430h196c29 0 64 5 67 5c7 0 13 -2 13 -6s-5 -16 -22 -42l-236 -348h129c59 0 75 22 99 75l13 29l27 -7c-17 -58 -28 -105 -33 -136h-303c-15 0 -23 5 -23 12c0 5 1 8 9 20
l243 359h-135c-30 0 -64 -17 -84 -90l-26 3c8 49 14 93 15 138h25c2 -6 11 -12 26 -12z" />
    <glyph glyph-name="Zcaron" unicode="&#x17d;" horiz-adv-x="604" 
d="M280 699c-30 36 -64 67 -100 94l15 20c39 -17 74 -36 107 -61c36 27 69 45 107 61l14 -20c-37 -28 -69 -61 -100 -94h-43zM551 0h-491c-14 0 -19 5 -19 15c0 7 2 15 8 23l389 541c5 7 8 14 8 19c0 6 -3 8 -10 8h-246c-75 0 -92 -51 -114 -120l-30 5c8 41 18 113 22 167
c37 -3 34 -12 81 -12h336c31 3 51 4 63 4c19 0 22 -3 22 -10c0 -11 -3 -21 -23 -49l-375 -519c-5 -9 -8 -15 -8 -20c0 -9 8 -13 25 -13h233c76 0 105 59 125 131l31 -5c-12 -52 -22 -109 -27 -165z" />
    <glyph glyph-name="zcaron" unicode="&#x17e;" horiz-adv-x="411" 
d="M188 502c-28 47 -66 92 -101 130l21 13c39 -29 71 -54 105 -90c37 38 71 63 108 90l19 -13c-34 -40 -72 -84 -102 -130h-50zM106 430h196c29 0 64 5 67 5c7 0 13 -2 13 -6s-5 -16 -22 -42l-236 -348h129c59 0 75 22 99 75l13 29l27 -7c-17 -58 -28 -105 -33 -136h-303
c-15 0 -23 5 -23 12c0 5 1 8 9 20l243 359h-135c-30 0 -64 -17 -84 -90l-26 3c8 49 14 93 15 138h25c2 -6 11 -12 26 -12z" />
    <glyph glyph-name="longs" unicode="&#x17f;" horiz-adv-x="299" 
d="M93 477c0 158 86 221 153 221c41 0 63 -12 83 -30c15 -13 26 -29 26 -46s-9 -38 -35 -38c-27 0 -41 14 -46 41c-4 20 -11 39 -35 39c-53 0 -71 -70 -71 -190v-402c0 -29 10 -44 43 -44h19c4 0 8 -3 8 -8v-19l-2 -2s-68 2 -107 2c-36 0 -104 -2 -104 -2l-2 2v19
c0 5 3 8 8 8h19c34 0 43 15 43 44v308c0 12 -1 16 -15 16h-44c-4 0 -5 1 -5 5v9c0 8 5 20 23 20c31 0 41 20 41 47z" />
    <glyph glyph-name="uni0180" unicode="&#x180;" horiz-adv-x="478" 
d="M264 552v-39h-115v-125c34 37 74 55 122 55c87 0 170 -83 170 -205c0 -159 -112 -249 -214 -249c-43 0 -75 12 -104 37c-9 -12 -22 -27 -31 -37l-21 5c3 24 3 40 3 79v440h-66v39h66v21c0 57 -10 73 -30 73l-32 -4c-3 0 -5 2 -5 5l-2 25c16 0 52 6 69 9c18 4 33 8 53 17
h22v-146h115zM149 55c20 -24 41 -32 72 -32c95 0 143 88 143 202c0 102 -52 175 -113 175c-11 0 -63 -2 -102 -43v-302z" />
    <glyph glyph-name="uni0181" unicode="&#x181;" horiz-adv-x="647" 
d="M242 606v-233h79c128 0 149 69 149 115c0 99 -72 123 -148 123c-31 0 -57 -2 -80 -5zM242 333v-296c29 -7 58 -11 89 -11c148 0 186 88 186 157c0 57 -30 150 -159 150h-116zM0 510c0 56 53 135 156 135h201c153 0 189 -93 189 -155c0 -55 -40 -105 -92 -131
c125 -32 153 -121 153 -176c0 -109 -86 -185 -205 -185h-315v19c0 4 2 5 6 6h1l30 1c37 0 37 15 37 45v505c0 30 -5 40 -19 40c-42 0 -78 -24 -78 -60c0 -9 2 -16 4 -24c1 -7 3 -13 3 -21c0 -26 -19 -36 -35 -36c-21 0 -36 17 -36 37z" />
    <glyph glyph-name="uni0182" unicode="&#x182;" horiz-adv-x="561" 
d="M167 347v-312c30 -6 58 -9 85 -9c106 0 181 47 181 162c0 73 -34 159 -173 159h-93zM91 577c0 37 -6 42 -39 42h-30c-3 0 -5 1 -5 4v23h446l14 -140l-27 -3c-25 89 -62 105 -110 105h-173v-227h57c180 0 294 -39 294 -195c0 -123 -99 -186 -207 -186h-294v23c0 3 2 4 5 5
h30c28 0 39 14 39 47v502z" />
    <glyph glyph-name="uni0183" unicode="&#x183;" horiz-adv-x="482" 
d="M149 54c20 -25 41 -32 72 -32c95 0 143 87 143 201c0 102 -52 175 -113 175c-11 0 -63 -2 -102 -42v-302zM190 683h220l14 -140l-26 -3c-12 46 -42 106 -94 106h-155v-259c34 37 74 55 122 55c87 0 170 -84 170 -206c0 -159 -112 -248 -214 -248c-43 0 -75 12 -104 37
c-9 -13 -22 -27 -31 -37l-21 5c3 23 3 39 3 78v502c0 56 -10 71 -30 71l-32 -3c-3 -1 -5 1 -5 5l-2 25c48 8 104 12 185 12z" />
    <glyph glyph-name="uni0184" unicode="&#x184;" horiz-adv-x="567" 
d="M173 347v-312c30 -6 58 -9 85 -9c106 0 181 47 181 162c0 73 -34 159 -173 159h-93zM97 462c0 65 -31 93 -68 100v38c48 9 92 33 122 59h22v-278h56c181 0 295 -39 295 -195c0 -123 -99 -186 -207 -186h-294v23c0 3 1 4 5 5h30c28 0 39 14 39 47v387z" />
    <glyph glyph-name="uni0185" unicode="&#x185;" horiz-adv-x="485" 
d="M156 55c20 -24 42 -32 73 -32c94 0 143 88 143 202c0 102 -52 175 -114 175c-10 0 -62 -2 -102 -43v-302zM82 501c0 62 -33 84 -70 101v37c33 7 76 20 122 59h22v-310c34 37 74 55 123 55c87 0 170 -83 170 -205c0 -159 -113 -249 -215 -249c-43 0 -74 12 -104 37
c-8 -12 -22 -27 -31 -37l-20 5c2 24 3 40 3 79v428z" />
    <glyph glyph-name="uni0186" unicode="&#x186;" horiz-adv-x="645" 
d="M290 659c216 0 319 -167 319 -327c0 -197 -154 -343 -319 -343c-123 0 -162 41 -220 45c-3 54 -12 103 -22 154l31 5c25 -86 83 -168 222 -168c79 0 221 84 221 287c0 146 -76 305 -231 305c-93 0 -160 -33 -231 -110l-23 14c67 89 157 138 253 138z" />
    <glyph glyph-name="uni0187" unicode="&#x187;" horiz-adv-x="644" 
d="M667 743c28 0 36 -24 36 -36c0 -31 -27 -35 -50 -35c-33 0 -75 0 -75 -77c0 -7 1 -14 2 -21h-2c5 -40 12 -77 19 -116l-30 -4c-26 86 -84 167 -222 167c-79 0 -221 -84 -221 -287c0 -146 75 -305 230 -305c93 0 161 33 232 111l23 -15c-68 -89 -157 -137 -254 -137
c-215 0 -318 166 -318 327c0 197 153 343 319 343c105 0 149 -31 195 -42c8 87 79 127 116 127z" />
    <glyph glyph-name="uni0188" unicode="&#x188;" horiz-adv-x="493" 
d="M456 428c-16 0 -35 9 -52 9c-24 0 -40 -16 -50 -36c18 -17 27 -39 27 -61c0 -29 -18 -44 -39 -44s-41 11 -44 36c-4 33 -10 76 -69 76c-66 0 -115 -70 -115 -178c0 -117 63 -198 140 -198c43 0 81 28 112 73l18 -14c-44 -76 -92 -103 -152 -103c-120 0 -195 91 -195 220
c0 142 89 234 197 234c40 0 73 -9 97 -23c27 57 82 80 117 80c34 0 42 -22 42 -36c0 -21 -13 -35 -34 -35z" />
    <glyph glyph-name="uni0189" unicode="&#x189;" horiz-adv-x="707" 
d="M17 19c0 5 3 9 7 9h30c38 0 52 14 52 46v213h-89v39h89v246c0 36 -10 46 -52 46h-28c-5 0 -9 3 -9 8v18l2 2l126 -1s130 1 164 1c192 0 345 -152 345 -338c0 -246 -186 -309 -327 -309c-103 0 -182 2 -182 2l-126 -2l-2 2v18zM187 72c0 -32 11 -39 109 -39
c141 0 266 49 266 251c0 154 -75 329 -291 329c-49 0 -84 -4 -84 -39v-248h101v-39h-101v-215z" />
    <glyph glyph-name="uni018A" unicode="&#x18a;" horiz-adv-x="778" 
d="M73 507c0 -20 -14 -34 -34 -34c-16 0 -37 8 -37 41c0 44 40 129 152 132v-1l1 1l71 -1c67 1 130 1 164 1c193 0 345 -152 345 -338c0 -246 -186 -309 -327 -309c-103 0 -146 2 -182 2l-128 -2v20c0 5 3 9 7 9h30c38 0 52 14 52 46v498c0 31 -7 42 -36 45
c-37 -2 -86 -18 -86 -60c0 -9 2 -17 4 -25c3 -9 4 -16 4 -25zM268 72c0 -32 11 -39 109 -39c141 0 267 49 267 251c0 154 -76 329 -291 329c-50 0 -85 -4 -85 -39v-502z" />
    <glyph glyph-name="uni018B" unicode="&#x18b;" horiz-adv-x="562" 
d="M393 347h-94c-138 0 -173 -86 -173 -159c0 -115 76 -162 182 -162c26 0 55 3 85 9v312zM468 577v-502c0 -33 11 -47 40 -47h30c3 -1 4 -2 4 -5v-23h-293c-109 0 -207 63 -207 186c0 156 113 195 294 195h57v227h-173c-48 0 -85 -16 -111 -105l-26 3l14 140h445v-23
c0 -3 -1 -4 -4 -4h-30c-33 0 -40 -5 -40 -42z" />
    <glyph glyph-name="uni018C" unicode="&#x18c;" horiz-adv-x="494" 
d="M334 89v259c-24 38 -51 59 -98 59c-20 0 -61 -3 -93 -50c-14 -21 -31 -64 -31 -136c0 -131 68 -191 122 -191c33 0 60 20 100 59zM409 683v-563c0 -30 2 -46 4 -53c3 -9 14 -15 22 -15c12 0 34 0 49 3l4 -28c-58 -10 -110 -21 -131 -39h-24l3 69
c-38 -39 -77 -69 -128 -69c-108 0 -174 92 -174 215c0 74 20 136 63 179c40 38 84 60 150 60c20 0 64 -9 87 -22v225h-154c-53 0 -83 -59 -95 -105l-26 3l14 140h336z" />
    <glyph glyph-name="uni018D" unicode="&#x18d;" horiz-adv-x="490" 
d="M232 24l17 -13l-8 16c67 24 139 73 139 187c0 81 -42 198 -135 198c-51 0 -132 -32 -132 -195c0 -51 34 -124 89 -168zM260 2l18 -15c75 -61 111 -96 111 -147c0 -77 -67 -108 -136 -108c-99 0 -163 59 -163 92c0 29 23 36 37 36c11 0 32 -7 51 -43c20 -39 50 -52 76 -52
c52 0 83 22 83 65c0 23 -50 63 -102 104l-71 55c-81 63 -130 130 -130 217c0 163 116 236 222 236c123 0 201 -94 201 -211c0 -134 -108 -198 -197 -229z" />
    <glyph glyph-name="uni018E" unicode="&#x18e;" horiz-adv-x="569" 
d="M89 646h256l78 -1l130 1v-21c0 -3 -1 -7 -8 -7h-30c-38 0 -52 -14 -52 -45v-501c0 -28 12 -44 52 -44h30c6 0 8 -4 8 -7v-22l-130 2l-77 -1h-294l-25 160l26 5c16 -73 44 -126 110 -126h184c22 0 36 6 36 33v255h-137c-34 0 -45 -15 -50 -44l-6 -31c-1 -3 -3 -7 -8 -7
h-23l-3 3c3 17 8 62 8 96c0 33 -4 70 -8 95c0 2 1 4 4 4h22c4 0 6 -4 7 -8l7 -30c6 -28 15 -44 50 -44h137v213c0 24 -12 32 -36 32h-153c-51 0 -85 -60 -92 -103l-27 3z" />
    <glyph glyph-name="uni018F" unicode="&#x18f;" horiz-adv-x="668" 
d="M102 523l-23 24c79 74 135 111 245 111c216 0 311 -173 311 -332c0 -195 -112 -338 -304 -338s-273 130 -285 272h498c1 11 2 23 2 37c0 186 -102 327 -237 327c-94 0 -154 -49 -207 -101zM126 216c32 -130 114 -194 211 -194c106 0 180 94 198 194h-409z" />
    <glyph glyph-name="uni0190" unicode="&#x190;" horiz-adv-x="517" 
d="M295 658c71 0 93 -25 144 -30l19 -143l-31 -5c-18 80 -41 144 -140 144c-80 0 -141 -41 -141 -124c0 -50 29 -135 144 -135h68c11 0 17 -9 17 -20c0 -13 -6 -19 -17 -19h-97c-107 0 -137 -75 -137 -140c0 -120 66 -164 144 -164c69 0 153 39 177 148l30 -3l-17 -144
c-56 -9 -101 -35 -181 -35c-103 0 -239 33 -239 178c0 108 76 166 144 185c-30 11 -107 51 -107 141c0 113 115 166 220 166z" />
    <glyph glyph-name="uni0191" unicode="&#x191;" horiz-adv-x="506" 
d="M201 327v-285c0 -193 -100 -240 -162 -240c-34 0 -104 13 -104 66c0 25 16 30 31 30c28 0 36 -27 39 -39c2 -12 6 -26 34 -26c49 0 82 76 82 229v512c0 29 -9 44 -52 44h-30c-7 0 -8 5 -8 7v20l4 1l125 -1l74 1h243c4 -53 13 -114 21 -155l-29 -5
c-22 69 -40 120 -115 120h-117c-24 0 -36 -8 -36 -32v-213h127c35 0 44 16 50 44l7 30c1 4 4 8 8 8h22c2 0 3 -2 3 -4c-3 -23 -8 -62 -8 -95c0 -34 4 -65 8 -96l-2 -3h-23c-6 0 -8 4 -9 7l-6 31c-5 29 -16 44 -50 44h-127z" />
    <glyph glyph-name="florin" unicode="&#x192;" horiz-adv-x="450" 
d="M326 698c80 0 106 -39 106 -68c0 -20 -12 -37 -32 -37s-32 9 -40 25c-7 15 -11 51 -35 51c-18 0 -46 -22 -61 -128l-14 -111h105l-5 -39h-106l-2 -17c-45 -399 -63 -546 -183 -546c-56 0 -74 38 -74 56c0 15 12 33 31 33c17 0 27 -8 33 -21c7 -12 0 -31 21 -31
c84 0 72 231 91 413l12 113h-83l6 39h36c36 0 51 24 55 53c19 148 81 215 139 215z" />
    <glyph glyph-name="uni0193" unicode="&#x193;" horiz-adv-x="721" 
d="M682 743c28 0 36 -24 36 -36c0 -31 -27 -35 -50 -35c-7 0 -15 1 -20 1c-3 0 -6 0 -8 -1c-32 -5 -44 -37 -46 -67c6 -67 13 -106 21 -146l-30 -6c-26 86 -79 168 -224 168c-135 0 -242 -119 -242 -294c0 -132 96 -303 274 -303c54 0 113 18 147 50v153c0 31 -15 44 -55 44
h-26c-4 0 -8 3 -8 8v26l2 2s87 -2 126 -2c35 0 93 2 93 2l2 -2v-26c0 -5 -3 -8 -8 -8h-1c-35 0 -44 -16 -44 -44v-116c0 -11 5 -19 16 -28c-68 -58 -149 -95 -267 -95c-201 0 -338 146 -338 319c0 220 171 351 343 351c103 0 145 -32 192 -42c7 87 78 127 115 127z" />
    <glyph glyph-name="uni0194" unicode="&#x194;" horiz-adv-x="617" 
d="M291 -20c-30 -45 -51 -99 -51 -116c0 -27 10 -33 28 -33c28 0 33 49 33 69c0 23 0 38 -10 80zM488 574c5 12 7 20 7 27c0 15 -21 17 -55 17h-18c-4 0 -8 3 -8 8v19l2 1s73 -1 112 -1c35 0 87 1 87 1l2 -1v-19c0 -5 -3 -8 -8 -8c-41 0 -60 -9 -73 -44l-192 -513
c18 -62 30 -125 30 -145c0 -64 -34 -128 -105 -128c-54 0 -77 41 -77 71c0 68 34 87 78 177l-189 536c-14 40 -40 46 -73 46c-4 0 -8 3 -8 8v19l2 1s78 -1 117 -1c35 0 124 1 124 1l2 -1v-19c0 -5 -3 -8 -8 -8h-27c-36 0 -48 -10 -48 -26c0 -6 2 -12 4 -20l125 -356l31 -87
l31 84z" />
    <glyph glyph-name="uni0195" unicode="&#x195;" horiz-adv-x="714" 
d="M361 133v162c0 80 -22 100 -78 100c-29 0 -72 -26 -120 -73v-250c0 -29 10 -44 43 -44h19c4 0 8 -3 8 -8v-19l-2 -2s-68 2 -107 2c-36 0 -103 -2 -103 -2l-2 2v19c0 5 2 8 7 8h19c34 0 43 15 43 44v501c0 57 -9 73 -29 73l-33 -4c-3 0 -5 3 -5 5l-2 25c16 0 52 6 69 9
c18 4 33 8 53 17h22v-339c67 67 126 83 165 83c72 0 108 -55 108 -158v-154c0 -66 28 -95 75 -95c75 0 128 104 128 202c0 96 -32 126 -61 131c-12 1 -42 6 -42 37c0 18 14 37 41 37c69 0 98 -73 98 -193c0 -183 -84 -261 -164 -261c-104 0 -149 53 -150 145z" />
    <glyph glyph-name="uni0196" unicode="&#x196;" horiz-adv-x="300" 
d="M95 87v486c0 57 -10 73 -30 73l-22 -3l-10 -1c-3 0 -6 2 -6 5l-2 25c16 0 53 6 70 9c18 4 32 8 52 17h22v-563c0 -62 7 -92 34 -92c26 0 46 8 71 28l18 -17c-38 -44 -79 -66 -124 -66c-46 0 -73 28 -73 99z" />
    <glyph glyph-name="uni0197" unicode="&#x197;" horiz-adv-x="293" 
d="M274 368v-39h-87v-258c0 -30 15 -43 55 -43h26c4 0 8 -3 8 -8v-19l-2 -2s-86 2 -126 2c-35 0 -128 -2 -128 -2l-2 2v19c0 5 3 8 7 8h27c41 0 54 15 54 43v258h-87v39h87v206c0 30 -15 44 -54 44h-27c-4 0 -8 3 -8 8v19l2 1s87 -1 126 -1c36 0 129 1 129 1l2 -1v-19
c0 -5 -3 -8 -8 -8h-26c-41 0 -55 -16 -55 -44v-206h87z" />
    <glyph glyph-name="uni0198" unicode="&#x198;" horiz-adv-x="637" 
d="M524 658c61 0 104 -37 104 -70c0 -20 -18 -36 -36 -36c-42 0 -29 72 -79 72c-25 0 -75 -75 -129 -141c-53 -64 -98 -102 -98 -125c0 -8 6 -16 14 -25l239 -260c26 -29 49 -45 78 -45h7c4 0 9 -3 9 -8v-19l-3 -2s-75 2 -114 2c-36 0 -60 -2 -60 -2l-2 2v6
c0 18 0 44 -20 66l-182 198c-21 23 -38 34 -65 38v-238c0 -30 15 -43 55 -43h26c4 0 8 -3 8 -8v-19l-2 -2s-86 2 -126 2c-35 0 -128 -2 -128 -2l-2 2v19c0 5 3 8 7 8h27c41 0 54 15 54 43v503c0 30 -15 44 -54 44h-27c-4 0 -8 3 -8 8v19l2 1s87 -1 126 -1c36 0 129 1 129 1
l2 -1v-19c0 -5 -3 -8 -8 -8h-26c-41 0 -55 -16 -55 -44v-227c20 5 38 17 61 39c45 45 73 75 116 128c57 70 93 144 160 144z" />
    <glyph glyph-name="uni0199" unicode="&#x199;" horiz-adv-x="479" 
d="M88 496c0 102 39 201 145 201c41 0 94 -21 94 -51c0 -24 -15 -38 -32 -38c-24 0 -37 23 -42 44c-3 10 -8 16 -16 16c-44 0 -74 -50 -74 -142v-289c26 6 77 51 131 110c16 16 20 29 20 39c0 8 -5 16 -29 16h-4c-5 0 -8 4 -8 8v19l3 2s48 -2 83 -2c39 0 93 2 93 2l4 -2v-19
c0 -5 -6 -8 -11 -8h-7c-27 0 -71 -22 -96 -48l-76 -84c-3 -3 -4 -6 -4 -10c0 -5 2 -10 5 -14l117 -173c18 -27 50 -45 75 -45h7c7 0 9 -3 9 -8v-19l-2 -2s-51 2 -90 2c-35 0 -62 -2 -62 -2l-3 2v19c0 13 -3 24 -23 53l-73 103c-20 29 -34 36 -59 36v-140
c0 -29 10 -44 43 -44h2c4 0 8 -3 8 -8v-19l-2 -2s-51 2 -90 2c-36 0 -103 -2 -103 -2l-2 2v19c0 5 2 8 7 8h19c34 0 43 15 43 44v424z" />
    <glyph glyph-name="uni019A" unicode="&#x19a;" horiz-adv-x="260" 
d="M260 344v-40h-91v-232c0 -29 11 -44 43 -44h24c4 0 8 -3 8 -8v-19l-2 -2s-73 2 -112 2c-35 0 -108 -2 -108 -2l-1 2v19c0 5 2 8 7 8h24c33 0 43 15 43 44v232h-91v40h91v229c0 57 -10 73 -30 73l-32 -4c-3 0 -6 2 -6 5l-2 25c16 0 53 6 70 9c18 4 32 8 52 17h22v-354h91z
" />
    <glyph glyph-name="uni019B" unicode="&#x19b;" horiz-adv-x="531" 
d="M348 616l17 -30l-100 -59l78 -259c49 -162 70 -214 104 -214c21 0 42 11 62 57l23 -13c-19 -61 -52 -110 -89 -110c-50 0 -79 45 -107 138l-68 236l-157 -353l-79 -22l-20 8l233 435l-15 48l-8 24l-94 -55l-17 30l99 58c-34 83 -65 102 -88 102c-28 0 -51 -10 -71 -25
l-14 25c25 38 67 61 99 61c22 0 83 -17 116 -129l3 -8z" />
    <glyph glyph-name="uni019C" unicode="&#x19c;" horiz-adv-x="856" 
d="M182 574v-447c0 -66 32 -91 73 -91c43 0 88 20 140 72c-2 13 -2 26 -2 41v425c0 28 -11 44 -46 44h-21c-5 0 -9 3 -9 8v19l2 1s74 -1 116 -1c38 0 111 1 111 1l3 -1v-19c0 -5 -4 -8 -9 -8h-20c-37 0 -47 -16 -47 -44v-445c0 -66 33 -93 74 -93c38 0 84 25 135 74v464
c0 28 -11 44 -46 44h-21c-5 0 -9 3 -9 8v19l2 1s74 -1 116 -1c39 0 111 1 111 1l3 -1v-19c0 -5 -4 -8 -9 -8h-20c-37 0 -46 -16 -46 -44v-465c0 -57 9 -62 24 -62c14 0 26 1 45 5l5 -27c-68 -11 -83 -15 -112 -29c-11 -5 -19 -8 -27 -8h-16l3 86h-3
c-51 -49 -107 -86 -174 -86c-59 0 -101 40 -108 86c-62 -60 -125 -86 -184 -86c-94 0 -115 73 -115 162v424c0 28 -11 44 -46 44h-21c-5 0 -9 3 -9 8v19l2 1s74 -1 116 -1c39 0 112 1 112 1l2 -1v-19c0 -5 -3 -8 -8 -8h-21c-36 0 -46 -16 -46 -44z" />
    <glyph glyph-name="uni019D" unicode="&#x19d;" horiz-adv-x="695" 
d="M104 88v462c-6 26 -35 68 -68 68h-5c-5 0 -12 3 -12 8v16l2 4h131l349 -441c29 -37 43 -65 52 -65c5 0 5 19 5 38v379c0 27 -13 61 -54 61h-26c-5 0 -14 3 -14 8v19l5 1s74 -1 110 -1c39 0 111 1 111 1l2 -1v-19c0 -5 -4 -8 -8 -8h-27c-39 0 -54 -31 -54 -61v-536
c0 -19 -7 -29 -21 -29c-16 1 -29 7 -40 22l-349 441c-17 22 -28 33 -34 33c-8 0 -10 -15 -10 -49v-350c0 -134 -2 -276 -114 -276c-47 0 -79 29 -79 49c0 32 24 35 32 35c14 0 29 -20 34 -40c3 -10 9 -14 20 -14c62 0 62 185 62 245z" />
    <glyph glyph-name="uni019E" unicode="&#x19e;" horiz-adv-x="509" 
d="M364 -156v447c0 70 -12 103 -65 103c-44 0 -82 -17 -133 -77v-245c0 -29 10 -44 43 -44h14c5 0 8 -3 8 -8v-19l-2 -2s-63 2 -102 2c-36 0 -104 -2 -104 -2l-2 2v19c0 5 3 8 8 8h19c34 0 43 15 43 44v249c0 54 -8 61 -22 61c-13 0 -25 -1 -42 -5l-5 28c42 7 72 12 103 29
c11 5 19 8 26 8h15l-3 -89h3c64 75 112 89 163 89c90 0 109 -69 109 -158v-440c0 -29 11 -45 43 -45h19c5 0 9 -2 9 -8v-19l-2 -1s-69 1 -108 1c-35 0 -98 -1 -98 -1l-2 1v19c0 6 3 8 8 8h14c33 0 43 16 43 45z" />
    <glyph glyph-name="uni019F" unicode="&#x19f;" horiz-adv-x="698" 
d="M662 329c0 -200 -123 -341 -314 -341c-172 0 -311 125 -311 322c0 196 131 348 310 348c180 0 315 -131 315 -329zM569 353c-13 179 -104 271 -235 271c-92 0 -197 -80 -205 -271h440zM570 309h-441c7 -181 123 -287 239 -287c114 0 202 108 202 287z" />
    <glyph glyph-name="Ohorn" unicode="&#x1a0;" horiz-adv-x="698" 
d="M334 624c-96 0 -206 -87 -206 -297c0 -192 120 -305 240 -305c114 0 202 109 202 288c0 208 -95 314 -236 314zM662 329c0 -200 -123 -341 -314 -341c-172 0 -311 125 -311 322c0 196 131 348 310 348c57 0 110 -13 155 -38c12 -2 22 -3 34 -3c11 0 55 8 55 42
c0 13 -17 24 -31 25c-34 4 -47 27 -47 47c0 24 16 39 46 39c38 0 69 -43 69 -91c0 -51 -24 -86 -79 -90c70 -58 113 -148 113 -260z" />
    <glyph glyph-name="ohorn" unicode="&#x1a1;" horiz-adv-x="501" 
d="M34 205c0 137 74 237 207 237c33 0 62 -6 86 -17c20 -6 33 -8 50 -8c11 0 53 3 53 37c0 13 -14 21 -28 23c-34 3 -48 25 -48 45c0 24 17 39 46 39c38 0 64 -41 64 -88c0 -53 -31 -84 -82 -86c45 -45 64 -112 64 -173c0 -100 -65 -226 -207 -226c-134 0 -205 115 -205 217
zM230 409c-80 0 -117 -94 -117 -181c0 -77 44 -205 143 -205c45 0 111 27 111 159c0 147 -55 227 -137 227z" />
    <glyph glyph-name="uni01A2" unicode="&#x1a2;" horiz-adv-x="882" 
d="M334 624c-96 0 -206 -87 -206 -297c0 -192 108 -305 239 -305c41 0 78 14 109 39v508c-40 36 -89 55 -142 55zM648 602c-48 0 -97 6 -97 6v-548c-53 -46 -121 -72 -203 -72c-172 0 -312 125 -312 322c0 196 132 348 311 348c50 0 100 -12 143 -35c17 6 27 13 38 23h23
c34 -3 65 -7 108 -7c62 0 77 2 116 19h22v-728c0 -28 11 -44 43 -44h24c4 0 8 -3 8 -8v-19l-2 -2s-73 2 -112 2c-35 0 -108 -2 -108 -2l-2 2v19c0 5 3 8 8 8h24c33 0 43 16 43 44v603c0 67 -13 69 -75 69z" />
    <glyph glyph-name="uni01A3" unicode="&#x1a3;" horiz-adv-x="690" 
d="M338 336c-27 45 -61 72 -103 72c-80 0 -123 -77 -123 -181c0 -151 88 -195 146 -195c19 0 54 2 80 22v282zM610 -158c0 -29 10 -44 43 -44h19c4 0 8 -3 8 -8v-19l-2 -2s-68 2 -107 2c-36 0 -104 -2 -104 -2l-2 2v19c0 5 3 8 8 8h19c34 0 43 15 43 44v485
c0 44 -36 44 -69 44c-10 0 -34 -4 -53 -12v-310c-45 -31 -122 -61 -179 -61c-144 0 -198 126 -198 219c0 132 81 235 203 235c34 0 66 -8 94 -22c29 -15 100 -16 130 -16c72 0 110 38 132 38h15v-600z" />
    <glyph glyph-name="uni01A4" unicode="&#x1a4;" horiz-adv-x="584" 
d="M256 606v-286c11 -3 47 -5 71 -5c98 0 154 45 154 153c0 127 -74 152 -143 152c-19 0 -63 -7 -82 -14zM175 71v504c0 38 -6 43 -24 43c-36 -1 -88 -17 -88 -60c0 -9 1 -17 4 -25c2 -9 4 -16 4 -25c0 -20 -15 -34 -35 -34c-15 0 -36 8 -36 41c0 44 39 129 152 131h2l54 3
c52 3 112 5 138 5c185 0 220 -109 220 -168c0 -85 -51 -204 -233 -204c-36 0 -54 3 -77 10v-221c0 -30 15 -43 55 -43h26c4 0 8 -3 8 -8v-19l-2 -2s-87 2 -126 2c-35 0 -129 -2 -129 -2l-2 2v19c0 5 3 8 8 8h27c41 0 54 15 54 43z" />
    <glyph glyph-name="uni01A5" unicode="&#x1a5;" horiz-adv-x="479" 
d="M149 314v-249c35 -41 68 -43 84 -43c107 0 131 100 131 186c0 121 -49 188 -110 188c-34 0 -83 -29 -105 -82zM149 526v-93l-3 -71h3c46 70 100 80 132 80c97 0 161 -101 161 -207c0 -81 -25 -143 -70 -189c-39 -39 -80 -58 -133 -58c-36 0 -64 8 -90 22v-168
c0 -29 11 -44 43 -44h19c5 0 9 -3 9 -8v-19l-2 -2s-69 2 -108 2c-35 0 -103 -2 -103 -2l-2 2v19c0 5 3 8 8 8h19c33 0 43 15 43 44v654c0 102 39 201 145 201c41 0 93 -21 93 -51c0 -24 -15 -38 -32 -38c-23 0 -36 23 -42 44c-2 10 -8 16 -15 16c-45 0 -75 -50 -75 -142z
" />
    <glyph glyph-name="uni01A6" unicode="&#x1a6;" horiz-adv-x="564" 
d="M497 388c0 -85 -88 -137 -135 -148l104 -239c23 -43 54 -77 94 -77l3 -20c-10 -4 -27 -7 -42 -7c-60 0 -104 39 -130 86l-103 233c-4 7 -34 13 -101 13v-158c0 -30 15 -43 55 -43h26c4 0 8 -3 8 -8v-19l-2 -2s-86 2 -126 2c-35 0 -128 -2 -128 -2l-2 2v19c0 5 3 8 7 8h27
c41 0 54 15 54 43v503c0 30 -15 44 -54 44h-27c-4 0 -8 3 -8 8v19l2 1s87 -1 126 -1c36 0 129 1 129 1l2 -1v-19c0 -5 -3 -8 -8 -8h-26c-41 0 -55 -16 -55 -44v-22c19 -1 44 -2 76 -2c120 0 234 -36 234 -162zM416 387c0 101 -82 134 -142 134c-36 0 -63 -2 -87 -8v-246h50
c97 0 179 18 179 120z" />
    <glyph glyph-name="uni01A7" unicode="&#x1a7;" horiz-adv-x="479" 
d="M97 631c55 8 53 27 146 27c87 0 188 -67 188 -173c0 -117 -123 -167 -195 -194c-61 -24 -111 -51 -111 -142c0 -81 58 -125 134 -125c89 0 136 63 156 154l30 -3c-10 -76 -17 -124 -19 -175c-17 0 -26 5 -46 5c-24 0 -40 -17 -138 -17c-115 0 -198 94 -198 196
c0 121 93 162 177 192c42 15 141 53 141 136c0 61 -44 112 -110 112c-99 0 -127 -84 -146 -150l-30 5c9 49 17 99 21 152z" />
    <glyph glyph-name="uni01A8" unicode="&#x1a8;" horiz-adv-x="371" 
d="M328 140l-7 -142c-9 2 -18 3 -23 3c-7 0 -12 -1 -19 -2c-26 -7 -55 -11 -90 -11c-47 0 -152 29 -152 128c0 80 66 116 147 146c54 20 73 40 73 80c0 55 -39 70 -77 70c-21 0 -82 -16 -103 -98l-24 1c1 36 5 70 10 102c32 16 67 25 117 25c79 0 138 -48 138 -115
c0 -75 -38 -96 -110 -128c-80 -34 -104 -63 -104 -106c0 -49 52 -77 87 -77c38 0 67 18 78 29c25 26 34 74 36 96z" />
    <glyph glyph-name="uni01A9" unicode="&#x1a9;" horiz-adv-x="592" 
d="M392 603h-245l187 -272l-1 -1l-231 -287h298c77 0 106 55 126 127l30 -5c-11 -52 -22 -109 -26 -165l-519 -1l-2 2v24l2 3c12 0 25 1 34 13l216 268l2 1l-185 266c-27 36 -52 42 -66 42l-2 2v25l2 1h111h393c4 -54 13 -115 21 -156l-30 -5c-22 69 -40 118 -115 118z" />
    <glyph glyph-name="uni01AA" unicode="&#x1aa;" horiz-adv-x="305" 
d="M2 601c0 60 47 97 107 97c71 0 112 -40 112 -184v-501c0 -123 10 -154 21 -170c10 -18 24 -26 37 -26s19 13 24 26c6 13 14 29 31 29c13 0 31 -6 31 -35c0 -22 -34 -49 -89 -49c-19 0 -58 13 -81 34c-48 45 -49 122 -49 222v385c0 26 4 70 10 92c-11 -7 -34 -16 -48 -16
c-66 0 -106 40 -106 96zM174 601c0 32 -21 70 -66 70c-43 0 -66 -35 -66 -70c0 -36 24 -69 66 -69c41 0 66 34 66 69z" />
    <glyph glyph-name="uni01AB" unicode="&#x1ab;" horiz-adv-x="302" 
d="M164 -145c-22 0 -36 18 -36 38c0 45 58 28 84 44c19 11 27 35 27 59c0 5 0 10 -1 15c-24 -15 -49 -23 -76 -23c-46 0 -73 28 -73 99v304h-65c-3 0 -4 1 -4 4v31c0 3 1 4 3 4c67 0 83 39 83 115v19l58 20v-154h110c5 0 8 -2 8 -6v-20c0 -9 -14 -13 -24 -13h-94v-256
c0 -62 6 -92 33 -92c26 0 46 8 72 28l18 -17c-8 -9 -16 -17 -24 -24c3 -14 4 -27 4 -40c0 -90 -74 -135 -103 -135z" />
    <glyph glyph-name="uni01AC" unicode="&#x1ac;" horiz-adv-x="614" 
d="M71 500c0 -20 -14 -34 -34 -34c-16 0 -37 9 -37 41c0 44 40 129 152 132h388c15 0 15 16 15 24l27 6l32 -155l-23 -5c-20 80 -37 91 -92 91h-80c-36 0 -47 -9 -47 -42v-486c0 -31 15 -44 54 -44h27c4 0 8 -3 8 -8v-19l-2 -2s-87 2 -126 2c-36 0 -129 -2 -129 -2l-2 2v19
c0 5 3 8 8 8h26c41 0 55 16 55 44v488c0 31 -12 40 -48 40h-91c-37 -1 -89 -7 -89 -50c0 -8 2 -17 4 -25c3 -8 4 -16 4 -25z" />
    <glyph glyph-name="uni01AD" unicode="&#x1ad;" horiz-adv-x="304" 
d="M164 391v-256c0 -62 6 -92 33 -92c26 0 46 8 72 28l18 -17c-39 -44 -79 -66 -125 -66s-73 28 -73 99v304h-65c-3 0 -4 1 -4 4v31c0 3 1 4 3 4c60 0 65 49 65 66v3c1 101 40 198 145 198c41 0 94 -21 94 -51c0 -24 -15 -38 -32 -38c-24 0 -37 23 -42 44
c-3 10 -8 16 -16 16c-41 0 -69 -43 -73 -122v-116h110c5 0 8 -2 8 -6v-20c0 -9 -14 -13 -24 -13h-94z" />
    <glyph glyph-name="uni01AE" unicode="&#x1ae;" horiz-adv-x="583" 
d="M341 0c0 -136 33 -167 82 -167c28 0 31 14 34 26c2 12 10 39 38 39c15 0 32 -5 32 -30c0 -53 -71 -66 -105 -66c-62 0 -162 40 -162 198v560c0 31 -12 40 -48 40h-91c-56 0 -73 -11 -93 -91l-23 5l33 155l26 -6c0 -8 0 -24 16 -24h429c15 0 15 17 15 24l27 6l32 -155
l-23 -5c-20 80 -37 91 -92 91h-79c-36 0 -48 -9 -48 -42v-558z" />
    </font>
</defs>
</svg>
