<?xml version="1.0" encoding="UTF-8"?>
<!DOCTYPE svg PUBLIC "-//W3C//DTD SVG 1.1//EN"
    "http://www.w3.org/Graphics/SVG/1.1/DTD/svg11.dtd">
<svg xmlns="http://www.w3.org/2000/svg" xmlns:xlink="http://www.w3.org/1999/xlink" version="1.1" width="400.0" height="112.34492576774453" font-size="1" viewBox="0 0 400 112"><g><g stroke="rgb(0,0,0)" stroke-opacity="1.0" fill="rgb(0,0,0)" fill-opacity="0.0" stroke-width="1.0e-2" stroke-linecap="butt" stroke-linejoin="miter" fill-rule="evenodd" font-size="1.0em" stroke-miterlimit="10.0"><g transform="matrix(112.34492576774453,0.0,0.0,112.34492576774453,0.0,91.51921903599754)"><g fill="rgb(211,211,211)" fill-opacity="1.0" stroke-width="0.0"><path d="M 3.560463432295439,0.18537291817523532 l -3.9529084808703085e-16,-1.0 h -3.560463432295439 l -3.9529084808703085e-16,1.0 h 3.56046343229544 Z" /></g><g stroke="rgb(0,0,255)" stroke-opacity="1.0" fill="rgb(0,0,255)" fill-opacity="1.0"><path d="M 4.440892098500626e-16,0.0 ZM 0.19044170890658974,-0.2049239681390297 h 0.1281679942070963 l -6.806661839246922e-2,-0.19695872556118754 h -4.344677769732078e-3 l -7.400434467776973e-2,0.18732802317161476 c -2.751629254163649e-3,7.458363504706734e-3 2.3171614771904415e-3,9.630702389572773e-3 1.8247646632874728e-2 9.630702389572773e-3l 3.469446951953614e-18,8.673617379884035e-18 ZM 0.19044170890658974,-0.2049239681390297 ZM 0.1122375090514125,-5.720492396813903e-2 c -1.1296162201303403e-2,2.9761042722664735e-2 2.2737146994931207e-2,3.287472845763939e-2 4.9963794351918896e-2 3.475742215785663e-2c 4.344677769732078e-3,4.344677769732078e-3 4.344677769732078e-3,1.955104996379435e-2 0.0 2.389572773352643e-2c -2.679217958001448e-2,-7.24112961622013e-4 -6.299782766111513e-2,-1.448225923244026e-3 -9.268645908761766e-2 -1.448225923244026e-3c -2.1940622737146993e-2,0.0 -4.561911658218682e-2,7.24112961622013e-4 -6.444605358435916e-2 1.448225923244026e-3c -4.344677769732078e-3,-4.344677769732078e-3 -4.344677769732078e-3,-1.955104996379435e-2 0.0 -2.389572773352643e-2c 3.1498913830557564e-2,-2.172338884866039e-3 5.358435916002896e-2,-6.517016654598117e-3 7.24112961622013e-2 -5.141202027516292e-2l 0.16437364228819695,-0.38812454742939895 c 9.413468501086169e-3,0.0 2.8964518464880518e-2,-7.965242577842143e-3 3.982621288921071e-2 -1.4482259232440259e-2l 0.14916727009413466,0.41419261404779145 c 1.2599565532223024e-2,3.490224475018103e-2 3.7074583635047065e-2,3.7291817523533666e-2 6.517016654598116e-2 3.982621288921071e-2c 4.344677769732078e-3,4.344677769732078e-3 4.344677769732078e-3,1.955104996379435e-2 0.0 2.389572773352643e-2c -2.5343953656770453e-2,-7.24112961622013e-4 -5.286024619840695e-2,-1.448225923244026e-3 -8.254887762490948e-2 -1.448225923244026e-3c -2.8240405503258507e-2,0.0 -6.806661839246922e-2,7.24112961622013e-4 -9.48587979724837e-2 1.448225923244026e-3c -4.344677769732078e-3,-4.344677769732078e-3 -4.344677769732078e-3,-1.955104996379435e-2 0.0 -2.389572773352643e-2c 3.446777697320782e-2,-2.461984069514844e-3 6.212889210716871e-2,-4.706734250543084e-3 5.358435916002896e-2 -2.968863142650253e-2l -4.1998551774076756e-2,-0.1223750905141202 h -0.15278783490224473 c -1.7378711078928313e-2,0.0 -2.1723388848660388e-2,2.896451846488052e-3 -2.5343953656770453e-2 1.2309920347574221e-2l -3.9826212889210726e-2,0.10499637943519184 ZM 0.5032585083272996,0.0 ZM 0.8276611151339612,-0.4446053584359159 c -4.344677769732078e-3,-4.344677769732078e-3 -4.344677769732078e-3,-1.955104996379435e-2 0.0 -2.389572773352643e-2c 2.968863142650253e-2,7.24112961622013e-4 6.227371469949312e-2,1.448225923244026e-3 7.892831281679942e-2 1.448225923244026e-3c 1.66545981173063e-2,0.0 4.1998551774076756e-2,-7.24112961622013e-4 6.372194062273714e-2 -1.448225923244026e-3c 4.344677769732078e-3,4.344677769732078e-3 4.344677769732078e-3,1.955104996379435e-2 0.0 2.389572773352643e-2c -4.561911658218682e-2,5.068790731354091e-3 -5.7277335264301225e-2,3.3091962346126e-2 -7.118030412744387e-2 6.73425054308472e-2l -0.14967414916727007,0.36929761042722664 c -4.199847936278059e-3,1.0354815351194787e-2 -9.413468501086169e-3,1.66545981173063e-2 -1.7378711078928313e-2 1.66545981173063e-2c -7.241129616220129e-3,0.0 -1.2309920347574221e-2,-5.358435916002897e-3 -1.66545981173063e-2 -1.66545981173063e-2l -0.14301230992034755,-0.37074583635047065 c -1.9261404779145546e-2,-4.9963794351918896e-2 -2.4981897175959448e-2,-6.227371469949312e-2 -6.480811006517016e-2 -6.589427950760318e-2c -4.344677769732078e-3,-4.344677769732078e-3 -5.068790731354091e-3,-1.955104996379435e-2 -7.24112961622013e-4 -2.389572773352643e-2c 2.389572773352643e-2,7.24112961622013e-4 4.902244750181028e-2,1.448225923244026e-3 7.530774800868935e-2 1.448225923244026e-3c 2.6068066618392467e-2,0.0 5.865314989138305e-2,-7.24112961622013e-4 8.761766835626357e-2 -1.448225923244026e-3c 4.344677769732078e-3,4.344677769732078e-3 4.344677769732078e-3,1.955104996379435e-2 0.0 2.389572773352643e-2c -4.9239681390296886e-2,5.068790731354091e-3 -5.343953656770455e-2,1.4844315713251266e-2 -3.6640115858073856e-2 5.7929036929761035e-2l 0.11520637219406227,0.2947139753801593 h 3.330926864590876e-3 l 0.11433743664011585,-0.2903692976104272 c 1.5496017378711077e-2,-3.93917451122375e-2 1.5206372194062272e-2,-5.865314989138305e-2 -3.837798696596669e-2 -6.227371469949312e-2l -7.241129619528497e-9,-6.245004513516506e-17 ZM 0.9753801593048519,0.0 ZM 1.1788559015206377,-0.26140477914554666 c 6.154960173787111e-2,0.0 6.372194062273714e-2,-9.413468501086169e-3 6.589427950760318e-2 -4.9239681390296886e-2c 4.344677769732078e-3,-4.344677769732078e-3 1.955104996379435e-2,-4.344677769732078e-3 2.389572773352643e-2 0.0c -7.24112961622013e-4,1.7378711078928313e-2 -1.448225923244026e-3,4.1998551774076756e-2 -1.448225923244026e-3 6.227371469949312e-2c 0.0,2.4837074583635044e-2 7.24112961622013e-4,4.4895003620564804e-2 1.448225923244026e-3 6.372194062273714e-2c -4.344677769732078e-3,4.344677769732078e-3 -1.955104996379435e-2,4.344677769732078e-3 -2.389572773352643e-2 0.0c -2.172338884866039e-3,-3.258508327299058e-2 -4.344677769732078e-3,-4.9239681390296886e-2 -6.589427950760318e-2 -4.9239681390296886e-2h -6.589427950760318e-2 v 0.16002896451846488 c 0.0,3.403330919623461e-2 1.0137581462708182e-2,4.561911658218682e-2 4.055032585083273e-2 4.561911658218682e-2h 8.399710354815351e-2 c 5.503258508327299e-2,0.0 8.037653874004344e-2,-4.2722664735698766e-2 9.48587979724837e-2 -9.48587979724837e-2c 9.48587979724837e-3,-2.3171614771904415e-3 1.781317885590152e-2,-6.51697320782042e-4 2.5343953656770453e-2 3.6205648081100647e-3c -5.792903692976104e-3,3.6929761042722664e-2 -1.66545981173063e-2,8.472121650977552e-2 -2.679217958001448e-2 0.12092686459087616c 0.0,0.0 -5.7929036929761035e-2,-1.448225923244026e-3 -9.268645908761766e-2 -1.448225923244026e-3h -0.1556842867487328 c -2.389572773352643e-2,0.0 -6.73425054308472e-2,7.24112961622013e-4 -9.413468501086168e-2 1.448225923244026e-3c -4.344677769732078e-3,-4.344677769732078e-3 -4.344677769732078e-3,-1.955104996379435e-2 0.0 -2.389572773352643e-2c 5.0687907313540906e-2,-2.172338884866039e-3 6.299782766111513e-2,-5.792903692976104e-3 6.299782766111513e-2 -6.589427950760318e-2v -0.2903692976104272 c 0.0,-6.010137581462708e-2 -1.2309920347574221e-2,-6.372194062273714e-2 -6.299782766111513e-2 -6.589427950760318e-2c -4.344677769732078e-3,-4.344677769732078e-3 -4.344677769732078e-3,-1.955104996379435e-2 0.0 -2.389572773352643e-2c 2.8964518464880518e-2,7.24112961622013e-4 7.132512671976828e-2,1.448225923244026e-3 9.341057204923968e-2 1.448225923244026e-3h 0.18464880521361332 c 1.7378711078928313e-2,0.0 2.3171614771904415e-2,-7.24112961622013e-4 3.548153511947864e-2 -2.896451846488052e-3c 2.172338884866039e-3,0.0 2.896451846488052e-3,7.24112961622013e-4 2.896451846488052e-3 2.172338884866039e-3c 1.448225923244026e-3,5.792903692976104e-3 1.2309920347574221e-2,7.530774800868935e-2 1.5930485155684286e-2 0.10499637943519188c -7.09629978276611e-3,3.403338160753077e-3 -1.4916727009413468e-2,4.923960897900072e-3 -2.389572773352643e-2 3.6205648081100647e-3c -1.5930485155684286e-2,-4.9963794351918896e-2 -2.7516292541636494e-2,-7.892831281679942e-2 -8.182476466328746e-2 -7.892831281679942e-2h -5.430847212165097e-2 c -3.91020999275887e-2,0.0 -4.779145546705286e-2,1.4482259232440259e-2 -4.779145546705286e-2 4.634322954380883e-2v 0.13034033309196233 h 6.589427950760318e-2 l -4.163336342344337e-17,2.7755575615628914e-17 ZM 1.3787110789283132,0.0 ZM 1.7813178855901524,-0.3707458363504707 c 0.0,-6.589427950760318e-2 -1.2309920347574221e-2,-6.879073135409124e-2 -6.299782766111513e-2 -7.385952208544533e-2c -4.344677769732078e-3,-4.344677769732078e-3 -4.344677769732078e-3,-1.955104996379435e-2 0.0 -2.389572773352643e-2c 3.186097031136857e-2,7.24112961622013e-4 6.495293265749456e-2,1.448225923244026e-3 8.037653874004344e-2 1.448225923244026e-3c 1.716147719044171e-2,0.0 5.141202027516292e-2,-7.24112961622013e-4 8.110065170166546e-2 -1.448225923244026e-3c 4.344677769732078e-3,4.344677769732078e-3 4.344677769732078e-3,1.955104996379435e-2 0.0 2.389572773352643e-2c -5.0687907313540906e-2,5.068790731354091e-3 -6.299782766111513e-2,9.413468501086169e-3 -6.299782766111513e-2 7.385952208544533e-2v 0.35553946415640836 c 0.0,1.3758146270818247e-2 -6.517016654598117e-3,2.2447501810282402e-2 -1.66545981173063e-2 2.2447501810282402e-2c -1.1585807385952208e-2,0.0 -2.0999275887038378e-2,-6.517016654598117e-3 -2.8964518464880518e-2 -1.7378711078928313e-2l -0.2527154236060825,-0.31933381607530775 c -1.2309920347574221e-2,-1.5930485155684286e-2 -2.0275162925416364e-2,-2.389572773352643e-2 -2.4619840695148443e-2 -2.389572773352643e-2c -5.792903692976104e-3,0.0 -5.792903692976104e-3,1.0861694424330194e-2 -5.792903692976104e-3 3.548153511947864e-2v 0.22157856625633598 c 0.0,6.589427950760318e-2 1.2309920347574221e-2,6.879073135409124e-2 6.299782766111513e-2 7.385952208544533e-2c 4.344677769732078e-3,4.344677769732078e-3 4.344677769732078e-3,1.955104996379435e-2 0.0 2.389572773352643e-2c -3.0412744388124545e-2,-7.24112961622013e-4 -6.364952932657494e-2,-1.448225923244026e-3 -8.037653874004344e-2 -1.448225923244026e-3c -1.708906589427951e-2,0.0 -4.9963794351918896e-2,7.24112961622013e-4 -8.110065170166546e-2 1.448225923244026e-3c -4.344677769732078e-3,-4.344677769732078e-3 -4.344677769732078e-3,-1.955104996379435e-2 0.0 -2.389572773352643e-2c 5.0687907313540906e-2,-5.068790731354091e-3 6.299782766111513e-2,-9.413468501086169e-3 6.299782766111513e-2 -7.385952208544533e-2v -0.3019551049963794 c -4.344677769732078e-3,-1.8826937002172337e-2 -2.6068066618392467e-2,-4.4170890658942794e-2 -5.7204923968139025e-2 -4.634322954380883e-2c -4.344677769732078e-3,-4.344677769732078e-3 -4.344677769732078e-3,-1.955104996379435e-2 0.0 -2.389572773352643e-2l 9.775524981897175e-2,1.448225923244026e-3 l 0.24837074583635046,0.3149891383055756 c 2.0999275887038378e-2,2.679217958001448e-2 3.186097031136857e-2,3.982621288921071e-2 3.475742215785663e-2 3.982621288921071e-2c 5.068790731354091e-3,0.0 5.068790731354091e-3,-7.965242577842143e-3 5.068790731354091e-3 -2.1723388848660388e-2v -0.23678493845039825 l -4.163336342344337e-17,2.7755575615628914e-17 ZM 1.8848660391021002,0.0 ZM 2.157856625633599,-0.4764663287472845 c 8.037653874004344e-2,0.0 0.10716871832005792,2.5343953656770453e-2 0.1506154960173787 3.258508327299058e-2c 1.1585807385952208e-2,5.213613323678493e-2 1.4844315713251266e-2,8.110065170166546e-2 1.66545981173063e-2 0.11151339608979c -8.182476466328747e-3,3.403338160753077e-3 -1.571325126719768e-2,4.851564083997103e-3 -2.389572773352643e-2 4.344677769732078e-3c -1.8826937002172337e-2,-6.227371469949312e-2 -4.851556842867487e-2,-0.1223750905141202 -0.15351194786386677 -0.1223750905141202c -8.435916002896451e-2,0.0 -0.166545981173063,8.689355539464155e-2 -0.166545981173063 0.21361332367849384c 0.0,9.558291093410572e-2 6.082548877624909e-2,0.2179580014482259 0.17523533671252714 0.2179580014482259c 3.91020999275887e-2,0.0 8.761766835626357e-2,-4.344677769732078e-3 0.11223750905141201 -2.7516292541636494e-2v -0.11078928312816799 c 0.0,-2.903692976104272e-2 -1.9623461259956555e-2,-3.1716147719044165e-2 -5.937726285300506e-2 -3.475742215785663e-2c -4.344677769732078e-3,-4.344677769732078e-3 -4.344677769732078e-3,-2.1723388848660388e-2 0.0 -2.6068066618392467e-2c 3.186097031136857e-2,7.24112961622013e-4 6.553222302679218e-2,1.448225923244026e-3 8.979000724112961e-2 1.448225923244026e-3c 2.8964518464880518e-2,0.0 4.706734250543084e-2,-7.24112961622013e-4 6.444605358435916e-2 -1.448225923244026e-3c 4.344677769732078e-3,4.344677769732078e-3 4.344677769732078e-3,2.1723388848660388e-2 0.0 2.6068066618392467e-2c -2.0999275887038378e-2,2.172338884866039e-3 -3.33091962346126e-2,9.268645908761766e-3 -3.33091962346126e-2 3.475742215785663e-2v 8.399710354815351e-2 c 0.0,7.965242577842143e-3 3.6205648081100647e-3,1.3758146270818247e-2 1.1585807385952208e-2 2.0275162925416364e-2c -4.9239681390296886e-2,4.1998551774076756e-2 -0.11658218682114409,6.010137581462708e-2 -0.20202751629254162 6.010137581462708e-2c -0.13830557566980448,0.0 -0.2280955829109341,-9.934829833454017e-2 -0.2280955829109341 -0.2295438088341781c 0.0,-0.15930485155684285 0.12527154236060825,-0.2541636495293266 0.24619840695148443 -0.2541636495293266h 2.7755575615628914e-17 ZM 2.380883417813179,0.0 ZM 2.584359160028965,-0.26140477914554666 c 6.154960173787111e-2,0.0 6.372194062273714e-2,-9.413468501086169e-3 6.589427950760318e-2 -4.9239681390296886e-2c 4.344677769732078e-3,-4.344677769732078e-3 1.955104996379435e-2,-4.344677769732078e-3 2.389572773352643e-2 0.0c -7.24112961622013e-4,1.7378711078928313e-2 -1.448225923244026e-3,4.1998551774076756e-2 -1.448225923244026e-3 6.227371469949312e-2c 0.0,2.4837074583635044e-2 7.24112961622013e-4,4.4895003620564804e-2 1.448225923244026e-3 6.372194062273714e-2c -4.344677769732078e-3,4.344677769732078e-3 -1.955104996379435e-2,4.344677769732078e-3 -2.389572773352643e-2 0.0c -2.172338884866039e-3,-3.258508327299058e-2 -4.344677769732078e-3,-4.9239681390296886e-2 -6.589427950760318e-2 -4.9239681390296886e-2h -6.589427950760318e-2 v 0.16002896451846488 c 0.0,3.403330919623461e-2 1.0137581462708182e-2,4.561911658218682e-2 4.055032585083273e-2 4.561911658218682e-2h 8.399710354815351e-2 c 5.503258508327299e-2,0.0 8.037653874004344e-2,-4.2722664735698766e-2 9.48587979724837e-2 -9.48587979724837e-2c 9.48587979724837e-3,-2.3171614771904415e-3 1.781317885590152e-2,-6.51697320782042e-4 2.5343953656770453e-2 3.6205648081100647e-3c -5.792903692976104e-3,3.6929761042722664e-2 -1.66545981173063e-2,8.472121650977552e-2 -2.679217958001448e-2 0.12092686459087616c 0.0,0.0 -5.7929036929761035e-2,-1.448225923244026e-3 -9.268645908761766e-2 -1.448225923244026e-3h -0.1556842867487328 c -2.389572773352643e-2,0.0 -6.73425054308472e-2,7.24112961622013e-4 -9.413468501086168e-2 1.448225923244026e-3c -4.344677769732078e-3,-4.344677769732078e-3 -4.344677769732078e-3,-1.955104996379435e-2 0.0 -2.389572773352643e-2c 5.0687907313540906e-2,-2.172338884866039e-3 6.299782766111513e-2,-5.792903692976104e-3 6.299782766111513e-2 -6.589427950760318e-2v -0.2903692976104272 c 0.0,-6.010137581462708e-2 -1.2309920347574221e-2,-6.372194062273714e-2 -6.299782766111513e-2 -6.589427950760318e-2c -4.344677769732078e-3,-4.344677769732078e-3 -4.344677769732078e-3,-1.955104996379435e-2 0.0 -2.389572773352643e-2c 2.8964518464880518e-2,7.24112961622013e-4 7.132512671976828e-2,1.448225923244026e-3 9.341057204923968e-2 1.448225923244026e-3h 0.18464880521361332 c 1.7378711078928313e-2,0.0 2.3171614771904415e-2,-7.24112961622013e-4 3.548153511947864e-2 -2.896451846488052e-3c 2.172338884866039e-3,0.0 2.896451846488052e-3,7.24112961622013e-4 2.896451846488052e-3 2.172338884866039e-3c 1.448225923244026e-3,5.792903692976104e-3 1.2309920347574221e-2,7.530774800868935e-2 1.5930485155684286e-2 0.10499637943519188c -7.09629978276611e-3,3.403338160753077e-3 -1.4916727009413468e-2,4.923960897900072e-3 -2.389572773352643e-2 3.6205648081100647e-3c -1.5930485155684286e-2,-4.9963794351918896e-2 -2.7516292541636494e-2,-7.892831281679942e-2 -8.182476466328746e-2 -7.892831281679942e-2h -5.430847212165097e-2 c -3.91020999275887e-2,0.0 -4.779145546705286e-2,1.4482259232440259e-2 -4.779145546705286e-2 4.634322954380883e-2v 0.13034033309196233 h 6.589427950760318e-2 l -4.163336342344337e-17,2.7755575615628914e-17 ZM 2.7842143374366404,0.0 ZM 2.981173062997828,-0.44750181028240404 c -5.141202027516292e-2,0.0 -6.010137581462708e-2,2.5343953656770453e-2 -6.010137581462708e-2 4.634322954380883e-2v 0.165821868211441 h 3.475742215785663e-2 c 7.023895727733526e-2,0.0 0.12165097755249818,-2.0275162925416364e-2 0.12165097755249818 -0.11078928312816799c 0.0,-8.544532947139753e-2 -5.213613323678493e-2,-0.10137581462708181 -9.630702389572773e-2 -0.10137581462708181v -2.7755575615628914e-17 ZM 2.981173062997828,-0.44750181028240404 ZM 2.921071687183201,-8.834178131788556e-2 c 0.0,6.010137581462708e-2 1.2309920347574221e-2,6.372194062273714e-2 6.299782766111513e-2 6.589427950760318e-2c 4.344677769732078e-3,4.344677769732078e-3 4.344677769732078e-3,1.955104996379435e-2 0.0 2.389572773352643e-2c -3.186097031136857e-2,-7.24112961622013e-4 -6.6183924692252e-2,-1.448225923244026e-3 -9.341057204923968e-2 -1.448225923244026e-3c -2.78783490224475e-2,0.0 -6.154960173787111e-2,7.24112961622013e-4 -9.413468501086168e-2 1.448225923244026e-3c -4.344677769732078e-3,-4.344677769732078e-3 -4.344677769732078e-3,-1.955104996379435e-2 0.0 -2.389572773352643e-2c 5.0687907313540906e-2,-2.172338884866039e-3 6.299782766111513e-2,-5.792903692976104e-3 6.299782766111513e-2 -6.589427950760318e-2v -0.2903692976104272 c 0.0,-6.010137581462708e-2 -1.2309920347574221e-2,-6.372194062273714e-2 -6.299782766111513e-2 -6.589427950760318e-2c -4.344677769732078e-3,-4.344677769732078e-3 -4.344677769732078e-3,-1.955104996379435e-2 0.0 -2.389572773352643e-2c 3.403330919623461e-2,7.24112961622013e-4 6.806661839246922e-2,1.448225923244026e-3 9.341057204923968e-2 1.448225923244026e-3c 2.6068066618392467e-2,0.0 5.6480811006517015e-2,-5.068790731354091e-3 9.051412020275162e-2 -5.068790731354091e-3c 4.561911658218682e-2,0.0 9.051412020275162e-2,2.172338884866039e-3 0.12527154236060825 3.475742215785663e-2c 2.6068066618392467e-2,2.4619840695148443e-2 3.837798696596669e-2,5.430847212165097e-2 3.837798696596669e-2 9.051412020275162e-2c 0.0,7.603186097031137e-2 -6.517016654598116e-2,0.11368573497465603 -9.630702389572773e-2 0.12382331643736422l 9.123823316437364e-2,0.15206372194062273 c 1.8826937002172337e-2,3.142650253439536e-2 3.6929761042722664e-2,5.5756698044895e-2 6.951484431571325e-2 5.5756698044895e-2c 2.896451846488052e-3,5.792903692976104e-3 3.2585083272990583e-3,1.2382331643736423e-2 7.24112961622013e-4 1.7378711078928313e-2c -7.241129616220129e-3,3.6205648081100647e-3 -1.955104996379435e-2,5.068790731354091e-3 -3.0412744388124545e-2 5.068790731354091e-3c -4.3446777697320776e-2,0.0 -7.480086893555393e-2,-3.070238957277335e-2 -9.558291093410572e-2 -6.444605358435916e-2l -7.748008689355539e-2,-0.12599565532223025 c -1.0354815351194787e-2,-1.6871832005792904e-2 -2.389572773352643e-2,-2.7516292541636494e-2 -8.472121650977552e-2 -2.7516292541636494e-2v 0.1223750905141202 l -8.326672684688674e-17,-4.163336342344337e-17 ZM 3.209268645908762,0.0 ZM 3.4950036205648085,-0.4569152787834902 c 7.530774800868935e-3,3.837798696596669e-2 1.0427226647356987e-2,5.865314989138305e-2 1.2961622013034031e-2 9.341057204923968e-2c -6.517016654598117e-3,5.068790731354091e-3 -1.5930485155684286e-2,5.648073859522085e-3 -2.353367125271542e-2 4.344677769732078e-3c -1.4482259232440259e-2,-4.779145546705286e-2 -3.6929761042722664e-2,-9.268645908761766e-2 -0.10724112961622012 -9.268645908761766e-2c -4.2650253439536566e-2,0.0 -7.929036929761042e-2,4.055032585083273e-2 -7.929036929761042e-2 8.110065170166546e-2c 0.0,6.089790007241129e-2 7.233888486603911e-2,8.826937002172339e-2 0.11520637219406227 0.10434467776973207c 5.966690803765387e-2,2.23750905141202e-2 0.1176683562635771,5.6118754525706006e-2 0.1176683562635771 0.1331643736422882c 0.0,4.605358435916003e-2 -2.6430123099203475e-2,9.065894279507603e-2 -6.806661839246922e-2 0.11672700941346849c -2.519913106444605e-2,1.571325126719768e-2 -5.6408399710354815e-2,2.3750905141202025e-2 -8.93555394641564e-2 2.3750905141202025e-2c -6.422881969587256e-2,0.0 -8.443157132512671e-2,-1.66545981173063e-2 -0.13005068790731353 -1.66545981173063e-2c -8.689355539464157e-3,-3.548153511947864e-2 -1.1585807385952208e-2,-5.430847212165097e-2 -1.4482259232440259e-2 -0.11006517016654598c 6.951484431571325e-3,-3.6929833454018824e-3 1.4627081824764661e-2,-5.068790731354091e-3 2.353367125271542e-2 -2.172338884866039e-3c 1.5930485155684286e-2,7.204923968139029e-2 5.944967414916726e-2,0.10282404055032585 0.1270818247646633 0.10282404055032585c 5.7784214337436635e-2,0.0 9.051412020275162e-2,-3.0412744388124545e-2 9.051412020275162e-2 -8.906589427950759e-2c 0.0,-7.081824764663287e-2 -5.336712527154236e-2,-9.116582186821144e-2 -9.739319333816075e-2 -0.10789283128167994c -6.372194062273714e-2,-2.4257784214337434e-2 -0.12635771180304126,-5.9087617668356254e-2 -0.12635771180304126 -0.13540912382331644c 0.0,-7.675597393193338e-2 6.444605358435916e-2,-0.12527154236060825 0.13787110789283127 -0.12527154236060825c 7.067342505430846e-2,0.0 6.908037653874004e-2,1.3758146270818247e-2 0.11093410572049238 1.955104996379435e-2l -1.3877787807814457e-17,1.3877787807814457e-17 Z" /></g></g></g></g></svg>