<?xml version="1.0" encoding="UTF-8"?>
<!DOCTYPE svg PUBLIC "-//W3C//DTD SVG 1.1//EN"
    "http://www.w3.org/Graphics/SVG/1.1/DTD/svg11.dtd">
<svg xmlns="http://www.w3.org/2000/svg" xmlns:xlink="http://www.w3.org/1999/xlink" version="1.1" width="400.0" height="99.99999999999997" font-size="1" viewBox="0 0 400 100"><g><g stroke="rgb(0,0,0)" stroke-opacity="1.0" fill="rgb(0,0,0)" fill-opacity="0.0" stroke-width="1.0e-2" stroke-linecap="butt" stroke-linejoin="miter" font-size="1.0em" stroke-miterlimit="10.0"><g transform="matrix(39.999999999999986,0.0,0.0,39.999999999999986,0.0,39.999999999999986)"><g><g fill-rule="evenodd"><g fill="rgb(211,211,211)" fill-opacity="1.0" stroke-width="0.0"><path d="M 5.370745836350473,1.5 l -5.962725686925988e-16,-1.0 h -5.370745836350473 l -5.962725686925988e-16,1.0 h 5.3707458363504745 Z" /></g><g stroke="rgb(0,0,255)" stroke-opacity="1.0" fill="rgb(0,0,255)" fill-opacity="1.0"><path d="M 1.3322676295501878e-15,1.3146270818247647 ZM 0.2585083272990598,1.3218682114409848 c -0.1556842867487328,0.0 -0.2317161477190442,-0.10586531498913829 -0.2317161477190442 -0.23171614771904414c 0.0,-7.552498189717595e-2 2.867487328023172e-2,-0.14641564083997102 7.675597393193338e-2 -0.1904417089065894c 4.272266473569877e-2,-3.91020999275887e-2 9.41346850108617e-2,-6.154960173787111e-2 0.1556842867487328 -6.154960173787111e-2c 8.90658942795076e-2,0.0 0.1216509775524982,2.8964518464880518e-2 0.15858073859522087 3.258508327299058e-2c 7.241129616220131e-3,3.982621288921071e-2 1.2309920347574223e-2,7.458363504706733e-2 1.593048515568429e-2 0.11223750905141201c -8.18247646632875e-3,4.344677769732078e-3 -1.5206372194062274e-2,6.517016654598117e-3 -2.3895727733526433e-2 3.6205648081100647e-3c -1.882693700217234e-2,-6.227371469949312e-2 -5.865314989138306e-2,-0.12165097755249818 -0.15858073859522087 -0.12165097755249818c -3.765387400434468e-2,0.0 -7.965242577842144e-2,2.0275162925416364e-2 -0.11556842867487328 6.444605358435916e-2c -2.643012309920348e-2,3.251267197682838e-2 -4.3012309920347574e-2,8.450398262128891e-2 -4.3012309920347574e-2 0.14699493120926863c 0.0,0.1057204923968139 6.763215061549603e-2,0.21578566256335988 0.16509775524981898 0.21578566256335988c 6.734250543084722e-2,0.0 0.1165821868211441,-2.2447501810282402e-2 0.16799420709630702 -7.892831281679942e-2c 7.965242577842145e-3,0.0 1.3034033309196235e-2,4.344677769732078e-3 1.66545981173063e-2 1.0861694424330194e-2c -4.923968139029689e-2,6.444605358435916e-2 -0.11368573497465606,9.775524981897175e-2 -0.18392469225199132 9.775524981897175e-2v -4.163336342344337e-17 ZM 0.46777697320782163,1.3146270818247647 ZM 0.49746560463432443,1.166183924692252 c 0.0,-4.576393917451122e-2 1.3758146270818249e-2,-8.790731354091239e-2 4.004344677769732e-2 -0.11875452570601013c 2.650253439536568e-2,-3.113685734974656e-2 6.5821868211441e-2,-5.0687907313540906e-2 0.11346850108616945 -5.0687907313540906e-2c 0.110789283128168,0.0 0.15206372194062276,8.761766835626357e-2 0.15206372194062276 0.16292541636495292c 0.0,4.4388124547429395e-2 -1.4699493120926867e-2,8.993482983345401e-2 -4.713975380159305e-2 0.12165097755249818c -2.4692251991310647e-2,2.411296162201303e-2 -5.973931933381608e-2,4.055032585083273e-2 -0.10637219406227373 4.055032585083273e-2c -0.10282404055032586,0.0 -0.15206372194062276,-8.182476466328746e-2 -0.15206372194062276 -0.1556842867487328h 2.7755575615628914e-17 ZM 0.49746560463432443,1.166183924692252 ZM 0.6401158580738611,1.0220854453294714 c -6.517016654598118e-2,0.0 -8.037653874004345e-2,6.444605358435916e-2 -8.037653874004345e-2 0.1274438812454743c 0.0,5.5756698044895e-2 2.4619840695148446e-2,0.14699493120926863 9.99275887038378e-2 0.14699493120926863c 3.403330919623462e-2,0.0 8.110065170166547e-2,-2.2447501810282402e-2 8.110065170166547e-2 -0.11368573497465603c 0.0,-0.10427226647356987 -3.837798696596669e-2,-0.16075307748008688 -0.10065170166545982 -0.16075307748008688v 2.7755575615628914e-17 ZM 0.8327299058653164,1.3146270818247647 ZM 0.965966690803767,1.055394641564084 c 4.2939898624185374e-2,-4.9239681390296886e-2 8.327299058653151e-2,-5.865314989138305e-2 0.11875452570601015 -5.865314989138305e-2c 2.534395365677046e-2,0.0 4.7791455467052865e-2,8.689355539464157e-3 6.010137581462709e-2 2.4619840695148443e-2c 1.66545981173063e-2,2.2447501810282402e-2 1.9551049963794354e-2,5.7204923968139025e-2 1.9551049963794354e-2 9.703113685734974e-2v 0.10789283128167994 c 0.0,5.937726285300506e-2 7.965242577842145e-3,6.227371469949312e-2 4.8515568428674875e-2 6.589427950760318e-2c 3.6205648081100656e-3,4.344677769732078e-3 3.6205648081100656e-3,1.955104996379435e-2 0.0 2.389572773352643e-2c -2.172338884866039e-2,-7.24112961622013e-4 -4.7791455467052865e-2,-1.448225923244026e-3 -7.675597393193338e-2 -1.448225923244026e-3c -2.8964518464880525e-2,0.0 -5.213613323678494e-2,7.24112961622013e-4 -7.385952208544534e-2 1.448225923244026e-3c -3.6205648081100656e-3,-4.344677769732078e-3 -3.6205648081100656e-3,-1.955104996379435e-2 0.0 -2.389572773352643e-2c 3.765387400434468e-2,-3.6205648081100647e-3 4.489500362056481e-2,-6.517016654598117e-3 4.489500362056481e-2 -6.589427950760318e-2v -0.11006517016654598 c 0.0,-2.1723388848660388e-2 -1.4482259232440262e-3,-4.127443881245474e-2 -8.689355539464157e-3 -5.5756698044895e-2c -8.689355539464157e-3,-1.66545981173063e-2 -2.3895727733526433e-2,-2.6068066618392467e-2 -3.837798696596669e-2 -2.6068066618392467e-2c -2.824040550325851e-2,0.0 -6.08254887762491e-2,1.5930485155684286e-2 -8.83417813178856e-2 4.2722664735698766e-2c -5.792903692976105e-3,6.517016654598117e-3 -1.2309920347574223e-2,1.5206372194062272e-2 -1.2309920347574223e-2 3.0412744388124545e-2v 0.11875452570601013 c 0.0,5.937726285300506e-2 7.241129616220131e-3,6.227371469949312e-2 4.41708906589428e-2 6.589427950760318e-2c 4.344677769732078e-3,4.344677769732078e-3 4.344677769732078e-3,1.955104996379435e-2 0.0 2.389572773352643e-2c -2.172338884866039e-2,-7.24112961622013e-4 -4.344677769732078e-2,-1.448225923244026e-3 -7.241129616220131e-2 -1.448225923244026e-3c -2.8964518464880525e-2,0.0 -5.792903692976105e-2,7.24112961622013e-4 -7.965242577842144e-2 1.448225923244026e-3c -4.344677769732078e-3,-4.344677769732078e-3 -4.344677769732078e-3,-1.955104996379435e-2 0.0 -2.389572773352643e-2c 4.344677769732078e-2,-3.6205648081100647e-3 5.068790731354092e-2,-6.517016654598117e-3 5.068790731354092e-2 -6.589427950760318e-2v -0.14120202751629254 c 0.0,-4.1998551774076756e-2 -7.965242577842145e-3,-4.561911658218682e-2 -4.706734250543085e-2 -4.9239681390296886e-2c -1.4482259232440262e-3,-4.344677769732078e-3 -2.8964518464880524e-3,-1.5930485155684286e-2 -1.4482259232440262e-3 -2.0275162925416364e-2c 4.99637943519189e-2,-6.517016654598117e-3 6.879073135409125e-2,-1.3034033309196233e-2 8.90658942795076e-2 -2.0999275887038378e-2c 5.792903692976105e-3,0.0 7.168711078928314e-3,2.461976828385228e-3 8.689355539464157e-3 5.792903692976104e-3c 3.4033309196234616e-3,7.458363504706734e-3 5.068790731354092e-3,3.548153511947864e-2 5.792903692976105e-3 5.503258508327299e-2c 2.1723606082548882e-4,6.806654598117306e-3 4.272259232440261e-3,5.068790731354091e-3 8.689355539464157e-3 0.0l -3.469446951953614e-17,2.7755575615628914e-17 ZM 1.2251991310644474,1.3146270818247647 ZM 1.259956553222304,1.214699493120927 c 4.344677769732078e-3,-4.344677769732078e-3 1.8102824040550327e-2,-5.068790731354091e-3 2.2447501810282405e-2 -7.24112961622013e-4c 4.344677769732078e-3,1.8102824040550324e-2 1.2309920347574223e-2,4.9963794351918896e-2 2.824040550325851e-2 6.66183924692252e-2c 7.458363504706736e-3,7.748008689355539e-3 2.317161477190442e-2,1.7378711078928313e-2 5.141202027516293e-2 1.7378711078928313e-2c 2.6792179580014484e-2,0.0 6.1549601737871114e-2,-1.5206372194062272e-2 6.1549601737871114e-2 -5.0687907313540906e-2c 0.0,-3.113685734974656e-2 -1.3758146270818249e-2,-4.634322954380883e-2 -7.385952208544534e-2 -7.096307023895727e-2c -5.5756698044895005e-2,-2.3171614771904415e-2 -7.965242577842144e-2,-4.561911658218682e-2 -7.965242577842144e-2 -9.847936278059377e-2c 0.0,-4.634322954380883e-2 4.8515568428674875e-2,-8.110065170166546e-2 0.10209992758870384 -8.110065170166546e-2c 3.765387400434468e-2,0.0 7.241129616220131e-2,1.0137581462708182e-2 9.485879797248371e-2 1.3758146270818247e-2c -7.241129616220131e-4,2.389572773352643e-2 -2.172338884866039e-3,5.0687907313540906e-2 -4.344677769732078e-3 7.675597393193338e-2c -4.344677769732078e-3,4.344677769732078e-3 -1.882693700217234e-2,5.068790731354091e-3 -2.317161477190442e-2 7.24112961622013e-4c -9.41346850108617e-3,-6.154960173787111e-2 -5.141202027516293e-2,-6.73425054308472e-2 -6.734250543084722e-2 -6.73425054308472e-2c -2.4619840695148446e-2,0.0 -5.068790731354092e-2,1.66545981173063e-2 -5.068790731354092e-2 4.634322954380883e-2c 0.0,3.982621288921071e-2 2.881969587255612e-2,5.1049963794351914e-2 7.241129616220131e-2 6.71976828385228e-2c 4.923968139029689e-2,1.8247646632874728e-2 8.472121650977553e-2,4.699493120926865e-2 8.472121650977553e-2 9.645184648805212e-2c 0.0,7.168718320057929e-2 -7.458363504706735e-2,9.123823316437364e-2 -0.11513396089790008 9.123823316437364e-2c -2.6792179580014484e-2,0.0 -4.634322954380884e-2,-2.896451846488052e-3 -6.58942795076032e-2 -7.965242577842143e-3c -5.068790731354092e-3,-1.448225923244026e-3 -9.41346850108617e-3,-1.448225923244026e-3 -1.4482259232440262e-2 -1.448225923244026e-3c -3.6205648081100656e-3,0.0 -1.0861694424330196e-2,7.24112961622013e-4 -1.8102824040550327e-2 2.172338884866039e-3c 0.0,-3.0412744388124545e-2 -2.172338884866039e-3,-6.444605358435916e-2 -5.068790731354092e-3 -9.992758870383779e-2l 4.163336342344337e-17,-1.3877787807814457e-17 ZM 1.5076031860970327,1.3146270818247647 ZM 1.538740043446779,1.0039826212889211 l 3.33091962346126e-2,-7.241564083997103e-5 c 0.0,-8.030412744388124e-2 -2.172338884866039e-3,-7.552498189717595e-2 -2.172338884866039e-3 -8.392469225199131e-2c 0.0,-4.996393917451122e-3 7.241129616220131e-3,-7.458363504706734e-3 1.593048515568429e-2 -9.920347574221578e-3c 9.051412020275163e-3,-2.5343953656770456e-3 1.6437364228819695e-2,-5.648073859522085e-3 2.4619840695148446e-2 -1.0209992758870383e-2c 6.734250543084722e-3,-3.693005068790731e-3 1.2889210716871834e-2,-6.517016654598117e-3 1.6147719044170894e-2 -6.517016654598117e-3c 3.4033309196234616e-3,0.0 5.575669804489501e-3,1.7378421433743663e-3 5.575669804489501e-3 6.372186821144097e-3c 0.0,0.0 -2.8964518464880524e-3,2.8964518464880518e-2 -2.8964518464880524e-3 7.603186097031137e-2v 2.8240405503258507e-2 h 8.689355539464157e-2 c 3.6205648081100656e-3,0.0 5.792903692976105e-3,1.448225923244026e-3 5.792903692976105e-3 4.344677769732078e-3v 1.4482259232440259e-2 c 0.0,6.517016654598117e-3 -1.0137581462708184e-2,9.413468501086169e-3 -1.7378711078928313e-2 9.413468501086169e-3h -7.530774800868936e-2 v 0.1832005792903693 c 0.0,4.4895003620564804e-2 4.344677769732078e-3,6.66183924692252e-2 2.3895727733526433e-2 6.66183924692252e-2c 1.882693700217234e-2,0.0 4.0550325850832736e-2,-5.792903692976104e-3 5.9377262853005076e-2 -2.0275162925416364e-2c 7.241129616220131e-3,7.24112961622013e-4 1.158580738595221e-2,4.8515568428674875e-3 1.3034033309196235e-2 1.2309920347574221e-2c -2.824040550325851e-2,3.186097031136857e-2 -6.444605358435916e-2,4.779145546705286e-2 -9.775524981897177e-2 4.779145546705286e-2c -3.33091962346126e-2,0.0 -5.5756698044895005e-2,-2.0275162925416364e-2 -5.5756698044895005e-2 -7.168718320057929e-2v -0.2179580014482259 h -4.272266473569877e-2 c -2.8964518464880524e-3,0.0 -3.6205648081100656e-3,-7.24112961622013e-4 -3.6205648081100656e-3 -4.344677769732078e-3v -9.413468501086169e-3 c 0.0,-5.792903692976104e-3 2.8964518464880524e-3,-1.4482259232440259e-2 1.3034033309196235e-2 -1.4482259232440259e-2l -2.42861286636753e-17,1.158580739679671e-8 ZM 1.7364228819695888,1.3146270818247647 ZM 1.9485879797248387,1.1459087617668358 l -5.720492396813903e-2,1.5206372194062272e-2 c -5.358435916002897e-2,1.3758146270818247e-2 -6.879073135409125e-2,4.706734250543084e-2 -6.879073135409125e-2 7.965242577842142e-2c 0.0,2.2447501810282402e-2 1.593048515568429e-2,5.141202027516292e-2 5.213613323678494e-2 5.141202027516292e-2c 2.0275162925416368e-2,0.0 4.489500362056481e-2,-1.66545981173063e-2 6.372194062273716e-2 -3.186097031136857e-2c 5.792903692976105e-3,-4.344677769732078e-3 1.0137581462708184e-2,-9.413468501086169e-3 1.0137581462708184e-2 -1.8826937002172337e-2v -9.558291093410572e-2 h -0.0 ZM 1.9485879797248387,1.1459087617668358 ZM 1.9485879797248387,1.279869659666908 h -1.4482259232440262e-3 l -1.4482259232440262e-2,1.1585807385952208e-2 c -3.186097031136858e-2,2.4619840695148443e-2 -5.3729181752353375e-2,3.0412744388124545e-2 -7.892831281679942e-2 3.0412744388124545e-2c -5.068790731354092e-2,0.0 -9.123823316437366e-2,-1.8826937002172337e-2 -9.123823316437366e-2 -7.82041998551774e-2c 0.0,-4.9239681390296886e-2 4.99637943519189e-2,-8.761766835626357e-2 0.11947863866763216 -0.10499637943519188l 6.2273714699493124e-2,-1.5206372194062272e-2 c 2.172338884866039e-3,-7.24112961622013e-4 4.344677769732078e-3,-3.6205648081100647e-3 4.344677769732078e-3 -8.689355539464157e-3c 0.0,-8.182476466328746e-2 -3.403330919623462e-2,-9.413468501086168e-2 -5.865314989138306e-2 -9.413468501086168e-2c -2.7516292541636497e-2,0.0 -5.792903692976105e-2,7.965242577842143e-3 -5.792903692976105e-2 3.0412744388124545e-2c 0.0,7.965242577842143e-3 7.241129616220131e-4,1.2309920347574221e-2 1.4482259232440262e-3 1.4482259232440259e-2c 1.4482259232440262e-3,2.896451846488052e-3 2.172338884866039e-3,7.965242577842143e-3 2.172338884866039e-3 1.3034033309196233e-2c 0.0,9.413468501086169e-3 -1.3034033309196235e-2,2.4619840695148443e-2 -3.403330919623462e-2 2.4619840695148443e-2c -1.66545981173063e-2,0.0 -2.534395365677046e-2,-8.689355539464157e-3 -2.534395365677046e-2 -2.6068066618392467e-2c 0.0,-4.127443881245474e-2 6.010137581462709e-2,-8.037653874004344e-2 0.11947863866763216 -8.037653874004344e-2c 5.286024619840696e-2,0.0 0.10934105720492397,1.955104996379435e-2 0.10934105720492397 0.1223750905141202v 0.1064446053584359 c 0.0,3.33091962346126e-2 7.241129616220131e-4,6.154960173787111e-2 2.172338884866039e-2 6.154960173787111e-2c 9.196234612599566e-3,0.0 2.1361332367849387e-2,-7.096307023895728e-3 2.6792179580014484e-2 -1.1585807385952208e-2c 8.18247646632875e-3,4.561911658218682e-3 1.10789283128168e-2,1.064446053584359e-2 1.2309920347574223e-2 1.955104996379435e-2c -1.498913830557567e-2,1.4482259232440259e-2 -4.1057204923968145e-2,2.679217958001448e-2 -6.879073135409125e-2 2.679217958001448e-2c -3.649529326574946e-2,0.0 -4.41708906589428e-2,-1.955104996379435e-2 -4.8515568428674875e-2 -4.1998551774076756e-2l 7.632783294297951e-17,5.551115123125783e-17 ZM 2.0673425054308487,1.3146270818247647 ZM 2.200579290369299,1.055394641564084 c 4.2939898624185374e-2,-4.9239681390296886e-2 8.327299058653151e-2,-5.865314989138305e-2 0.11875452570601015 -5.865314989138305e-2c 2.534395365677046e-2,0.0 4.7791455467052865e-2,8.689355539464157e-3 6.010137581462709e-2 2.4619840695148443e-2c 1.66545981173063e-2,2.2447501810282402e-2 1.9551049963794354e-2,5.7204923968139025e-2 1.9551049963794354e-2 9.703113685734974e-2v 0.10789283128167994 c 0.0,5.937726285300506e-2 7.965242577842145e-3,6.227371469949312e-2 4.8515568428674875e-2 6.589427950760318e-2c 3.6205648081100656e-3,4.344677769732078e-3 3.6205648081100656e-3,1.955104996379435e-2 0.0 2.389572773352643e-2c -2.172338884866039e-2,-7.24112961622013e-4 -4.7791455467052865e-2,-1.448225923244026e-3 -7.675597393193338e-2 -1.448225923244026e-3c -2.8964518464880525e-2,0.0 -5.213613323678494e-2,7.24112961622013e-4 -7.385952208544534e-2 1.448225923244026e-3c -3.6205648081100656e-3,-4.344677769732078e-3 -3.6205648081100656e-3,-1.955104996379435e-2 0.0 -2.389572773352643e-2c 3.765387400434468e-2,-3.6205648081100647e-3 4.489500362056481e-2,-6.517016654598117e-3 4.489500362056481e-2 -6.589427950760318e-2v -0.11006517016654598 c 0.0,-2.1723388848660388e-2 -1.4482259232440262e-3,-4.127443881245474e-2 -8.689355539464157e-3 -5.5756698044895e-2c -8.689355539464157e-3,-1.66545981173063e-2 -2.3895727733526433e-2,-2.6068066618392467e-2 -3.837798696596669e-2 -2.6068066618392467e-2c -2.824040550325851e-2,0.0 -6.08254887762491e-2,1.5930485155684286e-2 -8.83417813178856e-2 4.2722664735698766e-2c -5.792903692976105e-3,6.517016654598117e-3 -1.2309920347574223e-2,1.5206372194062272e-2 -1.2309920347574223e-2 3.0412744388124545e-2v 0.11875452570601013 c 0.0,5.937726285300506e-2 7.241129616220131e-3,6.227371469949312e-2 4.41708906589428e-2 6.589427950760318e-2c 4.344677769732078e-3,4.344677769732078e-3 4.344677769732078e-3,1.955104996379435e-2 0.0 2.389572773352643e-2c -2.172338884866039e-2,-7.24112961622013e-4 -4.344677769732078e-2,-1.448225923244026e-3 -7.241129616220131e-2 -1.448225923244026e-3c -2.8964518464880525e-2,0.0 -5.792903692976105e-2,7.24112961622013e-4 -7.965242577842144e-2 1.448225923244026e-3c -4.344677769732078e-3,-4.344677769732078e-3 -4.344677769732078e-3,-1.955104996379435e-2 0.0 -2.389572773352643e-2c 4.344677769732078e-2,-3.6205648081100647e-3 5.068790731354092e-2,-6.517016654598117e-3 5.068790731354092e-2 -6.589427950760318e-2v -0.14120202751629254 c 0.0,-4.1998551774076756e-2 -7.965242577842145e-3,-4.561911658218682e-2 -4.706734250543085e-2 -4.9239681390296886e-2c -1.4482259232440262e-3,-4.344677769732078e-3 -2.8964518464880524e-3,-1.5930485155684286e-2 -1.4482259232440262e-3 -2.0275162925416364e-2c 4.99637943519189e-2,-6.517016654598117e-3 6.879073135409125e-2,-1.3034033309196233e-2 8.90658942795076e-2 -2.0999275887038378e-2c 5.792903692976105e-3,0.0 7.168711078928314e-3,2.461976828385228e-3 8.689355539464157e-3 5.792903692976104e-3c 3.4033309196234616e-3,7.458363504706734e-3 5.068790731354092e-3,3.548153511947864e-2 5.792903692976105e-3 5.503258508327299e-2c 2.1723606082548882e-4,6.806654598117306e-3 4.272259232440261e-3,5.068790731354091e-3 8.689355539464157e-3 0.0l -3.469446951953614e-17,2.7755575615628914e-17 ZM 2.45981173062998,1.3146270818247647 ZM 2.490948587979726,1.0039826212889211 l 3.33091962346126e-2,-7.241564083997103e-5 c 0.0,-8.030412744388124e-2 -2.172338884866039e-3,-7.552498189717595e-2 -2.172338884866039e-3 -8.392469225199131e-2c 0.0,-4.996393917451122e-3 7.241129616220131e-3,-7.458363504706734e-3 1.593048515568429e-2 -9.920347574221578e-3c 9.051412020275163e-3,-2.5343953656770456e-3 1.6437364228819695e-2,-5.648073859522085e-3 2.4619840695148446e-2 -1.0209992758870383e-2c 6.734250543084722e-3,-3.693005068790731e-3 1.2889210716871834e-2,-6.517016654598117e-3 1.6147719044170894e-2 -6.517016654598117e-3c 3.4033309196234616e-3,0.0 5.575669804489501e-3,1.7378421433743663e-3 5.575669804489501e-3 6.372186821144097e-3c 0.0,0.0 -2.8964518464880524e-3,2.8964518464880518e-2 -2.8964518464880524e-3 7.603186097031137e-2v 2.8240405503258507e-2 h 8.689355539464157e-2 c 3.6205648081100656e-3,0.0 5.792903692976105e-3,1.448225923244026e-3 5.792903692976105e-3 4.344677769732078e-3v 1.4482259232440259e-2 c 0.0,6.517016654598117e-3 -1.0137581462708184e-2,9.413468501086169e-3 -1.7378711078928313e-2 9.413468501086169e-3h -7.530774800868936e-2 v 0.1832005792903693 c 0.0,4.4895003620564804e-2 4.344677769732078e-3,6.66183924692252e-2 2.3895727733526433e-2 6.66183924692252e-2c 1.882693700217234e-2,0.0 4.0550325850832736e-2,-5.792903692976104e-3 5.9377262853005076e-2 -2.0275162925416364e-2c 7.241129616220131e-3,7.24112961622013e-4 1.158580738595221e-2,4.8515568428674875e-3 1.3034033309196235e-2 1.2309920347574221e-2c -2.824040550325851e-2,3.186097031136857e-2 -6.444605358435916e-2,4.779145546705286e-2 -9.775524981897177e-2 4.779145546705286e-2c -3.33091962346126e-2,0.0 -5.5756698044895005e-2,-2.0275162925416364e-2 -5.5756698044895005e-2 -7.168718320057929e-2v -0.2179580014482259 h -4.272266473569877e-2 c -2.8964518464880524e-3,0.0 -3.6205648081100656e-3,-7.24112961622013e-4 -3.6205648081100656e-3 -4.344677769732078e-3v -9.413468501086169e-3 c 0.0,-5.792903692976104e-3 2.8964518464880524e-3,-1.4482259232440259e-2 1.3034033309196235e-2 -1.4482259232440259e-2l -2.42861286636753e-17,1.158580739679671e-8 ZM 2.8696596669080394,1.3146270818247647 ZM 2.9963794351918915,1.2262853005068792 c 0.0,6.010137581462708e-2 4.344677769732078e-3,6.299782766111513e-2 6.08254887762491e-2 6.589427950760318e-2c 4.344677769732078e-3,4.344677769732078e-3 4.344677769732078e-3,1.955104996379435e-2 0.0 2.389572773352643e-2c -2.534395365677046e-2,-7.24112961622013e-4 -6.010137581462709e-2,-1.448225923244026e-3 -8.90658942795076e-2 -1.448225923244026e-3c -2.8964518464880525e-2,0.0 -5.4308472121650984e-2,7.24112961622013e-4 -7.965242577842144e-2 1.448225923244026e-3c -4.344677769732078e-3,-4.344677769732078e-3 -4.344677769732078e-3,-1.955104996379435e-2 0.0 -2.389572773352643e-2c 3.910209992758871e-2,-2.896451846488052e-3 5.068790731354092e-2,-5.792903692976104e-3 5.068790731354092e-2 -6.589427950760318e-2v -0.19406227371469947 h -4.99637943519189e-2 c -2.8964518464880524e-3,0.0 -3.6205648081100656e-3,-7.24112961622013e-4 -3.6205648081100656e-3 -4.344677769732078e-3v -9.413468501086169e-3 c 0.0,-5.792903692976104e-3 3.6205648081100656e-3,-1.4482259232440259e-2 1.66545981173063e-2 -1.4482259232440259e-2h 3.692976104272267e-2 v -2.8964518464880518e-2 c 0.0,-0.11296162201303403 6.734250543084722e-2,-0.165821868211441 0.12816799420709632 -0.165821868211441c 2.7516292541636497e-2,0.0 4.634322954380884e-2,2.172338884866039e-3 6.517016654598118e-2 1.5206372194062272e-2c 1.5206372194062274e-2,1.1585807385952208e-2 2.317161477190442e-2,2.4619840695148443e-2 2.317161477190442e-2 3.6929761042722664e-2c 0.0,1.4482259232440259e-2 -1.7378711078928313e-2,2.968863142650253e-2 -2.9688631426502538e-2 2.968863142650253e-2c -1.5206372194062274e-2,0.0 -2.317161477190442e-2,-1.0137581462708182e-2 -2.8964518464880525e-2 -2.3171614771904415e-2c -1.0137581462708184e-2,-2.5343953656770453e-2 -2.172338884866039e-2,-3.403330919623461e-2 -4.344677769732078e-2 -3.403330919623461e-2c -2.3895727733526433e-2,0.0 -5.720492396813903e-2,1.7378711078928313e-2 -5.720492396813903e-2 0.12889210716871832v 4.127443881245474e-2 h 7.820419985517742e-2 c 3.6205648081100656e-3,0.0 5.792903692976105e-3,1.448225923244026e-3 5.792903692976105e-3 4.344677769732078e-3v 1.4482259232440259e-2 c 0.0,6.517016654598117e-3 -1.0137581462708184e-2,9.413468501086169e-3 -1.66545981173063e-2 9.413468501086169e-3h -6.734250543084722e-2 v 0.19406227371469947 l -6.938893903907228e-18,5.551115123125783e-17 ZM 3.094134685010863,1.3146270818247647 ZM 3.123823316437366,1.166183924692252 c 0.0,-4.576393917451122e-2 1.3758146270818249e-2,-8.790731354091239e-2 4.004344677769732e-2 -0.11875452570601013c 2.650253439536568e-2,-3.113685734974656e-2 6.5821868211441e-2,-5.0687907313540906e-2 0.11346850108616945 -5.0687907313540906e-2c 0.110789283128168,0.0 0.15206372194062276,8.761766835626357e-2 0.15206372194062276 0.16292541636495292c 0.0,4.4388124547429395e-2 -1.4699493120926867e-2,8.993482983345401e-2 -4.713975380159305e-2 0.12165097755249818c -2.4692251991310647e-2,2.411296162201303e-2 -5.973931933381608e-2,4.055032585083273e-2 -0.10637219406227373 4.055032585083273e-2c -0.10282404055032586,0.0 -0.15206372194062276,-8.182476466328746e-2 -0.15206372194062276 -0.1556842867487328h 2.7755575615628914e-17 ZM 3.123823316437366,1.166183924692252 ZM 3.2664735698769025,1.0220854453294714 c -6.517016654598118e-2,0.0 -8.037653874004345e-2,6.444605358435916e-2 -8.037653874004345e-2 0.1274438812454743c 0.0,5.5756698044895e-2 2.4619840695148446e-2,0.14699493120926863 9.99275887038378e-2 0.14699493120926863c 3.403330919623462e-2,0.0 8.110065170166547e-2,-2.2447501810282402e-2 8.110065170166547e-2 -0.11368573497465603c 0.0,-0.10427226647356987 -3.837798696596669e-2,-0.16075307748008688 -0.10065170166545982 -0.16075307748008688v 2.7755575615628914e-17 ZM 3.459087617668358,1.3146270818247647 ZM 3.5923244026068084,1.055394641564084 c 4.2939898624185374e-2,-4.9239681390296886e-2 8.327299058653151e-2,-5.865314989138305e-2 0.11875452570601015 -5.865314989138305e-2c 2.534395365677046e-2,0.0 4.7791455467052865e-2,8.689355539464157e-3 6.010137581462709e-2 2.4619840695148443e-2c 1.66545981173063e-2,2.2447501810282402e-2 1.9551049963794354e-2,5.7204923968139025e-2 1.9551049963794354e-2 9.703113685734974e-2v 0.10789283128167994 c 0.0,5.937726285300506e-2 7.965242577842145e-3,6.227371469949312e-2 4.8515568428674875e-2 6.589427950760318e-2c 3.6205648081100656e-3,4.344677769732078e-3 3.6205648081100656e-3,1.955104996379435e-2 0.0 2.389572773352643e-2c -2.172338884866039e-2,-7.24112961622013e-4 -4.7791455467052865e-2,-1.448225923244026e-3 -7.675597393193338e-2 -1.448225923244026e-3c -2.8964518464880525e-2,0.0 -5.213613323678494e-2,7.24112961622013e-4 -7.385952208544534e-2 1.448225923244026e-3c -3.6205648081100656e-3,-4.344677769732078e-3 -3.6205648081100656e-3,-1.955104996379435e-2 0.0 -2.389572773352643e-2c 3.765387400434468e-2,-3.6205648081100647e-3 4.489500362056481e-2,-6.517016654598117e-3 4.489500362056481e-2 -6.589427950760318e-2v -0.11006517016654598 c 0.0,-2.1723388848660388e-2 -1.4482259232440262e-3,-4.127443881245474e-2 -8.689355539464157e-3 -5.5756698044895e-2c -8.689355539464157e-3,-1.66545981173063e-2 -2.3895727733526433e-2,-2.6068066618392467e-2 -3.837798696596669e-2 -2.6068066618392467e-2c -2.824040550325851e-2,0.0 -6.08254887762491e-2,1.5930485155684286e-2 -8.83417813178856e-2 4.2722664735698766e-2c -5.792903692976105e-3,6.517016654598117e-3 -1.2309920347574223e-2,1.5206372194062272e-2 -1.2309920347574223e-2 3.0412744388124545e-2v 0.11875452570601013 c 0.0,5.937726285300506e-2 7.241129616220131e-3,6.227371469949312e-2 4.41708906589428e-2 6.589427950760318e-2c 4.344677769732078e-3,4.344677769732078e-3 4.344677769732078e-3,1.955104996379435e-2 0.0 2.389572773352643e-2c -2.172338884866039e-2,-7.24112961622013e-4 -4.344677769732078e-2,-1.448225923244026e-3 -7.241129616220131e-2 -1.448225923244026e-3c -2.8964518464880525e-2,0.0 -5.792903692976105e-2,7.24112961622013e-4 -7.965242577842144e-2 1.448225923244026e-3c -4.344677769732078e-3,-4.344677769732078e-3 -4.344677769732078e-3,-1.955104996379435e-2 0.0 -2.389572773352643e-2c 4.344677769732078e-2,-3.6205648081100647e-3 5.068790731354092e-2,-6.517016654598117e-3 5.068790731354092e-2 -6.589427950760318e-2v -0.14120202751629254 c 0.0,-4.1998551774076756e-2 -7.965242577842145e-3,-4.561911658218682e-2 -4.706734250543085e-2 -4.9239681390296886e-2c -1.4482259232440262e-3,-4.344677769732078e-3 -2.8964518464880524e-3,-1.5930485155684286e-2 -1.4482259232440262e-3 -2.0275162925416364e-2c 4.99637943519189e-2,-6.517016654598117e-3 6.879073135409125e-2,-1.3034033309196233e-2 8.90658942795076e-2 -2.0999275887038378e-2c 5.792903692976105e-3,0.0 7.168711078928314e-3,2.461976828385228e-3 8.689355539464157e-3 5.792903692976104e-3c 3.4033309196234616e-3,7.458363504706734e-3 5.068790731354092e-3,3.548153511947864e-2 5.792903692976105e-3 5.503258508327299e-2c 2.1723606082548882e-4,6.806654598117306e-3 4.272259232440261e-3,5.068790731354091e-3 8.689355539464157e-3 0.0l -3.469446951953614e-17,2.7755575615628914e-17 ZM 3.851556842867489,1.3146270818247647 ZM 3.8826937002172355,1.0039826212889211 l 3.33091962346126e-2,-7.241564083997103e-5 c 0.0,-8.030412744388124e-2 -2.172338884866039e-3,-7.552498189717595e-2 -2.172338884866039e-3 -8.392469225199131e-2c 0.0,-4.996393917451122e-3 7.241129616220131e-3,-7.458363504706734e-3 1.593048515568429e-2 -9.920347574221578e-3c 9.051412020275163e-3,-2.5343953656770456e-3 1.6437364228819695e-2,-5.648073859522085e-3 2.4619840695148446e-2 -1.0209992758870383e-2c 6.734250543084722e-3,-3.693005068790731e-3 1.2889210716871834e-2,-6.517016654598117e-3 1.6147719044170894e-2 -6.517016654598117e-3c 3.4033309196234616e-3,0.0 5.575669804489501e-3,1.7378421433743663e-3 5.575669804489501e-3 6.372186821144097e-3c 0.0,0.0 -2.8964518464880524e-3,2.8964518464880518e-2 -2.8964518464880524e-3 7.603186097031137e-2v 2.8240405503258507e-2 h 8.689355539464157e-2 c 3.6205648081100656e-3,0.0 5.792903692976105e-3,1.448225923244026e-3 5.792903692976105e-3 4.344677769732078e-3v 1.4482259232440259e-2 c 0.0,6.517016654598117e-3 -1.0137581462708184e-2,9.413468501086169e-3 -1.7378711078928313e-2 9.413468501086169e-3h -7.530774800868936e-2 v 0.1832005792903693 c 0.0,4.4895003620564804e-2 4.344677769732078e-3,6.66183924692252e-2 2.3895727733526433e-2 6.66183924692252e-2c 1.882693700217234e-2,0.0 4.0550325850832736e-2,-5.792903692976104e-3 5.9377262853005076e-2 -2.0275162925416364e-2c 7.241129616220131e-3,7.24112961622013e-4 1.158580738595221e-2,4.8515568428674875e-3 1.3034033309196235e-2 1.2309920347574221e-2c -2.824040550325851e-2,3.186097031136857e-2 -6.444605358435916e-2,4.779145546705286e-2 -9.775524981897177e-2 4.779145546705286e-2c -3.33091962346126e-2,0.0 -5.5756698044895005e-2,-2.0275162925416364e-2 -5.5756698044895005e-2 -7.168718320057929e-2v -0.2179580014482259 h -4.272266473569877e-2 c -2.8964518464880524e-3,0.0 -3.6205648081100656e-3,-7.24112961622013e-4 -3.6205648081100656e-3 -4.344677769732078e-3v -9.413468501086169e-3 c 0.0,-5.792903692976104e-3 2.8964518464880524e-3,-1.4482259232440259e-2 1.3034033309196235e-2 -1.4482259232440259e-2l -2.42861286636753e-17,1.158580739679671e-8 ZM 4.261404779145549,1.3146270818247647 ZM 4.296162201303405,1.214699493120927 c 4.344677769732078e-3,-4.344677769732078e-3 1.8102824040550327e-2,-5.068790731354091e-3 2.2447501810282405e-2 -7.24112961622013e-4c 4.344677769732078e-3,1.8102824040550324e-2 1.2309920347574223e-2,4.9963794351918896e-2 2.824040550325851e-2 6.66183924692252e-2c 7.458363504706736e-3,7.748008689355539e-3 2.317161477190442e-2,1.7378711078928313e-2 5.141202027516293e-2 1.7378711078928313e-2c 2.6792179580014484e-2,0.0 6.1549601737871114e-2,-1.5206372194062272e-2 6.1549601737871114e-2 -5.0687907313540906e-2c 0.0,-3.113685734974656e-2 -1.3758146270818249e-2,-4.634322954380883e-2 -7.385952208544534e-2 -7.096307023895727e-2c -5.5756698044895005e-2,-2.3171614771904415e-2 -7.965242577842144e-2,-4.561911658218682e-2 -7.965242577842144e-2 -9.847936278059377e-2c 0.0,-4.634322954380883e-2 4.8515568428674875e-2,-8.110065170166546e-2 0.10209992758870384 -8.110065170166546e-2c 3.765387400434468e-2,0.0 7.241129616220131e-2,1.0137581462708182e-2 9.485879797248371e-2 1.3758146270818247e-2c -7.241129616220131e-4,2.389572773352643e-2 -2.172338884866039e-3,5.0687907313540906e-2 -4.344677769732078e-3 7.675597393193338e-2c -4.344677769732078e-3,4.344677769732078e-3 -1.882693700217234e-2,5.068790731354091e-3 -2.317161477190442e-2 7.24112961622013e-4c -9.41346850108617e-3,-6.154960173787111e-2 -5.141202027516293e-2,-6.73425054308472e-2 -6.734250543084722e-2 -6.73425054308472e-2c -2.4619840695148446e-2,0.0 -5.068790731354092e-2,1.66545981173063e-2 -5.068790731354092e-2 4.634322954380883e-2c 0.0,3.982621288921071e-2 2.881969587255612e-2,5.1049963794351914e-2 7.241129616220131e-2 6.71976828385228e-2c 4.923968139029689e-2,1.8247646632874728e-2 8.472121650977553e-2,4.699493120926865e-2 8.472121650977553e-2 9.645184648805212e-2c 0.0,7.168718320057929e-2 -7.458363504706735e-2,9.123823316437364e-2 -0.11513396089790008 9.123823316437364e-2c -2.6792179580014484e-2,0.0 -4.634322954380884e-2,-2.896451846488052e-3 -6.58942795076032e-2 -7.965242577842143e-3c -5.068790731354092e-3,-1.448225923244026e-3 -9.41346850108617e-3,-1.448225923244026e-3 -1.4482259232440262e-2 -1.448225923244026e-3c -3.6205648081100656e-3,0.0 -1.0861694424330196e-2,7.24112961622013e-4 -1.8102824040550327e-2 2.172338884866039e-3c 0.0,-3.0412744388124545e-2 -2.172338884866039e-3,-6.444605358435916e-2 -5.068790731354092e-3 -9.992758870383779e-2l 4.163336342344337e-17,-1.3877787807814457e-17 ZM 4.543808834178133,1.3146270818247647 ZM 4.608979000724114,0.8808834178131789 c 0.0,-1.7378711078928313e-2 2.0275162925416368e-2,-3.475742215785663e-2 3.765387400434468e-2 -3.475742215785663e-2c 1.9551049963794354e-2,0.0 3.475742215785663e-2,2.0275162925416364e-2 3.475742215785663e-2 3.7653874004344674e-2c 0.0,1.5278783490224475e-2 -1.7378711078928313e-2,3.475742215785663e-2 -3.765387400434468e-2 3.475742215785663e-2c -1.7378711078928313e-2,0.0 -3.475742215785663e-2,-1.8826937002172337e-2 -3.475742215785663e-2 -3.7653874004344674e-2h -0.0 ZM 4.608979000724114,0.8808834178131789 ZM 4.6748732802317186,1.2262853005068792 c 0.0,6.010137581462708e-2 7.965242577842145e-3,6.299782766111513e-2 5.213613323678494e-2 6.589427950760318e-2c 4.344677769732078e-3,4.344677769732078e-3 4.344677769732078e-3,1.955104996379435e-2 0.0 2.389572773352643e-2c -2.3895727733526433e-2,-7.24112961622013e-4 -5.141202027516293e-2,-1.448225923244026e-3 -8.037653874004345e-2 -1.448225923244026e-3c -2.8964518464880525e-2,0.0 -5.720492396813903e-2,7.24112961622013e-4 -8.110065170166547e-2 1.448225923244026e-3c -4.344677769732078e-3,-4.344677769732078e-3 -4.344677769732078e-3,-1.955104996379435e-2 0.0 -2.389572773352643e-2c 4.41708906589428e-2,-3.6205648081100647e-3 5.213613323678494e-2,-5.792903692976104e-3 5.213613323678494e-2 -6.589427950760318e-2v -0.14120202751629254 c 0.0,-4.127443881245474e-2 -7.603186097031137e-3,-4.5546705286024614e-2 -4.706734250543085e-2 -4.9239681390296886e-2c -1.4482259232440262e-3,-4.344677769732078e-3 -2.8964518464880524e-3,-1.5930485155684286e-2 -1.4482259232440262e-3 -2.0275162925416364e-2c 4.99637943519189e-2,-6.517016654598117e-3 7.856625633598842e-2,-1.3034033309196233e-2 9.920347574221579e-2 -2.0999275887038378e-2c 5.792903692976105e-3,0.0 9.41346850108617e-3,2.172338884866039e-3 9.41346850108617e-3 5.068790731354091e-3c 0.0,0.0 -2.8964518464880524e-3,4.634322954380883e-2 -2.8964518464880524e-3 8.233164373642288e-2v 0.14431571325126719 l 1.3877787807814457e-17,2.7755575615628914e-17 ZM 4.740043446777699,1.3146270818247647 ZM 4.791455467052861,0.996741491672701 c 1.0499637943519189e-2,3.910202751629253e-3 1.947863866763215e-2,7.241129616220129e-3 4.272266473569877e-2 7.241129616220129e-3h 0.1325126719768284 c 2.0999275887038378e-2,0.0 4.1274438812454746e-2,-1.448225923244026e-3 4.489500362056481e-2 -1.448225923244026e-3c 5.068790731354092e-3,0.0 8.689355539464157e-3,2.172338884866039e-3 8.689355539464157e-3 5.068790731354091e-3c 0.0,2.896451846488052e-3 -1.9551122375090512e-3,8.544532947139754e-3 -1.3034033309196235e-2 2.679217958001448e-2c -4.489500362056481e-2,7.385952208544533e-2 -0.12020275162925417,0.18754525706010136 -0.17378711078928313 0.2556118754525706h 9.630702389572775e-2 c 3.772628530050688e-2,-8.689355539464156e-4 5.249818971759595e-2,-1.67994207096307e-2 7.096307023895729e-2 -5.503258508327299e-2l 1.0137581462708184e-2,-2.0999275887038378e-2 c 8.689355539464157e-3,0.0 1.701665459811731e-2,1.6654598117306298e-3 2.172338884866039e-2 4.344677769732078e-3c -5.068790731354092e-3,3.620564808110065e-2 -1.4482259232440262e-2,7.385952208544533e-2 -2.317161477190442e-2 9.847936278059377e-2l -0.2259232440260681,-2.172338884866039e-3 c -1.0861694424330196e-2,0.0 -1.66545981173063e-2,-3.6205648081100647e-3 -1.66545981173063e-2 -8.689355539464157e-3c 0.0,-3.6205648081100647e-3 2.896466328747285e-4,-6.0825488776249095e-3 6.5170166545981175e-3 -1.4482259232440259e-2c 5.648081100651702e-2,-7.603186097031137e-2 0.12889210716871832,-0.18030412744388125 0.1781317885590152 -0.2628530050687907l -9.268645908761768e-2,2.172338884866039e-3 c -2.172338884866039e-2,5.068877624909486e-4 -4.41708906589428e-2,1.3034033309196233e-2 -5.865314989138306e-2 6.589427950760318e-2c -8.399710354815352e-3,1.88270094134685e-3 -1.7523533671252717e-2,5.068877624909486e-4 -2.3895727733526433e-2 -2.172338884866039e-3c 6.5170166545981175e-3,-3.548153511947864e-2 1.0137581462708184e-2,-6.082548877624909e-2 1.0861694424330196e-2 -9.341057204923968e-2c 0.0,-1.7378638667632149e-3 2.606806661839247e-3,-4.344677769732078e-3 4.344677769732078e-3 -4.344677769732078e-3l 2.42861286636753e-17,3.8163916471489756e-17 ZM 5.047067342505432,1.3146270818247647 ZM 5.1368573497465615,1.110427226647357 l 0.13106444605358436,-2.172338884866039e-3 c 7.965242577842145e-3,-1.4483128167994206e-4 1.0861694424330196e-2,-3.6205648081100647e-3 1.0861694424330196e-2 -1.0137581462708182e-2c 0.0,-6.082548877624909e-2 -3.258508327299059e-2,-7.603186097031137e-2 -6.010137581462709e-2 -7.603186097031137e-2c -1.7378711078928313e-2,0.0 -6.806661839246923e-2,6.517016654598117e-3 -8.182476466328747e-2 8.834178131788559e-2h 1.3877787807814457e-17 ZM 5.1368573497465615,1.110427226647357 ZM 5.3265749456915295,1.2472845763939175 c 8.689355539464157e-3,7.24112961622013e-4 1.3034033309196235e-2,4.344677769732078e-3 1.5206372194062274e-2 1.1585807385952208e-2c -2.8964518464880525e-2,3.7653874004344674e-2 -6.806661839246923e-2,6.299782766111513e-2 -0.12309920347574223 6.299782766111513e-2c -5.213613323678494e-2,0.0 -8.616944243301956e-2,-1.7378711078928313e-2 -0.110789283128168 -4.634322954380883e-2c -2.3895727733526433e-2,-2.7516292541636494e-2 -3.403330919623462e-2,-6.66183924692252e-2 -3.403330919623462e-2 -0.10716871832005792c 0.0,-0.11006517016654598 8.182476466328747e-2,-0.17016654598117306 0.14482259232440262 -0.17016654598117306c 0.10065170166545982,0.0 0.12237509051412021,6.517016654598116e-2 0.12237509051412021 0.12599565532223025c 0.0,7.965242577842143e-3 -5.068790731354092e-3,1.2309920347574221e-2 -1.3758146270818249e-2 1.2309920347574221e-2l -0.1926140477914555,-1.448225923244026e-3 c 0.0,4.1998551774076756e-2 8.689355539464157e-3,7.530774800868935e-2 2.317161477190442e-2 9.920347574221577e-2c 2.2447501810282405e-2,3.6929761042722664e-2 5.286024619840696e-2,5.213613323678493e-2 7.892831281679942e-2 5.213613323678493e-2c 4.1998551774076756e-2,0.0 6.299782766111514e-2,-1.1585807385952208e-2 8.979000724112962e-2 -3.91020999275887e-2v 1.3877787807814457e-17 Z" /></g></g><g><path d="M 3.000000000000001,1.5 l -3.3306690738754696e-16,-1.0 h -3.0 l -3.3306690738754696e-16,1.0 h 3.000000000000001 Z" /></g></g><g></g><g><g fill-rule="evenodd"><g fill="rgb(211,211,211)" fill-opacity="1.0" stroke-width="0.0"><path d="M 5.370745836350473,5.551115123125783e-17 l -5.962725686925988e-16,-1.0 h -5.370745836350473 l -5.962725686925988e-16,1.0 h 5.3707458363504745 Z" /></g><g stroke="rgb(0,0,255)" stroke-opacity="1.0" fill="rgb(0,0,255)" fill-opacity="1.0"><path d="M 1.3322676295501878e-15,-0.18537291817523527 ZM 0.2585083272990598,-0.17813178855901513 c -0.1556842867487328,0.0 -0.2317161477190442,-0.10586531498913829 -0.2317161477190442 -0.23171614771904414c 0.0,-7.552498189717595e-2 2.867487328023172e-2,-0.14641564083997102 7.675597393193338e-2 -0.1904417089065894c 4.272266473569877e-2,-3.91020999275887e-2 9.41346850108617e-2,-6.154960173787111e-2 0.1556842867487328 -6.154960173787111e-2c 8.90658942795076e-2,0.0 0.1216509775524982,2.8964518464880518e-2 0.15858073859522087 3.258508327299058e-2c 7.241129616220131e-3,3.982621288921071e-2 1.2309920347574223e-2,7.458363504706733e-2 1.593048515568429e-2 0.11223750905141201c -8.18247646632875e-3,4.344677769732078e-3 -1.5206372194062274e-2,6.517016654598117e-3 -2.3895727733526433e-2 3.6205648081100647e-3c -1.882693700217234e-2,-6.227371469949312e-2 -5.865314989138306e-2,-0.12165097755249818 -0.15858073859522087 -0.12165097755249818c -3.765387400434468e-2,0.0 -7.965242577842144e-2,2.0275162925416364e-2 -0.11556842867487328 6.444605358435916e-2c -2.643012309920348e-2,3.251267197682838e-2 -4.3012309920347574e-2,8.450398262128891e-2 -4.3012309920347574e-2 0.14699493120926863c 0.0,0.1057204923968139 6.763215061549603e-2,0.21578566256335988 0.16509775524981898 0.21578566256335988c 6.734250543084722e-2,0.0 0.1165821868211441,-2.2447501810282402e-2 0.16799420709630702 -7.892831281679942e-2c 7.965242577842145e-3,0.0 1.3034033309196235e-2,4.344677769732078e-3 1.66545981173063e-2 1.0861694424330194e-2c -4.923968139029689e-2,6.444605358435916e-2 -0.11368573497465606,9.775524981897175e-2 -0.18392469225199132 9.775524981897175e-2v -4.163336342344337e-17 ZM 0.46777697320782163,-0.18537291817523527 ZM 0.49746560463432443,-0.33381607530774793 c 0.0,-4.576393917451122e-2 1.3758146270818249e-2,-8.790731354091239e-2 4.004344677769732e-2 -0.11875452570601013c 2.650253439536568e-2,-3.113685734974656e-2 6.5821868211441e-2,-5.0687907313540906e-2 0.11346850108616945 -5.0687907313540906e-2c 0.110789283128168,0.0 0.15206372194062276,8.761766835626357e-2 0.15206372194062276 0.16292541636495292c 0.0,4.4388124547429395e-2 -1.4699493120926867e-2,8.993482983345401e-2 -4.713975380159305e-2 0.12165097755249818c -2.4692251991310647e-2,2.411296162201303e-2 -5.973931933381608e-2,4.055032585083273e-2 -0.10637219406227373 4.055032585083273e-2c -0.10282404055032586,0.0 -0.15206372194062276,-8.182476466328746e-2 -0.15206372194062276 -0.1556842867487328h 2.7755575615628914e-17 ZM 0.49746560463432443,-0.33381607530774793 ZM 0.6401158580738611,-0.4779145546705285 c -6.517016654598118e-2,0.0 -8.037653874004345e-2,6.444605358435916e-2 -8.037653874004345e-2 0.1274438812454743c 0.0,5.5756698044895e-2 2.4619840695148446e-2,0.14699493120926863 9.99275887038378e-2 0.14699493120926863c 3.403330919623462e-2,0.0 8.110065170166547e-2,-2.2447501810282402e-2 8.110065170166547e-2 -0.11368573497465603c 0.0,-0.10427226647356987 -3.837798696596669e-2,-0.16075307748008688 -0.10065170166545982 -0.16075307748008688v 2.7755575615628914e-17 ZM 0.8327299058653164,-0.18537291817523527 ZM 0.965966690803767,-0.4446053584359159 c 4.2939898624185374e-2,-4.9239681390296886e-2 8.327299058653151e-2,-5.865314989138305e-2 0.11875452570601015 -5.865314989138305e-2c 2.534395365677046e-2,0.0 4.7791455467052865e-2,8.689355539464157e-3 6.010137581462709e-2 2.4619840695148443e-2c 1.66545981173063e-2,2.2447501810282402e-2 1.9551049963794354e-2,5.7204923968139025e-2 1.9551049963794354e-2 9.703113685734974e-2v 0.10789283128167994 c 0.0,5.937726285300506e-2 7.965242577842145e-3,6.227371469949312e-2 4.8515568428674875e-2 6.589427950760318e-2c 3.6205648081100656e-3,4.344677769732078e-3 3.6205648081100656e-3,1.955104996379435e-2 0.0 2.389572773352643e-2c -2.172338884866039e-2,-7.24112961622013e-4 -4.7791455467052865e-2,-1.448225923244026e-3 -7.675597393193338e-2 -1.448225923244026e-3c -2.8964518464880525e-2,0.0 -5.213613323678494e-2,7.24112961622013e-4 -7.385952208544534e-2 1.448225923244026e-3c -3.6205648081100656e-3,-4.344677769732078e-3 -3.6205648081100656e-3,-1.955104996379435e-2 0.0 -2.389572773352643e-2c 3.765387400434468e-2,-3.6205648081100647e-3 4.489500362056481e-2,-6.517016654598117e-3 4.489500362056481e-2 -6.589427950760318e-2v -0.11006517016654598 c 0.0,-2.1723388848660388e-2 -1.4482259232440262e-3,-4.127443881245474e-2 -8.689355539464157e-3 -5.5756698044895e-2c -8.689355539464157e-3,-1.66545981173063e-2 -2.3895727733526433e-2,-2.6068066618392467e-2 -3.837798696596669e-2 -2.6068066618392467e-2c -2.824040550325851e-2,0.0 -6.08254887762491e-2,1.5930485155684286e-2 -8.83417813178856e-2 4.2722664735698766e-2c -5.792903692976105e-3,6.517016654598117e-3 -1.2309920347574223e-2,1.5206372194062272e-2 -1.2309920347574223e-2 3.0412744388124545e-2v 0.11875452570601013 c 0.0,5.937726285300506e-2 7.241129616220131e-3,6.227371469949312e-2 4.41708906589428e-2 6.589427950760318e-2c 4.344677769732078e-3,4.344677769732078e-3 4.344677769732078e-3,1.955104996379435e-2 0.0 2.389572773352643e-2c -2.172338884866039e-2,-7.24112961622013e-4 -4.344677769732078e-2,-1.448225923244026e-3 -7.241129616220131e-2 -1.448225923244026e-3c -2.8964518464880525e-2,0.0 -5.792903692976105e-2,7.24112961622013e-4 -7.965242577842144e-2 1.448225923244026e-3c -4.344677769732078e-3,-4.344677769732078e-3 -4.344677769732078e-3,-1.955104996379435e-2 0.0 -2.389572773352643e-2c 4.344677769732078e-2,-3.6205648081100647e-3 5.068790731354092e-2,-6.517016654598117e-3 5.068790731354092e-2 -6.589427950760318e-2v -0.14120202751629254 c 0.0,-4.1998551774076756e-2 -7.965242577842145e-3,-4.561911658218682e-2 -4.706734250543085e-2 -4.9239681390296886e-2c -1.4482259232440262e-3,-4.344677769732078e-3 -2.8964518464880524e-3,-1.5930485155684286e-2 -1.4482259232440262e-3 -2.0275162925416364e-2c 4.99637943519189e-2,-6.517016654598117e-3 6.879073135409125e-2,-1.3034033309196233e-2 8.90658942795076e-2 -2.0999275887038378e-2c 5.792903692976105e-3,0.0 7.168711078928314e-3,2.461976828385228e-3 8.689355539464157e-3 5.792903692976104e-3c 3.4033309196234616e-3,7.458363504706734e-3 5.068790731354092e-3,3.548153511947864e-2 5.792903692976105e-3 5.503258508327299e-2c 2.1723606082548882e-4,6.806654598117306e-3 4.272259232440261e-3,5.068790731354091e-3 8.689355539464157e-3 0.0l -3.469446951953614e-17,2.7755575615628914e-17 ZM 1.2251991310644474,-0.18537291817523527 ZM 1.259956553222304,-0.28530050687907305 c 4.344677769732078e-3,-4.344677769732078e-3 1.8102824040550327e-2,-5.068790731354091e-3 2.2447501810282405e-2 -7.24112961622013e-4c 4.344677769732078e-3,1.8102824040550324e-2 1.2309920347574223e-2,4.9963794351918896e-2 2.824040550325851e-2 6.66183924692252e-2c 7.458363504706736e-3,7.748008689355539e-3 2.317161477190442e-2,1.7378711078928313e-2 5.141202027516293e-2 1.7378711078928313e-2c 2.6792179580014484e-2,0.0 6.1549601737871114e-2,-1.5206372194062272e-2 6.1549601737871114e-2 -5.0687907313540906e-2c 0.0,-3.113685734974656e-2 -1.3758146270818249e-2,-4.634322954380883e-2 -7.385952208544534e-2 -7.096307023895727e-2c -5.5756698044895005e-2,-2.3171614771904415e-2 -7.965242577842144e-2,-4.561911658218682e-2 -7.965242577842144e-2 -9.847936278059377e-2c 0.0,-4.634322954380883e-2 4.8515568428674875e-2,-8.110065170166546e-2 0.10209992758870384 -8.110065170166546e-2c 3.765387400434468e-2,0.0 7.241129616220131e-2,1.0137581462708182e-2 9.485879797248371e-2 1.3758146270818247e-2c -7.241129616220131e-4,2.389572773352643e-2 -2.172338884866039e-3,5.0687907313540906e-2 -4.344677769732078e-3 7.675597393193338e-2c -4.344677769732078e-3,4.344677769732078e-3 -1.882693700217234e-2,5.068790731354091e-3 -2.317161477190442e-2 7.24112961622013e-4c -9.41346850108617e-3,-6.154960173787111e-2 -5.141202027516293e-2,-6.73425054308472e-2 -6.734250543084722e-2 -6.73425054308472e-2c -2.4619840695148446e-2,0.0 -5.068790731354092e-2,1.66545981173063e-2 -5.068790731354092e-2 4.634322954380883e-2c 0.0,3.982621288921071e-2 2.881969587255612e-2,5.1049963794351914e-2 7.241129616220131e-2 6.71976828385228e-2c 4.923968139029689e-2,1.8247646632874728e-2 8.472121650977553e-2,4.699493120926865e-2 8.472121650977553e-2 9.645184648805212e-2c 0.0,7.168718320057929e-2 -7.458363504706735e-2,9.123823316437364e-2 -0.11513396089790008 9.123823316437364e-2c -2.6792179580014484e-2,0.0 -4.634322954380884e-2,-2.896451846488052e-3 -6.58942795076032e-2 -7.965242577842143e-3c -5.068790731354092e-3,-1.448225923244026e-3 -9.41346850108617e-3,-1.448225923244026e-3 -1.4482259232440262e-2 -1.448225923244026e-3c -3.6205648081100656e-3,0.0 -1.0861694424330196e-2,7.24112961622013e-4 -1.8102824040550327e-2 2.172338884866039e-3c 0.0,-3.0412744388124545e-2 -2.172338884866039e-3,-6.444605358435916e-2 -5.068790731354092e-3 -9.992758870383779e-2l 4.163336342344337e-17,-1.3877787807814457e-17 ZM 1.5076031860970327,-0.18537291817523527 ZM 1.538740043446779,-0.4960173787110788 l 3.33091962346126e-2,-7.241564083997103e-5 c 0.0,-8.030412744388124e-2 -2.172338884866039e-3,-7.552498189717595e-2 -2.172338884866039e-3 -8.392469225199131e-2c 0.0,-4.996393917451122e-3 7.241129616220131e-3,-7.458363504706734e-3 1.593048515568429e-2 -9.920347574221578e-3c 9.051412020275163e-3,-2.5343953656770456e-3 1.6437364228819695e-2,-5.648073859522085e-3 2.4619840695148446e-2 -1.0209992758870383e-2c 6.734250543084722e-3,-3.693005068790731e-3 1.2889210716871834e-2,-6.517016654598117e-3 1.6147719044170894e-2 -6.517016654598117e-3c 3.4033309196234616e-3,0.0 5.575669804489501e-3,1.7378421433743663e-3 5.575669804489501e-3 6.372186821144097e-3c 0.0,0.0 -2.8964518464880524e-3,2.8964518464880518e-2 -2.8964518464880524e-3 7.603186097031137e-2v 2.8240405503258507e-2 h 8.689355539464157e-2 c 3.6205648081100656e-3,0.0 5.792903692976105e-3,1.448225923244026e-3 5.792903692976105e-3 4.344677769732078e-3v 1.4482259232440259e-2 c 0.0,6.517016654598117e-3 -1.0137581462708184e-2,9.413468501086169e-3 -1.7378711078928313e-2 9.413468501086169e-3h -7.530774800868936e-2 v 0.1832005792903693 c 0.0,4.4895003620564804e-2 4.344677769732078e-3,6.66183924692252e-2 2.3895727733526433e-2 6.66183924692252e-2c 1.882693700217234e-2,0.0 4.0550325850832736e-2,-5.792903692976104e-3 5.9377262853005076e-2 -2.0275162925416364e-2c 7.241129616220131e-3,7.24112961622013e-4 1.158580738595221e-2,4.8515568428674875e-3 1.3034033309196235e-2 1.2309920347574221e-2c -2.824040550325851e-2,3.186097031136857e-2 -6.444605358435916e-2,4.779145546705286e-2 -9.775524981897177e-2 4.779145546705286e-2c -3.33091962346126e-2,0.0 -5.5756698044895005e-2,-2.0275162925416364e-2 -5.5756698044895005e-2 -7.168718320057929e-2v -0.2179580014482259 h -4.272266473569877e-2 c -2.8964518464880524e-3,0.0 -3.6205648081100656e-3,-7.24112961622013e-4 -3.6205648081100656e-3 -4.344677769732078e-3v -9.413468501086169e-3 c 0.0,-5.792903692976104e-3 2.8964518464880524e-3,-1.4482259232440259e-2 1.3034033309196235e-2 -1.4482259232440259e-2l -2.42861286636753e-17,1.158580739679671e-8 ZM 1.7364228819695888,-0.18537291817523527 ZM 1.9485879797248387,-0.3540912382331643 l -5.720492396813903e-2,1.5206372194062272e-2 c -5.358435916002897e-2,1.3758146270818247e-2 -6.879073135409125e-2,4.706734250543084e-2 -6.879073135409125e-2 7.965242577842142e-2c 0.0,2.2447501810282402e-2 1.593048515568429e-2,5.141202027516292e-2 5.213613323678494e-2 5.141202027516292e-2c 2.0275162925416368e-2,0.0 4.489500362056481e-2,-1.66545981173063e-2 6.372194062273716e-2 -3.186097031136857e-2c 5.792903692976105e-3,-4.344677769732078e-3 1.0137581462708184e-2,-9.413468501086169e-3 1.0137581462708184e-2 -1.8826937002172337e-2v -9.558291093410572e-2 h -0.0 ZM 1.9485879797248387,-0.3540912382331643 ZM 1.9485879797248387,-0.22013034033309192 h -1.4482259232440262e-3 l -1.4482259232440262e-2,1.1585807385952208e-2 c -3.186097031136858e-2,2.4619840695148443e-2 -5.3729181752353375e-2,3.0412744388124545e-2 -7.892831281679942e-2 3.0412744388124545e-2c -5.068790731354092e-2,0.0 -9.123823316437366e-2,-1.8826937002172337e-2 -9.123823316437366e-2 -7.82041998551774e-2c 0.0,-4.9239681390296886e-2 4.99637943519189e-2,-8.761766835626357e-2 0.11947863866763216 -0.10499637943519188l 6.2273714699493124e-2,-1.5206372194062272e-2 c 2.172338884866039e-3,-7.24112961622013e-4 4.344677769732078e-3,-3.6205648081100647e-3 4.344677769732078e-3 -8.689355539464157e-3c 0.0,-8.182476466328746e-2 -3.403330919623462e-2,-9.413468501086168e-2 -5.865314989138306e-2 -9.413468501086168e-2c -2.7516292541636497e-2,0.0 -5.792903692976105e-2,7.965242577842143e-3 -5.792903692976105e-2 3.0412744388124545e-2c 0.0,7.965242577842143e-3 7.241129616220131e-4,1.2309920347574221e-2 1.4482259232440262e-3 1.4482259232440259e-2c 1.4482259232440262e-3,2.896451846488052e-3 2.172338884866039e-3,7.965242577842143e-3 2.172338884866039e-3 1.3034033309196233e-2c 0.0,9.413468501086169e-3 -1.3034033309196235e-2,2.4619840695148443e-2 -3.403330919623462e-2 2.4619840695148443e-2c -1.66545981173063e-2,0.0 -2.534395365677046e-2,-8.689355539464157e-3 -2.534395365677046e-2 -2.6068066618392467e-2c 0.0,-4.127443881245474e-2 6.010137581462709e-2,-8.037653874004344e-2 0.11947863866763216 -8.037653874004344e-2c 5.286024619840696e-2,0.0 0.10934105720492397,1.955104996379435e-2 0.10934105720492397 0.1223750905141202v 0.1064446053584359 c 0.0,3.33091962346126e-2 7.241129616220131e-4,6.154960173787111e-2 2.172338884866039e-2 6.154960173787111e-2c 9.196234612599566e-3,0.0 2.1361332367849387e-2,-7.096307023895728e-3 2.6792179580014484e-2 -1.1585807385952208e-2c 8.18247646632875e-3,4.561911658218682e-3 1.10789283128168e-2,1.064446053584359e-2 1.2309920347574223e-2 1.955104996379435e-2c -1.498913830557567e-2,1.4482259232440259e-2 -4.1057204923968145e-2,2.679217958001448e-2 -6.879073135409125e-2 2.679217958001448e-2c -3.649529326574946e-2,0.0 -4.41708906589428e-2,-1.955104996379435e-2 -4.8515568428674875e-2 -4.1998551774076756e-2l 7.632783294297951e-17,5.551115123125783e-17 ZM 2.0673425054308487,-0.18537291817523527 ZM 2.200579290369299,-0.4446053584359159 c 4.2939898624185374e-2,-4.9239681390296886e-2 8.327299058653151e-2,-5.865314989138305e-2 0.11875452570601015 -5.865314989138305e-2c 2.534395365677046e-2,0.0 4.7791455467052865e-2,8.689355539464157e-3 6.010137581462709e-2 2.4619840695148443e-2c 1.66545981173063e-2,2.2447501810282402e-2 1.9551049963794354e-2,5.7204923968139025e-2 1.9551049963794354e-2 9.703113685734974e-2v 0.10789283128167994 c 0.0,5.937726285300506e-2 7.965242577842145e-3,6.227371469949312e-2 4.8515568428674875e-2 6.589427950760318e-2c 3.6205648081100656e-3,4.344677769732078e-3 3.6205648081100656e-3,1.955104996379435e-2 0.0 2.389572773352643e-2c -2.172338884866039e-2,-7.24112961622013e-4 -4.7791455467052865e-2,-1.448225923244026e-3 -7.675597393193338e-2 -1.448225923244026e-3c -2.8964518464880525e-2,0.0 -5.213613323678494e-2,7.24112961622013e-4 -7.385952208544534e-2 1.448225923244026e-3c -3.6205648081100656e-3,-4.344677769732078e-3 -3.6205648081100656e-3,-1.955104996379435e-2 0.0 -2.389572773352643e-2c 3.765387400434468e-2,-3.6205648081100647e-3 4.489500362056481e-2,-6.517016654598117e-3 4.489500362056481e-2 -6.589427950760318e-2v -0.11006517016654598 c 0.0,-2.1723388848660388e-2 -1.4482259232440262e-3,-4.127443881245474e-2 -8.689355539464157e-3 -5.5756698044895e-2c -8.689355539464157e-3,-1.66545981173063e-2 -2.3895727733526433e-2,-2.6068066618392467e-2 -3.837798696596669e-2 -2.6068066618392467e-2c -2.824040550325851e-2,0.0 -6.08254887762491e-2,1.5930485155684286e-2 -8.83417813178856e-2 4.2722664735698766e-2c -5.792903692976105e-3,6.517016654598117e-3 -1.2309920347574223e-2,1.5206372194062272e-2 -1.2309920347574223e-2 3.0412744388124545e-2v 0.11875452570601013 c 0.0,5.937726285300506e-2 7.241129616220131e-3,6.227371469949312e-2 4.41708906589428e-2 6.589427950760318e-2c 4.344677769732078e-3,4.344677769732078e-3 4.344677769732078e-3,1.955104996379435e-2 0.0 2.389572773352643e-2c -2.172338884866039e-2,-7.24112961622013e-4 -4.344677769732078e-2,-1.448225923244026e-3 -7.241129616220131e-2 -1.448225923244026e-3c -2.8964518464880525e-2,0.0 -5.792903692976105e-2,7.24112961622013e-4 -7.965242577842144e-2 1.448225923244026e-3c -4.344677769732078e-3,-4.344677769732078e-3 -4.344677769732078e-3,-1.955104996379435e-2 0.0 -2.389572773352643e-2c 4.344677769732078e-2,-3.6205648081100647e-3 5.068790731354092e-2,-6.517016654598117e-3 5.068790731354092e-2 -6.589427950760318e-2v -0.14120202751629254 c 0.0,-4.1998551774076756e-2 -7.965242577842145e-3,-4.561911658218682e-2 -4.706734250543085e-2 -4.9239681390296886e-2c -1.4482259232440262e-3,-4.344677769732078e-3 -2.8964518464880524e-3,-1.5930485155684286e-2 -1.4482259232440262e-3 -2.0275162925416364e-2c 4.99637943519189e-2,-6.517016654598117e-3 6.879073135409125e-2,-1.3034033309196233e-2 8.90658942795076e-2 -2.0999275887038378e-2c 5.792903692976105e-3,0.0 7.168711078928314e-3,2.461976828385228e-3 8.689355539464157e-3 5.792903692976104e-3c 3.4033309196234616e-3,7.458363504706734e-3 5.068790731354092e-3,3.548153511947864e-2 5.792903692976105e-3 5.503258508327299e-2c 2.1723606082548882e-4,6.806654598117306e-3 4.272259232440261e-3,5.068790731354091e-3 8.689355539464157e-3 0.0l -3.469446951953614e-17,2.7755575615628914e-17 ZM 2.45981173062998,-0.18537291817523527 ZM 2.490948587979726,-0.4960173787110788 l 3.33091962346126e-2,-7.241564083997103e-5 c 0.0,-8.030412744388124e-2 -2.172338884866039e-3,-7.552498189717595e-2 -2.172338884866039e-3 -8.392469225199131e-2c 0.0,-4.996393917451122e-3 7.241129616220131e-3,-7.458363504706734e-3 1.593048515568429e-2 -9.920347574221578e-3c 9.051412020275163e-3,-2.5343953656770456e-3 1.6437364228819695e-2,-5.648073859522085e-3 2.4619840695148446e-2 -1.0209992758870383e-2c 6.734250543084722e-3,-3.693005068790731e-3 1.2889210716871834e-2,-6.517016654598117e-3 1.6147719044170894e-2 -6.517016654598117e-3c 3.4033309196234616e-3,0.0 5.575669804489501e-3,1.7378421433743663e-3 5.575669804489501e-3 6.372186821144097e-3c 0.0,0.0 -2.8964518464880524e-3,2.8964518464880518e-2 -2.8964518464880524e-3 7.603186097031137e-2v 2.8240405503258507e-2 h 8.689355539464157e-2 c 3.6205648081100656e-3,0.0 5.792903692976105e-3,1.448225923244026e-3 5.792903692976105e-3 4.344677769732078e-3v 1.4482259232440259e-2 c 0.0,6.517016654598117e-3 -1.0137581462708184e-2,9.413468501086169e-3 -1.7378711078928313e-2 9.413468501086169e-3h -7.530774800868936e-2 v 0.1832005792903693 c 0.0,4.4895003620564804e-2 4.344677769732078e-3,6.66183924692252e-2 2.3895727733526433e-2 6.66183924692252e-2c 1.882693700217234e-2,0.0 4.0550325850832736e-2,-5.792903692976104e-3 5.9377262853005076e-2 -2.0275162925416364e-2c 7.241129616220131e-3,7.24112961622013e-4 1.158580738595221e-2,4.8515568428674875e-3 1.3034033309196235e-2 1.2309920347574221e-2c -2.824040550325851e-2,3.186097031136857e-2 -6.444605358435916e-2,4.779145546705286e-2 -9.775524981897177e-2 4.779145546705286e-2c -3.33091962346126e-2,0.0 -5.5756698044895005e-2,-2.0275162925416364e-2 -5.5756698044895005e-2 -7.168718320057929e-2v -0.2179580014482259 h -4.272266473569877e-2 c -2.8964518464880524e-3,0.0 -3.6205648081100656e-3,-7.24112961622013e-4 -3.6205648081100656e-3 -4.344677769732078e-3v -9.413468501086169e-3 c 0.0,-5.792903692976104e-3 2.8964518464880524e-3,-1.4482259232440259e-2 1.3034033309196235e-2 -1.4482259232440259e-2l -2.42861286636753e-17,1.158580739679671e-8 ZM 2.8696596669080394,-0.18537291817523527 ZM 2.9963794351918915,-0.2737146994931208 c 0.0,6.010137581462708e-2 4.344677769732078e-3,6.299782766111513e-2 6.08254887762491e-2 6.589427950760318e-2c 4.344677769732078e-3,4.344677769732078e-3 4.344677769732078e-3,1.955104996379435e-2 0.0 2.389572773352643e-2c -2.534395365677046e-2,-7.24112961622013e-4 -6.010137581462709e-2,-1.448225923244026e-3 -8.90658942795076e-2 -1.448225923244026e-3c -2.8964518464880525e-2,0.0 -5.4308472121650984e-2,7.24112961622013e-4 -7.965242577842144e-2 1.448225923244026e-3c -4.344677769732078e-3,-4.344677769732078e-3 -4.344677769732078e-3,-1.955104996379435e-2 0.0 -2.389572773352643e-2c 3.910209992758871e-2,-2.896451846488052e-3 5.068790731354092e-2,-5.792903692976104e-3 5.068790731354092e-2 -6.589427950760318e-2v -0.19406227371469947 h -4.99637943519189e-2 c -2.8964518464880524e-3,0.0 -3.6205648081100656e-3,-7.24112961622013e-4 -3.6205648081100656e-3 -4.344677769732078e-3v -9.413468501086169e-3 c 0.0,-5.792903692976104e-3 3.6205648081100656e-3,-1.4482259232440259e-2 1.66545981173063e-2 -1.4482259232440259e-2h 3.692976104272267e-2 v -2.8964518464880518e-2 c 0.0,-0.11296162201303403 6.734250543084722e-2,-0.165821868211441 0.12816799420709632 -0.165821868211441c 2.7516292541636497e-2,0.0 4.634322954380884e-2,2.172338884866039e-3 6.517016654598118e-2 1.5206372194062272e-2c 1.5206372194062274e-2,1.1585807385952208e-2 2.317161477190442e-2,2.4619840695148443e-2 2.317161477190442e-2 3.6929761042722664e-2c 0.0,1.4482259232440259e-2 -1.7378711078928313e-2,2.968863142650253e-2 -2.9688631426502538e-2 2.968863142650253e-2c -1.5206372194062274e-2,0.0 -2.317161477190442e-2,-1.0137581462708182e-2 -2.8964518464880525e-2 -2.3171614771904415e-2c -1.0137581462708184e-2,-2.5343953656770453e-2 -2.172338884866039e-2,-3.403330919623461e-2 -4.344677769732078e-2 -3.403330919623461e-2c -2.3895727733526433e-2,0.0 -5.720492396813903e-2,1.7378711078928313e-2 -5.720492396813903e-2 0.12889210716871832v 4.127443881245474e-2 h 7.820419985517742e-2 c 3.6205648081100656e-3,0.0 5.792903692976105e-3,1.448225923244026e-3 5.792903692976105e-3 4.344677769732078e-3v 1.4482259232440259e-2 c 0.0,6.517016654598117e-3 -1.0137581462708184e-2,9.413468501086169e-3 -1.66545981173063e-2 9.413468501086169e-3h -6.734250543084722e-2 v 0.19406227371469947 l -6.938893903907228e-18,5.551115123125783e-17 ZM 3.094134685010863,-0.18537291817523527 ZM 3.123823316437366,-0.33381607530774793 c 0.0,-4.576393917451122e-2 1.3758146270818249e-2,-8.790731354091239e-2 4.004344677769732e-2 -0.11875452570601013c 2.650253439536568e-2,-3.113685734974656e-2 6.5821868211441e-2,-5.0687907313540906e-2 0.11346850108616945 -5.0687907313540906e-2c 0.110789283128168,0.0 0.15206372194062276,8.761766835626357e-2 0.15206372194062276 0.16292541636495292c 0.0,4.4388124547429395e-2 -1.4699493120926867e-2,8.993482983345401e-2 -4.713975380159305e-2 0.12165097755249818c -2.4692251991310647e-2,2.411296162201303e-2 -5.973931933381608e-2,4.055032585083273e-2 -0.10637219406227373 4.055032585083273e-2c -0.10282404055032586,0.0 -0.15206372194062276,-8.182476466328746e-2 -0.15206372194062276 -0.1556842867487328h 2.7755575615628914e-17 ZM 3.123823316437366,-0.33381607530774793 ZM 3.2664735698769025,-0.4779145546705285 c -6.517016654598118e-2,0.0 -8.037653874004345e-2,6.444605358435916e-2 -8.037653874004345e-2 0.1274438812454743c 0.0,5.5756698044895e-2 2.4619840695148446e-2,0.14699493120926863 9.99275887038378e-2 0.14699493120926863c 3.403330919623462e-2,0.0 8.110065170166547e-2,-2.2447501810282402e-2 8.110065170166547e-2 -0.11368573497465603c 0.0,-0.10427226647356987 -3.837798696596669e-2,-0.16075307748008688 -0.10065170166545982 -0.16075307748008688v 2.7755575615628914e-17 ZM 3.459087617668358,-0.18537291817523527 ZM 3.5923244026068084,-0.4446053584359159 c 4.2939898624185374e-2,-4.9239681390296886e-2 8.327299058653151e-2,-5.865314989138305e-2 0.11875452570601015 -5.865314989138305e-2c 2.534395365677046e-2,0.0 4.7791455467052865e-2,8.689355539464157e-3 6.010137581462709e-2 2.4619840695148443e-2c 1.66545981173063e-2,2.2447501810282402e-2 1.9551049963794354e-2,5.7204923968139025e-2 1.9551049963794354e-2 9.703113685734974e-2v 0.10789283128167994 c 0.0,5.937726285300506e-2 7.965242577842145e-3,6.227371469949312e-2 4.8515568428674875e-2 6.589427950760318e-2c 3.6205648081100656e-3,4.344677769732078e-3 3.6205648081100656e-3,1.955104996379435e-2 0.0 2.389572773352643e-2c -2.172338884866039e-2,-7.24112961622013e-4 -4.7791455467052865e-2,-1.448225923244026e-3 -7.675597393193338e-2 -1.448225923244026e-3c -2.8964518464880525e-2,0.0 -5.213613323678494e-2,7.24112961622013e-4 -7.385952208544534e-2 1.448225923244026e-3c -3.6205648081100656e-3,-4.344677769732078e-3 -3.6205648081100656e-3,-1.955104996379435e-2 0.0 -2.389572773352643e-2c 3.765387400434468e-2,-3.6205648081100647e-3 4.489500362056481e-2,-6.517016654598117e-3 4.489500362056481e-2 -6.589427950760318e-2v -0.11006517016654598 c 0.0,-2.1723388848660388e-2 -1.4482259232440262e-3,-4.127443881245474e-2 -8.689355539464157e-3 -5.5756698044895e-2c -8.689355539464157e-3,-1.66545981173063e-2 -2.3895727733526433e-2,-2.6068066618392467e-2 -3.837798696596669e-2 -2.6068066618392467e-2c -2.824040550325851e-2,0.0 -6.08254887762491e-2,1.5930485155684286e-2 -8.83417813178856e-2 4.2722664735698766e-2c -5.792903692976105e-3,6.517016654598117e-3 -1.2309920347574223e-2,1.5206372194062272e-2 -1.2309920347574223e-2 3.0412744388124545e-2v 0.11875452570601013 c 0.0,5.937726285300506e-2 7.241129616220131e-3,6.227371469949312e-2 4.41708906589428e-2 6.589427950760318e-2c 4.344677769732078e-3,4.344677769732078e-3 4.344677769732078e-3,1.955104996379435e-2 0.0 2.389572773352643e-2c -2.172338884866039e-2,-7.24112961622013e-4 -4.344677769732078e-2,-1.448225923244026e-3 -7.241129616220131e-2 -1.448225923244026e-3c -2.8964518464880525e-2,0.0 -5.792903692976105e-2,7.24112961622013e-4 -7.965242577842144e-2 1.448225923244026e-3c -4.344677769732078e-3,-4.344677769732078e-3 -4.344677769732078e-3,-1.955104996379435e-2 0.0 -2.389572773352643e-2c 4.344677769732078e-2,-3.6205648081100647e-3 5.068790731354092e-2,-6.517016654598117e-3 5.068790731354092e-2 -6.589427950760318e-2v -0.14120202751629254 c 0.0,-4.1998551774076756e-2 -7.965242577842145e-3,-4.561911658218682e-2 -4.706734250543085e-2 -4.9239681390296886e-2c -1.4482259232440262e-3,-4.344677769732078e-3 -2.8964518464880524e-3,-1.5930485155684286e-2 -1.4482259232440262e-3 -2.0275162925416364e-2c 4.99637943519189e-2,-6.517016654598117e-3 6.879073135409125e-2,-1.3034033309196233e-2 8.90658942795076e-2 -2.0999275887038378e-2c 5.792903692976105e-3,0.0 7.168711078928314e-3,2.461976828385228e-3 8.689355539464157e-3 5.792903692976104e-3c 3.4033309196234616e-3,7.458363504706734e-3 5.068790731354092e-3,3.548153511947864e-2 5.792903692976105e-3 5.503258508327299e-2c 2.1723606082548882e-4,6.806654598117306e-3 4.272259232440261e-3,5.068790731354091e-3 8.689355539464157e-3 0.0l -3.469446951953614e-17,2.7755575615628914e-17 ZM 3.851556842867489,-0.18537291817523527 ZM 3.8826937002172355,-0.4960173787110788 l 3.33091962346126e-2,-7.241564083997103e-5 c 0.0,-8.030412744388124e-2 -2.172338884866039e-3,-7.552498189717595e-2 -2.172338884866039e-3 -8.392469225199131e-2c 0.0,-4.996393917451122e-3 7.241129616220131e-3,-7.458363504706734e-3 1.593048515568429e-2 -9.920347574221578e-3c 9.051412020275163e-3,-2.5343953656770456e-3 1.6437364228819695e-2,-5.648073859522085e-3 2.4619840695148446e-2 -1.0209992758870383e-2c 6.734250543084722e-3,-3.693005068790731e-3 1.2889210716871834e-2,-6.517016654598117e-3 1.6147719044170894e-2 -6.517016654598117e-3c 3.4033309196234616e-3,0.0 5.575669804489501e-3,1.7378421433743663e-3 5.575669804489501e-3 6.372186821144097e-3c 0.0,0.0 -2.8964518464880524e-3,2.8964518464880518e-2 -2.8964518464880524e-3 7.603186097031137e-2v 2.8240405503258507e-2 h 8.689355539464157e-2 c 3.6205648081100656e-3,0.0 5.792903692976105e-3,1.448225923244026e-3 5.792903692976105e-3 4.344677769732078e-3v 1.4482259232440259e-2 c 0.0,6.517016654598117e-3 -1.0137581462708184e-2,9.413468501086169e-3 -1.7378711078928313e-2 9.413468501086169e-3h -7.530774800868936e-2 v 0.1832005792903693 c 0.0,4.4895003620564804e-2 4.344677769732078e-3,6.66183924692252e-2 2.3895727733526433e-2 6.66183924692252e-2c 1.882693700217234e-2,0.0 4.0550325850832736e-2,-5.792903692976104e-3 5.9377262853005076e-2 -2.0275162925416364e-2c 7.241129616220131e-3,7.24112961622013e-4 1.158580738595221e-2,4.8515568428674875e-3 1.3034033309196235e-2 1.2309920347574221e-2c -2.824040550325851e-2,3.186097031136857e-2 -6.444605358435916e-2,4.779145546705286e-2 -9.775524981897177e-2 4.779145546705286e-2c -3.33091962346126e-2,0.0 -5.5756698044895005e-2,-2.0275162925416364e-2 -5.5756698044895005e-2 -7.168718320057929e-2v -0.2179580014482259 h -4.272266473569877e-2 c -2.8964518464880524e-3,0.0 -3.6205648081100656e-3,-7.24112961622013e-4 -3.6205648081100656e-3 -4.344677769732078e-3v -9.413468501086169e-3 c 0.0,-5.792903692976104e-3 2.8964518464880524e-3,-1.4482259232440259e-2 1.3034033309196235e-2 -1.4482259232440259e-2l -2.42861286636753e-17,1.158580739679671e-8 ZM 4.261404779145549,-0.18537291817523527 ZM 4.296162201303405,-0.28530050687907305 c 4.344677769732078e-3,-4.344677769732078e-3 1.8102824040550327e-2,-5.068790731354091e-3 2.2447501810282405e-2 -7.24112961622013e-4c 4.344677769732078e-3,1.8102824040550324e-2 1.2309920347574223e-2,4.9963794351918896e-2 2.824040550325851e-2 6.66183924692252e-2c 7.458363504706736e-3,7.748008689355539e-3 2.317161477190442e-2,1.7378711078928313e-2 5.141202027516293e-2 1.7378711078928313e-2c 2.6792179580014484e-2,0.0 6.1549601737871114e-2,-1.5206372194062272e-2 6.1549601737871114e-2 -5.0687907313540906e-2c 0.0,-3.113685734974656e-2 -1.3758146270818249e-2,-4.634322954380883e-2 -7.385952208544534e-2 -7.096307023895727e-2c -5.5756698044895005e-2,-2.3171614771904415e-2 -7.965242577842144e-2,-4.561911658218682e-2 -7.965242577842144e-2 -9.847936278059377e-2c 0.0,-4.634322954380883e-2 4.8515568428674875e-2,-8.110065170166546e-2 0.10209992758870384 -8.110065170166546e-2c 3.765387400434468e-2,0.0 7.241129616220131e-2,1.0137581462708182e-2 9.485879797248371e-2 1.3758146270818247e-2c -7.241129616220131e-4,2.389572773352643e-2 -2.172338884866039e-3,5.0687907313540906e-2 -4.344677769732078e-3 7.675597393193338e-2c -4.344677769732078e-3,4.344677769732078e-3 -1.882693700217234e-2,5.068790731354091e-3 -2.317161477190442e-2 7.24112961622013e-4c -9.41346850108617e-3,-6.154960173787111e-2 -5.141202027516293e-2,-6.73425054308472e-2 -6.734250543084722e-2 -6.73425054308472e-2c -2.4619840695148446e-2,0.0 -5.068790731354092e-2,1.66545981173063e-2 -5.068790731354092e-2 4.634322954380883e-2c 0.0,3.982621288921071e-2 2.881969587255612e-2,5.1049963794351914e-2 7.241129616220131e-2 6.71976828385228e-2c 4.923968139029689e-2,1.8247646632874728e-2 8.472121650977553e-2,4.699493120926865e-2 8.472121650977553e-2 9.645184648805212e-2c 0.0,7.168718320057929e-2 -7.458363504706735e-2,9.123823316437364e-2 -0.11513396089790008 9.123823316437364e-2c -2.6792179580014484e-2,0.0 -4.634322954380884e-2,-2.896451846488052e-3 -6.58942795076032e-2 -7.965242577842143e-3c -5.068790731354092e-3,-1.448225923244026e-3 -9.41346850108617e-3,-1.448225923244026e-3 -1.4482259232440262e-2 -1.448225923244026e-3c -3.6205648081100656e-3,0.0 -1.0861694424330196e-2,7.24112961622013e-4 -1.8102824040550327e-2 2.172338884866039e-3c 0.0,-3.0412744388124545e-2 -2.172338884866039e-3,-6.444605358435916e-2 -5.068790731354092e-3 -9.992758870383779e-2l 4.163336342344337e-17,-1.3877787807814457e-17 ZM 4.543808834178133,-0.18537291817523527 ZM 4.608979000724114,-0.619116582186821 c 0.0,-1.7378711078928313e-2 2.0275162925416368e-2,-3.475742215785663e-2 3.765387400434468e-2 -3.475742215785663e-2c 1.9551049963794354e-2,0.0 3.475742215785663e-2,2.0275162925416364e-2 3.475742215785663e-2 3.7653874004344674e-2c 0.0,1.5278783490224475e-2 -1.7378711078928313e-2,3.475742215785663e-2 -3.765387400434468e-2 3.475742215785663e-2c -1.7378711078928313e-2,0.0 -3.475742215785663e-2,-1.8826937002172337e-2 -3.475742215785663e-2 -3.7653874004344674e-2h -0.0 ZM 4.608979000724114,-0.619116582186821 ZM 4.6748732802317186,-0.2737146994931208 c 0.0,6.010137581462708e-2 7.965242577842145e-3,6.299782766111513e-2 5.213613323678494e-2 6.589427950760318e-2c 4.344677769732078e-3,4.344677769732078e-3 4.344677769732078e-3,1.955104996379435e-2 0.0 2.389572773352643e-2c -2.3895727733526433e-2,-7.24112961622013e-4 -5.141202027516293e-2,-1.448225923244026e-3 -8.037653874004345e-2 -1.448225923244026e-3c -2.8964518464880525e-2,0.0 -5.720492396813903e-2,7.24112961622013e-4 -8.110065170166547e-2 1.448225923244026e-3c -4.344677769732078e-3,-4.344677769732078e-3 -4.344677769732078e-3,-1.955104996379435e-2 0.0 -2.389572773352643e-2c 4.41708906589428e-2,-3.6205648081100647e-3 5.213613323678494e-2,-5.792903692976104e-3 5.213613323678494e-2 -6.589427950760318e-2v -0.14120202751629254 c 0.0,-4.127443881245474e-2 -7.603186097031137e-3,-4.5546705286024614e-2 -4.706734250543085e-2 -4.9239681390296886e-2c -1.4482259232440262e-3,-4.344677769732078e-3 -2.8964518464880524e-3,-1.5930485155684286e-2 -1.4482259232440262e-3 -2.0275162925416364e-2c 4.99637943519189e-2,-6.517016654598117e-3 7.856625633598842e-2,-1.3034033309196233e-2 9.920347574221579e-2 -2.0999275887038378e-2c 5.792903692976105e-3,0.0 9.41346850108617e-3,2.172338884866039e-3 9.41346850108617e-3 5.068790731354091e-3c 0.0,0.0 -2.8964518464880524e-3,4.634322954380883e-2 -2.8964518464880524e-3 8.233164373642288e-2v 0.14431571325126719 l 1.3877787807814457e-17,2.7755575615628914e-17 ZM 4.740043446777699,-0.18537291817523527 ZM 4.791455467052861,-0.5032585083272989 c 1.0499637943519189e-2,3.910202751629253e-3 1.947863866763215e-2,7.241129616220129e-3 4.272266473569877e-2 7.241129616220129e-3h 0.1325126719768284 c 2.0999275887038378e-2,0.0 4.1274438812454746e-2,-1.448225923244026e-3 4.489500362056481e-2 -1.448225923244026e-3c 5.068790731354092e-3,0.0 8.689355539464157e-3,2.172338884866039e-3 8.689355539464157e-3 5.068790731354091e-3c 0.0,2.896451846488052e-3 -1.9551122375090512e-3,8.544532947139754e-3 -1.3034033309196235e-2 2.679217958001448e-2c -4.489500362056481e-2,7.385952208544533e-2 -0.12020275162925417,0.18754525706010136 -0.17378711078928313 0.2556118754525706h 9.630702389572775e-2 c 3.772628530050688e-2,-8.689355539464156e-4 5.249818971759595e-2,-1.67994207096307e-2 7.096307023895729e-2 -5.503258508327299e-2l 1.0137581462708184e-2,-2.0999275887038378e-2 c 8.689355539464157e-3,0.0 1.701665459811731e-2,1.6654598117306298e-3 2.172338884866039e-2 4.344677769732078e-3c -5.068790731354092e-3,3.620564808110065e-2 -1.4482259232440262e-2,7.385952208544533e-2 -2.317161477190442e-2 9.847936278059377e-2l -0.2259232440260681,-2.172338884866039e-3 c -1.0861694424330196e-2,0.0 -1.66545981173063e-2,-3.6205648081100647e-3 -1.66545981173063e-2 -8.689355539464157e-3c 0.0,-3.6205648081100647e-3 2.896466328747285e-4,-6.0825488776249095e-3 6.5170166545981175e-3 -1.4482259232440259e-2c 5.648081100651702e-2,-7.603186097031137e-2 0.12889210716871832,-0.18030412744388125 0.1781317885590152 -0.2628530050687907l -9.268645908761768e-2,2.172338884866039e-3 c -2.172338884866039e-2,5.068877624909486e-4 -4.41708906589428e-2,1.3034033309196233e-2 -5.865314989138306e-2 6.589427950760318e-2c -8.399710354815352e-3,1.88270094134685e-3 -1.7523533671252717e-2,5.068877624909486e-4 -2.3895727733526433e-2 -2.172338884866039e-3c 6.5170166545981175e-3,-3.548153511947864e-2 1.0137581462708184e-2,-6.082548877624909e-2 1.0861694424330196e-2 -9.341057204923968e-2c 0.0,-1.7378638667632149e-3 2.606806661839247e-3,-4.344677769732078e-3 4.344677769732078e-3 -4.344677769732078e-3l 2.42861286636753e-17,3.8163916471489756e-17 ZM 5.047067342505432,-0.18537291817523527 ZM 5.1368573497465615,-0.38957277335264295 l 0.13106444605358436,-2.172338884866039e-3 c 7.965242577842145e-3,-1.4483128167994206e-4 1.0861694424330196e-2,-3.6205648081100647e-3 1.0861694424330196e-2 -1.0137581462708182e-2c 0.0,-6.082548877624909e-2 -3.258508327299059e-2,-7.603186097031137e-2 -6.010137581462709e-2 -7.603186097031137e-2c -1.7378711078928313e-2,0.0 -6.806661839246923e-2,6.517016654598117e-3 -8.182476466328747e-2 8.834178131788559e-2h 1.3877787807814457e-17 ZM 5.1368573497465615,-0.38957277335264295 ZM 5.3265749456915295,-0.25271542360608246 c 8.689355539464157e-3,7.24112961622013e-4 1.3034033309196235e-2,4.344677769732078e-3 1.5206372194062274e-2 1.1585807385952208e-2c -2.8964518464880525e-2,3.7653874004344674e-2 -6.806661839246923e-2,6.299782766111513e-2 -0.12309920347574223 6.299782766111513e-2c -5.213613323678494e-2,0.0 -8.616944243301956e-2,-1.7378711078928313e-2 -0.110789283128168 -4.634322954380883e-2c -2.3895727733526433e-2,-2.7516292541636494e-2 -3.403330919623462e-2,-6.66183924692252e-2 -3.403330919623462e-2 -0.10716871832005792c 0.0,-0.11006517016654598 8.182476466328747e-2,-0.17016654598117306 0.14482259232440262 -0.17016654598117306c 0.10065170166545982,0.0 0.12237509051412021,6.517016654598116e-2 0.12237509051412021 0.12599565532223025c 0.0,7.965242577842143e-3 -5.068790731354092e-3,1.2309920347574221e-2 -1.3758146270818249e-2 1.2309920347574221e-2l -0.1926140477914555,-1.448225923244026e-3 c 0.0,4.1998551774076756e-2 8.689355539464157e-3,7.530774800868935e-2 2.317161477190442e-2 9.920347574221577e-2c 2.2447501810282405e-2,3.6929761042722664e-2 5.286024619840696e-2,5.213613323678493e-2 7.892831281679942e-2 5.213613323678493e-2c 4.1998551774076756e-2,0.0 6.299782766111514e-2,-1.1585807385952208e-2 8.979000724112962e-2 -3.91020999275887e-2v 1.3877787807814457e-17 Z" /></g></g><g><path d="M 10.000000000000004,0.0 l -1.1102230246251565e-15,-1.0 h -10.0 l -1.1102230246251565e-15,1.0 h 10.000000000000004 Z" /></g></g></g></g></g></svg>