<?xml version="1.0" encoding="UTF-8"?>
<!DOCTYPE svg PUBLIC "-//W3C//DTD SVG 1.1//EN"
    "http://www.w3.org/Graphics/SVG/1.1/DTD/svg11.dtd">
<svg xmlns="http://www.w3.org/2000/svg" xmlns:xlink="http://www.w3.org/1999/xlink" version="1.1" width="400.0" height="114.96357960457853" font-size="1" viewBox="0 0 400 115"><g><g stroke="rgb(0,0,0)" stroke-opacity="1.0" fill="rgb(0,0,0)" fill-opacity="0.0" stroke-width="1.0e-2" stroke-linecap="butt" stroke-linejoin="miter" fill-rule="evenodd" font-size="1.0em" stroke-miterlimit="10.0"><g transform="matrix(114.96357960457853,0.0,0.0,114.96357960457853,0.0,93.65244536940685)"><g fill="rgb(211,211,211)" fill-opacity="1.0" stroke-width="0.0"><path d="M 3.4793627805937737,0.18537291817523532 l -3.8628686700390143e-16,-1.0 h -3.4793627805937737 l -3.8628686700390143e-16,1.0 h 3.4793627805937746 Z" /></g><g stroke="rgb(0,0,255)" stroke-opacity="1.0" fill="rgb(0,0,255)" fill-opacity="1.0"><path d="M 4.440892098500626e-16,0.0 ZM 0.19044170890658996,-0.2049239681390297 h 0.12816799420709632 l -6.806661839246923e-2,-0.19695872556118754 h -4.344677769732078e-3 l -7.400434467776974e-2,0.18732802317161476 c -2.7516292541636496e-3,7.458363504706734e-3 2.317161477190442e-3,9.630702389572773e-3 1.824764663287473e-2 9.630702389572773e-3v 8.673617379884035e-18 ZM 0.19044170890658996,-0.2049239681390297 ZM 0.1122375090514125,-5.720492396813903e-2 c -1.1296162201303405e-2,2.9761042722664735e-2 2.273714699493121e-2,3.287472845763939e-2 4.99637943519189e-2 3.475742215785663e-2c 4.344677769732078e-3,4.344677769732078e-3 4.344677769732078e-3,1.955104996379435e-2 0.0 2.389572773352643e-2c -2.6792179580014484e-2,-7.24112961622013e-4 -6.299782766111514e-2,-1.448225923244026e-3 -9.268645908761768e-2 -1.448225923244026e-3c -2.1940622737146996e-2,0.0 -4.561911658218683e-2,7.24112961622013e-4 -6.444605358435916e-2 1.448225923244026e-3c -4.344677769732078e-3,-4.344677769732078e-3 -4.344677769732078e-3,-1.955104996379435e-2 0.0 -2.389572773352643e-2c 3.149891383055757e-2,-2.172338884866039e-3 5.358435916002897e-2,-6.517016654598117e-3 7.241129616220131e-2 -5.141202027516292e-2l 0.16437364228819698,-0.38812454742939895 c 9.41346850108617e-3,0.0 2.8964518464880525e-2,-7.965242577842143e-3 3.982621288921072e-2 -1.4482259232440259e-2l 0.1491672700941347,0.41419261404779145 c 1.2599565532223026e-2,3.490224475018103e-2 3.707458363504707e-2,3.7291817523533666e-2 6.517016654598118e-2 3.982621288921071e-2c 4.344677769732078e-3,4.344677769732078e-3 4.344677769732078e-3,1.955104996379435e-2 0.0 2.389572773352643e-2c -2.534395365677046e-2,-7.24112961622013e-4 -5.286024619840696e-2,-1.448225923244026e-3 -8.254887762490949e-2 -1.448225923244026e-3c -2.824040550325851e-2,0.0 -6.806661839246923e-2,7.24112961622013e-4 -9.485879797248371e-2 1.448225923244026e-3c -4.344677769732078e-3,-4.344677769732078e-3 -4.344677769732078e-3,-1.955104996379435e-2 0.0 -2.389572773352643e-2c 3.4467776973207825e-2,-2.461984069514844e-3 6.212889210716872e-2,-4.706734250543084e-3 5.358435916002897e-2 -2.968863142650253e-2l -4.1998551774076756e-2,-0.1223750905141202 h -0.15278783490224476 c -1.7378711078928313e-2,0.0 -2.172338884866039e-2,2.896451846488052e-3 -2.534395365677046e-2 1.2309920347574221e-2l -3.982621288921073e-2,0.10499637943519184 ZM 0.4221578566256341,0.0 ZM 0.746560463432296,-0.4446053584359159 c -4.344677769732078e-3,-4.344677769732078e-3 -4.344677769732078e-3,-1.955104996379435e-2 0.0 -2.389572773352643e-2c 2.9688631426502538e-2,7.24112961622013e-4 6.2273714699493124e-2,1.448225923244026e-3 7.892831281679942e-2 1.448225923244026e-3c 1.66545981173063e-2,0.0 4.1998551774076756e-2,-7.24112961622013e-4 6.372194062273716e-2 -1.448225923244026e-3c 4.344677769732078e-3,4.344677769732078e-3 4.344677769732078e-3,1.955104996379435e-2 0.0 2.389572773352643e-2c -4.561911658218683e-2,5.068790731354091e-3 -5.727733526430123e-2,3.3091962346126e-2 -7.118030412744389e-2 6.73425054308472e-2l -0.1496741491672701,0.36929761042722664 c -4.19984793627806e-3,1.0354815351194787e-2 -9.41346850108617e-3,1.66545981173063e-2 -1.7378711078928313e-2 1.66545981173063e-2c -7.241129616220131e-3,0.0 -1.2309920347574223e-2,-5.358435916002897e-3 -1.66545981173063e-2 -1.66545981173063e-2l -0.14301230992034758,-0.37074583635047065 c -1.926140477914555e-2,-4.9963794351918896e-2 -2.498189717595945e-2,-6.227371469949312e-2 -6.480811006517018e-2 -6.589427950760318e-2c -4.344677769732078e-3,-4.344677769732078e-3 -5.068790731354092e-3,-1.955104996379435e-2 -7.241129616220131e-4 -2.389572773352643e-2c 2.3895727733526433e-2,7.24112961622013e-4 4.902244750181029e-2,1.448225923244026e-3 7.530774800868936e-2 1.448225923244026e-3c 2.606806661839247e-2,0.0 5.865314989138306e-2,-7.24112961622013e-4 8.761766835626358e-2 -1.448225923244026e-3c 4.344677769732078e-3,4.344677769732078e-3 4.344677769732078e-3,1.955104996379435e-2 0.0 2.389572773352643e-2c -4.923968139029689e-2,5.068790731354091e-3 -5.343953656770457e-2,1.4844315713251266e-2 -3.664011585807386e-2 5.7929036929761035e-2l 0.11520637219406228,0.2947139753801593 h 3.3309268645908764e-3 l 0.11433743664011588,-0.2903692976104272 c 1.5496017378711079e-2,-3.93917451122375e-2 1.5206372194062274e-2,-5.865314989138305e-2 -3.837798696596669e-2 -6.227371469949312e-2l -7.241129675039648e-9,-6.245004513516506e-17 ZM 0.8942795076031866,0.0 ZM 1.0977552498189722,-0.26140477914554666 c 6.1549601737871114e-2,0.0 6.372194062273716e-2,-9.413468501086169e-3 6.58942795076032e-2 -4.9239681390296886e-2c 4.344677769732078e-3,-4.344677769732078e-3 1.9551049963794354e-2,-4.344677769732078e-3 2.3895727733526433e-2 0.0c -7.241129616220131e-4,1.7378711078928313e-2 -1.4482259232440262e-3,4.1998551774076756e-2 -1.4482259232440262e-3 6.227371469949312e-2c 0.0,2.4837074583635044e-2 7.241129616220131e-4,4.4895003620564804e-2 1.4482259232440262e-3 6.372194062273714e-2c -4.344677769732078e-3,4.344677769732078e-3 -1.9551049963794354e-2,4.344677769732078e-3 -2.3895727733526433e-2 0.0c -2.172338884866039e-3,-3.258508327299058e-2 -4.344677769732078e-3,-4.9239681390296886e-2 -6.58942795076032e-2 -4.9239681390296886e-2h -6.58942795076032e-2 v 0.16002896451846488 c 0.0,3.403330919623461e-2 1.0137581462708184e-2,4.561911658218682e-2 4.0550325850832736e-2 4.561911658218682e-2h 8.399710354815351e-2 c 5.5032585083272995e-2,0.0 8.037653874004345e-2,-4.2722664735698766e-2 9.485879797248371e-2 -9.48587979724837e-2c 9.48587979724837e-3,-2.3171614771904415e-3 1.7813178855901522e-2,-6.51697320782042e-4 2.534395365677046e-2 3.6205648081100647e-3c -5.792903692976105e-3,3.6929761042722664e-2 -1.66545981173063e-2,8.472121650977552e-2 -2.6792179580014484e-2 0.12092686459087616c 0.0,0.0 -5.792903692976105e-2,-1.448225923244026e-3 -9.268645908761768e-2 -1.448225923244026e-3h -0.1556842867487328 c -2.3895727733526433e-2,0.0 -6.734250543084722e-2,7.24112961622013e-4 -9.41346850108617e-2 1.448225923244026e-3c -4.344677769732078e-3,-4.344677769732078e-3 -4.344677769732078e-3,-1.955104996379435e-2 0.0 -2.389572773352643e-2c 5.068790731354092e-2,-2.172338884866039e-3 6.299782766111514e-2,-5.792903692976104e-3 6.299782766111514e-2 -6.589427950760318e-2v -0.2903692976104272 c 0.0,-6.010137581462708e-2 -1.2309920347574223e-2,-6.372194062273714e-2 -6.299782766111514e-2 -6.589427950760318e-2c -4.344677769732078e-3,-4.344677769732078e-3 -4.344677769732078e-3,-1.955104996379435e-2 0.0 -2.389572773352643e-2c 2.8964518464880525e-2,7.24112961622013e-4 7.132512671976829e-2,1.448225923244026e-3 9.341057204923969e-2 1.448225923244026e-3h 0.18464880521361335 c 1.7378711078928313e-2,0.0 2.317161477190442e-2,-7.24112961622013e-4 3.5481535119478644e-2 -2.896451846488052e-3c 2.172338884866039e-3,0.0 2.8964518464880524e-3,7.24112961622013e-4 2.8964518464880524e-3 2.172338884866039e-3c 1.4482259232440262e-3,5.792903692976104e-3 1.2309920347574223e-2,7.530774800868935e-2 1.593048515568429e-2 0.10499637943519188c -7.096299782766112e-3,3.403338160753077e-3 -1.4916727009413471e-2,4.923960897900072e-3 -2.3895727733526433e-2 3.6205648081100647e-3c -1.593048515568429e-2,-4.9963794351918896e-2 -2.7516292541636497e-2,-7.892831281679942e-2 -8.182476466328747e-2 -7.892831281679942e-2h -5.4308472121650984e-2 c -3.910209992758871e-2,0.0 -4.7791455467052865e-2,1.4482259232440259e-2 -4.7791455467052865e-2 4.634322954380883e-2v 0.13034033309196233 h 6.58942795076032e-2 l -1.3877787807814457e-17,2.7755575615628914e-17 ZM 1.297610427226648,0.0 ZM 1.7002172338884871,-0.3707458363504707 c 0.0,-6.589427950760318e-2 -1.2309920347574223e-2,-6.879073135409124e-2 -6.299782766111514e-2 -7.385952208544533e-2c -4.344677769732078e-3,-4.344677769732078e-3 -4.344677769732078e-3,-1.955104996379435e-2 0.0 -2.389572773352643e-2c 3.186097031136858e-2,7.24112961622013e-4 6.495293265749458e-2,1.448225923244026e-3 8.037653874004345e-2 1.448225923244026e-3c 1.716147719044171e-2,0.0 5.141202027516293e-2,-7.24112961622013e-4 8.110065170166547e-2 -1.448225923244026e-3c 4.344677769732078e-3,4.344677769732078e-3 4.344677769732078e-3,1.955104996379435e-2 0.0 2.389572773352643e-2c -5.068790731354092e-2,5.068790731354091e-3 -6.299782766111514e-2,9.413468501086169e-3 -6.299782766111514e-2 7.385952208544533e-2v 0.35553946415640836 c 0.0,1.3758146270818247e-2 -6.5170166545981175e-3,2.2447501810282402e-2 -1.66545981173063e-2 2.2447501810282402e-2c -1.158580738595221e-2,0.0 -2.0999275887038378e-2,-6.517016654598117e-3 -2.8964518464880525e-2 -1.7378711078928313e-2l -0.25271542360608257,-0.31933381607530775 c -1.2309920347574223e-2,-1.5930485155684286e-2 -2.0275162925416368e-2,-2.389572773352643e-2 -2.4619840695148446e-2 -2.389572773352643e-2c -5.792903692976105e-3,0.0 -5.792903692976105e-3,1.0861694424330194e-2 -5.792903692976105e-3 3.548153511947864e-2v 0.22157856625633598 c 0.0,6.589427950760318e-2 1.2309920347574223e-2,6.879073135409124e-2 6.299782766111514e-2 7.385952208544533e-2c 4.344677769732078e-3,4.344677769732078e-3 4.344677769732078e-3,1.955104996379435e-2 0.0 2.389572773352643e-2c -3.041274438812455e-2,-7.24112961622013e-4 -6.364952932657496e-2,-1.448225923244026e-3 -8.037653874004345e-2 -1.448225923244026e-3c -1.708906589427951e-2,0.0 -4.99637943519189e-2,7.24112961622013e-4 -8.110065170166547e-2 1.448225923244026e-3c -4.344677769732078e-3,-4.344677769732078e-3 -4.344677769732078e-3,-1.955104996379435e-2 0.0 -2.389572773352643e-2c 5.068790731354092e-2,-5.068790731354091e-3 6.299782766111514e-2,-9.413468501086169e-3 6.299782766111514e-2 -7.385952208544533e-2v -0.3019551049963794 c -4.344677769732078e-3,-1.8826937002172337e-2 -2.606806661839247e-2,-4.4170890658942794e-2 -5.720492396813903e-2 -4.634322954380883e-2c -4.344677769732078e-3,-4.344677769732078e-3 -4.344677769732078e-3,-1.955104996379435e-2 0.0 -2.389572773352643e-2l 9.775524981897177e-2,1.448225923244026e-3 l 0.2483707458363505,0.3149891383055756 c 2.0999275887038378e-2,2.679217958001448e-2 3.186097031136858e-2,3.982621288921071e-2 3.475742215785663e-2 3.982621288921071e-2c 5.068790731354092e-3,0.0 5.068790731354092e-3,-7.965242577842143e-3 5.068790731354092e-3 -2.1723388848660388e-2v -0.23678493845039825 l -2.7755575615628914e-17,2.7755575615628914e-17 ZM 1.8037653874004351,0.0 ZM 2.076755973931934,-0.4764663287472845 c 8.037653874004345e-2,0.0 0.10716871832005793,2.5343953656770453e-2 0.15061549601737872 3.258508327299058e-2c 1.158580738595221e-2,5.213613323678493e-2 1.4844315713251269e-2,8.110065170166546e-2 1.66545981173063e-2 0.11151339608979c -8.18247646632875e-3,3.403338160753077e-3 -1.5713251267197685e-2,4.851564083997103e-3 -2.3895727733526433e-2 4.344677769732078e-3c -1.882693700217234e-2,-6.227371469949312e-2 -4.8515568428674875e-2,-0.1223750905141202 -0.15351194786386677 -0.1223750905141202c -8.435916002896453e-2,0.0 -0.16654598117306302,8.689355539464155e-2 -0.16654598117306302 0.21361332367849384c 0.0,9.558291093410572e-2 6.08254887762491e-2,0.2179580014482259 0.17523533671252717 0.2179580014482259c 3.910209992758871e-2,0.0 8.761766835626358e-2,-4.344677769732078e-3 0.11223750905141203 -2.7516292541636494e-2v -0.11078928312816799 c 0.0,-2.903692976104272e-2 -1.9623461259956555e-2,-3.1716147719044165e-2 -5.9377262853005076e-2 -3.475742215785663e-2c -4.344677769732078e-3,-4.344677769732078e-3 -4.344677769732078e-3,-2.1723388848660388e-2 0.0 -2.6068066618392467e-2c 3.186097031136858e-2,7.24112961622013e-4 6.553222302679218e-2,1.448225923244026e-3 8.979000724112962e-2 1.448225923244026e-3c 2.8964518464880525e-2,0.0 4.706734250543085e-2,-7.24112961622013e-4 6.444605358435916e-2 -1.448225923244026e-3c 4.344677769732078e-3,4.344677769732078e-3 4.344677769732078e-3,2.1723388848660388e-2 0.0 2.6068066618392467e-2c -2.0999275887038378e-2,2.172338884866039e-3 -3.33091962346126e-2,9.268645908761766e-3 -3.33091962346126e-2 3.475742215785663e-2v 8.399710354815351e-2 c 0.0,7.965242577842143e-3 3.6205648081100656e-3,1.3758146270818247e-2 1.158580738595221e-2 2.0275162925416364e-2c -4.923968139029689e-2,4.1998551774076756e-2 -0.1165821868211441,6.010137581462708e-2 -0.20202751629254165 6.010137581462708e-2c -0.1383055756698045,0.0 -0.22809558291093412,-9.934829833454017e-2 -0.22809558291093412 -0.2295438088341781c 0.0,-0.15930485155684285 0.12527154236060825,-0.2541636495293266 0.24619840695148446 -0.2541636495293266h -8.326672684688674e-17 ZM 2.299782766111514,0.0 ZM 2.5032585083272996,-0.26140477914554666 c 6.1549601737871114e-2,0.0 6.372194062273716e-2,-9.413468501086169e-3 6.58942795076032e-2 -4.9239681390296886e-2c 4.344677769732078e-3,-4.344677769732078e-3 1.9551049963794354e-2,-4.344677769732078e-3 2.3895727733526433e-2 0.0c -7.241129616220131e-4,1.7378711078928313e-2 -1.4482259232440262e-3,4.1998551774076756e-2 -1.4482259232440262e-3 6.227371469949312e-2c 0.0,2.4837074583635044e-2 7.241129616220131e-4,4.4895003620564804e-2 1.4482259232440262e-3 6.372194062273714e-2c -4.344677769732078e-3,4.344677769732078e-3 -1.9551049963794354e-2,4.344677769732078e-3 -2.3895727733526433e-2 0.0c -2.172338884866039e-3,-3.258508327299058e-2 -4.344677769732078e-3,-4.9239681390296886e-2 -6.58942795076032e-2 -4.9239681390296886e-2h -6.58942795076032e-2 v 0.16002896451846488 c 0.0,3.403330919623461e-2 1.0137581462708184e-2,4.561911658218682e-2 4.0550325850832736e-2 4.561911658218682e-2h 8.399710354815351e-2 c 5.5032585083272995e-2,0.0 8.037653874004345e-2,-4.2722664735698766e-2 9.485879797248371e-2 -9.48587979724837e-2c 9.48587979724837e-3,-2.3171614771904415e-3 1.7813178855901522e-2,-6.51697320782042e-4 2.534395365677046e-2 3.6205648081100647e-3c -5.792903692976105e-3,3.6929761042722664e-2 -1.66545981173063e-2,8.472121650977552e-2 -2.6792179580014484e-2 0.12092686459087616c 0.0,0.0 -5.792903692976105e-2,-1.448225923244026e-3 -9.268645908761768e-2 -1.448225923244026e-3h -0.1556842867487328 c -2.3895727733526433e-2,0.0 -6.734250543084722e-2,7.24112961622013e-4 -9.41346850108617e-2 1.448225923244026e-3c -4.344677769732078e-3,-4.344677769732078e-3 -4.344677769732078e-3,-1.955104996379435e-2 0.0 -2.389572773352643e-2c 5.068790731354092e-2,-2.172338884866039e-3 6.299782766111514e-2,-5.792903692976104e-3 6.299782766111514e-2 -6.589427950760318e-2v -0.2903692976104272 c 0.0,-6.010137581462708e-2 -1.2309920347574223e-2,-6.372194062273714e-2 -6.299782766111514e-2 -6.589427950760318e-2c -4.344677769732078e-3,-4.344677769732078e-3 -4.344677769732078e-3,-1.955104996379435e-2 0.0 -2.389572773352643e-2c 2.8964518464880525e-2,7.24112961622013e-4 7.132512671976829e-2,1.448225923244026e-3 9.341057204923969e-2 1.448225923244026e-3h 0.18464880521361335 c 1.7378711078928313e-2,0.0 2.317161477190442e-2,-7.24112961622013e-4 3.5481535119478644e-2 -2.896451846488052e-3c 2.172338884866039e-3,0.0 2.8964518464880524e-3,7.24112961622013e-4 2.8964518464880524e-3 2.172338884866039e-3c 1.4482259232440262e-3,5.792903692976104e-3 1.2309920347574223e-2,7.530774800868935e-2 1.593048515568429e-2 0.10499637943519188c -7.096299782766112e-3,3.403338160753077e-3 -1.4916727009413471e-2,4.923960897900072e-3 -2.3895727733526433e-2 3.6205648081100647e-3c -1.593048515568429e-2,-4.9963794351918896e-2 -2.7516292541636497e-2,-7.892831281679942e-2 -8.182476466328747e-2 -7.892831281679942e-2h -5.4308472121650984e-2 c -3.910209992758871e-2,0.0 -4.7791455467052865e-2,1.4482259232440259e-2 -4.7791455467052865e-2 4.634322954380883e-2v 0.13034033309196233 h 6.58942795076032e-2 l -1.3877787807814457e-17,2.7755575615628914e-17 ZM 2.703113685734975,0.0 ZM 2.9000724112961627,-0.44750181028240404 c -5.141202027516293e-2,0.0 -6.010137581462709e-2,2.5343953656770453e-2 -6.010137581462709e-2 4.634322954380883e-2v 0.165821868211441 h 3.475742215785663e-2 c 7.023895727733527e-2,0.0 0.1216509775524982,-2.0275162925416364e-2 0.1216509775524982 -0.11078928312816799c 0.0,-8.544532947139753e-2 -5.213613323678494e-2,-0.10137581462708181 -9.630702389572775e-2 -0.10137581462708181l 1.3877787807814457e-17,-2.7755575615628914e-17 ZM 2.9000724112961627,-0.44750181028240404 ZM 2.8399710354815357,-8.834178131788556e-2 c 0.0,6.010137581462708e-2 1.2309920347574223e-2,6.372194062273714e-2 6.299782766111514e-2 6.589427950760318e-2c 4.344677769732078e-3,4.344677769732078e-3 4.344677769732078e-3,1.955104996379435e-2 0.0 2.389572773352643e-2c -3.186097031136858e-2,-7.24112961622013e-4 -6.6183924692252e-2,-1.448225923244026e-3 -9.341057204923969e-2 -1.448225923244026e-3c -2.7878349022447502e-2,0.0 -6.1549601737871114e-2,7.24112961622013e-4 -9.41346850108617e-2 1.448225923244026e-3c -4.344677769732078e-3,-4.344677769732078e-3 -4.344677769732078e-3,-1.955104996379435e-2 0.0 -2.389572773352643e-2c 5.068790731354092e-2,-2.172338884866039e-3 6.299782766111514e-2,-5.792903692976104e-3 6.299782766111514e-2 -6.589427950760318e-2v -0.2903692976104272 c 0.0,-6.010137581462708e-2 -1.2309920347574223e-2,-6.372194062273714e-2 -6.299782766111514e-2 -6.589427950760318e-2c -4.344677769732078e-3,-4.344677769732078e-3 -4.344677769732078e-3,-1.955104996379435e-2 0.0 -2.389572773352643e-2c 3.403330919623462e-2,7.24112961622013e-4 6.806661839246923e-2,1.448225923244026e-3 9.341057204923969e-2 1.448225923244026e-3c 2.606806661839247e-2,0.0 5.648081100651702e-2,-5.068790731354091e-3 9.051412020275164e-2 -5.068790731354091e-3c 4.561911658218683e-2,0.0 9.051412020275164e-2,2.172338884866039e-3 0.12527154236060825 3.475742215785663e-2c 2.606806661839247e-2,2.4619840695148443e-2 3.837798696596669e-2,5.430847212165097e-2 3.837798696596669e-2 9.051412020275162e-2c 0.0,7.603186097031137e-2 -6.517016654598118e-2,0.11368573497465603 -9.630702389572775e-2 0.12382331643736422l 9.123823316437366e-2,0.15206372194062273 c 1.882693700217234e-2,3.142650253439536e-2 3.692976104272267e-2,5.5756698044895e-2 6.951484431571325e-2 5.5756698044895e-2c 2.8964518464880524e-3,5.792903692976104e-3 3.2585083272990588e-3,1.2382331643736423e-2 7.241129616220131e-4 1.7378711078928313e-2c -7.241129616220131e-3,3.6205648081100647e-3 -1.9551049963794354e-2,5.068790731354091e-3 -3.041274438812455e-2 5.068790731354091e-3c -4.344677769732078e-2,0.0 -7.480086893555395e-2,-3.070238957277335e-2 -9.558291093410573e-2 -6.444605358435916e-2l -7.74800868935554e-2,-0.12599565532223025 c -1.0354815351194788e-2,-1.6871832005792904e-2 -2.3895727733526433e-2,-2.7516292541636494e-2 -8.472121650977553e-2 -2.7516292541636494e-2v 0.1223750905141202 l -2.7755575615628914e-17,-4.163336342344337e-17 ZM 3.128167994207097,0.0 ZM 3.4139029688631437,-0.4569152787834902 c 7.530774800868937e-3,3.837798696596669e-2 1.0427226647356989e-2,5.865314989138305e-2 1.2961622013034033e-2 9.341057204923968e-2c -6.5170166545981175e-3,5.068790731354091e-3 -1.593048515568429e-2,5.648073859522085e-3 -2.3533671252715424e-2 4.344677769732078e-3c -1.4482259232440262e-2,-4.779145546705286e-2 -3.692976104272267e-2,-9.268645908761766e-2 -0.10724112961622013 -9.268645908761766e-2c -4.265025343953657e-2,0.0 -7.929036929761044e-2,4.055032585083273e-2 -7.929036929761044e-2 8.110065170166546e-2c 0.0,6.089790007241129e-2 7.233888486603911e-2,8.826937002172339e-2 0.11520637219406228 0.10434467776973207c 5.9666908037653885e-2,2.23750905141202e-2 0.11766835626357713,5.6118754525706006e-2 0.11766835626357713 0.1331643736422882c 0.0,4.605358435916003e-2 -2.643012309920348e-2,9.065894279507603e-2 -6.806661839246923e-2 0.11672700941346849c -2.5199131064446052e-2,1.571325126719768e-2 -5.640839971035482e-2,2.3750905141202025e-2 -8.935553946415642e-2 2.3750905141202025e-2c -6.422881969587256e-2,0.0 -8.443157132512673e-2,-1.66545981173063e-2 -0.13005068790731356 -1.66545981173063e-2c -8.689355539464157e-3,-3.548153511947864e-2 -1.158580738595221e-2,-5.430847212165097e-2 -1.4482259232440262e-2 -0.11006517016654598c 6.9514844315713255e-3,-3.6929833454018824e-3 1.4627081824764665e-2,-5.068790731354091e-3 2.3533671252715424e-2 -2.172338884866039e-3c 1.593048515568429e-2,7.204923968139029e-2 5.944967414916727e-2,0.10282404055032585 0.1270818247646633 0.10282404055032585c 5.778421433743664e-2,0.0 9.051412020275164e-2,-3.0412744388124545e-2 9.051412020275164e-2 -8.906589427950759e-2c 0.0,-7.081824764663287e-2 -5.3367125271542366e-2,-9.116582186821144e-2 -9.739319333816077e-2 -0.10789283128167994c -6.372194062273716e-2,-2.4257784214337434e-2 -0.12635771180304128,-5.9087617668356254e-2 -0.12635771180304128 -0.13540912382331644c 0.0,-7.675597393193338e-2 6.444605358435916e-2,-0.12527154236060825 0.1378711078928313 -0.12527154236060825c 7.067342505430847e-2,0.0 6.908037653874005e-2,1.3758146270818247e-2 0.11093410572049239 1.955104996379435e-2l 2.7755575615628914e-17,1.3877787807814457e-17 Z" /></g></g></g></g></svg>