<?xml version="1.0" encoding="UTF-8"?>
<!DOCTYPE svg PUBLIC "-//W3C//DTD SVG 1.1//EN"
    "http://www.w3.org/Graphics/SVG/1.1/DTD/svg11.dtd">
<svg xmlns="http://www.w3.org/2000/svg" xmlns:xlink="http://www.w3.org/1999/xlink" version="1.1" width="300.0" height="42.973577400630276" font-size="1" viewBox="0 0 300 43"><g><g stroke="rgb(0,0,0)" stroke-opacity="1.0" fill="rgb(0,0,0)" fill-opacity="0.0" stroke-width="1.0e-2" stroke-linecap="butt" stroke-linejoin="miter" font-size="1.0em" stroke-miterlimit="10.0"><g transform="matrix(83.57877748638288,0.0,0.0,83.57877748638288,150.0,21.48678870031514)"><path d="M -1.8052136133236787,0.24834658076885785 ZM -1.3577118030412745,0.16000479945097226 c 0.0,6.010137581462708e-2 1.2309920347574223e-2,6.372194062273714e-2 6.299782766111514e-2 6.589427950760318e-2c 4.344677769732078e-3,4.344677769732078e-3 4.344677769732078e-3,1.955104996379435e-2 0.0 2.389572773352643e-2c -3.186097031136858e-2,-7.24112961622013e-4 -6.64011585807386e-2,-1.448225923244026e-3 -9.341057204923969e-2 -1.448225923244026e-3c -2.6864590876176687e-2,0.0 -6.1549601737871114e-2,7.24112961622013e-4 -9.41346850108617e-2 1.448225923244026e-3c -4.344677769732078e-3,-4.344677769732078e-3 -4.344677769732078e-3,-1.955104996379435e-2 0.0 -2.389572773352643e-2c 5.068790731354092e-2,-2.172338884866039e-3 6.299782766111514e-2,-5.792903692976104e-3 6.299782766111514e-2 -6.589427950760318e-2v -0.14409847936278058 h -0.2476466328747285 v 0.14409847936278058 c 0.0,6.010137581462708e-2 1.2309920347574223e-2,6.372194062273714e-2 6.299782766111514e-2 6.589427950760318e-2c 4.344677769732078e-3,4.344677769732078e-3 4.344677769732078e-3,1.955104996379435e-2 0.0 2.389572773352643e-2c -3.186097031136858e-2,-7.24112961622013e-4 -6.712527154236061e-2,-1.448225923244026e-3 -9.341057204923969e-2 -1.448225923244026e-3c -2.7299058653149896e-2,0.0 -6.2273714699493124e-2,7.24112961622013e-4 -9.41346850108617e-2 1.448225923244026e-3c -4.344677769732078e-3,-4.344677769732078e-3 -4.344677769732078e-3,-1.955104996379435e-2 0.0 -2.389572773352643e-2c 5.068790731354092e-2,-2.172338884866039e-3 6.299782766111514e-2,-5.792903692976104e-3 6.299782766111514e-2 -6.589427950760318e-2v -0.2903692976104272 c 0.0,-6.010137581462708e-2 -1.2309920347574223e-2,-6.372194062273714e-2 -6.299782766111514e-2 -6.589427950760318e-2c -4.344677769732078e-3,-4.344677769732078e-3 -4.344677769732078e-3,-1.955104996379435e-2 0.0 -2.389572773352643e-2c 2.7516292541636497e-2,7.24112961622013e-4 5.720492396813903e-2,1.448225923244026e-3 9.341057204923969e-2 1.448225923244026e-3c 3.692976104272267e-2,0.0 6.66183924692252e-2,-7.24112961622013e-4 9.41346850108617e-2 -1.448225923244026e-3c 4.344677769732078e-3,4.344677769732078e-3 4.344677769732078e-3,1.955104996379435e-2 0.0 2.389572773352643e-2c -5.068790731354092e-2,2.172338884866039e-3 -6.299782766111514e-2,5.792903692976104e-3 -6.299782766111514e-2 6.589427950760318e-2v 0.11585807385952207 h 0.2476466328747285 v -0.11585807385952207 c 0.0,-6.010137581462708e-2 -1.2309920347574223e-2,-6.372194062273714e-2 -6.299782766111514e-2 -6.589427950760318e-2c -4.344677769732078e-3,-4.344677769732078e-3 -4.344677769732078e-3,-1.955104996379435e-2 0.0 -2.389572773352643e-2c 3.186097031136858e-2,7.24112961622013e-4 6.64011585807386e-2,1.448225923244026e-3 9.341057204923969e-2 1.448225923244026e-3c 2.7516292541636497e-2,0.0 6.444605358435916e-2,-7.24112961622013e-4 9.41346850108617e-2 -1.448225923244026e-3c 4.344677769732078e-3,4.344677769732078e-3 4.344677769732078e-3,1.955104996379435e-2 0.0 2.389572773352643e-2c -5.068790731354092e-2,2.172338884866039e-3 -6.299782766111514e-2,5.792903692976104e-3 -6.299782766111514e-2 6.589427950760318e-2v 0.2903692976104272 h -0.0 ZM -1.2766111513396092,0.24834658076885785 ZM -1.1868211440984795,4.414672559145019e-2 l 0.13106444605358436,-2.172338884866039e-3 c 7.965242577842145e-3,-1.4483128167994206e-4 1.0861694424330196e-2,-3.6205648081100647e-3 1.0861694424330196e-2 -1.0137581462708182e-2c 0.0,-6.082548877624909e-2 -3.258508327299059e-2,-7.603186097031137e-2 -6.010137581462709e-2 -7.603186097031137e-2c -1.7378711078928313e-2,0.0 -6.806661839246923e-2,6.517016654598117e-3 -8.182476466328747e-2 8.834178131788559e-2h 1.3877787807814457e-17 ZM -1.1868211440984795,4.414672559145019e-2 ZM -0.9971035481535121,0.18100407533801066 c 8.689355539464157e-3,7.24112961622013e-4 1.3034033309196235e-2,4.344677769732078e-3 1.5206372194062274e-2 1.1585807385952208e-2c -2.8964518464880525e-2,3.7653874004344674e-2 -6.806661839246923e-2,6.299782766111513e-2 -0.12309920347574223 6.299782766111513e-2c -5.213613323678494e-2,0.0 -8.616944243301956e-2,-1.7378711078928313e-2 -0.110789283128168 -4.634322954380883e-2c -2.3895727733526433e-2,-2.7516292541636494e-2 -3.403330919623462e-2,-6.66183924692252e-2 -3.403330919623462e-2 -0.10716871832005792c 0.0,-0.11006517016654598 8.182476466328747e-2,-0.17016654598117306 0.14482259232440262 -0.17016654598117306c 0.10065170166545982,0.0 0.12237509051412021,6.517016654598116e-2 0.12237509051412021 0.12599565532223025c 0.0,7.965242577842143e-3 -5.068790731354092e-3,1.2309920347574221e-2 -1.3758146270818249e-2 1.2309920347574221e-2l -0.1926140477914555,-1.448225923244026e-3 c 0.0,4.1998551774076756e-2 8.689355539464157e-3,7.530774800868935e-2 2.317161477190442e-2 9.920347574221577e-2c 2.2447501810282405e-2,3.6929761042722664e-2 5.286024619840696e-2,5.213613323678493e-2 7.892831281679942e-2 5.213613323678493e-2c 4.1998551774076756e-2,0.0 6.299782766111514e-2,-1.1585807385952208e-2 8.979000724112962e-2 -3.91020999275887e-2v 1.3877787807814457e-17 ZM -0.9529326574945692,0.24834658076885785 ZM -0.884141926140478,0.16000479945097226 v -0.3164373642288197 c 0.0,-5.430847212165097e-2 -4.344677769732078e-3,-5.6480811006517015e-2 -4.634322954380884e-2 -5.937726285300506e-2c -4.344677769732078e-3,-4.344677769732078e-3 -5.792903692976105e-3,-1.5930485155684286e-2 -4.344677769732078e-3 -2.1723388848660388e-2c 2.8964518464880525e-2,-2.172338884866039e-3 8.327299058653151e-2,-1.2309920347574221e-2 0.10137581462708184 -1.955104996379435e-2c 6.5170166545981175e-3,0.0 9.41346850108617e-3,2.172338884866039e-3 9.41346850108617e-3 7.241129616220129e-3c 0.0,0.0 -2.8964518464880524e-3,2.8964518464880518e-2 -2.8964518464880524e-3 7.603186097031137e-2v 0.333816075307748 c 0.0,6.010137581462708e-2 7.965242577842145e-3,6.372194062273714e-2 5.213613323678494e-2 6.589427950760318e-2c 4.344677769732078e-3,4.344677769732078e-3 4.344677769732078e-3,1.955104996379435e-2 0.0 2.389572773352643e-2c -2.3895727733526433e-2,-7.24112961622013e-4 -5.141202027516293e-2,-1.448225923244026e-3 -8.037653874004345e-2 -1.448225923244026e-3c -2.8964518464880525e-2,0.0 -5.5756698044895005e-2,7.24112961622013e-4 -8.110065170166547e-2 1.448225923244026e-3c -4.344677769732078e-3,-4.344677769732078e-3 -4.344677769732078e-3,-1.955104996379435e-2 0.0 -2.389572773352643e-2c 4.41708906589428e-2,-2.172338884866039e-3 5.213613323678494e-2,-5.792903692976104e-3 5.213613323678494e-2 -6.589427950760318e-2h 4.163336342344337e-17 ZM -0.7617668356263578,0.24834658076885785 ZM -0.6929761042722666,0.16000479945097226 v -0.3164373642288197 c 0.0,-5.430847212165097e-2 -4.344677769732078e-3,-5.6480811006517015e-2 -4.634322954380884e-2 -5.937726285300506e-2c -4.344677769732078e-3,-4.344677769732078e-3 -5.792903692976105e-3,-1.5930485155684286e-2 -4.344677769732078e-3 -2.1723388848660388e-2c 2.8964518464880525e-2,-2.172338884866039e-3 8.327299058653151e-2,-1.2309920347574221e-2 0.10137581462708184 -1.955104996379435e-2c 6.5170166545981175e-3,0.0 9.41346850108617e-3,2.172338884866039e-3 9.41346850108617e-3 7.241129616220129e-3c 0.0,0.0 -2.8964518464880524e-3,2.8964518464880518e-2 -2.8964518464880524e-3 7.603186097031137e-2v 0.333816075307748 c 0.0,6.010137581462708e-2 7.965242577842145e-3,6.372194062273714e-2 5.213613323678494e-2 6.589427950760318e-2c 4.344677769732078e-3,4.344677769732078e-3 4.344677769732078e-3,1.955104996379435e-2 0.0 2.389572773352643e-2c -2.3895727733526433e-2,-7.24112961622013e-4 -5.141202027516293e-2,-1.448225923244026e-3 -8.037653874004345e-2 -1.448225923244026e-3c -2.8964518464880525e-2,0.0 -5.5756698044895005e-2,7.24112961622013e-4 -8.110065170166547e-2 1.448225923244026e-3c -4.344677769732078e-3,-4.344677769732078e-3 -4.344677769732078e-3,-1.955104996379435e-2 0.0 -2.389572773352643e-2c 4.41708906589428e-2,-2.172338884866039e-3 5.213613323678494e-2,-5.792903692976104e-3 5.213613323678494e-2 -6.589427950760318e-2h 4.163336342344337e-17 ZM -0.5706010137581463,0.24834658076885785 ZM -0.5409123823316437,9.990342363634519e-2 c 0.0,-4.576393917451122e-2 1.3758146270818249e-2,-8.790731354091239e-2 4.004344677769732e-2 -0.11875452570601013c 2.650253439536568e-2,-3.113685734974656e-2 6.5821868211441e-2,-5.0687907313540906e-2 0.11346850108616945 -5.0687907313540906e-2c 0.110789283128168,0.0 0.15206372194062276,8.761766835626357e-2 0.15206372194062276 0.16292541636495292c 0.0,4.4388124547429395e-2 -1.4699493120926867e-2,8.993482983345401e-2 -4.713975380159305e-2 0.12165097755249818c -2.4692251991310647e-2,2.411296162201303e-2 -5.973931933381608e-2,4.055032585083273e-2 -0.10637219406227373 4.055032585083273e-2c -0.10282404055032586,0.0 -0.15206372194062276,-8.182476466328746e-2 -0.15206372194062276 -0.1556842867487328h 2.7755575615628914e-17 ZM -0.5409123823316437,9.990342363634519e-2 ZM -0.3982621288921073,-4.4195055726435395e-2 c -6.517016654598118e-2,0.0 -8.037653874004345e-2,6.444605358435916e-2 -8.037653874004345e-2 0.1274438812454743c 0.0,5.5756698044895e-2 2.4619840695148446e-2,0.14699493120926863 9.99275887038378e-2 0.14699493120926863c 3.403330919623462e-2,0.0 8.110065170166547e-2,-2.2447501810282402e-2 8.110065170166547e-2 -0.11368573497465603c 0.0,-0.10427226647356987 -3.837798696596669e-2,-0.16075307748008688 -0.10065170166545982 -0.16075307748008688v 2.7755575615628914e-17 ZM -2.4619840695148554e-2,0.24834658076885785 ZM 0.561911658218682,-0.16077724254757947 c 1.10789283128168e-2,-3.0847212165097754e-2 -1.8102824040550327e-2,-3.33091962346126e-2 -4.7791455467052865e-2 -3.548153511947864e-2c -4.344677769732078e-3,-4.344677769732078e-3 -4.344677769732078e-3,-1.955104996379435e-2 0.0 -2.389572773352643e-2c 2.8964518464880525e-2,7.24112961622013e-4 6.08254887762491e-2,1.448225923244026e-3 7.965242577842144e-2 1.448225923244026e-3c 1.882693700217234e-2,0.0 4.1998551774076756e-2,-7.24112961622013e-4 6.299782766111514e-2 -1.448225923244026e-3c 4.344677769732078e-3,4.344677769732078e-3 4.344677769732078e-3,1.955104996379435e-2 0.0 2.389572773352643e-2c -3.982621288921072e-2,2.172338884866039e-3 -5.293265749456915e-2,1.904417089065894e-2 -6.2273714699493124e-2 4.4170890658942794e-2l -0.14554670528602462,0.390296886314265 c -3.6205648081100656e-3,1.0861694424330194e-2 -8.689355539464157e-3,1.8826937002172337e-2 -1.66545981173063e-2 1.8826937002172337e-2c -8.689355539464157e-3,0.0 -1.2382331643736425e-2,-7.241129616220129e-3 -1.66545981173063e-2 -1.955104996379435e-2l -8.327299058653151e-2,-0.24040550325850832 c -4.272259232440261e-3,-1.2382331643736423e-2 -7.241129616220131e-3,-2.0275162925416364e-2 -1.0137581462708184e-2 -2.0275162925416364e-2c -3.6205648081100656e-3,0.0 -5.865322230267922e-3,3.6205648081100647e-3 -1.2309920347574223e-2 1.8102824040550324e-2l -0.10789283128167995,0.24257784214337436 c -5.358428674873281e-3,1.2020275162925417e-2 -9.41346850108617e-3,1.955104996379435e-2 -1.882693700217234e-2 1.955104996379435e-2c -8.32729905865315e-3,0.0 -1.2020275162925418e-2,-8.037653874004343e-3 -1.593048515568429e-2 -1.955104996379435e-2l -0.13613323678493847,-0.391745112237509 c -1.3468501086169444e-2,-3.874004344677769e-2 -1.882693700217234e-2,-3.982621288921071e-2 -5.141202027516293e-2 -4.1998551774076756e-2c -4.344677769732078e-3,-4.344677769732078e-3 -4.344677769732078e-3,-1.955104996379435e-2 0.0 -2.389572773352643e-2c 2.0999275887038378e-2,7.24112961622013e-4 4.2215785662563364e-2,1.448225923244026e-3 6.734250543084722e-2 1.448225923244026e-3c 2.824040550325851e-2,0.0 6.010137581462709e-2,-7.24112961622013e-4 8.399710354815351e-2 -1.448225923244026e-3c 4.344677769732078e-3,4.344677769732078e-3 4.344677769732078e-3,1.955104996379435e-2 0.0 2.389572773352643e-2c -2.534395365677046e-2,1.448225923244026e-3 -4.460535843591601e-2,4.996393917451122e-3 -3.6205648081100654e-2 3.0412744388124545e-2l 0.1058653149891383,0.32027516292541636 l 3.1136784938450403e-3,7.24112961622013e-4 l 9.37726285300507e-2,-0.2123823316437364 c 5.430847212165098e-3,-1.2237509051412018e-2 6.5170166545981175e-3,-1.788559015206372e-2 6.5170166545981175e-3 -2.5343953656770453e-2c 0.0,-6.517016654598117e-3 -2.244757422157857e-3,-1.3758146270818247e-2 -5.068790731354092e-3 -2.2447501810282402e-2l -1.66545981173063e-2,-4.779145546705286e-2 c -6.5170166545981175e-3,-1.8609703113685733e-2 -2.2447501810282405e-2,-4.127443881245474e-2 -6.08254887762491e-2 -4.3446777697320776e-2c -4.344677769732078e-3,-4.344677769732078e-3 -4.344677769732078e-3,-1.955104996379435e-2 0.0 -2.389572773352643e-2c 2.317161477190442e-2,7.24112961622013e-4 4.8515568428674875e-2,1.448225923244026e-3 7.241129616220131e-2 1.448225923244026e-3c 2.8964518464880525e-2,0.0 6.08254887762491e-2,-7.24112961622013e-4 9.051412020275164e-2 -1.448225923244026e-3c 4.344677769732078e-3,4.344677769732078e-3 4.344677769732078e-3,1.955104996379435e-2 0.0 2.389572773352643e-2c -2.4619840695148446e-2,2.172338884866039e-3 -5.032585083272991e-2,4.489507603186097e-3 -3.765387400434468e-2 4.3446777697320776e-2l 9.95655322230268e-2,0.30557566980448947 l 2.317168718320058e-3,9.413468501086169e-4 l 0.11317885590152064,-0.3144822592324402 ZM 0.6060825488776249,0.24834658076885785 ZM 0.6357711803041273,9.990342363634519e-2 c 0.0,-4.576393917451122e-2 1.3758146270818249e-2,-8.790731354091239e-2 4.004344677769732e-2 -0.11875452570601013c 2.650253439536568e-2,-3.113685734974656e-2 6.5821868211441e-2,-5.0687907313540906e-2 0.11346850108616945 -5.0687907313540906e-2c 0.110789283128168,0.0 0.15206372194062276,8.761766835626357e-2 0.15206372194062276 0.16292541636495292c 0.0,4.4388124547429395e-2 -1.4699493120926867e-2,8.993482983345401e-2 -4.713975380159305e-2 0.12165097755249818c -2.4692251991310647e-2,2.411296162201303e-2 -5.973931933381608e-2,4.055032585083273e-2 -0.10637219406227373 4.055032585083273e-2c -0.10282404055032586,0.0 -0.15206372194062276,-8.182476466328746e-2 -0.15206372194062276 -0.1556842867487328h 2.7755575615628914e-17 ZM 0.6357711803041273,9.990342363634519e-2 ZM 0.7784214337436639,-4.4195055726435395e-2 c -6.517016654598118e-2,0.0 -8.037653874004345e-2,6.444605358435916e-2 -8.037653874004345e-2 0.1274438812454743c 0.0,5.5756698044895e-2 2.4619840695148446e-2,0.14699493120926863 9.99275887038378e-2 0.14699493120926863c 3.403330919623462e-2,0.0 8.110065170166547e-2,-2.2447501810282402e-2 8.110065170166547e-2 -0.11368573497465603c 0.0,-0.10427226647356987 -3.837798696596669e-2,-0.16075307748008688 -0.10065170166545982 -0.16075307748008688v 2.7755575615628914e-17 ZM 0.9710354815351194,0.24834658076885785 ZM 1.0984793627805938,-1.0885859491822802e-2 c 1.4482041998551776e-4,3.6205648081100647e-3 3.6205648081100656e-3,9.413468501086169e-3 7.965242577842145e-3 1.448225923244026e-3c 1.66545981173063e-2,-2.8240405503258507e-2 4.634322954380884e-2,-6.010137581462708e-2 8.037653874004345e-2 -6.010137581462708e-2c 3.041274438812455e-2,0.0 4.344677769732078e-2,2.0926864590876174e-2 4.344677769732078e-2 3.475742215785663e-2c 0.0,1.8102824040550324e-2 -1.66545981173063e-2,3.620564808110065e-2 -3.403330919623462e-2 3.620564808110065e-2c -1.2599565532223026e-2,0.0 -2.0709630702389577e-2,-9.630702389572773e-3 -2.6212889210716878e-2 -1.6871832005792904e-2c -5.648073859522086e-3,-7.458363504706734e-3 -1.216509775524982e-2,-9.196234612599564e-3 -1.868211440984794e-2 -9.196234612599564e-3c -8.689355539464157e-3,0.0 -2.534395365677046e-2,2.389572773352643e-2 -3.33091962346126e-2 3.548153511947864e-2c -8.689355539464157e-3,1.3034033309196233e-2 -1.7378711078928313e-2,2.968863142650253e-2 -1.7378711078928313e-2 4.851556842867487e-2v 0.10065170166545981 c 0.0,6.010137581462708e-2 8.689355539464157e-3,6.227371469949312e-2 5.9377262853005076e-2 6.589427950760318e-2c 4.344677769732078e-3,4.344677769732078e-3 4.344677769732078e-3,1.955104996379435e-2 0.0 2.389572773352643e-2c -2.534395365677046e-2,-7.24112961622013e-4 -5.865314989138306e-2,-1.448225923244026e-3 -8.761766835626358e-2 -1.448225923244026e-3c -2.8964518464880525e-2,0.0 -5.720492396813903e-2,7.24112961622013e-4 -8.254887762490949e-2 1.448225923244026e-3c -4.344677769732078e-3,-4.344677769732078e-3 -4.344677769732078e-3,-1.955104996379435e-2 0.0 -2.389572773352643e-2c 4.489500362056481e-2,-2.896451846488052e-3 5.358435916002897e-2,-5.792903692976104e-3 5.358435916002897e-2 -6.589427950760318e-2v -0.14120202751629254 c 0.0,-4.1998551774076756e-2 -7.965242577842145e-3,-4.561911658218682e-2 -4.706734250543085e-2 -4.9239681390296886e-2c -1.4482259232440262e-3,-4.344677769732078e-3 -2.8964518464880524e-3,-1.5930485155684286e-2 -1.4482259232440262e-3 -2.0275162925416364e-2c 4.99637943519189e-2,-6.517016654598117e-3 6.879073135409125e-2,-1.3034033309196233e-2 8.90658942795076e-2 -2.0999275887038378e-2c 5.792903692976105e-3,0.0 7.168711078928314e-3,2.461976828385228e-3 8.689355539464157e-3 5.792903692976104e-3c 3.4033309196234616e-3,7.458363504706734e-3 4.561911658218683e-3,2.6068066618392467e-2 5.792903692976105e-3 5.503258508327299e-2h 1.8214596497756474e-17 ZM 1.2404055032585082,0.24834658076885785 ZM 1.3091962346125996,0.16000479945097226 v -0.3164373642288197 c 0.0,-5.430847212165097e-2 -4.344677769732078e-3,-5.6480811006517015e-2 -4.634322954380884e-2 -5.937726285300506e-2c -4.344677769732078e-3,-4.344677769732078e-3 -5.792903692976105e-3,-1.5930485155684286e-2 -4.344677769732078e-3 -2.1723388848660388e-2c 2.8964518464880525e-2,-2.172338884866039e-3 8.327299058653151e-2,-1.2309920347574221e-2 0.10137581462708184 -1.955104996379435e-2c 6.5170166545981175e-3,0.0 9.41346850108617e-3,2.172338884866039e-3 9.41346850108617e-3 7.241129616220129e-3c 0.0,0.0 -2.8964518464880524e-3,2.8964518464880518e-2 -2.8964518464880524e-3 7.603186097031137e-2v 0.333816075307748 c 0.0,6.010137581462708e-2 7.965242577842145e-3,6.372194062273714e-2 5.213613323678494e-2 6.589427950760318e-2c 4.344677769732078e-3,4.344677769732078e-3 4.344677769732078e-3,1.955104996379435e-2 0.0 2.389572773352643e-2c -2.3895727733526433e-2,-7.24112961622013e-4 -5.141202027516293e-2,-1.448225923244026e-3 -8.037653874004345e-2 -1.448225923244026e-3c -2.8964518464880525e-2,0.0 -5.5756698044895005e-2,7.24112961622013e-4 -8.110065170166547e-2 1.448225923244026e-3c -4.344677769732078e-3,-4.344677769732078e-3 -4.344677769732078e-3,-1.955104996379435e-2 0.0 -2.389572773352643e-2c 4.41708906589428e-2,-2.172338884866039e-3 5.213613323678494e-2,-5.792903692976104e-3 5.213613323678494e-2 -6.589427950760318e-2h 4.163336342344337e-17 ZM 1.4315713251267197,0.24834658076885785 ZM 1.6813902968863141,0.15855657352772823 v -0.13758146270818247 c 0.0,-2.2447501810282402e-2 -2.172338884866039e-3,-2.7516292541636494e-2 -1.2309920347574223e-2 -3.91020999275887e-2c -1.4482259232440262e-2,-1.66545981173063e-2 -3.258508327299059e-2,-2.6068066618392467e-2 -5.865314989138306e-2 -2.6068066618392467e-2c -1.4482259232440262e-2,0.0 -4.489500362056481e-2,2.172338884866039e-3 -6.734250543084722e-2 3.620564808110065e-2c -1.0861694424330196e-2,1.5206372194062272e-2 -2.0999275887038378e-2,4.4170890658942794e-2 -2.0999275887038378e-2 9.630702389572773e-2c 0.0,9.051412020275162e-2 4.0550325850832736e-2,0.1332367849384504 7.965242577842144e-2 0.1332367849384504c 1.8102824040550327e-2,0.0 4.1274438812454746e-2,-1.1585807385952208e-2 6.806661839246923e-2 -3.475742215785663e-2c 1.0209992758870384e-2,-8.834178131788557e-3 1.158580738595221e-2,-1.4482259232440259e-2 1.158580738595221e-2 -2.8240405503258507e-2l 8.673617379884035e-18,2.0816681711721685e-17 ZM 1.6813902968863141,0.15855657352772823 ZM 1.6734250543084723,0.2119236987992706 c -3.5481535119478644e-2,2.9181752353367122e-2 -6.2273714699493124e-2,4.3664011585807384e-2 -9.051412020275164e-2 4.3664011585807384e-2c -7.820419985517742e-2,0.0 -0.12309920347574223,-6.517016654598116e-2 -0.12309920347574223 -0.15423606082548877c 0.0,-5.358435916002896e-2 1.882693700217234e-2,-9.630702389572773e-2 4.99637943519189e-2 -0.1274438812454743c 2.8964518464880525e-2,-2.7516292541636494e-2 6.08254887762491e-2,-4.3446777697320776e-2 0.10861694424330197 -4.3446777697320776e-2c 2.3895727733526433e-2,0.0 5.358435916002897e-2,1.2309920347574221e-2 5.648081100651702e-2 1.2309920347574221e-2c 5.068790731354092e-3,0.0 6.5170166545981175e-3,-1.448225923244026e-3 6.5170166545981175e-3 -6.517016654598117e-3v -9.268645908761766e-2 c 0.0,-6.082548877624909e-2 -8.689355539464157e-3,-5.7204923968139025e-2 -4.634322954380884e-2 -5.937726285300506e-2c -4.344677769732078e-3,-4.344677769732078e-3 -5.792903692976105e-3,-1.5930485155684286e-2 -4.344677769732078e-3 -2.1723388848660388e-2c 2.8964518464880525e-2,-2.172338884866039e-3 8.327299058653151e-2,-1.2309920347574221e-2 0.10137581462708184 -1.955104996379435e-2c 6.5170166545981175e-3,0.0 9.41346850108617e-3,2.172338884866039e-3 9.41346850108617e-3 7.241129616220129e-3c 0.0,0.0 -2.8964518464880524e-3,2.8964518464880518e-2 -2.8964518464880524e-3 7.603186097031137e-2v 0.3280231716147719 c 0.0,3.548153511947864e-2 6.5170166545981175e-3,4.9239681390296886e-2 5.286024619840696e-2 5.286024619840695e-2c 4.344677769732078e-3,4.344677769732078e-3 4.344677769732078e-3,1.5206372194062272e-2 0.0 1.955104996379435e-2c -4.41708906589428e-2,5.068790731354091e-3 -6.951484431571325e-2,1.5930485155684286e-2 -8.544532947139755e-2 2.8964518464880518e-2c -4.344677769732078e-3,1.8102824040550324e-3 -7.965242577842145e-3,2.172338884866039e-3 -1.3758146270818249e-2 0.0c 0.0,0.0 -6.1549601737871116e-3,-2.4981897175959448e-2 -7.965242577842145e-3 -4.2722664735698766e-2c -5.068877624909486e-4,-5.068790731354091e-3 -7.385952208544533e-3,-3.7653874004344675e-3 -1.0861694424330196e-2 -9.413468501086169e-4l 8.673617379884035e-18,-1.5070410197548512e-17 Z" /></g></g></g></svg>