<?xml version="1.0" encoding="UTF-8"?>
<!DOCTYPE svg PUBLIC "-//W3C//DTD SVG 1.1//EN"
    "http://www.w3.org/Graphics/SVG/1.1/DTD/svg11.dtd">
<svg xmlns="http://www.w3.org/2000/svg" xmlns:xlink="http://www.w3.org/1999/xlink" version="1.1" width="400.0" height="82.82355763464074" font-size="1" viewBox="0 0 400 83"><g><g transform="matrix(28.571428571428566,0.0,0.0,28.571428571428566,0.0,82.82355763464074)"><g stroke="rgb(0,0,0)" stroke-opacity="1.0" fill="rgb(211,211,211)" fill-opacity="1.0" stroke-width="0.0" fill-rule="evenodd" font-size="1.0em"><path d="M 14.000000000000004,-2.220446049250313e-16 l -1.110223024625157e-15,-2.8988245172124265 h -10.000000000000004 l -1.110223024625157e-15,2.8988245172124265 Z" /></g></g><g transform="matrix(28.571428571428566,0.0,0.0,28.571428571428566,0.0,82.82355763464074)"><g stroke="rgb(0,0,255)" stroke-opacity="1.0" fill="rgb(0,0,255)" fill-opacity="1.0" stroke-width="1.0e-2" fill-rule="evenodd" font-size="1.0em"><path d="M 4.0000000000000036,-0.5373635600335854 ZM 5.29722921914358,-0.7934508816120909 c 0.0,0.17422334172963896 3.5684298908480266e-2,0.1847187237615449 0.18261964735516373 0.1910159529806885c 1.2594458438287152e-2,1.2594458438287152e-2 1.2594458438287152e-2,5.667506297229219e-2 0.0 6.926952141057935e-2c -9.235936188077246e-2,-2.0990764063811922e-3 -0.19248530646515533,-4.1981528127623844e-3 -0.2707808564231738 -4.1981528127623844e-3c -7.787573467674223e-2,0.0 -0.17842149454240133,2.0990764063811922e-3 -0.27287993282955497 4.1981528127623844e-3c -1.2594458438287152e-2,-1.2594458438287152e-2 -1.2594458438287152e-2,-5.667506297229219e-2 0.0 -6.926952141057935e-2c 0.14693534844668346,-6.297229219143576e-3 0.18261964735516373,-1.6792611251049538e-2 0.18261964735516373 -0.1910159529806885v -0.4177162048698573 h -0.7178841309823677 v 0.4177162048698573 c 0.0,0.17422334172963896 3.5684298908480266e-2,0.1847187237615449 0.18261964735516373 0.1910159529806885c 1.2594458438287152e-2,1.2594458438287152e-2 1.2594458438287152e-2,5.667506297229219e-2 0.0 6.926952141057935e-2c -9.235936188077246e-2,-2.0990764063811922e-3 -0.19458438287153654,-4.1981528127623844e-3 -0.2707808564231738 -4.1981528127623844e-3c -7.913518052057095e-2,0.0 -0.18052057094878254,2.0990764063811922e-3 -0.27287993282955497 4.1981528127623844e-3c -1.2594458438287152e-2,-1.2594458438287152e-2 -1.2594458438287152e-2,-5.667506297229219e-2 0.0 -6.926952141057935e-2c 0.14693534844668346,-6.297229219143576e-3 0.18261964735516373,-1.6792611251049538e-2 0.18261964735516373 -0.1910159529806885v -0.8417296389588581 c 0.0,-0.17422334172963896 -3.5684298908480266e-2,-0.1847187237615449 -0.18261964735516373 -0.1910159529806885c -1.2594458438287152e-2,-1.2594458438287152e-2 -1.2594458438287152e-2,-5.667506297229219e-2 0.0 -6.926952141057935e-2c 7.976490344248531e-2,2.0990764063811922e-3 0.16582703610411417,4.1981528127623844e-3 0.2707808564231738 4.1981528127623844e-3c 0.1070528967254408,0.0 0.19311502938706968,-2.0990764063811922e-3 0.27287993282955497 -4.1981528127623844e-3c 1.2594458438287152e-2,1.2594458438287152e-2 1.2594458438287152e-2,5.667506297229219e-2 0.0 6.926952141057935e-2c -0.14693534844668346,6.297229219143576e-3 -0.18261964735516373,1.6792611251049538e-2 -0.18261964735516373 0.1910159529806885v 0.33585222502099077 h 0.7178841309823677 v -0.33585222502099077 c 0.0,-0.17422334172963896 -3.5684298908480266e-2,-0.1847187237615449 -0.18261964735516373 -0.1910159529806885c -1.2594458438287152e-2,-1.2594458438287152e-2 -1.2594458438287152e-2,-5.667506297229219e-2 0.0 -6.926952141057935e-2c 9.235936188077246e-2,2.0990764063811922e-3 0.19248530646515533,4.1981528127623844e-3 0.2707808564231738 4.1981528127623844e-3c 7.976490344248531e-2,0.0 0.1868178001679261,-2.0990764063811922e-3 0.27287993282955497 -4.1981528127623844e-3c 1.2594458438287152e-2,1.2594458438287152e-2 1.2594458438287152e-2,5.667506297229219e-2 0.0 6.926952141057935e-2c -0.14693534844668346,6.297229219143576e-3 -0.18261964735516373,1.6792611251049538e-2 -0.18261964735516373 0.1910159529806885v 0.8417296389588581 ZM 5.532325776658274,-0.5373635600335854 ZM 6.122166246851389,-1.2951301427371957 c 0.17842149454240133,0.0 0.1847187237615449,-2.72879932829555e-2 0.1910159529806885 -0.14273719563392107c 1.2594458438287152e-2,-1.2594458438287152e-2 5.667506297229219e-2,-1.2594458438287152e-2 6.926952141057935e-2 0.0c -2.0990764063811922e-3,5.037783375314861e-2 -4.1981528127623844e-3,0.12174643157010914 -4.1981528127623844e-3 0.18052057094878254c 0.0,7.199832073887488e-2 2.0990764063811922e-3,0.1301427371956339 4.1981528127623844e-3 0.1847187237615449c -1.2594458438287152e-2,1.2594458438287152e-2 -5.667506297229219e-2,1.2594458438287152e-2 -6.926952141057935e-2 0.0c -6.297229219143576e-3,-9.445843828715365e-2 -1.2594458438287152e-2,-0.14273719563392107 -0.1910159529806885 -0.14273719563392107h -0.1910159529806885 v 0.4638958858102435 c 0.0,9.865659109991604e-2 2.938706968933669e-2,0.13224181360201512 0.11754827875734676 0.13224181360201512h 0.24349286314021829 c 0.15952980688497062,0.0 0.23299748110831234,-0.12384550797649034 0.27497900923593616 -0.27497900923593616c 2.7497900923593617e-2,-6.717044500419815e-3 5.163727959697733e-2,-1.8891561712846348e-3 7.346767422334173e-2 1.0495382031905962e-2c -1.6792611251049538e-2,0.1070528967254408 -4.827875734676742e-2,0.2455919395465995 -7.766582703610411e-2 0.3505457598656591c 0.0,0.0 -0.16792611251049538,-4.1981528127623844e-3 -0.2686817800167926 -4.1981528127623844e-3h -0.45130142737195633 c -6.926952141057935e-2,0.0 -0.1952141057934509,2.0990764063811922e-3 -0.27287993282955497 4.1981528127623844e-3c -1.2594458438287152e-2,-1.2594458438287152e-2 -1.2594458438287152e-2,-5.667506297229219e-2 0.0 -6.926952141057935e-2c 0.14693534844668346,-6.297229219143576e-3 0.18261964735516373,-1.6792611251049538e-2 0.18261964735516373 -0.1910159529806885v -0.8417296389588581 c 0.0,-0.17422334172963896 -3.5684298908480266e-2,-0.1847187237615449 -0.18261964735516373 -0.1910159529806885c -1.2594458438287152e-2,-1.2594458438287152e-2 -1.2594458438287152e-2,-5.667506297229219e-2 0.0 -6.926952141057935e-2c 8.396305625524769e-2,2.0990764063811922e-3 0.20675902602854743,4.1981528127623844e-3 0.2707808564231738 4.1981528127623844e-3h 0.535264483627204 c 5.037783375314861e-2,0.0 6.717044500419815e-2,-2.0990764063811922e-3 0.10285474391267842 -8.396305625524769e-3c 6.297229219143576e-3,0.0 8.396305625524769e-3,2.0990764063811922e-3 8.396305625524769e-3 6.297229219143576e-3c 4.1981528127623844e-3,1.6792611251049538e-2 3.5684298908480266e-2,0.218303946263644 4.617968094038623e-2 0.3043660789252729c -2.057092779177162e-2,9.865680100755668e-3 -4.324097397145256e-2,1.4273698572628044e-2 -6.926952141057935e-2 1.0495382031905962e-2c -4.617968094038623e-2,-0.14483627204030225 -7.976490344248531e-2,-0.22879932829554994 -0.23719563392107473 -0.22879932829554994h -0.1574307304785894 c -0.11335012594458438,0.0 -0.1385390428211587,4.1981528127623846e-2 -0.1385390428211587 0.1343408900083963v 0.3778337531486146 h 0.1910159529806885 ZM 6.701511335012598,-0.5373635600335854 ZM 7.253568429890851,-1.131402183039463 h 0.371536523929471 l -0.19731318219983207,-0.5709487825356843 h -1.2594458438287152e-2 l -0.21452560873215784,0.5430310663308144 c -7.97649034424853e-3,2.162048698572628e-2 6.717044500419815e-3,2.791771620486986e-2 5.289672544080604e-2 2.791771620486986e-2ZM 7.253568429890851,-1.131402183039463 ZM 7.026868178001683,-0.7031905961376996 c -3.27455919395466e-2,8.6272040302267e-2 6.591099916036944e-2,9.529806884970612e-2 0.14483627204030225 0.10075566750629722c 1.2594458438287152e-2,1.2594458438287152e-2 1.2594458438287152e-2,5.667506297229219e-2 0.0 6.926952141057935e-2c -7.766582703610411e-2,-2.0990764063811922e-3 -0.18261964735516373,-4.1981528127623844e-3 -0.2686817800167926 -4.1981528127623844e-3c -6.360201511335012e-2,0.0 -0.13224181360201512,2.0990764063811922e-3 -0.1868178001679261 4.1981528127623844e-3c -1.2594458438287152e-2,-1.2594458438287152e-2 -1.2594458438287152e-2,-5.667506297229219e-2 0.0 -6.926952141057935e-2c 9.130982367758186e-2,-6.297229219143576e-3 0.15533165407220823,-1.889168765743073e-2 0.20990764063811923 -0.14903442485306465l 0.47649034424853065,-1.125104953820319 c 2.72879932829555e-2,0.0 8.396305625524769e-2,-2.3089840470193114e-2 0.11544920235096558 -4.1981528127623846e-2l 0.4324097397145256,1.200671704450042 c 3.6523929471032744e-2,0.10117548278757348 0.10747271200671704,0.1081024349286314 0.1889168765743073 0.11544920235096558c 1.2594458438287152e-2,1.2594458438287152e-2 1.2594458438287152e-2,5.667506297229219e-2 0.0 6.926952141057935e-2c -7.346767422334173e-2,-2.0990764063811922e-3 -0.15323257766582704,-4.1981528127623844e-3 -0.23929471032745592 -4.1981528127623844e-3c -8.18639798488665e-2,0.0 -0.19731318219983207,2.0990764063811922e-3 -0.27497900923593616 4.1981528127623844e-3c -1.2594458438287152e-2,-1.2594458438287152e-2 -1.2594458438287152e-2,-5.667506297229219e-2 0.0 -6.926952141057935e-2c 9.991603694374475e-2,-7.136859781696053e-3 0.18010075566750627,-1.364399664147775e-2 0.15533165407220823 -8.606213266162888e-2l -0.12174643157010914,-0.3547439126784215 h -0.44290512174643154 c -5.037783375314861e-2,0.0 -6.297229219143577e-2,8.396305625524769e-3 -7.346767422334173e-2 3.5684298908480266e-2ZM 8.160369437447526,-0.5373635600335854 ZM 8.561293031066334,-0.7136859781696056 c 0.0,6.717044500419815e-2 2.3089840470193114e-2,0.109151973131822 0.22879932829554994 0.109151973131822c 0.2959697732997481,0.0 0.5499580184718723,-0.10495382031905962 0.5499580184718723 -0.5289672544080605c 0.0,-0.3232577665827036 -0.14903442485306465,-0.6905961376994122 -0.6024349286314021 -0.6905961376994122c -0.10285474391267842,0.0 -0.17632241813602015,2.938706968933669e-2 -0.17632241813602015 0.10285474391267842v 1.0075566750629723 ZM 8.561293031066334,-0.7136859781696056 ZM 8.471032745591943,-1.8912678421494544 c 8.18639798488665e-2,0.0 0.19731318219983207,-4.1981528127623844e-3 0.3463476070528967 -4.1981528127623844e-3c 0.4030226700251889,0.0 0.7241813602015114,0.3211586901763224 0.7241813602015114 0.7115869017632241c 0.0,0.5163727959697733 -0.3904282115869018,0.6507136859781696 -0.6863979848866498 0.6507136859781696c -0.2162048698572628,0.0 -0.3043660789252729,-4.1981528127623844e-3 -0.382031905961377 -4.1981528127623844e-3c -7.913518052057095e-2,0.0 -0.1910159529806885,2.0990764063811922e-3 -0.27287993282955497 4.1981528127623844e-3c -1.2594458438287152e-2,-1.2594458438287152e-2 -1.2594458438287152e-2,-5.667506297229219e-2 0.0 -6.926952141057935e-2c 0.14693534844668346,-6.297229219143576e-3 0.18261964735516373,-1.6792611251049538e-2 0.18261964735516373 -0.1910159529806885v -0.8417296389588581 c 0.0,-0.17422334172963896 -3.5684298908480266e-2,-0.1847187237615449 -0.18261964735516373 -0.1910159529806885c -1.2594458438287152e-2,-1.2594458438287152e-2 -1.2594458438287152e-2,-5.667506297229219e-2 0.0 -6.926952141057935e-2c 8.396305625524769e-2,2.0990764063811922e-3 0.19584382871536524,4.1981528127623844e-3 0.2707808564231738 4.1981528127623844e-3ZM 9.631821998320742,-0.5373635600335854 ZM 9.94458438287154,-0.5373635600335854 c -7.073887489504618e-2,0.0 -0.1910159529806885,2.0990764063811922e-3 -0.27287993282955497 4.1981528127623844e-3c -1.2594458438287152e-2,-1.2594458438287152e-2 -1.2594458438287152e-2,-5.667506297229219e-2 0.0 -6.926952141057935e-2c 0.14693534844668346,-6.297229219143576e-3 0.18261964735516373,-1.6792611251049538e-2 0.18261964735516373 -0.1910159529806885v -0.8417296389588581 c 0.0,-0.17422334172963896 -3.5684298908480266e-2,-0.1847187237615449 -0.18261964735516373 -0.1910159529806885c -1.2594458438287152e-2,-1.2594458438287152e-2 -1.2594458438287152e-2,-5.667506297229219e-2 0.0 -6.926952141057935e-2c 9.655751469353484e-2,2.0990764063811922e-3 0.19500419815281278,4.1981528127623844e-3 0.2707808564231738 4.1981528127623844e-3c 7.997481108312343e-2,0.0 0.17842149454240133,-2.0990764063811922e-3 0.27287993282955497 -4.1981528127623844e-3c 1.2594458438287152e-2,1.2594458438287152e-2 1.2594458438287152e-2,5.667506297229219e-2 0.0 6.926952141057935e-2c -0.14693534844668346,6.297229219143576e-3 -0.18261964735516373,1.6792611251049538e-2 -0.18261964735516373 0.1910159529806885v 0.8690176322418136 c 0.0,0.1070528967254408 3.778337531486146e-2,0.14693534844668346 0.11964735516372796 0.14693534844668346h 0.13224181360201512 c 0.22250209907640636,0.0 0.3001679261125105,-0.12384550797649034 0.3421494542401343 -0.27497900923593616c 2.6028547439126783e-2,-3.778337531486146e-3 4.869857262804366e-2,6.297292191435769e-4 6.926952141057935e-2 1.0495382031905962e-2c -1.2594458438287152e-2,0.109151973131822 -3.3585222502099076e-2,0.2455919395465995 -5.4575986565911e-2 0.3505457598656591c 0.0,0.0 -0.19311502938706968,-4.1981528127623844e-3 -0.2504198152812762 -4.1981528127623844e-3h -0.4464735516372796 ZM 10.740134340890013,-0.5373635600335854 ZM 11.141057934508819,-0.7934508816120909 c 0.0,0.17422334172963896 3.5684298908480266e-2,0.1847187237615449 0.18261964735516373 0.1910159529806885c 1.2594458438287152e-2,1.2594458438287152e-2 1.2594458438287152e-2,5.667506297229219e-2 0.0 6.926952141057935e-2c -9.445843828715365e-2,-2.0990764063811922e-3 -0.19605373635600337,-4.1981528127623844e-3 -0.2707808564231738 -4.1981528127623844e-3c -7.619647355163728e-2,0.0 -0.17842149454240133,2.0990764063811922e-3 -0.27287993282955497 4.1981528127623844e-3c -1.2594458438287152e-2,-1.2594458438287152e-2 -1.2594458438287152e-2,-5.667506297229219e-2 0.0 -6.926952141057935e-2c 0.14693534844668346,-6.297229219143576e-3 0.18261964735516373,-1.6792611251049538e-2 0.18261964735516373 -0.1910159529806885v -0.8417296389588581 c 0.0,-0.17422334172963896 -3.5684298908480266e-2,-0.1847187237615449 -0.18261964735516373 -0.1910159529806885c -1.2594458438287152e-2,-1.2594458438287152e-2 -1.2594458438287152e-2,-5.667506297229219e-2 0.0 -6.926952141057935e-2c 9.865659109991604e-2,2.0990764063811922e-3 0.20046179680940385,4.1981528127623844e-3 0.2707808564231738 4.1981528127623844e-3c 8.08144416456759e-2,0.0 0.18052057094878254,-2.0990764063811922e-3 0.27287993282955497 -4.1981528127623844e-3c 1.2594458438287152e-2,1.2594458438287152e-2 1.2594458438287152e-2,5.667506297229219e-2 0.0 6.926952141057935e-2c -0.14693534844668346,6.297229219143576e-3 -0.18261964735516373,1.6792611251049538e-2 -0.18261964735516373 0.1910159529806885v 0.8417296389588581 ZM 11.363560033585227,-0.5373635600335854 ZM 12.530646515533169,-1.6120906801007557 c 0.0,-0.1910159529806885 -3.5684298908480266e-2,-0.19941225860621326 -0.18261964735516373 -0.2141057934508816c -1.2594458438287152e-2,-1.2594458438287152e-2 -1.2594458438287152e-2,-5.667506297229219e-2 0.0 -6.926952141057935e-2c 9.235936188077246e-2,2.0990764063811922e-3 0.18828715365239296,4.1981528127623844e-3 0.23299748110831234 4.1981528127623844e-3c 4.974811083123425e-2,0.0 0.14903442485306465,-2.0990764063811922e-3 0.23509655751469352 -4.1981528127623844e-3c 1.2594458438287152e-2,1.2594458438287152e-2 1.2594458438287152e-2,5.667506297229219e-2 0.0 6.926952141057935e-2c -0.14693534844668346,1.4693534844668345e-2 -0.18261964735516373,2.72879932829555e-2 -0.18261964735516373 0.2141057934508816v 1.0306465155331654 c 0.0,3.9882451721242655e-2 -1.889168765743073e-2,6.507136859781695e-2 -4.827875734676742e-2 6.507136859781695e-2c -3.3585222502099076e-2,0.0 -6.087321578505457e-2,-1.889168765743073e-2 -8.396305625524769e-2 -5.037783375314861e-2l -0.7325776658270361,-0.9256926952141058 c -3.5684298908480266e-2,-4.617968094038623e-2 -5.877413937867338e-2,-6.926952141057935e-2 -7.136859781696053e-2 -6.926952141057935e-2c -1.6792611251049538e-2,0.0 -1.6792611251049538e-2,3.1486146095717885e-2 -1.6792611251049538e-2 0.10285474391267842v 0.6423173803526449 c 0.0,0.1910159529806885 3.5684298908480266e-2,0.19941225860621326 0.18261964735516373 0.2141057934508816c 1.2594458438287152e-2,1.2594458438287152e-2 1.2594458438287152e-2,5.667506297229219e-2 0.0 6.926952141057935e-2c -8.816120906801007e-2,-2.0990764063811922e-3 -0.1845088161209068,-4.1981528127623844e-3 -0.23299748110831234 -4.1981528127623844e-3c -4.953820319059614e-2,0.0 -0.14483627204030225,2.0990764063811922e-3 -0.23509655751469352 4.1981528127623844e-3c -1.2594458438287152e-2,-1.2594458438287152e-2 -1.2594458438287152e-2,-5.667506297229219e-2 0.0 -6.926952141057935e-2c 0.14693534844668346,-1.4693534844668345e-2 0.18261964735516373,-2.72879932829555e-2 0.18261964735516373 -0.2141057934508816v -0.8753148614609572 c -1.2594458438287152e-2,-5.4575986565911e-2 -7.556675062972291e-2,-0.12804366078925272 -0.16582703610411417 -0.1343408900083963c -1.2594458438287152e-2,-1.2594458438287152e-2 -1.2594458438287152e-2,-5.667506297229219e-2 0.0 -6.926952141057935e-2l 0.28337531486146095,4.1981528127623844e-3 l 0.7199832073887489,0.9130982367758186 c 6.087321578505457e-2,7.766582703610411e-2 9.235936188077246e-2,0.11544920235096558 0.10075566750629722 0.11544920235096558c 1.4693534844668345e-2,0.0 1.4693534844668345e-2,-2.3089840470193114e-2 1.4693534844668345e-2 -6.297229219143577e-2v -0.6863979848866498 ZM 12.830814441645678,-0.5373635600335854 ZM 13.420654911838794,-1.2951301427371957 c 0.17842149454240133,0.0 0.1847187237615449,-2.72879932829555e-2 0.1910159529806885 -0.14273719563392107c 1.2594458438287152e-2,-1.2594458438287152e-2 5.667506297229219e-2,-1.2594458438287152e-2 6.926952141057935e-2 0.0c -2.0990764063811922e-3,5.037783375314861e-2 -4.1981528127623844e-3,0.12174643157010914 -4.1981528127623844e-3 0.18052057094878254c 0.0,7.199832073887488e-2 2.0990764063811922e-3,0.1301427371956339 4.1981528127623844e-3 0.1847187237615449c -1.2594458438287152e-2,1.2594458438287152e-2 -5.667506297229219e-2,1.2594458438287152e-2 -6.926952141057935e-2 0.0c -6.297229219143576e-3,-9.445843828715365e-2 -1.2594458438287152e-2,-0.14273719563392107 -0.1910159529806885 -0.14273719563392107h -0.1910159529806885 v 0.4638958858102435 c 0.0,9.865659109991604e-2 2.938706968933669e-2,0.13224181360201512 0.11754827875734676 0.13224181360201512h 0.24349286314021829 c 0.15952980688497062,0.0 0.23299748110831234,-0.12384550797649034 0.27497900923593616 -0.27497900923593616c 2.7497900923593617e-2,-6.717044500419815e-3 5.163727959697733e-2,-1.8891561712846348e-3 7.346767422334173e-2 1.0495382031905962e-2c -1.6792611251049538e-2,0.1070528967254408 -4.827875734676742e-2,0.2455919395465995 -7.766582703610411e-2 0.3505457598656591c 0.0,0.0 -0.16792611251049538,-4.1981528127623844e-3 -0.2686817800167926 -4.1981528127623844e-3h -0.45130142737195633 c -6.926952141057935e-2,0.0 -0.1952141057934509,2.0990764063811922e-3 -0.27287993282955497 4.1981528127623844e-3c -1.2594458438287152e-2,-1.2594458438287152e-2 -1.2594458438287152e-2,-5.667506297229219e-2 0.0 -6.926952141057935e-2c 0.14693534844668346,-6.297229219143576e-3 0.18261964735516373,-1.6792611251049538e-2 0.18261964735516373 -0.1910159529806885v -0.8417296389588581 c 0.0,-0.17422334172963896 -3.5684298908480266e-2,-0.1847187237615449 -0.18261964735516373 -0.1910159529806885c -1.2594458438287152e-2,-1.2594458438287152e-2 -1.2594458438287152e-2,-5.667506297229219e-2 0.0 -6.926952141057935e-2c 8.396305625524769e-2,2.0990764063811922e-3 0.20675902602854743,4.1981528127623844e-3 0.2707808564231738 4.1981528127623844e-3h 0.535264483627204 c 5.037783375314861e-2,0.0 6.717044500419815e-2,-2.0990764063811922e-3 0.10285474391267842 -8.396305625524769e-3c 6.297229219143576e-3,0.0 8.396305625524769e-3,2.0990764063811922e-3 8.396305625524769e-3 6.297229219143576e-3c 4.1981528127623844e-3,1.6792611251049538e-2 3.5684298908480266e-2,0.218303946263644 4.617968094038623e-2 0.3043660789252729c -2.057092779177162e-2,9.865680100755668e-3 -4.324097397145256e-2,1.4273698572628044e-2 -6.926952141057935e-2 1.0495382031905962e-2c -4.617968094038623e-2,-0.14483627204030225 -7.976490344248531e-2,-0.22879932829554994 -0.23719563392107473 -0.22879932829554994h -0.1574307304785894 c -0.11335012594458438,0.0 -0.1385390428211587,4.1981528127623846e-2 -0.1385390428211587 0.1343408900083963v 0.3778337531486146 h 0.1910159529806885 Z" /></g></g><g transform="matrix(28.571428571428566,0.0,0.0,28.571428571428566,0.0,82.82355763464074)"><g stroke="rgb(0,0,0)" stroke-opacity="1.0" fill="rgb(0,0,0)" fill-opacity="0.0" stroke-width="1.0e-2" font-size="1.0em"><path d="M 14.000000000000004,0.0 l -1.1102230246251565e-15,-1.0 h -10.0 l -1.1102230246251565e-15,1.0 Z" /></g></g><g transform="matrix(28.571428571428566,0.0,0.0,28.571428571428566,0.0,82.82355763464074)"><g stroke="rgb(0,0,0)" stroke-opacity="1.0" fill="rgb(0,0,0)" fill-opacity="0.0" stroke-width="1.0e-2" font-size="1.0em"></g></g><g transform="matrix(28.571428571428566,0.0,0.0,28.571428571428566,0.0,82.82355763464074)"><g stroke="rgb(0,0,0)" stroke-opacity="1.0" fill="rgb(211,211,211)" fill-opacity="1.0" stroke-width="0.0" fill-rule="evenodd" font-size="1.0em"><path d="M 3.000000000000001,5.551115123125783e-17 l -3.3306690738754706e-16,-0.8696473551637278 h -3.000000000000001 l -3.3306690738754706e-16,0.8696473551637278 Z" /></g></g><g transform="matrix(28.571428571428566,0.0,0.0,28.571428571428566,0.0,82.82355763464074)"><g stroke="rgb(0,0,255)" stroke-opacity="1.0" fill="rgb(0,0,255)" fill-opacity="1.0" stroke-width="1.0e-2" fill-rule="evenodd" font-size="1.0em"><path d="M 4.440892098500626e-16,-0.1612090680100755 ZM 0.3891687657430736,-0.23803526448362713 c 0.0,5.2267002518891686e-2 1.0705289672544081e-2,5.5415617128463476e-2 5.478589420654912e-2 5.7304785894206546e-2c 3.778337531486146e-3,3.778337531486146e-3 3.778337531486146e-3,1.7002518891687655e-2 0.0 2.0780856423173802e-2c -2.7707808564231738e-2,-6.297229219143577e-4 -5.77455919395466e-2,-1.2594458438287153e-3 -8.123425692695214e-2 -1.2594458438287153e-3c -2.336272040302267e-2,0.0 -5.35264483627204e-2,6.297229219143577e-4 -8.18639798488665e-2 1.2594458438287153e-3c -3.778337531486146e-3,-3.778337531486146e-3 -3.778337531486146e-3,-1.7002518891687655e-2 0.0 -2.0780856423173802e-2c 4.408060453400504e-2,-1.889168765743073e-3 5.478589420654912e-2,-5.037783375314861e-3 5.478589420654912e-2 -5.7304785894206546e-2v -0.1253148614609572 h -0.21536523929471033 v 0.1253148614609572 c 0.0,5.2267002518891686e-2 1.0705289672544081e-2,5.5415617128463476e-2 5.478589420654912e-2 5.7304785894206546e-2c 3.778337531486146e-3,3.778337531486146e-3 3.778337531486146e-3,1.7002518891687655e-2 0.0 2.0780856423173802e-2c -2.7707808564231738e-2,-6.297229219143577e-4 -5.8375314861460956e-2,-1.2594458438287153e-3 -8.123425692695214e-2 -1.2594458438287153e-3c -2.3740554156171285e-2,0.0 -5.4156171284634756e-2,6.297229219143577e-4 -8.18639798488665e-2 1.2594458438287153e-3c -3.778337531486146e-3,-3.778337531486146e-3 -3.778337531486146e-3,-1.7002518891687655e-2 0.0 -2.0780856423173802e-2c 4.408060453400504e-2,-1.889168765743073e-3 5.478589420654912e-2,-5.037783375314861e-3 5.478589420654912e-2 -5.7304785894206546e-2v -0.2525188916876574 c 0.0,-5.2267002518891686e-2 -1.0705289672544081e-2,-5.5415617128463476e-2 -5.478589420654912e-2 -5.7304785894206546e-2c -3.778337531486146e-3,-3.778337531486146e-3 -3.778337531486146e-3,-1.7002518891687655e-2 0.0 -2.0780856423173802e-2c 2.392947103274559e-2,6.297229219143577e-4 4.974811083123425e-2,1.2594458438287153e-3 8.123425692695214e-2 1.2594458438287153e-3c 3.211586901763224e-2,0.0 5.79345088161209e-2,-6.297229219143577e-4 8.18639798488665e-2 -1.2594458438287153e-3c 3.778337531486146e-3,3.778337531486146e-3 3.778337531486146e-3,1.7002518891687655e-2 0.0 2.0780856423173802e-2c -4.408060453400504e-2,1.889168765743073e-3 -5.478589420654912e-2,5.037783375314861e-3 -5.478589420654912e-2 5.7304785894206546e-2v 0.10075566750629722 h 0.21536523929471033 v -0.10075566750629722 c 0.0,-5.2267002518891686e-2 -1.0705289672544081e-2,-5.5415617128463476e-2 -5.478589420654912e-2 -5.7304785894206546e-2c -3.778337531486146e-3,-3.778337531486146e-3 -3.778337531486146e-3,-1.7002518891687655e-2 0.0 -2.0780856423173802e-2c 2.7707808564231738e-2,6.297229219143577e-4 5.77455919395466e-2,1.2594458438287153e-3 8.123425692695214e-2 1.2594458438287153e-3c 2.392947103274559e-2,0.0 5.604534005037783e-2,-6.297229219143577e-4 8.18639798488665e-2 -1.2594458438287153e-3c 3.778337531486146e-3,3.778337531486146e-3 3.778337531486146e-3,1.7002518891687655e-2 0.0 2.0780856423173802e-2c -4.408060453400504e-2,1.889168765743073e-3 -5.478589420654912e-2,5.037783375314861e-3 -5.478589420654912e-2 5.7304785894206546e-2v 0.2525188916876574 ZM 0.4596977329974816,-0.1612090680100755 ZM 0.6366498740554161,-0.38853904282115864 c 5.35264483627204e-2,0.0 5.5415617128463476e-2,-8.18639798488665e-3 5.7304785894206546e-2 -4.2821158690176324e-2c 3.778337531486146e-3,-3.778337531486146e-3 1.7002518891687655e-2,-3.778337531486146e-3 2.0780856423173802e-2 0.0c -6.297229219143577e-4,1.5113350125944584e-2 -1.2594458438287153e-3,3.6523929471032744e-2 -1.2594458438287153e-3 5.4156171284634756e-2c 0.0,2.1599496221662465e-2 6.297229219143577e-4,3.904282115869018e-2 1.2594458438287153e-3 5.5415617128463476e-2c -3.778337531486146e-3,3.778337531486146e-3 -1.7002518891687655e-2,3.778337531486146e-3 -2.0780856423173802e-2 0.0c -1.889168765743073e-3,-2.8337531486146095e-2 -3.778337531486146e-3,-4.2821158690176324e-2 -5.7304785894206546e-2 -4.2821158690176324e-2h -5.7304785894206546e-2 v 0.13916876574307305 c 0.0,2.959697732997481e-2 8.816120906801008e-3,3.9672544080604534e-2 3.526448362720403e-2 3.9672544080604534e-2h 7.304785894206549e-2 c 4.785894206549118e-2,0.0 6.98992443324937e-2,-3.71536523929471e-2 8.249370277078086e-2 -8.249370277078086e-2c 8.249370277078085e-3,-2.0151133501259445e-3 1.54911838790932e-2,-5.667468513853905e-4 2.204030226700252e-2 3.148614609571788e-3c -5.037783375314861e-3,3.211586901763224e-2 -1.4483627204030226e-2,7.367758186397985e-2 -2.3299748110831235e-2 0.10516372795969774c 0.0,0.0 -5.037783375314861e-2,-1.2594458438287153e-3 -8.060453400503778e-2 -1.2594458438287153e-3h -0.1353904282115869 c -2.0780856423173802e-2,0.0 -5.8564231738035266e-2,6.297229219143577e-4 -8.18639798488665e-2 1.2594458438287153e-3c -3.778337531486146e-3,-3.778337531486146e-3 -3.778337531486146e-3,-1.7002518891687655e-2 0.0 -2.0780856423173802e-2c 4.408060453400504e-2,-1.889168765743073e-3 5.478589420654912e-2,-5.037783375314861e-3 5.478589420654912e-2 -5.7304785894206546e-2v -0.2525188916876574 c 0.0,-5.2267002518891686e-2 -1.0705289672544081e-2,-5.5415617128463476e-2 -5.478589420654912e-2 -5.7304785894206546e-2c -3.778337531486146e-3,-3.778337531486146e-3 -3.778337531486146e-3,-1.7002518891687655e-2 0.0 -2.0780856423173802e-2c 2.5188916876574305e-2,6.297229219143577e-4 6.202770780856423e-2,1.2594458438287153e-3 8.123425692695214e-2 1.2594458438287153e-3h 0.1605793450881612 c 1.5113350125944584e-2,0.0 2.0151133501259445e-2,-6.297229219143577e-4 3.0856423173803525e-2 -2.5188916876574307e-3c 1.889168765743073e-3,0.0 2.5188916876574307e-3,6.297229219143577e-4 2.5188916876574307e-3 1.889168765743073e-3c 1.2594458438287153e-3,5.037783375314861e-3 1.0705289672544081e-2,6.54911838790932e-2 1.3853904282115869e-2 9.130982367758186e-2c -6.171278337531486e-3,2.9597040302267e-3 -1.2972292191435768e-2,4.282109571788413e-3 -2.0780856423173802e-2 3.148614609571788e-3c -1.3853904282115869e-2,-4.345088161209068e-2 -2.392947103274559e-2,-6.863979848866499e-2 -7.115869017632241e-2 -6.863979848866499e-2h -4.722921914357683e-2 c -3.400503778337531e-2,0.0 -4.1561712846347604e-2,1.2594458438287152e-2 -4.1561712846347604e-2 4.030226700251889e-2v 0.11335012594458438 h 5.7304785894206546e-2 ZM 0.8104534005037788,-0.1612090680100755 ZM 0.9760705289672549,-0.3394206549118387 h 0.1114609571788413 l -5.919395465994962e-2,-0.1712846347607053 h -3.778337531486146e-3 l -6.435768261964736e-2,0.16290931989924431 c -2.392947103274559e-3,6.486146095717884e-3 2.0151133501259445e-3,8.375314861460958e-3 1.5869017632241814e-2 8.375314861460958e-3ZM 0.9760705289672549,-0.3394206549118387 ZM 0.9080604534005042,-0.21095717884130977 c -9.82367758186398e-3,2.58816120906801e-2 1.977329974811083e-2,2.8589420654911837e-2 4.345088161209068e-2 3.0226700251889168e-2c 3.778337531486146e-3,3.778337531486146e-3 3.778337531486146e-3,1.7002518891687655e-2 0.0 2.0780856423173802e-2c -2.3299748110831235e-2,-6.297229219143577e-4 -5.478589420654912e-2,-1.2594458438287153e-3 -8.060453400503778e-2 -1.2594458438287153e-3c -1.908060453400504e-2,0.0 -3.9672544080604534e-2,6.297229219143577e-4 -5.604534005037783e-2 1.2594458438287153e-3c -3.778337531486146e-3,-3.778337531486146e-3 -3.778337531486146e-3,-1.7002518891687655e-2 0.0 -2.0780856423173802e-2c 2.739294710327456e-2,-1.889168765743073e-3 4.659949622166247e-2,-5.667506297229219e-3 6.297229219143577e-2 -4.4710327455919394e-2l 0.1429471032745592,-0.3375314861460957 c 8.18639798488665e-3,0.0 2.5188916876574305e-2,-6.9269521410579345e-3 3.4634760705289674e-2 -1.2594458438287152e-2l 0.1297229219143577,0.3602015113350126 c 1.0957178841309822e-2,3.0352644836272043e-2 3.224181360201511e-2,3.243073047858942e-2 5.667506297229219e-2 3.4634760705289674e-2c 3.778337531486146e-3,3.778337531486146e-3 3.778337531486146e-3,1.7002518891687655e-2 0.0 2.0780856423173802e-2c -2.204030226700252e-2,-6.297229219143577e-4 -4.596977329974811e-2,-1.2594458438287153e-3 -7.178841309823678e-2 -1.2594458438287153e-3c -2.455919395465995e-2,0.0 -5.919395465994962e-2,6.297229219143577e-4 -8.249370277078086e-2 1.2594458438287153e-3c -3.778337531486146e-3,-3.778337531486146e-3 -3.778337531486146e-3,-1.7002518891687655e-2 0.0 -2.0780856423173802e-2c 2.9974811083123425e-2,-2.141057934508816e-3 5.4030226700251885e-2,-4.093198992443325e-3 4.659949622166247e-2 -2.5818639798488665e-2l -3.6523929471032744e-2,-0.10642317380352645 h -0.13287153652392947 c -1.5113350125944584e-2,0.0 -1.889168765743073e-2,2.5188916876574307e-3 -2.204030226700252e-2 1.0705289672544081e-2ZM 1.2481108312342573,-0.1612090680100755 ZM 1.3683879093198996,-0.21410579345088154 c 0.0,2.0151133501259445e-2 6.9269521410579345e-3,3.27455919395466e-2 6.863979848866499e-2 3.27455919395466e-2c 8.879093198992444e-2,0.0 0.16498740554156172,-3.1486146095717885e-2 0.16498740554156172 -0.15869017632241814c 0.0,-9.697732997481108e-2 -4.4710327455919394e-2,-0.20717884130982367 -0.18073047858942065 -0.20717884130982367c -3.0856423173803525e-2,0.0 -5.289672544080604e-2,8.816120906801008e-3 -5.289672544080604e-2 3.0856423173803525e-2v 0.30226700251889166 ZM 1.3683879093198996,-0.21410579345088154 ZM 1.3413098236775822,-0.5673803526448362 c 2.455919395465995e-2,0.0 5.919395465994962e-2,-1.2594458438287153e-3 0.10390428211586901 -1.2594458438287153e-3c 0.12090680100755667,0.0 0.2172544080604534,9.634760705289672e-2 0.2172544080604534 0.21347607052896725c 0.0,0.15491183879093198 -0.11712846347607053,0.1952141057934509 -0.20591939546599497 0.1952141057934509c -6.486146095717885e-2,0.0 -9.130982367758186e-2,-1.2594458438287153e-3 -0.11460957178841309 -1.2594458438287153e-3c -2.3740554156171285e-2,0.0 -5.7304785894206546e-2,6.297229219143577e-4 -8.18639798488665e-2 1.2594458438287153e-3c -3.778337531486146e-3,-3.778337531486146e-3 -3.778337531486146e-3,-1.7002518891687655e-2 0.0 -2.0780856423173802e-2c 4.408060453400504e-2,-1.889168765743073e-3 5.478589420654912e-2,-5.037783375314861e-3 5.478589420654912e-2 -5.7304785894206546e-2v -0.2525188916876574 c 0.0,-5.2267002518891686e-2 -1.0705289672544081e-2,-5.5415617128463476e-2 -5.478589420654912e-2 -5.7304785894206546e-2c -3.778337531486146e-3,-3.778337531486146e-3 -3.778337531486146e-3,-1.7002518891687655e-2 0.0 -2.0780856423173802e-2c 2.5188916876574305e-2,6.297229219143577e-4 5.875314861460957e-2,1.2594458438287153e-3 8.123425692695214e-2 1.2594458438287153e-3ZM 1.689546599496222,-0.1612090680100755 ZM 1.7833753148614613,-0.1612090680100755 c -2.1221662468513855e-2,0.0 -5.7304785894206546e-2,6.297229219143577e-4 -8.18639798488665e-2 1.2594458438287153e-3c -3.778337531486146e-3,-3.778337531486146e-3 -3.778337531486146e-3,-1.7002518891687655e-2 0.0 -2.0780856423173802e-2c 4.408060453400504e-2,-1.889168765743073e-3 5.478589420654912e-2,-5.037783375314861e-3 5.478589420654912e-2 -5.7304785894206546e-2v -0.2525188916876574 c 0.0,-5.2267002518891686e-2 -1.0705289672544081e-2,-5.5415617128463476e-2 -5.478589420654912e-2 -5.7304785894206546e-2c -3.778337531486146e-3,-3.778337531486146e-3 -3.778337531486146e-3,-1.7002518891687655e-2 0.0 -2.0780856423173802e-2c 2.896725440806045e-2,6.297229219143577e-4 5.8501259445843834e-2,1.2594458438287153e-3 8.123425692695214e-2 1.2594458438287153e-3c 2.3992443324937027e-2,0.0 5.35264483627204e-2,-6.297229219143577e-4 8.18639798488665e-2 -1.2594458438287153e-3c 3.778337531486146e-3,3.778337531486146e-3 3.778337531486146e-3,1.7002518891687655e-2 0.0 2.0780856423173802e-2c -4.408060453400504e-2,1.889168765743073e-3 -5.478589420654912e-2,5.037783375314861e-3 -5.478589420654912e-2 5.7304785894206546e-2v 0.2607052896725441 c 0.0,3.211586901763224e-2 1.1335012594458438e-2,4.408060453400504e-2 3.589420654911839e-2 4.408060453400504e-2h 3.9672544080604534e-2 c 6.675062972292191e-2,0.0 9.005037783375315e-2,-3.71536523929471e-2 0.1026448362720403 -8.249370277078086e-2c 7.8085642317380355e-3,-1.1335012594458438e-3 1.4609571788413097e-2,1.8891876574307306e-4 2.0780856423173802e-2 3.148614609571788e-3c -3.778337531486146e-3,3.27455919395466e-2 -1.0075566750629723e-2,7.367758186397985e-2 -1.63727959697733e-2 0.10516372795969774c 0.0,0.0 -5.79345088161209e-2,-1.2594458438287153e-3 -7.512594458438286e-2 -1.2594458438287153e-3h -0.13394206549118387 ZM 2.022040302267003,-0.1612090680100755 ZM 2.142317380352645,-0.23803526448362713 c 0.0,5.2267002518891686e-2 1.0705289672544081e-2,5.5415617128463476e-2 5.478589420654912e-2 5.7304785894206546e-2c 3.778337531486146e-3,3.778337531486146e-3 3.778337531486146e-3,1.7002518891687655e-2 0.0 2.0780856423173802e-2c -2.8337531486146095e-2,-6.297229219143577e-4 -5.881612090680101e-2,-1.2594458438287153e-3 -8.123425692695214e-2 -1.2594458438287153e-3c -2.2858942065491182e-2,0.0 -5.35264483627204e-2,6.297229219143577e-4 -8.18639798488665e-2 1.2594458438287153e-3c -3.778337531486146e-3,-3.778337531486146e-3 -3.778337531486146e-3,-1.7002518891687655e-2 0.0 -2.0780856423173802e-2c 4.408060453400504e-2,-1.889168765743073e-3 5.478589420654912e-2,-5.037783375314861e-3 5.478589420654912e-2 -5.7304785894206546e-2v -0.2525188916876574 c 0.0,-5.2267002518891686e-2 -1.0705289672544081e-2,-5.5415617128463476e-2 -5.478589420654912e-2 -5.7304785894206546e-2c -3.778337531486146e-3,-3.778337531486146e-3 -3.778337531486146e-3,-1.7002518891687655e-2 0.0 -2.0780856423173802e-2c 2.959697732997481e-2,6.297229219143577e-4 6.0138539042821154e-2,1.2594458438287153e-3 8.123425692695214e-2 1.2594458438287153e-3c 2.424433249370277e-2,0.0 5.4156171284634756e-2,-6.297229219143577e-4 8.18639798488665e-2 -1.2594458438287153e-3c 3.778337531486146e-3,3.778337531486146e-3 3.778337531486146e-3,1.7002518891687655e-2 0.0 2.0780856423173802e-2c -4.408060453400504e-2,1.889168765743073e-3 -5.478589420654912e-2,5.037783375314861e-3 -5.478589420654912e-2 5.7304785894206546e-2v 0.2525188916876574 ZM 2.2090680100755673,-0.1612090680100755 ZM 2.55919395465995,-0.48362720403022663 c 0.0,-5.7304785894206546e-2 -1.0705289672544081e-2,-5.982367758186398e-2 -5.478589420654912e-2 -6.423173803526448e-2c -3.778337531486146e-3,-3.778337531486146e-3 -3.778337531486146e-3,-1.7002518891687655e-2 0.0 -2.0780856423173802e-2c 2.7707808564231738e-2,6.297229219143577e-4 5.6486146095717886e-2,1.2594458438287153e-3 6.98992443324937e-2 1.2594458438287153e-3c 1.4924433249370277e-2,0.0 4.4710327455919394e-2,-6.297229219143577e-4 7.052896725440806e-2 -1.2594458438287153e-3c 3.778337531486146e-3,3.778337531486146e-3 3.778337531486146e-3,1.7002518891687655e-2 0.0 2.0780856423173802e-2c -4.408060453400504e-2,4.408060453400504e-3 -5.478589420654912e-2,8.18639798488665e-3 -5.478589420654912e-2 6.423173803526448e-2v 0.3091939546599496 c 0.0,1.1964735516372796e-2 -5.667506297229219e-3,1.952141057934509e-2 -1.4483627204030226e-2 1.952141057934509e-2c -1.0075566750629723e-2,0.0 -1.8261964735516372e-2,-5.667506297229219e-3 -2.5188916876574305e-2 -1.5113350125944584e-2l -0.21977329974811083,-0.2777078085642317 c -1.0705289672544081e-2,-1.3853904282115869e-2 -1.7632241813602016e-2,-2.0780856423173802e-2 -2.1410579345088162e-2 -2.0780856423173802e-2c -5.037783375314861e-3,0.0 -5.037783375314861e-3,9.445843828715364e-3 -5.037783375314861e-3 3.0856423173803525e-2v 0.19269521410579343 c 0.0,5.7304785894206546e-2 1.0705289672544081e-2,5.982367758186398e-2 5.478589420654912e-2 6.423173803526448e-2c 3.778337531486146e-3,3.778337531486146e-3 3.778337531486146e-3,1.7002518891687655e-2 0.0 2.0780856423173802e-2c -2.644836272040302e-2,-6.297229219143577e-4 -5.5352644836272044e-2,-1.2594458438287153e-3 -6.98992443324937e-2 -1.2594458438287153e-3c -1.4861460957178841e-2,0.0 -4.345088161209068e-2,6.297229219143577e-4 -7.052896725440806e-2 1.2594458438287153e-3c -3.778337531486146e-3,-3.778337531486146e-3 -3.778337531486146e-3,-1.7002518891687655e-2 0.0 -2.0780856423173802e-2c 4.408060453400504e-2,-4.408060453400504e-3 5.478589420654912e-2,-8.18639798488665e-3 5.478589420654912e-2 -6.423173803526448e-2v -0.26259445843828716 c -3.778337531486146e-3,-1.63727959697733e-2 -2.2670025188916875e-2,-3.841309823677582e-2 -4.974811083123425e-2 -4.030226700251889e-2c -3.778337531486146e-3,-3.778337531486146e-3 -3.778337531486146e-3,-1.7002518891687655e-2 0.0 -2.0780856423173802e-2l 8.501259445843828e-2,1.2594458438287153e-3 l 0.21599496221662468,0.27392947103274556 c 1.8261964735516372e-2,2.3299748110831235e-2 2.7707808564231738e-2,3.4634760705289674e-2 3.0226700251889168e-2 3.4634760705289674e-2c 4.408060453400504e-3,0.0 4.408060453400504e-3,-6.9269521410579345e-3 4.408060453400504e-3 -1.889168765743073e-2v -0.20591939546599497 ZM 2.649244332493703,-0.1612090680100755 ZM 2.826196473551638,-0.38853904282115864 c 5.35264483627204e-2,0.0 5.5415617128463476e-2,-8.18639798488665e-3 5.7304785894206546e-2 -4.2821158690176324e-2c 3.778337531486146e-3,-3.778337531486146e-3 1.7002518891687655e-2,-3.778337531486146e-3 2.0780856423173802e-2 0.0c -6.297229219143577e-4,1.5113350125944584e-2 -1.2594458438287153e-3,3.6523929471032744e-2 -1.2594458438287153e-3 5.4156171284634756e-2c 0.0,2.1599496221662465e-2 6.297229219143577e-4,3.904282115869018e-2 1.2594458438287153e-3 5.5415617128463476e-2c -3.778337531486146e-3,3.778337531486146e-3 -1.7002518891687655e-2,3.778337531486146e-3 -2.0780856423173802e-2 0.0c -1.889168765743073e-3,-2.8337531486146095e-2 -3.778337531486146e-3,-4.2821158690176324e-2 -5.7304785894206546e-2 -4.2821158690176324e-2h -5.7304785894206546e-2 v 0.13916876574307305 c 0.0,2.959697732997481e-2 8.816120906801008e-3,3.9672544080604534e-2 3.526448362720403e-2 3.9672544080604534e-2h 7.304785894206549e-2 c 4.785894206549118e-2,0.0 6.98992443324937e-2,-3.71536523929471e-2 8.249370277078086e-2 -8.249370277078086e-2c 8.249370277078085e-3,-2.0151133501259445e-3 1.54911838790932e-2,-5.667468513853905e-4 2.204030226700252e-2 3.148614609571788e-3c -5.037783375314861e-3,3.211586901763224e-2 -1.4483627204030226e-2,7.367758186397985e-2 -2.3299748110831235e-2 0.10516372795969774c 0.0,0.0 -5.037783375314861e-2,-1.2594458438287153e-3 -8.060453400503778e-2 -1.2594458438287153e-3h -0.1353904282115869 c -2.0780856423173802e-2,0.0 -5.8564231738035266e-2,6.297229219143577e-4 -8.18639798488665e-2 1.2594458438287153e-3c -3.778337531486146e-3,-3.778337531486146e-3 -3.778337531486146e-3,-1.7002518891687655e-2 0.0 -2.0780856423173802e-2c 4.408060453400504e-2,-1.889168765743073e-3 5.478589420654912e-2,-5.037783375314861e-3 5.478589420654912e-2 -5.7304785894206546e-2v -0.2525188916876574 c 0.0,-5.2267002518891686e-2 -1.0705289672544081e-2,-5.5415617128463476e-2 -5.478589420654912e-2 -5.7304785894206546e-2c -3.778337531486146e-3,-3.778337531486146e-3 -3.778337531486146e-3,-1.7002518891687655e-2 0.0 -2.0780856423173802e-2c 2.5188916876574305e-2,6.297229219143577e-4 6.202770780856423e-2,1.2594458438287153e-3 8.123425692695214e-2 1.2594458438287153e-3h 0.1605793450881612 c 1.5113350125944584e-2,0.0 2.0151133501259445e-2,-6.297229219143577e-4 3.0856423173803525e-2 -2.5188916876574307e-3c 1.889168765743073e-3,0.0 2.5188916876574307e-3,6.297229219143577e-4 2.5188916876574307e-3 1.889168765743073e-3c 1.2594458438287153e-3,5.037783375314861e-3 1.0705289672544081e-2,6.54911838790932e-2 1.3853904282115869e-2 9.130982367758186e-2c -6.171278337531486e-3,2.9597040302267e-3 -1.2972292191435768e-2,4.282109571788413e-3 -2.0780856423173802e-2 3.148614609571788e-3c -1.3853904282115869e-2,-4.345088161209068e-2 -2.392947103274559e-2,-6.863979848866499e-2 -7.115869017632241e-2 -6.863979848866499e-2h -4.722921914357683e-2 c -3.400503778337531e-2,0.0 -4.1561712846347604e-2,1.2594458438287152e-2 -4.1561712846347604e-2 4.030226700251889e-2v 0.11335012594458438 h 5.7304785894206546e-2 Z" /></g></g><g transform="matrix(28.571428571428566,0.0,0.0,28.571428571428566,0.0,82.82355763464074)"><g stroke="rgb(0,0,0)" stroke-opacity="1.0" fill="rgb(0,0,0)" fill-opacity="0.0" stroke-width="1.0e-2" font-size="1.0em"><path d="M 3.000000000000001,0.0 l -3.3306690738754696e-16,-1.0 h -3.0 l -3.3306690738754696e-16,1.0 Z" /></g></g></g></svg>